G75*
%MOIN*%
%OFA0B0*%
%FSLAX25Y25*%
%IPPOS*%
%LPD*%
%AMOC8*
5,1,8,0,0,1.08239X$1,22.5*
%
%ADD10C,0.00500*%
%ADD11C,0.00300*%
%ADD12C,0.00787*%
D10*
X0493126Y0121332D02*
X0493126Y0155191D01*
X0505724Y0167789D02*
X0516748Y0167789D01*
X0516748Y0108734D01*
X0505724Y0108734D01*
X0505224Y0065065D02*
X0506224Y0065065D01*
X0506224Y0063565D02*
X0505224Y0063065D01*
X0506224Y0062565D01*
X0506224Y0063565D01*
X0506224Y0061065D02*
X0505224Y0061065D01*
X0500961Y0056844D02*
X0500961Y0040939D01*
X0510488Y0040939D01*
X0510488Y0056844D01*
X0500961Y0056844D01*
D11*
X0498738Y0050369D02*
X0498738Y0048434D01*
X0497286Y0048434D01*
X0497770Y0049402D01*
X0497770Y0049885D01*
X0497286Y0050369D01*
X0496319Y0050369D01*
X0495835Y0049885D01*
X0495835Y0048918D01*
X0496319Y0048434D01*
X0495835Y0047423D02*
X0495835Y0045488D01*
X0497770Y0047423D01*
X0498254Y0047423D01*
X0498738Y0046939D01*
X0498738Y0045971D01*
X0498254Y0045488D01*
X0498254Y0044476D02*
X0498738Y0043992D01*
X0498738Y0043025D01*
X0498254Y0042541D01*
X0496319Y0042541D01*
X0495835Y0043025D01*
X0495835Y0043992D01*
X0496319Y0044476D01*
X0495835Y0041544D02*
X0495835Y0040577D01*
X0495835Y0041061D02*
X0498738Y0041061D01*
X0498738Y0041544D02*
X0498738Y0040577D01*
X0499859Y0066305D02*
X0501794Y0066305D01*
X0500826Y0066305D02*
X0500826Y0069208D01*
X0501794Y0068240D01*
X0502805Y0068724D02*
X0503289Y0069208D01*
X0504740Y0069208D01*
X0504740Y0066305D01*
X0503289Y0066305D01*
X0502805Y0066789D01*
X0502805Y0068724D01*
X0505752Y0069208D02*
X0507687Y0069208D01*
X0507687Y0066305D01*
X0505752Y0066305D01*
X0506719Y0067756D02*
X0507687Y0067756D01*
X0508698Y0066305D02*
X0510633Y0066305D01*
X0510633Y0069208D01*
D12*
X0499425Y0054600D03*
M02*
