M48
;GenerationSoftware,Autodesk,EAGLE,9.1.3*%
;CreationDate,2018-09-16T11:08:44Z*%
FMAT,2
ICI,OFF
METRIC,TZ,000.000
T10C0.200
T9C0.305
T8C0.650
T7C0.900
T6C1.000
T5C1.100
T4C1.200
T3C1.500
T2C2.000
%
G90
M71
T2
X3500Y3500
X3500Y59500
X116500Y59500
X116500Y3500
X4500Y15000
T3
X4500Y18000
X4500Y12000
X125000Y31500
T4
X110300Y17050
X117300Y17050
T5
X1185Y26985
X5575Y35605
X5575Y27345
X1185Y35965
T6
X125000Y27500
X6500Y15000
X125000Y35500
X2500Y15000
X125000Y33500
X125000Y29500
T7
X-3500Y50750
X89250Y61550
X91750Y61550
X78750Y1450
X76250Y1450
X68750Y1450
X66250Y1450
X-3500Y45750
T8
X-7500Y39500
X128500Y10500
X128500Y9500
X113000Y37000
X-7500Y40500
X-7500Y53500
X-7500Y54500
X128500Y18500
X128500Y17500
X121500Y9500
X-500Y8500
X6825Y35075
X6825Y27875
X-500Y54500
X-500Y53500
X-500Y40500
X-500Y39500
X-500Y21500
X-500Y20500
X-500Y9500
X121500Y10500
X120500Y53500
X120500Y52500
X128500Y37500
X128500Y36500
X128500Y26500
X128500Y25500
X120500Y10500
X120500Y9500
X127000Y7000
X119000Y7000
X119000Y56000
X-4000Y38000
X-6000Y38000
X-2000Y57000
X-6000Y57000
X127000Y40000
X123000Y23000
X127000Y23000
X123000Y7000
X115000Y7000
X127000Y56000
X134000Y23000
X130000Y23000
X134000Y40000
X-9000Y57000
X-13000Y57000
X-11000Y38000
X-13000Y38000
X132500Y8000
X132500Y20000
X113000Y39500
X130000Y8000
X-2500Y6000
X-8500Y6000
X-2500Y24000
X-8500Y24000
X7500Y6000
X1500Y6000
X101000Y37000
X101000Y39500
X130000Y20000
X1500Y24000
X7500Y24000
X4250Y38000
X6250Y57000
X2250Y38000
X2250Y57000
X119000Y40000
X115000Y23000
X119000Y23000
T9
X5475Y33875
X5475Y33075
X5475Y29075
X6175Y34275
X41500Y60850
X6175Y32675
X5475Y32275
X6175Y31875
X5475Y30675
X6175Y30275
X6175Y31075
X6175Y28675
X5475Y29875
T10
X28200Y42000
X16100Y43900
X47300Y40900
X36100Y42000
X39000Y21600
X13900Y47200
X41400Y20800
X16100Y45000
X43800Y22400
X16100Y49400
X43000Y23200
X16100Y50500
X39800Y22400
X16100Y42800
X39800Y21600
X44600Y22400
X14300Y22400
X34800Y52900
X34800Y50300
X40600Y17600
X37300Y53500
X40400Y50800
X40700Y52300
X14300Y21950
X102150Y24900
X88000Y25000
X89600Y13600
X41400Y14400
X87000Y12400
X41400Y20000
X78600Y9800
X50400Y26350
X90700Y21800
X92625Y58465
X40600Y19200
X21000Y30510
X26300Y24900
X21800Y31050
X24200Y31500
X25950Y26200
X22750Y22450
X18200Y25400
X30200Y22050
X25900Y23200
X89600Y31400
X53900Y22500
X53950Y18000
X17700Y33400
X40200Y26300
X36100Y18000
X49400Y9000
X44600Y20000
X35900Y13100
X45400Y20000
X49400Y12800
X51000Y12800
X44600Y16000
X43000Y18400
X47000Y17600
X43000Y20000
X18000Y26800
X17700Y33850
X15500Y32500
X94600Y7700
X86800Y13200
X42200Y14400
X-3800Y51950
X-3800Y52400
X123000Y17500
X123000Y53500
X126000Y9000
X124500Y55455
X123000Y52550
X122675Y15075
X124000Y9000
X124200Y21700
X124500Y54500
X122300Y56200
X94300Y6100
X42200Y15200
X23800Y21400
X84100Y6110
X27100Y19950
X83800Y9020
X110340Y15220
X18390Y9600
X22520Y6184
X23004Y5796
X20969Y6207
X20186Y6214
X116040Y13580
X30000Y6000
X43400Y26500
X19320Y6670
X87200Y14000
X44600Y14400
X80000Y7251
X46200Y24000
X84000Y11900
X41400Y15200
X95000Y13600
X40600Y20800
X89200Y9600
X41400Y23200
X83600Y13400
X42200Y16000
X95600Y13600
X42200Y23200
X87350Y10850
X41400Y22400
X80900Y13100
X41400Y16000
X94400Y12400
X39000Y17600
X84800Y14400
X51000Y15200
X81900Y13500
X50200Y15200
X81602Y9202
X39800Y24000
X86800Y9600
X40600Y24000
X86400Y11200
X42200Y21600
X79400Y12000
X80000Y26600
X15400Y19050
X19800Y13300
X25500Y11700
X21482Y6617
X23400Y31650
X45400Y21600
X54300Y49500
X86400Y23400
X47800Y12800
X88000Y26600
X47800Y13600
X83200Y22600
X47000Y12000
X84000Y22600
X47000Y12800
X14200Y31900
X39800Y18400
X80000Y27400
X41400Y19200
X84000Y27400
X42200Y20000
X84800Y27400
X39800Y20000
X84000Y26600
X39800Y15200
X84800Y26600
X40600Y14400
X85600Y27400
X49400Y15200
X85600Y28200
X48600Y15200
X46200Y23200
X59600Y42400
X52900Y42400
X91300Y45050
X93400Y38000
X90400Y27400
X90900Y46150
X92700Y38150
X89600Y27400
X107750Y38250
X52100Y9700
X50200Y14400
X33400Y33850
X130825Y17675
X104000Y38250
X60100Y37600
X79200Y25000
X131250Y17000
X59600Y45200
X54600Y45200
X79200Y29800
X54600Y48000
X81600Y29000
X58600Y50800
X80800Y29000
X58600Y49400
X79200Y29000
X54600Y46600
X34690Y23070
X49400Y13600
X18310Y29400
X40600Y20000
X98580Y29980
X107500Y5200
X109500Y9700
X110800Y7700
X106100Y8100
X117060Y10220
X25700Y30150
X104880Y12130
X110800Y8500
X39800Y16000
X98580Y29190
X25340Y10150
X20200Y22670
X104370Y12580
X111350Y8100
X39800Y16800
X8455Y33725
X25830Y10700
X20700Y22150
X62000Y12000
X47800Y20000
X62000Y12800
X48600Y20800
X34006Y22674
X47800Y12000
X18090Y27600
X40600Y18400
X25770Y27600
X17350Y37250
X55000Y37150
X45400Y23200
X86200Y37150
X8900Y32225
X48600Y13600
X80800Y25000
X51000Y13600
X86400Y28200
X50200Y12800
X86400Y25800
X48600Y12800
X88800Y29800
X8665Y36765
X88000Y28200
X11640Y37370
X9215Y30725
X41400Y24000
X7500Y26550
X42200Y24000
X18900Y22700
X85600Y31400
X12120Y33300
X8875Y29725
X85600Y30600
X12640Y33710
X9197Y29224
X88000Y31400
X88000Y30600
X86400Y31400
X9100Y33070
X86400Y30600
X9790Y32640
X87200Y31400
X9090Y33725
X87200Y30600
X50200Y20000
X66000Y12000
X84800Y22600
X49400Y19200
X65200Y10400
X88000Y20200
X50200Y19200
X65200Y11200
X88000Y22600
X51000Y18400
X64400Y10400
X88000Y21000
X50200Y18400
X62800Y17600
X79200Y22600
X51000Y19200
X64400Y16000
X83200Y21800
X51000Y21600
X66000Y17600
X81600Y21800
X50200Y21600
X66000Y16800
X67600Y12000
X50200Y16800
X61200Y16800
X47800Y17600
X62800Y16000
X49400Y17600
X62000Y11200
X48600Y17600
X62800Y16800
X48600Y21600
X62000Y17600
X47000Y21600
X80800Y21000
X85600Y21000
X46200Y22400
X66800Y11200
X86400Y21800
X40600Y21600
X66800Y12000
X85600Y20200
X41400Y21600
X66000Y11200
X86400Y21000
X60400Y11200
X44600Y15200
X61200Y11200
X39000Y16800
X64400Y11200
X39000Y16000
X63600Y16800
X94450Y31600
X96750Y51650
X66000Y16000
X67600Y12800
X63600Y12800
X63600Y11200
X65200Y12000
X64400Y15200
X103100Y53650
X109550Y53150
X106550Y56150
X108050Y56000
X104550Y49800
X90400Y18600
X90400Y31400
X77600Y31400
X67600Y16000
X51000Y20000
X64400Y17600
X80800Y22600
X47800Y24000
X67600Y16800
X81600Y21000
X47000Y23200
X67600Y17600
X79200Y21000
X47000Y24000
X77600Y19400
X79200Y20200
X45400Y22400
X66600Y14600
X47000Y15200
X62800Y15200
X49400Y18400
X63600Y12000
X40600Y16800
X62800Y11200
X46200Y14400
X105600Y52200
X64600Y31000
X66200Y31000
X67800Y31000
X68600Y32600
X67000Y27000
X65400Y27000
X95200Y24300
X106300Y52900
X105600Y53600
X107000Y53600
X107000Y52200
X61400Y32600
X84400Y9500
X82200Y5700
X93400Y9200
X92000Y56500
X72300Y31000
X91600Y15000
X22600Y27200
X21800Y26400
X21800Y27200
X22600Y26400
X85600Y21800
X46200Y17600
X88800Y20200
X86400Y20200
X78400Y30600
X80800Y29800
X82400Y29000
X80800Y20200
X78400Y19400
X84800Y29000
X88000Y25800
X88000Y23400
X22200Y26800
X87200Y29000
X89600Y30600
X83200Y23400
X81600Y26600
X84000Y25000
X82400Y21000
X80800Y21800
X84800Y25000
X83200Y25000
X88000Y21800
X46200Y13600
X61200Y12800
X84000Y21800
X43000Y12800
X61200Y12000
X84000Y21000
X43800Y12800
X60400Y12000
X84000Y20200
X44600Y12800
X60400Y12800
X83200Y20200
X42200Y12800
X60400Y15200
X83200Y21000
X47000Y14400
X61200Y15200
X82400Y21800
X48600Y16800
X62000Y16000
X81600Y20200
X49400Y16800
X62000Y16800
X46200Y20000
X22000Y9900
X21600Y10300
X22400Y10300
X21600Y9500
X22400Y9500
X69400Y26700
X108500Y7500
X43000Y13600
X43800Y16000
X43500Y11400
X80000Y22600
X43800Y20000
X46200Y16000
X52550Y18000
X88800Y21800
X58150Y13950
X44150Y8800
X72100Y23200
X119000Y19000
X104500Y11500
X100000Y2000
X84000Y29800
X32960Y19360
X96250Y20080
X88800Y21000
X106935Y40600
X105550Y49800
X107050Y49800
X105665Y40600
X106050Y49300
X104395Y40600
X49400Y23200
X96750Y45120
X39800Y19200
X49400Y22400
X95450Y45120
X83200Y29800
X49400Y24000
X98050Y45120
X84800Y30600
X105050Y56000
X50200Y22400
X83200Y29000
X51000Y22400
X58200Y52300
X90400Y24200
X8455Y31725
X51000Y24000
X8120Y31220
X50200Y24000
X47000Y22400
X44600Y23200
X83200Y28200
X55700Y53200
X44600Y24000
X81600Y29800
X109350Y51650
X48700Y40900
X27650Y47750
X48700Y37100
X25100Y45150
X50100Y37100
X26250Y45650
X47300Y37100
X28800Y45700
X22800Y34700
X22350Y34700
X80000Y19400
X39800Y12000
X21800Y13840
X80000Y18600
X39800Y12800
X21060Y14350
X78400Y18600
X39000Y12800
X20390Y13610
X79200Y18600
X39000Y12000
X21000Y13290
X113640Y19220
X39000Y13600
X23410Y15120
X79200Y19400
X4980Y46610
X22996Y13590
X5020Y50060
X22591Y13150
X45900Y40900
X25400Y2300
X44500Y40900
X43000Y20800
X84000Y29000
X109750Y51150
X49400Y21600
X85600Y29800
X40600Y13600
X31927Y16023
X65350Y2250
X39800Y14400
X32400Y16450
X75400Y2300
X104150Y17540
X35800Y20800
X47800Y20800
X54400Y19700
X43000Y16800
X36100Y16798
X51200Y9700
X88800Y26600
X43000Y16000
X36100Y15600
X18500Y8600
X110700Y47400
X91950Y11700
X96215Y17565
X104150Y20100
X98650Y24300
X102150Y24300
X22550Y47950
X16100Y46100
X2450Y44800
X97150Y49390
X99900Y52150
X95450Y42050
X85000Y9000
X113150Y56200
X12200Y42900
X67600Y10400
X56200Y14100
X18500Y17400
X14550Y36700
X29250Y33850
X91300Y49450
X91300Y51650
X22000Y18150
X88800Y25800
X77600Y18600
X81600Y25000
X80000Y20200
X87200Y20200
X88800Y22600
X80000Y29000
X82400Y29800
X88000Y29800
X84800Y29800
X88800Y27400
X84800Y21800
X21400Y22450
X82400Y20200
X65400Y31000
X67000Y31000
X61400Y25400
X68600Y25400
X67800Y27000
X66200Y27000
X64600Y27000
X25030Y17680
X84950Y6100
X33540Y19190
X92400Y19000
X87200Y24200
X92400Y20300
X80000Y25000
X50200Y13600
X52550Y13600
X39000Y18400
X31950Y18690
X104150Y16280
X89600Y20200
X39000Y19200
X87200Y22600
X96220Y18820
X89600Y24200
X87200Y25000
X99400Y24300
X88800Y24200
X92400Y24300
X88000Y24200
X95900Y24300
X39000Y20000
X32360Y19360
X87200Y21000
X37400Y39700
X80800Y26600
X87200Y27400
X87200Y23400
X81600Y22600
X96190Y31200
X26660Y25600
X75000Y23250
X96200Y32000
X26490Y26800
X43800Y18400
X80000Y21000
X82400Y22600
X88000Y29000
X85600Y22600
X86400Y26600
X82400Y26600
X81600Y28200
X75000Y24371
X80800Y18600
X88500Y34100
M30