%
M48
M72
T01C0.0120
T02C0.0236
T03C0.0256
T04C0.0315
T05C0.0354
T06C0.0394
T07C0.0400
T08C0.0433
T09C0.0472
T10C0.0591
T11C0.0787
T12C0.1181
%
T01
X4824Y3964
X5218Y3964
X6419Y4161
X6419Y4653
X8230Y4476
X8230Y4938
X9746Y4889
X10139Y4279
X10533Y4279
X11222Y4279
X11655Y4279
X12265Y4318
X12659Y4673
X11675Y5184
X12502Y5342
X13250Y5598
X12580Y6188
X13092Y6759
X12521Y7310
X11970Y6779
X13368Y7724
X13840Y7724
X14116Y7350
X14155Y6917
X14726Y6818
X14572Y6255
X14191Y6161
X15691Y6897
X15887Y6700
X15651Y7350
X14844Y7724
X15474Y8019
X16872Y8137
X16872Y8610
X16340Y9397
X16340Y9673
X15474Y9692
X15474Y9968
X14706Y10421
X14411Y10421
X13761Y10893
X13407Y10814
X12974Y10677
X12777Y11051
X12147Y10558
X11301Y10893
X11061Y10499
X11061Y10106
X11380Y9791
X11950Y9141
X12462Y9121
X10750Y9102
X10257Y8925
X9746Y8925
X9844Y9476
X9844Y9830
X8557Y10255
X8202Y10255
X8171Y10696
X8171Y11051
X7561Y10932
X6527Y11188
X7009Y11661
X7639Y11720
X7482Y12212
X6862Y12655
X6586Y12812
X6586Y13127
X6586Y13442
X6862Y13285
X6862Y13600
X6862Y13915
X6862Y14230
X6586Y14387
X6586Y14072
X6153Y13974
X6370Y13757
X8023Y13885
X8092Y14436
X9037Y14161
X9037Y13816
X9450Y13826
X10415Y13669
X11509Y13078
X11506Y12673
X12671Y12783
X13053Y12783
X13387Y12566
X13663Y12980
X13958Y12704
X14529Y12704
X14076Y13098
X12671Y13173
X15868Y13255
X16261Y13058
X15868Y12901
X17128Y12133
X17344Y11818
X16163Y11070
X15887Y11070
X14332Y11444
X18407Y10401
X18643Y10086
X18624Y9692
X18230Y9594
X18151Y9200
X19037Y8728
X18238Y8216
X18588Y7822
X18238Y7633
X18238Y7243
X18513Y6964
X18860Y6602
X18092Y6444
X19194Y5834
X19529Y5637
X19706Y5303
X19057Y5204
X16754Y5932
X16320Y6051
X16045Y6051
X15336Y4318
X14903Y4318
X14529Y4279
X14234Y4279
X15002Y3098
X15592Y3098
X16183Y3098
X17600Y3393
X20159Y3196
X20513Y3137
X20927Y3787
X21301Y3787
X21439Y4121
X21439Y4456
X23348Y3925
X23722Y3964
X24037Y3492
X23998Y4279
X23722Y4594
X23998Y4909
X23722Y5224
X23998Y5539
X23710Y5850
X23525Y6484
X23998Y6468
X22718Y6228
X22167Y6228
X21616Y6228
X21439Y7330
X21950Y7527
X21439Y7724
X21025Y7724
X20631Y7724
X20789Y8314
X21065Y8314
X21340Y8314
X22659Y7704
X22876Y7488
X23446Y7724
X23624Y7488
X24017Y7468
X24017Y8039
X24017Y8373
X23742Y8688
X24017Y9003
X23742Y9220
X23761Y9614
X24027Y9889
X23407Y10047
X23565Y10558
X23407Y10795
X23742Y10873
X24017Y10558
X25061Y11119
X25218Y10893
X24017Y11425
X24017Y11818
X25021Y11818
X26439Y12350
X26655Y12173
X27246Y12330
X27009Y11621
X27482Y10952
X28033Y10677
X28328Y11169
X29746Y10499
X28919Y10204
X28328Y9771
X27954Y9929
X27443Y10106
X26498Y10696
X27541Y9476
X27974Y8866
X28309Y9003
X28663Y8925
X29037Y8944
X28880Y8590
X28899Y8196
X27895Y8314
X27895Y7743
X26498Y7507
X25946Y7822
X25218Y7291
X25002Y7507
X25494Y6425
X25769Y6425
X26045Y6425
X26498Y6523
X27423Y6110
X28013Y6680
X28466Y6543
X28269Y6346
X29057Y6543
X29234Y6346
X29628Y6444
X30139Y6385
X30553Y6149
X30828Y6149
X31517Y6149
X31793Y6149
X32206Y6149
X32502Y5932
X33092Y5992
X33407Y5657
X33702Y5342
X33998Y5047
X34313Y4751
X34647Y4456
X34883Y4180
X35100Y3964
X33466Y4121
X32600Y4397
X31990Y4279
X31990Y4554
X31025Y4338
X29923Y4338
X29332Y4338
X28742Y4318
X28407Y4515
X28033Y4554
X27817Y4377
X28092Y4279
X28328Y4121
X28840Y3216
X30002Y2901
X30474Y3078
X30907Y3177
X30868Y2566
X31458Y2566
X32541Y2999
X32876Y2999
X33053Y2704
X33387Y2704
X33702Y2566
X34943Y1346
X32974Y1208
X37069Y2566
X38289Y2547
X38663Y2547
X39037Y2547
X39411Y2547
X39391Y3216
X40061Y3373
X40454Y3373
X40828Y3295
X41675Y3275
X42069Y3275
X42718Y3413
X42718Y3964
X42147Y4436
X41380Y3747
X40454Y3767
X40061Y3767
X40061Y4476
X40435Y4456
X39824Y4791
X39549Y5066
X39155Y5106
X38880Y4830
X38446Y4842
X38017Y4992
X37285Y4988
X35868Y6405
X34765Y7507
X34116Y8157
X33604Y8728
X33092Y8669
X32895Y8373
X30139Y8452
X30139Y8728
X30139Y9003
X29746Y9771
X31596Y10696
X32009Y10913
X32344Y11228
X32620Y11484
X33072Y11247
X33269Y11444
X33466Y11641
X34175Y11582
X34450Y11582
X34923Y11129
X34923Y10854
X34549Y10795
X33722Y10932
X33446Y10617
X34509Y10303
X34706Y10106
X34903Y9909
X36584Y9137
X36793Y8806
X36171Y8665
X36533Y8468
X36946Y8413
X38092Y8492
X38092Y8098
X38565Y9200
X39824Y9692
X40277Y9692
X39746Y10499
X39372Y10893
X38781Y10322
X38781Y9850
X36773Y10499
X35454Y11740
X35021Y12153
X34254Y12881
X33683Y13066
X32978Y12893
X32970Y13220
X32671Y13850
X32671Y14184
X33427Y13787
X34049Y13810
X34273Y14269
X35277Y14299
X36990Y14318
X37502Y14318
X39431Y14062
X40356Y14003
X41006Y14003
X40356Y14377
X42285Y13669
X42639Y13944
X42935Y14515
X43978Y14810
X44257Y15078
X44454Y14590
X44852Y14806
X44844Y14161
X45309Y14165
X45929Y13829
X46950Y14121
X46458Y14850
X45986Y14850
X45986Y15322
X46458Y15322
X47462Y15854
X47856Y16385
X49076Y16484
X49076Y16759
X49076Y17035
X49273Y17232
X49273Y17507
X49273Y17783
X49273Y18058
X49273Y18334
X49273Y18610
X49273Y18885
X49273Y19161
X49273Y19436
X49273Y19712
X49273Y19988
X49273Y20263
X49273Y20539
X49273Y20814
X49273Y21090
X49273Y21366
X49273Y21641
X49273Y21917
X49273Y22192
X49273Y22468
X49273Y22743
X49214Y23019
X48939Y23019
X48663Y23019
X48387Y23019
X48112Y23019
X47836Y23019
X47561Y23019
X47285Y23019
X47009Y23019
X46734Y23019
X46931Y22212
X45671Y22212
X45277Y21995
X44569Y21995
X44628Y22625
X44903Y22625
X45218Y22743
X45218Y23019
X44352Y22625
X44076Y22625
X43801Y22625
X43525Y22625
X43250Y22625
X42974Y22625
X41320Y22625
X41045Y22625
X40769Y22625
X40494Y22625
X40494Y22350
X40494Y22074
X40494Y21799
X40494Y21523
X40494Y21247
X40179Y21051
X39903Y21051
X39628Y21051
X39352Y21051
X39076Y21051
X38801Y21051
X38525Y21051
X38250Y21051
X37974Y21051
X37698Y21051
X37423Y21051
X37147Y21051
X36872Y21051
X35435Y21385
X35317Y22625
X35592Y22625
X35868Y22625
X36143Y22625
X36419Y22625
X35041Y22625
X34765Y22625
X34490Y22625
X34214Y22625
X33939Y22625
X33663Y22625
X33387Y22625
X33112Y22625
X32836Y22625
X32561Y22625
X32285Y22625
X32009Y22625
X31734Y22625
X31458Y22625
X31183Y22625
X30907Y22625
X30631Y22625
X30356Y22625
X30080Y22625
X29805Y22625
X29529Y22625
X29254Y22625
X28978Y22625
X28348Y22625
X27403Y23058
X26084Y23058
X23525Y23058
X20966Y23058
X19391Y21680
X18013Y23058
X16320Y23058
X15021Y23019
X14608Y22862
X13427Y21720
X12167Y21720
X11320Y21897
X10356Y21366
X10356Y20795
X10710Y20795
X9824Y20421
X9450Y20421
X8604Y20519
X7876Y20696
X7738Y20165
X7187Y19633
X6714Y20637
X6498Y21287
X6537Y21621
X5809Y21267
X4805Y20716
X6202Y22468
X6596Y22842
X7009Y23354
X5809Y23275
X8761Y22625
X9490Y21897
X8919Y21680
X8466Y21680
X8112Y21346
X10651Y20125
X10080Y19495
X9943Y18787
X10651Y18314
X10927Y18314
X11399Y18393
X9450Y17940
X9313Y17429
X9588Y17429
X9864Y17429
X10139Y17429
X9254Y16976
X8702Y16425
X7797Y17212
X7777Y17960
X8427Y17960
X7639Y18334
X6714Y18413
X4746Y17409
X7541Y15342
X6862Y14860
X6586Y14702
X8378Y15204
X10848Y15637
X11458Y15992
X11458Y16267
X12757Y17094
X12541Y17271
X13663Y17999
X13663Y18275
X15238Y17704
X15415Y18058
X16478Y17074
X17836Y17074
X17836Y17350
X17836Y17625
X18880Y17350
X19155Y17350
X18466Y18474
X18025Y18472
X17592Y18716
X19017Y18669
X19293Y18669
X19490Y18866
X19943Y18669
X20828Y18570
X20828Y18295
X21025Y18767
X21222Y18964
X21419Y19161
X22305Y18728
X22502Y18925
X22502Y19200
X23013Y19299
X23525Y19299
X24017Y19299
X24529Y19299
X25021Y19299
X25415Y18117
X25769Y18117
X26045Y17842
X26320Y18117
X26852Y18117
X27206Y17940
X27482Y18216
X26596Y17684
X27856Y18944
X27866Y19299
X29746Y18964
X30218Y18078
X33309Y18098
X34214Y17665
X34608Y17242
X34608Y18098
X34608Y18536
X34608Y18964
X34017Y18964
X32403Y20795
X31104Y20795
X30710Y20795
X29726Y20795
X28939Y21385
X26281Y20775
X22108Y18531
X21911Y18334
X22994Y18078
X17962Y15728
X17742Y15409
X18305Y15338
X18167Y15007
X18667Y14972
X17364Y15834
X16517Y15854
X16954Y16208
X17580Y16165
X21891Y15243
X22088Y15440
X23407Y14515
X23259Y13875
X24224Y14053
X24470Y13856
X25750Y14023
X26320Y13885
X26694Y13885
X26694Y13511
X27147Y13511
X27974Y14043
X28309Y13806
X29387Y14208
X29883Y14240
X29801Y14806
X30234Y14803
X30661Y14801
X32137Y14653
X33181Y14732
X31567Y13472
X31065Y13432
X29529Y12645
X30907Y11641
X31242Y11641
X31655Y11267
X32009Y11523
X36399Y12232
X36734Y12448
X37452Y12517
X40356Y12114
X40710Y11720
X40966Y12015
X41694Y11779
X41104Y11208
X42502Y11267
X42502Y10854
X42620Y10086
X43742Y10854
X44411Y9653
X44982Y9318
X43210Y8590
X43565Y7684
X43210Y7409
X43899Y6720
X44175Y6976
X45376Y7704
X47167Y7921
X47167Y8688
X48191Y8551
X48545Y8688
X49667Y8688
X50710Y8649
X48545Y7921
X49234Y7232
X51242Y7389
X47954Y5578
X47049Y5165
X46576Y5165
X44805Y4751
X45584Y4019
X45592Y3255
X46163Y2665
X46439Y2547
X47049Y1956
X46301Y1759
X46941Y1582
X48191Y2330
X48191Y2606
X47679Y2999
X49175Y3334
X49470Y3019
X49273Y2625
X49293Y1799
X49293Y1425
X49293Y1051
X48387Y1051
X44765Y1110
X44529Y2074
X43880Y2645
X43407Y2645
X43013Y2389
X43387Y2035
X42029Y2547
X41635Y2547
X44214Y3354
X44529Y5460
X46419Y6523
X42206Y5992
X41911Y6287
X41675Y5362
X41301Y8866
X45730Y10637
X46793Y10145
X48820Y10499
X48643Y11208
X48269Y11582
X47974Y11779
X47561Y12192
X46990Y11405
X45415Y12173
X44943Y13098
X43092Y13157
X41694Y13019
X40435Y13216
X43643Y15145
X43289Y15381
X42935Y15617
X44848Y15830
X45986Y16385
X44470Y16562
X44084Y16775
X43289Y17074
X43722Y17684
X45789Y17507
X46281Y17507
X46596Y18019
X46399Y18432
X46813Y19003
X47935Y18826
X47128Y19806
X47202Y20180
X46143Y20381
X45769Y20755
X45395Y21129
X46143Y21129
X47187Y21051
X48840Y20992
X45395Y20381
X44450Y19614
X44746Y19279
X44273Y19180
X45671Y18984
X43309Y20657
X42620Y20736
X41990Y21051
X43702Y21051
X40986Y20027
X39903Y20007
X39903Y19594
X39549Y19594
X39313Y19338
X39313Y18984
X38466Y19003
X39293Y18334
X39096Y18137
X38820Y18137
X39805Y17763
X40218Y17763
X42600Y18826
X39903Y20440
X47935Y17015
X49076Y15972
X49076Y15696
X49864Y14968
X49864Y14692
X49864Y14417
X49588Y14417
X49313Y14417
X49037Y14417
X48486Y14810
X49864Y14141
X49864Y13866
X49864Y13590
X49864Y13314
X49864Y13039
X49864Y12763
X49864Y12488
X48565Y13314
X41065Y15952
X40789Y15952
X38978Y16228
X38466Y16224
X38017Y16220
X37592Y16224
X37600Y15799
X25002Y9299
X21773Y9574
X21340Y9574
X20730Y10224
X21242Y10578
X21419Y10972
X20730Y10952
X20730Y11586
X19706Y11818
X19194Y12133
X20277Y12468
X21724Y12675
X22167Y13078
X21596Y13649
X19313Y11051
X19509Y10854
X19313Y10657
X19116Y10854
X18663Y10814
X19431Y10283
X19687Y9988
X19706Y10657
X10474Y7999
X9746Y8334
X8476Y8444
X7698Y8137
X7383Y8413
X7383Y7743
X7383Y7389
X7147Y7015
X6931Y6444
X8328Y6582
X9765Y6582
X9765Y7330
X6498Y8531
X6498Y8944
X4824Y9476
X4824Y7901
X4824Y5932
X8683Y3787
X8860Y3551
X9214Y3295
X8663Y3157
X8742Y2822
X9037Y2566
X9411Y2369
X11813Y2940
X12187Y2940
X12561Y2940
X13033Y2960
X13348Y3078
X10494Y5125
X8460Y9027
X8462Y9405
X9726Y10598
X10061Y10834
X8466Y12507
X8742Y12990
X9037Y13255
X8250Y13295
X11931Y19495
X12167Y20381
X14431Y19771
X14391Y19417
X14986Y20007
X15419Y20003
X15860Y19999
X16722Y20003
X17187Y20007
X17462Y20007
X17738Y20007
X16301Y21720
X14509Y20145
X10612Y22862
X10750Y23826
X28663Y24830
X51419Y5499
X50730Y3649
X50100Y3649
X49785Y3476
X51380Y3177
X29194Y4810
X25612Y4200
X25415Y4003
X22206Y2429
X26576Y1759
X26970Y1621
X27403Y1680
X28171Y1661
X28919Y1877
T02
X34746Y2783
X35533Y2783
X36320Y2783
X35533Y3570
X44588Y6720
X36320Y14594
X35533Y22074
T03
X7118Y15175
X7118Y12340
T04
X7383Y10263
X5021Y10263
X3053Y10263
X691Y10263
X691Y3177
X3053Y3177
X5021Y3177
X7383Y3177
X49805Y10460
X51183Y10460
X52954Y10460
X54332Y10460
X54332Y17153
X52954Y17153
X51183Y17153
T05
X45277Y1346
X44293Y1346
X35435Y1346
X34450Y1346
X31498Y1346
X30513Y1346
X10395Y24948
X9411Y24948
T06
X14588Y23708
X17836Y23708
X1872Y8688
X1872Y4751
X53643Y12232
X53643Y13019
X53643Y14594
X53643Y15381
T07
X6006Y18204
X6006Y19204
X6006Y20204
T08
X4897Y15525
X6626Y15383
X6626Y12131
X4897Y11990
T09
X47856Y7921
X50612Y7921
T10
X53643Y13806
X2856Y6720
X1872Y7901
X887Y6720
X1872Y5539
T11
X1872Y6720
T12
X5415Y1799
X50691Y1799
X50691Y24633
X5415Y24633
M30
