%
M48
M72
T01C0.0120
T02C0.0197
T03C0.0236
T04C0.0256
T05C0.0354
T06C0.0394
T07C0.0433
T08C0.0472
T09C0.0591
T10C0.0787
%
T01
X8740Y5657
X7952Y6011
X7559Y6011
X9153Y6208
X9153Y6582
X10964Y6523
X10964Y6986
X12460Y6937
X13228Y7173
X14409Y7153
X15393Y6720
X15000Y6366
X14389Y6326
X13956Y6326
X12874Y6326
X11594Y5598
X11417Y5834
X11948Y5342
X11397Y5204
X11476Y4870
X11771Y4614
X12145Y4417
X13405Y4338
X14468Y5106
X14862Y5106
X15256Y5106
X15610Y5106
X16555Y5126
X17401Y5106
X17736Y4988
X18326Y5145
X18917Y5145
X20059Y5460
X20334Y5460
X18071Y6366
X17677Y6366
X17244Y6307
X16929Y6307
X15964Y7429
X15531Y8039
X15197Y8295
X15630Y8570
X16437Y8196
X16925Y8208
X17307Y8303
X18385Y8098
X19094Y8039
X19488Y7980
X18740Y8689
X18385Y9397
X19232Y9811
X19606Y10185
X20972Y10263
X21323Y9870
X20972Y9681
X20972Y9291
X21228Y9031
X21712Y8728
X21260Y8413
X21929Y7881
X22263Y7685
X22441Y7350
X21791Y7252
X23996Y8334
X24173Y8570
X24291Y8275
X24567Y8275
X24842Y8275
X25118Y8275
X25393Y8275
X25669Y8275
X26260Y8531
X26732Y8515
X26445Y7897
X26732Y7586
X26456Y7271
X26732Y6956
X26456Y6641
X26732Y6326
X26456Y6011
X26082Y5972
X25551Y6484
X24173Y6504
X24173Y6169
X24035Y5834
X23661Y5834
X23523Y5165
X23248Y5165
X22893Y5244
X24941Y4476
X26771Y5539
X28130Y5952
X28346Y6189
X30551Y6425
X30767Y6602
X30826Y6326
X31063Y6169
X31476Y6366
X31141Y6563
X31614Y6956
X31909Y6956
X32126Y6759
X32067Y6385
X32657Y6385
X33267Y6385
X33878Y6385
X34724Y6464
X34724Y6189
X35295Y6189
X35295Y6464
X35571Y6189
X36200Y6189
X37047Y6799
X36732Y7094
X36437Y7389
X36141Y7704
X35826Y8039
X34862Y8078
X34488Y8196
X34212Y8196
X33523Y8196
X33248Y8196
X32874Y8452
X32421Y8551
X31988Y8393
X31791Y8590
X31200Y8590
X31004Y8393
X30748Y8807
X30157Y8157
X29232Y8570
X28779Y8472
X28504Y8472
X28228Y8472
X27952Y9338
X27736Y9555
X26752Y9515
X26358Y9535
X26181Y9771
X25630Y9515
X25413Y9732
X25197Y9515
X24685Y9574
X24173Y9378
X24173Y9771
X23760Y9771
X23366Y9771
X23523Y10362
X23799Y10362
X24074Y10362
X21771Y10775
X20885Y11248
X20964Y11641
X21358Y11740
X21378Y12133
X21141Y12448
X21397Y12862
X21850Y12901
X22047Y12704
X22244Y12901
X22441Y12704
X22047Y13098
X22441Y13866
X21909Y14200
X21673Y14358
X22145Y14358
X23011Y14515
X23464Y13633
X23464Y13000
X24153Y13019
X23976Y12626
X23464Y12271
X22421Y12035
X22165Y12330
X24074Y11622
X24508Y11622
X26141Y12074
X26141Y12606
X26141Y12881
X26476Y12941
X26417Y12606
X26752Y12606
X26761Y11937
X26496Y11661
X26476Y11267
X26752Y11051
X26476Y10736
X26752Y10421
X26752Y10086
X28681Y9870
X29232Y9555
X30630Y9791
X30630Y10362
X30708Y10913
X31043Y11051
X31397Y10972
X31771Y11031
X31968Y10775
X31968Y10460
X31614Y10637
X31634Y10244
X32874Y10441
X32874Y10716
X32874Y10992
X32480Y11838
X31653Y12252
X31063Y11838
X30689Y11976
X30177Y12153
X30275Y11523
X32480Y12547
X31063Y13216
X30767Y12724
X30216Y13000
X29232Y12744
X27952Y12941
X27795Y13167
X26752Y13472
X26752Y13866
X27756Y13866
X29173Y14397
X29389Y14220
X29980Y14378
X29744Y13669
X31948Y14732
X33641Y13689
X33976Y13689
X34389Y13315
X34744Y13570
X35078Y13275
X35354Y13531
X35807Y13295
X36004Y13492
X36200Y13689
X36909Y13630
X37185Y13630
X37874Y14200
X38189Y13787
X37657Y13177
X37657Y12901
X37283Y12842
X36456Y13000
X35826Y12665
X34744Y13000
X34330Y12744
X37244Y12350
X37441Y12153
X37637Y11956
X38858Y12547
X39547Y12547
X41358Y11897
X41515Y12232
X42559Y12330
X42815Y12448
X43149Y12704
X43838Y13256
X44665Y12429
X43031Y11917
X41299Y11248
X40826Y10539
X40826Y10145
X39681Y10460
X39267Y10515
X39547Y10834
X39319Y11185
X38878Y10952
X36889Y10204
X36338Y10775
X35826Y10716
X35630Y10381
X37539Y9555
X38641Y8452
X40216Y6878
X40752Y7039
X41181Y6889
X41614Y6878
X41889Y7153
X42283Y7114
X42559Y6838
X42795Y6523
X43169Y6504
X43189Y5815
X42795Y5815
X42795Y5421
X43189Y5421
X43563Y5342
X44114Y5795
X44409Y5322
X44803Y5322
X45452Y5460
X45452Y6011
X44882Y6484
X46948Y5401
X46614Y4693
X46141Y4693
X45748Y4437
X46122Y4082
X47263Y4122
X47500Y3157
X49035Y3807
X49675Y3630
X49783Y4004
X50925Y4378
X50925Y4653
X52008Y4673
X53346Y5322
X53641Y5322
X53543Y5874
X53248Y5874
X51515Y5815
X49015Y5992
X49015Y5578
X49015Y4712
X51122Y3098
X52027Y3137
X52027Y3472
X52027Y3846
X56456Y6326
X54015Y7409
X53248Y7429
X52834Y7429
X52421Y7429
X51378Y7173
X50748Y7448
X49094Y7389
X47539Y6799
X45315Y8118
X44724Y8433
X43681Y8334
X44370Y7527
X46535Y8925
X46870Y9181
X46634Y9752
X45925Y9181
X44508Y10263
X44153Y10263
X43897Y10795
X45945Y10637
X47244Y12094
X47559Y12409
X47874Y12212
X48385Y12547
X47559Y13492
X47559Y13826
X48149Y14141
X47342Y15106
X46141Y15322
X45295Y15756
X45019Y15992
X45511Y16681
X45846Y16464
X46181Y17173
X45846Y17429
X45511Y17665
X47031Y17185
X46712Y16858
X47464Y16578
X47724Y16854
X47578Y16208
X48043Y16212
X48664Y15876
X49704Y15854
X49704Y16130
X49901Y15657
X50098Y15460
X51200Y15480
X51811Y15539
X51811Y15815
X51811Y16090
X51811Y16366
X51811Y16641
X51811Y16917
X51811Y17193
X51811Y17468
X51811Y17744
X51811Y18019
X52008Y18728
X52008Y19004
X52008Y19279
X52008Y19555
X52008Y19830
X52008Y20106
X52008Y20381
X52008Y20657
X52008Y20933
X52008Y21208
X52008Y21484
X52008Y21759
X52008Y22035
X52008Y22311
X52008Y22586
X52008Y22862
X52008Y23137
X52008Y23413
X52008Y23689
X52008Y23964
X52008Y24240
X52008Y24791
X51948Y25067
X51673Y25067
X51397Y25067
X51122Y25067
X50846Y25067
X50571Y25067
X50295Y25067
X50019Y25067
X49744Y25067
X49468Y25067
X47952Y25067
X47952Y24791
X47637Y24673
X47362Y24673
X47086Y24673
X46811Y24673
X46535Y24673
X46260Y24673
X45984Y24673
X45708Y24673
X45433Y24673
X45157Y24673
X44882Y24673
X44606Y24673
X44330Y24673
X44055Y24673
X43779Y24673
X43504Y24673
X43228Y24673
X43228Y24397
X43228Y24122
X43228Y23846
X43228Y23570
X43228Y23295
X42913Y23098
X42637Y23098
X42362Y23098
X42086Y23098
X41811Y23098
X41535Y23098
X41260Y23098
X40984Y23098
X40708Y23098
X40433Y23098
X40157Y23098
X39882Y23098
X39606Y23098
X39330Y23098
X38740Y23039
X38740Y23315
X38740Y23590
X38740Y23866
X38740Y24141
X38740Y24417
X38602Y24673
X38326Y24673
X38051Y24673
X37775Y24673
X37500Y24673
X37224Y24673
X36948Y24673
X36673Y24673
X36397Y24673
X36122Y24673
X35846Y24673
X35571Y24673
X35295Y24673
X35019Y24673
X34744Y24673
X34468Y24673
X34193Y24673
X33917Y24673
X33641Y24673
X33366Y24673
X33366Y24397
X33366Y24122
X33090Y24673
X32815Y24673
X32539Y24673
X32263Y24673
X31988Y24673
X31712Y24673
X31082Y24673
X31082Y24417
X31712Y23984
X31988Y23984
X31574Y23669
X31279Y23669
X30118Y25224
X30118Y25500
X30118Y25795
X29842Y25795
X29567Y25795
X29291Y25795
X29015Y25795
X28740Y25795
X28464Y25795
X28189Y25795
X27913Y25795
X27637Y25795
X27362Y25795
X27086Y25795
X26811Y25795
X26535Y25795
X26260Y25795
X25984Y25795
X25708Y25795
X25433Y25795
X25157Y25795
X24882Y25795
X24606Y25795
X24330Y25795
X24055Y25795
X23779Y25795
X23504Y25795
X23228Y25795
X22952Y25795
X22677Y25795
X22401Y25795
X21240Y25795
X20964Y25795
X20689Y25795
X20413Y25795
X20137Y25795
X19862Y25795
X19586Y25795
X19311Y25795
X19035Y25795
X18760Y25795
X18484Y25795
X18208Y25795
X17933Y25795
X17657Y25795
X17382Y25795
X17106Y25795
X16830Y25795
X16555Y25795
X16279Y25795
X16004Y25795
X15925Y26070
X15925Y26346
X15925Y26622
X15905Y27429
X15630Y27429
X15354Y27429
X15078Y27429
X14882Y27252
X14882Y26976
X14882Y26700
X14882Y26425
X14882Y26149
X14882Y25874
X14882Y25598
X14882Y25322
X14882Y25047
X14882Y24771
X13346Y24555
X12244Y24535
X13464Y25893
X17795Y24259
X18051Y24496
X18307Y24752
X19882Y23295
X21358Y24515
X22480Y24830
X22854Y24830
X23700Y25303
X23819Y24456
X24193Y24456
X26181Y25303
X28523Y25303
X31397Y26878
X25315Y23295
X27008Y21799
X26574Y21523
X26161Y21366
X25738Y21208
X24891Y21169
X24045Y21130
X23622Y21070
X22559Y19988
X21279Y19988
X21535Y18944
X22067Y18708
X22834Y18944
X20697Y17775
X20476Y17456
X21039Y17385
X20905Y17055
X21531Y17193
X21834Y17000
X23720Y16917
X23917Y17114
X24114Y16917
X24311Y17114
X25511Y17114
X25689Y17311
X25866Y17507
X25511Y17507
X25866Y17114
X26309Y16326
X25472Y15677
X24901Y15106
X24458Y14722
X24626Y15598
X28071Y15893
X28484Y16070
X29055Y15933
X29429Y15933
X29429Y15559
X29882Y15559
X30787Y16090
X31043Y15854
X31689Y16256
X32086Y16248
X32535Y16854
X32968Y16850
X33297Y16848
X33523Y16563
X34872Y16681
X35405Y16232
X35405Y15897
X36161Y15834
X36783Y15858
X36988Y16317
X35915Y16779
X34301Y15519
X33779Y15519
X35704Y15267
X35712Y14941
X36417Y15114
X36988Y14929
X39134Y14279
X39468Y14496
X41683Y15746
X42106Y15500
X43090Y16051
X43090Y16602
X44134Y16681
X43248Y17133
X42480Y18039
X43031Y18315
X41220Y18133
X40752Y18130
X40090Y18271
X40098Y17846
X40236Y16366
X39724Y16366
X38169Y16307
X43149Y15007
X43149Y14259
X44488Y14240
X44468Y15027
X42126Y13019
X48464Y10815
X50767Y11858
X51811Y12507
X51811Y12783
X51811Y13059
X51811Y13334
X51811Y13610
X51811Y13885
X51811Y14161
X51811Y14437
X51811Y14712
X51811Y14988
X51811Y15263
X50295Y14240
X51220Y16858
X50197Y17783
X49193Y17370
X48720Y17370
X48720Y16897
X49193Y16897
X47425Y17878
X47401Y18433
X46799Y18803
X48523Y19555
X49212Y20067
X49468Y19555
X49448Y20559
X48405Y20992
X47303Y20992
X46988Y20578
X45728Y20618
X45728Y20893
X45728Y20342
X43031Y21641
X42677Y21641
X42441Y21385
X42441Y21031
X41456Y21031
X40098Y20874
X40689Y20126
X43031Y22055
X43031Y22488
X45925Y22960
X46181Y23118
X47067Y23393
X46181Y23689
X47047Y24220
X48326Y24259
X48130Y23177
X48878Y23177
X48504Y22803
X48878Y22429
X48130Y22429
X49858Y22267
X49862Y21893
X49941Y23098
X51574Y23039
X52283Y23177
X52559Y23177
X52834Y23177
X53110Y23177
X49665Y24259
X46023Y22547
X46299Y21996
X48878Y18433
X38740Y22763
X38169Y23433
X37303Y22744
X36515Y22606
X36122Y22606
X35728Y22606
X35315Y22606
X35315Y20185
X36693Y20185
X33937Y20185
X32559Y20185
X30590Y20992
X30600Y21346
X30216Y20263
X29941Y19988
X29626Y20185
X29055Y20165
X29330Y19732
X28760Y19456
X28779Y19063
X28661Y18748
X27283Y21080
X26948Y21080
X21752Y21011
X20039Y21011
X19665Y21011
X19350Y21208
X18464Y21819
X18110Y21819
X17756Y21819
X16850Y21208
X16004Y20126
X15492Y19614
X15295Y19417
X14193Y18315
X13582Y17685
X12254Y16750
X11811Y16208
X11811Y15864
X12185Y15874
X13149Y15706
X11811Y15303
X11476Y15037
X11200Y14555
X10708Y14968
X10895Y15618
X11004Y16169
X11102Y17232
X11437Y17232
X10452Y17586
X10452Y18610
X11476Y18689
X12008Y19023
X13031Y19437
X14015Y20441
X14665Y20893
X14291Y21405
X13346Y20893
X12736Y20795
X12283Y20677
X11122Y20696
X10452Y19889
X8307Y20303
X8307Y20696
X7637Y20696
X5787Y20381
X5787Y21366
X5787Y22350
X7637Y22862
X9153Y22448
X9153Y22114
X10492Y22193
X10452Y21641
X11515Y21543
X11811Y21838
X12106Y21543
X12106Y22133
X11515Y22133
X12992Y22035
X12283Y23137
X11102Y23137
X15551Y23236
X17952Y19259
X17992Y18964
X18267Y18964
X18267Y18669
X17716Y18964
X18858Y19456
X19728Y18236
X20315Y18212
X20098Y17881
X19330Y17665
X19330Y17193
X17500Y17704
X17500Y18019
X17224Y17862
X16948Y18019
X16948Y17704
X16358Y17704
X14586Y15854
X14637Y15441
X14634Y15035
X15838Y15244
X15846Y14870
X16220Y14870
X16535Y15145
X16712Y14850
X16948Y15126
X17204Y14712
X18700Y14948
X18700Y15303
X19055Y15165
X19882Y14259
X20039Y13866
X19606Y12744
X18700Y13078
X17854Y12822
X16968Y12803
X16496Y12941
X16141Y12862
X15748Y12763
X15511Y13098
X14901Y12429
X14090Y12547
X14094Y12941
X14090Y12153
X14094Y11759
X13385Y11897
X12480Y11543
X12480Y11267
X13425Y11011
X12480Y10381
X11230Y10492
X10433Y10185
X10118Y10460
X10118Y9791
X10118Y9437
X9744Y9319
X9901Y9043
X10689Y8433
X11063Y8630
X12480Y9378
X13267Y8610
X15157Y9417
X17126Y9496
X17185Y10381
X18208Y10933
X19055Y11700
X18267Y11779
X17480Y11976
X15964Y11937
X15236Y10696
X12492Y12637
X11220Y12547
X10866Y12547
X11220Y12153
X11236Y11492
X11234Y11114
X9153Y10992
X8897Y10263
X7559Y9948
X7559Y11523
X10059Y13295
X9596Y14151
X9321Y14309
X9321Y14624
X9321Y14939
X9596Y15096
X9596Y14781
X9596Y15411
X9596Y15726
X9321Y15883
X9321Y15569
X9321Y16198
X9596Y16356
X15838Y15633
X17047Y13492
X17637Y13492
X19606Y10933
X27736Y11346
X37382Y6504
X37618Y6228
X37834Y6011
X36122Y4752
X35787Y4752
X35610Y5047
X35275Y5047
X36437Y4633
X37874Y4437
X39803Y4614
X41023Y4594
X41397Y4594
X41771Y4594
X42145Y4594
X42126Y5263
X44370Y4594
X44763Y4594
X37677Y3393
X35708Y3256
X33405Y4653
X33248Y5007
X32913Y5007
X32578Y4948
X31574Y5263
X33700Y5263
X33897Y4988
X31693Y3885
X30157Y3728
X29783Y3728
X29429Y3787
X29193Y4063
X11437Y3295
X7559Y7980
X49153Y8354
X49153Y8689
X49153Y9023
X50000Y9574
X51161Y9574
X52086Y9574
X51909Y10224
X53976Y9574
X51319Y8374
X56299Y11208
X56279Y24319
X55315Y25067
T02
X5984Y23334
T03
X6968Y23925
X6968Y24319
X6378Y25303
X4803Y25303
X8051Y25303
X9626Y25303
X6968Y19594
X6968Y19200
X6378Y18413
X4803Y18413
X8051Y18413
X9626Y18413
X10118Y12311
X7756Y12311
X6181Y12311
X6968Y11326
X6968Y10933
X3819Y12311
X6968Y6602
X6968Y6208
X6181Y5224
X7756Y5224
X10118Y5224
X3819Y5224
X37480Y4830
X38267Y4830
X39055Y4830
X38267Y5618
X47323Y7980
X47323Y8767
X52441Y5618
X54015Y5618
X55197Y5618
X56771Y5618
X54606Y6602
X54606Y6996
X55197Y11917
X54015Y11917
X52441Y11917
X56771Y11917
X57952Y11917
X57362Y12901
X57362Y13295
X59527Y11917
X57362Y17232
X57362Y17626
X56771Y18610
X54015Y18610
X59527Y18610
X54606Y23531
X54606Y23925
X54015Y24319
X54015Y24909
X56771Y24909
X56771Y24319
X44567Y20185
X39055Y16641
X38267Y24122
T04
X9852Y16671
X9852Y13836
T05
X5787Y20874
X5787Y22842
X12145Y27094
X13130Y27094
X33248Y3433
X34232Y3433
X37185Y3433
X38169Y3433
X47027Y3393
X48011Y3393
T06
X55984Y13689
X55984Y14476
X55984Y16051
X55984Y16838
X5000Y10736
X5000Y6799
T07
X7632Y13486
X9360Y13628
X9360Y16880
X7632Y17021
T08
X50590Y9574
X53346Y9574
T09
X8543Y4240
X5000Y7586
X5000Y9948
X8543Y26287
X53031Y26287
X55984Y15263
X53031Y4240
T10
X5000Y8767
M30
