G75*
%MOIN*%
%OFA0B0*%
%FSLAX25Y25*%
%IPPOS*%
%LPD*%
%AMOC8*
5,1,8,0,0,1.08239X$1,22.5*
%
%ADD10C,0.00000*%
D10*
X0032280Y0048303D02*
X0067713Y0048303D01*
X0067713Y0060114D01*
X0071650Y0060114D01*
X0071650Y0056177D01*
X0068501Y0062083D02*
X0068503Y0062152D01*
X0068509Y0062220D01*
X0068519Y0062288D01*
X0068533Y0062355D01*
X0068551Y0062422D01*
X0068572Y0062487D01*
X0068598Y0062551D01*
X0068627Y0062613D01*
X0068659Y0062673D01*
X0068695Y0062732D01*
X0068735Y0062788D01*
X0068777Y0062842D01*
X0068823Y0062893D01*
X0068872Y0062942D01*
X0068923Y0062988D01*
X0068977Y0063030D01*
X0069033Y0063070D01*
X0069091Y0063106D01*
X0069152Y0063138D01*
X0069214Y0063167D01*
X0069278Y0063193D01*
X0069343Y0063214D01*
X0069410Y0063232D01*
X0069477Y0063246D01*
X0069545Y0063256D01*
X0069613Y0063262D01*
X0069682Y0063264D01*
X0069751Y0063262D01*
X0069819Y0063256D01*
X0069887Y0063246D01*
X0069954Y0063232D01*
X0070021Y0063214D01*
X0070086Y0063193D01*
X0070150Y0063167D01*
X0070212Y0063138D01*
X0070272Y0063106D01*
X0070331Y0063070D01*
X0070387Y0063030D01*
X0070441Y0062988D01*
X0070492Y0062942D01*
X0070541Y0062893D01*
X0070587Y0062842D01*
X0070629Y0062788D01*
X0070669Y0062732D01*
X0070705Y0062673D01*
X0070737Y0062613D01*
X0070766Y0062551D01*
X0070792Y0062487D01*
X0070813Y0062422D01*
X0070831Y0062355D01*
X0070845Y0062288D01*
X0070855Y0062220D01*
X0070861Y0062152D01*
X0070863Y0062083D01*
X0070861Y0062014D01*
X0070855Y0061946D01*
X0070845Y0061878D01*
X0070831Y0061811D01*
X0070813Y0061744D01*
X0070792Y0061679D01*
X0070766Y0061615D01*
X0070737Y0061553D01*
X0070705Y0061492D01*
X0070669Y0061434D01*
X0070629Y0061378D01*
X0070587Y0061324D01*
X0070541Y0061273D01*
X0070492Y0061224D01*
X0070441Y0061178D01*
X0070387Y0061136D01*
X0070331Y0061096D01*
X0070273Y0061060D01*
X0070212Y0061028D01*
X0070150Y0060999D01*
X0070086Y0060973D01*
X0070021Y0060952D01*
X0069954Y0060934D01*
X0069887Y0060920D01*
X0069819Y0060910D01*
X0069751Y0060904D01*
X0069682Y0060902D01*
X0069613Y0060904D01*
X0069545Y0060910D01*
X0069477Y0060920D01*
X0069410Y0060934D01*
X0069343Y0060952D01*
X0069278Y0060973D01*
X0069214Y0060999D01*
X0069152Y0061028D01*
X0069091Y0061060D01*
X0069033Y0061096D01*
X0068977Y0061136D01*
X0068923Y0061178D01*
X0068872Y0061224D01*
X0068823Y0061273D01*
X0068777Y0061324D01*
X0068735Y0061378D01*
X0068695Y0061434D01*
X0068659Y0061492D01*
X0068627Y0061553D01*
X0068598Y0061615D01*
X0068572Y0061679D01*
X0068551Y0061744D01*
X0068533Y0061811D01*
X0068519Y0061878D01*
X0068509Y0061946D01*
X0068503Y0062014D01*
X0068501Y0062083D01*
X0068501Y0066020D02*
X0068503Y0066089D01*
X0068509Y0066157D01*
X0068519Y0066225D01*
X0068533Y0066292D01*
X0068551Y0066359D01*
X0068572Y0066424D01*
X0068598Y0066488D01*
X0068627Y0066550D01*
X0068659Y0066610D01*
X0068695Y0066669D01*
X0068735Y0066725D01*
X0068777Y0066779D01*
X0068823Y0066830D01*
X0068872Y0066879D01*
X0068923Y0066925D01*
X0068977Y0066967D01*
X0069033Y0067007D01*
X0069091Y0067043D01*
X0069152Y0067075D01*
X0069214Y0067104D01*
X0069278Y0067130D01*
X0069343Y0067151D01*
X0069410Y0067169D01*
X0069477Y0067183D01*
X0069545Y0067193D01*
X0069613Y0067199D01*
X0069682Y0067201D01*
X0069751Y0067199D01*
X0069819Y0067193D01*
X0069887Y0067183D01*
X0069954Y0067169D01*
X0070021Y0067151D01*
X0070086Y0067130D01*
X0070150Y0067104D01*
X0070212Y0067075D01*
X0070272Y0067043D01*
X0070331Y0067007D01*
X0070387Y0066967D01*
X0070441Y0066925D01*
X0070492Y0066879D01*
X0070541Y0066830D01*
X0070587Y0066779D01*
X0070629Y0066725D01*
X0070669Y0066669D01*
X0070705Y0066610D01*
X0070737Y0066550D01*
X0070766Y0066488D01*
X0070792Y0066424D01*
X0070813Y0066359D01*
X0070831Y0066292D01*
X0070845Y0066225D01*
X0070855Y0066157D01*
X0070861Y0066089D01*
X0070863Y0066020D01*
X0070861Y0065951D01*
X0070855Y0065883D01*
X0070845Y0065815D01*
X0070831Y0065748D01*
X0070813Y0065681D01*
X0070792Y0065616D01*
X0070766Y0065552D01*
X0070737Y0065490D01*
X0070705Y0065429D01*
X0070669Y0065371D01*
X0070629Y0065315D01*
X0070587Y0065261D01*
X0070541Y0065210D01*
X0070492Y0065161D01*
X0070441Y0065115D01*
X0070387Y0065073D01*
X0070331Y0065033D01*
X0070273Y0064997D01*
X0070212Y0064965D01*
X0070150Y0064936D01*
X0070086Y0064910D01*
X0070021Y0064889D01*
X0069954Y0064871D01*
X0069887Y0064857D01*
X0069819Y0064847D01*
X0069751Y0064841D01*
X0069682Y0064839D01*
X0069613Y0064841D01*
X0069545Y0064847D01*
X0069477Y0064857D01*
X0069410Y0064871D01*
X0069343Y0064889D01*
X0069278Y0064910D01*
X0069214Y0064936D01*
X0069152Y0064965D01*
X0069091Y0064997D01*
X0069033Y0065033D01*
X0068977Y0065073D01*
X0068923Y0065115D01*
X0068872Y0065161D01*
X0068823Y0065210D01*
X0068777Y0065261D01*
X0068735Y0065315D01*
X0068695Y0065371D01*
X0068659Y0065429D01*
X0068627Y0065490D01*
X0068598Y0065552D01*
X0068572Y0065616D01*
X0068551Y0065681D01*
X0068533Y0065748D01*
X0068519Y0065815D01*
X0068509Y0065883D01*
X0068503Y0065951D01*
X0068501Y0066020D01*
X0067713Y0067988D02*
X0071650Y0067988D01*
X0071650Y0107358D01*
X0067713Y0107358D01*
X0067713Y0101453D01*
X0059839Y0101453D01*
X0059839Y0097516D01*
X0067713Y0097516D01*
X0067713Y0089642D01*
X0063776Y0089642D01*
X0063776Y0085705D01*
X0067713Y0085705D01*
X0067713Y0077831D01*
X0059839Y0077831D01*
X0059839Y0073894D01*
X0067713Y0073894D01*
X0067713Y0067988D01*
X0048028Y0067988D02*
X0048030Y0068076D01*
X0048036Y0068164D01*
X0048046Y0068252D01*
X0048060Y0068340D01*
X0048077Y0068426D01*
X0048099Y0068512D01*
X0048124Y0068596D01*
X0048154Y0068680D01*
X0048186Y0068762D01*
X0048223Y0068842D01*
X0048263Y0068921D01*
X0048307Y0068998D01*
X0048354Y0069073D01*
X0048404Y0069145D01*
X0048458Y0069216D01*
X0048514Y0069283D01*
X0048574Y0069349D01*
X0048636Y0069411D01*
X0048702Y0069471D01*
X0048769Y0069527D01*
X0048840Y0069581D01*
X0048912Y0069631D01*
X0048987Y0069678D01*
X0049064Y0069722D01*
X0049143Y0069762D01*
X0049223Y0069799D01*
X0049305Y0069831D01*
X0049389Y0069861D01*
X0049473Y0069886D01*
X0049559Y0069908D01*
X0049645Y0069925D01*
X0049733Y0069939D01*
X0049821Y0069949D01*
X0049909Y0069955D01*
X0049997Y0069957D01*
X0050085Y0069955D01*
X0050173Y0069949D01*
X0050261Y0069939D01*
X0050349Y0069925D01*
X0050435Y0069908D01*
X0050521Y0069886D01*
X0050605Y0069861D01*
X0050689Y0069831D01*
X0050771Y0069799D01*
X0050851Y0069762D01*
X0050930Y0069722D01*
X0051007Y0069678D01*
X0051082Y0069631D01*
X0051154Y0069581D01*
X0051225Y0069527D01*
X0051292Y0069471D01*
X0051358Y0069411D01*
X0051420Y0069349D01*
X0051480Y0069283D01*
X0051536Y0069216D01*
X0051590Y0069145D01*
X0051640Y0069073D01*
X0051687Y0068998D01*
X0051731Y0068921D01*
X0051771Y0068842D01*
X0051808Y0068762D01*
X0051840Y0068680D01*
X0051870Y0068596D01*
X0051895Y0068512D01*
X0051917Y0068426D01*
X0051934Y0068340D01*
X0051948Y0068252D01*
X0051958Y0068164D01*
X0051964Y0068076D01*
X0051966Y0067988D01*
X0051964Y0067900D01*
X0051958Y0067812D01*
X0051948Y0067724D01*
X0051934Y0067636D01*
X0051917Y0067550D01*
X0051895Y0067464D01*
X0051870Y0067380D01*
X0051840Y0067296D01*
X0051808Y0067214D01*
X0051771Y0067134D01*
X0051731Y0067055D01*
X0051687Y0066978D01*
X0051640Y0066903D01*
X0051590Y0066831D01*
X0051536Y0066760D01*
X0051480Y0066693D01*
X0051420Y0066627D01*
X0051358Y0066565D01*
X0051292Y0066505D01*
X0051225Y0066449D01*
X0051154Y0066395D01*
X0051082Y0066345D01*
X0051007Y0066298D01*
X0050930Y0066254D01*
X0050851Y0066214D01*
X0050771Y0066177D01*
X0050689Y0066145D01*
X0050605Y0066115D01*
X0050521Y0066090D01*
X0050435Y0066068D01*
X0050349Y0066051D01*
X0050261Y0066037D01*
X0050173Y0066027D01*
X0050085Y0066021D01*
X0049997Y0066019D01*
X0049909Y0066021D01*
X0049821Y0066027D01*
X0049733Y0066037D01*
X0049645Y0066051D01*
X0049559Y0066068D01*
X0049473Y0066090D01*
X0049389Y0066115D01*
X0049305Y0066145D01*
X0049223Y0066177D01*
X0049143Y0066214D01*
X0049064Y0066254D01*
X0048987Y0066298D01*
X0048912Y0066345D01*
X0048840Y0066395D01*
X0048769Y0066449D01*
X0048702Y0066505D01*
X0048636Y0066565D01*
X0048574Y0066627D01*
X0048514Y0066693D01*
X0048458Y0066760D01*
X0048404Y0066831D01*
X0048354Y0066903D01*
X0048307Y0066978D01*
X0048263Y0067055D01*
X0048223Y0067134D01*
X0048186Y0067214D01*
X0048154Y0067296D01*
X0048124Y0067380D01*
X0048099Y0067464D01*
X0048077Y0067550D01*
X0048060Y0067636D01*
X0048046Y0067724D01*
X0048036Y0067812D01*
X0048030Y0067900D01*
X0048028Y0067988D01*
X0040154Y0073894D02*
X0032280Y0073894D01*
X0032280Y0048303D01*
X0040154Y0073894D02*
X0040154Y0077831D01*
X0032280Y0077831D01*
X0032280Y0085705D01*
X0036217Y0085705D01*
X0036217Y0089642D01*
X0032280Y0089642D01*
X0032280Y0097516D01*
X0040154Y0097516D01*
X0040154Y0101453D01*
X0032280Y0101453D01*
X0032280Y0127043D01*
X0067713Y0127043D01*
X0067713Y0115232D01*
X0071650Y0115232D01*
X0071650Y0190035D01*
X0067713Y0190035D01*
X0067713Y0180193D01*
X0044091Y0180193D01*
X0044091Y0256965D01*
X0067713Y0256965D01*
X0067713Y0245154D01*
X0071650Y0245154D01*
X0071650Y0249091D01*
X0068501Y0243185D02*
X0068503Y0243254D01*
X0068509Y0243322D01*
X0068519Y0243390D01*
X0068533Y0243457D01*
X0068551Y0243524D01*
X0068572Y0243589D01*
X0068598Y0243653D01*
X0068627Y0243715D01*
X0068659Y0243775D01*
X0068695Y0243834D01*
X0068735Y0243890D01*
X0068777Y0243944D01*
X0068823Y0243995D01*
X0068872Y0244044D01*
X0068923Y0244090D01*
X0068977Y0244132D01*
X0069033Y0244172D01*
X0069091Y0244208D01*
X0069152Y0244240D01*
X0069214Y0244269D01*
X0069278Y0244295D01*
X0069343Y0244316D01*
X0069410Y0244334D01*
X0069477Y0244348D01*
X0069545Y0244358D01*
X0069613Y0244364D01*
X0069682Y0244366D01*
X0069751Y0244364D01*
X0069819Y0244358D01*
X0069887Y0244348D01*
X0069954Y0244334D01*
X0070021Y0244316D01*
X0070086Y0244295D01*
X0070150Y0244269D01*
X0070212Y0244240D01*
X0070272Y0244208D01*
X0070331Y0244172D01*
X0070387Y0244132D01*
X0070441Y0244090D01*
X0070492Y0244044D01*
X0070541Y0243995D01*
X0070587Y0243944D01*
X0070629Y0243890D01*
X0070669Y0243834D01*
X0070705Y0243775D01*
X0070737Y0243715D01*
X0070766Y0243653D01*
X0070792Y0243589D01*
X0070813Y0243524D01*
X0070831Y0243457D01*
X0070845Y0243390D01*
X0070855Y0243322D01*
X0070861Y0243254D01*
X0070863Y0243185D01*
X0070861Y0243116D01*
X0070855Y0243048D01*
X0070845Y0242980D01*
X0070831Y0242913D01*
X0070813Y0242846D01*
X0070792Y0242781D01*
X0070766Y0242717D01*
X0070737Y0242655D01*
X0070705Y0242594D01*
X0070669Y0242536D01*
X0070629Y0242480D01*
X0070587Y0242426D01*
X0070541Y0242375D01*
X0070492Y0242326D01*
X0070441Y0242280D01*
X0070387Y0242238D01*
X0070331Y0242198D01*
X0070273Y0242162D01*
X0070212Y0242130D01*
X0070150Y0242101D01*
X0070086Y0242075D01*
X0070021Y0242054D01*
X0069954Y0242036D01*
X0069887Y0242022D01*
X0069819Y0242012D01*
X0069751Y0242006D01*
X0069682Y0242004D01*
X0069613Y0242006D01*
X0069545Y0242012D01*
X0069477Y0242022D01*
X0069410Y0242036D01*
X0069343Y0242054D01*
X0069278Y0242075D01*
X0069214Y0242101D01*
X0069152Y0242130D01*
X0069091Y0242162D01*
X0069033Y0242198D01*
X0068977Y0242238D01*
X0068923Y0242280D01*
X0068872Y0242326D01*
X0068823Y0242375D01*
X0068777Y0242426D01*
X0068735Y0242480D01*
X0068695Y0242536D01*
X0068659Y0242594D01*
X0068627Y0242655D01*
X0068598Y0242717D01*
X0068572Y0242781D01*
X0068551Y0242846D01*
X0068533Y0242913D01*
X0068519Y0242980D01*
X0068509Y0243048D01*
X0068503Y0243116D01*
X0068501Y0243185D01*
X0068501Y0239248D02*
X0068503Y0239317D01*
X0068509Y0239385D01*
X0068519Y0239453D01*
X0068533Y0239520D01*
X0068551Y0239587D01*
X0068572Y0239652D01*
X0068598Y0239716D01*
X0068627Y0239778D01*
X0068659Y0239838D01*
X0068695Y0239897D01*
X0068735Y0239953D01*
X0068777Y0240007D01*
X0068823Y0240058D01*
X0068872Y0240107D01*
X0068923Y0240153D01*
X0068977Y0240195D01*
X0069033Y0240235D01*
X0069091Y0240271D01*
X0069152Y0240303D01*
X0069214Y0240332D01*
X0069278Y0240358D01*
X0069343Y0240379D01*
X0069410Y0240397D01*
X0069477Y0240411D01*
X0069545Y0240421D01*
X0069613Y0240427D01*
X0069682Y0240429D01*
X0069751Y0240427D01*
X0069819Y0240421D01*
X0069887Y0240411D01*
X0069954Y0240397D01*
X0070021Y0240379D01*
X0070086Y0240358D01*
X0070150Y0240332D01*
X0070212Y0240303D01*
X0070272Y0240271D01*
X0070331Y0240235D01*
X0070387Y0240195D01*
X0070441Y0240153D01*
X0070492Y0240107D01*
X0070541Y0240058D01*
X0070587Y0240007D01*
X0070629Y0239953D01*
X0070669Y0239897D01*
X0070705Y0239838D01*
X0070737Y0239778D01*
X0070766Y0239716D01*
X0070792Y0239652D01*
X0070813Y0239587D01*
X0070831Y0239520D01*
X0070845Y0239453D01*
X0070855Y0239385D01*
X0070861Y0239317D01*
X0070863Y0239248D01*
X0070861Y0239179D01*
X0070855Y0239111D01*
X0070845Y0239043D01*
X0070831Y0238976D01*
X0070813Y0238909D01*
X0070792Y0238844D01*
X0070766Y0238780D01*
X0070737Y0238718D01*
X0070705Y0238657D01*
X0070669Y0238599D01*
X0070629Y0238543D01*
X0070587Y0238489D01*
X0070541Y0238438D01*
X0070492Y0238389D01*
X0070441Y0238343D01*
X0070387Y0238301D01*
X0070331Y0238261D01*
X0070273Y0238225D01*
X0070212Y0238193D01*
X0070150Y0238164D01*
X0070086Y0238138D01*
X0070021Y0238117D01*
X0069954Y0238099D01*
X0069887Y0238085D01*
X0069819Y0238075D01*
X0069751Y0238069D01*
X0069682Y0238067D01*
X0069613Y0238069D01*
X0069545Y0238075D01*
X0069477Y0238085D01*
X0069410Y0238099D01*
X0069343Y0238117D01*
X0069278Y0238138D01*
X0069214Y0238164D01*
X0069152Y0238193D01*
X0069091Y0238225D01*
X0069033Y0238261D01*
X0068977Y0238301D01*
X0068923Y0238343D01*
X0068872Y0238389D01*
X0068823Y0238438D01*
X0068777Y0238489D01*
X0068735Y0238543D01*
X0068695Y0238599D01*
X0068659Y0238657D01*
X0068627Y0238718D01*
X0068598Y0238780D01*
X0068572Y0238844D01*
X0068551Y0238909D01*
X0068533Y0238976D01*
X0068519Y0239043D01*
X0068509Y0239111D01*
X0068503Y0239179D01*
X0068501Y0239248D01*
X0067713Y0237280D02*
X0071650Y0237280D01*
X0071650Y0197909D01*
X0067713Y0197909D01*
X0067713Y0237280D01*
X0056099Y0228421D02*
X0056101Y0228505D01*
X0056107Y0228588D01*
X0056117Y0228671D01*
X0056131Y0228754D01*
X0056148Y0228836D01*
X0056170Y0228917D01*
X0056195Y0228996D01*
X0056224Y0229075D01*
X0056257Y0229152D01*
X0056293Y0229227D01*
X0056333Y0229301D01*
X0056376Y0229373D01*
X0056423Y0229442D01*
X0056473Y0229509D01*
X0056526Y0229574D01*
X0056582Y0229636D01*
X0056640Y0229696D01*
X0056702Y0229753D01*
X0056766Y0229806D01*
X0056833Y0229857D01*
X0056902Y0229904D01*
X0056973Y0229949D01*
X0057046Y0229989D01*
X0057121Y0230026D01*
X0057198Y0230060D01*
X0057276Y0230090D01*
X0057355Y0230116D01*
X0057436Y0230139D01*
X0057518Y0230157D01*
X0057600Y0230172D01*
X0057683Y0230183D01*
X0057766Y0230190D01*
X0057850Y0230193D01*
X0057934Y0230192D01*
X0058017Y0230187D01*
X0058101Y0230178D01*
X0058183Y0230165D01*
X0058265Y0230149D01*
X0058346Y0230128D01*
X0058427Y0230104D01*
X0058505Y0230076D01*
X0058583Y0230044D01*
X0058659Y0230008D01*
X0058733Y0229969D01*
X0058805Y0229927D01*
X0058875Y0229881D01*
X0058943Y0229832D01*
X0059008Y0229780D01*
X0059071Y0229725D01*
X0059131Y0229667D01*
X0059189Y0229606D01*
X0059243Y0229542D01*
X0059295Y0229476D01*
X0059343Y0229408D01*
X0059388Y0229337D01*
X0059429Y0229264D01*
X0059468Y0229190D01*
X0059502Y0229114D01*
X0059533Y0229036D01*
X0059560Y0228957D01*
X0059584Y0228876D01*
X0059603Y0228795D01*
X0059619Y0228713D01*
X0059631Y0228630D01*
X0059639Y0228546D01*
X0059643Y0228463D01*
X0059643Y0228379D01*
X0059639Y0228296D01*
X0059631Y0228212D01*
X0059619Y0228129D01*
X0059603Y0228047D01*
X0059584Y0227966D01*
X0059560Y0227885D01*
X0059533Y0227806D01*
X0059502Y0227728D01*
X0059468Y0227652D01*
X0059429Y0227578D01*
X0059388Y0227505D01*
X0059343Y0227434D01*
X0059295Y0227366D01*
X0059243Y0227300D01*
X0059189Y0227236D01*
X0059131Y0227175D01*
X0059071Y0227117D01*
X0059008Y0227062D01*
X0058943Y0227010D01*
X0058875Y0226961D01*
X0058805Y0226915D01*
X0058733Y0226873D01*
X0058659Y0226834D01*
X0058583Y0226798D01*
X0058505Y0226766D01*
X0058427Y0226738D01*
X0058346Y0226714D01*
X0058265Y0226693D01*
X0058183Y0226677D01*
X0058101Y0226664D01*
X0058017Y0226655D01*
X0057934Y0226650D01*
X0057850Y0226649D01*
X0057766Y0226652D01*
X0057683Y0226659D01*
X0057600Y0226670D01*
X0057518Y0226685D01*
X0057436Y0226703D01*
X0057355Y0226726D01*
X0057276Y0226752D01*
X0057198Y0226782D01*
X0057121Y0226816D01*
X0057046Y0226853D01*
X0056973Y0226893D01*
X0056902Y0226938D01*
X0056833Y0226985D01*
X0056766Y0227036D01*
X0056702Y0227089D01*
X0056640Y0227146D01*
X0056582Y0227206D01*
X0056526Y0227268D01*
X0056473Y0227333D01*
X0056423Y0227400D01*
X0056376Y0227469D01*
X0056333Y0227541D01*
X0056293Y0227615D01*
X0056257Y0227690D01*
X0056224Y0227767D01*
X0056195Y0227846D01*
X0056170Y0227925D01*
X0056148Y0228006D01*
X0056131Y0228088D01*
X0056117Y0228171D01*
X0056107Y0228254D01*
X0056101Y0228337D01*
X0056099Y0228421D01*
X0056099Y0208736D02*
X0056101Y0208820D01*
X0056107Y0208903D01*
X0056117Y0208986D01*
X0056131Y0209069D01*
X0056148Y0209151D01*
X0056170Y0209232D01*
X0056195Y0209311D01*
X0056224Y0209390D01*
X0056257Y0209467D01*
X0056293Y0209542D01*
X0056333Y0209616D01*
X0056376Y0209688D01*
X0056423Y0209757D01*
X0056473Y0209824D01*
X0056526Y0209889D01*
X0056582Y0209951D01*
X0056640Y0210011D01*
X0056702Y0210068D01*
X0056766Y0210121D01*
X0056833Y0210172D01*
X0056902Y0210219D01*
X0056973Y0210264D01*
X0057046Y0210304D01*
X0057121Y0210341D01*
X0057198Y0210375D01*
X0057276Y0210405D01*
X0057355Y0210431D01*
X0057436Y0210454D01*
X0057518Y0210472D01*
X0057600Y0210487D01*
X0057683Y0210498D01*
X0057766Y0210505D01*
X0057850Y0210508D01*
X0057934Y0210507D01*
X0058017Y0210502D01*
X0058101Y0210493D01*
X0058183Y0210480D01*
X0058265Y0210464D01*
X0058346Y0210443D01*
X0058427Y0210419D01*
X0058505Y0210391D01*
X0058583Y0210359D01*
X0058659Y0210323D01*
X0058733Y0210284D01*
X0058805Y0210242D01*
X0058875Y0210196D01*
X0058943Y0210147D01*
X0059008Y0210095D01*
X0059071Y0210040D01*
X0059131Y0209982D01*
X0059189Y0209921D01*
X0059243Y0209857D01*
X0059295Y0209791D01*
X0059343Y0209723D01*
X0059388Y0209652D01*
X0059429Y0209579D01*
X0059468Y0209505D01*
X0059502Y0209429D01*
X0059533Y0209351D01*
X0059560Y0209272D01*
X0059584Y0209191D01*
X0059603Y0209110D01*
X0059619Y0209028D01*
X0059631Y0208945D01*
X0059639Y0208861D01*
X0059643Y0208778D01*
X0059643Y0208694D01*
X0059639Y0208611D01*
X0059631Y0208527D01*
X0059619Y0208444D01*
X0059603Y0208362D01*
X0059584Y0208281D01*
X0059560Y0208200D01*
X0059533Y0208121D01*
X0059502Y0208043D01*
X0059468Y0207967D01*
X0059429Y0207893D01*
X0059388Y0207820D01*
X0059343Y0207749D01*
X0059295Y0207681D01*
X0059243Y0207615D01*
X0059189Y0207551D01*
X0059131Y0207490D01*
X0059071Y0207432D01*
X0059008Y0207377D01*
X0058943Y0207325D01*
X0058875Y0207276D01*
X0058805Y0207230D01*
X0058733Y0207188D01*
X0058659Y0207149D01*
X0058583Y0207113D01*
X0058505Y0207081D01*
X0058427Y0207053D01*
X0058346Y0207029D01*
X0058265Y0207008D01*
X0058183Y0206992D01*
X0058101Y0206979D01*
X0058017Y0206970D01*
X0057934Y0206965D01*
X0057850Y0206964D01*
X0057766Y0206967D01*
X0057683Y0206974D01*
X0057600Y0206985D01*
X0057518Y0207000D01*
X0057436Y0207018D01*
X0057355Y0207041D01*
X0057276Y0207067D01*
X0057198Y0207097D01*
X0057121Y0207131D01*
X0057046Y0207168D01*
X0056973Y0207208D01*
X0056902Y0207253D01*
X0056833Y0207300D01*
X0056766Y0207351D01*
X0056702Y0207404D01*
X0056640Y0207461D01*
X0056582Y0207521D01*
X0056526Y0207583D01*
X0056473Y0207648D01*
X0056423Y0207715D01*
X0056376Y0207784D01*
X0056333Y0207856D01*
X0056293Y0207930D01*
X0056257Y0208005D01*
X0056224Y0208082D01*
X0056195Y0208161D01*
X0056170Y0208240D01*
X0056148Y0208321D01*
X0056131Y0208403D01*
X0056117Y0208486D01*
X0056107Y0208569D01*
X0056101Y0208652D01*
X0056099Y0208736D01*
X0068501Y0195941D02*
X0068503Y0196010D01*
X0068509Y0196078D01*
X0068519Y0196146D01*
X0068533Y0196213D01*
X0068551Y0196280D01*
X0068572Y0196345D01*
X0068598Y0196409D01*
X0068627Y0196471D01*
X0068659Y0196531D01*
X0068695Y0196590D01*
X0068735Y0196646D01*
X0068777Y0196700D01*
X0068823Y0196751D01*
X0068872Y0196800D01*
X0068923Y0196846D01*
X0068977Y0196888D01*
X0069033Y0196928D01*
X0069091Y0196964D01*
X0069152Y0196996D01*
X0069214Y0197025D01*
X0069278Y0197051D01*
X0069343Y0197072D01*
X0069410Y0197090D01*
X0069477Y0197104D01*
X0069545Y0197114D01*
X0069613Y0197120D01*
X0069682Y0197122D01*
X0069751Y0197120D01*
X0069819Y0197114D01*
X0069887Y0197104D01*
X0069954Y0197090D01*
X0070021Y0197072D01*
X0070086Y0197051D01*
X0070150Y0197025D01*
X0070212Y0196996D01*
X0070272Y0196964D01*
X0070331Y0196928D01*
X0070387Y0196888D01*
X0070441Y0196846D01*
X0070492Y0196800D01*
X0070541Y0196751D01*
X0070587Y0196700D01*
X0070629Y0196646D01*
X0070669Y0196590D01*
X0070705Y0196531D01*
X0070737Y0196471D01*
X0070766Y0196409D01*
X0070792Y0196345D01*
X0070813Y0196280D01*
X0070831Y0196213D01*
X0070845Y0196146D01*
X0070855Y0196078D01*
X0070861Y0196010D01*
X0070863Y0195941D01*
X0070861Y0195872D01*
X0070855Y0195804D01*
X0070845Y0195736D01*
X0070831Y0195669D01*
X0070813Y0195602D01*
X0070792Y0195537D01*
X0070766Y0195473D01*
X0070737Y0195411D01*
X0070705Y0195350D01*
X0070669Y0195292D01*
X0070629Y0195236D01*
X0070587Y0195182D01*
X0070541Y0195131D01*
X0070492Y0195082D01*
X0070441Y0195036D01*
X0070387Y0194994D01*
X0070331Y0194954D01*
X0070273Y0194918D01*
X0070212Y0194886D01*
X0070150Y0194857D01*
X0070086Y0194831D01*
X0070021Y0194810D01*
X0069954Y0194792D01*
X0069887Y0194778D01*
X0069819Y0194768D01*
X0069751Y0194762D01*
X0069682Y0194760D01*
X0069613Y0194762D01*
X0069545Y0194768D01*
X0069477Y0194778D01*
X0069410Y0194792D01*
X0069343Y0194810D01*
X0069278Y0194831D01*
X0069214Y0194857D01*
X0069152Y0194886D01*
X0069091Y0194918D01*
X0069033Y0194954D01*
X0068977Y0194994D01*
X0068923Y0195036D01*
X0068872Y0195082D01*
X0068823Y0195131D01*
X0068777Y0195182D01*
X0068735Y0195236D01*
X0068695Y0195292D01*
X0068659Y0195350D01*
X0068627Y0195411D01*
X0068598Y0195473D01*
X0068572Y0195537D01*
X0068551Y0195602D01*
X0068533Y0195669D01*
X0068519Y0195736D01*
X0068509Y0195804D01*
X0068503Y0195872D01*
X0068501Y0195941D01*
X0068501Y0192004D02*
X0068503Y0192073D01*
X0068509Y0192141D01*
X0068519Y0192209D01*
X0068533Y0192276D01*
X0068551Y0192343D01*
X0068572Y0192408D01*
X0068598Y0192472D01*
X0068627Y0192534D01*
X0068659Y0192594D01*
X0068695Y0192653D01*
X0068735Y0192709D01*
X0068777Y0192763D01*
X0068823Y0192814D01*
X0068872Y0192863D01*
X0068923Y0192909D01*
X0068977Y0192951D01*
X0069033Y0192991D01*
X0069091Y0193027D01*
X0069152Y0193059D01*
X0069214Y0193088D01*
X0069278Y0193114D01*
X0069343Y0193135D01*
X0069410Y0193153D01*
X0069477Y0193167D01*
X0069545Y0193177D01*
X0069613Y0193183D01*
X0069682Y0193185D01*
X0069751Y0193183D01*
X0069819Y0193177D01*
X0069887Y0193167D01*
X0069954Y0193153D01*
X0070021Y0193135D01*
X0070086Y0193114D01*
X0070150Y0193088D01*
X0070212Y0193059D01*
X0070272Y0193027D01*
X0070331Y0192991D01*
X0070387Y0192951D01*
X0070441Y0192909D01*
X0070492Y0192863D01*
X0070541Y0192814D01*
X0070587Y0192763D01*
X0070629Y0192709D01*
X0070669Y0192653D01*
X0070705Y0192594D01*
X0070737Y0192534D01*
X0070766Y0192472D01*
X0070792Y0192408D01*
X0070813Y0192343D01*
X0070831Y0192276D01*
X0070845Y0192209D01*
X0070855Y0192141D01*
X0070861Y0192073D01*
X0070863Y0192004D01*
X0070861Y0191935D01*
X0070855Y0191867D01*
X0070845Y0191799D01*
X0070831Y0191732D01*
X0070813Y0191665D01*
X0070792Y0191600D01*
X0070766Y0191536D01*
X0070737Y0191474D01*
X0070705Y0191413D01*
X0070669Y0191355D01*
X0070629Y0191299D01*
X0070587Y0191245D01*
X0070541Y0191194D01*
X0070492Y0191145D01*
X0070441Y0191099D01*
X0070387Y0191057D01*
X0070331Y0191017D01*
X0070273Y0190981D01*
X0070212Y0190949D01*
X0070150Y0190920D01*
X0070086Y0190894D01*
X0070021Y0190873D01*
X0069954Y0190855D01*
X0069887Y0190841D01*
X0069819Y0190831D01*
X0069751Y0190825D01*
X0069682Y0190823D01*
X0069613Y0190825D01*
X0069545Y0190831D01*
X0069477Y0190841D01*
X0069410Y0190855D01*
X0069343Y0190873D01*
X0069278Y0190894D01*
X0069214Y0190920D01*
X0069152Y0190949D01*
X0069091Y0190981D01*
X0069033Y0191017D01*
X0068977Y0191057D01*
X0068923Y0191099D01*
X0068872Y0191145D01*
X0068823Y0191194D01*
X0068777Y0191245D01*
X0068735Y0191299D01*
X0068695Y0191355D01*
X0068659Y0191413D01*
X0068627Y0191474D01*
X0068598Y0191536D01*
X0068572Y0191600D01*
X0068551Y0191665D01*
X0068533Y0191732D01*
X0068519Y0191799D01*
X0068509Y0191867D01*
X0068503Y0191935D01*
X0068501Y0192004D01*
X0097240Y0166709D02*
X0097242Y0166780D01*
X0097248Y0166851D01*
X0097258Y0166922D01*
X0097272Y0166991D01*
X0097289Y0167060D01*
X0097311Y0167128D01*
X0097336Y0167195D01*
X0097365Y0167260D01*
X0097397Y0167323D01*
X0097433Y0167385D01*
X0097472Y0167444D01*
X0097515Y0167501D01*
X0097560Y0167556D01*
X0097609Y0167608D01*
X0097660Y0167657D01*
X0097714Y0167703D01*
X0097771Y0167747D01*
X0097829Y0167787D01*
X0097890Y0167823D01*
X0097953Y0167857D01*
X0098018Y0167886D01*
X0098084Y0167912D01*
X0098152Y0167935D01*
X0098220Y0167953D01*
X0098290Y0167968D01*
X0098360Y0167979D01*
X0098431Y0167986D01*
X0098502Y0167989D01*
X0098573Y0167988D01*
X0098644Y0167983D01*
X0098715Y0167974D01*
X0098785Y0167961D01*
X0098854Y0167945D01*
X0098922Y0167924D01*
X0098989Y0167900D01*
X0099055Y0167872D01*
X0099118Y0167840D01*
X0099180Y0167805D01*
X0099240Y0167767D01*
X0099298Y0167725D01*
X0099353Y0167681D01*
X0099406Y0167633D01*
X0099456Y0167582D01*
X0099503Y0167529D01*
X0099547Y0167473D01*
X0099588Y0167415D01*
X0099626Y0167354D01*
X0099660Y0167292D01*
X0099690Y0167227D01*
X0099717Y0167162D01*
X0099741Y0167094D01*
X0099760Y0167026D01*
X0099776Y0166957D01*
X0099788Y0166886D01*
X0099796Y0166816D01*
X0099800Y0166745D01*
X0099800Y0166673D01*
X0099796Y0166602D01*
X0099788Y0166532D01*
X0099776Y0166461D01*
X0099760Y0166392D01*
X0099741Y0166324D01*
X0099717Y0166256D01*
X0099690Y0166191D01*
X0099660Y0166126D01*
X0099626Y0166064D01*
X0099588Y0166003D01*
X0099547Y0165945D01*
X0099503Y0165889D01*
X0099456Y0165836D01*
X0099406Y0165785D01*
X0099353Y0165737D01*
X0099298Y0165693D01*
X0099240Y0165651D01*
X0099180Y0165613D01*
X0099118Y0165578D01*
X0099055Y0165546D01*
X0098989Y0165518D01*
X0098922Y0165494D01*
X0098854Y0165473D01*
X0098785Y0165457D01*
X0098715Y0165444D01*
X0098644Y0165435D01*
X0098573Y0165430D01*
X0098502Y0165429D01*
X0098431Y0165432D01*
X0098360Y0165439D01*
X0098290Y0165450D01*
X0098220Y0165465D01*
X0098152Y0165483D01*
X0098084Y0165506D01*
X0098018Y0165532D01*
X0097953Y0165561D01*
X0097890Y0165595D01*
X0097829Y0165631D01*
X0097771Y0165671D01*
X0097714Y0165715D01*
X0097660Y0165761D01*
X0097609Y0165810D01*
X0097560Y0165862D01*
X0097515Y0165917D01*
X0097472Y0165974D01*
X0097433Y0166033D01*
X0097397Y0166095D01*
X0097365Y0166158D01*
X0097336Y0166223D01*
X0097311Y0166290D01*
X0097289Y0166358D01*
X0097272Y0166427D01*
X0097258Y0166496D01*
X0097248Y0166567D01*
X0097242Y0166638D01*
X0097240Y0166709D01*
X0097240Y0138362D02*
X0097242Y0138433D01*
X0097248Y0138504D01*
X0097258Y0138575D01*
X0097272Y0138644D01*
X0097289Y0138713D01*
X0097311Y0138781D01*
X0097336Y0138848D01*
X0097365Y0138913D01*
X0097397Y0138976D01*
X0097433Y0139038D01*
X0097472Y0139097D01*
X0097515Y0139154D01*
X0097560Y0139209D01*
X0097609Y0139261D01*
X0097660Y0139310D01*
X0097714Y0139356D01*
X0097771Y0139400D01*
X0097829Y0139440D01*
X0097890Y0139476D01*
X0097953Y0139510D01*
X0098018Y0139539D01*
X0098084Y0139565D01*
X0098152Y0139588D01*
X0098220Y0139606D01*
X0098290Y0139621D01*
X0098360Y0139632D01*
X0098431Y0139639D01*
X0098502Y0139642D01*
X0098573Y0139641D01*
X0098644Y0139636D01*
X0098715Y0139627D01*
X0098785Y0139614D01*
X0098854Y0139598D01*
X0098922Y0139577D01*
X0098989Y0139553D01*
X0099055Y0139525D01*
X0099118Y0139493D01*
X0099180Y0139458D01*
X0099240Y0139420D01*
X0099298Y0139378D01*
X0099353Y0139334D01*
X0099406Y0139286D01*
X0099456Y0139235D01*
X0099503Y0139182D01*
X0099547Y0139126D01*
X0099588Y0139068D01*
X0099626Y0139007D01*
X0099660Y0138945D01*
X0099690Y0138880D01*
X0099717Y0138815D01*
X0099741Y0138747D01*
X0099760Y0138679D01*
X0099776Y0138610D01*
X0099788Y0138539D01*
X0099796Y0138469D01*
X0099800Y0138398D01*
X0099800Y0138326D01*
X0099796Y0138255D01*
X0099788Y0138185D01*
X0099776Y0138114D01*
X0099760Y0138045D01*
X0099741Y0137977D01*
X0099717Y0137909D01*
X0099690Y0137844D01*
X0099660Y0137779D01*
X0099626Y0137717D01*
X0099588Y0137656D01*
X0099547Y0137598D01*
X0099503Y0137542D01*
X0099456Y0137489D01*
X0099406Y0137438D01*
X0099353Y0137390D01*
X0099298Y0137346D01*
X0099240Y0137304D01*
X0099180Y0137266D01*
X0099118Y0137231D01*
X0099055Y0137199D01*
X0098989Y0137171D01*
X0098922Y0137147D01*
X0098854Y0137126D01*
X0098785Y0137110D01*
X0098715Y0137097D01*
X0098644Y0137088D01*
X0098573Y0137083D01*
X0098502Y0137082D01*
X0098431Y0137085D01*
X0098360Y0137092D01*
X0098290Y0137103D01*
X0098220Y0137118D01*
X0098152Y0137136D01*
X0098084Y0137159D01*
X0098018Y0137185D01*
X0097953Y0137214D01*
X0097890Y0137248D01*
X0097829Y0137284D01*
X0097771Y0137324D01*
X0097714Y0137368D01*
X0097660Y0137414D01*
X0097609Y0137463D01*
X0097560Y0137515D01*
X0097515Y0137570D01*
X0097472Y0137627D01*
X0097433Y0137686D01*
X0097397Y0137748D01*
X0097365Y0137811D01*
X0097336Y0137876D01*
X0097311Y0137943D01*
X0097289Y0138011D01*
X0097272Y0138080D01*
X0097258Y0138149D01*
X0097248Y0138220D01*
X0097242Y0138291D01*
X0097240Y0138362D01*
X0068501Y0113264D02*
X0068503Y0113333D01*
X0068509Y0113401D01*
X0068519Y0113469D01*
X0068533Y0113536D01*
X0068551Y0113603D01*
X0068572Y0113668D01*
X0068598Y0113732D01*
X0068627Y0113794D01*
X0068659Y0113854D01*
X0068695Y0113913D01*
X0068735Y0113969D01*
X0068777Y0114023D01*
X0068823Y0114074D01*
X0068872Y0114123D01*
X0068923Y0114169D01*
X0068977Y0114211D01*
X0069033Y0114251D01*
X0069091Y0114287D01*
X0069152Y0114319D01*
X0069214Y0114348D01*
X0069278Y0114374D01*
X0069343Y0114395D01*
X0069410Y0114413D01*
X0069477Y0114427D01*
X0069545Y0114437D01*
X0069613Y0114443D01*
X0069682Y0114445D01*
X0069751Y0114443D01*
X0069819Y0114437D01*
X0069887Y0114427D01*
X0069954Y0114413D01*
X0070021Y0114395D01*
X0070086Y0114374D01*
X0070150Y0114348D01*
X0070212Y0114319D01*
X0070272Y0114287D01*
X0070331Y0114251D01*
X0070387Y0114211D01*
X0070441Y0114169D01*
X0070492Y0114123D01*
X0070541Y0114074D01*
X0070587Y0114023D01*
X0070629Y0113969D01*
X0070669Y0113913D01*
X0070705Y0113854D01*
X0070737Y0113794D01*
X0070766Y0113732D01*
X0070792Y0113668D01*
X0070813Y0113603D01*
X0070831Y0113536D01*
X0070845Y0113469D01*
X0070855Y0113401D01*
X0070861Y0113333D01*
X0070863Y0113264D01*
X0070861Y0113195D01*
X0070855Y0113127D01*
X0070845Y0113059D01*
X0070831Y0112992D01*
X0070813Y0112925D01*
X0070792Y0112860D01*
X0070766Y0112796D01*
X0070737Y0112734D01*
X0070705Y0112673D01*
X0070669Y0112615D01*
X0070629Y0112559D01*
X0070587Y0112505D01*
X0070541Y0112454D01*
X0070492Y0112405D01*
X0070441Y0112359D01*
X0070387Y0112317D01*
X0070331Y0112277D01*
X0070273Y0112241D01*
X0070212Y0112209D01*
X0070150Y0112180D01*
X0070086Y0112154D01*
X0070021Y0112133D01*
X0069954Y0112115D01*
X0069887Y0112101D01*
X0069819Y0112091D01*
X0069751Y0112085D01*
X0069682Y0112083D01*
X0069613Y0112085D01*
X0069545Y0112091D01*
X0069477Y0112101D01*
X0069410Y0112115D01*
X0069343Y0112133D01*
X0069278Y0112154D01*
X0069214Y0112180D01*
X0069152Y0112209D01*
X0069091Y0112241D01*
X0069033Y0112277D01*
X0068977Y0112317D01*
X0068923Y0112359D01*
X0068872Y0112405D01*
X0068823Y0112454D01*
X0068777Y0112505D01*
X0068735Y0112559D01*
X0068695Y0112615D01*
X0068659Y0112673D01*
X0068627Y0112734D01*
X0068598Y0112796D01*
X0068572Y0112860D01*
X0068551Y0112925D01*
X0068533Y0112992D01*
X0068519Y0113059D01*
X0068509Y0113127D01*
X0068503Y0113195D01*
X0068501Y0113264D01*
X0068501Y0109327D02*
X0068503Y0109396D01*
X0068509Y0109464D01*
X0068519Y0109532D01*
X0068533Y0109599D01*
X0068551Y0109666D01*
X0068572Y0109731D01*
X0068598Y0109795D01*
X0068627Y0109857D01*
X0068659Y0109917D01*
X0068695Y0109976D01*
X0068735Y0110032D01*
X0068777Y0110086D01*
X0068823Y0110137D01*
X0068872Y0110186D01*
X0068923Y0110232D01*
X0068977Y0110274D01*
X0069033Y0110314D01*
X0069091Y0110350D01*
X0069152Y0110382D01*
X0069214Y0110411D01*
X0069278Y0110437D01*
X0069343Y0110458D01*
X0069410Y0110476D01*
X0069477Y0110490D01*
X0069545Y0110500D01*
X0069613Y0110506D01*
X0069682Y0110508D01*
X0069751Y0110506D01*
X0069819Y0110500D01*
X0069887Y0110490D01*
X0069954Y0110476D01*
X0070021Y0110458D01*
X0070086Y0110437D01*
X0070150Y0110411D01*
X0070212Y0110382D01*
X0070272Y0110350D01*
X0070331Y0110314D01*
X0070387Y0110274D01*
X0070441Y0110232D01*
X0070492Y0110186D01*
X0070541Y0110137D01*
X0070587Y0110086D01*
X0070629Y0110032D01*
X0070669Y0109976D01*
X0070705Y0109917D01*
X0070737Y0109857D01*
X0070766Y0109795D01*
X0070792Y0109731D01*
X0070813Y0109666D01*
X0070831Y0109599D01*
X0070845Y0109532D01*
X0070855Y0109464D01*
X0070861Y0109396D01*
X0070863Y0109327D01*
X0070861Y0109258D01*
X0070855Y0109190D01*
X0070845Y0109122D01*
X0070831Y0109055D01*
X0070813Y0108988D01*
X0070792Y0108923D01*
X0070766Y0108859D01*
X0070737Y0108797D01*
X0070705Y0108736D01*
X0070669Y0108678D01*
X0070629Y0108622D01*
X0070587Y0108568D01*
X0070541Y0108517D01*
X0070492Y0108468D01*
X0070441Y0108422D01*
X0070387Y0108380D01*
X0070331Y0108340D01*
X0070273Y0108304D01*
X0070212Y0108272D01*
X0070150Y0108243D01*
X0070086Y0108217D01*
X0070021Y0108196D01*
X0069954Y0108178D01*
X0069887Y0108164D01*
X0069819Y0108154D01*
X0069751Y0108148D01*
X0069682Y0108146D01*
X0069613Y0108148D01*
X0069545Y0108154D01*
X0069477Y0108164D01*
X0069410Y0108178D01*
X0069343Y0108196D01*
X0069278Y0108217D01*
X0069214Y0108243D01*
X0069152Y0108272D01*
X0069091Y0108304D01*
X0069033Y0108340D01*
X0068977Y0108380D01*
X0068923Y0108422D01*
X0068872Y0108468D01*
X0068823Y0108517D01*
X0068777Y0108568D01*
X0068735Y0108622D01*
X0068695Y0108678D01*
X0068659Y0108736D01*
X0068627Y0108797D01*
X0068598Y0108859D01*
X0068572Y0108923D01*
X0068551Y0108988D01*
X0068533Y0109055D01*
X0068519Y0109122D01*
X0068509Y0109190D01*
X0068503Y0109258D01*
X0068501Y0109327D01*
X0048028Y0107358D02*
X0048030Y0107446D01*
X0048036Y0107534D01*
X0048046Y0107622D01*
X0048060Y0107710D01*
X0048077Y0107796D01*
X0048099Y0107882D01*
X0048124Y0107966D01*
X0048154Y0108050D01*
X0048186Y0108132D01*
X0048223Y0108212D01*
X0048263Y0108291D01*
X0048307Y0108368D01*
X0048354Y0108443D01*
X0048404Y0108515D01*
X0048458Y0108586D01*
X0048514Y0108653D01*
X0048574Y0108719D01*
X0048636Y0108781D01*
X0048702Y0108841D01*
X0048769Y0108897D01*
X0048840Y0108951D01*
X0048912Y0109001D01*
X0048987Y0109048D01*
X0049064Y0109092D01*
X0049143Y0109132D01*
X0049223Y0109169D01*
X0049305Y0109201D01*
X0049389Y0109231D01*
X0049473Y0109256D01*
X0049559Y0109278D01*
X0049645Y0109295D01*
X0049733Y0109309D01*
X0049821Y0109319D01*
X0049909Y0109325D01*
X0049997Y0109327D01*
X0050085Y0109325D01*
X0050173Y0109319D01*
X0050261Y0109309D01*
X0050349Y0109295D01*
X0050435Y0109278D01*
X0050521Y0109256D01*
X0050605Y0109231D01*
X0050689Y0109201D01*
X0050771Y0109169D01*
X0050851Y0109132D01*
X0050930Y0109092D01*
X0051007Y0109048D01*
X0051082Y0109001D01*
X0051154Y0108951D01*
X0051225Y0108897D01*
X0051292Y0108841D01*
X0051358Y0108781D01*
X0051420Y0108719D01*
X0051480Y0108653D01*
X0051536Y0108586D01*
X0051590Y0108515D01*
X0051640Y0108443D01*
X0051687Y0108368D01*
X0051731Y0108291D01*
X0051771Y0108212D01*
X0051808Y0108132D01*
X0051840Y0108050D01*
X0051870Y0107966D01*
X0051895Y0107882D01*
X0051917Y0107796D01*
X0051934Y0107710D01*
X0051948Y0107622D01*
X0051958Y0107534D01*
X0051964Y0107446D01*
X0051966Y0107358D01*
X0051964Y0107270D01*
X0051958Y0107182D01*
X0051948Y0107094D01*
X0051934Y0107006D01*
X0051917Y0106920D01*
X0051895Y0106834D01*
X0051870Y0106750D01*
X0051840Y0106666D01*
X0051808Y0106584D01*
X0051771Y0106504D01*
X0051731Y0106425D01*
X0051687Y0106348D01*
X0051640Y0106273D01*
X0051590Y0106201D01*
X0051536Y0106130D01*
X0051480Y0106063D01*
X0051420Y0105997D01*
X0051358Y0105935D01*
X0051292Y0105875D01*
X0051225Y0105819D01*
X0051154Y0105765D01*
X0051082Y0105715D01*
X0051007Y0105668D01*
X0050930Y0105624D01*
X0050851Y0105584D01*
X0050771Y0105547D01*
X0050689Y0105515D01*
X0050605Y0105485D01*
X0050521Y0105460D01*
X0050435Y0105438D01*
X0050349Y0105421D01*
X0050261Y0105407D01*
X0050173Y0105397D01*
X0050085Y0105391D01*
X0049997Y0105389D01*
X0049909Y0105391D01*
X0049821Y0105397D01*
X0049733Y0105407D01*
X0049645Y0105421D01*
X0049559Y0105438D01*
X0049473Y0105460D01*
X0049389Y0105485D01*
X0049305Y0105515D01*
X0049223Y0105547D01*
X0049143Y0105584D01*
X0049064Y0105624D01*
X0048987Y0105668D01*
X0048912Y0105715D01*
X0048840Y0105765D01*
X0048769Y0105819D01*
X0048702Y0105875D01*
X0048636Y0105935D01*
X0048574Y0105997D01*
X0048514Y0106063D01*
X0048458Y0106130D01*
X0048404Y0106201D01*
X0048354Y0106273D01*
X0048307Y0106348D01*
X0048263Y0106425D01*
X0048223Y0106504D01*
X0048186Y0106584D01*
X0048154Y0106666D01*
X0048124Y0106750D01*
X0048099Y0106834D01*
X0048077Y0106920D01*
X0048060Y0107006D01*
X0048046Y0107094D01*
X0048036Y0107182D01*
X0048030Y0107270D01*
X0048028Y0107358D01*
X0047044Y0099484D02*
X0047046Y0099592D01*
X0047052Y0099701D01*
X0047062Y0099809D01*
X0047076Y0099916D01*
X0047094Y0100023D01*
X0047115Y0100130D01*
X0047141Y0100235D01*
X0047171Y0100340D01*
X0047204Y0100443D01*
X0047241Y0100545D01*
X0047282Y0100645D01*
X0047326Y0100744D01*
X0047375Y0100842D01*
X0047426Y0100937D01*
X0047481Y0101030D01*
X0047540Y0101122D01*
X0047602Y0101211D01*
X0047667Y0101298D01*
X0047735Y0101382D01*
X0047806Y0101464D01*
X0047880Y0101543D01*
X0047957Y0101619D01*
X0048037Y0101693D01*
X0048120Y0101763D01*
X0048205Y0101831D01*
X0048292Y0101895D01*
X0048382Y0101956D01*
X0048474Y0102014D01*
X0048568Y0102068D01*
X0048664Y0102119D01*
X0048761Y0102166D01*
X0048861Y0102210D01*
X0048962Y0102250D01*
X0049064Y0102286D01*
X0049167Y0102318D01*
X0049272Y0102347D01*
X0049378Y0102371D01*
X0049484Y0102392D01*
X0049591Y0102409D01*
X0049699Y0102422D01*
X0049807Y0102431D01*
X0049916Y0102436D01*
X0050024Y0102437D01*
X0050133Y0102434D01*
X0050241Y0102427D01*
X0050349Y0102416D01*
X0050456Y0102401D01*
X0050563Y0102382D01*
X0050669Y0102359D01*
X0050774Y0102333D01*
X0050879Y0102302D01*
X0050981Y0102268D01*
X0051083Y0102230D01*
X0051183Y0102188D01*
X0051282Y0102143D01*
X0051379Y0102094D01*
X0051473Y0102041D01*
X0051566Y0101985D01*
X0051657Y0101926D01*
X0051746Y0101863D01*
X0051832Y0101798D01*
X0051916Y0101729D01*
X0051997Y0101657D01*
X0052075Y0101582D01*
X0052151Y0101504D01*
X0052224Y0101423D01*
X0052294Y0101340D01*
X0052360Y0101255D01*
X0052424Y0101167D01*
X0052484Y0101076D01*
X0052541Y0100984D01*
X0052594Y0100889D01*
X0052644Y0100793D01*
X0052690Y0100695D01*
X0052733Y0100595D01*
X0052772Y0100494D01*
X0052807Y0100391D01*
X0052839Y0100288D01*
X0052866Y0100183D01*
X0052890Y0100077D01*
X0052910Y0099970D01*
X0052926Y0099863D01*
X0052938Y0099755D01*
X0052946Y0099647D01*
X0052950Y0099538D01*
X0052950Y0099430D01*
X0052946Y0099321D01*
X0052938Y0099213D01*
X0052926Y0099105D01*
X0052910Y0098998D01*
X0052890Y0098891D01*
X0052866Y0098785D01*
X0052839Y0098680D01*
X0052807Y0098577D01*
X0052772Y0098474D01*
X0052733Y0098373D01*
X0052690Y0098273D01*
X0052644Y0098175D01*
X0052594Y0098079D01*
X0052541Y0097984D01*
X0052484Y0097892D01*
X0052424Y0097801D01*
X0052360Y0097713D01*
X0052294Y0097628D01*
X0052224Y0097545D01*
X0052151Y0097464D01*
X0052075Y0097386D01*
X0051997Y0097311D01*
X0051916Y0097239D01*
X0051832Y0097170D01*
X0051746Y0097105D01*
X0051657Y0097042D01*
X0051566Y0096983D01*
X0051474Y0096927D01*
X0051379Y0096874D01*
X0051282Y0096825D01*
X0051183Y0096780D01*
X0051083Y0096738D01*
X0050981Y0096700D01*
X0050879Y0096666D01*
X0050774Y0096635D01*
X0050669Y0096609D01*
X0050563Y0096586D01*
X0050456Y0096567D01*
X0050349Y0096552D01*
X0050241Y0096541D01*
X0050133Y0096534D01*
X0050024Y0096531D01*
X0049916Y0096532D01*
X0049807Y0096537D01*
X0049699Y0096546D01*
X0049591Y0096559D01*
X0049484Y0096576D01*
X0049378Y0096597D01*
X0049272Y0096621D01*
X0049167Y0096650D01*
X0049064Y0096682D01*
X0048962Y0096718D01*
X0048861Y0096758D01*
X0048761Y0096802D01*
X0048664Y0096849D01*
X0048568Y0096900D01*
X0048474Y0096954D01*
X0048382Y0097012D01*
X0048292Y0097073D01*
X0048205Y0097137D01*
X0048120Y0097205D01*
X0048037Y0097275D01*
X0047957Y0097349D01*
X0047880Y0097425D01*
X0047806Y0097504D01*
X0047735Y0097586D01*
X0047667Y0097670D01*
X0047602Y0097757D01*
X0047540Y0097846D01*
X0047481Y0097938D01*
X0047426Y0098031D01*
X0047375Y0098126D01*
X0047326Y0098224D01*
X0047282Y0098323D01*
X0047241Y0098423D01*
X0047204Y0098525D01*
X0047171Y0098628D01*
X0047141Y0098733D01*
X0047115Y0098838D01*
X0047094Y0098945D01*
X0047076Y0099052D01*
X0047062Y0099159D01*
X0047052Y0099267D01*
X0047046Y0099376D01*
X0047044Y0099484D01*
X0046060Y0087673D02*
X0046062Y0087798D01*
X0046068Y0087923D01*
X0046078Y0088047D01*
X0046092Y0088171D01*
X0046109Y0088295D01*
X0046131Y0088418D01*
X0046157Y0088540D01*
X0046186Y0088662D01*
X0046219Y0088782D01*
X0046257Y0088901D01*
X0046297Y0089020D01*
X0046342Y0089136D01*
X0046390Y0089251D01*
X0046442Y0089365D01*
X0046498Y0089477D01*
X0046557Y0089587D01*
X0046619Y0089695D01*
X0046685Y0089802D01*
X0046754Y0089906D01*
X0046827Y0090007D01*
X0046902Y0090107D01*
X0046981Y0090204D01*
X0047063Y0090298D01*
X0047148Y0090390D01*
X0047235Y0090479D01*
X0047326Y0090565D01*
X0047419Y0090648D01*
X0047515Y0090729D01*
X0047613Y0090806D01*
X0047713Y0090880D01*
X0047816Y0090951D01*
X0047921Y0091018D01*
X0048029Y0091083D01*
X0048138Y0091143D01*
X0048249Y0091201D01*
X0048362Y0091254D01*
X0048476Y0091304D01*
X0048592Y0091351D01*
X0048709Y0091393D01*
X0048828Y0091432D01*
X0048948Y0091468D01*
X0049069Y0091499D01*
X0049191Y0091527D01*
X0049313Y0091550D01*
X0049437Y0091570D01*
X0049561Y0091586D01*
X0049685Y0091598D01*
X0049810Y0091606D01*
X0049935Y0091610D01*
X0050059Y0091610D01*
X0050184Y0091606D01*
X0050309Y0091598D01*
X0050433Y0091586D01*
X0050557Y0091570D01*
X0050681Y0091550D01*
X0050803Y0091527D01*
X0050925Y0091499D01*
X0051046Y0091468D01*
X0051166Y0091432D01*
X0051285Y0091393D01*
X0051402Y0091351D01*
X0051518Y0091304D01*
X0051632Y0091254D01*
X0051745Y0091201D01*
X0051856Y0091143D01*
X0051966Y0091083D01*
X0052073Y0091018D01*
X0052178Y0090951D01*
X0052281Y0090880D01*
X0052381Y0090806D01*
X0052479Y0090729D01*
X0052575Y0090648D01*
X0052668Y0090565D01*
X0052759Y0090479D01*
X0052846Y0090390D01*
X0052931Y0090298D01*
X0053013Y0090204D01*
X0053092Y0090107D01*
X0053167Y0090007D01*
X0053240Y0089906D01*
X0053309Y0089802D01*
X0053375Y0089695D01*
X0053437Y0089587D01*
X0053496Y0089477D01*
X0053552Y0089365D01*
X0053604Y0089251D01*
X0053652Y0089136D01*
X0053697Y0089020D01*
X0053737Y0088901D01*
X0053775Y0088782D01*
X0053808Y0088662D01*
X0053837Y0088540D01*
X0053863Y0088418D01*
X0053885Y0088295D01*
X0053902Y0088171D01*
X0053916Y0088047D01*
X0053926Y0087923D01*
X0053932Y0087798D01*
X0053934Y0087673D01*
X0053932Y0087548D01*
X0053926Y0087423D01*
X0053916Y0087299D01*
X0053902Y0087175D01*
X0053885Y0087051D01*
X0053863Y0086928D01*
X0053837Y0086806D01*
X0053808Y0086684D01*
X0053775Y0086564D01*
X0053737Y0086445D01*
X0053697Y0086326D01*
X0053652Y0086210D01*
X0053604Y0086095D01*
X0053552Y0085981D01*
X0053496Y0085869D01*
X0053437Y0085759D01*
X0053375Y0085651D01*
X0053309Y0085544D01*
X0053240Y0085440D01*
X0053167Y0085339D01*
X0053092Y0085239D01*
X0053013Y0085142D01*
X0052931Y0085048D01*
X0052846Y0084956D01*
X0052759Y0084867D01*
X0052668Y0084781D01*
X0052575Y0084698D01*
X0052479Y0084617D01*
X0052381Y0084540D01*
X0052281Y0084466D01*
X0052178Y0084395D01*
X0052073Y0084328D01*
X0051965Y0084263D01*
X0051856Y0084203D01*
X0051745Y0084145D01*
X0051632Y0084092D01*
X0051518Y0084042D01*
X0051402Y0083995D01*
X0051285Y0083953D01*
X0051166Y0083914D01*
X0051046Y0083878D01*
X0050925Y0083847D01*
X0050803Y0083819D01*
X0050681Y0083796D01*
X0050557Y0083776D01*
X0050433Y0083760D01*
X0050309Y0083748D01*
X0050184Y0083740D01*
X0050059Y0083736D01*
X0049935Y0083736D01*
X0049810Y0083740D01*
X0049685Y0083748D01*
X0049561Y0083760D01*
X0049437Y0083776D01*
X0049313Y0083796D01*
X0049191Y0083819D01*
X0049069Y0083847D01*
X0048948Y0083878D01*
X0048828Y0083914D01*
X0048709Y0083953D01*
X0048592Y0083995D01*
X0048476Y0084042D01*
X0048362Y0084092D01*
X0048249Y0084145D01*
X0048138Y0084203D01*
X0048028Y0084263D01*
X0047921Y0084328D01*
X0047816Y0084395D01*
X0047713Y0084466D01*
X0047613Y0084540D01*
X0047515Y0084617D01*
X0047419Y0084698D01*
X0047326Y0084781D01*
X0047235Y0084867D01*
X0047148Y0084956D01*
X0047063Y0085048D01*
X0046981Y0085142D01*
X0046902Y0085239D01*
X0046827Y0085339D01*
X0046754Y0085440D01*
X0046685Y0085544D01*
X0046619Y0085651D01*
X0046557Y0085759D01*
X0046498Y0085869D01*
X0046442Y0085981D01*
X0046390Y0086095D01*
X0046342Y0086210D01*
X0046297Y0086326D01*
X0046257Y0086445D01*
X0046219Y0086564D01*
X0046186Y0086684D01*
X0046157Y0086806D01*
X0046131Y0086928D01*
X0046109Y0087051D01*
X0046092Y0087175D01*
X0046078Y0087299D01*
X0046068Y0087423D01*
X0046062Y0087548D01*
X0046060Y0087673D01*
X0047044Y0075862D02*
X0047046Y0075970D01*
X0047052Y0076079D01*
X0047062Y0076187D01*
X0047076Y0076294D01*
X0047094Y0076401D01*
X0047115Y0076508D01*
X0047141Y0076613D01*
X0047171Y0076718D01*
X0047204Y0076821D01*
X0047241Y0076923D01*
X0047282Y0077023D01*
X0047326Y0077122D01*
X0047375Y0077220D01*
X0047426Y0077315D01*
X0047481Y0077408D01*
X0047540Y0077500D01*
X0047602Y0077589D01*
X0047667Y0077676D01*
X0047735Y0077760D01*
X0047806Y0077842D01*
X0047880Y0077921D01*
X0047957Y0077997D01*
X0048037Y0078071D01*
X0048120Y0078141D01*
X0048205Y0078209D01*
X0048292Y0078273D01*
X0048382Y0078334D01*
X0048474Y0078392D01*
X0048568Y0078446D01*
X0048664Y0078497D01*
X0048761Y0078544D01*
X0048861Y0078588D01*
X0048962Y0078628D01*
X0049064Y0078664D01*
X0049167Y0078696D01*
X0049272Y0078725D01*
X0049378Y0078749D01*
X0049484Y0078770D01*
X0049591Y0078787D01*
X0049699Y0078800D01*
X0049807Y0078809D01*
X0049916Y0078814D01*
X0050024Y0078815D01*
X0050133Y0078812D01*
X0050241Y0078805D01*
X0050349Y0078794D01*
X0050456Y0078779D01*
X0050563Y0078760D01*
X0050669Y0078737D01*
X0050774Y0078711D01*
X0050879Y0078680D01*
X0050981Y0078646D01*
X0051083Y0078608D01*
X0051183Y0078566D01*
X0051282Y0078521D01*
X0051379Y0078472D01*
X0051473Y0078419D01*
X0051566Y0078363D01*
X0051657Y0078304D01*
X0051746Y0078241D01*
X0051832Y0078176D01*
X0051916Y0078107D01*
X0051997Y0078035D01*
X0052075Y0077960D01*
X0052151Y0077882D01*
X0052224Y0077801D01*
X0052294Y0077718D01*
X0052360Y0077633D01*
X0052424Y0077545D01*
X0052484Y0077454D01*
X0052541Y0077362D01*
X0052594Y0077267D01*
X0052644Y0077171D01*
X0052690Y0077073D01*
X0052733Y0076973D01*
X0052772Y0076872D01*
X0052807Y0076769D01*
X0052839Y0076666D01*
X0052866Y0076561D01*
X0052890Y0076455D01*
X0052910Y0076348D01*
X0052926Y0076241D01*
X0052938Y0076133D01*
X0052946Y0076025D01*
X0052950Y0075916D01*
X0052950Y0075808D01*
X0052946Y0075699D01*
X0052938Y0075591D01*
X0052926Y0075483D01*
X0052910Y0075376D01*
X0052890Y0075269D01*
X0052866Y0075163D01*
X0052839Y0075058D01*
X0052807Y0074955D01*
X0052772Y0074852D01*
X0052733Y0074751D01*
X0052690Y0074651D01*
X0052644Y0074553D01*
X0052594Y0074457D01*
X0052541Y0074362D01*
X0052484Y0074270D01*
X0052424Y0074179D01*
X0052360Y0074091D01*
X0052294Y0074006D01*
X0052224Y0073923D01*
X0052151Y0073842D01*
X0052075Y0073764D01*
X0051997Y0073689D01*
X0051916Y0073617D01*
X0051832Y0073548D01*
X0051746Y0073483D01*
X0051657Y0073420D01*
X0051566Y0073361D01*
X0051474Y0073305D01*
X0051379Y0073252D01*
X0051282Y0073203D01*
X0051183Y0073158D01*
X0051083Y0073116D01*
X0050981Y0073078D01*
X0050879Y0073044D01*
X0050774Y0073013D01*
X0050669Y0072987D01*
X0050563Y0072964D01*
X0050456Y0072945D01*
X0050349Y0072930D01*
X0050241Y0072919D01*
X0050133Y0072912D01*
X0050024Y0072909D01*
X0049916Y0072910D01*
X0049807Y0072915D01*
X0049699Y0072924D01*
X0049591Y0072937D01*
X0049484Y0072954D01*
X0049378Y0072975D01*
X0049272Y0072999D01*
X0049167Y0073028D01*
X0049064Y0073060D01*
X0048962Y0073096D01*
X0048861Y0073136D01*
X0048761Y0073180D01*
X0048664Y0073227D01*
X0048568Y0073278D01*
X0048474Y0073332D01*
X0048382Y0073390D01*
X0048292Y0073451D01*
X0048205Y0073515D01*
X0048120Y0073583D01*
X0048037Y0073653D01*
X0047957Y0073727D01*
X0047880Y0073803D01*
X0047806Y0073882D01*
X0047735Y0073964D01*
X0047667Y0074048D01*
X0047602Y0074135D01*
X0047540Y0074224D01*
X0047481Y0074316D01*
X0047426Y0074409D01*
X0047375Y0074504D01*
X0047326Y0074602D01*
X0047282Y0074701D01*
X0047241Y0074801D01*
X0047204Y0074903D01*
X0047171Y0075006D01*
X0047141Y0075111D01*
X0047115Y0075216D01*
X0047094Y0075323D01*
X0047076Y0075430D01*
X0047062Y0075537D01*
X0047052Y0075645D01*
X0047046Y0075754D01*
X0047044Y0075862D01*
X0071650Y0056177D02*
X0071658Y0055511D01*
X0071682Y0054846D01*
X0071722Y0054181D01*
X0071779Y0053517D01*
X0071851Y0052855D01*
X0071939Y0052195D01*
X0072043Y0051537D01*
X0072163Y0050882D01*
X0072299Y0050230D01*
X0072451Y0049582D01*
X0072618Y0048937D01*
X0072801Y0048297D01*
X0072999Y0047661D01*
X0073212Y0047030D01*
X0073441Y0046404D01*
X0073685Y0045785D01*
X0073943Y0045171D01*
X0074216Y0044564D01*
X0074504Y0043963D01*
X0074807Y0043370D01*
X0075123Y0042784D01*
X0075454Y0042206D01*
X0075799Y0041636D01*
X0076157Y0041074D01*
X0076528Y0040522D01*
X0076913Y0039978D01*
X0077311Y0039444D01*
X0077722Y0038920D01*
X0078145Y0038406D01*
X0078581Y0037902D01*
X0079028Y0037409D01*
X0079488Y0036927D01*
X0079959Y0036456D01*
X0080441Y0035996D01*
X0080934Y0035549D01*
X0081438Y0035113D01*
X0081952Y0034690D01*
X0082476Y0034279D01*
X0083010Y0033881D01*
X0083554Y0033496D01*
X0084106Y0033125D01*
X0084668Y0032767D01*
X0085238Y0032422D01*
X0085816Y0032091D01*
X0086402Y0031775D01*
X0086995Y0031472D01*
X0087596Y0031184D01*
X0088203Y0030911D01*
X0088817Y0030653D01*
X0089436Y0030409D01*
X0090062Y0030180D01*
X0090693Y0029967D01*
X0091329Y0029769D01*
X0091969Y0029586D01*
X0092614Y0029419D01*
X0093262Y0029267D01*
X0093914Y0029131D01*
X0094569Y0029011D01*
X0095227Y0028907D01*
X0095887Y0028819D01*
X0096549Y0028747D01*
X0097213Y0028690D01*
X0097878Y0028650D01*
X0098543Y0028626D01*
X0099209Y0028618D01*
X0394485Y0028618D01*
X0394485Y0038461D01*
X0457477Y0038461D01*
X0457477Y0028618D01*
X0516532Y0028618D01*
X0478343Y0033933D02*
X0478345Y0034017D01*
X0478351Y0034100D01*
X0478361Y0034183D01*
X0478375Y0034266D01*
X0478392Y0034348D01*
X0478414Y0034429D01*
X0478439Y0034508D01*
X0478468Y0034587D01*
X0478501Y0034664D01*
X0478537Y0034739D01*
X0478577Y0034813D01*
X0478620Y0034885D01*
X0478667Y0034954D01*
X0478717Y0035021D01*
X0478770Y0035086D01*
X0478826Y0035148D01*
X0478884Y0035208D01*
X0478946Y0035265D01*
X0479010Y0035318D01*
X0479077Y0035369D01*
X0479146Y0035416D01*
X0479217Y0035461D01*
X0479290Y0035501D01*
X0479365Y0035538D01*
X0479442Y0035572D01*
X0479520Y0035602D01*
X0479599Y0035628D01*
X0479680Y0035651D01*
X0479762Y0035669D01*
X0479844Y0035684D01*
X0479927Y0035695D01*
X0480010Y0035702D01*
X0480094Y0035705D01*
X0480178Y0035704D01*
X0480261Y0035699D01*
X0480345Y0035690D01*
X0480427Y0035677D01*
X0480509Y0035661D01*
X0480590Y0035640D01*
X0480671Y0035616D01*
X0480749Y0035588D01*
X0480827Y0035556D01*
X0480903Y0035520D01*
X0480977Y0035481D01*
X0481049Y0035439D01*
X0481119Y0035393D01*
X0481187Y0035344D01*
X0481252Y0035292D01*
X0481315Y0035237D01*
X0481375Y0035179D01*
X0481433Y0035118D01*
X0481487Y0035054D01*
X0481539Y0034988D01*
X0481587Y0034920D01*
X0481632Y0034849D01*
X0481673Y0034776D01*
X0481712Y0034702D01*
X0481746Y0034626D01*
X0481777Y0034548D01*
X0481804Y0034469D01*
X0481828Y0034388D01*
X0481847Y0034307D01*
X0481863Y0034225D01*
X0481875Y0034142D01*
X0481883Y0034058D01*
X0481887Y0033975D01*
X0481887Y0033891D01*
X0481883Y0033808D01*
X0481875Y0033724D01*
X0481863Y0033641D01*
X0481847Y0033559D01*
X0481828Y0033478D01*
X0481804Y0033397D01*
X0481777Y0033318D01*
X0481746Y0033240D01*
X0481712Y0033164D01*
X0481673Y0033090D01*
X0481632Y0033017D01*
X0481587Y0032946D01*
X0481539Y0032878D01*
X0481487Y0032812D01*
X0481433Y0032748D01*
X0481375Y0032687D01*
X0481315Y0032629D01*
X0481252Y0032574D01*
X0481187Y0032522D01*
X0481119Y0032473D01*
X0481049Y0032427D01*
X0480977Y0032385D01*
X0480903Y0032346D01*
X0480827Y0032310D01*
X0480749Y0032278D01*
X0480671Y0032250D01*
X0480590Y0032226D01*
X0480509Y0032205D01*
X0480427Y0032189D01*
X0480345Y0032176D01*
X0480261Y0032167D01*
X0480178Y0032162D01*
X0480094Y0032161D01*
X0480010Y0032164D01*
X0479927Y0032171D01*
X0479844Y0032182D01*
X0479762Y0032197D01*
X0479680Y0032215D01*
X0479599Y0032238D01*
X0479520Y0032264D01*
X0479442Y0032294D01*
X0479365Y0032328D01*
X0479290Y0032365D01*
X0479217Y0032405D01*
X0479146Y0032450D01*
X0479077Y0032497D01*
X0479010Y0032548D01*
X0478946Y0032601D01*
X0478884Y0032658D01*
X0478826Y0032718D01*
X0478770Y0032780D01*
X0478717Y0032845D01*
X0478667Y0032912D01*
X0478620Y0032981D01*
X0478577Y0033053D01*
X0478537Y0033127D01*
X0478501Y0033202D01*
X0478468Y0033279D01*
X0478439Y0033358D01*
X0478414Y0033437D01*
X0478392Y0033518D01*
X0478375Y0033600D01*
X0478361Y0033683D01*
X0478351Y0033766D01*
X0478345Y0033849D01*
X0478343Y0033933D01*
X0468500Y0033933D02*
X0468502Y0034017D01*
X0468508Y0034100D01*
X0468518Y0034183D01*
X0468532Y0034266D01*
X0468549Y0034348D01*
X0468571Y0034429D01*
X0468596Y0034508D01*
X0468625Y0034587D01*
X0468658Y0034664D01*
X0468694Y0034739D01*
X0468734Y0034813D01*
X0468777Y0034885D01*
X0468824Y0034954D01*
X0468874Y0035021D01*
X0468927Y0035086D01*
X0468983Y0035148D01*
X0469041Y0035208D01*
X0469103Y0035265D01*
X0469167Y0035318D01*
X0469234Y0035369D01*
X0469303Y0035416D01*
X0469374Y0035461D01*
X0469447Y0035501D01*
X0469522Y0035538D01*
X0469599Y0035572D01*
X0469677Y0035602D01*
X0469756Y0035628D01*
X0469837Y0035651D01*
X0469919Y0035669D01*
X0470001Y0035684D01*
X0470084Y0035695D01*
X0470167Y0035702D01*
X0470251Y0035705D01*
X0470335Y0035704D01*
X0470418Y0035699D01*
X0470502Y0035690D01*
X0470584Y0035677D01*
X0470666Y0035661D01*
X0470747Y0035640D01*
X0470828Y0035616D01*
X0470906Y0035588D01*
X0470984Y0035556D01*
X0471060Y0035520D01*
X0471134Y0035481D01*
X0471206Y0035439D01*
X0471276Y0035393D01*
X0471344Y0035344D01*
X0471409Y0035292D01*
X0471472Y0035237D01*
X0471532Y0035179D01*
X0471590Y0035118D01*
X0471644Y0035054D01*
X0471696Y0034988D01*
X0471744Y0034920D01*
X0471789Y0034849D01*
X0471830Y0034776D01*
X0471869Y0034702D01*
X0471903Y0034626D01*
X0471934Y0034548D01*
X0471961Y0034469D01*
X0471985Y0034388D01*
X0472004Y0034307D01*
X0472020Y0034225D01*
X0472032Y0034142D01*
X0472040Y0034058D01*
X0472044Y0033975D01*
X0472044Y0033891D01*
X0472040Y0033808D01*
X0472032Y0033724D01*
X0472020Y0033641D01*
X0472004Y0033559D01*
X0471985Y0033478D01*
X0471961Y0033397D01*
X0471934Y0033318D01*
X0471903Y0033240D01*
X0471869Y0033164D01*
X0471830Y0033090D01*
X0471789Y0033017D01*
X0471744Y0032946D01*
X0471696Y0032878D01*
X0471644Y0032812D01*
X0471590Y0032748D01*
X0471532Y0032687D01*
X0471472Y0032629D01*
X0471409Y0032574D01*
X0471344Y0032522D01*
X0471276Y0032473D01*
X0471206Y0032427D01*
X0471134Y0032385D01*
X0471060Y0032346D01*
X0470984Y0032310D01*
X0470906Y0032278D01*
X0470828Y0032250D01*
X0470747Y0032226D01*
X0470666Y0032205D01*
X0470584Y0032189D01*
X0470502Y0032176D01*
X0470418Y0032167D01*
X0470335Y0032162D01*
X0470251Y0032161D01*
X0470167Y0032164D01*
X0470084Y0032171D01*
X0470001Y0032182D01*
X0469919Y0032197D01*
X0469837Y0032215D01*
X0469756Y0032238D01*
X0469677Y0032264D01*
X0469599Y0032294D01*
X0469522Y0032328D01*
X0469447Y0032365D01*
X0469374Y0032405D01*
X0469303Y0032450D01*
X0469234Y0032497D01*
X0469167Y0032548D01*
X0469103Y0032601D01*
X0469041Y0032658D01*
X0468983Y0032718D01*
X0468927Y0032780D01*
X0468874Y0032845D01*
X0468824Y0032912D01*
X0468777Y0032981D01*
X0468734Y0033053D01*
X0468694Y0033127D01*
X0468658Y0033202D01*
X0468625Y0033279D01*
X0468596Y0033358D01*
X0468571Y0033437D01*
X0468549Y0033518D01*
X0468532Y0033600D01*
X0468518Y0033683D01*
X0468508Y0033766D01*
X0468502Y0033849D01*
X0468500Y0033933D01*
X0516532Y0028618D02*
X0517198Y0028626D01*
X0517863Y0028650D01*
X0518528Y0028690D01*
X0519192Y0028747D01*
X0519854Y0028819D01*
X0520514Y0028907D01*
X0521172Y0029011D01*
X0521827Y0029131D01*
X0522479Y0029267D01*
X0523127Y0029419D01*
X0523772Y0029586D01*
X0524412Y0029769D01*
X0525048Y0029967D01*
X0525679Y0030180D01*
X0526305Y0030409D01*
X0526924Y0030653D01*
X0527538Y0030911D01*
X0528145Y0031184D01*
X0528746Y0031472D01*
X0529339Y0031775D01*
X0529925Y0032091D01*
X0530503Y0032422D01*
X0531073Y0032767D01*
X0531635Y0033125D01*
X0532187Y0033496D01*
X0532731Y0033881D01*
X0533265Y0034279D01*
X0533789Y0034690D01*
X0534303Y0035113D01*
X0534807Y0035549D01*
X0535300Y0035996D01*
X0535782Y0036456D01*
X0536253Y0036927D01*
X0536713Y0037409D01*
X0537160Y0037902D01*
X0537596Y0038406D01*
X0538019Y0038920D01*
X0538430Y0039444D01*
X0538828Y0039978D01*
X0539213Y0040522D01*
X0539584Y0041074D01*
X0539942Y0041636D01*
X0540287Y0042206D01*
X0540618Y0042784D01*
X0540934Y0043370D01*
X0541237Y0043963D01*
X0541525Y0044564D01*
X0541798Y0045171D01*
X0542056Y0045785D01*
X0542300Y0046404D01*
X0542529Y0047030D01*
X0542742Y0047661D01*
X0542940Y0048297D01*
X0543123Y0048937D01*
X0543290Y0049582D01*
X0543442Y0050230D01*
X0543578Y0050882D01*
X0543698Y0051537D01*
X0543802Y0052195D01*
X0543890Y0052855D01*
X0543962Y0053517D01*
X0544019Y0054181D01*
X0544059Y0054846D01*
X0544083Y0055511D01*
X0544091Y0056177D01*
X0544091Y0064051D01*
X0548028Y0064051D01*
X0548028Y0052240D01*
X0568894Y0052240D01*
X0571650Y0054996D01*
X0571650Y0127043D01*
X0575587Y0127043D01*
X0575587Y0115232D01*
X0599209Y0115232D01*
X0599209Y0190035D01*
X0575587Y0190035D01*
X0575587Y0178224D01*
X0571650Y0178224D01*
X0571650Y0250272D01*
X0568894Y0253028D01*
X0548028Y0253028D01*
X0548028Y0241217D01*
X0544091Y0241217D01*
X0544091Y0249091D01*
X0544879Y0239248D02*
X0544881Y0239317D01*
X0544887Y0239385D01*
X0544897Y0239453D01*
X0544911Y0239520D01*
X0544929Y0239587D01*
X0544950Y0239652D01*
X0544976Y0239716D01*
X0545005Y0239778D01*
X0545037Y0239838D01*
X0545073Y0239897D01*
X0545113Y0239953D01*
X0545155Y0240007D01*
X0545201Y0240058D01*
X0545250Y0240107D01*
X0545301Y0240153D01*
X0545355Y0240195D01*
X0545411Y0240235D01*
X0545469Y0240271D01*
X0545530Y0240303D01*
X0545592Y0240332D01*
X0545656Y0240358D01*
X0545721Y0240379D01*
X0545788Y0240397D01*
X0545855Y0240411D01*
X0545923Y0240421D01*
X0545991Y0240427D01*
X0546060Y0240429D01*
X0546129Y0240427D01*
X0546197Y0240421D01*
X0546265Y0240411D01*
X0546332Y0240397D01*
X0546399Y0240379D01*
X0546464Y0240358D01*
X0546528Y0240332D01*
X0546590Y0240303D01*
X0546650Y0240271D01*
X0546709Y0240235D01*
X0546765Y0240195D01*
X0546819Y0240153D01*
X0546870Y0240107D01*
X0546919Y0240058D01*
X0546965Y0240007D01*
X0547007Y0239953D01*
X0547047Y0239897D01*
X0547083Y0239838D01*
X0547115Y0239778D01*
X0547144Y0239716D01*
X0547170Y0239652D01*
X0547191Y0239587D01*
X0547209Y0239520D01*
X0547223Y0239453D01*
X0547233Y0239385D01*
X0547239Y0239317D01*
X0547241Y0239248D01*
X0547239Y0239179D01*
X0547233Y0239111D01*
X0547223Y0239043D01*
X0547209Y0238976D01*
X0547191Y0238909D01*
X0547170Y0238844D01*
X0547144Y0238780D01*
X0547115Y0238718D01*
X0547083Y0238657D01*
X0547047Y0238599D01*
X0547007Y0238543D01*
X0546965Y0238489D01*
X0546919Y0238438D01*
X0546870Y0238389D01*
X0546819Y0238343D01*
X0546765Y0238301D01*
X0546709Y0238261D01*
X0546651Y0238225D01*
X0546590Y0238193D01*
X0546528Y0238164D01*
X0546464Y0238138D01*
X0546399Y0238117D01*
X0546332Y0238099D01*
X0546265Y0238085D01*
X0546197Y0238075D01*
X0546129Y0238069D01*
X0546060Y0238067D01*
X0545991Y0238069D01*
X0545923Y0238075D01*
X0545855Y0238085D01*
X0545788Y0238099D01*
X0545721Y0238117D01*
X0545656Y0238138D01*
X0545592Y0238164D01*
X0545530Y0238193D01*
X0545469Y0238225D01*
X0545411Y0238261D01*
X0545355Y0238301D01*
X0545301Y0238343D01*
X0545250Y0238389D01*
X0545201Y0238438D01*
X0545155Y0238489D01*
X0545113Y0238543D01*
X0545073Y0238599D01*
X0545037Y0238657D01*
X0545005Y0238718D01*
X0544976Y0238780D01*
X0544950Y0238844D01*
X0544929Y0238909D01*
X0544911Y0238976D01*
X0544897Y0239043D01*
X0544887Y0239111D01*
X0544881Y0239179D01*
X0544879Y0239248D01*
X0544879Y0235311D02*
X0544881Y0235380D01*
X0544887Y0235448D01*
X0544897Y0235516D01*
X0544911Y0235583D01*
X0544929Y0235650D01*
X0544950Y0235715D01*
X0544976Y0235779D01*
X0545005Y0235841D01*
X0545037Y0235901D01*
X0545073Y0235960D01*
X0545113Y0236016D01*
X0545155Y0236070D01*
X0545201Y0236121D01*
X0545250Y0236170D01*
X0545301Y0236216D01*
X0545355Y0236258D01*
X0545411Y0236298D01*
X0545469Y0236334D01*
X0545530Y0236366D01*
X0545592Y0236395D01*
X0545656Y0236421D01*
X0545721Y0236442D01*
X0545788Y0236460D01*
X0545855Y0236474D01*
X0545923Y0236484D01*
X0545991Y0236490D01*
X0546060Y0236492D01*
X0546129Y0236490D01*
X0546197Y0236484D01*
X0546265Y0236474D01*
X0546332Y0236460D01*
X0546399Y0236442D01*
X0546464Y0236421D01*
X0546528Y0236395D01*
X0546590Y0236366D01*
X0546650Y0236334D01*
X0546709Y0236298D01*
X0546765Y0236258D01*
X0546819Y0236216D01*
X0546870Y0236170D01*
X0546919Y0236121D01*
X0546965Y0236070D01*
X0547007Y0236016D01*
X0547047Y0235960D01*
X0547083Y0235901D01*
X0547115Y0235841D01*
X0547144Y0235779D01*
X0547170Y0235715D01*
X0547191Y0235650D01*
X0547209Y0235583D01*
X0547223Y0235516D01*
X0547233Y0235448D01*
X0547239Y0235380D01*
X0547241Y0235311D01*
X0547239Y0235242D01*
X0547233Y0235174D01*
X0547223Y0235106D01*
X0547209Y0235039D01*
X0547191Y0234972D01*
X0547170Y0234907D01*
X0547144Y0234843D01*
X0547115Y0234781D01*
X0547083Y0234720D01*
X0547047Y0234662D01*
X0547007Y0234606D01*
X0546965Y0234552D01*
X0546919Y0234501D01*
X0546870Y0234452D01*
X0546819Y0234406D01*
X0546765Y0234364D01*
X0546709Y0234324D01*
X0546651Y0234288D01*
X0546590Y0234256D01*
X0546528Y0234227D01*
X0546464Y0234201D01*
X0546399Y0234180D01*
X0546332Y0234162D01*
X0546265Y0234148D01*
X0546197Y0234138D01*
X0546129Y0234132D01*
X0546060Y0234130D01*
X0545991Y0234132D01*
X0545923Y0234138D01*
X0545855Y0234148D01*
X0545788Y0234162D01*
X0545721Y0234180D01*
X0545656Y0234201D01*
X0545592Y0234227D01*
X0545530Y0234256D01*
X0545469Y0234288D01*
X0545411Y0234324D01*
X0545355Y0234364D01*
X0545301Y0234406D01*
X0545250Y0234452D01*
X0545201Y0234501D01*
X0545155Y0234552D01*
X0545113Y0234606D01*
X0545073Y0234662D01*
X0545037Y0234720D01*
X0545005Y0234781D01*
X0544976Y0234843D01*
X0544950Y0234907D01*
X0544929Y0234972D01*
X0544911Y0235039D01*
X0544897Y0235106D01*
X0544887Y0235174D01*
X0544881Y0235242D01*
X0544879Y0235311D01*
X0544091Y0233343D02*
X0548028Y0233343D01*
X0548028Y0229406D01*
X0559839Y0229406D01*
X0559839Y0186098D01*
X0548028Y0186098D01*
X0548028Y0071925D01*
X0544091Y0071925D01*
X0544091Y0123106D01*
X0520469Y0123106D01*
X0520469Y0182161D01*
X0544091Y0182161D01*
X0544091Y0233343D01*
X0532280Y0229406D02*
X0532280Y0186098D01*
X0522438Y0186098D01*
X0522438Y0229406D01*
X0532280Y0229406D01*
X0544091Y0249091D02*
X0544083Y0249757D01*
X0544059Y0250422D01*
X0544019Y0251087D01*
X0543962Y0251751D01*
X0543890Y0252413D01*
X0543802Y0253073D01*
X0543698Y0253731D01*
X0543578Y0254386D01*
X0543442Y0255038D01*
X0543290Y0255686D01*
X0543123Y0256331D01*
X0542940Y0256971D01*
X0542742Y0257607D01*
X0542529Y0258238D01*
X0542300Y0258864D01*
X0542056Y0259483D01*
X0541798Y0260097D01*
X0541525Y0260704D01*
X0541237Y0261305D01*
X0540934Y0261898D01*
X0540618Y0262484D01*
X0540287Y0263062D01*
X0539942Y0263632D01*
X0539584Y0264194D01*
X0539213Y0264746D01*
X0538828Y0265290D01*
X0538430Y0265824D01*
X0538019Y0266348D01*
X0537596Y0266862D01*
X0537160Y0267366D01*
X0536713Y0267859D01*
X0536253Y0268341D01*
X0535782Y0268812D01*
X0535300Y0269272D01*
X0534807Y0269719D01*
X0534303Y0270155D01*
X0533789Y0270578D01*
X0533265Y0270989D01*
X0532731Y0271387D01*
X0532187Y0271772D01*
X0531635Y0272143D01*
X0531073Y0272501D01*
X0530503Y0272846D01*
X0529925Y0273177D01*
X0529339Y0273493D01*
X0528746Y0273796D01*
X0528145Y0274084D01*
X0527538Y0274357D01*
X0526924Y0274615D01*
X0526305Y0274859D01*
X0525679Y0275088D01*
X0525048Y0275301D01*
X0524412Y0275499D01*
X0523772Y0275682D01*
X0523127Y0275849D01*
X0522479Y0276001D01*
X0521827Y0276137D01*
X0521172Y0276257D01*
X0520514Y0276361D01*
X0519854Y0276449D01*
X0519192Y0276521D01*
X0518528Y0276578D01*
X0517863Y0276618D01*
X0517198Y0276642D01*
X0516532Y0276650D01*
X0213383Y0276650D01*
X0213383Y0260902D01*
X0162201Y0260902D01*
X0162201Y0264839D01*
X0209446Y0264839D01*
X0209446Y0276650D01*
X0099209Y0276650D01*
X0119681Y0270941D02*
X0119683Y0271025D01*
X0119689Y0271108D01*
X0119699Y0271191D01*
X0119713Y0271274D01*
X0119730Y0271356D01*
X0119752Y0271437D01*
X0119777Y0271516D01*
X0119806Y0271595D01*
X0119839Y0271672D01*
X0119875Y0271747D01*
X0119915Y0271821D01*
X0119958Y0271893D01*
X0120005Y0271962D01*
X0120055Y0272029D01*
X0120108Y0272094D01*
X0120164Y0272156D01*
X0120222Y0272216D01*
X0120284Y0272273D01*
X0120348Y0272326D01*
X0120415Y0272377D01*
X0120484Y0272424D01*
X0120555Y0272469D01*
X0120628Y0272509D01*
X0120703Y0272546D01*
X0120780Y0272580D01*
X0120858Y0272610D01*
X0120937Y0272636D01*
X0121018Y0272659D01*
X0121100Y0272677D01*
X0121182Y0272692D01*
X0121265Y0272703D01*
X0121348Y0272710D01*
X0121432Y0272713D01*
X0121516Y0272712D01*
X0121599Y0272707D01*
X0121683Y0272698D01*
X0121765Y0272685D01*
X0121847Y0272669D01*
X0121928Y0272648D01*
X0122009Y0272624D01*
X0122087Y0272596D01*
X0122165Y0272564D01*
X0122241Y0272528D01*
X0122315Y0272489D01*
X0122387Y0272447D01*
X0122457Y0272401D01*
X0122525Y0272352D01*
X0122590Y0272300D01*
X0122653Y0272245D01*
X0122713Y0272187D01*
X0122771Y0272126D01*
X0122825Y0272062D01*
X0122877Y0271996D01*
X0122925Y0271928D01*
X0122970Y0271857D01*
X0123011Y0271784D01*
X0123050Y0271710D01*
X0123084Y0271634D01*
X0123115Y0271556D01*
X0123142Y0271477D01*
X0123166Y0271396D01*
X0123185Y0271315D01*
X0123201Y0271233D01*
X0123213Y0271150D01*
X0123221Y0271066D01*
X0123225Y0270983D01*
X0123225Y0270899D01*
X0123221Y0270816D01*
X0123213Y0270732D01*
X0123201Y0270649D01*
X0123185Y0270567D01*
X0123166Y0270486D01*
X0123142Y0270405D01*
X0123115Y0270326D01*
X0123084Y0270248D01*
X0123050Y0270172D01*
X0123011Y0270098D01*
X0122970Y0270025D01*
X0122925Y0269954D01*
X0122877Y0269886D01*
X0122825Y0269820D01*
X0122771Y0269756D01*
X0122713Y0269695D01*
X0122653Y0269637D01*
X0122590Y0269582D01*
X0122525Y0269530D01*
X0122457Y0269481D01*
X0122387Y0269435D01*
X0122315Y0269393D01*
X0122241Y0269354D01*
X0122165Y0269318D01*
X0122087Y0269286D01*
X0122009Y0269258D01*
X0121928Y0269234D01*
X0121847Y0269213D01*
X0121765Y0269197D01*
X0121683Y0269184D01*
X0121599Y0269175D01*
X0121516Y0269170D01*
X0121432Y0269169D01*
X0121348Y0269172D01*
X0121265Y0269179D01*
X0121182Y0269190D01*
X0121100Y0269205D01*
X0121018Y0269223D01*
X0120937Y0269246D01*
X0120858Y0269272D01*
X0120780Y0269302D01*
X0120703Y0269336D01*
X0120628Y0269373D01*
X0120555Y0269413D01*
X0120484Y0269458D01*
X0120415Y0269505D01*
X0120348Y0269556D01*
X0120284Y0269609D01*
X0120222Y0269666D01*
X0120164Y0269726D01*
X0120108Y0269788D01*
X0120055Y0269853D01*
X0120005Y0269920D01*
X0119958Y0269989D01*
X0119915Y0270061D01*
X0119875Y0270135D01*
X0119839Y0270210D01*
X0119806Y0270287D01*
X0119777Y0270366D01*
X0119752Y0270445D01*
X0119730Y0270526D01*
X0119713Y0270608D01*
X0119699Y0270691D01*
X0119689Y0270774D01*
X0119683Y0270857D01*
X0119681Y0270941D01*
X0129524Y0270941D02*
X0129526Y0271025D01*
X0129532Y0271108D01*
X0129542Y0271191D01*
X0129556Y0271274D01*
X0129573Y0271356D01*
X0129595Y0271437D01*
X0129620Y0271516D01*
X0129649Y0271595D01*
X0129682Y0271672D01*
X0129718Y0271747D01*
X0129758Y0271821D01*
X0129801Y0271893D01*
X0129848Y0271962D01*
X0129898Y0272029D01*
X0129951Y0272094D01*
X0130007Y0272156D01*
X0130065Y0272216D01*
X0130127Y0272273D01*
X0130191Y0272326D01*
X0130258Y0272377D01*
X0130327Y0272424D01*
X0130398Y0272469D01*
X0130471Y0272509D01*
X0130546Y0272546D01*
X0130623Y0272580D01*
X0130701Y0272610D01*
X0130780Y0272636D01*
X0130861Y0272659D01*
X0130943Y0272677D01*
X0131025Y0272692D01*
X0131108Y0272703D01*
X0131191Y0272710D01*
X0131275Y0272713D01*
X0131359Y0272712D01*
X0131442Y0272707D01*
X0131526Y0272698D01*
X0131608Y0272685D01*
X0131690Y0272669D01*
X0131771Y0272648D01*
X0131852Y0272624D01*
X0131930Y0272596D01*
X0132008Y0272564D01*
X0132084Y0272528D01*
X0132158Y0272489D01*
X0132230Y0272447D01*
X0132300Y0272401D01*
X0132368Y0272352D01*
X0132433Y0272300D01*
X0132496Y0272245D01*
X0132556Y0272187D01*
X0132614Y0272126D01*
X0132668Y0272062D01*
X0132720Y0271996D01*
X0132768Y0271928D01*
X0132813Y0271857D01*
X0132854Y0271784D01*
X0132893Y0271710D01*
X0132927Y0271634D01*
X0132958Y0271556D01*
X0132985Y0271477D01*
X0133009Y0271396D01*
X0133028Y0271315D01*
X0133044Y0271233D01*
X0133056Y0271150D01*
X0133064Y0271066D01*
X0133068Y0270983D01*
X0133068Y0270899D01*
X0133064Y0270816D01*
X0133056Y0270732D01*
X0133044Y0270649D01*
X0133028Y0270567D01*
X0133009Y0270486D01*
X0132985Y0270405D01*
X0132958Y0270326D01*
X0132927Y0270248D01*
X0132893Y0270172D01*
X0132854Y0270098D01*
X0132813Y0270025D01*
X0132768Y0269954D01*
X0132720Y0269886D01*
X0132668Y0269820D01*
X0132614Y0269756D01*
X0132556Y0269695D01*
X0132496Y0269637D01*
X0132433Y0269582D01*
X0132368Y0269530D01*
X0132300Y0269481D01*
X0132230Y0269435D01*
X0132158Y0269393D01*
X0132084Y0269354D01*
X0132008Y0269318D01*
X0131930Y0269286D01*
X0131852Y0269258D01*
X0131771Y0269234D01*
X0131690Y0269213D01*
X0131608Y0269197D01*
X0131526Y0269184D01*
X0131442Y0269175D01*
X0131359Y0269170D01*
X0131275Y0269169D01*
X0131191Y0269172D01*
X0131108Y0269179D01*
X0131025Y0269190D01*
X0130943Y0269205D01*
X0130861Y0269223D01*
X0130780Y0269246D01*
X0130701Y0269272D01*
X0130623Y0269302D01*
X0130546Y0269336D01*
X0130471Y0269373D01*
X0130398Y0269413D01*
X0130327Y0269458D01*
X0130258Y0269505D01*
X0130191Y0269556D01*
X0130127Y0269609D01*
X0130065Y0269666D01*
X0130007Y0269726D01*
X0129951Y0269788D01*
X0129898Y0269853D01*
X0129848Y0269920D01*
X0129801Y0269989D01*
X0129758Y0270061D01*
X0129718Y0270135D01*
X0129682Y0270210D01*
X0129649Y0270287D01*
X0129620Y0270366D01*
X0129595Y0270445D01*
X0129573Y0270526D01*
X0129556Y0270608D01*
X0129542Y0270691D01*
X0129532Y0270774D01*
X0129526Y0270857D01*
X0129524Y0270941D01*
X0099209Y0276650D02*
X0098543Y0276642D01*
X0097878Y0276618D01*
X0097213Y0276578D01*
X0096549Y0276521D01*
X0095887Y0276449D01*
X0095227Y0276361D01*
X0094569Y0276257D01*
X0093914Y0276137D01*
X0093262Y0276001D01*
X0092614Y0275849D01*
X0091969Y0275682D01*
X0091329Y0275499D01*
X0090693Y0275301D01*
X0090062Y0275088D01*
X0089436Y0274859D01*
X0088817Y0274615D01*
X0088203Y0274357D01*
X0087596Y0274084D01*
X0086995Y0273796D01*
X0086402Y0273493D01*
X0085816Y0273177D01*
X0085238Y0272846D01*
X0084668Y0272501D01*
X0084106Y0272143D01*
X0083554Y0271772D01*
X0083010Y0271387D01*
X0082476Y0270989D01*
X0081952Y0270578D01*
X0081438Y0270155D01*
X0080934Y0269719D01*
X0080441Y0269272D01*
X0079959Y0268812D01*
X0079488Y0268341D01*
X0079028Y0267859D01*
X0078581Y0267366D01*
X0078145Y0266862D01*
X0077722Y0266348D01*
X0077311Y0265824D01*
X0076913Y0265290D01*
X0076528Y0264746D01*
X0076157Y0264194D01*
X0075799Y0263632D01*
X0075454Y0263062D01*
X0075123Y0262484D01*
X0074807Y0261898D01*
X0074504Y0261305D01*
X0074216Y0260704D01*
X0073943Y0260097D01*
X0073685Y0259483D01*
X0073441Y0258864D01*
X0073212Y0258238D01*
X0072999Y0257607D01*
X0072801Y0256971D01*
X0072618Y0256331D01*
X0072451Y0255686D01*
X0072299Y0255038D01*
X0072163Y0254386D01*
X0072043Y0253731D01*
X0071939Y0253073D01*
X0071851Y0252413D01*
X0071779Y0251751D01*
X0071722Y0251087D01*
X0071682Y0250422D01*
X0071658Y0249757D01*
X0071650Y0249091D01*
X0303934Y0249091D02*
X0309839Y0249091D01*
X0309839Y0253028D01*
X0307871Y0253028D01*
X0307871Y0268776D01*
X0303934Y0268776D01*
X0303934Y0249091D01*
X0317713Y0249091D02*
X0362989Y0249091D01*
X0362989Y0253028D01*
X0317713Y0253028D01*
X0317713Y0249091D01*
X0370863Y0249091D02*
X0370863Y0253028D01*
X0418107Y0253028D01*
X0418107Y0249091D01*
X0370863Y0249091D01*
X0394485Y0237280D02*
X0425981Y0237280D01*
X0425981Y0253028D01*
X0473225Y0253028D01*
X0473225Y0268776D01*
X0477162Y0268776D01*
X0477162Y0256965D01*
X0480115Y0256965D01*
X0480115Y0253028D01*
X0477162Y0253028D01*
X0477162Y0249091D01*
X0429918Y0249091D01*
X0429918Y0233343D01*
X0394485Y0233343D01*
X0394485Y0237280D01*
X0486020Y0253028D02*
X0516532Y0253028D01*
X0516532Y0256965D01*
X0486020Y0256965D01*
X0486020Y0253028D01*
X0572438Y0176256D02*
X0572440Y0176325D01*
X0572446Y0176393D01*
X0572456Y0176461D01*
X0572470Y0176528D01*
X0572488Y0176595D01*
X0572509Y0176660D01*
X0572535Y0176724D01*
X0572564Y0176786D01*
X0572596Y0176846D01*
X0572632Y0176905D01*
X0572672Y0176961D01*
X0572714Y0177015D01*
X0572760Y0177066D01*
X0572809Y0177115D01*
X0572860Y0177161D01*
X0572914Y0177203D01*
X0572970Y0177243D01*
X0573028Y0177279D01*
X0573089Y0177311D01*
X0573151Y0177340D01*
X0573215Y0177366D01*
X0573280Y0177387D01*
X0573347Y0177405D01*
X0573414Y0177419D01*
X0573482Y0177429D01*
X0573550Y0177435D01*
X0573619Y0177437D01*
X0573688Y0177435D01*
X0573756Y0177429D01*
X0573824Y0177419D01*
X0573891Y0177405D01*
X0573958Y0177387D01*
X0574023Y0177366D01*
X0574087Y0177340D01*
X0574149Y0177311D01*
X0574209Y0177279D01*
X0574268Y0177243D01*
X0574324Y0177203D01*
X0574378Y0177161D01*
X0574429Y0177115D01*
X0574478Y0177066D01*
X0574524Y0177015D01*
X0574566Y0176961D01*
X0574606Y0176905D01*
X0574642Y0176846D01*
X0574674Y0176786D01*
X0574703Y0176724D01*
X0574729Y0176660D01*
X0574750Y0176595D01*
X0574768Y0176528D01*
X0574782Y0176461D01*
X0574792Y0176393D01*
X0574798Y0176325D01*
X0574800Y0176256D01*
X0574798Y0176187D01*
X0574792Y0176119D01*
X0574782Y0176051D01*
X0574768Y0175984D01*
X0574750Y0175917D01*
X0574729Y0175852D01*
X0574703Y0175788D01*
X0574674Y0175726D01*
X0574642Y0175665D01*
X0574606Y0175607D01*
X0574566Y0175551D01*
X0574524Y0175497D01*
X0574478Y0175446D01*
X0574429Y0175397D01*
X0574378Y0175351D01*
X0574324Y0175309D01*
X0574268Y0175269D01*
X0574210Y0175233D01*
X0574149Y0175201D01*
X0574087Y0175172D01*
X0574023Y0175146D01*
X0573958Y0175125D01*
X0573891Y0175107D01*
X0573824Y0175093D01*
X0573756Y0175083D01*
X0573688Y0175077D01*
X0573619Y0175075D01*
X0573550Y0175077D01*
X0573482Y0175083D01*
X0573414Y0175093D01*
X0573347Y0175107D01*
X0573280Y0175125D01*
X0573215Y0175146D01*
X0573151Y0175172D01*
X0573089Y0175201D01*
X0573028Y0175233D01*
X0572970Y0175269D01*
X0572914Y0175309D01*
X0572860Y0175351D01*
X0572809Y0175397D01*
X0572760Y0175446D01*
X0572714Y0175497D01*
X0572672Y0175551D01*
X0572632Y0175607D01*
X0572596Y0175665D01*
X0572564Y0175726D01*
X0572535Y0175788D01*
X0572509Y0175852D01*
X0572488Y0175917D01*
X0572470Y0175984D01*
X0572456Y0176051D01*
X0572446Y0176119D01*
X0572440Y0176187D01*
X0572438Y0176256D01*
X0572438Y0172319D02*
X0572440Y0172388D01*
X0572446Y0172456D01*
X0572456Y0172524D01*
X0572470Y0172591D01*
X0572488Y0172658D01*
X0572509Y0172723D01*
X0572535Y0172787D01*
X0572564Y0172849D01*
X0572596Y0172909D01*
X0572632Y0172968D01*
X0572672Y0173024D01*
X0572714Y0173078D01*
X0572760Y0173129D01*
X0572809Y0173178D01*
X0572860Y0173224D01*
X0572914Y0173266D01*
X0572970Y0173306D01*
X0573028Y0173342D01*
X0573089Y0173374D01*
X0573151Y0173403D01*
X0573215Y0173429D01*
X0573280Y0173450D01*
X0573347Y0173468D01*
X0573414Y0173482D01*
X0573482Y0173492D01*
X0573550Y0173498D01*
X0573619Y0173500D01*
X0573688Y0173498D01*
X0573756Y0173492D01*
X0573824Y0173482D01*
X0573891Y0173468D01*
X0573958Y0173450D01*
X0574023Y0173429D01*
X0574087Y0173403D01*
X0574149Y0173374D01*
X0574209Y0173342D01*
X0574268Y0173306D01*
X0574324Y0173266D01*
X0574378Y0173224D01*
X0574429Y0173178D01*
X0574478Y0173129D01*
X0574524Y0173078D01*
X0574566Y0173024D01*
X0574606Y0172968D01*
X0574642Y0172909D01*
X0574674Y0172849D01*
X0574703Y0172787D01*
X0574729Y0172723D01*
X0574750Y0172658D01*
X0574768Y0172591D01*
X0574782Y0172524D01*
X0574792Y0172456D01*
X0574798Y0172388D01*
X0574800Y0172319D01*
X0574798Y0172250D01*
X0574792Y0172182D01*
X0574782Y0172114D01*
X0574768Y0172047D01*
X0574750Y0171980D01*
X0574729Y0171915D01*
X0574703Y0171851D01*
X0574674Y0171789D01*
X0574642Y0171728D01*
X0574606Y0171670D01*
X0574566Y0171614D01*
X0574524Y0171560D01*
X0574478Y0171509D01*
X0574429Y0171460D01*
X0574378Y0171414D01*
X0574324Y0171372D01*
X0574268Y0171332D01*
X0574210Y0171296D01*
X0574149Y0171264D01*
X0574087Y0171235D01*
X0574023Y0171209D01*
X0573958Y0171188D01*
X0573891Y0171170D01*
X0573824Y0171156D01*
X0573756Y0171146D01*
X0573688Y0171140D01*
X0573619Y0171138D01*
X0573550Y0171140D01*
X0573482Y0171146D01*
X0573414Y0171156D01*
X0573347Y0171170D01*
X0573280Y0171188D01*
X0573215Y0171209D01*
X0573151Y0171235D01*
X0573089Y0171264D01*
X0573028Y0171296D01*
X0572970Y0171332D01*
X0572914Y0171372D01*
X0572860Y0171414D01*
X0572809Y0171460D01*
X0572760Y0171509D01*
X0572714Y0171560D01*
X0572672Y0171614D01*
X0572632Y0171670D01*
X0572596Y0171728D01*
X0572564Y0171789D01*
X0572535Y0171851D01*
X0572509Y0171915D01*
X0572488Y0171980D01*
X0572470Y0172047D01*
X0572456Y0172114D01*
X0572446Y0172182D01*
X0572440Y0172250D01*
X0572438Y0172319D01*
X0571650Y0170350D02*
X0575587Y0170350D01*
X0575587Y0134917D01*
X0571650Y0134917D01*
X0571650Y0170350D01*
X0557870Y0168382D02*
X0557872Y0168470D01*
X0557878Y0168558D01*
X0557888Y0168646D01*
X0557902Y0168734D01*
X0557919Y0168820D01*
X0557941Y0168906D01*
X0557966Y0168990D01*
X0557996Y0169074D01*
X0558028Y0169156D01*
X0558065Y0169236D01*
X0558105Y0169315D01*
X0558149Y0169392D01*
X0558196Y0169467D01*
X0558246Y0169539D01*
X0558300Y0169610D01*
X0558356Y0169677D01*
X0558416Y0169743D01*
X0558478Y0169805D01*
X0558544Y0169865D01*
X0558611Y0169921D01*
X0558682Y0169975D01*
X0558754Y0170025D01*
X0558829Y0170072D01*
X0558906Y0170116D01*
X0558985Y0170156D01*
X0559065Y0170193D01*
X0559147Y0170225D01*
X0559231Y0170255D01*
X0559315Y0170280D01*
X0559401Y0170302D01*
X0559487Y0170319D01*
X0559575Y0170333D01*
X0559663Y0170343D01*
X0559751Y0170349D01*
X0559839Y0170351D01*
X0559927Y0170349D01*
X0560015Y0170343D01*
X0560103Y0170333D01*
X0560191Y0170319D01*
X0560277Y0170302D01*
X0560363Y0170280D01*
X0560447Y0170255D01*
X0560531Y0170225D01*
X0560613Y0170193D01*
X0560693Y0170156D01*
X0560772Y0170116D01*
X0560849Y0170072D01*
X0560924Y0170025D01*
X0560996Y0169975D01*
X0561067Y0169921D01*
X0561134Y0169865D01*
X0561200Y0169805D01*
X0561262Y0169743D01*
X0561322Y0169677D01*
X0561378Y0169610D01*
X0561432Y0169539D01*
X0561482Y0169467D01*
X0561529Y0169392D01*
X0561573Y0169315D01*
X0561613Y0169236D01*
X0561650Y0169156D01*
X0561682Y0169074D01*
X0561712Y0168990D01*
X0561737Y0168906D01*
X0561759Y0168820D01*
X0561776Y0168734D01*
X0561790Y0168646D01*
X0561800Y0168558D01*
X0561806Y0168470D01*
X0561808Y0168382D01*
X0561806Y0168294D01*
X0561800Y0168206D01*
X0561790Y0168118D01*
X0561776Y0168030D01*
X0561759Y0167944D01*
X0561737Y0167858D01*
X0561712Y0167774D01*
X0561682Y0167690D01*
X0561650Y0167608D01*
X0561613Y0167528D01*
X0561573Y0167449D01*
X0561529Y0167372D01*
X0561482Y0167297D01*
X0561432Y0167225D01*
X0561378Y0167154D01*
X0561322Y0167087D01*
X0561262Y0167021D01*
X0561200Y0166959D01*
X0561134Y0166899D01*
X0561067Y0166843D01*
X0560996Y0166789D01*
X0560924Y0166739D01*
X0560849Y0166692D01*
X0560772Y0166648D01*
X0560693Y0166608D01*
X0560613Y0166571D01*
X0560531Y0166539D01*
X0560447Y0166509D01*
X0560363Y0166484D01*
X0560277Y0166462D01*
X0560191Y0166445D01*
X0560103Y0166431D01*
X0560015Y0166421D01*
X0559927Y0166415D01*
X0559839Y0166413D01*
X0559751Y0166415D01*
X0559663Y0166421D01*
X0559575Y0166431D01*
X0559487Y0166445D01*
X0559401Y0166462D01*
X0559315Y0166484D01*
X0559231Y0166509D01*
X0559147Y0166539D01*
X0559065Y0166571D01*
X0558985Y0166608D01*
X0558906Y0166648D01*
X0558829Y0166692D01*
X0558754Y0166739D01*
X0558682Y0166789D01*
X0558611Y0166843D01*
X0558544Y0166899D01*
X0558478Y0166959D01*
X0558416Y0167021D01*
X0558356Y0167087D01*
X0558300Y0167154D01*
X0558246Y0167225D01*
X0558196Y0167297D01*
X0558149Y0167372D01*
X0558105Y0167449D01*
X0558065Y0167528D01*
X0558028Y0167608D01*
X0557996Y0167690D01*
X0557966Y0167774D01*
X0557941Y0167858D01*
X0557919Y0167944D01*
X0557902Y0168030D01*
X0557888Y0168118D01*
X0557878Y0168206D01*
X0557872Y0168294D01*
X0557870Y0168382D01*
X0557870Y0160508D02*
X0557872Y0160596D01*
X0557878Y0160684D01*
X0557888Y0160772D01*
X0557902Y0160860D01*
X0557919Y0160946D01*
X0557941Y0161032D01*
X0557966Y0161116D01*
X0557996Y0161200D01*
X0558028Y0161282D01*
X0558065Y0161362D01*
X0558105Y0161441D01*
X0558149Y0161518D01*
X0558196Y0161593D01*
X0558246Y0161665D01*
X0558300Y0161736D01*
X0558356Y0161803D01*
X0558416Y0161869D01*
X0558478Y0161931D01*
X0558544Y0161991D01*
X0558611Y0162047D01*
X0558682Y0162101D01*
X0558754Y0162151D01*
X0558829Y0162198D01*
X0558906Y0162242D01*
X0558985Y0162282D01*
X0559065Y0162319D01*
X0559147Y0162351D01*
X0559231Y0162381D01*
X0559315Y0162406D01*
X0559401Y0162428D01*
X0559487Y0162445D01*
X0559575Y0162459D01*
X0559663Y0162469D01*
X0559751Y0162475D01*
X0559839Y0162477D01*
X0559927Y0162475D01*
X0560015Y0162469D01*
X0560103Y0162459D01*
X0560191Y0162445D01*
X0560277Y0162428D01*
X0560363Y0162406D01*
X0560447Y0162381D01*
X0560531Y0162351D01*
X0560613Y0162319D01*
X0560693Y0162282D01*
X0560772Y0162242D01*
X0560849Y0162198D01*
X0560924Y0162151D01*
X0560996Y0162101D01*
X0561067Y0162047D01*
X0561134Y0161991D01*
X0561200Y0161931D01*
X0561262Y0161869D01*
X0561322Y0161803D01*
X0561378Y0161736D01*
X0561432Y0161665D01*
X0561482Y0161593D01*
X0561529Y0161518D01*
X0561573Y0161441D01*
X0561613Y0161362D01*
X0561650Y0161282D01*
X0561682Y0161200D01*
X0561712Y0161116D01*
X0561737Y0161032D01*
X0561759Y0160946D01*
X0561776Y0160860D01*
X0561790Y0160772D01*
X0561800Y0160684D01*
X0561806Y0160596D01*
X0561808Y0160508D01*
X0561806Y0160420D01*
X0561800Y0160332D01*
X0561790Y0160244D01*
X0561776Y0160156D01*
X0561759Y0160070D01*
X0561737Y0159984D01*
X0561712Y0159900D01*
X0561682Y0159816D01*
X0561650Y0159734D01*
X0561613Y0159654D01*
X0561573Y0159575D01*
X0561529Y0159498D01*
X0561482Y0159423D01*
X0561432Y0159351D01*
X0561378Y0159280D01*
X0561322Y0159213D01*
X0561262Y0159147D01*
X0561200Y0159085D01*
X0561134Y0159025D01*
X0561067Y0158969D01*
X0560996Y0158915D01*
X0560924Y0158865D01*
X0560849Y0158818D01*
X0560772Y0158774D01*
X0560693Y0158734D01*
X0560613Y0158697D01*
X0560531Y0158665D01*
X0560447Y0158635D01*
X0560363Y0158610D01*
X0560277Y0158588D01*
X0560191Y0158571D01*
X0560103Y0158557D01*
X0560015Y0158547D01*
X0559927Y0158541D01*
X0559839Y0158539D01*
X0559751Y0158541D01*
X0559663Y0158547D01*
X0559575Y0158557D01*
X0559487Y0158571D01*
X0559401Y0158588D01*
X0559315Y0158610D01*
X0559231Y0158635D01*
X0559147Y0158665D01*
X0559065Y0158697D01*
X0558985Y0158734D01*
X0558906Y0158774D01*
X0558829Y0158818D01*
X0558754Y0158865D01*
X0558682Y0158915D01*
X0558611Y0158969D01*
X0558544Y0159025D01*
X0558478Y0159085D01*
X0558416Y0159147D01*
X0558356Y0159213D01*
X0558300Y0159280D01*
X0558246Y0159351D01*
X0558196Y0159423D01*
X0558149Y0159498D01*
X0558105Y0159575D01*
X0558065Y0159654D01*
X0558028Y0159734D01*
X0557996Y0159816D01*
X0557966Y0159900D01*
X0557941Y0159984D01*
X0557919Y0160070D01*
X0557902Y0160156D01*
X0557888Y0160244D01*
X0557878Y0160332D01*
X0557872Y0160420D01*
X0557870Y0160508D01*
X0556886Y0152634D02*
X0556888Y0152742D01*
X0556894Y0152851D01*
X0556904Y0152959D01*
X0556918Y0153066D01*
X0556936Y0153173D01*
X0556957Y0153280D01*
X0556983Y0153385D01*
X0557013Y0153490D01*
X0557046Y0153593D01*
X0557083Y0153695D01*
X0557124Y0153795D01*
X0557168Y0153894D01*
X0557217Y0153992D01*
X0557268Y0154087D01*
X0557323Y0154180D01*
X0557382Y0154272D01*
X0557444Y0154361D01*
X0557509Y0154448D01*
X0557577Y0154532D01*
X0557648Y0154614D01*
X0557722Y0154693D01*
X0557799Y0154769D01*
X0557879Y0154843D01*
X0557962Y0154913D01*
X0558047Y0154981D01*
X0558134Y0155045D01*
X0558224Y0155106D01*
X0558316Y0155164D01*
X0558410Y0155218D01*
X0558506Y0155269D01*
X0558603Y0155316D01*
X0558703Y0155360D01*
X0558804Y0155400D01*
X0558906Y0155436D01*
X0559009Y0155468D01*
X0559114Y0155497D01*
X0559220Y0155521D01*
X0559326Y0155542D01*
X0559433Y0155559D01*
X0559541Y0155572D01*
X0559649Y0155581D01*
X0559758Y0155586D01*
X0559866Y0155587D01*
X0559975Y0155584D01*
X0560083Y0155577D01*
X0560191Y0155566D01*
X0560298Y0155551D01*
X0560405Y0155532D01*
X0560511Y0155509D01*
X0560616Y0155483D01*
X0560721Y0155452D01*
X0560823Y0155418D01*
X0560925Y0155380D01*
X0561025Y0155338D01*
X0561124Y0155293D01*
X0561221Y0155244D01*
X0561315Y0155191D01*
X0561408Y0155135D01*
X0561499Y0155076D01*
X0561588Y0155013D01*
X0561674Y0154948D01*
X0561758Y0154879D01*
X0561839Y0154807D01*
X0561917Y0154732D01*
X0561993Y0154654D01*
X0562066Y0154573D01*
X0562136Y0154490D01*
X0562202Y0154405D01*
X0562266Y0154317D01*
X0562326Y0154226D01*
X0562383Y0154134D01*
X0562436Y0154039D01*
X0562486Y0153943D01*
X0562532Y0153845D01*
X0562575Y0153745D01*
X0562614Y0153644D01*
X0562649Y0153541D01*
X0562681Y0153438D01*
X0562708Y0153333D01*
X0562732Y0153227D01*
X0562752Y0153120D01*
X0562768Y0153013D01*
X0562780Y0152905D01*
X0562788Y0152797D01*
X0562792Y0152688D01*
X0562792Y0152580D01*
X0562788Y0152471D01*
X0562780Y0152363D01*
X0562768Y0152255D01*
X0562752Y0152148D01*
X0562732Y0152041D01*
X0562708Y0151935D01*
X0562681Y0151830D01*
X0562649Y0151727D01*
X0562614Y0151624D01*
X0562575Y0151523D01*
X0562532Y0151423D01*
X0562486Y0151325D01*
X0562436Y0151229D01*
X0562383Y0151134D01*
X0562326Y0151042D01*
X0562266Y0150951D01*
X0562202Y0150863D01*
X0562136Y0150778D01*
X0562066Y0150695D01*
X0561993Y0150614D01*
X0561917Y0150536D01*
X0561839Y0150461D01*
X0561758Y0150389D01*
X0561674Y0150320D01*
X0561588Y0150255D01*
X0561499Y0150192D01*
X0561408Y0150133D01*
X0561316Y0150077D01*
X0561221Y0150024D01*
X0561124Y0149975D01*
X0561025Y0149930D01*
X0560925Y0149888D01*
X0560823Y0149850D01*
X0560721Y0149816D01*
X0560616Y0149785D01*
X0560511Y0149759D01*
X0560405Y0149736D01*
X0560298Y0149717D01*
X0560191Y0149702D01*
X0560083Y0149691D01*
X0559975Y0149684D01*
X0559866Y0149681D01*
X0559758Y0149682D01*
X0559649Y0149687D01*
X0559541Y0149696D01*
X0559433Y0149709D01*
X0559326Y0149726D01*
X0559220Y0149747D01*
X0559114Y0149771D01*
X0559009Y0149800D01*
X0558906Y0149832D01*
X0558804Y0149868D01*
X0558703Y0149908D01*
X0558603Y0149952D01*
X0558506Y0149999D01*
X0558410Y0150050D01*
X0558316Y0150104D01*
X0558224Y0150162D01*
X0558134Y0150223D01*
X0558047Y0150287D01*
X0557962Y0150355D01*
X0557879Y0150425D01*
X0557799Y0150499D01*
X0557722Y0150575D01*
X0557648Y0150654D01*
X0557577Y0150736D01*
X0557509Y0150820D01*
X0557444Y0150907D01*
X0557382Y0150996D01*
X0557323Y0151088D01*
X0557268Y0151181D01*
X0557217Y0151276D01*
X0557168Y0151374D01*
X0557124Y0151473D01*
X0557083Y0151573D01*
X0557046Y0151675D01*
X0557013Y0151778D01*
X0556983Y0151883D01*
X0556957Y0151988D01*
X0556936Y0152095D01*
X0556918Y0152202D01*
X0556904Y0152309D01*
X0556894Y0152417D01*
X0556888Y0152526D01*
X0556886Y0152634D01*
X0557870Y0144760D02*
X0557872Y0144848D01*
X0557878Y0144936D01*
X0557888Y0145024D01*
X0557902Y0145112D01*
X0557919Y0145198D01*
X0557941Y0145284D01*
X0557966Y0145368D01*
X0557996Y0145452D01*
X0558028Y0145534D01*
X0558065Y0145614D01*
X0558105Y0145693D01*
X0558149Y0145770D01*
X0558196Y0145845D01*
X0558246Y0145917D01*
X0558300Y0145988D01*
X0558356Y0146055D01*
X0558416Y0146121D01*
X0558478Y0146183D01*
X0558544Y0146243D01*
X0558611Y0146299D01*
X0558682Y0146353D01*
X0558754Y0146403D01*
X0558829Y0146450D01*
X0558906Y0146494D01*
X0558985Y0146534D01*
X0559065Y0146571D01*
X0559147Y0146603D01*
X0559231Y0146633D01*
X0559315Y0146658D01*
X0559401Y0146680D01*
X0559487Y0146697D01*
X0559575Y0146711D01*
X0559663Y0146721D01*
X0559751Y0146727D01*
X0559839Y0146729D01*
X0559927Y0146727D01*
X0560015Y0146721D01*
X0560103Y0146711D01*
X0560191Y0146697D01*
X0560277Y0146680D01*
X0560363Y0146658D01*
X0560447Y0146633D01*
X0560531Y0146603D01*
X0560613Y0146571D01*
X0560693Y0146534D01*
X0560772Y0146494D01*
X0560849Y0146450D01*
X0560924Y0146403D01*
X0560996Y0146353D01*
X0561067Y0146299D01*
X0561134Y0146243D01*
X0561200Y0146183D01*
X0561262Y0146121D01*
X0561322Y0146055D01*
X0561378Y0145988D01*
X0561432Y0145917D01*
X0561482Y0145845D01*
X0561529Y0145770D01*
X0561573Y0145693D01*
X0561613Y0145614D01*
X0561650Y0145534D01*
X0561682Y0145452D01*
X0561712Y0145368D01*
X0561737Y0145284D01*
X0561759Y0145198D01*
X0561776Y0145112D01*
X0561790Y0145024D01*
X0561800Y0144936D01*
X0561806Y0144848D01*
X0561808Y0144760D01*
X0561806Y0144672D01*
X0561800Y0144584D01*
X0561790Y0144496D01*
X0561776Y0144408D01*
X0561759Y0144322D01*
X0561737Y0144236D01*
X0561712Y0144152D01*
X0561682Y0144068D01*
X0561650Y0143986D01*
X0561613Y0143906D01*
X0561573Y0143827D01*
X0561529Y0143750D01*
X0561482Y0143675D01*
X0561432Y0143603D01*
X0561378Y0143532D01*
X0561322Y0143465D01*
X0561262Y0143399D01*
X0561200Y0143337D01*
X0561134Y0143277D01*
X0561067Y0143221D01*
X0560996Y0143167D01*
X0560924Y0143117D01*
X0560849Y0143070D01*
X0560772Y0143026D01*
X0560693Y0142986D01*
X0560613Y0142949D01*
X0560531Y0142917D01*
X0560447Y0142887D01*
X0560363Y0142862D01*
X0560277Y0142840D01*
X0560191Y0142823D01*
X0560103Y0142809D01*
X0560015Y0142799D01*
X0559927Y0142793D01*
X0559839Y0142791D01*
X0559751Y0142793D01*
X0559663Y0142799D01*
X0559575Y0142809D01*
X0559487Y0142823D01*
X0559401Y0142840D01*
X0559315Y0142862D01*
X0559231Y0142887D01*
X0559147Y0142917D01*
X0559065Y0142949D01*
X0558985Y0142986D01*
X0558906Y0143026D01*
X0558829Y0143070D01*
X0558754Y0143117D01*
X0558682Y0143167D01*
X0558611Y0143221D01*
X0558544Y0143277D01*
X0558478Y0143337D01*
X0558416Y0143399D01*
X0558356Y0143465D01*
X0558300Y0143532D01*
X0558246Y0143603D01*
X0558196Y0143675D01*
X0558149Y0143750D01*
X0558105Y0143827D01*
X0558065Y0143906D01*
X0558028Y0143986D01*
X0557996Y0144068D01*
X0557966Y0144152D01*
X0557941Y0144236D01*
X0557919Y0144322D01*
X0557902Y0144408D01*
X0557888Y0144496D01*
X0557878Y0144584D01*
X0557872Y0144672D01*
X0557870Y0144760D01*
X0557870Y0136886D02*
X0557872Y0136974D01*
X0557878Y0137062D01*
X0557888Y0137150D01*
X0557902Y0137238D01*
X0557919Y0137324D01*
X0557941Y0137410D01*
X0557966Y0137494D01*
X0557996Y0137578D01*
X0558028Y0137660D01*
X0558065Y0137740D01*
X0558105Y0137819D01*
X0558149Y0137896D01*
X0558196Y0137971D01*
X0558246Y0138043D01*
X0558300Y0138114D01*
X0558356Y0138181D01*
X0558416Y0138247D01*
X0558478Y0138309D01*
X0558544Y0138369D01*
X0558611Y0138425D01*
X0558682Y0138479D01*
X0558754Y0138529D01*
X0558829Y0138576D01*
X0558906Y0138620D01*
X0558985Y0138660D01*
X0559065Y0138697D01*
X0559147Y0138729D01*
X0559231Y0138759D01*
X0559315Y0138784D01*
X0559401Y0138806D01*
X0559487Y0138823D01*
X0559575Y0138837D01*
X0559663Y0138847D01*
X0559751Y0138853D01*
X0559839Y0138855D01*
X0559927Y0138853D01*
X0560015Y0138847D01*
X0560103Y0138837D01*
X0560191Y0138823D01*
X0560277Y0138806D01*
X0560363Y0138784D01*
X0560447Y0138759D01*
X0560531Y0138729D01*
X0560613Y0138697D01*
X0560693Y0138660D01*
X0560772Y0138620D01*
X0560849Y0138576D01*
X0560924Y0138529D01*
X0560996Y0138479D01*
X0561067Y0138425D01*
X0561134Y0138369D01*
X0561200Y0138309D01*
X0561262Y0138247D01*
X0561322Y0138181D01*
X0561378Y0138114D01*
X0561432Y0138043D01*
X0561482Y0137971D01*
X0561529Y0137896D01*
X0561573Y0137819D01*
X0561613Y0137740D01*
X0561650Y0137660D01*
X0561682Y0137578D01*
X0561712Y0137494D01*
X0561737Y0137410D01*
X0561759Y0137324D01*
X0561776Y0137238D01*
X0561790Y0137150D01*
X0561800Y0137062D01*
X0561806Y0136974D01*
X0561808Y0136886D01*
X0561806Y0136798D01*
X0561800Y0136710D01*
X0561790Y0136622D01*
X0561776Y0136534D01*
X0561759Y0136448D01*
X0561737Y0136362D01*
X0561712Y0136278D01*
X0561682Y0136194D01*
X0561650Y0136112D01*
X0561613Y0136032D01*
X0561573Y0135953D01*
X0561529Y0135876D01*
X0561482Y0135801D01*
X0561432Y0135729D01*
X0561378Y0135658D01*
X0561322Y0135591D01*
X0561262Y0135525D01*
X0561200Y0135463D01*
X0561134Y0135403D01*
X0561067Y0135347D01*
X0560996Y0135293D01*
X0560924Y0135243D01*
X0560849Y0135196D01*
X0560772Y0135152D01*
X0560693Y0135112D01*
X0560613Y0135075D01*
X0560531Y0135043D01*
X0560447Y0135013D01*
X0560363Y0134988D01*
X0560277Y0134966D01*
X0560191Y0134949D01*
X0560103Y0134935D01*
X0560015Y0134925D01*
X0559927Y0134919D01*
X0559839Y0134917D01*
X0559751Y0134919D01*
X0559663Y0134925D01*
X0559575Y0134935D01*
X0559487Y0134949D01*
X0559401Y0134966D01*
X0559315Y0134988D01*
X0559231Y0135013D01*
X0559147Y0135043D01*
X0559065Y0135075D01*
X0558985Y0135112D01*
X0558906Y0135152D01*
X0558829Y0135196D01*
X0558754Y0135243D01*
X0558682Y0135293D01*
X0558611Y0135347D01*
X0558544Y0135403D01*
X0558478Y0135463D01*
X0558416Y0135525D01*
X0558356Y0135591D01*
X0558300Y0135658D01*
X0558246Y0135729D01*
X0558196Y0135801D01*
X0558149Y0135876D01*
X0558105Y0135953D01*
X0558065Y0136032D01*
X0558028Y0136112D01*
X0557996Y0136194D01*
X0557966Y0136278D01*
X0557941Y0136362D01*
X0557919Y0136448D01*
X0557902Y0136534D01*
X0557888Y0136622D01*
X0557878Y0136710D01*
X0557872Y0136798D01*
X0557870Y0136886D01*
X0572438Y0132949D02*
X0572440Y0133018D01*
X0572446Y0133086D01*
X0572456Y0133154D01*
X0572470Y0133221D01*
X0572488Y0133288D01*
X0572509Y0133353D01*
X0572535Y0133417D01*
X0572564Y0133479D01*
X0572596Y0133539D01*
X0572632Y0133598D01*
X0572672Y0133654D01*
X0572714Y0133708D01*
X0572760Y0133759D01*
X0572809Y0133808D01*
X0572860Y0133854D01*
X0572914Y0133896D01*
X0572970Y0133936D01*
X0573028Y0133972D01*
X0573089Y0134004D01*
X0573151Y0134033D01*
X0573215Y0134059D01*
X0573280Y0134080D01*
X0573347Y0134098D01*
X0573414Y0134112D01*
X0573482Y0134122D01*
X0573550Y0134128D01*
X0573619Y0134130D01*
X0573688Y0134128D01*
X0573756Y0134122D01*
X0573824Y0134112D01*
X0573891Y0134098D01*
X0573958Y0134080D01*
X0574023Y0134059D01*
X0574087Y0134033D01*
X0574149Y0134004D01*
X0574209Y0133972D01*
X0574268Y0133936D01*
X0574324Y0133896D01*
X0574378Y0133854D01*
X0574429Y0133808D01*
X0574478Y0133759D01*
X0574524Y0133708D01*
X0574566Y0133654D01*
X0574606Y0133598D01*
X0574642Y0133539D01*
X0574674Y0133479D01*
X0574703Y0133417D01*
X0574729Y0133353D01*
X0574750Y0133288D01*
X0574768Y0133221D01*
X0574782Y0133154D01*
X0574792Y0133086D01*
X0574798Y0133018D01*
X0574800Y0132949D01*
X0574798Y0132880D01*
X0574792Y0132812D01*
X0574782Y0132744D01*
X0574768Y0132677D01*
X0574750Y0132610D01*
X0574729Y0132545D01*
X0574703Y0132481D01*
X0574674Y0132419D01*
X0574642Y0132358D01*
X0574606Y0132300D01*
X0574566Y0132244D01*
X0574524Y0132190D01*
X0574478Y0132139D01*
X0574429Y0132090D01*
X0574378Y0132044D01*
X0574324Y0132002D01*
X0574268Y0131962D01*
X0574210Y0131926D01*
X0574149Y0131894D01*
X0574087Y0131865D01*
X0574023Y0131839D01*
X0573958Y0131818D01*
X0573891Y0131800D01*
X0573824Y0131786D01*
X0573756Y0131776D01*
X0573688Y0131770D01*
X0573619Y0131768D01*
X0573550Y0131770D01*
X0573482Y0131776D01*
X0573414Y0131786D01*
X0573347Y0131800D01*
X0573280Y0131818D01*
X0573215Y0131839D01*
X0573151Y0131865D01*
X0573089Y0131894D01*
X0573028Y0131926D01*
X0572970Y0131962D01*
X0572914Y0132002D01*
X0572860Y0132044D01*
X0572809Y0132090D01*
X0572760Y0132139D01*
X0572714Y0132190D01*
X0572672Y0132244D01*
X0572632Y0132300D01*
X0572596Y0132358D01*
X0572564Y0132419D01*
X0572535Y0132481D01*
X0572509Y0132545D01*
X0572488Y0132610D01*
X0572470Y0132677D01*
X0572456Y0132744D01*
X0572446Y0132812D01*
X0572440Y0132880D01*
X0572438Y0132949D01*
X0572438Y0129012D02*
X0572440Y0129081D01*
X0572446Y0129149D01*
X0572456Y0129217D01*
X0572470Y0129284D01*
X0572488Y0129351D01*
X0572509Y0129416D01*
X0572535Y0129480D01*
X0572564Y0129542D01*
X0572596Y0129602D01*
X0572632Y0129661D01*
X0572672Y0129717D01*
X0572714Y0129771D01*
X0572760Y0129822D01*
X0572809Y0129871D01*
X0572860Y0129917D01*
X0572914Y0129959D01*
X0572970Y0129999D01*
X0573028Y0130035D01*
X0573089Y0130067D01*
X0573151Y0130096D01*
X0573215Y0130122D01*
X0573280Y0130143D01*
X0573347Y0130161D01*
X0573414Y0130175D01*
X0573482Y0130185D01*
X0573550Y0130191D01*
X0573619Y0130193D01*
X0573688Y0130191D01*
X0573756Y0130185D01*
X0573824Y0130175D01*
X0573891Y0130161D01*
X0573958Y0130143D01*
X0574023Y0130122D01*
X0574087Y0130096D01*
X0574149Y0130067D01*
X0574209Y0130035D01*
X0574268Y0129999D01*
X0574324Y0129959D01*
X0574378Y0129917D01*
X0574429Y0129871D01*
X0574478Y0129822D01*
X0574524Y0129771D01*
X0574566Y0129717D01*
X0574606Y0129661D01*
X0574642Y0129602D01*
X0574674Y0129542D01*
X0574703Y0129480D01*
X0574729Y0129416D01*
X0574750Y0129351D01*
X0574768Y0129284D01*
X0574782Y0129217D01*
X0574792Y0129149D01*
X0574798Y0129081D01*
X0574800Y0129012D01*
X0574798Y0128943D01*
X0574792Y0128875D01*
X0574782Y0128807D01*
X0574768Y0128740D01*
X0574750Y0128673D01*
X0574729Y0128608D01*
X0574703Y0128544D01*
X0574674Y0128482D01*
X0574642Y0128421D01*
X0574606Y0128363D01*
X0574566Y0128307D01*
X0574524Y0128253D01*
X0574478Y0128202D01*
X0574429Y0128153D01*
X0574378Y0128107D01*
X0574324Y0128065D01*
X0574268Y0128025D01*
X0574210Y0127989D01*
X0574149Y0127957D01*
X0574087Y0127928D01*
X0574023Y0127902D01*
X0573958Y0127881D01*
X0573891Y0127863D01*
X0573824Y0127849D01*
X0573756Y0127839D01*
X0573688Y0127833D01*
X0573619Y0127831D01*
X0573550Y0127833D01*
X0573482Y0127839D01*
X0573414Y0127849D01*
X0573347Y0127863D01*
X0573280Y0127881D01*
X0573215Y0127902D01*
X0573151Y0127928D01*
X0573089Y0127957D01*
X0573028Y0127989D01*
X0572970Y0128025D01*
X0572914Y0128065D01*
X0572860Y0128107D01*
X0572809Y0128153D01*
X0572760Y0128202D01*
X0572714Y0128253D01*
X0572672Y0128307D01*
X0572632Y0128363D01*
X0572596Y0128421D01*
X0572564Y0128482D01*
X0572535Y0128544D01*
X0572509Y0128608D01*
X0572488Y0128673D01*
X0572470Y0128740D01*
X0572456Y0128807D01*
X0572446Y0128875D01*
X0572440Y0128943D01*
X0572438Y0129012D01*
X0531099Y0095744D02*
X0531101Y0095841D01*
X0531107Y0095938D01*
X0531117Y0096034D01*
X0531131Y0096130D01*
X0531149Y0096226D01*
X0531170Y0096320D01*
X0531196Y0096414D01*
X0531225Y0096506D01*
X0531259Y0096597D01*
X0531295Y0096687D01*
X0531336Y0096775D01*
X0531380Y0096861D01*
X0531428Y0096946D01*
X0531479Y0097028D01*
X0531533Y0097109D01*
X0531591Y0097187D01*
X0531652Y0097262D01*
X0531715Y0097335D01*
X0531782Y0097406D01*
X0531852Y0097473D01*
X0531924Y0097538D01*
X0531999Y0097599D01*
X0532077Y0097658D01*
X0532156Y0097713D01*
X0532238Y0097765D01*
X0532322Y0097813D01*
X0532408Y0097858D01*
X0532496Y0097900D01*
X0532585Y0097938D01*
X0532676Y0097972D01*
X0532768Y0098002D01*
X0532861Y0098029D01*
X0532956Y0098051D01*
X0533051Y0098070D01*
X0533147Y0098085D01*
X0533243Y0098096D01*
X0533340Y0098103D01*
X0533437Y0098106D01*
X0533534Y0098105D01*
X0533631Y0098100D01*
X0533727Y0098091D01*
X0533823Y0098078D01*
X0533919Y0098061D01*
X0534014Y0098040D01*
X0534107Y0098016D01*
X0534200Y0097987D01*
X0534292Y0097955D01*
X0534382Y0097919D01*
X0534470Y0097880D01*
X0534557Y0097836D01*
X0534642Y0097790D01*
X0534725Y0097739D01*
X0534806Y0097686D01*
X0534884Y0097629D01*
X0534961Y0097569D01*
X0535034Y0097506D01*
X0535105Y0097440D01*
X0535173Y0097371D01*
X0535239Y0097299D01*
X0535301Y0097225D01*
X0535360Y0097148D01*
X0535416Y0097069D01*
X0535469Y0096987D01*
X0535519Y0096904D01*
X0535564Y0096818D01*
X0535607Y0096731D01*
X0535646Y0096642D01*
X0535681Y0096552D01*
X0535712Y0096460D01*
X0535739Y0096367D01*
X0535763Y0096273D01*
X0535783Y0096178D01*
X0535799Y0096082D01*
X0535811Y0095986D01*
X0535819Y0095889D01*
X0535823Y0095792D01*
X0535823Y0095696D01*
X0535819Y0095599D01*
X0535811Y0095502D01*
X0535799Y0095406D01*
X0535783Y0095310D01*
X0535763Y0095215D01*
X0535739Y0095121D01*
X0535712Y0095028D01*
X0535681Y0094936D01*
X0535646Y0094846D01*
X0535607Y0094757D01*
X0535564Y0094670D01*
X0535519Y0094584D01*
X0535469Y0094501D01*
X0535416Y0094419D01*
X0535360Y0094340D01*
X0535301Y0094263D01*
X0535239Y0094189D01*
X0535173Y0094117D01*
X0535105Y0094048D01*
X0535034Y0093982D01*
X0534961Y0093919D01*
X0534884Y0093859D01*
X0534806Y0093802D01*
X0534725Y0093749D01*
X0534642Y0093698D01*
X0534557Y0093652D01*
X0534470Y0093608D01*
X0534382Y0093569D01*
X0534292Y0093533D01*
X0534200Y0093501D01*
X0534107Y0093472D01*
X0534014Y0093448D01*
X0533919Y0093427D01*
X0533823Y0093410D01*
X0533727Y0093397D01*
X0533631Y0093388D01*
X0533534Y0093383D01*
X0533437Y0093382D01*
X0533340Y0093385D01*
X0533243Y0093392D01*
X0533147Y0093403D01*
X0533051Y0093418D01*
X0532956Y0093437D01*
X0532861Y0093459D01*
X0532768Y0093486D01*
X0532676Y0093516D01*
X0532585Y0093550D01*
X0532496Y0093588D01*
X0532408Y0093630D01*
X0532322Y0093675D01*
X0532238Y0093723D01*
X0532156Y0093775D01*
X0532077Y0093830D01*
X0531999Y0093889D01*
X0531924Y0093950D01*
X0531852Y0094015D01*
X0531782Y0094082D01*
X0531715Y0094153D01*
X0531652Y0094226D01*
X0531591Y0094301D01*
X0531533Y0094379D01*
X0531479Y0094460D01*
X0531428Y0094542D01*
X0531380Y0094627D01*
X0531336Y0094713D01*
X0531295Y0094801D01*
X0531259Y0094891D01*
X0531225Y0094982D01*
X0531196Y0095074D01*
X0531170Y0095168D01*
X0531149Y0095262D01*
X0531131Y0095358D01*
X0531117Y0095454D01*
X0531107Y0095550D01*
X0531101Y0095647D01*
X0531099Y0095744D01*
X0503540Y0095744D02*
X0503542Y0095841D01*
X0503548Y0095938D01*
X0503558Y0096034D01*
X0503572Y0096130D01*
X0503590Y0096226D01*
X0503611Y0096320D01*
X0503637Y0096414D01*
X0503666Y0096506D01*
X0503700Y0096597D01*
X0503736Y0096687D01*
X0503777Y0096775D01*
X0503821Y0096861D01*
X0503869Y0096946D01*
X0503920Y0097028D01*
X0503974Y0097109D01*
X0504032Y0097187D01*
X0504093Y0097262D01*
X0504156Y0097335D01*
X0504223Y0097406D01*
X0504293Y0097473D01*
X0504365Y0097538D01*
X0504440Y0097599D01*
X0504518Y0097658D01*
X0504597Y0097713D01*
X0504679Y0097765D01*
X0504763Y0097813D01*
X0504849Y0097858D01*
X0504937Y0097900D01*
X0505026Y0097938D01*
X0505117Y0097972D01*
X0505209Y0098002D01*
X0505302Y0098029D01*
X0505397Y0098051D01*
X0505492Y0098070D01*
X0505588Y0098085D01*
X0505684Y0098096D01*
X0505781Y0098103D01*
X0505878Y0098106D01*
X0505975Y0098105D01*
X0506072Y0098100D01*
X0506168Y0098091D01*
X0506264Y0098078D01*
X0506360Y0098061D01*
X0506455Y0098040D01*
X0506548Y0098016D01*
X0506641Y0097987D01*
X0506733Y0097955D01*
X0506823Y0097919D01*
X0506911Y0097880D01*
X0506998Y0097836D01*
X0507083Y0097790D01*
X0507166Y0097739D01*
X0507247Y0097686D01*
X0507325Y0097629D01*
X0507402Y0097569D01*
X0507475Y0097506D01*
X0507546Y0097440D01*
X0507614Y0097371D01*
X0507680Y0097299D01*
X0507742Y0097225D01*
X0507801Y0097148D01*
X0507857Y0097069D01*
X0507910Y0096987D01*
X0507960Y0096904D01*
X0508005Y0096818D01*
X0508048Y0096731D01*
X0508087Y0096642D01*
X0508122Y0096552D01*
X0508153Y0096460D01*
X0508180Y0096367D01*
X0508204Y0096273D01*
X0508224Y0096178D01*
X0508240Y0096082D01*
X0508252Y0095986D01*
X0508260Y0095889D01*
X0508264Y0095792D01*
X0508264Y0095696D01*
X0508260Y0095599D01*
X0508252Y0095502D01*
X0508240Y0095406D01*
X0508224Y0095310D01*
X0508204Y0095215D01*
X0508180Y0095121D01*
X0508153Y0095028D01*
X0508122Y0094936D01*
X0508087Y0094846D01*
X0508048Y0094757D01*
X0508005Y0094670D01*
X0507960Y0094584D01*
X0507910Y0094501D01*
X0507857Y0094419D01*
X0507801Y0094340D01*
X0507742Y0094263D01*
X0507680Y0094189D01*
X0507614Y0094117D01*
X0507546Y0094048D01*
X0507475Y0093982D01*
X0507402Y0093919D01*
X0507325Y0093859D01*
X0507247Y0093802D01*
X0507166Y0093749D01*
X0507083Y0093698D01*
X0506998Y0093652D01*
X0506911Y0093608D01*
X0506823Y0093569D01*
X0506733Y0093533D01*
X0506641Y0093501D01*
X0506548Y0093472D01*
X0506455Y0093448D01*
X0506360Y0093427D01*
X0506264Y0093410D01*
X0506168Y0093397D01*
X0506072Y0093388D01*
X0505975Y0093383D01*
X0505878Y0093382D01*
X0505781Y0093385D01*
X0505684Y0093392D01*
X0505588Y0093403D01*
X0505492Y0093418D01*
X0505397Y0093437D01*
X0505302Y0093459D01*
X0505209Y0093486D01*
X0505117Y0093516D01*
X0505026Y0093550D01*
X0504937Y0093588D01*
X0504849Y0093630D01*
X0504763Y0093675D01*
X0504679Y0093723D01*
X0504597Y0093775D01*
X0504518Y0093830D01*
X0504440Y0093889D01*
X0504365Y0093950D01*
X0504293Y0094015D01*
X0504223Y0094082D01*
X0504156Y0094153D01*
X0504093Y0094226D01*
X0504032Y0094301D01*
X0503974Y0094379D01*
X0503920Y0094460D01*
X0503869Y0094542D01*
X0503821Y0094627D01*
X0503777Y0094713D01*
X0503736Y0094801D01*
X0503700Y0094891D01*
X0503666Y0094982D01*
X0503637Y0095074D01*
X0503611Y0095168D01*
X0503590Y0095262D01*
X0503572Y0095358D01*
X0503558Y0095454D01*
X0503548Y0095550D01*
X0503542Y0095647D01*
X0503540Y0095744D01*
X0544879Y0069957D02*
X0544881Y0070026D01*
X0544887Y0070094D01*
X0544897Y0070162D01*
X0544911Y0070229D01*
X0544929Y0070296D01*
X0544950Y0070361D01*
X0544976Y0070425D01*
X0545005Y0070487D01*
X0545037Y0070547D01*
X0545073Y0070606D01*
X0545113Y0070662D01*
X0545155Y0070716D01*
X0545201Y0070767D01*
X0545250Y0070816D01*
X0545301Y0070862D01*
X0545355Y0070904D01*
X0545411Y0070944D01*
X0545469Y0070980D01*
X0545530Y0071012D01*
X0545592Y0071041D01*
X0545656Y0071067D01*
X0545721Y0071088D01*
X0545788Y0071106D01*
X0545855Y0071120D01*
X0545923Y0071130D01*
X0545991Y0071136D01*
X0546060Y0071138D01*
X0546129Y0071136D01*
X0546197Y0071130D01*
X0546265Y0071120D01*
X0546332Y0071106D01*
X0546399Y0071088D01*
X0546464Y0071067D01*
X0546528Y0071041D01*
X0546590Y0071012D01*
X0546650Y0070980D01*
X0546709Y0070944D01*
X0546765Y0070904D01*
X0546819Y0070862D01*
X0546870Y0070816D01*
X0546919Y0070767D01*
X0546965Y0070716D01*
X0547007Y0070662D01*
X0547047Y0070606D01*
X0547083Y0070547D01*
X0547115Y0070487D01*
X0547144Y0070425D01*
X0547170Y0070361D01*
X0547191Y0070296D01*
X0547209Y0070229D01*
X0547223Y0070162D01*
X0547233Y0070094D01*
X0547239Y0070026D01*
X0547241Y0069957D01*
X0547239Y0069888D01*
X0547233Y0069820D01*
X0547223Y0069752D01*
X0547209Y0069685D01*
X0547191Y0069618D01*
X0547170Y0069553D01*
X0547144Y0069489D01*
X0547115Y0069427D01*
X0547083Y0069366D01*
X0547047Y0069308D01*
X0547007Y0069252D01*
X0546965Y0069198D01*
X0546919Y0069147D01*
X0546870Y0069098D01*
X0546819Y0069052D01*
X0546765Y0069010D01*
X0546709Y0068970D01*
X0546651Y0068934D01*
X0546590Y0068902D01*
X0546528Y0068873D01*
X0546464Y0068847D01*
X0546399Y0068826D01*
X0546332Y0068808D01*
X0546265Y0068794D01*
X0546197Y0068784D01*
X0546129Y0068778D01*
X0546060Y0068776D01*
X0545991Y0068778D01*
X0545923Y0068784D01*
X0545855Y0068794D01*
X0545788Y0068808D01*
X0545721Y0068826D01*
X0545656Y0068847D01*
X0545592Y0068873D01*
X0545530Y0068902D01*
X0545469Y0068934D01*
X0545411Y0068970D01*
X0545355Y0069010D01*
X0545301Y0069052D01*
X0545250Y0069098D01*
X0545201Y0069147D01*
X0545155Y0069198D01*
X0545113Y0069252D01*
X0545073Y0069308D01*
X0545037Y0069366D01*
X0545005Y0069427D01*
X0544976Y0069489D01*
X0544950Y0069553D01*
X0544929Y0069618D01*
X0544911Y0069685D01*
X0544897Y0069752D01*
X0544887Y0069820D01*
X0544881Y0069888D01*
X0544879Y0069957D01*
X0544879Y0066020D02*
X0544881Y0066089D01*
X0544887Y0066157D01*
X0544897Y0066225D01*
X0544911Y0066292D01*
X0544929Y0066359D01*
X0544950Y0066424D01*
X0544976Y0066488D01*
X0545005Y0066550D01*
X0545037Y0066610D01*
X0545073Y0066669D01*
X0545113Y0066725D01*
X0545155Y0066779D01*
X0545201Y0066830D01*
X0545250Y0066879D01*
X0545301Y0066925D01*
X0545355Y0066967D01*
X0545411Y0067007D01*
X0545469Y0067043D01*
X0545530Y0067075D01*
X0545592Y0067104D01*
X0545656Y0067130D01*
X0545721Y0067151D01*
X0545788Y0067169D01*
X0545855Y0067183D01*
X0545923Y0067193D01*
X0545991Y0067199D01*
X0546060Y0067201D01*
X0546129Y0067199D01*
X0546197Y0067193D01*
X0546265Y0067183D01*
X0546332Y0067169D01*
X0546399Y0067151D01*
X0546464Y0067130D01*
X0546528Y0067104D01*
X0546590Y0067075D01*
X0546650Y0067043D01*
X0546709Y0067007D01*
X0546765Y0066967D01*
X0546819Y0066925D01*
X0546870Y0066879D01*
X0546919Y0066830D01*
X0546965Y0066779D01*
X0547007Y0066725D01*
X0547047Y0066669D01*
X0547083Y0066610D01*
X0547115Y0066550D01*
X0547144Y0066488D01*
X0547170Y0066424D01*
X0547191Y0066359D01*
X0547209Y0066292D01*
X0547223Y0066225D01*
X0547233Y0066157D01*
X0547239Y0066089D01*
X0547241Y0066020D01*
X0547239Y0065951D01*
X0547233Y0065883D01*
X0547223Y0065815D01*
X0547209Y0065748D01*
X0547191Y0065681D01*
X0547170Y0065616D01*
X0547144Y0065552D01*
X0547115Y0065490D01*
X0547083Y0065429D01*
X0547047Y0065371D01*
X0547007Y0065315D01*
X0546965Y0065261D01*
X0546919Y0065210D01*
X0546870Y0065161D01*
X0546819Y0065115D01*
X0546765Y0065073D01*
X0546709Y0065033D01*
X0546651Y0064997D01*
X0546590Y0064965D01*
X0546528Y0064936D01*
X0546464Y0064910D01*
X0546399Y0064889D01*
X0546332Y0064871D01*
X0546265Y0064857D01*
X0546197Y0064847D01*
X0546129Y0064841D01*
X0546060Y0064839D01*
X0545991Y0064841D01*
X0545923Y0064847D01*
X0545855Y0064857D01*
X0545788Y0064871D01*
X0545721Y0064889D01*
X0545656Y0064910D01*
X0545592Y0064936D01*
X0545530Y0064965D01*
X0545469Y0064997D01*
X0545411Y0065033D01*
X0545355Y0065073D01*
X0545301Y0065115D01*
X0545250Y0065161D01*
X0545201Y0065210D01*
X0545155Y0065261D01*
X0545113Y0065315D01*
X0545073Y0065371D01*
X0545037Y0065429D01*
X0545005Y0065490D01*
X0544976Y0065552D01*
X0544950Y0065616D01*
X0544929Y0065681D01*
X0544911Y0065748D01*
X0544897Y0065815D01*
X0544887Y0065883D01*
X0544881Y0065951D01*
X0544879Y0066020D01*
X0379918Y0034327D02*
X0379920Y0034411D01*
X0379926Y0034494D01*
X0379936Y0034577D01*
X0379950Y0034660D01*
X0379967Y0034742D01*
X0379989Y0034823D01*
X0380014Y0034902D01*
X0380043Y0034981D01*
X0380076Y0035058D01*
X0380112Y0035133D01*
X0380152Y0035207D01*
X0380195Y0035279D01*
X0380242Y0035348D01*
X0380292Y0035415D01*
X0380345Y0035480D01*
X0380401Y0035542D01*
X0380459Y0035602D01*
X0380521Y0035659D01*
X0380585Y0035712D01*
X0380652Y0035763D01*
X0380721Y0035810D01*
X0380792Y0035855D01*
X0380865Y0035895D01*
X0380940Y0035932D01*
X0381017Y0035966D01*
X0381095Y0035996D01*
X0381174Y0036022D01*
X0381255Y0036045D01*
X0381337Y0036063D01*
X0381419Y0036078D01*
X0381502Y0036089D01*
X0381585Y0036096D01*
X0381669Y0036099D01*
X0381753Y0036098D01*
X0381836Y0036093D01*
X0381920Y0036084D01*
X0382002Y0036071D01*
X0382084Y0036055D01*
X0382165Y0036034D01*
X0382246Y0036010D01*
X0382324Y0035982D01*
X0382402Y0035950D01*
X0382478Y0035914D01*
X0382552Y0035875D01*
X0382624Y0035833D01*
X0382694Y0035787D01*
X0382762Y0035738D01*
X0382827Y0035686D01*
X0382890Y0035631D01*
X0382950Y0035573D01*
X0383008Y0035512D01*
X0383062Y0035448D01*
X0383114Y0035382D01*
X0383162Y0035314D01*
X0383207Y0035243D01*
X0383248Y0035170D01*
X0383287Y0035096D01*
X0383321Y0035020D01*
X0383352Y0034942D01*
X0383379Y0034863D01*
X0383403Y0034782D01*
X0383422Y0034701D01*
X0383438Y0034619D01*
X0383450Y0034536D01*
X0383458Y0034452D01*
X0383462Y0034369D01*
X0383462Y0034285D01*
X0383458Y0034202D01*
X0383450Y0034118D01*
X0383438Y0034035D01*
X0383422Y0033953D01*
X0383403Y0033872D01*
X0383379Y0033791D01*
X0383352Y0033712D01*
X0383321Y0033634D01*
X0383287Y0033558D01*
X0383248Y0033484D01*
X0383207Y0033411D01*
X0383162Y0033340D01*
X0383114Y0033272D01*
X0383062Y0033206D01*
X0383008Y0033142D01*
X0382950Y0033081D01*
X0382890Y0033023D01*
X0382827Y0032968D01*
X0382762Y0032916D01*
X0382694Y0032867D01*
X0382624Y0032821D01*
X0382552Y0032779D01*
X0382478Y0032740D01*
X0382402Y0032704D01*
X0382324Y0032672D01*
X0382246Y0032644D01*
X0382165Y0032620D01*
X0382084Y0032599D01*
X0382002Y0032583D01*
X0381920Y0032570D01*
X0381836Y0032561D01*
X0381753Y0032556D01*
X0381669Y0032555D01*
X0381585Y0032558D01*
X0381502Y0032565D01*
X0381419Y0032576D01*
X0381337Y0032591D01*
X0381255Y0032609D01*
X0381174Y0032632D01*
X0381095Y0032658D01*
X0381017Y0032688D01*
X0380940Y0032722D01*
X0380865Y0032759D01*
X0380792Y0032799D01*
X0380721Y0032844D01*
X0380652Y0032891D01*
X0380585Y0032942D01*
X0380521Y0032995D01*
X0380459Y0033052D01*
X0380401Y0033112D01*
X0380345Y0033174D01*
X0380292Y0033239D01*
X0380242Y0033306D01*
X0380195Y0033375D01*
X0380152Y0033447D01*
X0380112Y0033521D01*
X0380076Y0033596D01*
X0380043Y0033673D01*
X0380014Y0033752D01*
X0379989Y0033831D01*
X0379967Y0033912D01*
X0379950Y0033994D01*
X0379936Y0034077D01*
X0379926Y0034160D01*
X0379920Y0034243D01*
X0379918Y0034327D01*
X0370075Y0034327D02*
X0370077Y0034411D01*
X0370083Y0034494D01*
X0370093Y0034577D01*
X0370107Y0034660D01*
X0370124Y0034742D01*
X0370146Y0034823D01*
X0370171Y0034902D01*
X0370200Y0034981D01*
X0370233Y0035058D01*
X0370269Y0035133D01*
X0370309Y0035207D01*
X0370352Y0035279D01*
X0370399Y0035348D01*
X0370449Y0035415D01*
X0370502Y0035480D01*
X0370558Y0035542D01*
X0370616Y0035602D01*
X0370678Y0035659D01*
X0370742Y0035712D01*
X0370809Y0035763D01*
X0370878Y0035810D01*
X0370949Y0035855D01*
X0371022Y0035895D01*
X0371097Y0035932D01*
X0371174Y0035966D01*
X0371252Y0035996D01*
X0371331Y0036022D01*
X0371412Y0036045D01*
X0371494Y0036063D01*
X0371576Y0036078D01*
X0371659Y0036089D01*
X0371742Y0036096D01*
X0371826Y0036099D01*
X0371910Y0036098D01*
X0371993Y0036093D01*
X0372077Y0036084D01*
X0372159Y0036071D01*
X0372241Y0036055D01*
X0372322Y0036034D01*
X0372403Y0036010D01*
X0372481Y0035982D01*
X0372559Y0035950D01*
X0372635Y0035914D01*
X0372709Y0035875D01*
X0372781Y0035833D01*
X0372851Y0035787D01*
X0372919Y0035738D01*
X0372984Y0035686D01*
X0373047Y0035631D01*
X0373107Y0035573D01*
X0373165Y0035512D01*
X0373219Y0035448D01*
X0373271Y0035382D01*
X0373319Y0035314D01*
X0373364Y0035243D01*
X0373405Y0035170D01*
X0373444Y0035096D01*
X0373478Y0035020D01*
X0373509Y0034942D01*
X0373536Y0034863D01*
X0373560Y0034782D01*
X0373579Y0034701D01*
X0373595Y0034619D01*
X0373607Y0034536D01*
X0373615Y0034452D01*
X0373619Y0034369D01*
X0373619Y0034285D01*
X0373615Y0034202D01*
X0373607Y0034118D01*
X0373595Y0034035D01*
X0373579Y0033953D01*
X0373560Y0033872D01*
X0373536Y0033791D01*
X0373509Y0033712D01*
X0373478Y0033634D01*
X0373444Y0033558D01*
X0373405Y0033484D01*
X0373364Y0033411D01*
X0373319Y0033340D01*
X0373271Y0033272D01*
X0373219Y0033206D01*
X0373165Y0033142D01*
X0373107Y0033081D01*
X0373047Y0033023D01*
X0372984Y0032968D01*
X0372919Y0032916D01*
X0372851Y0032867D01*
X0372781Y0032821D01*
X0372709Y0032779D01*
X0372635Y0032740D01*
X0372559Y0032704D01*
X0372481Y0032672D01*
X0372403Y0032644D01*
X0372322Y0032620D01*
X0372241Y0032599D01*
X0372159Y0032583D01*
X0372077Y0032570D01*
X0371993Y0032561D01*
X0371910Y0032556D01*
X0371826Y0032555D01*
X0371742Y0032558D01*
X0371659Y0032565D01*
X0371576Y0032576D01*
X0371494Y0032591D01*
X0371412Y0032609D01*
X0371331Y0032632D01*
X0371252Y0032658D01*
X0371174Y0032688D01*
X0371097Y0032722D01*
X0371022Y0032759D01*
X0370949Y0032799D01*
X0370878Y0032844D01*
X0370809Y0032891D01*
X0370742Y0032942D01*
X0370678Y0032995D01*
X0370616Y0033052D01*
X0370558Y0033112D01*
X0370502Y0033174D01*
X0370449Y0033239D01*
X0370399Y0033306D01*
X0370352Y0033375D01*
X0370309Y0033447D01*
X0370269Y0033521D01*
X0370233Y0033596D01*
X0370200Y0033673D01*
X0370171Y0033752D01*
X0370146Y0033831D01*
X0370124Y0033912D01*
X0370107Y0033994D01*
X0370093Y0034077D01*
X0370083Y0034160D01*
X0370077Y0034243D01*
X0370075Y0034327D01*
X0340548Y0034327D02*
X0340550Y0034411D01*
X0340556Y0034494D01*
X0340566Y0034577D01*
X0340580Y0034660D01*
X0340597Y0034742D01*
X0340619Y0034823D01*
X0340644Y0034902D01*
X0340673Y0034981D01*
X0340706Y0035058D01*
X0340742Y0035133D01*
X0340782Y0035207D01*
X0340825Y0035279D01*
X0340872Y0035348D01*
X0340922Y0035415D01*
X0340975Y0035480D01*
X0341031Y0035542D01*
X0341089Y0035602D01*
X0341151Y0035659D01*
X0341215Y0035712D01*
X0341282Y0035763D01*
X0341351Y0035810D01*
X0341422Y0035855D01*
X0341495Y0035895D01*
X0341570Y0035932D01*
X0341647Y0035966D01*
X0341725Y0035996D01*
X0341804Y0036022D01*
X0341885Y0036045D01*
X0341967Y0036063D01*
X0342049Y0036078D01*
X0342132Y0036089D01*
X0342215Y0036096D01*
X0342299Y0036099D01*
X0342383Y0036098D01*
X0342466Y0036093D01*
X0342550Y0036084D01*
X0342632Y0036071D01*
X0342714Y0036055D01*
X0342795Y0036034D01*
X0342876Y0036010D01*
X0342954Y0035982D01*
X0343032Y0035950D01*
X0343108Y0035914D01*
X0343182Y0035875D01*
X0343254Y0035833D01*
X0343324Y0035787D01*
X0343392Y0035738D01*
X0343457Y0035686D01*
X0343520Y0035631D01*
X0343580Y0035573D01*
X0343638Y0035512D01*
X0343692Y0035448D01*
X0343744Y0035382D01*
X0343792Y0035314D01*
X0343837Y0035243D01*
X0343878Y0035170D01*
X0343917Y0035096D01*
X0343951Y0035020D01*
X0343982Y0034942D01*
X0344009Y0034863D01*
X0344033Y0034782D01*
X0344052Y0034701D01*
X0344068Y0034619D01*
X0344080Y0034536D01*
X0344088Y0034452D01*
X0344092Y0034369D01*
X0344092Y0034285D01*
X0344088Y0034202D01*
X0344080Y0034118D01*
X0344068Y0034035D01*
X0344052Y0033953D01*
X0344033Y0033872D01*
X0344009Y0033791D01*
X0343982Y0033712D01*
X0343951Y0033634D01*
X0343917Y0033558D01*
X0343878Y0033484D01*
X0343837Y0033411D01*
X0343792Y0033340D01*
X0343744Y0033272D01*
X0343692Y0033206D01*
X0343638Y0033142D01*
X0343580Y0033081D01*
X0343520Y0033023D01*
X0343457Y0032968D01*
X0343392Y0032916D01*
X0343324Y0032867D01*
X0343254Y0032821D01*
X0343182Y0032779D01*
X0343108Y0032740D01*
X0343032Y0032704D01*
X0342954Y0032672D01*
X0342876Y0032644D01*
X0342795Y0032620D01*
X0342714Y0032599D01*
X0342632Y0032583D01*
X0342550Y0032570D01*
X0342466Y0032561D01*
X0342383Y0032556D01*
X0342299Y0032555D01*
X0342215Y0032558D01*
X0342132Y0032565D01*
X0342049Y0032576D01*
X0341967Y0032591D01*
X0341885Y0032609D01*
X0341804Y0032632D01*
X0341725Y0032658D01*
X0341647Y0032688D01*
X0341570Y0032722D01*
X0341495Y0032759D01*
X0341422Y0032799D01*
X0341351Y0032844D01*
X0341282Y0032891D01*
X0341215Y0032942D01*
X0341151Y0032995D01*
X0341089Y0033052D01*
X0341031Y0033112D01*
X0340975Y0033174D01*
X0340922Y0033239D01*
X0340872Y0033306D01*
X0340825Y0033375D01*
X0340782Y0033447D01*
X0340742Y0033521D01*
X0340706Y0033596D01*
X0340673Y0033673D01*
X0340644Y0033752D01*
X0340619Y0033831D01*
X0340597Y0033912D01*
X0340580Y0033994D01*
X0340566Y0034077D01*
X0340556Y0034160D01*
X0340550Y0034243D01*
X0340548Y0034327D01*
X0330705Y0034327D02*
X0330707Y0034411D01*
X0330713Y0034494D01*
X0330723Y0034577D01*
X0330737Y0034660D01*
X0330754Y0034742D01*
X0330776Y0034823D01*
X0330801Y0034902D01*
X0330830Y0034981D01*
X0330863Y0035058D01*
X0330899Y0035133D01*
X0330939Y0035207D01*
X0330982Y0035279D01*
X0331029Y0035348D01*
X0331079Y0035415D01*
X0331132Y0035480D01*
X0331188Y0035542D01*
X0331246Y0035602D01*
X0331308Y0035659D01*
X0331372Y0035712D01*
X0331439Y0035763D01*
X0331508Y0035810D01*
X0331579Y0035855D01*
X0331652Y0035895D01*
X0331727Y0035932D01*
X0331804Y0035966D01*
X0331882Y0035996D01*
X0331961Y0036022D01*
X0332042Y0036045D01*
X0332124Y0036063D01*
X0332206Y0036078D01*
X0332289Y0036089D01*
X0332372Y0036096D01*
X0332456Y0036099D01*
X0332540Y0036098D01*
X0332623Y0036093D01*
X0332707Y0036084D01*
X0332789Y0036071D01*
X0332871Y0036055D01*
X0332952Y0036034D01*
X0333033Y0036010D01*
X0333111Y0035982D01*
X0333189Y0035950D01*
X0333265Y0035914D01*
X0333339Y0035875D01*
X0333411Y0035833D01*
X0333481Y0035787D01*
X0333549Y0035738D01*
X0333614Y0035686D01*
X0333677Y0035631D01*
X0333737Y0035573D01*
X0333795Y0035512D01*
X0333849Y0035448D01*
X0333901Y0035382D01*
X0333949Y0035314D01*
X0333994Y0035243D01*
X0334035Y0035170D01*
X0334074Y0035096D01*
X0334108Y0035020D01*
X0334139Y0034942D01*
X0334166Y0034863D01*
X0334190Y0034782D01*
X0334209Y0034701D01*
X0334225Y0034619D01*
X0334237Y0034536D01*
X0334245Y0034452D01*
X0334249Y0034369D01*
X0334249Y0034285D01*
X0334245Y0034202D01*
X0334237Y0034118D01*
X0334225Y0034035D01*
X0334209Y0033953D01*
X0334190Y0033872D01*
X0334166Y0033791D01*
X0334139Y0033712D01*
X0334108Y0033634D01*
X0334074Y0033558D01*
X0334035Y0033484D01*
X0333994Y0033411D01*
X0333949Y0033340D01*
X0333901Y0033272D01*
X0333849Y0033206D01*
X0333795Y0033142D01*
X0333737Y0033081D01*
X0333677Y0033023D01*
X0333614Y0032968D01*
X0333549Y0032916D01*
X0333481Y0032867D01*
X0333411Y0032821D01*
X0333339Y0032779D01*
X0333265Y0032740D01*
X0333189Y0032704D01*
X0333111Y0032672D01*
X0333033Y0032644D01*
X0332952Y0032620D01*
X0332871Y0032599D01*
X0332789Y0032583D01*
X0332707Y0032570D01*
X0332623Y0032561D01*
X0332540Y0032556D01*
X0332456Y0032555D01*
X0332372Y0032558D01*
X0332289Y0032565D01*
X0332206Y0032576D01*
X0332124Y0032591D01*
X0332042Y0032609D01*
X0331961Y0032632D01*
X0331882Y0032658D01*
X0331804Y0032688D01*
X0331727Y0032722D01*
X0331652Y0032759D01*
X0331579Y0032799D01*
X0331508Y0032844D01*
X0331439Y0032891D01*
X0331372Y0032942D01*
X0331308Y0032995D01*
X0331246Y0033052D01*
X0331188Y0033112D01*
X0331132Y0033174D01*
X0331079Y0033239D01*
X0331029Y0033306D01*
X0330982Y0033375D01*
X0330939Y0033447D01*
X0330899Y0033521D01*
X0330863Y0033596D01*
X0330830Y0033673D01*
X0330801Y0033752D01*
X0330776Y0033831D01*
X0330754Y0033912D01*
X0330737Y0033994D01*
X0330723Y0034077D01*
X0330713Y0034160D01*
X0330707Y0034243D01*
X0330705Y0034327D01*
M02*
