G75*
%MOIN*%
%OFA0B0*%
%FSLAX25Y25*%
%IPPOS*%
%LPD*%
%AMOC8*
5,1,8,0,0,1.08239X$1,22.5*
%
%ADD10C,0.00000*%
D10*
X0044307Y0008143D02*
X0044307Y0256175D01*
X0516748Y0256175D01*
X0516748Y0161687D01*
X0508874Y0161687D01*
X0508874Y0157750D01*
X0516748Y0157750D01*
X0516748Y0126254D01*
X0501000Y0126254D01*
X0501000Y0122317D01*
X0516748Y0122317D01*
X0516748Y0008143D01*
X0430134Y0008143D01*
X0430134Y0017986D01*
X0367142Y0017986D01*
X0367142Y0008143D01*
X0044307Y0008143D01*
X0036433Y0027828D02*
X0036433Y0106569D01*
X0001000Y0106569D01*
X0001000Y0027828D01*
X0036433Y0027828D01*
X0016748Y0047513D02*
X0016750Y0047601D01*
X0016756Y0047689D01*
X0016766Y0047777D01*
X0016780Y0047865D01*
X0016797Y0047951D01*
X0016819Y0048037D01*
X0016844Y0048121D01*
X0016874Y0048205D01*
X0016906Y0048287D01*
X0016943Y0048367D01*
X0016983Y0048446D01*
X0017027Y0048523D01*
X0017074Y0048598D01*
X0017124Y0048670D01*
X0017178Y0048741D01*
X0017234Y0048808D01*
X0017294Y0048874D01*
X0017356Y0048936D01*
X0017422Y0048996D01*
X0017489Y0049052D01*
X0017560Y0049106D01*
X0017632Y0049156D01*
X0017707Y0049203D01*
X0017784Y0049247D01*
X0017863Y0049287D01*
X0017943Y0049324D01*
X0018025Y0049356D01*
X0018109Y0049386D01*
X0018193Y0049411D01*
X0018279Y0049433D01*
X0018365Y0049450D01*
X0018453Y0049464D01*
X0018541Y0049474D01*
X0018629Y0049480D01*
X0018717Y0049482D01*
X0018805Y0049480D01*
X0018893Y0049474D01*
X0018981Y0049464D01*
X0019069Y0049450D01*
X0019155Y0049433D01*
X0019241Y0049411D01*
X0019325Y0049386D01*
X0019409Y0049356D01*
X0019491Y0049324D01*
X0019571Y0049287D01*
X0019650Y0049247D01*
X0019727Y0049203D01*
X0019802Y0049156D01*
X0019874Y0049106D01*
X0019945Y0049052D01*
X0020012Y0048996D01*
X0020078Y0048936D01*
X0020140Y0048874D01*
X0020200Y0048808D01*
X0020256Y0048741D01*
X0020310Y0048670D01*
X0020360Y0048598D01*
X0020407Y0048523D01*
X0020451Y0048446D01*
X0020491Y0048367D01*
X0020528Y0048287D01*
X0020560Y0048205D01*
X0020590Y0048121D01*
X0020615Y0048037D01*
X0020637Y0047951D01*
X0020654Y0047865D01*
X0020668Y0047777D01*
X0020678Y0047689D01*
X0020684Y0047601D01*
X0020686Y0047513D01*
X0020684Y0047425D01*
X0020678Y0047337D01*
X0020668Y0047249D01*
X0020654Y0047161D01*
X0020637Y0047075D01*
X0020615Y0046989D01*
X0020590Y0046905D01*
X0020560Y0046821D01*
X0020528Y0046739D01*
X0020491Y0046659D01*
X0020451Y0046580D01*
X0020407Y0046503D01*
X0020360Y0046428D01*
X0020310Y0046356D01*
X0020256Y0046285D01*
X0020200Y0046218D01*
X0020140Y0046152D01*
X0020078Y0046090D01*
X0020012Y0046030D01*
X0019945Y0045974D01*
X0019874Y0045920D01*
X0019802Y0045870D01*
X0019727Y0045823D01*
X0019650Y0045779D01*
X0019571Y0045739D01*
X0019491Y0045702D01*
X0019409Y0045670D01*
X0019325Y0045640D01*
X0019241Y0045615D01*
X0019155Y0045593D01*
X0019069Y0045576D01*
X0018981Y0045562D01*
X0018893Y0045552D01*
X0018805Y0045546D01*
X0018717Y0045544D01*
X0018629Y0045546D01*
X0018541Y0045552D01*
X0018453Y0045562D01*
X0018365Y0045576D01*
X0018279Y0045593D01*
X0018193Y0045615D01*
X0018109Y0045640D01*
X0018025Y0045670D01*
X0017943Y0045702D01*
X0017863Y0045739D01*
X0017784Y0045779D01*
X0017707Y0045823D01*
X0017632Y0045870D01*
X0017560Y0045920D01*
X0017489Y0045974D01*
X0017422Y0046030D01*
X0017356Y0046090D01*
X0017294Y0046152D01*
X0017234Y0046218D01*
X0017178Y0046285D01*
X0017124Y0046356D01*
X0017074Y0046428D01*
X0017027Y0046503D01*
X0016983Y0046580D01*
X0016943Y0046659D01*
X0016906Y0046739D01*
X0016874Y0046821D01*
X0016844Y0046905D01*
X0016819Y0046989D01*
X0016797Y0047075D01*
X0016780Y0047161D01*
X0016766Y0047249D01*
X0016756Y0047337D01*
X0016750Y0047425D01*
X0016748Y0047513D01*
X0015764Y0055387D02*
X0015766Y0055495D01*
X0015772Y0055604D01*
X0015782Y0055712D01*
X0015796Y0055819D01*
X0015814Y0055926D01*
X0015835Y0056033D01*
X0015861Y0056138D01*
X0015891Y0056243D01*
X0015924Y0056346D01*
X0015961Y0056448D01*
X0016002Y0056548D01*
X0016046Y0056647D01*
X0016095Y0056745D01*
X0016146Y0056840D01*
X0016201Y0056933D01*
X0016260Y0057025D01*
X0016322Y0057114D01*
X0016387Y0057201D01*
X0016455Y0057285D01*
X0016526Y0057367D01*
X0016600Y0057446D01*
X0016677Y0057522D01*
X0016757Y0057596D01*
X0016840Y0057666D01*
X0016925Y0057734D01*
X0017012Y0057798D01*
X0017102Y0057859D01*
X0017194Y0057917D01*
X0017288Y0057971D01*
X0017384Y0058022D01*
X0017481Y0058069D01*
X0017581Y0058113D01*
X0017682Y0058153D01*
X0017784Y0058189D01*
X0017887Y0058221D01*
X0017992Y0058250D01*
X0018098Y0058274D01*
X0018204Y0058295D01*
X0018311Y0058312D01*
X0018419Y0058325D01*
X0018527Y0058334D01*
X0018636Y0058339D01*
X0018744Y0058340D01*
X0018853Y0058337D01*
X0018961Y0058330D01*
X0019069Y0058319D01*
X0019176Y0058304D01*
X0019283Y0058285D01*
X0019389Y0058262D01*
X0019494Y0058236D01*
X0019599Y0058205D01*
X0019701Y0058171D01*
X0019803Y0058133D01*
X0019903Y0058091D01*
X0020002Y0058046D01*
X0020099Y0057997D01*
X0020193Y0057944D01*
X0020286Y0057888D01*
X0020377Y0057829D01*
X0020466Y0057766D01*
X0020552Y0057701D01*
X0020636Y0057632D01*
X0020717Y0057560D01*
X0020795Y0057485D01*
X0020871Y0057407D01*
X0020944Y0057326D01*
X0021014Y0057243D01*
X0021080Y0057158D01*
X0021144Y0057070D01*
X0021204Y0056979D01*
X0021261Y0056887D01*
X0021314Y0056792D01*
X0021364Y0056696D01*
X0021410Y0056598D01*
X0021453Y0056498D01*
X0021492Y0056397D01*
X0021527Y0056294D01*
X0021559Y0056191D01*
X0021586Y0056086D01*
X0021610Y0055980D01*
X0021630Y0055873D01*
X0021646Y0055766D01*
X0021658Y0055658D01*
X0021666Y0055550D01*
X0021670Y0055441D01*
X0021670Y0055333D01*
X0021666Y0055224D01*
X0021658Y0055116D01*
X0021646Y0055008D01*
X0021630Y0054901D01*
X0021610Y0054794D01*
X0021586Y0054688D01*
X0021559Y0054583D01*
X0021527Y0054480D01*
X0021492Y0054377D01*
X0021453Y0054276D01*
X0021410Y0054176D01*
X0021364Y0054078D01*
X0021314Y0053982D01*
X0021261Y0053887D01*
X0021204Y0053795D01*
X0021144Y0053704D01*
X0021080Y0053616D01*
X0021014Y0053531D01*
X0020944Y0053448D01*
X0020871Y0053367D01*
X0020795Y0053289D01*
X0020717Y0053214D01*
X0020636Y0053142D01*
X0020552Y0053073D01*
X0020466Y0053008D01*
X0020377Y0052945D01*
X0020286Y0052886D01*
X0020194Y0052830D01*
X0020099Y0052777D01*
X0020002Y0052728D01*
X0019903Y0052683D01*
X0019803Y0052641D01*
X0019701Y0052603D01*
X0019599Y0052569D01*
X0019494Y0052538D01*
X0019389Y0052512D01*
X0019283Y0052489D01*
X0019176Y0052470D01*
X0019069Y0052455D01*
X0018961Y0052444D01*
X0018853Y0052437D01*
X0018744Y0052434D01*
X0018636Y0052435D01*
X0018527Y0052440D01*
X0018419Y0052449D01*
X0018311Y0052462D01*
X0018204Y0052479D01*
X0018098Y0052500D01*
X0017992Y0052524D01*
X0017887Y0052553D01*
X0017784Y0052585D01*
X0017682Y0052621D01*
X0017581Y0052661D01*
X0017481Y0052705D01*
X0017384Y0052752D01*
X0017288Y0052803D01*
X0017194Y0052857D01*
X0017102Y0052915D01*
X0017012Y0052976D01*
X0016925Y0053040D01*
X0016840Y0053108D01*
X0016757Y0053178D01*
X0016677Y0053252D01*
X0016600Y0053328D01*
X0016526Y0053407D01*
X0016455Y0053489D01*
X0016387Y0053573D01*
X0016322Y0053660D01*
X0016260Y0053749D01*
X0016201Y0053841D01*
X0016146Y0053934D01*
X0016095Y0054029D01*
X0016046Y0054127D01*
X0016002Y0054226D01*
X0015961Y0054326D01*
X0015924Y0054428D01*
X0015891Y0054531D01*
X0015861Y0054636D01*
X0015835Y0054741D01*
X0015814Y0054848D01*
X0015796Y0054955D01*
X0015782Y0055062D01*
X0015772Y0055170D01*
X0015766Y0055279D01*
X0015764Y0055387D01*
X0014780Y0067199D02*
X0014782Y0067324D01*
X0014788Y0067449D01*
X0014798Y0067573D01*
X0014812Y0067697D01*
X0014829Y0067821D01*
X0014851Y0067944D01*
X0014877Y0068066D01*
X0014906Y0068188D01*
X0014939Y0068308D01*
X0014977Y0068427D01*
X0015017Y0068546D01*
X0015062Y0068662D01*
X0015110Y0068777D01*
X0015162Y0068891D01*
X0015218Y0069003D01*
X0015277Y0069113D01*
X0015339Y0069221D01*
X0015405Y0069328D01*
X0015474Y0069432D01*
X0015547Y0069533D01*
X0015622Y0069633D01*
X0015701Y0069730D01*
X0015783Y0069824D01*
X0015868Y0069916D01*
X0015955Y0070005D01*
X0016046Y0070091D01*
X0016139Y0070174D01*
X0016235Y0070255D01*
X0016333Y0070332D01*
X0016433Y0070406D01*
X0016536Y0070477D01*
X0016641Y0070544D01*
X0016749Y0070609D01*
X0016858Y0070669D01*
X0016969Y0070727D01*
X0017082Y0070780D01*
X0017196Y0070830D01*
X0017312Y0070877D01*
X0017429Y0070919D01*
X0017548Y0070958D01*
X0017668Y0070994D01*
X0017789Y0071025D01*
X0017911Y0071053D01*
X0018033Y0071076D01*
X0018157Y0071096D01*
X0018281Y0071112D01*
X0018405Y0071124D01*
X0018530Y0071132D01*
X0018655Y0071136D01*
X0018779Y0071136D01*
X0018904Y0071132D01*
X0019029Y0071124D01*
X0019153Y0071112D01*
X0019277Y0071096D01*
X0019401Y0071076D01*
X0019523Y0071053D01*
X0019645Y0071025D01*
X0019766Y0070994D01*
X0019886Y0070958D01*
X0020005Y0070919D01*
X0020122Y0070877D01*
X0020238Y0070830D01*
X0020352Y0070780D01*
X0020465Y0070727D01*
X0020576Y0070669D01*
X0020686Y0070609D01*
X0020793Y0070544D01*
X0020898Y0070477D01*
X0021001Y0070406D01*
X0021101Y0070332D01*
X0021199Y0070255D01*
X0021295Y0070174D01*
X0021388Y0070091D01*
X0021479Y0070005D01*
X0021566Y0069916D01*
X0021651Y0069824D01*
X0021733Y0069730D01*
X0021812Y0069633D01*
X0021887Y0069533D01*
X0021960Y0069432D01*
X0022029Y0069328D01*
X0022095Y0069221D01*
X0022157Y0069113D01*
X0022216Y0069003D01*
X0022272Y0068891D01*
X0022324Y0068777D01*
X0022372Y0068662D01*
X0022417Y0068546D01*
X0022457Y0068427D01*
X0022495Y0068308D01*
X0022528Y0068188D01*
X0022557Y0068066D01*
X0022583Y0067944D01*
X0022605Y0067821D01*
X0022622Y0067697D01*
X0022636Y0067573D01*
X0022646Y0067449D01*
X0022652Y0067324D01*
X0022654Y0067199D01*
X0022652Y0067074D01*
X0022646Y0066949D01*
X0022636Y0066825D01*
X0022622Y0066701D01*
X0022605Y0066577D01*
X0022583Y0066454D01*
X0022557Y0066332D01*
X0022528Y0066210D01*
X0022495Y0066090D01*
X0022457Y0065971D01*
X0022417Y0065852D01*
X0022372Y0065736D01*
X0022324Y0065621D01*
X0022272Y0065507D01*
X0022216Y0065395D01*
X0022157Y0065285D01*
X0022095Y0065177D01*
X0022029Y0065070D01*
X0021960Y0064966D01*
X0021887Y0064865D01*
X0021812Y0064765D01*
X0021733Y0064668D01*
X0021651Y0064574D01*
X0021566Y0064482D01*
X0021479Y0064393D01*
X0021388Y0064307D01*
X0021295Y0064224D01*
X0021199Y0064143D01*
X0021101Y0064066D01*
X0021001Y0063992D01*
X0020898Y0063921D01*
X0020793Y0063854D01*
X0020685Y0063789D01*
X0020576Y0063729D01*
X0020465Y0063671D01*
X0020352Y0063618D01*
X0020238Y0063568D01*
X0020122Y0063521D01*
X0020005Y0063479D01*
X0019886Y0063440D01*
X0019766Y0063404D01*
X0019645Y0063373D01*
X0019523Y0063345D01*
X0019401Y0063322D01*
X0019277Y0063302D01*
X0019153Y0063286D01*
X0019029Y0063274D01*
X0018904Y0063266D01*
X0018779Y0063262D01*
X0018655Y0063262D01*
X0018530Y0063266D01*
X0018405Y0063274D01*
X0018281Y0063286D01*
X0018157Y0063302D01*
X0018033Y0063322D01*
X0017911Y0063345D01*
X0017789Y0063373D01*
X0017668Y0063404D01*
X0017548Y0063440D01*
X0017429Y0063479D01*
X0017312Y0063521D01*
X0017196Y0063568D01*
X0017082Y0063618D01*
X0016969Y0063671D01*
X0016858Y0063729D01*
X0016748Y0063789D01*
X0016641Y0063854D01*
X0016536Y0063921D01*
X0016433Y0063992D01*
X0016333Y0064066D01*
X0016235Y0064143D01*
X0016139Y0064224D01*
X0016046Y0064307D01*
X0015955Y0064393D01*
X0015868Y0064482D01*
X0015783Y0064574D01*
X0015701Y0064668D01*
X0015622Y0064765D01*
X0015547Y0064865D01*
X0015474Y0064966D01*
X0015405Y0065070D01*
X0015339Y0065177D01*
X0015277Y0065285D01*
X0015218Y0065395D01*
X0015162Y0065507D01*
X0015110Y0065621D01*
X0015062Y0065736D01*
X0015017Y0065852D01*
X0014977Y0065971D01*
X0014939Y0066090D01*
X0014906Y0066210D01*
X0014877Y0066332D01*
X0014851Y0066454D01*
X0014829Y0066577D01*
X0014812Y0066701D01*
X0014798Y0066825D01*
X0014788Y0066949D01*
X0014782Y0067074D01*
X0014780Y0067199D01*
X0005921Y0067199D02*
X0005923Y0067307D01*
X0005929Y0067416D01*
X0005939Y0067524D01*
X0005953Y0067631D01*
X0005971Y0067738D01*
X0005992Y0067845D01*
X0006018Y0067950D01*
X0006048Y0068055D01*
X0006081Y0068158D01*
X0006118Y0068260D01*
X0006159Y0068360D01*
X0006203Y0068459D01*
X0006252Y0068557D01*
X0006303Y0068652D01*
X0006358Y0068745D01*
X0006417Y0068837D01*
X0006479Y0068926D01*
X0006544Y0069013D01*
X0006612Y0069097D01*
X0006683Y0069179D01*
X0006757Y0069258D01*
X0006834Y0069334D01*
X0006914Y0069408D01*
X0006997Y0069478D01*
X0007082Y0069546D01*
X0007169Y0069610D01*
X0007259Y0069671D01*
X0007351Y0069729D01*
X0007445Y0069783D01*
X0007541Y0069834D01*
X0007638Y0069881D01*
X0007738Y0069925D01*
X0007839Y0069965D01*
X0007941Y0070001D01*
X0008044Y0070033D01*
X0008149Y0070062D01*
X0008255Y0070086D01*
X0008361Y0070107D01*
X0008468Y0070124D01*
X0008576Y0070137D01*
X0008684Y0070146D01*
X0008793Y0070151D01*
X0008901Y0070152D01*
X0009010Y0070149D01*
X0009118Y0070142D01*
X0009226Y0070131D01*
X0009333Y0070116D01*
X0009440Y0070097D01*
X0009546Y0070074D01*
X0009651Y0070048D01*
X0009756Y0070017D01*
X0009858Y0069983D01*
X0009960Y0069945D01*
X0010060Y0069903D01*
X0010159Y0069858D01*
X0010256Y0069809D01*
X0010350Y0069756D01*
X0010443Y0069700D01*
X0010534Y0069641D01*
X0010623Y0069578D01*
X0010709Y0069513D01*
X0010793Y0069444D01*
X0010874Y0069372D01*
X0010952Y0069297D01*
X0011028Y0069219D01*
X0011101Y0069138D01*
X0011171Y0069055D01*
X0011237Y0068970D01*
X0011301Y0068882D01*
X0011361Y0068791D01*
X0011418Y0068699D01*
X0011471Y0068604D01*
X0011521Y0068508D01*
X0011567Y0068410D01*
X0011610Y0068310D01*
X0011649Y0068209D01*
X0011684Y0068106D01*
X0011716Y0068003D01*
X0011743Y0067898D01*
X0011767Y0067792D01*
X0011787Y0067685D01*
X0011803Y0067578D01*
X0011815Y0067470D01*
X0011823Y0067362D01*
X0011827Y0067253D01*
X0011827Y0067145D01*
X0011823Y0067036D01*
X0011815Y0066928D01*
X0011803Y0066820D01*
X0011787Y0066713D01*
X0011767Y0066606D01*
X0011743Y0066500D01*
X0011716Y0066395D01*
X0011684Y0066292D01*
X0011649Y0066189D01*
X0011610Y0066088D01*
X0011567Y0065988D01*
X0011521Y0065890D01*
X0011471Y0065794D01*
X0011418Y0065699D01*
X0011361Y0065607D01*
X0011301Y0065516D01*
X0011237Y0065428D01*
X0011171Y0065343D01*
X0011101Y0065260D01*
X0011028Y0065179D01*
X0010952Y0065101D01*
X0010874Y0065026D01*
X0010793Y0064954D01*
X0010709Y0064885D01*
X0010623Y0064820D01*
X0010534Y0064757D01*
X0010443Y0064698D01*
X0010351Y0064642D01*
X0010256Y0064589D01*
X0010159Y0064540D01*
X0010060Y0064495D01*
X0009960Y0064453D01*
X0009858Y0064415D01*
X0009756Y0064381D01*
X0009651Y0064350D01*
X0009546Y0064324D01*
X0009440Y0064301D01*
X0009333Y0064282D01*
X0009226Y0064267D01*
X0009118Y0064256D01*
X0009010Y0064249D01*
X0008901Y0064246D01*
X0008793Y0064247D01*
X0008684Y0064252D01*
X0008576Y0064261D01*
X0008468Y0064274D01*
X0008361Y0064291D01*
X0008255Y0064312D01*
X0008149Y0064336D01*
X0008044Y0064365D01*
X0007941Y0064397D01*
X0007839Y0064433D01*
X0007738Y0064473D01*
X0007638Y0064517D01*
X0007541Y0064564D01*
X0007445Y0064615D01*
X0007351Y0064669D01*
X0007259Y0064727D01*
X0007169Y0064788D01*
X0007082Y0064852D01*
X0006997Y0064920D01*
X0006914Y0064990D01*
X0006834Y0065064D01*
X0006757Y0065140D01*
X0006683Y0065219D01*
X0006612Y0065301D01*
X0006544Y0065385D01*
X0006479Y0065472D01*
X0006417Y0065561D01*
X0006358Y0065653D01*
X0006303Y0065746D01*
X0006252Y0065841D01*
X0006203Y0065939D01*
X0006159Y0066038D01*
X0006118Y0066138D01*
X0006081Y0066240D01*
X0006048Y0066343D01*
X0006018Y0066448D01*
X0005992Y0066553D01*
X0005971Y0066660D01*
X0005953Y0066767D01*
X0005939Y0066874D01*
X0005929Y0066982D01*
X0005923Y0067091D01*
X0005921Y0067199D01*
X0015764Y0079010D02*
X0015766Y0079118D01*
X0015772Y0079227D01*
X0015782Y0079335D01*
X0015796Y0079442D01*
X0015814Y0079549D01*
X0015835Y0079656D01*
X0015861Y0079761D01*
X0015891Y0079866D01*
X0015924Y0079969D01*
X0015961Y0080071D01*
X0016002Y0080171D01*
X0016046Y0080270D01*
X0016095Y0080368D01*
X0016146Y0080463D01*
X0016201Y0080556D01*
X0016260Y0080648D01*
X0016322Y0080737D01*
X0016387Y0080824D01*
X0016455Y0080908D01*
X0016526Y0080990D01*
X0016600Y0081069D01*
X0016677Y0081145D01*
X0016757Y0081219D01*
X0016840Y0081289D01*
X0016925Y0081357D01*
X0017012Y0081421D01*
X0017102Y0081482D01*
X0017194Y0081540D01*
X0017288Y0081594D01*
X0017384Y0081645D01*
X0017481Y0081692D01*
X0017581Y0081736D01*
X0017682Y0081776D01*
X0017784Y0081812D01*
X0017887Y0081844D01*
X0017992Y0081873D01*
X0018098Y0081897D01*
X0018204Y0081918D01*
X0018311Y0081935D01*
X0018419Y0081948D01*
X0018527Y0081957D01*
X0018636Y0081962D01*
X0018744Y0081963D01*
X0018853Y0081960D01*
X0018961Y0081953D01*
X0019069Y0081942D01*
X0019176Y0081927D01*
X0019283Y0081908D01*
X0019389Y0081885D01*
X0019494Y0081859D01*
X0019599Y0081828D01*
X0019701Y0081794D01*
X0019803Y0081756D01*
X0019903Y0081714D01*
X0020002Y0081669D01*
X0020099Y0081620D01*
X0020193Y0081567D01*
X0020286Y0081511D01*
X0020377Y0081452D01*
X0020466Y0081389D01*
X0020552Y0081324D01*
X0020636Y0081255D01*
X0020717Y0081183D01*
X0020795Y0081108D01*
X0020871Y0081030D01*
X0020944Y0080949D01*
X0021014Y0080866D01*
X0021080Y0080781D01*
X0021144Y0080693D01*
X0021204Y0080602D01*
X0021261Y0080510D01*
X0021314Y0080415D01*
X0021364Y0080319D01*
X0021410Y0080221D01*
X0021453Y0080121D01*
X0021492Y0080020D01*
X0021527Y0079917D01*
X0021559Y0079814D01*
X0021586Y0079709D01*
X0021610Y0079603D01*
X0021630Y0079496D01*
X0021646Y0079389D01*
X0021658Y0079281D01*
X0021666Y0079173D01*
X0021670Y0079064D01*
X0021670Y0078956D01*
X0021666Y0078847D01*
X0021658Y0078739D01*
X0021646Y0078631D01*
X0021630Y0078524D01*
X0021610Y0078417D01*
X0021586Y0078311D01*
X0021559Y0078206D01*
X0021527Y0078103D01*
X0021492Y0078000D01*
X0021453Y0077899D01*
X0021410Y0077799D01*
X0021364Y0077701D01*
X0021314Y0077605D01*
X0021261Y0077510D01*
X0021204Y0077418D01*
X0021144Y0077327D01*
X0021080Y0077239D01*
X0021014Y0077154D01*
X0020944Y0077071D01*
X0020871Y0076990D01*
X0020795Y0076912D01*
X0020717Y0076837D01*
X0020636Y0076765D01*
X0020552Y0076696D01*
X0020466Y0076631D01*
X0020377Y0076568D01*
X0020286Y0076509D01*
X0020194Y0076453D01*
X0020099Y0076400D01*
X0020002Y0076351D01*
X0019903Y0076306D01*
X0019803Y0076264D01*
X0019701Y0076226D01*
X0019599Y0076192D01*
X0019494Y0076161D01*
X0019389Y0076135D01*
X0019283Y0076112D01*
X0019176Y0076093D01*
X0019069Y0076078D01*
X0018961Y0076067D01*
X0018853Y0076060D01*
X0018744Y0076057D01*
X0018636Y0076058D01*
X0018527Y0076063D01*
X0018419Y0076072D01*
X0018311Y0076085D01*
X0018204Y0076102D01*
X0018098Y0076123D01*
X0017992Y0076147D01*
X0017887Y0076176D01*
X0017784Y0076208D01*
X0017682Y0076244D01*
X0017581Y0076284D01*
X0017481Y0076328D01*
X0017384Y0076375D01*
X0017288Y0076426D01*
X0017194Y0076480D01*
X0017102Y0076538D01*
X0017012Y0076599D01*
X0016925Y0076663D01*
X0016840Y0076731D01*
X0016757Y0076801D01*
X0016677Y0076875D01*
X0016600Y0076951D01*
X0016526Y0077030D01*
X0016455Y0077112D01*
X0016387Y0077196D01*
X0016322Y0077283D01*
X0016260Y0077372D01*
X0016201Y0077464D01*
X0016146Y0077557D01*
X0016095Y0077652D01*
X0016046Y0077750D01*
X0016002Y0077849D01*
X0015961Y0077949D01*
X0015924Y0078051D01*
X0015891Y0078154D01*
X0015861Y0078259D01*
X0015835Y0078364D01*
X0015814Y0078471D01*
X0015796Y0078578D01*
X0015782Y0078685D01*
X0015772Y0078793D01*
X0015766Y0078902D01*
X0015764Y0079010D01*
X0016748Y0086884D02*
X0016750Y0086972D01*
X0016756Y0087060D01*
X0016766Y0087148D01*
X0016780Y0087236D01*
X0016797Y0087322D01*
X0016819Y0087408D01*
X0016844Y0087492D01*
X0016874Y0087576D01*
X0016906Y0087658D01*
X0016943Y0087738D01*
X0016983Y0087817D01*
X0017027Y0087894D01*
X0017074Y0087969D01*
X0017124Y0088041D01*
X0017178Y0088112D01*
X0017234Y0088179D01*
X0017294Y0088245D01*
X0017356Y0088307D01*
X0017422Y0088367D01*
X0017489Y0088423D01*
X0017560Y0088477D01*
X0017632Y0088527D01*
X0017707Y0088574D01*
X0017784Y0088618D01*
X0017863Y0088658D01*
X0017943Y0088695D01*
X0018025Y0088727D01*
X0018109Y0088757D01*
X0018193Y0088782D01*
X0018279Y0088804D01*
X0018365Y0088821D01*
X0018453Y0088835D01*
X0018541Y0088845D01*
X0018629Y0088851D01*
X0018717Y0088853D01*
X0018805Y0088851D01*
X0018893Y0088845D01*
X0018981Y0088835D01*
X0019069Y0088821D01*
X0019155Y0088804D01*
X0019241Y0088782D01*
X0019325Y0088757D01*
X0019409Y0088727D01*
X0019491Y0088695D01*
X0019571Y0088658D01*
X0019650Y0088618D01*
X0019727Y0088574D01*
X0019802Y0088527D01*
X0019874Y0088477D01*
X0019945Y0088423D01*
X0020012Y0088367D01*
X0020078Y0088307D01*
X0020140Y0088245D01*
X0020200Y0088179D01*
X0020256Y0088112D01*
X0020310Y0088041D01*
X0020360Y0087969D01*
X0020407Y0087894D01*
X0020451Y0087817D01*
X0020491Y0087738D01*
X0020528Y0087658D01*
X0020560Y0087576D01*
X0020590Y0087492D01*
X0020615Y0087408D01*
X0020637Y0087322D01*
X0020654Y0087236D01*
X0020668Y0087148D01*
X0020678Y0087060D01*
X0020684Y0086972D01*
X0020686Y0086884D01*
X0020684Y0086796D01*
X0020678Y0086708D01*
X0020668Y0086620D01*
X0020654Y0086532D01*
X0020637Y0086446D01*
X0020615Y0086360D01*
X0020590Y0086276D01*
X0020560Y0086192D01*
X0020528Y0086110D01*
X0020491Y0086030D01*
X0020451Y0085951D01*
X0020407Y0085874D01*
X0020360Y0085799D01*
X0020310Y0085727D01*
X0020256Y0085656D01*
X0020200Y0085589D01*
X0020140Y0085523D01*
X0020078Y0085461D01*
X0020012Y0085401D01*
X0019945Y0085345D01*
X0019874Y0085291D01*
X0019802Y0085241D01*
X0019727Y0085194D01*
X0019650Y0085150D01*
X0019571Y0085110D01*
X0019491Y0085073D01*
X0019409Y0085041D01*
X0019325Y0085011D01*
X0019241Y0084986D01*
X0019155Y0084964D01*
X0019069Y0084947D01*
X0018981Y0084933D01*
X0018893Y0084923D01*
X0018805Y0084917D01*
X0018717Y0084915D01*
X0018629Y0084917D01*
X0018541Y0084923D01*
X0018453Y0084933D01*
X0018365Y0084947D01*
X0018279Y0084964D01*
X0018193Y0084986D01*
X0018109Y0085011D01*
X0018025Y0085041D01*
X0017943Y0085073D01*
X0017863Y0085110D01*
X0017784Y0085150D01*
X0017707Y0085194D01*
X0017632Y0085241D01*
X0017560Y0085291D01*
X0017489Y0085345D01*
X0017422Y0085401D01*
X0017356Y0085461D01*
X0017294Y0085523D01*
X0017234Y0085589D01*
X0017178Y0085656D01*
X0017124Y0085727D01*
X0017074Y0085799D01*
X0017027Y0085874D01*
X0016983Y0085951D01*
X0016943Y0086030D01*
X0016906Y0086110D01*
X0016874Y0086192D01*
X0016844Y0086276D01*
X0016819Y0086360D01*
X0016797Y0086446D01*
X0016780Y0086532D01*
X0016766Y0086620D01*
X0016756Y0086708D01*
X0016750Y0086796D01*
X0016748Y0086884D01*
X0025606Y0067199D02*
X0025608Y0067307D01*
X0025614Y0067416D01*
X0025624Y0067524D01*
X0025638Y0067631D01*
X0025656Y0067738D01*
X0025677Y0067845D01*
X0025703Y0067950D01*
X0025733Y0068055D01*
X0025766Y0068158D01*
X0025803Y0068260D01*
X0025844Y0068360D01*
X0025888Y0068459D01*
X0025937Y0068557D01*
X0025988Y0068652D01*
X0026043Y0068745D01*
X0026102Y0068837D01*
X0026164Y0068926D01*
X0026229Y0069013D01*
X0026297Y0069097D01*
X0026368Y0069179D01*
X0026442Y0069258D01*
X0026519Y0069334D01*
X0026599Y0069408D01*
X0026682Y0069478D01*
X0026767Y0069546D01*
X0026854Y0069610D01*
X0026944Y0069671D01*
X0027036Y0069729D01*
X0027130Y0069783D01*
X0027226Y0069834D01*
X0027323Y0069881D01*
X0027423Y0069925D01*
X0027524Y0069965D01*
X0027626Y0070001D01*
X0027729Y0070033D01*
X0027834Y0070062D01*
X0027940Y0070086D01*
X0028046Y0070107D01*
X0028153Y0070124D01*
X0028261Y0070137D01*
X0028369Y0070146D01*
X0028478Y0070151D01*
X0028586Y0070152D01*
X0028695Y0070149D01*
X0028803Y0070142D01*
X0028911Y0070131D01*
X0029018Y0070116D01*
X0029125Y0070097D01*
X0029231Y0070074D01*
X0029336Y0070048D01*
X0029441Y0070017D01*
X0029543Y0069983D01*
X0029645Y0069945D01*
X0029745Y0069903D01*
X0029844Y0069858D01*
X0029941Y0069809D01*
X0030035Y0069756D01*
X0030128Y0069700D01*
X0030219Y0069641D01*
X0030308Y0069578D01*
X0030394Y0069513D01*
X0030478Y0069444D01*
X0030559Y0069372D01*
X0030637Y0069297D01*
X0030713Y0069219D01*
X0030786Y0069138D01*
X0030856Y0069055D01*
X0030922Y0068970D01*
X0030986Y0068882D01*
X0031046Y0068791D01*
X0031103Y0068699D01*
X0031156Y0068604D01*
X0031206Y0068508D01*
X0031252Y0068410D01*
X0031295Y0068310D01*
X0031334Y0068209D01*
X0031369Y0068106D01*
X0031401Y0068003D01*
X0031428Y0067898D01*
X0031452Y0067792D01*
X0031472Y0067685D01*
X0031488Y0067578D01*
X0031500Y0067470D01*
X0031508Y0067362D01*
X0031512Y0067253D01*
X0031512Y0067145D01*
X0031508Y0067036D01*
X0031500Y0066928D01*
X0031488Y0066820D01*
X0031472Y0066713D01*
X0031452Y0066606D01*
X0031428Y0066500D01*
X0031401Y0066395D01*
X0031369Y0066292D01*
X0031334Y0066189D01*
X0031295Y0066088D01*
X0031252Y0065988D01*
X0031206Y0065890D01*
X0031156Y0065794D01*
X0031103Y0065699D01*
X0031046Y0065607D01*
X0030986Y0065516D01*
X0030922Y0065428D01*
X0030856Y0065343D01*
X0030786Y0065260D01*
X0030713Y0065179D01*
X0030637Y0065101D01*
X0030559Y0065026D01*
X0030478Y0064954D01*
X0030394Y0064885D01*
X0030308Y0064820D01*
X0030219Y0064757D01*
X0030128Y0064698D01*
X0030036Y0064642D01*
X0029941Y0064589D01*
X0029844Y0064540D01*
X0029745Y0064495D01*
X0029645Y0064453D01*
X0029543Y0064415D01*
X0029441Y0064381D01*
X0029336Y0064350D01*
X0029231Y0064324D01*
X0029125Y0064301D01*
X0029018Y0064282D01*
X0028911Y0064267D01*
X0028803Y0064256D01*
X0028695Y0064249D01*
X0028586Y0064246D01*
X0028478Y0064247D01*
X0028369Y0064252D01*
X0028261Y0064261D01*
X0028153Y0064274D01*
X0028046Y0064291D01*
X0027940Y0064312D01*
X0027834Y0064336D01*
X0027729Y0064365D01*
X0027626Y0064397D01*
X0027524Y0064433D01*
X0027423Y0064473D01*
X0027323Y0064517D01*
X0027226Y0064564D01*
X0027130Y0064615D01*
X0027036Y0064669D01*
X0026944Y0064727D01*
X0026854Y0064788D01*
X0026767Y0064852D01*
X0026682Y0064920D01*
X0026599Y0064990D01*
X0026519Y0065064D01*
X0026442Y0065140D01*
X0026368Y0065219D01*
X0026297Y0065301D01*
X0026229Y0065385D01*
X0026164Y0065472D01*
X0026102Y0065561D01*
X0026043Y0065653D01*
X0025988Y0065746D01*
X0025937Y0065841D01*
X0025888Y0065939D01*
X0025844Y0066038D01*
X0025803Y0066138D01*
X0025766Y0066240D01*
X0025733Y0066343D01*
X0025703Y0066448D01*
X0025677Y0066553D01*
X0025656Y0066660D01*
X0025638Y0066767D01*
X0025624Y0066874D01*
X0025614Y0066982D01*
X0025608Y0067091D01*
X0025606Y0067199D01*
X0069897Y0123399D02*
X0069899Y0123470D01*
X0069905Y0123541D01*
X0069915Y0123612D01*
X0069929Y0123681D01*
X0069946Y0123750D01*
X0069968Y0123818D01*
X0069993Y0123885D01*
X0070022Y0123950D01*
X0070054Y0124013D01*
X0070090Y0124075D01*
X0070129Y0124134D01*
X0070172Y0124191D01*
X0070217Y0124246D01*
X0070266Y0124298D01*
X0070317Y0124347D01*
X0070371Y0124393D01*
X0070428Y0124437D01*
X0070486Y0124477D01*
X0070547Y0124513D01*
X0070610Y0124547D01*
X0070675Y0124576D01*
X0070741Y0124602D01*
X0070809Y0124625D01*
X0070877Y0124643D01*
X0070947Y0124658D01*
X0071017Y0124669D01*
X0071088Y0124676D01*
X0071159Y0124679D01*
X0071230Y0124678D01*
X0071301Y0124673D01*
X0071372Y0124664D01*
X0071442Y0124651D01*
X0071511Y0124635D01*
X0071579Y0124614D01*
X0071646Y0124590D01*
X0071712Y0124562D01*
X0071775Y0124530D01*
X0071837Y0124495D01*
X0071897Y0124457D01*
X0071955Y0124415D01*
X0072010Y0124371D01*
X0072063Y0124323D01*
X0072113Y0124272D01*
X0072160Y0124219D01*
X0072204Y0124163D01*
X0072245Y0124105D01*
X0072283Y0124044D01*
X0072317Y0123982D01*
X0072347Y0123917D01*
X0072374Y0123852D01*
X0072398Y0123784D01*
X0072417Y0123716D01*
X0072433Y0123647D01*
X0072445Y0123576D01*
X0072453Y0123506D01*
X0072457Y0123435D01*
X0072457Y0123363D01*
X0072453Y0123292D01*
X0072445Y0123222D01*
X0072433Y0123151D01*
X0072417Y0123082D01*
X0072398Y0123014D01*
X0072374Y0122946D01*
X0072347Y0122881D01*
X0072317Y0122816D01*
X0072283Y0122754D01*
X0072245Y0122693D01*
X0072204Y0122635D01*
X0072160Y0122579D01*
X0072113Y0122526D01*
X0072063Y0122475D01*
X0072010Y0122427D01*
X0071955Y0122383D01*
X0071897Y0122341D01*
X0071837Y0122303D01*
X0071775Y0122268D01*
X0071712Y0122236D01*
X0071646Y0122208D01*
X0071579Y0122184D01*
X0071511Y0122163D01*
X0071442Y0122147D01*
X0071372Y0122134D01*
X0071301Y0122125D01*
X0071230Y0122120D01*
X0071159Y0122119D01*
X0071088Y0122122D01*
X0071017Y0122129D01*
X0070947Y0122140D01*
X0070877Y0122155D01*
X0070809Y0122173D01*
X0070741Y0122196D01*
X0070675Y0122222D01*
X0070610Y0122251D01*
X0070547Y0122285D01*
X0070486Y0122321D01*
X0070428Y0122361D01*
X0070371Y0122405D01*
X0070317Y0122451D01*
X0070266Y0122500D01*
X0070217Y0122552D01*
X0070172Y0122607D01*
X0070129Y0122664D01*
X0070090Y0122723D01*
X0070054Y0122785D01*
X0070022Y0122848D01*
X0069993Y0122913D01*
X0069968Y0122980D01*
X0069946Y0123048D01*
X0069929Y0123117D01*
X0069915Y0123186D01*
X0069905Y0123257D01*
X0069899Y0123328D01*
X0069897Y0123399D01*
X0069897Y0151746D02*
X0069899Y0151817D01*
X0069905Y0151888D01*
X0069915Y0151959D01*
X0069929Y0152028D01*
X0069946Y0152097D01*
X0069968Y0152165D01*
X0069993Y0152232D01*
X0070022Y0152297D01*
X0070054Y0152360D01*
X0070090Y0152422D01*
X0070129Y0152481D01*
X0070172Y0152538D01*
X0070217Y0152593D01*
X0070266Y0152645D01*
X0070317Y0152694D01*
X0070371Y0152740D01*
X0070428Y0152784D01*
X0070486Y0152824D01*
X0070547Y0152860D01*
X0070610Y0152894D01*
X0070675Y0152923D01*
X0070741Y0152949D01*
X0070809Y0152972D01*
X0070877Y0152990D01*
X0070947Y0153005D01*
X0071017Y0153016D01*
X0071088Y0153023D01*
X0071159Y0153026D01*
X0071230Y0153025D01*
X0071301Y0153020D01*
X0071372Y0153011D01*
X0071442Y0152998D01*
X0071511Y0152982D01*
X0071579Y0152961D01*
X0071646Y0152937D01*
X0071712Y0152909D01*
X0071775Y0152877D01*
X0071837Y0152842D01*
X0071897Y0152804D01*
X0071955Y0152762D01*
X0072010Y0152718D01*
X0072063Y0152670D01*
X0072113Y0152619D01*
X0072160Y0152566D01*
X0072204Y0152510D01*
X0072245Y0152452D01*
X0072283Y0152391D01*
X0072317Y0152329D01*
X0072347Y0152264D01*
X0072374Y0152199D01*
X0072398Y0152131D01*
X0072417Y0152063D01*
X0072433Y0151994D01*
X0072445Y0151923D01*
X0072453Y0151853D01*
X0072457Y0151782D01*
X0072457Y0151710D01*
X0072453Y0151639D01*
X0072445Y0151569D01*
X0072433Y0151498D01*
X0072417Y0151429D01*
X0072398Y0151361D01*
X0072374Y0151293D01*
X0072347Y0151228D01*
X0072317Y0151163D01*
X0072283Y0151101D01*
X0072245Y0151040D01*
X0072204Y0150982D01*
X0072160Y0150926D01*
X0072113Y0150873D01*
X0072063Y0150822D01*
X0072010Y0150774D01*
X0071955Y0150730D01*
X0071897Y0150688D01*
X0071837Y0150650D01*
X0071775Y0150615D01*
X0071712Y0150583D01*
X0071646Y0150555D01*
X0071579Y0150531D01*
X0071511Y0150510D01*
X0071442Y0150494D01*
X0071372Y0150481D01*
X0071301Y0150472D01*
X0071230Y0150467D01*
X0071159Y0150466D01*
X0071088Y0150469D01*
X0071017Y0150476D01*
X0070947Y0150487D01*
X0070877Y0150502D01*
X0070809Y0150520D01*
X0070741Y0150543D01*
X0070675Y0150569D01*
X0070610Y0150598D01*
X0070547Y0150632D01*
X0070486Y0150668D01*
X0070428Y0150708D01*
X0070371Y0150752D01*
X0070317Y0150798D01*
X0070266Y0150847D01*
X0070217Y0150899D01*
X0070172Y0150954D01*
X0070129Y0151011D01*
X0070090Y0151070D01*
X0070054Y0151132D01*
X0070022Y0151195D01*
X0069993Y0151260D01*
X0069968Y0151327D01*
X0069946Y0151395D01*
X0069929Y0151464D01*
X0069915Y0151533D01*
X0069905Y0151604D01*
X0069899Y0151675D01*
X0069897Y0151746D01*
X0143913Y0237080D02*
X0143915Y0237168D01*
X0143921Y0237256D01*
X0143931Y0237344D01*
X0143945Y0237432D01*
X0143962Y0237518D01*
X0143984Y0237604D01*
X0144009Y0237688D01*
X0144039Y0237772D01*
X0144071Y0237854D01*
X0144108Y0237934D01*
X0144148Y0238013D01*
X0144192Y0238090D01*
X0144239Y0238165D01*
X0144289Y0238237D01*
X0144343Y0238308D01*
X0144399Y0238375D01*
X0144459Y0238441D01*
X0144521Y0238503D01*
X0144587Y0238563D01*
X0144654Y0238619D01*
X0144725Y0238673D01*
X0144797Y0238723D01*
X0144872Y0238770D01*
X0144949Y0238814D01*
X0145028Y0238854D01*
X0145108Y0238891D01*
X0145190Y0238923D01*
X0145274Y0238953D01*
X0145358Y0238978D01*
X0145444Y0239000D01*
X0145530Y0239017D01*
X0145618Y0239031D01*
X0145706Y0239041D01*
X0145794Y0239047D01*
X0145882Y0239049D01*
X0145970Y0239047D01*
X0146058Y0239041D01*
X0146146Y0239031D01*
X0146234Y0239017D01*
X0146320Y0239000D01*
X0146406Y0238978D01*
X0146490Y0238953D01*
X0146574Y0238923D01*
X0146656Y0238891D01*
X0146736Y0238854D01*
X0146815Y0238814D01*
X0146892Y0238770D01*
X0146967Y0238723D01*
X0147039Y0238673D01*
X0147110Y0238619D01*
X0147177Y0238563D01*
X0147243Y0238503D01*
X0147305Y0238441D01*
X0147365Y0238375D01*
X0147421Y0238308D01*
X0147475Y0238237D01*
X0147525Y0238165D01*
X0147572Y0238090D01*
X0147616Y0238013D01*
X0147656Y0237934D01*
X0147693Y0237854D01*
X0147725Y0237772D01*
X0147755Y0237688D01*
X0147780Y0237604D01*
X0147802Y0237518D01*
X0147819Y0237432D01*
X0147833Y0237344D01*
X0147843Y0237256D01*
X0147849Y0237168D01*
X0147851Y0237080D01*
X0147849Y0236992D01*
X0147843Y0236904D01*
X0147833Y0236816D01*
X0147819Y0236728D01*
X0147802Y0236642D01*
X0147780Y0236556D01*
X0147755Y0236472D01*
X0147725Y0236388D01*
X0147693Y0236306D01*
X0147656Y0236226D01*
X0147616Y0236147D01*
X0147572Y0236070D01*
X0147525Y0235995D01*
X0147475Y0235923D01*
X0147421Y0235852D01*
X0147365Y0235785D01*
X0147305Y0235719D01*
X0147243Y0235657D01*
X0147177Y0235597D01*
X0147110Y0235541D01*
X0147039Y0235487D01*
X0146967Y0235437D01*
X0146892Y0235390D01*
X0146815Y0235346D01*
X0146736Y0235306D01*
X0146656Y0235269D01*
X0146574Y0235237D01*
X0146490Y0235207D01*
X0146406Y0235182D01*
X0146320Y0235160D01*
X0146234Y0235143D01*
X0146146Y0235129D01*
X0146058Y0235119D01*
X0145970Y0235113D01*
X0145882Y0235111D01*
X0145794Y0235113D01*
X0145706Y0235119D01*
X0145618Y0235129D01*
X0145530Y0235143D01*
X0145444Y0235160D01*
X0145358Y0235182D01*
X0145274Y0235207D01*
X0145190Y0235237D01*
X0145108Y0235269D01*
X0145028Y0235306D01*
X0144949Y0235346D01*
X0144872Y0235390D01*
X0144797Y0235437D01*
X0144725Y0235487D01*
X0144654Y0235541D01*
X0144587Y0235597D01*
X0144521Y0235657D01*
X0144459Y0235719D01*
X0144399Y0235785D01*
X0144343Y0235852D01*
X0144289Y0235923D01*
X0144239Y0235995D01*
X0144192Y0236070D01*
X0144148Y0236147D01*
X0144108Y0236226D01*
X0144071Y0236306D01*
X0144039Y0236388D01*
X0144009Y0236472D01*
X0143984Y0236556D01*
X0143962Y0236642D01*
X0143945Y0236728D01*
X0143931Y0236816D01*
X0143921Y0236904D01*
X0143915Y0236992D01*
X0143913Y0237080D01*
X0176393Y0237080D02*
X0176395Y0237168D01*
X0176401Y0237256D01*
X0176411Y0237344D01*
X0176425Y0237432D01*
X0176442Y0237518D01*
X0176464Y0237604D01*
X0176489Y0237688D01*
X0176519Y0237772D01*
X0176551Y0237854D01*
X0176588Y0237934D01*
X0176628Y0238013D01*
X0176672Y0238090D01*
X0176719Y0238165D01*
X0176769Y0238237D01*
X0176823Y0238308D01*
X0176879Y0238375D01*
X0176939Y0238441D01*
X0177001Y0238503D01*
X0177067Y0238563D01*
X0177134Y0238619D01*
X0177205Y0238673D01*
X0177277Y0238723D01*
X0177352Y0238770D01*
X0177429Y0238814D01*
X0177508Y0238854D01*
X0177588Y0238891D01*
X0177670Y0238923D01*
X0177754Y0238953D01*
X0177838Y0238978D01*
X0177924Y0239000D01*
X0178010Y0239017D01*
X0178098Y0239031D01*
X0178186Y0239041D01*
X0178274Y0239047D01*
X0178362Y0239049D01*
X0178450Y0239047D01*
X0178538Y0239041D01*
X0178626Y0239031D01*
X0178714Y0239017D01*
X0178800Y0239000D01*
X0178886Y0238978D01*
X0178970Y0238953D01*
X0179054Y0238923D01*
X0179136Y0238891D01*
X0179216Y0238854D01*
X0179295Y0238814D01*
X0179372Y0238770D01*
X0179447Y0238723D01*
X0179519Y0238673D01*
X0179590Y0238619D01*
X0179657Y0238563D01*
X0179723Y0238503D01*
X0179785Y0238441D01*
X0179845Y0238375D01*
X0179901Y0238308D01*
X0179955Y0238237D01*
X0180005Y0238165D01*
X0180052Y0238090D01*
X0180096Y0238013D01*
X0180136Y0237934D01*
X0180173Y0237854D01*
X0180205Y0237772D01*
X0180235Y0237688D01*
X0180260Y0237604D01*
X0180282Y0237518D01*
X0180299Y0237432D01*
X0180313Y0237344D01*
X0180323Y0237256D01*
X0180329Y0237168D01*
X0180331Y0237080D01*
X0180329Y0236992D01*
X0180323Y0236904D01*
X0180313Y0236816D01*
X0180299Y0236728D01*
X0180282Y0236642D01*
X0180260Y0236556D01*
X0180235Y0236472D01*
X0180205Y0236388D01*
X0180173Y0236306D01*
X0180136Y0236226D01*
X0180096Y0236147D01*
X0180052Y0236070D01*
X0180005Y0235995D01*
X0179955Y0235923D01*
X0179901Y0235852D01*
X0179845Y0235785D01*
X0179785Y0235719D01*
X0179723Y0235657D01*
X0179657Y0235597D01*
X0179590Y0235541D01*
X0179519Y0235487D01*
X0179447Y0235437D01*
X0179372Y0235390D01*
X0179295Y0235346D01*
X0179216Y0235306D01*
X0179136Y0235269D01*
X0179054Y0235237D01*
X0178970Y0235207D01*
X0178886Y0235182D01*
X0178800Y0235160D01*
X0178714Y0235143D01*
X0178626Y0235129D01*
X0178538Y0235119D01*
X0178450Y0235113D01*
X0178362Y0235111D01*
X0178274Y0235113D01*
X0178186Y0235119D01*
X0178098Y0235129D01*
X0178010Y0235143D01*
X0177924Y0235160D01*
X0177838Y0235182D01*
X0177754Y0235207D01*
X0177670Y0235237D01*
X0177588Y0235269D01*
X0177508Y0235306D01*
X0177429Y0235346D01*
X0177352Y0235390D01*
X0177277Y0235437D01*
X0177205Y0235487D01*
X0177134Y0235541D01*
X0177067Y0235597D01*
X0177001Y0235657D01*
X0176939Y0235719D01*
X0176879Y0235785D01*
X0176823Y0235852D01*
X0176769Y0235923D01*
X0176719Y0235995D01*
X0176672Y0236070D01*
X0176628Y0236147D01*
X0176588Y0236226D01*
X0176551Y0236306D01*
X0176519Y0236388D01*
X0176489Y0236472D01*
X0176464Y0236556D01*
X0176442Y0236642D01*
X0176425Y0236728D01*
X0176411Y0236816D01*
X0176401Y0236904D01*
X0176395Y0236992D01*
X0176393Y0237080D01*
X0102181Y0249482D02*
X0102183Y0249566D01*
X0102189Y0249649D01*
X0102199Y0249732D01*
X0102213Y0249815D01*
X0102230Y0249897D01*
X0102252Y0249978D01*
X0102277Y0250057D01*
X0102306Y0250136D01*
X0102339Y0250213D01*
X0102375Y0250288D01*
X0102415Y0250362D01*
X0102458Y0250434D01*
X0102505Y0250503D01*
X0102555Y0250570D01*
X0102608Y0250635D01*
X0102664Y0250697D01*
X0102722Y0250757D01*
X0102784Y0250814D01*
X0102848Y0250867D01*
X0102915Y0250918D01*
X0102984Y0250965D01*
X0103055Y0251010D01*
X0103128Y0251050D01*
X0103203Y0251087D01*
X0103280Y0251121D01*
X0103358Y0251151D01*
X0103437Y0251177D01*
X0103518Y0251200D01*
X0103600Y0251218D01*
X0103682Y0251233D01*
X0103765Y0251244D01*
X0103848Y0251251D01*
X0103932Y0251254D01*
X0104016Y0251253D01*
X0104099Y0251248D01*
X0104183Y0251239D01*
X0104265Y0251226D01*
X0104347Y0251210D01*
X0104428Y0251189D01*
X0104509Y0251165D01*
X0104587Y0251137D01*
X0104665Y0251105D01*
X0104741Y0251069D01*
X0104815Y0251030D01*
X0104887Y0250988D01*
X0104957Y0250942D01*
X0105025Y0250893D01*
X0105090Y0250841D01*
X0105153Y0250786D01*
X0105213Y0250728D01*
X0105271Y0250667D01*
X0105325Y0250603D01*
X0105377Y0250537D01*
X0105425Y0250469D01*
X0105470Y0250398D01*
X0105511Y0250325D01*
X0105550Y0250251D01*
X0105584Y0250175D01*
X0105615Y0250097D01*
X0105642Y0250018D01*
X0105666Y0249937D01*
X0105685Y0249856D01*
X0105701Y0249774D01*
X0105713Y0249691D01*
X0105721Y0249607D01*
X0105725Y0249524D01*
X0105725Y0249440D01*
X0105721Y0249357D01*
X0105713Y0249273D01*
X0105701Y0249190D01*
X0105685Y0249108D01*
X0105666Y0249027D01*
X0105642Y0248946D01*
X0105615Y0248867D01*
X0105584Y0248789D01*
X0105550Y0248713D01*
X0105511Y0248639D01*
X0105470Y0248566D01*
X0105425Y0248495D01*
X0105377Y0248427D01*
X0105325Y0248361D01*
X0105271Y0248297D01*
X0105213Y0248236D01*
X0105153Y0248178D01*
X0105090Y0248123D01*
X0105025Y0248071D01*
X0104957Y0248022D01*
X0104887Y0247976D01*
X0104815Y0247934D01*
X0104741Y0247895D01*
X0104665Y0247859D01*
X0104587Y0247827D01*
X0104509Y0247799D01*
X0104428Y0247775D01*
X0104347Y0247754D01*
X0104265Y0247738D01*
X0104183Y0247725D01*
X0104099Y0247716D01*
X0104016Y0247711D01*
X0103932Y0247710D01*
X0103848Y0247713D01*
X0103765Y0247720D01*
X0103682Y0247731D01*
X0103600Y0247746D01*
X0103518Y0247764D01*
X0103437Y0247787D01*
X0103358Y0247813D01*
X0103280Y0247843D01*
X0103203Y0247877D01*
X0103128Y0247914D01*
X0103055Y0247954D01*
X0102984Y0247999D01*
X0102915Y0248046D01*
X0102848Y0248097D01*
X0102784Y0248150D01*
X0102722Y0248207D01*
X0102664Y0248267D01*
X0102608Y0248329D01*
X0102555Y0248394D01*
X0102505Y0248461D01*
X0102458Y0248530D01*
X0102415Y0248602D01*
X0102375Y0248676D01*
X0102339Y0248751D01*
X0102306Y0248828D01*
X0102277Y0248907D01*
X0102252Y0248986D01*
X0102230Y0249067D01*
X0102213Y0249149D01*
X0102199Y0249232D01*
X0102189Y0249315D01*
X0102183Y0249398D01*
X0102181Y0249482D01*
X0092338Y0249482D02*
X0092340Y0249566D01*
X0092346Y0249649D01*
X0092356Y0249732D01*
X0092370Y0249815D01*
X0092387Y0249897D01*
X0092409Y0249978D01*
X0092434Y0250057D01*
X0092463Y0250136D01*
X0092496Y0250213D01*
X0092532Y0250288D01*
X0092572Y0250362D01*
X0092615Y0250434D01*
X0092662Y0250503D01*
X0092712Y0250570D01*
X0092765Y0250635D01*
X0092821Y0250697D01*
X0092879Y0250757D01*
X0092941Y0250814D01*
X0093005Y0250867D01*
X0093072Y0250918D01*
X0093141Y0250965D01*
X0093212Y0251010D01*
X0093285Y0251050D01*
X0093360Y0251087D01*
X0093437Y0251121D01*
X0093515Y0251151D01*
X0093594Y0251177D01*
X0093675Y0251200D01*
X0093757Y0251218D01*
X0093839Y0251233D01*
X0093922Y0251244D01*
X0094005Y0251251D01*
X0094089Y0251254D01*
X0094173Y0251253D01*
X0094256Y0251248D01*
X0094340Y0251239D01*
X0094422Y0251226D01*
X0094504Y0251210D01*
X0094585Y0251189D01*
X0094666Y0251165D01*
X0094744Y0251137D01*
X0094822Y0251105D01*
X0094898Y0251069D01*
X0094972Y0251030D01*
X0095044Y0250988D01*
X0095114Y0250942D01*
X0095182Y0250893D01*
X0095247Y0250841D01*
X0095310Y0250786D01*
X0095370Y0250728D01*
X0095428Y0250667D01*
X0095482Y0250603D01*
X0095534Y0250537D01*
X0095582Y0250469D01*
X0095627Y0250398D01*
X0095668Y0250325D01*
X0095707Y0250251D01*
X0095741Y0250175D01*
X0095772Y0250097D01*
X0095799Y0250018D01*
X0095823Y0249937D01*
X0095842Y0249856D01*
X0095858Y0249774D01*
X0095870Y0249691D01*
X0095878Y0249607D01*
X0095882Y0249524D01*
X0095882Y0249440D01*
X0095878Y0249357D01*
X0095870Y0249273D01*
X0095858Y0249190D01*
X0095842Y0249108D01*
X0095823Y0249027D01*
X0095799Y0248946D01*
X0095772Y0248867D01*
X0095741Y0248789D01*
X0095707Y0248713D01*
X0095668Y0248639D01*
X0095627Y0248566D01*
X0095582Y0248495D01*
X0095534Y0248427D01*
X0095482Y0248361D01*
X0095428Y0248297D01*
X0095370Y0248236D01*
X0095310Y0248178D01*
X0095247Y0248123D01*
X0095182Y0248071D01*
X0095114Y0248022D01*
X0095044Y0247976D01*
X0094972Y0247934D01*
X0094898Y0247895D01*
X0094822Y0247859D01*
X0094744Y0247827D01*
X0094666Y0247799D01*
X0094585Y0247775D01*
X0094504Y0247754D01*
X0094422Y0247738D01*
X0094340Y0247725D01*
X0094256Y0247716D01*
X0094173Y0247711D01*
X0094089Y0247710D01*
X0094005Y0247713D01*
X0093922Y0247720D01*
X0093839Y0247731D01*
X0093757Y0247746D01*
X0093675Y0247764D01*
X0093594Y0247787D01*
X0093515Y0247813D01*
X0093437Y0247843D01*
X0093360Y0247877D01*
X0093285Y0247914D01*
X0093212Y0247954D01*
X0093141Y0247999D01*
X0093072Y0248046D01*
X0093005Y0248097D01*
X0092941Y0248150D01*
X0092879Y0248207D01*
X0092821Y0248267D01*
X0092765Y0248329D01*
X0092712Y0248394D01*
X0092662Y0248461D01*
X0092615Y0248530D01*
X0092572Y0248602D01*
X0092532Y0248676D01*
X0092496Y0248751D01*
X0092463Y0248828D01*
X0092434Y0248907D01*
X0092409Y0248986D01*
X0092387Y0249067D01*
X0092370Y0249149D01*
X0092356Y0249232D01*
X0092346Y0249315D01*
X0092340Y0249398D01*
X0092338Y0249482D01*
X0276591Y0248301D02*
X0276591Y0228616D01*
X0282496Y0228616D01*
X0282496Y0232553D01*
X0280528Y0232553D01*
X0280528Y0248301D01*
X0276591Y0248301D01*
X0290370Y0232553D02*
X0335646Y0232553D01*
X0335646Y0228616D01*
X0290370Y0228616D01*
X0290370Y0232553D01*
X0343520Y0232553D02*
X0343520Y0228616D01*
X0390764Y0228616D01*
X0390764Y0232553D01*
X0343520Y0232553D01*
X0367142Y0216805D02*
X0398638Y0216805D01*
X0398638Y0232553D01*
X0445882Y0232553D01*
X0445882Y0248301D01*
X0449819Y0248301D01*
X0449819Y0236490D01*
X0452772Y0236490D01*
X0452772Y0232553D01*
X0449819Y0232553D01*
X0449819Y0228616D01*
X0402575Y0228616D01*
X0402575Y0212868D01*
X0367142Y0212868D01*
X0367142Y0216805D01*
X0458677Y0232553D02*
X0489189Y0232553D01*
X0489189Y0236490D01*
X0458677Y0236490D01*
X0458677Y0232553D01*
X0495094Y0228616D02*
X0495094Y0169561D01*
X0506906Y0169561D01*
X0506906Y0228616D01*
X0495094Y0228616D01*
X0524622Y0175466D02*
X0548244Y0175466D01*
X0548244Y0100663D01*
X0524622Y0100663D01*
X0524622Y0175466D01*
X0534464Y0153813D02*
X0534466Y0153901D01*
X0534472Y0153989D01*
X0534482Y0154077D01*
X0534496Y0154165D01*
X0534513Y0154251D01*
X0534535Y0154337D01*
X0534560Y0154421D01*
X0534590Y0154505D01*
X0534622Y0154587D01*
X0534659Y0154667D01*
X0534699Y0154746D01*
X0534743Y0154823D01*
X0534790Y0154898D01*
X0534840Y0154970D01*
X0534894Y0155041D01*
X0534950Y0155108D01*
X0535010Y0155174D01*
X0535072Y0155236D01*
X0535138Y0155296D01*
X0535205Y0155352D01*
X0535276Y0155406D01*
X0535348Y0155456D01*
X0535423Y0155503D01*
X0535500Y0155547D01*
X0535579Y0155587D01*
X0535659Y0155624D01*
X0535741Y0155656D01*
X0535825Y0155686D01*
X0535909Y0155711D01*
X0535995Y0155733D01*
X0536081Y0155750D01*
X0536169Y0155764D01*
X0536257Y0155774D01*
X0536345Y0155780D01*
X0536433Y0155782D01*
X0536521Y0155780D01*
X0536609Y0155774D01*
X0536697Y0155764D01*
X0536785Y0155750D01*
X0536871Y0155733D01*
X0536957Y0155711D01*
X0537041Y0155686D01*
X0537125Y0155656D01*
X0537207Y0155624D01*
X0537287Y0155587D01*
X0537366Y0155547D01*
X0537443Y0155503D01*
X0537518Y0155456D01*
X0537590Y0155406D01*
X0537661Y0155352D01*
X0537728Y0155296D01*
X0537794Y0155236D01*
X0537856Y0155174D01*
X0537916Y0155108D01*
X0537972Y0155041D01*
X0538026Y0154970D01*
X0538076Y0154898D01*
X0538123Y0154823D01*
X0538167Y0154746D01*
X0538207Y0154667D01*
X0538244Y0154587D01*
X0538276Y0154505D01*
X0538306Y0154421D01*
X0538331Y0154337D01*
X0538353Y0154251D01*
X0538370Y0154165D01*
X0538384Y0154077D01*
X0538394Y0153989D01*
X0538400Y0153901D01*
X0538402Y0153813D01*
X0538400Y0153725D01*
X0538394Y0153637D01*
X0538384Y0153549D01*
X0538370Y0153461D01*
X0538353Y0153375D01*
X0538331Y0153289D01*
X0538306Y0153205D01*
X0538276Y0153121D01*
X0538244Y0153039D01*
X0538207Y0152959D01*
X0538167Y0152880D01*
X0538123Y0152803D01*
X0538076Y0152728D01*
X0538026Y0152656D01*
X0537972Y0152585D01*
X0537916Y0152518D01*
X0537856Y0152452D01*
X0537794Y0152390D01*
X0537728Y0152330D01*
X0537661Y0152274D01*
X0537590Y0152220D01*
X0537518Y0152170D01*
X0537443Y0152123D01*
X0537366Y0152079D01*
X0537287Y0152039D01*
X0537207Y0152002D01*
X0537125Y0151970D01*
X0537041Y0151940D01*
X0536957Y0151915D01*
X0536871Y0151893D01*
X0536785Y0151876D01*
X0536697Y0151862D01*
X0536609Y0151852D01*
X0536521Y0151846D01*
X0536433Y0151844D01*
X0536345Y0151846D01*
X0536257Y0151852D01*
X0536169Y0151862D01*
X0536081Y0151876D01*
X0535995Y0151893D01*
X0535909Y0151915D01*
X0535825Y0151940D01*
X0535741Y0151970D01*
X0535659Y0152002D01*
X0535579Y0152039D01*
X0535500Y0152079D01*
X0535423Y0152123D01*
X0535348Y0152170D01*
X0535276Y0152220D01*
X0535205Y0152274D01*
X0535138Y0152330D01*
X0535072Y0152390D01*
X0535010Y0152452D01*
X0534950Y0152518D01*
X0534894Y0152585D01*
X0534840Y0152656D01*
X0534790Y0152728D01*
X0534743Y0152803D01*
X0534699Y0152880D01*
X0534659Y0152959D01*
X0534622Y0153039D01*
X0534590Y0153121D01*
X0534560Y0153205D01*
X0534535Y0153289D01*
X0534513Y0153375D01*
X0534496Y0153461D01*
X0534482Y0153549D01*
X0534472Y0153637D01*
X0534466Y0153725D01*
X0534464Y0153813D01*
X0534464Y0145939D02*
X0534466Y0146027D01*
X0534472Y0146115D01*
X0534482Y0146203D01*
X0534496Y0146291D01*
X0534513Y0146377D01*
X0534535Y0146463D01*
X0534560Y0146547D01*
X0534590Y0146631D01*
X0534622Y0146713D01*
X0534659Y0146793D01*
X0534699Y0146872D01*
X0534743Y0146949D01*
X0534790Y0147024D01*
X0534840Y0147096D01*
X0534894Y0147167D01*
X0534950Y0147234D01*
X0535010Y0147300D01*
X0535072Y0147362D01*
X0535138Y0147422D01*
X0535205Y0147478D01*
X0535276Y0147532D01*
X0535348Y0147582D01*
X0535423Y0147629D01*
X0535500Y0147673D01*
X0535579Y0147713D01*
X0535659Y0147750D01*
X0535741Y0147782D01*
X0535825Y0147812D01*
X0535909Y0147837D01*
X0535995Y0147859D01*
X0536081Y0147876D01*
X0536169Y0147890D01*
X0536257Y0147900D01*
X0536345Y0147906D01*
X0536433Y0147908D01*
X0536521Y0147906D01*
X0536609Y0147900D01*
X0536697Y0147890D01*
X0536785Y0147876D01*
X0536871Y0147859D01*
X0536957Y0147837D01*
X0537041Y0147812D01*
X0537125Y0147782D01*
X0537207Y0147750D01*
X0537287Y0147713D01*
X0537366Y0147673D01*
X0537443Y0147629D01*
X0537518Y0147582D01*
X0537590Y0147532D01*
X0537661Y0147478D01*
X0537728Y0147422D01*
X0537794Y0147362D01*
X0537856Y0147300D01*
X0537916Y0147234D01*
X0537972Y0147167D01*
X0538026Y0147096D01*
X0538076Y0147024D01*
X0538123Y0146949D01*
X0538167Y0146872D01*
X0538207Y0146793D01*
X0538244Y0146713D01*
X0538276Y0146631D01*
X0538306Y0146547D01*
X0538331Y0146463D01*
X0538353Y0146377D01*
X0538370Y0146291D01*
X0538384Y0146203D01*
X0538394Y0146115D01*
X0538400Y0146027D01*
X0538402Y0145939D01*
X0538400Y0145851D01*
X0538394Y0145763D01*
X0538384Y0145675D01*
X0538370Y0145587D01*
X0538353Y0145501D01*
X0538331Y0145415D01*
X0538306Y0145331D01*
X0538276Y0145247D01*
X0538244Y0145165D01*
X0538207Y0145085D01*
X0538167Y0145006D01*
X0538123Y0144929D01*
X0538076Y0144854D01*
X0538026Y0144782D01*
X0537972Y0144711D01*
X0537916Y0144644D01*
X0537856Y0144578D01*
X0537794Y0144516D01*
X0537728Y0144456D01*
X0537661Y0144400D01*
X0537590Y0144346D01*
X0537518Y0144296D01*
X0537443Y0144249D01*
X0537366Y0144205D01*
X0537287Y0144165D01*
X0537207Y0144128D01*
X0537125Y0144096D01*
X0537041Y0144066D01*
X0536957Y0144041D01*
X0536871Y0144019D01*
X0536785Y0144002D01*
X0536697Y0143988D01*
X0536609Y0143978D01*
X0536521Y0143972D01*
X0536433Y0143970D01*
X0536345Y0143972D01*
X0536257Y0143978D01*
X0536169Y0143988D01*
X0536081Y0144002D01*
X0535995Y0144019D01*
X0535909Y0144041D01*
X0535825Y0144066D01*
X0535741Y0144096D01*
X0535659Y0144128D01*
X0535579Y0144165D01*
X0535500Y0144205D01*
X0535423Y0144249D01*
X0535348Y0144296D01*
X0535276Y0144346D01*
X0535205Y0144400D01*
X0535138Y0144456D01*
X0535072Y0144516D01*
X0535010Y0144578D01*
X0534950Y0144644D01*
X0534894Y0144711D01*
X0534840Y0144782D01*
X0534790Y0144854D01*
X0534743Y0144929D01*
X0534699Y0145006D01*
X0534659Y0145085D01*
X0534622Y0145165D01*
X0534590Y0145247D01*
X0534560Y0145331D01*
X0534535Y0145415D01*
X0534513Y0145501D01*
X0534496Y0145587D01*
X0534482Y0145675D01*
X0534472Y0145763D01*
X0534466Y0145851D01*
X0534464Y0145939D01*
X0533480Y0138065D02*
X0533482Y0138173D01*
X0533488Y0138282D01*
X0533498Y0138390D01*
X0533512Y0138497D01*
X0533530Y0138604D01*
X0533551Y0138711D01*
X0533577Y0138816D01*
X0533607Y0138921D01*
X0533640Y0139024D01*
X0533677Y0139126D01*
X0533718Y0139226D01*
X0533762Y0139325D01*
X0533811Y0139423D01*
X0533862Y0139518D01*
X0533917Y0139611D01*
X0533976Y0139703D01*
X0534038Y0139792D01*
X0534103Y0139879D01*
X0534171Y0139963D01*
X0534242Y0140045D01*
X0534316Y0140124D01*
X0534393Y0140200D01*
X0534473Y0140274D01*
X0534556Y0140344D01*
X0534641Y0140412D01*
X0534728Y0140476D01*
X0534818Y0140537D01*
X0534910Y0140595D01*
X0535004Y0140649D01*
X0535100Y0140700D01*
X0535197Y0140747D01*
X0535297Y0140791D01*
X0535398Y0140831D01*
X0535500Y0140867D01*
X0535603Y0140899D01*
X0535708Y0140928D01*
X0535814Y0140952D01*
X0535920Y0140973D01*
X0536027Y0140990D01*
X0536135Y0141003D01*
X0536243Y0141012D01*
X0536352Y0141017D01*
X0536460Y0141018D01*
X0536569Y0141015D01*
X0536677Y0141008D01*
X0536785Y0140997D01*
X0536892Y0140982D01*
X0536999Y0140963D01*
X0537105Y0140940D01*
X0537210Y0140914D01*
X0537315Y0140883D01*
X0537417Y0140849D01*
X0537519Y0140811D01*
X0537619Y0140769D01*
X0537718Y0140724D01*
X0537815Y0140675D01*
X0537909Y0140622D01*
X0538002Y0140566D01*
X0538093Y0140507D01*
X0538182Y0140444D01*
X0538268Y0140379D01*
X0538352Y0140310D01*
X0538433Y0140238D01*
X0538511Y0140163D01*
X0538587Y0140085D01*
X0538660Y0140004D01*
X0538730Y0139921D01*
X0538796Y0139836D01*
X0538860Y0139748D01*
X0538920Y0139657D01*
X0538977Y0139565D01*
X0539030Y0139470D01*
X0539080Y0139374D01*
X0539126Y0139276D01*
X0539169Y0139176D01*
X0539208Y0139075D01*
X0539243Y0138972D01*
X0539275Y0138869D01*
X0539302Y0138764D01*
X0539326Y0138658D01*
X0539346Y0138551D01*
X0539362Y0138444D01*
X0539374Y0138336D01*
X0539382Y0138228D01*
X0539386Y0138119D01*
X0539386Y0138011D01*
X0539382Y0137902D01*
X0539374Y0137794D01*
X0539362Y0137686D01*
X0539346Y0137579D01*
X0539326Y0137472D01*
X0539302Y0137366D01*
X0539275Y0137261D01*
X0539243Y0137158D01*
X0539208Y0137055D01*
X0539169Y0136954D01*
X0539126Y0136854D01*
X0539080Y0136756D01*
X0539030Y0136660D01*
X0538977Y0136565D01*
X0538920Y0136473D01*
X0538860Y0136382D01*
X0538796Y0136294D01*
X0538730Y0136209D01*
X0538660Y0136126D01*
X0538587Y0136045D01*
X0538511Y0135967D01*
X0538433Y0135892D01*
X0538352Y0135820D01*
X0538268Y0135751D01*
X0538182Y0135686D01*
X0538093Y0135623D01*
X0538002Y0135564D01*
X0537910Y0135508D01*
X0537815Y0135455D01*
X0537718Y0135406D01*
X0537619Y0135361D01*
X0537519Y0135319D01*
X0537417Y0135281D01*
X0537315Y0135247D01*
X0537210Y0135216D01*
X0537105Y0135190D01*
X0536999Y0135167D01*
X0536892Y0135148D01*
X0536785Y0135133D01*
X0536677Y0135122D01*
X0536569Y0135115D01*
X0536460Y0135112D01*
X0536352Y0135113D01*
X0536243Y0135118D01*
X0536135Y0135127D01*
X0536027Y0135140D01*
X0535920Y0135157D01*
X0535814Y0135178D01*
X0535708Y0135202D01*
X0535603Y0135231D01*
X0535500Y0135263D01*
X0535398Y0135299D01*
X0535297Y0135339D01*
X0535197Y0135383D01*
X0535100Y0135430D01*
X0535004Y0135481D01*
X0534910Y0135535D01*
X0534818Y0135593D01*
X0534728Y0135654D01*
X0534641Y0135718D01*
X0534556Y0135786D01*
X0534473Y0135856D01*
X0534393Y0135930D01*
X0534316Y0136006D01*
X0534242Y0136085D01*
X0534171Y0136167D01*
X0534103Y0136251D01*
X0534038Y0136338D01*
X0533976Y0136427D01*
X0533917Y0136519D01*
X0533862Y0136612D01*
X0533811Y0136707D01*
X0533762Y0136805D01*
X0533718Y0136904D01*
X0533677Y0137004D01*
X0533640Y0137106D01*
X0533607Y0137209D01*
X0533577Y0137314D01*
X0533551Y0137419D01*
X0533530Y0137526D01*
X0533512Y0137633D01*
X0533498Y0137740D01*
X0533488Y0137848D01*
X0533482Y0137957D01*
X0533480Y0138065D01*
X0534464Y0130191D02*
X0534466Y0130279D01*
X0534472Y0130367D01*
X0534482Y0130455D01*
X0534496Y0130543D01*
X0534513Y0130629D01*
X0534535Y0130715D01*
X0534560Y0130799D01*
X0534590Y0130883D01*
X0534622Y0130965D01*
X0534659Y0131045D01*
X0534699Y0131124D01*
X0534743Y0131201D01*
X0534790Y0131276D01*
X0534840Y0131348D01*
X0534894Y0131419D01*
X0534950Y0131486D01*
X0535010Y0131552D01*
X0535072Y0131614D01*
X0535138Y0131674D01*
X0535205Y0131730D01*
X0535276Y0131784D01*
X0535348Y0131834D01*
X0535423Y0131881D01*
X0535500Y0131925D01*
X0535579Y0131965D01*
X0535659Y0132002D01*
X0535741Y0132034D01*
X0535825Y0132064D01*
X0535909Y0132089D01*
X0535995Y0132111D01*
X0536081Y0132128D01*
X0536169Y0132142D01*
X0536257Y0132152D01*
X0536345Y0132158D01*
X0536433Y0132160D01*
X0536521Y0132158D01*
X0536609Y0132152D01*
X0536697Y0132142D01*
X0536785Y0132128D01*
X0536871Y0132111D01*
X0536957Y0132089D01*
X0537041Y0132064D01*
X0537125Y0132034D01*
X0537207Y0132002D01*
X0537287Y0131965D01*
X0537366Y0131925D01*
X0537443Y0131881D01*
X0537518Y0131834D01*
X0537590Y0131784D01*
X0537661Y0131730D01*
X0537728Y0131674D01*
X0537794Y0131614D01*
X0537856Y0131552D01*
X0537916Y0131486D01*
X0537972Y0131419D01*
X0538026Y0131348D01*
X0538076Y0131276D01*
X0538123Y0131201D01*
X0538167Y0131124D01*
X0538207Y0131045D01*
X0538244Y0130965D01*
X0538276Y0130883D01*
X0538306Y0130799D01*
X0538331Y0130715D01*
X0538353Y0130629D01*
X0538370Y0130543D01*
X0538384Y0130455D01*
X0538394Y0130367D01*
X0538400Y0130279D01*
X0538402Y0130191D01*
X0538400Y0130103D01*
X0538394Y0130015D01*
X0538384Y0129927D01*
X0538370Y0129839D01*
X0538353Y0129753D01*
X0538331Y0129667D01*
X0538306Y0129583D01*
X0538276Y0129499D01*
X0538244Y0129417D01*
X0538207Y0129337D01*
X0538167Y0129258D01*
X0538123Y0129181D01*
X0538076Y0129106D01*
X0538026Y0129034D01*
X0537972Y0128963D01*
X0537916Y0128896D01*
X0537856Y0128830D01*
X0537794Y0128768D01*
X0537728Y0128708D01*
X0537661Y0128652D01*
X0537590Y0128598D01*
X0537518Y0128548D01*
X0537443Y0128501D01*
X0537366Y0128457D01*
X0537287Y0128417D01*
X0537207Y0128380D01*
X0537125Y0128348D01*
X0537041Y0128318D01*
X0536957Y0128293D01*
X0536871Y0128271D01*
X0536785Y0128254D01*
X0536697Y0128240D01*
X0536609Y0128230D01*
X0536521Y0128224D01*
X0536433Y0128222D01*
X0536345Y0128224D01*
X0536257Y0128230D01*
X0536169Y0128240D01*
X0536081Y0128254D01*
X0535995Y0128271D01*
X0535909Y0128293D01*
X0535825Y0128318D01*
X0535741Y0128348D01*
X0535659Y0128380D01*
X0535579Y0128417D01*
X0535500Y0128457D01*
X0535423Y0128501D01*
X0535348Y0128548D01*
X0535276Y0128598D01*
X0535205Y0128652D01*
X0535138Y0128708D01*
X0535072Y0128768D01*
X0535010Y0128830D01*
X0534950Y0128896D01*
X0534894Y0128963D01*
X0534840Y0129034D01*
X0534790Y0129106D01*
X0534743Y0129181D01*
X0534699Y0129258D01*
X0534659Y0129337D01*
X0534622Y0129417D01*
X0534590Y0129499D01*
X0534560Y0129583D01*
X0534535Y0129667D01*
X0534513Y0129753D01*
X0534496Y0129839D01*
X0534482Y0129927D01*
X0534472Y0130015D01*
X0534466Y0130103D01*
X0534464Y0130191D01*
X0534464Y0122317D02*
X0534466Y0122405D01*
X0534472Y0122493D01*
X0534482Y0122581D01*
X0534496Y0122669D01*
X0534513Y0122755D01*
X0534535Y0122841D01*
X0534560Y0122925D01*
X0534590Y0123009D01*
X0534622Y0123091D01*
X0534659Y0123171D01*
X0534699Y0123250D01*
X0534743Y0123327D01*
X0534790Y0123402D01*
X0534840Y0123474D01*
X0534894Y0123545D01*
X0534950Y0123612D01*
X0535010Y0123678D01*
X0535072Y0123740D01*
X0535138Y0123800D01*
X0535205Y0123856D01*
X0535276Y0123910D01*
X0535348Y0123960D01*
X0535423Y0124007D01*
X0535500Y0124051D01*
X0535579Y0124091D01*
X0535659Y0124128D01*
X0535741Y0124160D01*
X0535825Y0124190D01*
X0535909Y0124215D01*
X0535995Y0124237D01*
X0536081Y0124254D01*
X0536169Y0124268D01*
X0536257Y0124278D01*
X0536345Y0124284D01*
X0536433Y0124286D01*
X0536521Y0124284D01*
X0536609Y0124278D01*
X0536697Y0124268D01*
X0536785Y0124254D01*
X0536871Y0124237D01*
X0536957Y0124215D01*
X0537041Y0124190D01*
X0537125Y0124160D01*
X0537207Y0124128D01*
X0537287Y0124091D01*
X0537366Y0124051D01*
X0537443Y0124007D01*
X0537518Y0123960D01*
X0537590Y0123910D01*
X0537661Y0123856D01*
X0537728Y0123800D01*
X0537794Y0123740D01*
X0537856Y0123678D01*
X0537916Y0123612D01*
X0537972Y0123545D01*
X0538026Y0123474D01*
X0538076Y0123402D01*
X0538123Y0123327D01*
X0538167Y0123250D01*
X0538207Y0123171D01*
X0538244Y0123091D01*
X0538276Y0123009D01*
X0538306Y0122925D01*
X0538331Y0122841D01*
X0538353Y0122755D01*
X0538370Y0122669D01*
X0538384Y0122581D01*
X0538394Y0122493D01*
X0538400Y0122405D01*
X0538402Y0122317D01*
X0538400Y0122229D01*
X0538394Y0122141D01*
X0538384Y0122053D01*
X0538370Y0121965D01*
X0538353Y0121879D01*
X0538331Y0121793D01*
X0538306Y0121709D01*
X0538276Y0121625D01*
X0538244Y0121543D01*
X0538207Y0121463D01*
X0538167Y0121384D01*
X0538123Y0121307D01*
X0538076Y0121232D01*
X0538026Y0121160D01*
X0537972Y0121089D01*
X0537916Y0121022D01*
X0537856Y0120956D01*
X0537794Y0120894D01*
X0537728Y0120834D01*
X0537661Y0120778D01*
X0537590Y0120724D01*
X0537518Y0120674D01*
X0537443Y0120627D01*
X0537366Y0120583D01*
X0537287Y0120543D01*
X0537207Y0120506D01*
X0537125Y0120474D01*
X0537041Y0120444D01*
X0536957Y0120419D01*
X0536871Y0120397D01*
X0536785Y0120380D01*
X0536697Y0120366D01*
X0536609Y0120356D01*
X0536521Y0120350D01*
X0536433Y0120348D01*
X0536345Y0120350D01*
X0536257Y0120356D01*
X0536169Y0120366D01*
X0536081Y0120380D01*
X0535995Y0120397D01*
X0535909Y0120419D01*
X0535825Y0120444D01*
X0535741Y0120474D01*
X0535659Y0120506D01*
X0535579Y0120543D01*
X0535500Y0120583D01*
X0535423Y0120627D01*
X0535348Y0120674D01*
X0535276Y0120724D01*
X0535205Y0120778D01*
X0535138Y0120834D01*
X0535072Y0120894D01*
X0535010Y0120956D01*
X0534950Y0121022D01*
X0534894Y0121089D01*
X0534840Y0121160D01*
X0534790Y0121232D01*
X0534743Y0121307D01*
X0534699Y0121384D01*
X0534659Y0121463D01*
X0534622Y0121543D01*
X0534590Y0121625D01*
X0534560Y0121709D01*
X0534535Y0121793D01*
X0534513Y0121879D01*
X0534496Y0121965D01*
X0534482Y0122053D01*
X0534472Y0122141D01*
X0534466Y0122229D01*
X0534464Y0122317D01*
X0503756Y0079206D02*
X0503758Y0079303D01*
X0503764Y0079400D01*
X0503774Y0079496D01*
X0503788Y0079592D01*
X0503806Y0079688D01*
X0503827Y0079782D01*
X0503853Y0079876D01*
X0503882Y0079968D01*
X0503916Y0080059D01*
X0503952Y0080149D01*
X0503993Y0080237D01*
X0504037Y0080323D01*
X0504085Y0080408D01*
X0504136Y0080490D01*
X0504190Y0080571D01*
X0504248Y0080649D01*
X0504309Y0080724D01*
X0504372Y0080797D01*
X0504439Y0080868D01*
X0504509Y0080935D01*
X0504581Y0081000D01*
X0504656Y0081061D01*
X0504734Y0081120D01*
X0504813Y0081175D01*
X0504895Y0081227D01*
X0504979Y0081275D01*
X0505065Y0081320D01*
X0505153Y0081362D01*
X0505242Y0081400D01*
X0505333Y0081434D01*
X0505425Y0081464D01*
X0505518Y0081491D01*
X0505613Y0081513D01*
X0505708Y0081532D01*
X0505804Y0081547D01*
X0505900Y0081558D01*
X0505997Y0081565D01*
X0506094Y0081568D01*
X0506191Y0081567D01*
X0506288Y0081562D01*
X0506384Y0081553D01*
X0506480Y0081540D01*
X0506576Y0081523D01*
X0506671Y0081502D01*
X0506764Y0081478D01*
X0506857Y0081449D01*
X0506949Y0081417D01*
X0507039Y0081381D01*
X0507127Y0081342D01*
X0507214Y0081298D01*
X0507299Y0081252D01*
X0507382Y0081201D01*
X0507463Y0081148D01*
X0507541Y0081091D01*
X0507618Y0081031D01*
X0507691Y0080968D01*
X0507762Y0080902D01*
X0507830Y0080833D01*
X0507896Y0080761D01*
X0507958Y0080687D01*
X0508017Y0080610D01*
X0508073Y0080531D01*
X0508126Y0080449D01*
X0508176Y0080366D01*
X0508221Y0080280D01*
X0508264Y0080193D01*
X0508303Y0080104D01*
X0508338Y0080014D01*
X0508369Y0079922D01*
X0508396Y0079829D01*
X0508420Y0079735D01*
X0508440Y0079640D01*
X0508456Y0079544D01*
X0508468Y0079448D01*
X0508476Y0079351D01*
X0508480Y0079254D01*
X0508480Y0079158D01*
X0508476Y0079061D01*
X0508468Y0078964D01*
X0508456Y0078868D01*
X0508440Y0078772D01*
X0508420Y0078677D01*
X0508396Y0078583D01*
X0508369Y0078490D01*
X0508338Y0078398D01*
X0508303Y0078308D01*
X0508264Y0078219D01*
X0508221Y0078132D01*
X0508176Y0078046D01*
X0508126Y0077963D01*
X0508073Y0077881D01*
X0508017Y0077802D01*
X0507958Y0077725D01*
X0507896Y0077651D01*
X0507830Y0077579D01*
X0507762Y0077510D01*
X0507691Y0077444D01*
X0507618Y0077381D01*
X0507541Y0077321D01*
X0507463Y0077264D01*
X0507382Y0077211D01*
X0507299Y0077160D01*
X0507214Y0077114D01*
X0507127Y0077070D01*
X0507039Y0077031D01*
X0506949Y0076995D01*
X0506857Y0076963D01*
X0506764Y0076934D01*
X0506671Y0076910D01*
X0506576Y0076889D01*
X0506480Y0076872D01*
X0506384Y0076859D01*
X0506288Y0076850D01*
X0506191Y0076845D01*
X0506094Y0076844D01*
X0505997Y0076847D01*
X0505900Y0076854D01*
X0505804Y0076865D01*
X0505708Y0076880D01*
X0505613Y0076899D01*
X0505518Y0076921D01*
X0505425Y0076948D01*
X0505333Y0076978D01*
X0505242Y0077012D01*
X0505153Y0077050D01*
X0505065Y0077092D01*
X0504979Y0077137D01*
X0504895Y0077185D01*
X0504813Y0077237D01*
X0504734Y0077292D01*
X0504656Y0077351D01*
X0504581Y0077412D01*
X0504509Y0077477D01*
X0504439Y0077544D01*
X0504372Y0077615D01*
X0504309Y0077688D01*
X0504248Y0077763D01*
X0504190Y0077841D01*
X0504136Y0077922D01*
X0504085Y0078004D01*
X0504037Y0078089D01*
X0503993Y0078175D01*
X0503952Y0078263D01*
X0503916Y0078353D01*
X0503882Y0078444D01*
X0503853Y0078536D01*
X0503827Y0078630D01*
X0503806Y0078724D01*
X0503788Y0078820D01*
X0503774Y0078916D01*
X0503764Y0079012D01*
X0503758Y0079109D01*
X0503756Y0079206D01*
X0476197Y0079206D02*
X0476199Y0079303D01*
X0476205Y0079400D01*
X0476215Y0079496D01*
X0476229Y0079592D01*
X0476247Y0079688D01*
X0476268Y0079782D01*
X0476294Y0079876D01*
X0476323Y0079968D01*
X0476357Y0080059D01*
X0476393Y0080149D01*
X0476434Y0080237D01*
X0476478Y0080323D01*
X0476526Y0080408D01*
X0476577Y0080490D01*
X0476631Y0080571D01*
X0476689Y0080649D01*
X0476750Y0080724D01*
X0476813Y0080797D01*
X0476880Y0080868D01*
X0476950Y0080935D01*
X0477022Y0081000D01*
X0477097Y0081061D01*
X0477175Y0081120D01*
X0477254Y0081175D01*
X0477336Y0081227D01*
X0477420Y0081275D01*
X0477506Y0081320D01*
X0477594Y0081362D01*
X0477683Y0081400D01*
X0477774Y0081434D01*
X0477866Y0081464D01*
X0477959Y0081491D01*
X0478054Y0081513D01*
X0478149Y0081532D01*
X0478245Y0081547D01*
X0478341Y0081558D01*
X0478438Y0081565D01*
X0478535Y0081568D01*
X0478632Y0081567D01*
X0478729Y0081562D01*
X0478825Y0081553D01*
X0478921Y0081540D01*
X0479017Y0081523D01*
X0479112Y0081502D01*
X0479205Y0081478D01*
X0479298Y0081449D01*
X0479390Y0081417D01*
X0479480Y0081381D01*
X0479568Y0081342D01*
X0479655Y0081298D01*
X0479740Y0081252D01*
X0479823Y0081201D01*
X0479904Y0081148D01*
X0479982Y0081091D01*
X0480059Y0081031D01*
X0480132Y0080968D01*
X0480203Y0080902D01*
X0480271Y0080833D01*
X0480337Y0080761D01*
X0480399Y0080687D01*
X0480458Y0080610D01*
X0480514Y0080531D01*
X0480567Y0080449D01*
X0480617Y0080366D01*
X0480662Y0080280D01*
X0480705Y0080193D01*
X0480744Y0080104D01*
X0480779Y0080014D01*
X0480810Y0079922D01*
X0480837Y0079829D01*
X0480861Y0079735D01*
X0480881Y0079640D01*
X0480897Y0079544D01*
X0480909Y0079448D01*
X0480917Y0079351D01*
X0480921Y0079254D01*
X0480921Y0079158D01*
X0480917Y0079061D01*
X0480909Y0078964D01*
X0480897Y0078868D01*
X0480881Y0078772D01*
X0480861Y0078677D01*
X0480837Y0078583D01*
X0480810Y0078490D01*
X0480779Y0078398D01*
X0480744Y0078308D01*
X0480705Y0078219D01*
X0480662Y0078132D01*
X0480617Y0078046D01*
X0480567Y0077963D01*
X0480514Y0077881D01*
X0480458Y0077802D01*
X0480399Y0077725D01*
X0480337Y0077651D01*
X0480271Y0077579D01*
X0480203Y0077510D01*
X0480132Y0077444D01*
X0480059Y0077381D01*
X0479982Y0077321D01*
X0479904Y0077264D01*
X0479823Y0077211D01*
X0479740Y0077160D01*
X0479655Y0077114D01*
X0479568Y0077070D01*
X0479480Y0077031D01*
X0479390Y0076995D01*
X0479298Y0076963D01*
X0479205Y0076934D01*
X0479112Y0076910D01*
X0479017Y0076889D01*
X0478921Y0076872D01*
X0478825Y0076859D01*
X0478729Y0076850D01*
X0478632Y0076845D01*
X0478535Y0076844D01*
X0478438Y0076847D01*
X0478341Y0076854D01*
X0478245Y0076865D01*
X0478149Y0076880D01*
X0478054Y0076899D01*
X0477959Y0076921D01*
X0477866Y0076948D01*
X0477774Y0076978D01*
X0477683Y0077012D01*
X0477594Y0077050D01*
X0477506Y0077092D01*
X0477420Y0077137D01*
X0477336Y0077185D01*
X0477254Y0077237D01*
X0477175Y0077292D01*
X0477097Y0077351D01*
X0477022Y0077412D01*
X0476950Y0077477D01*
X0476880Y0077544D01*
X0476813Y0077615D01*
X0476750Y0077688D01*
X0476689Y0077763D01*
X0476631Y0077841D01*
X0476577Y0077922D01*
X0476526Y0078004D01*
X0476478Y0078089D01*
X0476434Y0078175D01*
X0476393Y0078263D01*
X0476357Y0078353D01*
X0476323Y0078444D01*
X0476294Y0078536D01*
X0476268Y0078630D01*
X0476247Y0078724D01*
X0476229Y0078820D01*
X0476215Y0078916D01*
X0476205Y0079012D01*
X0476199Y0079109D01*
X0476197Y0079206D01*
X0451000Y0013458D02*
X0451002Y0013542D01*
X0451008Y0013625D01*
X0451018Y0013708D01*
X0451032Y0013791D01*
X0451049Y0013873D01*
X0451071Y0013954D01*
X0451096Y0014033D01*
X0451125Y0014112D01*
X0451158Y0014189D01*
X0451194Y0014264D01*
X0451234Y0014338D01*
X0451277Y0014410D01*
X0451324Y0014479D01*
X0451374Y0014546D01*
X0451427Y0014611D01*
X0451483Y0014673D01*
X0451541Y0014733D01*
X0451603Y0014790D01*
X0451667Y0014843D01*
X0451734Y0014894D01*
X0451803Y0014941D01*
X0451874Y0014986D01*
X0451947Y0015026D01*
X0452022Y0015063D01*
X0452099Y0015097D01*
X0452177Y0015127D01*
X0452256Y0015153D01*
X0452337Y0015176D01*
X0452419Y0015194D01*
X0452501Y0015209D01*
X0452584Y0015220D01*
X0452667Y0015227D01*
X0452751Y0015230D01*
X0452835Y0015229D01*
X0452918Y0015224D01*
X0453002Y0015215D01*
X0453084Y0015202D01*
X0453166Y0015186D01*
X0453247Y0015165D01*
X0453328Y0015141D01*
X0453406Y0015113D01*
X0453484Y0015081D01*
X0453560Y0015045D01*
X0453634Y0015006D01*
X0453706Y0014964D01*
X0453776Y0014918D01*
X0453844Y0014869D01*
X0453909Y0014817D01*
X0453972Y0014762D01*
X0454032Y0014704D01*
X0454090Y0014643D01*
X0454144Y0014579D01*
X0454196Y0014513D01*
X0454244Y0014445D01*
X0454289Y0014374D01*
X0454330Y0014301D01*
X0454369Y0014227D01*
X0454403Y0014151D01*
X0454434Y0014073D01*
X0454461Y0013994D01*
X0454485Y0013913D01*
X0454504Y0013832D01*
X0454520Y0013750D01*
X0454532Y0013667D01*
X0454540Y0013583D01*
X0454544Y0013500D01*
X0454544Y0013416D01*
X0454540Y0013333D01*
X0454532Y0013249D01*
X0454520Y0013166D01*
X0454504Y0013084D01*
X0454485Y0013003D01*
X0454461Y0012922D01*
X0454434Y0012843D01*
X0454403Y0012765D01*
X0454369Y0012689D01*
X0454330Y0012615D01*
X0454289Y0012542D01*
X0454244Y0012471D01*
X0454196Y0012403D01*
X0454144Y0012337D01*
X0454090Y0012273D01*
X0454032Y0012212D01*
X0453972Y0012154D01*
X0453909Y0012099D01*
X0453844Y0012047D01*
X0453776Y0011998D01*
X0453706Y0011952D01*
X0453634Y0011910D01*
X0453560Y0011871D01*
X0453484Y0011835D01*
X0453406Y0011803D01*
X0453328Y0011775D01*
X0453247Y0011751D01*
X0453166Y0011730D01*
X0453084Y0011714D01*
X0453002Y0011701D01*
X0452918Y0011692D01*
X0452835Y0011687D01*
X0452751Y0011686D01*
X0452667Y0011689D01*
X0452584Y0011696D01*
X0452501Y0011707D01*
X0452419Y0011722D01*
X0452337Y0011740D01*
X0452256Y0011763D01*
X0452177Y0011789D01*
X0452099Y0011819D01*
X0452022Y0011853D01*
X0451947Y0011890D01*
X0451874Y0011930D01*
X0451803Y0011975D01*
X0451734Y0012022D01*
X0451667Y0012073D01*
X0451603Y0012126D01*
X0451541Y0012183D01*
X0451483Y0012243D01*
X0451427Y0012305D01*
X0451374Y0012370D01*
X0451324Y0012437D01*
X0451277Y0012506D01*
X0451234Y0012578D01*
X0451194Y0012652D01*
X0451158Y0012727D01*
X0451125Y0012804D01*
X0451096Y0012883D01*
X0451071Y0012962D01*
X0451049Y0013043D01*
X0451032Y0013125D01*
X0451018Y0013208D01*
X0451008Y0013291D01*
X0451002Y0013374D01*
X0451000Y0013458D01*
X0441157Y0013458D02*
X0441159Y0013542D01*
X0441165Y0013625D01*
X0441175Y0013708D01*
X0441189Y0013791D01*
X0441206Y0013873D01*
X0441228Y0013954D01*
X0441253Y0014033D01*
X0441282Y0014112D01*
X0441315Y0014189D01*
X0441351Y0014264D01*
X0441391Y0014338D01*
X0441434Y0014410D01*
X0441481Y0014479D01*
X0441531Y0014546D01*
X0441584Y0014611D01*
X0441640Y0014673D01*
X0441698Y0014733D01*
X0441760Y0014790D01*
X0441824Y0014843D01*
X0441891Y0014894D01*
X0441960Y0014941D01*
X0442031Y0014986D01*
X0442104Y0015026D01*
X0442179Y0015063D01*
X0442256Y0015097D01*
X0442334Y0015127D01*
X0442413Y0015153D01*
X0442494Y0015176D01*
X0442576Y0015194D01*
X0442658Y0015209D01*
X0442741Y0015220D01*
X0442824Y0015227D01*
X0442908Y0015230D01*
X0442992Y0015229D01*
X0443075Y0015224D01*
X0443159Y0015215D01*
X0443241Y0015202D01*
X0443323Y0015186D01*
X0443404Y0015165D01*
X0443485Y0015141D01*
X0443563Y0015113D01*
X0443641Y0015081D01*
X0443717Y0015045D01*
X0443791Y0015006D01*
X0443863Y0014964D01*
X0443933Y0014918D01*
X0444001Y0014869D01*
X0444066Y0014817D01*
X0444129Y0014762D01*
X0444189Y0014704D01*
X0444247Y0014643D01*
X0444301Y0014579D01*
X0444353Y0014513D01*
X0444401Y0014445D01*
X0444446Y0014374D01*
X0444487Y0014301D01*
X0444526Y0014227D01*
X0444560Y0014151D01*
X0444591Y0014073D01*
X0444618Y0013994D01*
X0444642Y0013913D01*
X0444661Y0013832D01*
X0444677Y0013750D01*
X0444689Y0013667D01*
X0444697Y0013583D01*
X0444701Y0013500D01*
X0444701Y0013416D01*
X0444697Y0013333D01*
X0444689Y0013249D01*
X0444677Y0013166D01*
X0444661Y0013084D01*
X0444642Y0013003D01*
X0444618Y0012922D01*
X0444591Y0012843D01*
X0444560Y0012765D01*
X0444526Y0012689D01*
X0444487Y0012615D01*
X0444446Y0012542D01*
X0444401Y0012471D01*
X0444353Y0012403D01*
X0444301Y0012337D01*
X0444247Y0012273D01*
X0444189Y0012212D01*
X0444129Y0012154D01*
X0444066Y0012099D01*
X0444001Y0012047D01*
X0443933Y0011998D01*
X0443863Y0011952D01*
X0443791Y0011910D01*
X0443717Y0011871D01*
X0443641Y0011835D01*
X0443563Y0011803D01*
X0443485Y0011775D01*
X0443404Y0011751D01*
X0443323Y0011730D01*
X0443241Y0011714D01*
X0443159Y0011701D01*
X0443075Y0011692D01*
X0442992Y0011687D01*
X0442908Y0011686D01*
X0442824Y0011689D01*
X0442741Y0011696D01*
X0442658Y0011707D01*
X0442576Y0011722D01*
X0442494Y0011740D01*
X0442413Y0011763D01*
X0442334Y0011789D01*
X0442256Y0011819D01*
X0442179Y0011853D01*
X0442104Y0011890D01*
X0442031Y0011930D01*
X0441960Y0011975D01*
X0441891Y0012022D01*
X0441824Y0012073D01*
X0441760Y0012126D01*
X0441698Y0012183D01*
X0441640Y0012243D01*
X0441584Y0012305D01*
X0441531Y0012370D01*
X0441481Y0012437D01*
X0441434Y0012506D01*
X0441391Y0012578D01*
X0441351Y0012652D01*
X0441315Y0012727D01*
X0441282Y0012804D01*
X0441253Y0012883D01*
X0441228Y0012962D01*
X0441206Y0013043D01*
X0441189Y0013125D01*
X0441175Y0013208D01*
X0441165Y0013291D01*
X0441159Y0013374D01*
X0441157Y0013458D01*
X0352574Y0013458D02*
X0352576Y0013542D01*
X0352582Y0013625D01*
X0352592Y0013708D01*
X0352606Y0013791D01*
X0352623Y0013873D01*
X0352645Y0013954D01*
X0352670Y0014033D01*
X0352699Y0014112D01*
X0352732Y0014189D01*
X0352768Y0014264D01*
X0352808Y0014338D01*
X0352851Y0014410D01*
X0352898Y0014479D01*
X0352948Y0014546D01*
X0353001Y0014611D01*
X0353057Y0014673D01*
X0353115Y0014733D01*
X0353177Y0014790D01*
X0353241Y0014843D01*
X0353308Y0014894D01*
X0353377Y0014941D01*
X0353448Y0014986D01*
X0353521Y0015026D01*
X0353596Y0015063D01*
X0353673Y0015097D01*
X0353751Y0015127D01*
X0353830Y0015153D01*
X0353911Y0015176D01*
X0353993Y0015194D01*
X0354075Y0015209D01*
X0354158Y0015220D01*
X0354241Y0015227D01*
X0354325Y0015230D01*
X0354409Y0015229D01*
X0354492Y0015224D01*
X0354576Y0015215D01*
X0354658Y0015202D01*
X0354740Y0015186D01*
X0354821Y0015165D01*
X0354902Y0015141D01*
X0354980Y0015113D01*
X0355058Y0015081D01*
X0355134Y0015045D01*
X0355208Y0015006D01*
X0355280Y0014964D01*
X0355350Y0014918D01*
X0355418Y0014869D01*
X0355483Y0014817D01*
X0355546Y0014762D01*
X0355606Y0014704D01*
X0355664Y0014643D01*
X0355718Y0014579D01*
X0355770Y0014513D01*
X0355818Y0014445D01*
X0355863Y0014374D01*
X0355904Y0014301D01*
X0355943Y0014227D01*
X0355977Y0014151D01*
X0356008Y0014073D01*
X0356035Y0013994D01*
X0356059Y0013913D01*
X0356078Y0013832D01*
X0356094Y0013750D01*
X0356106Y0013667D01*
X0356114Y0013583D01*
X0356118Y0013500D01*
X0356118Y0013416D01*
X0356114Y0013333D01*
X0356106Y0013249D01*
X0356094Y0013166D01*
X0356078Y0013084D01*
X0356059Y0013003D01*
X0356035Y0012922D01*
X0356008Y0012843D01*
X0355977Y0012765D01*
X0355943Y0012689D01*
X0355904Y0012615D01*
X0355863Y0012542D01*
X0355818Y0012471D01*
X0355770Y0012403D01*
X0355718Y0012337D01*
X0355664Y0012273D01*
X0355606Y0012212D01*
X0355546Y0012154D01*
X0355483Y0012099D01*
X0355418Y0012047D01*
X0355350Y0011998D01*
X0355280Y0011952D01*
X0355208Y0011910D01*
X0355134Y0011871D01*
X0355058Y0011835D01*
X0354980Y0011803D01*
X0354902Y0011775D01*
X0354821Y0011751D01*
X0354740Y0011730D01*
X0354658Y0011714D01*
X0354576Y0011701D01*
X0354492Y0011692D01*
X0354409Y0011687D01*
X0354325Y0011686D01*
X0354241Y0011689D01*
X0354158Y0011696D01*
X0354075Y0011707D01*
X0353993Y0011722D01*
X0353911Y0011740D01*
X0353830Y0011763D01*
X0353751Y0011789D01*
X0353673Y0011819D01*
X0353596Y0011853D01*
X0353521Y0011890D01*
X0353448Y0011930D01*
X0353377Y0011975D01*
X0353308Y0012022D01*
X0353241Y0012073D01*
X0353177Y0012126D01*
X0353115Y0012183D01*
X0353057Y0012243D01*
X0353001Y0012305D01*
X0352948Y0012370D01*
X0352898Y0012437D01*
X0352851Y0012506D01*
X0352808Y0012578D01*
X0352768Y0012652D01*
X0352732Y0012727D01*
X0352699Y0012804D01*
X0352670Y0012883D01*
X0352645Y0012962D01*
X0352623Y0013043D01*
X0352606Y0013125D01*
X0352592Y0013208D01*
X0352582Y0013291D01*
X0352576Y0013374D01*
X0352574Y0013458D01*
X0342732Y0013458D02*
X0342734Y0013542D01*
X0342740Y0013625D01*
X0342750Y0013708D01*
X0342764Y0013791D01*
X0342781Y0013873D01*
X0342803Y0013954D01*
X0342828Y0014033D01*
X0342857Y0014112D01*
X0342890Y0014189D01*
X0342926Y0014264D01*
X0342966Y0014338D01*
X0343009Y0014410D01*
X0343056Y0014479D01*
X0343106Y0014546D01*
X0343159Y0014611D01*
X0343215Y0014673D01*
X0343273Y0014733D01*
X0343335Y0014790D01*
X0343399Y0014843D01*
X0343466Y0014894D01*
X0343535Y0014941D01*
X0343606Y0014986D01*
X0343679Y0015026D01*
X0343754Y0015063D01*
X0343831Y0015097D01*
X0343909Y0015127D01*
X0343988Y0015153D01*
X0344069Y0015176D01*
X0344151Y0015194D01*
X0344233Y0015209D01*
X0344316Y0015220D01*
X0344399Y0015227D01*
X0344483Y0015230D01*
X0344567Y0015229D01*
X0344650Y0015224D01*
X0344734Y0015215D01*
X0344816Y0015202D01*
X0344898Y0015186D01*
X0344979Y0015165D01*
X0345060Y0015141D01*
X0345138Y0015113D01*
X0345216Y0015081D01*
X0345292Y0015045D01*
X0345366Y0015006D01*
X0345438Y0014964D01*
X0345508Y0014918D01*
X0345576Y0014869D01*
X0345641Y0014817D01*
X0345704Y0014762D01*
X0345764Y0014704D01*
X0345822Y0014643D01*
X0345876Y0014579D01*
X0345928Y0014513D01*
X0345976Y0014445D01*
X0346021Y0014374D01*
X0346062Y0014301D01*
X0346101Y0014227D01*
X0346135Y0014151D01*
X0346166Y0014073D01*
X0346193Y0013994D01*
X0346217Y0013913D01*
X0346236Y0013832D01*
X0346252Y0013750D01*
X0346264Y0013667D01*
X0346272Y0013583D01*
X0346276Y0013500D01*
X0346276Y0013416D01*
X0346272Y0013333D01*
X0346264Y0013249D01*
X0346252Y0013166D01*
X0346236Y0013084D01*
X0346217Y0013003D01*
X0346193Y0012922D01*
X0346166Y0012843D01*
X0346135Y0012765D01*
X0346101Y0012689D01*
X0346062Y0012615D01*
X0346021Y0012542D01*
X0345976Y0012471D01*
X0345928Y0012403D01*
X0345876Y0012337D01*
X0345822Y0012273D01*
X0345764Y0012212D01*
X0345704Y0012154D01*
X0345641Y0012099D01*
X0345576Y0012047D01*
X0345508Y0011998D01*
X0345438Y0011952D01*
X0345366Y0011910D01*
X0345292Y0011871D01*
X0345216Y0011835D01*
X0345138Y0011803D01*
X0345060Y0011775D01*
X0344979Y0011751D01*
X0344898Y0011730D01*
X0344816Y0011714D01*
X0344734Y0011701D01*
X0344650Y0011692D01*
X0344567Y0011687D01*
X0344483Y0011686D01*
X0344399Y0011689D01*
X0344316Y0011696D01*
X0344233Y0011707D01*
X0344151Y0011722D01*
X0344069Y0011740D01*
X0343988Y0011763D01*
X0343909Y0011789D01*
X0343831Y0011819D01*
X0343754Y0011853D01*
X0343679Y0011890D01*
X0343606Y0011930D01*
X0343535Y0011975D01*
X0343466Y0012022D01*
X0343399Y0012073D01*
X0343335Y0012126D01*
X0343273Y0012183D01*
X0343215Y0012243D01*
X0343159Y0012305D01*
X0343106Y0012370D01*
X0343056Y0012437D01*
X0343009Y0012506D01*
X0342966Y0012578D01*
X0342926Y0012652D01*
X0342890Y0012727D01*
X0342857Y0012804D01*
X0342828Y0012883D01*
X0342803Y0012962D01*
X0342781Y0013043D01*
X0342764Y0013125D01*
X0342750Y0013208D01*
X0342740Y0013291D01*
X0342734Y0013374D01*
X0342732Y0013458D01*
X0313204Y0013458D02*
X0313206Y0013542D01*
X0313212Y0013625D01*
X0313222Y0013708D01*
X0313236Y0013791D01*
X0313253Y0013873D01*
X0313275Y0013954D01*
X0313300Y0014033D01*
X0313329Y0014112D01*
X0313362Y0014189D01*
X0313398Y0014264D01*
X0313438Y0014338D01*
X0313481Y0014410D01*
X0313528Y0014479D01*
X0313578Y0014546D01*
X0313631Y0014611D01*
X0313687Y0014673D01*
X0313745Y0014733D01*
X0313807Y0014790D01*
X0313871Y0014843D01*
X0313938Y0014894D01*
X0314007Y0014941D01*
X0314078Y0014986D01*
X0314151Y0015026D01*
X0314226Y0015063D01*
X0314303Y0015097D01*
X0314381Y0015127D01*
X0314460Y0015153D01*
X0314541Y0015176D01*
X0314623Y0015194D01*
X0314705Y0015209D01*
X0314788Y0015220D01*
X0314871Y0015227D01*
X0314955Y0015230D01*
X0315039Y0015229D01*
X0315122Y0015224D01*
X0315206Y0015215D01*
X0315288Y0015202D01*
X0315370Y0015186D01*
X0315451Y0015165D01*
X0315532Y0015141D01*
X0315610Y0015113D01*
X0315688Y0015081D01*
X0315764Y0015045D01*
X0315838Y0015006D01*
X0315910Y0014964D01*
X0315980Y0014918D01*
X0316048Y0014869D01*
X0316113Y0014817D01*
X0316176Y0014762D01*
X0316236Y0014704D01*
X0316294Y0014643D01*
X0316348Y0014579D01*
X0316400Y0014513D01*
X0316448Y0014445D01*
X0316493Y0014374D01*
X0316534Y0014301D01*
X0316573Y0014227D01*
X0316607Y0014151D01*
X0316638Y0014073D01*
X0316665Y0013994D01*
X0316689Y0013913D01*
X0316708Y0013832D01*
X0316724Y0013750D01*
X0316736Y0013667D01*
X0316744Y0013583D01*
X0316748Y0013500D01*
X0316748Y0013416D01*
X0316744Y0013333D01*
X0316736Y0013249D01*
X0316724Y0013166D01*
X0316708Y0013084D01*
X0316689Y0013003D01*
X0316665Y0012922D01*
X0316638Y0012843D01*
X0316607Y0012765D01*
X0316573Y0012689D01*
X0316534Y0012615D01*
X0316493Y0012542D01*
X0316448Y0012471D01*
X0316400Y0012403D01*
X0316348Y0012337D01*
X0316294Y0012273D01*
X0316236Y0012212D01*
X0316176Y0012154D01*
X0316113Y0012099D01*
X0316048Y0012047D01*
X0315980Y0011998D01*
X0315910Y0011952D01*
X0315838Y0011910D01*
X0315764Y0011871D01*
X0315688Y0011835D01*
X0315610Y0011803D01*
X0315532Y0011775D01*
X0315451Y0011751D01*
X0315370Y0011730D01*
X0315288Y0011714D01*
X0315206Y0011701D01*
X0315122Y0011692D01*
X0315039Y0011687D01*
X0314955Y0011686D01*
X0314871Y0011689D01*
X0314788Y0011696D01*
X0314705Y0011707D01*
X0314623Y0011722D01*
X0314541Y0011740D01*
X0314460Y0011763D01*
X0314381Y0011789D01*
X0314303Y0011819D01*
X0314226Y0011853D01*
X0314151Y0011890D01*
X0314078Y0011930D01*
X0314007Y0011975D01*
X0313938Y0012022D01*
X0313871Y0012073D01*
X0313807Y0012126D01*
X0313745Y0012183D01*
X0313687Y0012243D01*
X0313631Y0012305D01*
X0313578Y0012370D01*
X0313528Y0012437D01*
X0313481Y0012506D01*
X0313438Y0012578D01*
X0313398Y0012652D01*
X0313362Y0012727D01*
X0313329Y0012804D01*
X0313300Y0012883D01*
X0313275Y0012962D01*
X0313253Y0013043D01*
X0313236Y0013125D01*
X0313222Y0013208D01*
X0313212Y0013291D01*
X0313206Y0013374D01*
X0313204Y0013458D01*
X0303362Y0013458D02*
X0303364Y0013542D01*
X0303370Y0013625D01*
X0303380Y0013708D01*
X0303394Y0013791D01*
X0303411Y0013873D01*
X0303433Y0013954D01*
X0303458Y0014033D01*
X0303487Y0014112D01*
X0303520Y0014189D01*
X0303556Y0014264D01*
X0303596Y0014338D01*
X0303639Y0014410D01*
X0303686Y0014479D01*
X0303736Y0014546D01*
X0303789Y0014611D01*
X0303845Y0014673D01*
X0303903Y0014733D01*
X0303965Y0014790D01*
X0304029Y0014843D01*
X0304096Y0014894D01*
X0304165Y0014941D01*
X0304236Y0014986D01*
X0304309Y0015026D01*
X0304384Y0015063D01*
X0304461Y0015097D01*
X0304539Y0015127D01*
X0304618Y0015153D01*
X0304699Y0015176D01*
X0304781Y0015194D01*
X0304863Y0015209D01*
X0304946Y0015220D01*
X0305029Y0015227D01*
X0305113Y0015230D01*
X0305197Y0015229D01*
X0305280Y0015224D01*
X0305364Y0015215D01*
X0305446Y0015202D01*
X0305528Y0015186D01*
X0305609Y0015165D01*
X0305690Y0015141D01*
X0305768Y0015113D01*
X0305846Y0015081D01*
X0305922Y0015045D01*
X0305996Y0015006D01*
X0306068Y0014964D01*
X0306138Y0014918D01*
X0306206Y0014869D01*
X0306271Y0014817D01*
X0306334Y0014762D01*
X0306394Y0014704D01*
X0306452Y0014643D01*
X0306506Y0014579D01*
X0306558Y0014513D01*
X0306606Y0014445D01*
X0306651Y0014374D01*
X0306692Y0014301D01*
X0306731Y0014227D01*
X0306765Y0014151D01*
X0306796Y0014073D01*
X0306823Y0013994D01*
X0306847Y0013913D01*
X0306866Y0013832D01*
X0306882Y0013750D01*
X0306894Y0013667D01*
X0306902Y0013583D01*
X0306906Y0013500D01*
X0306906Y0013416D01*
X0306902Y0013333D01*
X0306894Y0013249D01*
X0306882Y0013166D01*
X0306866Y0013084D01*
X0306847Y0013003D01*
X0306823Y0012922D01*
X0306796Y0012843D01*
X0306765Y0012765D01*
X0306731Y0012689D01*
X0306692Y0012615D01*
X0306651Y0012542D01*
X0306606Y0012471D01*
X0306558Y0012403D01*
X0306506Y0012337D01*
X0306452Y0012273D01*
X0306394Y0012212D01*
X0306334Y0012154D01*
X0306271Y0012099D01*
X0306206Y0012047D01*
X0306138Y0011998D01*
X0306068Y0011952D01*
X0305996Y0011910D01*
X0305922Y0011871D01*
X0305846Y0011835D01*
X0305768Y0011803D01*
X0305690Y0011775D01*
X0305609Y0011751D01*
X0305528Y0011730D01*
X0305446Y0011714D01*
X0305364Y0011701D01*
X0305280Y0011692D01*
X0305197Y0011687D01*
X0305113Y0011686D01*
X0305029Y0011689D01*
X0304946Y0011696D01*
X0304863Y0011707D01*
X0304781Y0011722D01*
X0304699Y0011740D01*
X0304618Y0011763D01*
X0304539Y0011789D01*
X0304461Y0011819D01*
X0304384Y0011853D01*
X0304309Y0011890D01*
X0304236Y0011930D01*
X0304165Y0011975D01*
X0304096Y0012022D01*
X0304029Y0012073D01*
X0303965Y0012126D01*
X0303903Y0012183D01*
X0303845Y0012243D01*
X0303789Y0012305D01*
X0303736Y0012370D01*
X0303686Y0012437D01*
X0303639Y0012506D01*
X0303596Y0012578D01*
X0303556Y0012652D01*
X0303520Y0012727D01*
X0303487Y0012804D01*
X0303458Y0012883D01*
X0303433Y0012962D01*
X0303411Y0013043D01*
X0303394Y0013125D01*
X0303380Y0013208D01*
X0303370Y0013291D01*
X0303364Y0013374D01*
X0303362Y0013458D01*
M02*
