G04 EAGLE Gerber RS-274X export*
G75*
%MOMM*%
%FSLAX34Y34*%
%LPD*%
%AMOC8*
5,1,8,0,0,1.08239X$1,22.5*%
G01*
%ADD10C,0.254000*%


D10*
X-140000Y375000D02*
X-135000Y370000D01*
X-85000Y370000D01*
X-80000Y375000D01*
X-80000Y390000D01*
X-70000Y390000D01*
X-70000Y375000D01*
X-65000Y370000D01*
X-15000Y370000D01*
X-10000Y375000D01*
X-10000Y390000D01*
X0Y390000D01*
X0Y220000D01*
X-10000Y220000D01*
X-10000Y245000D01*
X-15000Y250000D01*
X-95000Y250000D01*
X-100000Y245000D01*
X-100000Y55000D01*
X-95000Y50000D01*
X-15000Y50000D01*
X-10000Y55000D01*
X-10000Y80000D01*
X0Y80000D01*
X0Y70000D01*
X266Y63899D01*
X1063Y57845D01*
X2385Y51883D01*
X4222Y46059D01*
X6558Y40417D01*
X9378Y35000D01*
X12659Y29850D01*
X16377Y25005D01*
X20503Y20503D01*
X25005Y16377D01*
X29850Y12659D01*
X35000Y9378D01*
X40417Y6558D01*
X46059Y4222D01*
X51883Y2385D01*
X57845Y1063D01*
X63899Y266D01*
X70000Y0D01*
X820000Y0D01*
X820000Y25000D01*
X980000Y25000D01*
X980000Y0D01*
X1130000Y0D01*
X1136101Y266D01*
X1142155Y1063D01*
X1148117Y2385D01*
X1153941Y4222D01*
X1159583Y6558D01*
X1165000Y9378D01*
X1170150Y12659D01*
X1174995Y16377D01*
X1179497Y20503D01*
X1183623Y25005D01*
X1187341Y29850D01*
X1190622Y35000D01*
X1193442Y40417D01*
X1195778Y46059D01*
X1197615Y51883D01*
X1198937Y57845D01*
X1199734Y63899D01*
X1200000Y70000D01*
X1200000Y90000D01*
X1220000Y90000D01*
X1220000Y65000D01*
X1225000Y60000D01*
X1275000Y60000D01*
X1280000Y65000D01*
X1280000Y90000D01*
X1290000Y90000D01*
X1290000Y70000D01*
X1335000Y70000D01*
X1335000Y210000D01*
X1290000Y210000D01*
X1290000Y190000D01*
X1280000Y190000D01*
X1280000Y250000D01*
X1290000Y250000D01*
X1290000Y225000D01*
X1295000Y220000D01*
X1345000Y220000D01*
X1350000Y225000D01*
X1350000Y405000D01*
X1345000Y410000D01*
X1325000Y410000D01*
X1320000Y405000D01*
X1320000Y400000D01*
X1295000Y400000D01*
X1290000Y395000D01*
X1290000Y380000D01*
X1280000Y380000D01*
X1280000Y565000D01*
X1275000Y570000D01*
X1215000Y570000D01*
X1210000Y565000D01*
X1210000Y540000D01*
X1200000Y540000D01*
X1200000Y560000D01*
X1199734Y566101D01*
X1198937Y572155D01*
X1197615Y578117D01*
X1195778Y583941D01*
X1193442Y589583D01*
X1190622Y595000D01*
X1187341Y600150D01*
X1183623Y604995D01*
X1179497Y609497D01*
X1174995Y613623D01*
X1170150Y617341D01*
X1165000Y620622D01*
X1159583Y623442D01*
X1153941Y625778D01*
X1148117Y627615D01*
X1142155Y628937D01*
X1136101Y629734D01*
X1130000Y630000D01*
X1100000Y630000D01*
X1100000Y580000D01*
X1090000Y580000D01*
X1090000Y630000D01*
X970000Y630000D01*
X970000Y580000D01*
X960000Y580000D01*
X960000Y630000D01*
X70000Y630000D01*
X63899Y629734D01*
X57845Y628937D01*
X51883Y627615D01*
X46059Y625778D01*
X40417Y623442D01*
X35000Y620622D01*
X29850Y617341D01*
X25005Y613623D01*
X20503Y609497D01*
X16377Y604995D01*
X12659Y600150D01*
X9378Y595000D01*
X6558Y589583D01*
X4222Y583941D01*
X2385Y578117D01*
X1063Y572155D01*
X266Y566101D01*
X0Y560000D01*
X0Y550000D01*
X-10000Y550000D01*
X-10000Y575000D01*
X-15000Y580000D01*
X-65000Y580000D01*
X-70000Y575000D01*
X-70000Y550000D01*
X-80000Y550000D01*
X-80000Y575000D01*
X-85000Y580000D01*
X-135000Y580000D01*
X-140000Y575000D01*
X-140000Y375000D01*
X265500Y589000D02*
X267000Y587500D01*
X269000Y587500D01*
X270500Y589000D01*
X270500Y601000D01*
X279000Y592500D01*
X279000Y589000D01*
X280500Y587500D01*
X283000Y587500D01*
X284500Y589000D01*
X284500Y611500D01*
X283000Y613000D01*
X280500Y613000D01*
X279000Y611500D01*
X279000Y599000D01*
X270500Y607500D01*
X270500Y611500D01*
X269000Y613000D01*
X267000Y613000D01*
X265500Y611500D01*
X265500Y589000D01*
X242000Y592500D02*
X247000Y587500D01*
X258500Y587500D01*
X260500Y589500D01*
X260500Y592500D01*
X249500Y592500D01*
X248000Y594000D01*
X247000Y595000D01*
X247000Y604000D01*
X242000Y604000D01*
X242000Y592500D01*
X242000Y608000D02*
X253000Y608000D01*
X255500Y605500D01*
X255500Y596500D01*
X260500Y596500D01*
X260500Y608000D01*
X255500Y613000D01*
X244000Y613000D01*
X242000Y611000D01*
X242000Y608000D01*
X288500Y589500D02*
X290500Y587500D01*
X305500Y587500D01*
X307000Y589000D01*
X307000Y591000D01*
X305500Y592500D01*
X293500Y592500D01*
X293500Y597500D01*
X298500Y597500D01*
X300000Y599000D01*
X300000Y601000D01*
X299500Y601500D01*
X298500Y602500D01*
X293500Y602500D01*
X293500Y608000D01*
X305500Y608000D01*
X307000Y609500D01*
X307000Y611500D01*
X305500Y613000D01*
X290500Y613000D01*
X288500Y611000D01*
X288500Y589500D01*
X218500Y589000D02*
X220000Y587500D01*
X222000Y587500D01*
X223500Y589000D01*
X223500Y597500D01*
X232000Y597500D01*
X232000Y589000D01*
X233500Y587500D01*
X236000Y587500D01*
X237500Y589000D01*
X237500Y611500D01*
X236000Y613000D01*
X233500Y613000D01*
X232000Y611500D01*
X232000Y603000D01*
X223500Y603000D01*
X223500Y611500D01*
X222000Y613000D01*
X220000Y613000D01*
X218500Y611500D01*
X218500Y589000D01*
X195000Y589000D02*
X196500Y587500D01*
X199000Y587500D01*
X200500Y589000D01*
X200500Y594500D01*
X209000Y594500D01*
X214000Y599500D01*
X214000Y608000D01*
X209000Y613000D01*
X197000Y613000D01*
X195000Y611000D01*
X195000Y608000D01*
X206500Y608000D01*
X208000Y606500D01*
X208500Y606000D01*
X208500Y601000D01*
X206500Y599000D01*
X200000Y599000D01*
X200000Y604000D01*
X195000Y604000D01*
X195000Y589000D01*
X172000Y589500D02*
X174000Y587500D01*
X185500Y587500D01*
X190500Y592500D01*
X190500Y608000D01*
X185500Y613000D01*
X174000Y613000D01*
X172000Y611000D01*
X172000Y608000D01*
X183000Y608000D01*
X185500Y605500D01*
X185500Y595000D01*
X183000Y592500D01*
X177000Y592500D01*
X177000Y604000D01*
X172000Y604000D01*
X172000Y589500D01*
X148500Y589500D02*
X150500Y587500D01*
X165500Y587500D01*
X167000Y589000D01*
X167000Y591000D01*
X165500Y592500D01*
X153500Y592500D01*
X153500Y597500D01*
X158500Y597500D01*
X160000Y599000D01*
X160000Y601000D01*
X159500Y601500D01*
X158500Y602500D01*
X153500Y602500D01*
X153500Y608000D01*
X165500Y608000D01*
X167000Y609500D01*
X167000Y611500D01*
X165500Y613000D01*
X150500Y613000D01*
X148500Y611000D01*
X148500Y589500D01*
X1145000Y400000D02*
X1170000Y400000D01*
X1170000Y520000D01*
X1145000Y520000D01*
X1145000Y400000D01*
X125000Y589000D02*
X126500Y587500D01*
X128500Y587500D01*
X130000Y589000D01*
X130000Y594500D01*
X133000Y594500D01*
X140000Y587500D01*
X142000Y587500D01*
X143500Y589000D01*
X143500Y591000D01*
X143000Y591500D01*
X139500Y595000D01*
X142500Y598000D01*
X143500Y599000D01*
X143500Y608000D01*
X138500Y613000D01*
X127000Y613000D01*
X125000Y611000D01*
X125000Y608000D01*
X136500Y608000D01*
X138000Y606500D01*
X138500Y606000D01*
X138500Y601000D01*
X136500Y599000D01*
X130000Y599000D01*
X130000Y604000D01*
X125000Y604000D01*
X125000Y589000D01*
X1280000Y270000D02*
X1290000Y270000D01*
X1290000Y360000D01*
X1280000Y360000D01*
X1280000Y270000D01*
X1280000Y110000D02*
X1290000Y110000D01*
X1290000Y170000D01*
X1280000Y170000D01*
X1280000Y110000D01*
X1140000Y240000D02*
X1195000Y240000D01*
X1200000Y235000D01*
X1200000Y110000D01*
X1220000Y110000D01*
X1220000Y395000D01*
X1225000Y400000D01*
X1250000Y400000D01*
X1250000Y520000D01*
X1245000Y520000D01*
X1240000Y515000D01*
X1215000Y515000D01*
X1210000Y520000D01*
X1200000Y520000D01*
X1200000Y395000D01*
X1195000Y390000D01*
X1140000Y390000D01*
X1140000Y240000D01*
X390000Y560000D02*
X405000Y560000D01*
X405000Y570000D01*
X400000Y570000D01*
X400000Y610000D01*
X390000Y610000D01*
X390000Y560000D01*
X425000Y560000D02*
X490000Y560000D01*
X490000Y570000D01*
X425000Y570000D01*
X425000Y560000D01*
X770000Y560000D02*
X830000Y560000D01*
X830000Y610000D01*
X820000Y610000D01*
X820000Y570000D01*
X770000Y570000D01*
X770000Y560000D01*
X-10000Y410000D02*
X0Y410000D01*
X0Y530000D01*
X-10000Y530000D01*
X-10000Y410000D01*
X-80000Y410000D02*
X-70000Y410000D01*
X-70000Y530000D01*
X-80000Y530000D01*
X-80000Y410000D01*
X-10000Y100000D02*
X0Y100000D01*
X0Y200000D01*
X-10000Y200000D01*
X-10000Y100000D01*
X562500Y560000D02*
X650000Y560000D01*
X650000Y570000D01*
X562500Y570000D01*
X562500Y560000D01*
X1257500Y314632D02*
X1257428Y313898D01*
X1257284Y313175D01*
X1257070Y312470D01*
X1256788Y311789D01*
X1256441Y311140D01*
X1256031Y310527D01*
X1255564Y309957D01*
X1255043Y309436D01*
X1254473Y308969D01*
X1253860Y308559D01*
X1253211Y308212D01*
X1252530Y307930D01*
X1251825Y307716D01*
X1251102Y307572D01*
X1250368Y307500D01*
X1249632Y307500D01*
X1248898Y307572D01*
X1248175Y307716D01*
X1247470Y307930D01*
X1246789Y308212D01*
X1246140Y308559D01*
X1245527Y308969D01*
X1244957Y309436D01*
X1244436Y309957D01*
X1243969Y310527D01*
X1243559Y311140D01*
X1243212Y311789D01*
X1242930Y312470D01*
X1242716Y313175D01*
X1242572Y313898D01*
X1242500Y314632D01*
X1242500Y315368D01*
X1242572Y316102D01*
X1242716Y316825D01*
X1242930Y317530D01*
X1243212Y318211D01*
X1243559Y318860D01*
X1243969Y319473D01*
X1244436Y320043D01*
X1244957Y320564D01*
X1245527Y321031D01*
X1246140Y321441D01*
X1246789Y321788D01*
X1247470Y322070D01*
X1248175Y322284D01*
X1248898Y322428D01*
X1249632Y322500D01*
X1250368Y322500D01*
X1251102Y322428D01*
X1251825Y322284D01*
X1252530Y322070D01*
X1253211Y321788D01*
X1253860Y321441D01*
X1254473Y321031D01*
X1255043Y320564D01*
X1255564Y320043D01*
X1256031Y319473D01*
X1256441Y318860D01*
X1256788Y318211D01*
X1257070Y317530D01*
X1257284Y316825D01*
X1257428Y316102D01*
X1257500Y315368D01*
X1257500Y314632D01*
X1255000Y294719D02*
X1254937Y294161D01*
X1254812Y293614D01*
X1254627Y293084D01*
X1254383Y292578D01*
X1254084Y292102D01*
X1253734Y291663D01*
X1253337Y291266D01*
X1252898Y290916D01*
X1252422Y290617D01*
X1251916Y290373D01*
X1251386Y290188D01*
X1250839Y290063D01*
X1250281Y290000D01*
X1249719Y290000D01*
X1249161Y290063D01*
X1248614Y290188D01*
X1248084Y290373D01*
X1247578Y290617D01*
X1247102Y290916D01*
X1246663Y291266D01*
X1246266Y291663D01*
X1245916Y292102D01*
X1245617Y292578D01*
X1245373Y293084D01*
X1245188Y293614D01*
X1245063Y294161D01*
X1245000Y294719D01*
X1245000Y295281D01*
X1245063Y295839D01*
X1245188Y296386D01*
X1245373Y296916D01*
X1245617Y297422D01*
X1245916Y297898D01*
X1246266Y298337D01*
X1246663Y298734D01*
X1247102Y299084D01*
X1247578Y299383D01*
X1248084Y299627D01*
X1248614Y299812D01*
X1249161Y299937D01*
X1249719Y300000D01*
X1250281Y300000D01*
X1250839Y299937D01*
X1251386Y299812D01*
X1251916Y299627D01*
X1252422Y299383D01*
X1252898Y299084D01*
X1253337Y298734D01*
X1253734Y298337D01*
X1254084Y297898D01*
X1254383Y297422D01*
X1254627Y296916D01*
X1254812Y296386D01*
X1254937Y295839D01*
X1255000Y295281D01*
X1255000Y294719D01*
X1255000Y274719D02*
X1254937Y274161D01*
X1254812Y273614D01*
X1254627Y273084D01*
X1254383Y272578D01*
X1254084Y272102D01*
X1253734Y271663D01*
X1253337Y271266D01*
X1252898Y270916D01*
X1252422Y270617D01*
X1251916Y270373D01*
X1251386Y270188D01*
X1250839Y270063D01*
X1250281Y270000D01*
X1249719Y270000D01*
X1249161Y270063D01*
X1248614Y270188D01*
X1248084Y270373D01*
X1247578Y270617D01*
X1247102Y270916D01*
X1246663Y271266D01*
X1246266Y271663D01*
X1245916Y272102D01*
X1245617Y272578D01*
X1245373Y273084D01*
X1245188Y273614D01*
X1245063Y274161D01*
X1245000Y274719D01*
X1245000Y275281D01*
X1245063Y275839D01*
X1245188Y276386D01*
X1245373Y276916D01*
X1245617Y277422D01*
X1245916Y277898D01*
X1246266Y278337D01*
X1246663Y278734D01*
X1247102Y279084D01*
X1247578Y279383D01*
X1248084Y279627D01*
X1248614Y279812D01*
X1249161Y279937D01*
X1249719Y280000D01*
X1250281Y280000D01*
X1250839Y279937D01*
X1251386Y279812D01*
X1251916Y279627D01*
X1252422Y279383D01*
X1252898Y279084D01*
X1253337Y278734D01*
X1253734Y278337D01*
X1254084Y277898D01*
X1254383Y277422D01*
X1254627Y276916D01*
X1254812Y276386D01*
X1254937Y275839D01*
X1255000Y275281D01*
X1255000Y274719D01*
X1255000Y334719D02*
X1254937Y334161D01*
X1254812Y333614D01*
X1254627Y333084D01*
X1254383Y332578D01*
X1254084Y332102D01*
X1253734Y331663D01*
X1253337Y331266D01*
X1252898Y330916D01*
X1252422Y330617D01*
X1251916Y330373D01*
X1251386Y330188D01*
X1250839Y330063D01*
X1250281Y330000D01*
X1249719Y330000D01*
X1249161Y330063D01*
X1248614Y330188D01*
X1248084Y330373D01*
X1247578Y330617D01*
X1247102Y330916D01*
X1246663Y331266D01*
X1246266Y331663D01*
X1245916Y332102D01*
X1245617Y332578D01*
X1245373Y333084D01*
X1245188Y333614D01*
X1245063Y334161D01*
X1245000Y334719D01*
X1245000Y335281D01*
X1245063Y335839D01*
X1245188Y336386D01*
X1245373Y336916D01*
X1245617Y337422D01*
X1245916Y337898D01*
X1246266Y338337D01*
X1246663Y338734D01*
X1247102Y339084D01*
X1247578Y339383D01*
X1248084Y339627D01*
X1248614Y339812D01*
X1249161Y339937D01*
X1249719Y340000D01*
X1250281Y340000D01*
X1250839Y339937D01*
X1251386Y339812D01*
X1251916Y339627D01*
X1252422Y339383D01*
X1252898Y339084D01*
X1253337Y338734D01*
X1253734Y338337D01*
X1254084Y337898D01*
X1254383Y337422D01*
X1254627Y336916D01*
X1254812Y336386D01*
X1254937Y335839D01*
X1255000Y335281D01*
X1255000Y334719D01*
X1255000Y354719D02*
X1254937Y354161D01*
X1254812Y353614D01*
X1254627Y353084D01*
X1254383Y352578D01*
X1254084Y352102D01*
X1253734Y351663D01*
X1253337Y351266D01*
X1252898Y350916D01*
X1252422Y350617D01*
X1251916Y350373D01*
X1251386Y350188D01*
X1250839Y350063D01*
X1250281Y350000D01*
X1249719Y350000D01*
X1249161Y350063D01*
X1248614Y350188D01*
X1248084Y350373D01*
X1247578Y350617D01*
X1247102Y350916D01*
X1246663Y351266D01*
X1246266Y351663D01*
X1245916Y352102D01*
X1245617Y352578D01*
X1245373Y353084D01*
X1245188Y353614D01*
X1245063Y354161D01*
X1245000Y354719D01*
X1245000Y355281D01*
X1245063Y355839D01*
X1245188Y356386D01*
X1245373Y356916D01*
X1245617Y357422D01*
X1245916Y357898D01*
X1246266Y358337D01*
X1246663Y358734D01*
X1247102Y359084D01*
X1247578Y359383D01*
X1248084Y359627D01*
X1248614Y359812D01*
X1249161Y359937D01*
X1249719Y360000D01*
X1250281Y360000D01*
X1250839Y359937D01*
X1251386Y359812D01*
X1251916Y359627D01*
X1252422Y359383D01*
X1252898Y359084D01*
X1253337Y358734D01*
X1253734Y358337D01*
X1254084Y357898D01*
X1254383Y357422D01*
X1254627Y356916D01*
X1254812Y356386D01*
X1254937Y355839D01*
X1255000Y355281D01*
X1255000Y354719D01*
X-1750Y544787D02*
X-1806Y544365D01*
X-1916Y543953D01*
X-2079Y543559D01*
X-2292Y543191D01*
X-2551Y542853D01*
X-2853Y542551D01*
X-3191Y542292D01*
X-3559Y542079D01*
X-3953Y541916D01*
X-4365Y541806D01*
X-4787Y541750D01*
X-5213Y541750D01*
X-5635Y541806D01*
X-6047Y541916D01*
X-6441Y542079D01*
X-6809Y542292D01*
X-7147Y542551D01*
X-7449Y542853D01*
X-7708Y543191D01*
X-7921Y543559D01*
X-8084Y543953D01*
X-8194Y544365D01*
X-8250Y544787D01*
X-8250Y545213D01*
X-8194Y545635D01*
X-8084Y546047D01*
X-7921Y546441D01*
X-7708Y546809D01*
X-7449Y547147D01*
X-7147Y547449D01*
X-6809Y547708D01*
X-6441Y547921D01*
X-6047Y548084D01*
X-5635Y548194D01*
X-5213Y548250D01*
X-4787Y548250D01*
X-4365Y548194D01*
X-3953Y548084D01*
X-3559Y547921D01*
X-3191Y547708D01*
X-2853Y547449D01*
X-2551Y547147D01*
X-2292Y546809D01*
X-2079Y546441D01*
X-1916Y546047D01*
X-1806Y545635D01*
X-1750Y545213D01*
X-1750Y544787D01*
X-1750Y534787D02*
X-1806Y534365D01*
X-1916Y533953D01*
X-2079Y533559D01*
X-2292Y533191D01*
X-2551Y532853D01*
X-2853Y532551D01*
X-3191Y532292D01*
X-3559Y532079D01*
X-3953Y531916D01*
X-4365Y531806D01*
X-4787Y531750D01*
X-5213Y531750D01*
X-5635Y531806D01*
X-6047Y531916D01*
X-6441Y532079D01*
X-6809Y532292D01*
X-7147Y532551D01*
X-7449Y532853D01*
X-7708Y533191D01*
X-7921Y533559D01*
X-8084Y533953D01*
X-8194Y534365D01*
X-8250Y534787D01*
X-8250Y535213D01*
X-8194Y535635D01*
X-8084Y536047D01*
X-7921Y536441D01*
X-7708Y536809D01*
X-7449Y537147D01*
X-7147Y537449D01*
X-6809Y537708D01*
X-6441Y537921D01*
X-6047Y538084D01*
X-5635Y538194D01*
X-5213Y538250D01*
X-4787Y538250D01*
X-4365Y538194D01*
X-3953Y538084D01*
X-3559Y537921D01*
X-3191Y537708D01*
X-2853Y537449D01*
X-2551Y537147D01*
X-2292Y536809D01*
X-2079Y536441D01*
X-1916Y536047D01*
X-1806Y535635D01*
X-1750Y535213D01*
X-1750Y534787D01*
X-1750Y404787D02*
X-1806Y404365D01*
X-1916Y403953D01*
X-2079Y403559D01*
X-2292Y403191D01*
X-2551Y402853D01*
X-2853Y402551D01*
X-3191Y402292D01*
X-3559Y402079D01*
X-3953Y401916D01*
X-4365Y401806D01*
X-4787Y401750D01*
X-5213Y401750D01*
X-5635Y401806D01*
X-6047Y401916D01*
X-6441Y402079D01*
X-6809Y402292D01*
X-7147Y402551D01*
X-7449Y402853D01*
X-7708Y403191D01*
X-7921Y403559D01*
X-8084Y403953D01*
X-8194Y404365D01*
X-8250Y404787D01*
X-8250Y405213D01*
X-8194Y405635D01*
X-8084Y406047D01*
X-7921Y406441D01*
X-7708Y406809D01*
X-7449Y407147D01*
X-7147Y407449D01*
X-6809Y407708D01*
X-6441Y407921D01*
X-6047Y408084D01*
X-5635Y408194D01*
X-5213Y408250D01*
X-4787Y408250D01*
X-4365Y408194D01*
X-3953Y408084D01*
X-3559Y407921D01*
X-3191Y407708D01*
X-2853Y407449D01*
X-2551Y407147D01*
X-2292Y406809D01*
X-2079Y406441D01*
X-1916Y406047D01*
X-1806Y405635D01*
X-1750Y405213D01*
X-1750Y404787D01*
X-1750Y394787D02*
X-1806Y394365D01*
X-1916Y393953D01*
X-2079Y393559D01*
X-2292Y393191D01*
X-2551Y392853D01*
X-2853Y392551D01*
X-3191Y392292D01*
X-3559Y392079D01*
X-3953Y391916D01*
X-4365Y391806D01*
X-4787Y391750D01*
X-5213Y391750D01*
X-5635Y391806D01*
X-6047Y391916D01*
X-6441Y392079D01*
X-6809Y392292D01*
X-7147Y392551D01*
X-7449Y392853D01*
X-7708Y393191D01*
X-7921Y393559D01*
X-8084Y393953D01*
X-8194Y394365D01*
X-8250Y394787D01*
X-8250Y395213D01*
X-8194Y395635D01*
X-8084Y396047D01*
X-7921Y396441D01*
X-7708Y396809D01*
X-7449Y397147D01*
X-7147Y397449D01*
X-6809Y397708D01*
X-6441Y397921D01*
X-6047Y398084D01*
X-5635Y398194D01*
X-5213Y398250D01*
X-4787Y398250D01*
X-4365Y398194D01*
X-3953Y398084D01*
X-3559Y397921D01*
X-3191Y397708D01*
X-2853Y397449D01*
X-2551Y397147D01*
X-2292Y396809D01*
X-2079Y396441D01*
X-1916Y396047D01*
X-1806Y395635D01*
X-1750Y395213D01*
X-1750Y394787D01*
X-1750Y214787D02*
X-1806Y214365D01*
X-1916Y213953D01*
X-2079Y213559D01*
X-2292Y213191D01*
X-2551Y212853D01*
X-2853Y212551D01*
X-3191Y212292D01*
X-3559Y212079D01*
X-3953Y211916D01*
X-4365Y211806D01*
X-4787Y211750D01*
X-5213Y211750D01*
X-5635Y211806D01*
X-6047Y211916D01*
X-6441Y212079D01*
X-6809Y212292D01*
X-7147Y212551D01*
X-7449Y212853D01*
X-7708Y213191D01*
X-7921Y213559D01*
X-8084Y213953D01*
X-8194Y214365D01*
X-8250Y214787D01*
X-8250Y215213D01*
X-8194Y215635D01*
X-8084Y216047D01*
X-7921Y216441D01*
X-7708Y216809D01*
X-7449Y217147D01*
X-7147Y217449D01*
X-6809Y217708D01*
X-6441Y217921D01*
X-6047Y218084D01*
X-5635Y218194D01*
X-5213Y218250D01*
X-4787Y218250D01*
X-4365Y218194D01*
X-3953Y218084D01*
X-3559Y217921D01*
X-3191Y217708D01*
X-2853Y217449D01*
X-2551Y217147D01*
X-2292Y216809D01*
X-2079Y216441D01*
X-1916Y216047D01*
X-1806Y215635D01*
X-1750Y215213D01*
X-1750Y214787D01*
X-1750Y204787D02*
X-1806Y204365D01*
X-1916Y203953D01*
X-2079Y203559D01*
X-2292Y203191D01*
X-2551Y202853D01*
X-2853Y202551D01*
X-3191Y202292D01*
X-3559Y202079D01*
X-3953Y201916D01*
X-4365Y201806D01*
X-4787Y201750D01*
X-5213Y201750D01*
X-5635Y201806D01*
X-6047Y201916D01*
X-6441Y202079D01*
X-6809Y202292D01*
X-7147Y202551D01*
X-7449Y202853D01*
X-7708Y203191D01*
X-7921Y203559D01*
X-8084Y203953D01*
X-8194Y204365D01*
X-8250Y204787D01*
X-8250Y205213D01*
X-8194Y205635D01*
X-8084Y206047D01*
X-7921Y206441D01*
X-7708Y206809D01*
X-7449Y207147D01*
X-7147Y207449D01*
X-6809Y207708D01*
X-6441Y207921D01*
X-6047Y208084D01*
X-5635Y208194D01*
X-5213Y208250D01*
X-4787Y208250D01*
X-4365Y208194D01*
X-3953Y208084D01*
X-3559Y207921D01*
X-3191Y207708D01*
X-2853Y207449D01*
X-2551Y207147D01*
X-2292Y206809D01*
X-2079Y206441D01*
X-1916Y206047D01*
X-1806Y205635D01*
X-1750Y205213D01*
X-1750Y204787D01*
X-1750Y94787D02*
X-1806Y94365D01*
X-1916Y93953D01*
X-2079Y93559D01*
X-2292Y93191D01*
X-2551Y92853D01*
X-2853Y92551D01*
X-3191Y92292D01*
X-3559Y92079D01*
X-3953Y91916D01*
X-4365Y91806D01*
X-4787Y91750D01*
X-5213Y91750D01*
X-5635Y91806D01*
X-6047Y91916D01*
X-6441Y92079D01*
X-6809Y92292D01*
X-7147Y92551D01*
X-7449Y92853D01*
X-7708Y93191D01*
X-7921Y93559D01*
X-8084Y93953D01*
X-8194Y94365D01*
X-8250Y94787D01*
X-8250Y95213D01*
X-8194Y95635D01*
X-8084Y96047D01*
X-7921Y96441D01*
X-7708Y96809D01*
X-7449Y97147D01*
X-7147Y97449D01*
X-6809Y97708D01*
X-6441Y97921D01*
X-6047Y98084D01*
X-5635Y98194D01*
X-5213Y98250D01*
X-4787Y98250D01*
X-4365Y98194D01*
X-3953Y98084D01*
X-3559Y97921D01*
X-3191Y97708D01*
X-2853Y97449D01*
X-2551Y97147D01*
X-2292Y96809D01*
X-2079Y96441D01*
X-1916Y96047D01*
X-1806Y95635D01*
X-1750Y95213D01*
X-1750Y94787D01*
X-1750Y84787D02*
X-1806Y84365D01*
X-1916Y83953D01*
X-2079Y83559D01*
X-2292Y83191D01*
X-2551Y82853D01*
X-2853Y82551D01*
X-3191Y82292D01*
X-3559Y82079D01*
X-3953Y81916D01*
X-4365Y81806D01*
X-4787Y81750D01*
X-5213Y81750D01*
X-5635Y81806D01*
X-6047Y81916D01*
X-6441Y82079D01*
X-6809Y82292D01*
X-7147Y82551D01*
X-7449Y82853D01*
X-7708Y83191D01*
X-7921Y83559D01*
X-8084Y83953D01*
X-8194Y84365D01*
X-8250Y84787D01*
X-8250Y85213D01*
X-8194Y85635D01*
X-8084Y86047D01*
X-7921Y86441D01*
X-7708Y86809D01*
X-7449Y87147D01*
X-7147Y87449D01*
X-6809Y87708D01*
X-6441Y87921D01*
X-6047Y88084D01*
X-5635Y88194D01*
X-5213Y88250D01*
X-4787Y88250D01*
X-4365Y88194D01*
X-3953Y88084D01*
X-3559Y87921D01*
X-3191Y87708D01*
X-2853Y87449D01*
X-2551Y87147D01*
X-2292Y86809D01*
X-2079Y86441D01*
X-1916Y86047D01*
X-1806Y85635D01*
X-1750Y85213D01*
X-1750Y84787D01*
X1208250Y534787D02*
X1208194Y534365D01*
X1208084Y533953D01*
X1207921Y533559D01*
X1207708Y533191D01*
X1207449Y532853D01*
X1207147Y532551D01*
X1206809Y532292D01*
X1206441Y532079D01*
X1206047Y531916D01*
X1205635Y531806D01*
X1205213Y531750D01*
X1204787Y531750D01*
X1204365Y531806D01*
X1203953Y531916D01*
X1203559Y532079D01*
X1203191Y532292D01*
X1202853Y532551D01*
X1202551Y532853D01*
X1202292Y533191D01*
X1202079Y533559D01*
X1201916Y533953D01*
X1201806Y534365D01*
X1201750Y534787D01*
X1201750Y535213D01*
X1201806Y535635D01*
X1201916Y536047D01*
X1202079Y536441D01*
X1202292Y536809D01*
X1202551Y537147D01*
X1202853Y537449D01*
X1203191Y537708D01*
X1203559Y537921D01*
X1203953Y538084D01*
X1204365Y538194D01*
X1204787Y538250D01*
X1205213Y538250D01*
X1205635Y538194D01*
X1206047Y538084D01*
X1206441Y537921D01*
X1206809Y537708D01*
X1207147Y537449D01*
X1207449Y537147D01*
X1207708Y536809D01*
X1207921Y536441D01*
X1208084Y536047D01*
X1208194Y535635D01*
X1208250Y535213D01*
X1208250Y534787D01*
X1208250Y524787D02*
X1208194Y524365D01*
X1208084Y523953D01*
X1207921Y523559D01*
X1207708Y523191D01*
X1207449Y522853D01*
X1207147Y522551D01*
X1206809Y522292D01*
X1206441Y522079D01*
X1206047Y521916D01*
X1205635Y521806D01*
X1205213Y521750D01*
X1204787Y521750D01*
X1204365Y521806D01*
X1203953Y521916D01*
X1203559Y522079D01*
X1203191Y522292D01*
X1202853Y522551D01*
X1202551Y522853D01*
X1202292Y523191D01*
X1202079Y523559D01*
X1201916Y523953D01*
X1201806Y524365D01*
X1201750Y524787D01*
X1201750Y525213D01*
X1201806Y525635D01*
X1201916Y526047D01*
X1202079Y526441D01*
X1202292Y526809D01*
X1202551Y527147D01*
X1202853Y527449D01*
X1203191Y527708D01*
X1203559Y527921D01*
X1203953Y528084D01*
X1204365Y528194D01*
X1204787Y528250D01*
X1205213Y528250D01*
X1205635Y528194D01*
X1206047Y528084D01*
X1206441Y527921D01*
X1206809Y527708D01*
X1207147Y527449D01*
X1207449Y527147D01*
X1207708Y526809D01*
X1207921Y526441D01*
X1208084Y526047D01*
X1208194Y525635D01*
X1208250Y525213D01*
X1208250Y524787D01*
X1288250Y374787D02*
X1288194Y374365D01*
X1288084Y373953D01*
X1287921Y373559D01*
X1287708Y373191D01*
X1287449Y372853D01*
X1287147Y372551D01*
X1286809Y372292D01*
X1286441Y372079D01*
X1286047Y371916D01*
X1285635Y371806D01*
X1285213Y371750D01*
X1284787Y371750D01*
X1284365Y371806D01*
X1283953Y371916D01*
X1283559Y372079D01*
X1283191Y372292D01*
X1282853Y372551D01*
X1282551Y372853D01*
X1282292Y373191D01*
X1282079Y373559D01*
X1281916Y373953D01*
X1281806Y374365D01*
X1281750Y374787D01*
X1281750Y375213D01*
X1281806Y375635D01*
X1281916Y376047D01*
X1282079Y376441D01*
X1282292Y376809D01*
X1282551Y377147D01*
X1282853Y377449D01*
X1283191Y377708D01*
X1283559Y377921D01*
X1283953Y378084D01*
X1284365Y378194D01*
X1284787Y378250D01*
X1285213Y378250D01*
X1285635Y378194D01*
X1286047Y378084D01*
X1286441Y377921D01*
X1286809Y377708D01*
X1287147Y377449D01*
X1287449Y377147D01*
X1287708Y376809D01*
X1287921Y376441D01*
X1288084Y376047D01*
X1288194Y375635D01*
X1288250Y375213D01*
X1288250Y374787D01*
X1288250Y364787D02*
X1288194Y364365D01*
X1288084Y363953D01*
X1287921Y363559D01*
X1287708Y363191D01*
X1287449Y362853D01*
X1287147Y362551D01*
X1286809Y362292D01*
X1286441Y362079D01*
X1286047Y361916D01*
X1285635Y361806D01*
X1285213Y361750D01*
X1284787Y361750D01*
X1284365Y361806D01*
X1283953Y361916D01*
X1283559Y362079D01*
X1283191Y362292D01*
X1282853Y362551D01*
X1282551Y362853D01*
X1282292Y363191D01*
X1282079Y363559D01*
X1281916Y363953D01*
X1281806Y364365D01*
X1281750Y364787D01*
X1281750Y365213D01*
X1281806Y365635D01*
X1281916Y366047D01*
X1282079Y366441D01*
X1282292Y366809D01*
X1282551Y367147D01*
X1282853Y367449D01*
X1283191Y367708D01*
X1283559Y367921D01*
X1283953Y368084D01*
X1284365Y368194D01*
X1284787Y368250D01*
X1285213Y368250D01*
X1285635Y368194D01*
X1286047Y368084D01*
X1286441Y367921D01*
X1286809Y367708D01*
X1287147Y367449D01*
X1287449Y367147D01*
X1287708Y366809D01*
X1287921Y366441D01*
X1288084Y366047D01*
X1288194Y365635D01*
X1288250Y365213D01*
X1288250Y364787D01*
X1288250Y264787D02*
X1288194Y264365D01*
X1288084Y263953D01*
X1287921Y263559D01*
X1287708Y263191D01*
X1287449Y262853D01*
X1287147Y262551D01*
X1286809Y262292D01*
X1286441Y262079D01*
X1286047Y261916D01*
X1285635Y261806D01*
X1285213Y261750D01*
X1284787Y261750D01*
X1284365Y261806D01*
X1283953Y261916D01*
X1283559Y262079D01*
X1283191Y262292D01*
X1282853Y262551D01*
X1282551Y262853D01*
X1282292Y263191D01*
X1282079Y263559D01*
X1281916Y263953D01*
X1281806Y264365D01*
X1281750Y264787D01*
X1281750Y265213D01*
X1281806Y265635D01*
X1281916Y266047D01*
X1282079Y266441D01*
X1282292Y266809D01*
X1282551Y267147D01*
X1282853Y267449D01*
X1283191Y267708D01*
X1283559Y267921D01*
X1283953Y268084D01*
X1284365Y268194D01*
X1284787Y268250D01*
X1285213Y268250D01*
X1285635Y268194D01*
X1286047Y268084D01*
X1286441Y267921D01*
X1286809Y267708D01*
X1287147Y267449D01*
X1287449Y267147D01*
X1287708Y266809D01*
X1287921Y266441D01*
X1288084Y266047D01*
X1288194Y265635D01*
X1288250Y265213D01*
X1288250Y264787D01*
X1288250Y254787D02*
X1288194Y254365D01*
X1288084Y253953D01*
X1287921Y253559D01*
X1287708Y253191D01*
X1287449Y252853D01*
X1287147Y252551D01*
X1286809Y252292D01*
X1286441Y252079D01*
X1286047Y251916D01*
X1285635Y251806D01*
X1285213Y251750D01*
X1284787Y251750D01*
X1284365Y251806D01*
X1283953Y251916D01*
X1283559Y252079D01*
X1283191Y252292D01*
X1282853Y252551D01*
X1282551Y252853D01*
X1282292Y253191D01*
X1282079Y253559D01*
X1281916Y253953D01*
X1281806Y254365D01*
X1281750Y254787D01*
X1281750Y255213D01*
X1281806Y255635D01*
X1281916Y256047D01*
X1282079Y256441D01*
X1282292Y256809D01*
X1282551Y257147D01*
X1282853Y257449D01*
X1283191Y257708D01*
X1283559Y257921D01*
X1283953Y258084D01*
X1284365Y258194D01*
X1284787Y258250D01*
X1285213Y258250D01*
X1285635Y258194D01*
X1286047Y258084D01*
X1286441Y257921D01*
X1286809Y257708D01*
X1287147Y257449D01*
X1287449Y257147D01*
X1287708Y256809D01*
X1287921Y256441D01*
X1288084Y256047D01*
X1288194Y255635D01*
X1288250Y255213D01*
X1288250Y254787D01*
X1208250Y104787D02*
X1208194Y104365D01*
X1208084Y103953D01*
X1207921Y103559D01*
X1207708Y103191D01*
X1207449Y102853D01*
X1207147Y102551D01*
X1206809Y102292D01*
X1206441Y102079D01*
X1206047Y101916D01*
X1205635Y101806D01*
X1205213Y101750D01*
X1204787Y101750D01*
X1204365Y101806D01*
X1203953Y101916D01*
X1203559Y102079D01*
X1203191Y102292D01*
X1202853Y102551D01*
X1202551Y102853D01*
X1202292Y103191D01*
X1202079Y103559D01*
X1201916Y103953D01*
X1201806Y104365D01*
X1201750Y104787D01*
X1201750Y105213D01*
X1201806Y105635D01*
X1201916Y106047D01*
X1202079Y106441D01*
X1202292Y106809D01*
X1202551Y107147D01*
X1202853Y107449D01*
X1203191Y107708D01*
X1203559Y107921D01*
X1203953Y108084D01*
X1204365Y108194D01*
X1204787Y108250D01*
X1205213Y108250D01*
X1205635Y108194D01*
X1206047Y108084D01*
X1206441Y107921D01*
X1206809Y107708D01*
X1207147Y107449D01*
X1207449Y107147D01*
X1207708Y106809D01*
X1207921Y106441D01*
X1208084Y106047D01*
X1208194Y105635D01*
X1208250Y105213D01*
X1208250Y104787D01*
X1208250Y94787D02*
X1208194Y94365D01*
X1208084Y93953D01*
X1207921Y93559D01*
X1207708Y93191D01*
X1207449Y92853D01*
X1207147Y92551D01*
X1206809Y92292D01*
X1206441Y92079D01*
X1206047Y91916D01*
X1205635Y91806D01*
X1205213Y91750D01*
X1204787Y91750D01*
X1204365Y91806D01*
X1203953Y91916D01*
X1203559Y92079D01*
X1203191Y92292D01*
X1202853Y92551D01*
X1202551Y92853D01*
X1202292Y93191D01*
X1202079Y93559D01*
X1201916Y93953D01*
X1201806Y94365D01*
X1201750Y94787D01*
X1201750Y95213D01*
X1201806Y95635D01*
X1201916Y96047D01*
X1202079Y96441D01*
X1202292Y96809D01*
X1202551Y97147D01*
X1202853Y97449D01*
X1203191Y97708D01*
X1203559Y97921D01*
X1203953Y98084D01*
X1204365Y98194D01*
X1204787Y98250D01*
X1205213Y98250D01*
X1205635Y98194D01*
X1206047Y98084D01*
X1206441Y97921D01*
X1206809Y97708D01*
X1207147Y97449D01*
X1207449Y97147D01*
X1207708Y96809D01*
X1207921Y96441D01*
X1208084Y96047D01*
X1208194Y95635D01*
X1208250Y95213D01*
X1208250Y94787D01*
X1218250Y104787D02*
X1218194Y104365D01*
X1218084Y103953D01*
X1217921Y103559D01*
X1217708Y103191D01*
X1217449Y102853D01*
X1217147Y102551D01*
X1216809Y102292D01*
X1216441Y102079D01*
X1216047Y101916D01*
X1215635Y101806D01*
X1215213Y101750D01*
X1214787Y101750D01*
X1214365Y101806D01*
X1213953Y101916D01*
X1213559Y102079D01*
X1213191Y102292D01*
X1212853Y102551D01*
X1212551Y102853D01*
X1212292Y103191D01*
X1212079Y103559D01*
X1211916Y103953D01*
X1211806Y104365D01*
X1211750Y104787D01*
X1211750Y105213D01*
X1211806Y105635D01*
X1211916Y106047D01*
X1212079Y106441D01*
X1212292Y106809D01*
X1212551Y107147D01*
X1212853Y107449D01*
X1213191Y107708D01*
X1213559Y107921D01*
X1213953Y108084D01*
X1214365Y108194D01*
X1214787Y108250D01*
X1215213Y108250D01*
X1215635Y108194D01*
X1216047Y108084D01*
X1216441Y107921D01*
X1216809Y107708D01*
X1217147Y107449D01*
X1217449Y107147D01*
X1217708Y106809D01*
X1217921Y106441D01*
X1218084Y106047D01*
X1218194Y105635D01*
X1218250Y105213D01*
X1218250Y104787D01*
X1218250Y94787D02*
X1218194Y94365D01*
X1218084Y93953D01*
X1217921Y93559D01*
X1217708Y93191D01*
X1217449Y92853D01*
X1217147Y92551D01*
X1216809Y92292D01*
X1216441Y92079D01*
X1216047Y91916D01*
X1215635Y91806D01*
X1215213Y91750D01*
X1214787Y91750D01*
X1214365Y91806D01*
X1213953Y91916D01*
X1213559Y92079D01*
X1213191Y92292D01*
X1212853Y92551D01*
X1212551Y92853D01*
X1212292Y93191D01*
X1212079Y93559D01*
X1211916Y93953D01*
X1211806Y94365D01*
X1211750Y94787D01*
X1211750Y95213D01*
X1211806Y95635D01*
X1211916Y96047D01*
X1212079Y96441D01*
X1212292Y96809D01*
X1212551Y97147D01*
X1212853Y97449D01*
X1213191Y97708D01*
X1213559Y97921D01*
X1213953Y98084D01*
X1214365Y98194D01*
X1214787Y98250D01*
X1215213Y98250D01*
X1215635Y98194D01*
X1216047Y98084D01*
X1216441Y97921D01*
X1216809Y97708D01*
X1217147Y97449D01*
X1217449Y97147D01*
X1217708Y96809D01*
X1217921Y96441D01*
X1218084Y96047D01*
X1218194Y95635D01*
X1218250Y95213D01*
X1218250Y94787D01*
X55000Y149563D02*
X54924Y148694D01*
X54772Y147834D01*
X54546Y146990D01*
X54248Y146170D01*
X53879Y145378D01*
X53442Y144622D01*
X52941Y143907D01*
X52380Y143238D01*
X51762Y142620D01*
X51093Y142059D01*
X50378Y141558D01*
X49622Y141121D01*
X48830Y140752D01*
X48010Y140454D01*
X47166Y140228D01*
X46307Y140076D01*
X45437Y140000D01*
X44563Y140000D01*
X43694Y140076D01*
X42834Y140228D01*
X41990Y140454D01*
X41170Y140752D01*
X40378Y141121D01*
X39622Y141558D01*
X38907Y142059D01*
X38238Y142620D01*
X37620Y143238D01*
X37059Y143907D01*
X36558Y144622D01*
X36121Y145378D01*
X35752Y146170D01*
X35454Y146990D01*
X35228Y147834D01*
X35076Y148694D01*
X35000Y149563D01*
X35000Y150437D01*
X35076Y151307D01*
X35228Y152166D01*
X35454Y153010D01*
X35752Y153830D01*
X36121Y154622D01*
X36558Y155378D01*
X37059Y156093D01*
X37620Y156762D01*
X38238Y157380D01*
X38907Y157941D01*
X39622Y158442D01*
X40378Y158879D01*
X41170Y159248D01*
X41990Y159546D01*
X42834Y159772D01*
X43694Y159924D01*
X44563Y160000D01*
X45437Y160000D01*
X46307Y159924D01*
X47166Y159772D01*
X48010Y159546D01*
X48830Y159248D01*
X49622Y158879D01*
X50378Y158442D01*
X51093Y157941D01*
X51762Y157380D01*
X52380Y156762D01*
X52941Y156093D01*
X53442Y155378D01*
X53879Y154622D01*
X54248Y153830D01*
X54546Y153010D01*
X54772Y152166D01*
X54924Y151307D01*
X55000Y150437D01*
X55000Y149563D01*
X52500Y179632D02*
X52428Y178898D01*
X52284Y178175D01*
X52070Y177470D01*
X51788Y176789D01*
X51441Y176140D01*
X51031Y175527D01*
X50564Y174957D01*
X50043Y174436D01*
X49473Y173969D01*
X48860Y173559D01*
X48211Y173212D01*
X47530Y172930D01*
X46825Y172716D01*
X46102Y172572D01*
X45368Y172500D01*
X44632Y172500D01*
X43898Y172572D01*
X43175Y172716D01*
X42470Y172930D01*
X41789Y173212D01*
X41140Y173559D01*
X40527Y173969D01*
X39957Y174436D01*
X39436Y174957D01*
X38969Y175527D01*
X38559Y176140D01*
X38212Y176789D01*
X37930Y177470D01*
X37716Y178175D01*
X37572Y178898D01*
X37500Y179632D01*
X37500Y180368D01*
X37572Y181102D01*
X37716Y181825D01*
X37930Y182530D01*
X38212Y183211D01*
X38559Y183860D01*
X38969Y184473D01*
X39436Y185043D01*
X39957Y185564D01*
X40527Y186031D01*
X41140Y186441D01*
X41789Y186788D01*
X42470Y187070D01*
X43175Y187284D01*
X43898Y187428D01*
X44632Y187500D01*
X45368Y187500D01*
X46102Y187428D01*
X46825Y187284D01*
X47530Y187070D01*
X48211Y186788D01*
X48860Y186441D01*
X49473Y186031D01*
X50043Y185564D01*
X50564Y185043D01*
X51031Y184473D01*
X51441Y183860D01*
X51788Y183211D01*
X52070Y182530D01*
X52284Y181825D01*
X52428Y181102D01*
X52500Y180368D01*
X52500Y179632D01*
X52500Y119632D02*
X52428Y118898D01*
X52284Y118175D01*
X52070Y117470D01*
X51788Y116789D01*
X51441Y116140D01*
X51031Y115527D01*
X50564Y114957D01*
X50043Y114436D01*
X49473Y113969D01*
X48860Y113559D01*
X48211Y113212D01*
X47530Y112930D01*
X46825Y112716D01*
X46102Y112572D01*
X45368Y112500D01*
X44632Y112500D01*
X43898Y112572D01*
X43175Y112716D01*
X42470Y112930D01*
X41789Y113212D01*
X41140Y113559D01*
X40527Y113969D01*
X39957Y114436D01*
X39436Y114957D01*
X38969Y115527D01*
X38559Y116140D01*
X38212Y116789D01*
X37930Y117470D01*
X37716Y118175D01*
X37572Y118898D01*
X37500Y119632D01*
X37500Y120368D01*
X37572Y121102D01*
X37716Y121825D01*
X37930Y122530D01*
X38212Y123211D01*
X38559Y123860D01*
X38969Y124473D01*
X39436Y125043D01*
X39957Y125564D01*
X40527Y126031D01*
X41140Y126441D01*
X41789Y126788D01*
X42470Y127070D01*
X43175Y127284D01*
X43898Y127428D01*
X44632Y127500D01*
X45368Y127500D01*
X46102Y127428D01*
X46825Y127284D01*
X47530Y127070D01*
X48211Y126788D01*
X48860Y126441D01*
X49473Y126031D01*
X50043Y125564D01*
X50564Y125043D01*
X51031Y124473D01*
X51441Y123860D01*
X51788Y123211D01*
X52070Y122530D01*
X52284Y121825D01*
X52428Y121102D01*
X52500Y120368D01*
X52500Y119632D01*
X30000Y149719D02*
X29937Y149161D01*
X29812Y148614D01*
X29627Y148084D01*
X29383Y147578D01*
X29084Y147102D01*
X28734Y146663D01*
X28337Y146266D01*
X27898Y145916D01*
X27422Y145617D01*
X26916Y145373D01*
X26386Y145188D01*
X25839Y145063D01*
X25281Y145000D01*
X24719Y145000D01*
X24161Y145063D01*
X23614Y145188D01*
X23084Y145373D01*
X22578Y145617D01*
X22102Y145916D01*
X21663Y146266D01*
X21266Y146663D01*
X20916Y147102D01*
X20617Y147578D01*
X20373Y148084D01*
X20188Y148614D01*
X20063Y149161D01*
X20000Y149719D01*
X20000Y150281D01*
X20063Y150839D01*
X20188Y151386D01*
X20373Y151916D01*
X20617Y152422D01*
X20916Y152898D01*
X21266Y153337D01*
X21663Y153734D01*
X22102Y154084D01*
X22578Y154383D01*
X23084Y154627D01*
X23614Y154812D01*
X24161Y154937D01*
X24719Y155000D01*
X25281Y155000D01*
X25839Y154937D01*
X26386Y154812D01*
X26916Y154627D01*
X27422Y154383D01*
X27898Y154084D01*
X28337Y153734D01*
X28734Y153337D01*
X29084Y152898D01*
X29383Y152422D01*
X29627Y151916D01*
X29812Y151386D01*
X29937Y150839D01*
X30000Y150281D01*
X30000Y149719D01*
X70000Y149719D02*
X69937Y149161D01*
X69812Y148614D01*
X69627Y148084D01*
X69383Y147578D01*
X69084Y147102D01*
X68734Y146663D01*
X68337Y146266D01*
X67898Y145916D01*
X67422Y145617D01*
X66916Y145373D01*
X66386Y145188D01*
X65839Y145063D01*
X65281Y145000D01*
X64719Y145000D01*
X64161Y145063D01*
X63614Y145188D01*
X63084Y145373D01*
X62578Y145617D01*
X62102Y145916D01*
X61663Y146266D01*
X61266Y146663D01*
X60916Y147102D01*
X60617Y147578D01*
X60373Y148084D01*
X60188Y148614D01*
X60063Y149161D01*
X60000Y149719D01*
X60000Y150281D01*
X60063Y150839D01*
X60188Y151386D01*
X60373Y151916D01*
X60617Y152422D01*
X60916Y152898D01*
X61266Y153337D01*
X61663Y153734D01*
X62102Y154084D01*
X62578Y154383D01*
X63084Y154627D01*
X63614Y154812D01*
X64161Y154937D01*
X64719Y155000D01*
X65281Y155000D01*
X65839Y154937D01*
X66386Y154812D01*
X66916Y154627D01*
X67422Y154383D01*
X67898Y154084D01*
X68337Y153734D01*
X68734Y153337D01*
X69084Y152898D01*
X69383Y152422D01*
X69627Y151916D01*
X69812Y151386D01*
X69937Y150839D01*
X70000Y150281D01*
X70000Y149719D01*
X-71750Y394787D02*
X-71806Y394365D01*
X-71916Y393953D01*
X-72079Y393559D01*
X-72292Y393191D01*
X-72551Y392853D01*
X-72853Y392551D01*
X-73191Y392292D01*
X-73559Y392079D01*
X-73953Y391916D01*
X-74365Y391806D01*
X-74787Y391750D01*
X-75213Y391750D01*
X-75635Y391806D01*
X-76047Y391916D01*
X-76441Y392079D01*
X-76809Y392292D01*
X-77147Y392551D01*
X-77449Y392853D01*
X-77708Y393191D01*
X-77921Y393559D01*
X-78084Y393953D01*
X-78194Y394365D01*
X-78250Y394787D01*
X-78250Y395213D01*
X-78194Y395635D01*
X-78084Y396047D01*
X-77921Y396441D01*
X-77708Y396809D01*
X-77449Y397147D01*
X-77147Y397449D01*
X-76809Y397708D01*
X-76441Y397921D01*
X-76047Y398084D01*
X-75635Y398194D01*
X-75213Y398250D01*
X-74787Y398250D01*
X-74365Y398194D01*
X-73953Y398084D01*
X-73559Y397921D01*
X-73191Y397708D01*
X-72853Y397449D01*
X-72551Y397147D01*
X-72292Y396809D01*
X-72079Y396441D01*
X-71916Y396047D01*
X-71806Y395635D01*
X-71750Y395213D01*
X-71750Y394787D01*
X-71750Y404787D02*
X-71806Y404365D01*
X-71916Y403953D01*
X-72079Y403559D01*
X-72292Y403191D01*
X-72551Y402853D01*
X-72853Y402551D01*
X-73191Y402292D01*
X-73559Y402079D01*
X-73953Y401916D01*
X-74365Y401806D01*
X-74787Y401750D01*
X-75213Y401750D01*
X-75635Y401806D01*
X-76047Y401916D01*
X-76441Y402079D01*
X-76809Y402292D01*
X-77147Y402551D01*
X-77449Y402853D01*
X-77708Y403191D01*
X-77921Y403559D01*
X-78084Y403953D01*
X-78194Y404365D01*
X-78250Y404787D01*
X-78250Y405213D01*
X-78194Y405635D01*
X-78084Y406047D01*
X-77921Y406441D01*
X-77708Y406809D01*
X-77449Y407147D01*
X-77147Y407449D01*
X-76809Y407708D01*
X-76441Y407921D01*
X-76047Y408084D01*
X-75635Y408194D01*
X-75213Y408250D01*
X-74787Y408250D01*
X-74365Y408194D01*
X-73953Y408084D01*
X-73559Y407921D01*
X-73191Y407708D01*
X-72853Y407449D01*
X-72551Y407147D01*
X-72292Y406809D01*
X-72079Y406441D01*
X-71916Y406047D01*
X-71806Y405635D01*
X-71750Y405213D01*
X-71750Y404787D01*
X-71750Y534787D02*
X-71806Y534365D01*
X-71916Y533953D01*
X-72079Y533559D01*
X-72292Y533191D01*
X-72551Y532853D01*
X-72853Y532551D01*
X-73191Y532292D01*
X-73559Y532079D01*
X-73953Y531916D01*
X-74365Y531806D01*
X-74787Y531750D01*
X-75213Y531750D01*
X-75635Y531806D01*
X-76047Y531916D01*
X-76441Y532079D01*
X-76809Y532292D01*
X-77147Y532551D01*
X-77449Y532853D01*
X-77708Y533191D01*
X-77921Y533559D01*
X-78084Y533953D01*
X-78194Y534365D01*
X-78250Y534787D01*
X-78250Y535213D01*
X-78194Y535635D01*
X-78084Y536047D01*
X-77921Y536441D01*
X-77708Y536809D01*
X-77449Y537147D01*
X-77147Y537449D01*
X-76809Y537708D01*
X-76441Y537921D01*
X-76047Y538084D01*
X-75635Y538194D01*
X-75213Y538250D01*
X-74787Y538250D01*
X-74365Y538194D01*
X-73953Y538084D01*
X-73559Y537921D01*
X-73191Y537708D01*
X-72853Y537449D01*
X-72551Y537147D01*
X-72292Y536809D01*
X-72079Y536441D01*
X-71916Y536047D01*
X-71806Y535635D01*
X-71750Y535213D01*
X-71750Y534787D01*
X-71750Y544787D02*
X-71806Y544365D01*
X-71916Y543953D01*
X-72079Y543559D01*
X-72292Y543191D01*
X-72551Y542853D01*
X-72853Y542551D01*
X-73191Y542292D01*
X-73559Y542079D01*
X-73953Y541916D01*
X-74365Y541806D01*
X-74787Y541750D01*
X-75213Y541750D01*
X-75635Y541806D01*
X-76047Y541916D01*
X-76441Y542079D01*
X-76809Y542292D01*
X-77147Y542551D01*
X-77449Y542853D01*
X-77708Y543191D01*
X-77921Y543559D01*
X-78084Y543953D01*
X-78194Y544365D01*
X-78250Y544787D01*
X-78250Y545213D01*
X-78194Y545635D01*
X-78084Y546047D01*
X-77921Y546441D01*
X-77708Y546809D01*
X-77449Y547147D01*
X-77147Y547449D01*
X-76809Y547708D01*
X-76441Y547921D01*
X-76047Y548084D01*
X-75635Y548194D01*
X-75213Y548250D01*
X-74787Y548250D01*
X-74365Y548194D01*
X-73953Y548084D01*
X-73559Y547921D01*
X-73191Y547708D01*
X-72853Y547449D01*
X-72551Y547147D01*
X-72292Y546809D01*
X-72079Y546441D01*
X-71916Y546047D01*
X-71806Y545635D01*
X-71750Y545213D01*
X-71750Y544787D01*
X1288250Y184787D02*
X1288194Y184365D01*
X1288084Y183953D01*
X1287921Y183559D01*
X1287708Y183191D01*
X1287449Y182853D01*
X1287147Y182551D01*
X1286809Y182292D01*
X1286441Y182079D01*
X1286047Y181916D01*
X1285635Y181806D01*
X1285213Y181750D01*
X1284787Y181750D01*
X1284365Y181806D01*
X1283953Y181916D01*
X1283559Y182079D01*
X1283191Y182292D01*
X1282853Y182551D01*
X1282551Y182853D01*
X1282292Y183191D01*
X1282079Y183559D01*
X1281916Y183953D01*
X1281806Y184365D01*
X1281750Y184787D01*
X1281750Y185213D01*
X1281806Y185635D01*
X1281916Y186047D01*
X1282079Y186441D01*
X1282292Y186809D01*
X1282551Y187147D01*
X1282853Y187449D01*
X1283191Y187708D01*
X1283559Y187921D01*
X1283953Y188084D01*
X1284365Y188194D01*
X1284787Y188250D01*
X1285213Y188250D01*
X1285635Y188194D01*
X1286047Y188084D01*
X1286441Y187921D01*
X1286809Y187708D01*
X1287147Y187449D01*
X1287449Y187147D01*
X1287708Y186809D01*
X1287921Y186441D01*
X1288084Y186047D01*
X1288194Y185635D01*
X1288250Y185213D01*
X1288250Y184787D01*
X1288250Y174787D02*
X1288194Y174365D01*
X1288084Y173953D01*
X1287921Y173559D01*
X1287708Y173191D01*
X1287449Y172853D01*
X1287147Y172551D01*
X1286809Y172292D01*
X1286441Y172079D01*
X1286047Y171916D01*
X1285635Y171806D01*
X1285213Y171750D01*
X1284787Y171750D01*
X1284365Y171806D01*
X1283953Y171916D01*
X1283559Y172079D01*
X1283191Y172292D01*
X1282853Y172551D01*
X1282551Y172853D01*
X1282292Y173191D01*
X1282079Y173559D01*
X1281916Y173953D01*
X1281806Y174365D01*
X1281750Y174787D01*
X1281750Y175213D01*
X1281806Y175635D01*
X1281916Y176047D01*
X1282079Y176441D01*
X1282292Y176809D01*
X1282551Y177147D01*
X1282853Y177449D01*
X1283191Y177708D01*
X1283559Y177921D01*
X1283953Y178084D01*
X1284365Y178194D01*
X1284787Y178250D01*
X1285213Y178250D01*
X1285635Y178194D01*
X1286047Y178084D01*
X1286441Y177921D01*
X1286809Y177708D01*
X1287147Y177449D01*
X1287449Y177147D01*
X1287708Y176809D01*
X1287921Y176441D01*
X1288084Y176047D01*
X1288194Y175635D01*
X1288250Y175213D01*
X1288250Y174787D01*
X1288250Y94787D02*
X1288194Y94365D01*
X1288084Y93953D01*
X1287921Y93559D01*
X1287708Y93191D01*
X1287449Y92853D01*
X1287147Y92551D01*
X1286809Y92292D01*
X1286441Y92079D01*
X1286047Y91916D01*
X1285635Y91806D01*
X1285213Y91750D01*
X1284787Y91750D01*
X1284365Y91806D01*
X1283953Y91916D01*
X1283559Y92079D01*
X1283191Y92292D01*
X1282853Y92551D01*
X1282551Y92853D01*
X1282292Y93191D01*
X1282079Y93559D01*
X1281916Y93953D01*
X1281806Y94365D01*
X1281750Y94787D01*
X1281750Y95213D01*
X1281806Y95635D01*
X1281916Y96047D01*
X1282079Y96441D01*
X1282292Y96809D01*
X1282551Y97147D01*
X1282853Y97449D01*
X1283191Y97708D01*
X1283559Y97921D01*
X1283953Y98084D01*
X1284365Y98194D01*
X1284787Y98250D01*
X1285213Y98250D01*
X1285635Y98194D01*
X1286047Y98084D01*
X1286441Y97921D01*
X1286809Y97708D01*
X1287147Y97449D01*
X1287449Y97147D01*
X1287708Y96809D01*
X1287921Y96441D01*
X1288084Y96047D01*
X1288194Y95635D01*
X1288250Y95213D01*
X1288250Y94787D01*
X1288250Y104787D02*
X1288194Y104365D01*
X1288084Y103953D01*
X1287921Y103559D01*
X1287708Y103191D01*
X1287449Y102853D01*
X1287147Y102551D01*
X1286809Y102292D01*
X1286441Y102079D01*
X1286047Y101916D01*
X1285635Y101806D01*
X1285213Y101750D01*
X1284787Y101750D01*
X1284365Y101806D01*
X1283953Y101916D01*
X1283559Y102079D01*
X1283191Y102292D01*
X1282853Y102551D01*
X1282551Y102853D01*
X1282292Y103191D01*
X1282079Y103559D01*
X1281916Y103953D01*
X1281806Y104365D01*
X1281750Y104787D01*
X1281750Y105213D01*
X1281806Y105635D01*
X1281916Y106047D01*
X1282079Y106441D01*
X1282292Y106809D01*
X1282551Y107147D01*
X1282853Y107449D01*
X1283191Y107708D01*
X1283559Y107921D01*
X1283953Y108084D01*
X1284365Y108194D01*
X1284787Y108250D01*
X1285213Y108250D01*
X1285635Y108194D01*
X1286047Y108084D01*
X1286441Y107921D01*
X1286809Y107708D01*
X1287147Y107449D01*
X1287449Y107147D01*
X1287708Y106809D01*
X1287921Y106441D01*
X1288084Y106047D01*
X1288194Y105635D01*
X1288250Y105213D01*
X1288250Y104787D01*
X897000Y615205D02*
X896923Y614620D01*
X896770Y614050D01*
X896545Y613505D01*
X896250Y612995D01*
X895891Y612527D01*
X895473Y612109D01*
X895005Y611750D01*
X894495Y611455D01*
X893950Y611230D01*
X893380Y611077D01*
X892795Y611000D01*
X892205Y611000D01*
X891620Y611077D01*
X891050Y611230D01*
X890505Y611455D01*
X889995Y611750D01*
X889527Y612109D01*
X889109Y612527D01*
X888750Y612995D01*
X888455Y613505D01*
X888230Y614050D01*
X888077Y614620D01*
X888000Y615205D01*
X888000Y615795D01*
X888077Y616380D01*
X888230Y616950D01*
X888455Y617495D01*
X888750Y618005D01*
X889109Y618473D01*
X889527Y618891D01*
X889995Y619250D01*
X890505Y619545D01*
X891050Y619770D01*
X891620Y619923D01*
X892205Y620000D01*
X892795Y620000D01*
X893380Y619923D01*
X893950Y619770D01*
X894495Y619545D01*
X895005Y619250D01*
X895473Y618891D01*
X895891Y618473D01*
X896250Y618005D01*
X896545Y617495D01*
X896770Y616950D01*
X896923Y616380D01*
X897000Y615795D01*
X897000Y615205D01*
X922000Y615205D02*
X921923Y614620D01*
X921770Y614050D01*
X921545Y613505D01*
X921250Y612995D01*
X920891Y612527D01*
X920473Y612109D01*
X920005Y611750D01*
X919495Y611455D01*
X918950Y611230D01*
X918380Y611077D01*
X917795Y611000D01*
X917205Y611000D01*
X916620Y611077D01*
X916050Y611230D01*
X915505Y611455D01*
X914995Y611750D01*
X914527Y612109D01*
X914109Y612527D01*
X913750Y612995D01*
X913455Y613505D01*
X913230Y614050D01*
X913077Y614620D01*
X913000Y615205D01*
X913000Y615795D01*
X913077Y616380D01*
X913230Y616950D01*
X913455Y617495D01*
X913750Y618005D01*
X914109Y618473D01*
X914527Y618891D01*
X914995Y619250D01*
X915505Y619545D01*
X916050Y619770D01*
X916620Y619923D01*
X917205Y620000D01*
X917795Y620000D01*
X918380Y619923D01*
X918950Y619770D01*
X919495Y619545D01*
X920005Y619250D01*
X920473Y618891D01*
X920891Y618473D01*
X921250Y618005D01*
X921545Y617495D01*
X921770Y616950D01*
X921923Y616380D01*
X922000Y615795D01*
X922000Y615205D01*
X783000Y14795D02*
X783077Y15380D01*
X783230Y15950D01*
X783455Y16495D01*
X783750Y17005D01*
X784109Y17473D01*
X784527Y17891D01*
X784995Y18250D01*
X785505Y18545D01*
X786050Y18770D01*
X786620Y18923D01*
X787205Y19000D01*
X787795Y19000D01*
X788380Y18923D01*
X788950Y18770D01*
X789495Y18545D01*
X790005Y18250D01*
X790473Y17891D01*
X790891Y17473D01*
X791250Y17005D01*
X791545Y16495D01*
X791770Y15950D01*
X791923Y15380D01*
X792000Y14795D01*
X792000Y14205D01*
X791923Y13620D01*
X791770Y13050D01*
X791545Y12505D01*
X791250Y11995D01*
X790891Y11527D01*
X790473Y11109D01*
X790005Y10750D01*
X789495Y10455D01*
X788950Y10230D01*
X788380Y10077D01*
X787795Y10000D01*
X787205Y10000D01*
X786620Y10077D01*
X786050Y10230D01*
X785505Y10455D01*
X784995Y10750D01*
X784527Y11109D01*
X784109Y11527D01*
X783750Y11995D01*
X783455Y12505D01*
X783230Y13050D01*
X783077Y13620D01*
X783000Y14205D01*
X783000Y14795D01*
X758000Y14795D02*
X758077Y15380D01*
X758230Y15950D01*
X758455Y16495D01*
X758750Y17005D01*
X759109Y17473D01*
X759527Y17891D01*
X759995Y18250D01*
X760505Y18545D01*
X761050Y18770D01*
X761620Y18923D01*
X762205Y19000D01*
X762795Y19000D01*
X763380Y18923D01*
X763950Y18770D01*
X764495Y18545D01*
X765005Y18250D01*
X765473Y17891D01*
X765891Y17473D01*
X766250Y17005D01*
X766545Y16495D01*
X766770Y15950D01*
X766923Y15380D01*
X767000Y14795D01*
X767000Y14205D01*
X766923Y13620D01*
X766770Y13050D01*
X766545Y12505D01*
X766250Y11995D01*
X765891Y11527D01*
X765473Y11109D01*
X765005Y10750D01*
X764495Y10455D01*
X763950Y10230D01*
X763380Y10077D01*
X762795Y10000D01*
X762205Y10000D01*
X761620Y10077D01*
X761050Y10230D01*
X760505Y10455D01*
X759995Y10750D01*
X759527Y11109D01*
X759109Y11527D01*
X758750Y11995D01*
X758455Y12505D01*
X758230Y13050D01*
X758077Y13620D01*
X758000Y14205D01*
X758000Y14795D01*
X683000Y14795D02*
X683077Y15380D01*
X683230Y15950D01*
X683455Y16495D01*
X683750Y17005D01*
X684109Y17473D01*
X684527Y17891D01*
X684995Y18250D01*
X685505Y18545D01*
X686050Y18770D01*
X686620Y18923D01*
X687205Y19000D01*
X687795Y19000D01*
X688380Y18923D01*
X688950Y18770D01*
X689495Y18545D01*
X690005Y18250D01*
X690473Y17891D01*
X690891Y17473D01*
X691250Y17005D01*
X691545Y16495D01*
X691770Y15950D01*
X691923Y15380D01*
X692000Y14795D01*
X692000Y14205D01*
X691923Y13620D01*
X691770Y13050D01*
X691545Y12505D01*
X691250Y11995D01*
X690891Y11527D01*
X690473Y11109D01*
X690005Y10750D01*
X689495Y10455D01*
X688950Y10230D01*
X688380Y10077D01*
X687795Y10000D01*
X687205Y10000D01*
X686620Y10077D01*
X686050Y10230D01*
X685505Y10455D01*
X684995Y10750D01*
X684527Y11109D01*
X684109Y11527D01*
X683750Y11995D01*
X683455Y12505D01*
X683230Y13050D01*
X683077Y13620D01*
X683000Y14205D01*
X683000Y14795D01*
X658000Y14795D02*
X658077Y15380D01*
X658230Y15950D01*
X658455Y16495D01*
X658750Y17005D01*
X659109Y17473D01*
X659527Y17891D01*
X659995Y18250D01*
X660505Y18545D01*
X661050Y18770D01*
X661620Y18923D01*
X662205Y19000D01*
X662795Y19000D01*
X663380Y18923D01*
X663950Y18770D01*
X664495Y18545D01*
X665005Y18250D01*
X665473Y17891D01*
X665891Y17473D01*
X666250Y17005D01*
X666545Y16495D01*
X666770Y15950D01*
X666923Y15380D01*
X667000Y14795D01*
X667000Y14205D01*
X666923Y13620D01*
X666770Y13050D01*
X666545Y12505D01*
X666250Y11995D01*
X665891Y11527D01*
X665473Y11109D01*
X665005Y10750D01*
X664495Y10455D01*
X663950Y10230D01*
X663380Y10077D01*
X662795Y10000D01*
X662205Y10000D01*
X661620Y10077D01*
X661050Y10230D01*
X660505Y10455D01*
X659995Y10750D01*
X659527Y11109D01*
X659109Y11527D01*
X658750Y11995D01*
X658455Y12505D01*
X658230Y13050D01*
X658077Y13620D01*
X658000Y14205D01*
X658000Y14795D01*
X1097000Y170837D02*
X1097075Y171507D01*
X1097225Y172164D01*
X1097448Y172800D01*
X1097740Y173407D01*
X1098099Y173978D01*
X1098519Y174504D01*
X1098996Y174981D01*
X1099523Y175401D01*
X1100093Y175760D01*
X1100700Y176052D01*
X1101336Y176275D01*
X1101993Y176425D01*
X1102663Y176500D01*
X1103337Y176500D01*
X1104007Y176425D01*
X1104664Y176275D01*
X1105300Y176052D01*
X1105907Y175760D01*
X1106478Y175401D01*
X1107004Y174981D01*
X1107481Y174504D01*
X1107901Y173978D01*
X1108260Y173407D01*
X1108552Y172800D01*
X1108775Y172164D01*
X1108925Y171507D01*
X1109000Y170837D01*
X1109000Y170163D01*
X1108925Y169493D01*
X1108775Y168836D01*
X1108552Y168200D01*
X1108260Y167593D01*
X1107901Y167023D01*
X1107481Y166496D01*
X1107004Y166019D01*
X1106478Y165599D01*
X1105907Y165240D01*
X1105300Y164948D01*
X1104664Y164725D01*
X1104007Y164575D01*
X1103337Y164500D01*
X1102663Y164500D01*
X1101993Y164575D01*
X1101336Y164725D01*
X1100700Y164948D01*
X1100093Y165240D01*
X1099523Y165599D01*
X1098996Y166019D01*
X1098519Y166496D01*
X1098099Y167023D01*
X1097740Y167593D01*
X1097448Y168200D01*
X1097225Y168836D01*
X1097075Y169493D01*
X1097000Y170163D01*
X1097000Y170837D01*
X1167000Y170837D02*
X1167075Y171507D01*
X1167225Y172164D01*
X1167448Y172800D01*
X1167740Y173407D01*
X1168099Y173978D01*
X1168519Y174504D01*
X1168996Y174981D01*
X1169523Y175401D01*
X1170093Y175760D01*
X1170700Y176052D01*
X1171336Y176275D01*
X1171993Y176425D01*
X1172663Y176500D01*
X1173337Y176500D01*
X1174007Y176425D01*
X1174664Y176275D01*
X1175300Y176052D01*
X1175907Y175760D01*
X1176478Y175401D01*
X1177004Y174981D01*
X1177481Y174504D01*
X1177901Y173978D01*
X1178260Y173407D01*
X1178552Y172800D01*
X1178775Y172164D01*
X1178925Y171507D01*
X1179000Y170837D01*
X1179000Y170163D01*
X1178925Y169493D01*
X1178775Y168836D01*
X1178552Y168200D01*
X1178260Y167593D01*
X1177901Y167023D01*
X1177481Y166496D01*
X1177004Y166019D01*
X1176478Y165599D01*
X1175907Y165240D01*
X1175300Y164948D01*
X1174664Y164725D01*
X1174007Y164575D01*
X1173337Y164500D01*
X1172663Y164500D01*
X1171993Y164575D01*
X1171336Y164725D01*
X1170700Y164948D01*
X1170093Y165240D01*
X1169523Y165599D01*
X1168996Y166019D01*
X1168519Y166496D01*
X1168099Y167023D01*
X1167740Y167593D01*
X1167448Y168200D01*
X1167225Y168836D01*
X1167075Y169493D01*
X1167000Y170163D01*
X1167000Y170837D01*
X68037Y347500D02*
X67615Y347556D01*
X67203Y347666D01*
X66809Y347829D01*
X66441Y348042D01*
X66103Y348301D01*
X65801Y348603D01*
X65542Y348941D01*
X65329Y349309D01*
X65166Y349703D01*
X65056Y350115D01*
X65000Y350537D01*
X65000Y350963D01*
X65056Y351385D01*
X65166Y351797D01*
X65329Y352191D01*
X65542Y352559D01*
X65801Y352897D01*
X66103Y353199D01*
X66441Y353458D01*
X66809Y353671D01*
X67203Y353834D01*
X67615Y353944D01*
X68037Y354000D01*
X68463Y354000D01*
X68885Y353944D01*
X69297Y353834D01*
X69691Y353671D01*
X70059Y353458D01*
X70397Y353199D01*
X70699Y352897D01*
X70958Y352559D01*
X71171Y352191D01*
X71334Y351797D01*
X71444Y351385D01*
X71500Y350963D01*
X71500Y350537D01*
X71444Y350115D01*
X71334Y349703D01*
X71171Y349309D01*
X70958Y348941D01*
X70699Y348603D01*
X70397Y348301D01*
X70059Y348042D01*
X69691Y347829D01*
X69297Y347666D01*
X68885Y347556D01*
X68463Y347500D01*
X68037Y347500D01*
X68037Y275500D02*
X67615Y275556D01*
X67203Y275666D01*
X66809Y275829D01*
X66441Y276042D01*
X66103Y276301D01*
X65801Y276603D01*
X65542Y276941D01*
X65329Y277309D01*
X65166Y277703D01*
X65056Y278115D01*
X65000Y278537D01*
X65000Y278963D01*
X65056Y279385D01*
X65166Y279797D01*
X65329Y280191D01*
X65542Y280559D01*
X65801Y280897D01*
X66103Y281199D01*
X66441Y281458D01*
X66809Y281671D01*
X67203Y281834D01*
X67615Y281944D01*
X68037Y282000D01*
X68463Y282000D01*
X68885Y281944D01*
X69297Y281834D01*
X69691Y281671D01*
X70059Y281458D01*
X70397Y281199D01*
X70699Y280897D01*
X70958Y280559D01*
X71171Y280191D01*
X71334Y279797D01*
X71444Y279385D01*
X71500Y278963D01*
X71500Y278537D01*
X71444Y278115D01*
X71334Y277703D01*
X71171Y277309D01*
X70958Y276941D01*
X70699Y276603D01*
X70397Y276301D01*
X70059Y276042D01*
X69691Y275829D01*
X69297Y275666D01*
X68885Y275556D01*
X68463Y275500D01*
X68037Y275500D01*
X-30500Y507795D02*
X-30577Y508380D01*
X-30730Y508950D01*
X-30955Y509495D01*
X-31250Y510005D01*
X-31609Y510473D01*
X-32027Y510891D01*
X-32495Y511250D01*
X-33005Y511545D01*
X-33550Y511770D01*
X-34120Y511923D01*
X-34705Y512000D01*
X-35295Y512000D01*
X-35880Y511923D01*
X-36450Y511770D01*
X-36995Y511545D01*
X-37505Y511250D01*
X-37973Y510891D01*
X-38391Y510473D01*
X-38750Y510005D01*
X-39045Y509495D01*
X-39270Y508950D01*
X-39423Y508380D01*
X-39500Y507795D01*
X-39500Y507205D01*
X-39423Y506620D01*
X-39270Y506050D01*
X-39045Y505505D01*
X-38750Y504995D01*
X-38391Y504527D01*
X-37973Y504109D01*
X-37505Y503750D01*
X-36995Y503455D01*
X-36450Y503230D01*
X-35880Y503077D01*
X-35295Y503000D01*
X-34705Y503000D01*
X-34120Y503077D01*
X-33550Y503230D01*
X-33005Y503455D01*
X-32495Y503750D01*
X-32027Y504109D01*
X-31609Y504527D01*
X-31250Y504995D01*
X-30955Y505505D01*
X-30730Y506050D01*
X-30577Y506620D01*
X-30500Y507205D01*
X-30500Y507795D01*
X-30500Y457795D02*
X-30577Y458380D01*
X-30730Y458950D01*
X-30955Y459495D01*
X-31250Y460005D01*
X-31609Y460473D01*
X-32027Y460891D01*
X-32495Y461250D01*
X-33005Y461545D01*
X-33550Y461770D01*
X-34120Y461923D01*
X-34705Y462000D01*
X-35295Y462000D01*
X-35880Y461923D01*
X-36450Y461770D01*
X-36995Y461545D01*
X-37505Y461250D01*
X-37973Y460891D01*
X-38391Y460473D01*
X-38750Y460005D01*
X-39045Y459495D01*
X-39270Y458950D01*
X-39423Y458380D01*
X-39500Y457795D01*
X-39500Y457205D01*
X-39423Y456620D01*
X-39270Y456050D01*
X-39045Y455505D01*
X-38750Y454995D01*
X-38391Y454527D01*
X-37973Y454109D01*
X-37505Y453750D01*
X-36995Y453455D01*
X-36450Y453230D01*
X-35880Y453077D01*
X-35295Y453000D01*
X-34705Y453000D01*
X-34120Y453077D01*
X-33550Y453230D01*
X-33005Y453455D01*
X-32495Y453750D01*
X-32027Y454109D01*
X-31609Y454527D01*
X-31250Y454995D01*
X-30955Y455505D01*
X-30730Y456050D01*
X-30577Y456620D01*
X-30500Y457205D01*
X-30500Y457795D01*
M02*
