G04 EAGLE Gerber RS-274X export*
G75*
%MOMM*%
%FSLAX34Y34*%
%LPD*%
%AMOC8*
5,1,8,0,0,1.08239X$1,22.5*%
G01*
%ADD10C,0.076200*%
%ADD11C,0.127000*%
%ADD12C,0.400000*%


D10*
X43807Y438277D02*
X45035Y439505D01*
X47493Y439505D01*
X48721Y438277D01*
X48721Y433362D01*
X47493Y432133D01*
X45035Y432133D01*
X43807Y433362D01*
X38780Y438277D02*
X36322Y439505D01*
X38780Y438277D02*
X41237Y435819D01*
X41237Y433362D01*
X40009Y432133D01*
X37551Y432133D01*
X36322Y433362D01*
X36322Y434590D01*
X37551Y435819D01*
X41237Y435819D01*
X33753Y437048D02*
X31296Y439505D01*
X31296Y432133D01*
X33753Y432133D02*
X28838Y432133D01*
D11*
X53500Y462500D02*
X53500Y466500D01*
X53500Y462500D02*
X49250Y462500D01*
X53500Y499500D02*
X53500Y503500D01*
X49500Y503500D01*
X26500Y503500D02*
X22500Y503500D01*
X22500Y499500D01*
X22500Y466500D02*
X22500Y462500D01*
X26500Y462500D01*
D12*
X58000Y464000D03*
D10*
X49619Y510381D02*
X47162Y510381D01*
X48390Y510381D02*
X48390Y517753D01*
X47162Y517753D02*
X49619Y517753D01*
X40943Y517753D02*
X39715Y516525D01*
X40943Y517753D02*
X43401Y517753D01*
X44630Y516525D01*
X44630Y511610D01*
X43401Y510381D01*
X40943Y510381D01*
X39715Y511610D01*
X37145Y510381D02*
X32231Y510381D01*
X37145Y510381D02*
X32231Y515296D01*
X32231Y516525D01*
X33459Y517753D01*
X35917Y517753D01*
X37145Y516525D01*
X29661Y516525D02*
X29661Y511610D01*
X29661Y516525D02*
X28433Y517753D01*
X25975Y517753D01*
X24746Y516525D01*
X24746Y511610D01*
X25975Y510381D01*
X28433Y510381D01*
X29661Y511610D01*
X24746Y516525D01*
D11*
X1348000Y390500D02*
X1348000Y240500D01*
X1292000Y257500D02*
X1292000Y373500D01*
X1323000Y240500D02*
X1348000Y240500D01*
X1348000Y390500D02*
X1323000Y390500D01*
X1243000Y558000D02*
X1243000Y561000D01*
X1240000Y561000D01*
X1220000Y561000D02*
X1217000Y561000D01*
X1217000Y558000D01*
X1243000Y522000D02*
X1243000Y519000D01*
X1240000Y519000D01*
X1220000Y519000D02*
X1217000Y519000D01*
X1217000Y522000D01*
D12*
X1212000Y559500D03*
D10*
X1255753Y497897D02*
X1255753Y495439D01*
X1255753Y496668D02*
X1263125Y496668D01*
X1263125Y495439D02*
X1263125Y497897D01*
X1263125Y504115D02*
X1261897Y505343D01*
X1263125Y504115D02*
X1263125Y501657D01*
X1261897Y500429D01*
X1256982Y500429D01*
X1255753Y501657D01*
X1255753Y504115D01*
X1256982Y505343D01*
X1255753Y507913D02*
X1255753Y512828D01*
X1255753Y507913D02*
X1260668Y512828D01*
X1261897Y512828D01*
X1263125Y511599D01*
X1263125Y509141D01*
X1261897Y507913D01*
X1263125Y515397D02*
X1263125Y520312D01*
X1263125Y515397D02*
X1259439Y515397D01*
X1260668Y517854D01*
X1260668Y519083D01*
X1259439Y520312D01*
X1256982Y520312D01*
X1255753Y519083D01*
X1255753Y516626D01*
X1256982Y515397D01*
D11*
X1224000Y183000D02*
X1224000Y167000D01*
X1236000Y167000D02*
X1236000Y183000D01*
D12*
X1240000Y188750D03*
D10*
X1250071Y152625D02*
X1250071Y147710D01*
X1247614Y145253D01*
X1245157Y147710D01*
X1245157Y152625D01*
X1242587Y152625D02*
X1242587Y145253D01*
X1238901Y145253D01*
X1237672Y146482D01*
X1237672Y151397D01*
X1238901Y152625D01*
X1242587Y152625D01*
X1232646Y151397D02*
X1230188Y152625D01*
X1232646Y151397D02*
X1235103Y148939D01*
X1235103Y146482D01*
X1233874Y145253D01*
X1231417Y145253D01*
X1230188Y146482D01*
X1230188Y147710D01*
X1231417Y148939D01*
X1235103Y148939D01*
X1267133Y186763D02*
X1274505Y186763D01*
X1274505Y190449D01*
X1273277Y191678D01*
X1270819Y191678D01*
X1269590Y190449D01*
X1269590Y186763D01*
X1269590Y189220D02*
X1267133Y191678D01*
X1273277Y196704D02*
X1274505Y199162D01*
X1273277Y196704D02*
X1270819Y194247D01*
X1268362Y194247D01*
X1267133Y195476D01*
X1267133Y197933D01*
X1268362Y199162D01*
X1269590Y199162D01*
X1270819Y197933D01*
X1270819Y194247D01*
X1267005Y159763D02*
X1259633Y159763D01*
X1267005Y159763D02*
X1267005Y163449D01*
X1265777Y164678D01*
X1263319Y164678D01*
X1262090Y163449D01*
X1262090Y159763D01*
X1262090Y162220D02*
X1259633Y164678D01*
X1267005Y167247D02*
X1267005Y172162D01*
X1265777Y172162D01*
X1260862Y167247D01*
X1259633Y167247D01*
X1245969Y210501D02*
X1245969Y217873D01*
X1242283Y217873D01*
X1241054Y216645D01*
X1241054Y214187D01*
X1242283Y212958D01*
X1245969Y212958D01*
X1243512Y212958D02*
X1241054Y210501D01*
X1238485Y211730D02*
X1237256Y210501D01*
X1234799Y210501D01*
X1233570Y211730D01*
X1233570Y216645D01*
X1234799Y217873D01*
X1237256Y217873D01*
X1238485Y216645D01*
X1238485Y215416D01*
X1237256Y214187D01*
X1233570Y214187D01*
D12*
X1235000Y132000D03*
D11*
X1234000Y127000D02*
X1234000Y124000D01*
X1234000Y127000D02*
X1237000Y127000D01*
X1263000Y127000D02*
X1266000Y127000D01*
X1266000Y124000D01*
X1266000Y98000D02*
X1266000Y95000D01*
X1263000Y95000D01*
X1237000Y95000D02*
X1234000Y95000D01*
X1234000Y98000D01*
D10*
X1224253Y97939D02*
X1224253Y100397D01*
X1224253Y99168D02*
X1231625Y99168D01*
X1231625Y97939D02*
X1231625Y100397D01*
X1231625Y106615D02*
X1230397Y107843D01*
X1231625Y106615D02*
X1231625Y104157D01*
X1230397Y102929D01*
X1225482Y102929D01*
X1224253Y104157D01*
X1224253Y106615D01*
X1225482Y107843D01*
X1229168Y110413D02*
X1231625Y112870D01*
X1224253Y112870D01*
X1224253Y110413D02*
X1224253Y115328D01*
X1229168Y117897D02*
X1231625Y120354D01*
X1224253Y120354D01*
X1224253Y117897D02*
X1224253Y122812D01*
D11*
X-51500Y416000D02*
X-51500Y419000D01*
X-51500Y416000D02*
X-48500Y416000D01*
X-48500Y549000D02*
X-51500Y549000D01*
X-51500Y546000D01*
D10*
X-20929Y400625D02*
X-25843Y393253D01*
X-20929Y393253D02*
X-25843Y400625D01*
X-28413Y398168D02*
X-30870Y400625D01*
X-30870Y393253D01*
X-28413Y393253D02*
X-33328Y393253D01*
X-35897Y399397D02*
X-37126Y400625D01*
X-39583Y400625D01*
X-40812Y399397D01*
X-40812Y398168D01*
X-39583Y396939D01*
X-40812Y395710D01*
X-40812Y394482D01*
X-39583Y393253D01*
X-37126Y393253D01*
X-35897Y394482D01*
X-35897Y395710D01*
X-37126Y396939D01*
X-35897Y398168D01*
X-35897Y399397D01*
X-37126Y396939D02*
X-39583Y396939D01*
D11*
X-11000Y230000D02*
X-11000Y70000D01*
X-99000Y102000D02*
X-99000Y198000D01*
X-68000Y70000D02*
X-11000Y70000D01*
X-11000Y230000D02*
X-68000Y230000D01*
D10*
X1274397Y534843D02*
X1275625Y533615D01*
X1275625Y531157D01*
X1274397Y529929D01*
X1269482Y529929D01*
X1268253Y531157D01*
X1268253Y533615D01*
X1269482Y534843D01*
X1274397Y539870D02*
X1275625Y542328D01*
X1274397Y539870D02*
X1271939Y537413D01*
X1269482Y537413D01*
X1268253Y538641D01*
X1268253Y541099D01*
X1269482Y542328D01*
X1270710Y542328D01*
X1271939Y541099D01*
X1271939Y537413D01*
X1268253Y548583D02*
X1275625Y548583D01*
X1271939Y544897D01*
X1271939Y549812D01*
D11*
X1292000Y168500D02*
X1292000Y161500D01*
X1333000Y161500D02*
X1333000Y168500D01*
X1321500Y191000D02*
X1303500Y191000D01*
X1292000Y118500D02*
X1292000Y89000D01*
X1333000Y89000D01*
X1333000Y118500D01*
M02*
