G04 EAGLE Gerber RS-274X export*
G75*
%MOMM*%
%FSLAX34Y34*%
%LPD*%
%AMOC8*
5,1,8,0,0,1.08239X$1,22.5*%
G01*
%ADD10C,0.076200*%
%ADD11C,0.050800*%
%ADD12C,0.400000*%
%ADD13C,0.127000*%
%ADD14C,0.050000*%
%ADD15R,1.540000X0.250000*%
%ADD16C,0.100000*%
%ADD17R,0.415000X1.350000*%
%ADD18R,0.250000X1.540000*%
%ADD19R,4.200000X1.100000*%


D10*
X412838Y4424D02*
X414067Y4424D01*
X415296Y5652D01*
X415296Y11796D01*
X411610Y11796D01*
X410381Y10567D01*
X410381Y8110D01*
X411610Y6881D01*
X415296Y6881D01*
X417865Y11796D02*
X419094Y11796D01*
X419094Y6881D01*
X417865Y6881D02*
X420323Y6881D01*
X419094Y14253D02*
X419094Y15482D01*
X424083Y13025D02*
X424083Y8110D01*
X425312Y6881D01*
X425312Y11796D02*
X422855Y11796D01*
X427844Y14253D02*
X427844Y6881D01*
X427844Y10567D02*
X429073Y11796D01*
X431530Y11796D01*
X432759Y10567D01*
X432759Y6881D01*
X435328Y8110D02*
X435328Y11796D01*
X435328Y8110D02*
X436557Y6881D01*
X440243Y6881D01*
X440243Y11796D01*
X442812Y14253D02*
X442812Y6881D01*
X446498Y6881D01*
X447727Y8110D01*
X447727Y10567D01*
X446498Y11796D01*
X442812Y11796D01*
X450297Y8110D02*
X450297Y6881D01*
X450297Y8110D02*
X451525Y8110D01*
X451525Y6881D01*
X450297Y6881D01*
X455267Y11796D02*
X458953Y11796D01*
X455267Y11796D02*
X454039Y10567D01*
X454039Y8110D01*
X455267Y6881D01*
X458953Y6881D01*
X462751Y6881D02*
X465209Y6881D01*
X466438Y8110D01*
X466438Y10567D01*
X465209Y11796D01*
X462751Y11796D01*
X461523Y10567D01*
X461523Y8110D01*
X462751Y6881D01*
X469007Y6881D02*
X469007Y11796D01*
X470236Y11796D01*
X471464Y10567D01*
X471464Y6881D01*
X471464Y10567D02*
X472693Y11796D01*
X473922Y10567D01*
X473922Y6881D01*
X476491Y6881D02*
X481406Y14253D01*
X483975Y11796D02*
X483975Y6881D01*
X483975Y11796D02*
X487661Y11796D01*
X488890Y10567D01*
X488890Y6881D01*
X492688Y6881D02*
X495145Y6881D01*
X492688Y6881D02*
X491459Y8110D01*
X491459Y10567D01*
X492688Y11796D01*
X495145Y11796D01*
X496374Y10567D01*
X496374Y9338D01*
X491459Y9338D01*
X500172Y8110D02*
X500172Y13025D01*
X500172Y8110D02*
X501401Y6881D01*
X501401Y11796D02*
X498944Y11796D01*
X505162Y11796D02*
X508848Y11796D01*
X505162Y11796D02*
X503933Y10567D01*
X503933Y8110D01*
X505162Y6881D01*
X508848Y6881D01*
X512646Y11796D02*
X515103Y11796D01*
X516332Y10567D01*
X516332Y6881D01*
X512646Y6881D01*
X511417Y8110D01*
X512646Y9338D01*
X516332Y9338D01*
X520130Y8110D02*
X520130Y13025D01*
X520130Y8110D02*
X521359Y6881D01*
X521359Y11796D02*
X518901Y11796D01*
X523891Y11796D02*
X523891Y8110D01*
X525119Y6881D01*
X528806Y6881D01*
X528806Y11796D01*
X410381Y17381D02*
X410381Y22296D01*
X412838Y22296D02*
X410381Y19838D01*
X412838Y22296D02*
X414067Y22296D01*
X417846Y17381D02*
X420304Y17381D01*
X417846Y17381D02*
X416618Y18610D01*
X416618Y21067D01*
X417846Y22296D01*
X420304Y22296D01*
X421533Y21067D01*
X421533Y19838D01*
X416618Y19838D01*
X429017Y17381D02*
X429017Y24753D01*
X429017Y17381D02*
X425331Y17381D01*
X424102Y18610D01*
X424102Y21067D01*
X425331Y22296D01*
X429017Y22296D01*
X431586Y22296D02*
X431586Y14924D01*
X431586Y22296D02*
X435272Y22296D01*
X436501Y21067D01*
X436501Y18610D01*
X435272Y17381D01*
X431586Y17381D01*
X439070Y17381D02*
X439070Y24753D01*
X440299Y22296D02*
X439070Y21067D01*
X440299Y22296D02*
X442756Y22296D01*
X443985Y21067D01*
X443985Y17381D01*
X447783Y17381D02*
X450241Y17381D01*
X451469Y18610D01*
X451469Y21067D01*
X450241Y22296D01*
X447783Y22296D01*
X446554Y21067D01*
X446554Y18610D01*
X447783Y17381D01*
X454039Y17381D02*
X454039Y22296D01*
X457725Y22296D01*
X458953Y21067D01*
X458953Y17381D01*
X462751Y17381D02*
X465209Y17381D01*
X462751Y17381D02*
X461523Y18610D01*
X461523Y21067D01*
X462751Y22296D01*
X465209Y22296D01*
X466438Y21067D01*
X466438Y19838D01*
X461523Y19838D01*
X476491Y22296D02*
X478948Y17381D01*
X481406Y22296D01*
X483975Y17381D02*
X488890Y17381D01*
X483975Y17381D02*
X488890Y22296D01*
X488890Y23525D01*
X487661Y24753D01*
X485204Y24753D01*
X483975Y23525D01*
X491459Y18610D02*
X491459Y17381D01*
X491459Y18610D02*
X492688Y18610D01*
X492688Y17381D01*
X491459Y17381D01*
X495201Y18610D02*
X495201Y23525D01*
X496430Y24753D01*
X498888Y24753D01*
X500116Y23525D01*
X500116Y18610D01*
X498888Y17381D01*
X496430Y17381D01*
X495201Y18610D01*
X500116Y23525D01*
D11*
X963440Y250254D02*
X963440Y253813D01*
X962254Y253813D02*
X964627Y253813D01*
X965996Y253813D02*
X965996Y250254D01*
X967776Y250254D01*
X968369Y250847D01*
X968369Y253220D01*
X967776Y253813D01*
X965996Y253813D01*
X969738Y250254D02*
X970924Y250254D01*
X970331Y250254D02*
X970331Y253813D01*
X969738Y253813D02*
X970924Y253813D01*
X997440Y253813D02*
X997440Y250254D01*
X996254Y253813D02*
X998627Y253813D01*
X999996Y253813D02*
X999996Y250254D01*
X1001182Y252627D02*
X999996Y253813D01*
X1001182Y252627D02*
X1002369Y253813D01*
X1002369Y250254D01*
X1005518Y253813D02*
X1006111Y253220D01*
X1005518Y253813D02*
X1004331Y253813D01*
X1003738Y253220D01*
X1003738Y252627D01*
X1004331Y252034D01*
X1005518Y252034D01*
X1006111Y251440D01*
X1006111Y250847D01*
X1005518Y250254D01*
X1004331Y250254D01*
X1003738Y250847D01*
X927440Y250254D02*
X927440Y253813D01*
X926254Y253813D02*
X928627Y253813D01*
X929996Y253813D02*
X929996Y250254D01*
X931182Y252627D02*
X929996Y253813D01*
X931182Y252627D02*
X932369Y253813D01*
X932369Y250254D01*
X935518Y253813D02*
X936111Y253220D01*
X935518Y253813D02*
X934331Y253813D01*
X933738Y253220D01*
X933738Y252627D01*
X934331Y252034D01*
X935518Y252034D01*
X936111Y251440D01*
X936111Y250847D01*
X935518Y250254D01*
X934331Y250254D01*
X933738Y250847D01*
D12*
X687000Y180000D03*
D13*
X682000Y182000D02*
X678000Y182000D01*
X682000Y182000D02*
X682000Y178000D01*
X682000Y102000D02*
X682000Y98000D01*
X678000Y98000D01*
X598000Y98000D02*
X598000Y102000D01*
X598000Y98000D02*
X602000Y98000D01*
X598000Y178000D02*
X598000Y182000D01*
X602000Y182000D01*
D10*
X601838Y186381D02*
X599381Y186381D01*
X600610Y186381D02*
X600610Y193753D01*
X601838Y193753D02*
X599381Y193753D01*
X608057Y193753D02*
X609285Y192525D01*
X608057Y193753D02*
X605599Y193753D01*
X604370Y192525D01*
X604370Y187610D01*
X605599Y186381D01*
X608057Y186381D01*
X609285Y187610D01*
X611855Y192525D02*
X613083Y193753D01*
X615541Y193753D01*
X616769Y192525D01*
X616769Y191296D01*
X615541Y190067D01*
X614312Y190067D01*
X615541Y190067D02*
X616769Y188838D01*
X616769Y187610D01*
X615541Y186381D01*
X613083Y186381D01*
X611855Y187610D01*
X928381Y147753D02*
X928381Y140381D01*
X928381Y147753D02*
X932067Y147753D01*
X933296Y146525D01*
X933296Y144067D01*
X932067Y142838D01*
X928381Y142838D01*
X930838Y142838D02*
X933296Y140381D01*
X935865Y145296D02*
X938323Y147753D01*
X938323Y140381D01*
X940780Y140381D02*
X935865Y140381D01*
X928381Y150381D02*
X928381Y157753D01*
X932067Y157753D01*
X933296Y156525D01*
X933296Y154067D01*
X932067Y152838D01*
X928381Y152838D01*
X930838Y152838D02*
X933296Y150381D01*
X935865Y150381D02*
X940780Y150381D01*
X935865Y150381D02*
X940780Y155296D01*
X940780Y156525D01*
X939551Y157753D01*
X937094Y157753D01*
X935865Y156525D01*
X554381Y139753D02*
X554381Y132381D01*
X554381Y139753D02*
X558067Y139753D01*
X559296Y138525D01*
X559296Y136067D01*
X558067Y134838D01*
X554381Y134838D01*
X556838Y134838D02*
X559296Y132381D01*
X561865Y138525D02*
X563094Y139753D01*
X565551Y139753D01*
X566780Y138525D01*
X566780Y137296D01*
X565551Y136067D01*
X564323Y136067D01*
X565551Y136067D02*
X566780Y134838D01*
X566780Y133610D01*
X565551Y132381D01*
X563094Y132381D01*
X561865Y133610D01*
D14*
X826500Y84500D02*
X826500Y61500D01*
X826500Y84500D02*
X835000Y84500D01*
X967000Y84500D02*
X976000Y84500D01*
X976000Y62000D01*
D12*
X835000Y46000D03*
D10*
X841381Y45753D02*
X846296Y38381D01*
X841381Y38381D02*
X846296Y45753D01*
X848865Y44525D02*
X850094Y45753D01*
X852551Y45753D01*
X853780Y44525D01*
X853780Y43296D01*
X852551Y42067D01*
X851323Y42067D01*
X852551Y42067D02*
X853780Y40838D01*
X853780Y39610D01*
X852551Y38381D01*
X850094Y38381D01*
X848865Y39610D01*
D13*
X1115255Y440920D02*
X1115255Y451080D01*
X1098745Y451080D02*
X1098745Y440920D01*
D15*
X1107000Y449750D03*
D10*
X1102067Y418753D02*
X1103296Y417525D01*
X1102067Y418753D02*
X1099610Y418753D01*
X1098381Y417525D01*
X1098381Y412610D01*
X1099610Y411381D01*
X1102067Y411381D01*
X1103296Y412610D01*
X1105865Y416296D02*
X1108323Y418753D01*
X1108323Y411381D01*
X1110780Y411381D02*
X1105865Y411381D01*
X1117035Y411381D02*
X1117035Y418753D01*
X1113349Y415067D01*
X1118264Y415067D01*
X982843Y559397D02*
X981615Y560625D01*
X979157Y560625D01*
X977929Y559397D01*
X977929Y554482D01*
X979157Y553253D01*
X981615Y553253D01*
X982843Y554482D01*
X985413Y558168D02*
X987870Y560625D01*
X987870Y553253D01*
X985413Y553253D02*
X990328Y553253D01*
X992897Y560625D02*
X997812Y560625D01*
X992897Y560625D02*
X992897Y556939D01*
X995354Y558168D01*
X996583Y558168D01*
X997812Y556939D01*
X997812Y554482D01*
X996583Y553253D01*
X994126Y553253D01*
X992897Y554482D01*
X1135381Y558381D02*
X1135381Y565753D01*
X1139067Y565753D01*
X1140296Y564525D01*
X1140296Y562067D01*
X1139067Y560838D01*
X1135381Y560838D01*
X1137838Y560838D02*
X1140296Y558381D01*
X1142865Y563296D02*
X1145323Y565753D01*
X1145323Y558381D01*
X1147780Y558381D02*
X1142865Y558381D01*
X1150349Y564525D02*
X1151578Y565753D01*
X1154035Y565753D01*
X1155264Y564525D01*
X1155264Y563296D01*
X1154035Y562067D01*
X1155264Y560838D01*
X1155264Y559610D01*
X1154035Y558381D01*
X1151578Y558381D01*
X1150349Y559610D01*
X1150349Y560838D01*
X1151578Y562067D01*
X1150349Y563296D01*
X1150349Y564525D01*
X1151578Y562067D02*
X1154035Y562067D01*
X1135381Y550753D02*
X1135381Y543381D01*
X1135381Y550753D02*
X1139067Y550753D01*
X1140296Y549525D01*
X1140296Y547067D01*
X1139067Y545838D01*
X1135381Y545838D01*
X1137838Y545838D02*
X1140296Y543381D01*
X1142865Y543381D02*
X1147780Y543381D01*
X1142865Y543381D02*
X1147780Y548296D01*
X1147780Y549525D01*
X1146551Y550753D01*
X1144094Y550753D01*
X1142865Y549525D01*
X1150349Y549525D02*
X1150349Y544610D01*
X1150349Y549525D02*
X1151578Y550753D01*
X1154035Y550753D01*
X1155264Y549525D01*
X1155264Y544610D01*
X1154035Y543381D01*
X1151578Y543381D01*
X1150349Y544610D01*
X1155264Y549525D01*
X1142619Y450381D02*
X1135247Y450381D01*
X1135247Y454067D01*
X1136475Y455296D01*
X1138933Y455296D01*
X1140162Y454067D01*
X1140162Y450381D01*
X1140162Y452838D02*
X1142619Y455296D01*
X1142619Y457865D02*
X1142619Y462780D01*
X1142619Y457865D02*
X1137704Y462780D01*
X1136475Y462780D01*
X1135247Y461551D01*
X1135247Y459094D01*
X1136475Y457865D01*
X1137704Y465349D02*
X1135247Y467807D01*
X1142619Y467807D01*
X1142619Y470264D02*
X1142619Y465349D01*
X977929Y541253D02*
X977929Y548625D01*
X981615Y548625D01*
X982843Y547397D01*
X982843Y544939D01*
X981615Y543710D01*
X977929Y543710D01*
X980386Y543710D02*
X982843Y541253D01*
X985413Y541253D02*
X990328Y541253D01*
X985413Y541253D02*
X990328Y546168D01*
X990328Y547397D01*
X989099Y548625D01*
X986641Y548625D01*
X985413Y547397D01*
X992897Y547397D02*
X994126Y548625D01*
X996583Y548625D01*
X997812Y547397D01*
X997812Y546168D01*
X996583Y544939D01*
X995354Y544939D01*
X996583Y544939D02*
X997812Y543710D01*
X997812Y542482D01*
X996583Y541253D01*
X994126Y541253D01*
X992897Y542482D01*
D13*
X1128770Y434270D02*
X1127500Y431730D01*
X1128770Y434270D02*
X1126230Y434270D01*
X1127500Y431730D01*
X1132580Y431730D02*
X1132580Y434270D01*
X1122420Y434270D02*
X1122420Y431730D01*
D10*
X1135247Y426381D02*
X1142619Y426381D01*
X1142619Y431296D01*
X1135247Y433865D02*
X1135247Y438780D01*
X1135247Y433865D02*
X1138933Y433865D01*
X1137704Y436323D01*
X1137704Y437551D01*
X1138933Y438780D01*
X1141390Y438780D01*
X1142619Y437551D01*
X1142619Y435094D01*
X1141390Y433865D01*
D13*
X1124572Y500313D02*
X1119016Y500313D01*
X1135200Y508413D02*
X1135200Y511588D01*
X1108388Y511588D02*
X1108388Y508413D01*
X1119016Y519688D02*
X1124572Y519688D01*
D12*
X1130500Y523000D03*
D10*
X1134603Y475929D02*
X1139518Y475929D01*
X1134603Y475929D02*
X1133375Y477157D01*
X1133375Y479615D01*
X1134603Y480843D01*
X1139518Y480843D01*
X1140747Y479615D01*
X1140747Y477157D01*
X1139518Y475929D01*
X1138290Y478386D02*
X1140747Y480843D01*
X1133375Y483413D02*
X1133375Y488328D01*
X1134603Y488328D01*
X1139518Y483413D01*
X1140747Y483413D01*
X1140747Y488328D01*
X1134603Y490897D02*
X1133375Y492126D01*
X1133375Y494583D01*
X1134603Y495812D01*
X1135832Y495812D01*
X1137061Y494583D01*
X1137061Y493354D01*
X1137061Y494583D02*
X1138290Y495812D01*
X1139518Y495812D01*
X1140747Y494583D01*
X1140747Y492126D01*
X1139518Y490897D01*
X1087843Y492397D02*
X1086615Y493625D01*
X1084157Y493625D01*
X1082929Y492397D01*
X1082929Y487482D01*
X1084157Y486253D01*
X1086615Y486253D01*
X1087843Y487482D01*
X1090413Y491168D02*
X1092870Y493625D01*
X1092870Y486253D01*
X1090413Y486253D02*
X1095328Y486253D01*
X1097897Y487482D02*
X1099126Y486253D01*
X1101583Y486253D01*
X1102812Y487482D01*
X1102812Y492397D01*
X1101583Y493625D01*
X1099126Y493625D01*
X1097897Y492397D01*
X1097897Y491168D01*
X1099126Y489939D01*
X1102812Y489939D01*
X1140296Y534525D02*
X1139067Y535753D01*
X1136610Y535753D01*
X1135381Y534525D01*
X1135381Y529610D01*
X1136610Y528381D01*
X1139067Y528381D01*
X1140296Y529610D01*
X1142865Y528381D02*
X1147780Y528381D01*
X1142865Y528381D02*
X1147780Y533296D01*
X1147780Y534525D01*
X1146551Y535753D01*
X1144094Y535753D01*
X1142865Y534525D01*
X1150349Y534525D02*
X1150349Y529610D01*
X1150349Y534525D02*
X1151578Y535753D01*
X1154035Y535753D01*
X1155264Y534525D01*
X1155264Y529610D01*
X1154035Y528381D01*
X1151578Y528381D01*
X1150349Y529610D01*
X1155264Y534525D01*
D13*
X245250Y76250D02*
X245250Y73500D01*
X245250Y124250D02*
X241500Y124250D01*
X197250Y73500D02*
X194500Y73500D01*
X194500Y76250D01*
X194500Y121500D02*
X194500Y124250D01*
X242500Y73500D02*
X245250Y73500D01*
X245250Y120500D02*
X245250Y124250D01*
X197250Y124250D02*
X194500Y124250D01*
D12*
X244000Y129000D03*
D10*
X244838Y136381D02*
X242381Y136381D01*
X243610Y136381D02*
X243610Y143753D01*
X244838Y143753D02*
X242381Y143753D01*
X251057Y143753D02*
X252285Y142525D01*
X251057Y143753D02*
X248599Y143753D01*
X247370Y142525D01*
X247370Y137610D01*
X248599Y136381D01*
X251057Y136381D01*
X252285Y137610D01*
X254855Y137610D02*
X256083Y136381D01*
X258541Y136381D01*
X259769Y137610D01*
X259769Y142525D01*
X258541Y143753D01*
X256083Y143753D01*
X254855Y142525D01*
X254855Y141296D01*
X256083Y140067D01*
X259769Y140067D01*
D13*
X869520Y600100D02*
X869520Y608990D01*
X869520Y600100D02*
X872060Y600100D01*
X894920Y600100D02*
X915240Y600100D01*
X938100Y600100D02*
X940640Y600100D01*
X940640Y608990D01*
X930480Y626770D02*
X879680Y626770D01*
D10*
X879067Y588253D02*
X880296Y587025D01*
X879067Y588253D02*
X876610Y588253D01*
X875381Y587025D01*
X875381Y585796D01*
X876610Y584567D01*
X879067Y584567D01*
X880296Y583338D01*
X880296Y582110D01*
X879067Y580881D01*
X876610Y580881D01*
X875381Y582110D01*
X882865Y580881D02*
X882865Y588253D01*
X885323Y583338D02*
X882865Y580881D01*
X885323Y583338D02*
X887780Y580881D01*
X887780Y588253D01*
X890349Y585796D02*
X892807Y588253D01*
X892807Y580881D01*
X895264Y580881D02*
X890349Y580881D01*
D13*
X810480Y29900D02*
X810480Y21010D01*
X810480Y29900D02*
X807940Y29900D01*
X785080Y29900D02*
X764760Y29900D01*
X741900Y29900D02*
X739360Y29900D01*
X739360Y21010D01*
X749520Y3230D02*
X800320Y3230D01*
D10*
X787843Y47897D02*
X786615Y49125D01*
X784157Y49125D01*
X782929Y47897D01*
X782929Y46668D01*
X784157Y45439D01*
X786615Y45439D01*
X787843Y44210D01*
X787843Y42982D01*
X786615Y41753D01*
X784157Y41753D01*
X782929Y42982D01*
X790413Y41753D02*
X790413Y49125D01*
X792870Y44210D02*
X790413Y41753D01*
X792870Y44210D02*
X795328Y41753D01*
X795328Y49125D01*
X797897Y47897D02*
X799126Y49125D01*
X801583Y49125D01*
X802812Y47897D01*
X802812Y46668D01*
X801583Y45439D01*
X800354Y45439D01*
X801583Y45439D02*
X802812Y44210D01*
X802812Y42982D01*
X801583Y41753D01*
X799126Y41753D01*
X797897Y42982D01*
D13*
X710480Y29900D02*
X710480Y21010D01*
X710480Y29900D02*
X707940Y29900D01*
X685080Y29900D02*
X664760Y29900D01*
X641900Y29900D02*
X639360Y29900D01*
X639360Y21010D01*
X649520Y3230D02*
X700320Y3230D01*
D10*
X687843Y47897D02*
X686615Y49125D01*
X684157Y49125D01*
X682929Y47897D01*
X682929Y46668D01*
X684157Y45439D01*
X686615Y45439D01*
X687843Y44210D01*
X687843Y42982D01*
X686615Y41753D01*
X684157Y41753D01*
X682929Y42982D01*
X690413Y41753D02*
X690413Y49125D01*
X692870Y44210D02*
X690413Y41753D01*
X692870Y44210D02*
X695328Y41753D01*
X695328Y49125D01*
X701583Y49125D02*
X701583Y41753D01*
X697897Y45439D02*
X701583Y49125D01*
X702812Y45439D02*
X697897Y45439D01*
X352296Y198525D02*
X351067Y199753D01*
X348610Y199753D01*
X347381Y198525D01*
X347381Y193610D01*
X348610Y192381D01*
X351067Y192381D01*
X352296Y193610D01*
X354865Y198525D02*
X356094Y199753D01*
X358551Y199753D01*
X359780Y198525D01*
X359780Y197296D01*
X358551Y196067D01*
X357323Y196067D01*
X358551Y196067D02*
X359780Y194838D01*
X359780Y193610D01*
X358551Y192381D01*
X356094Y192381D01*
X354865Y193610D01*
X362349Y193610D02*
X362349Y198525D01*
X363578Y199753D01*
X366035Y199753D01*
X367264Y198525D01*
X367264Y193610D01*
X366035Y192381D01*
X363578Y192381D01*
X362349Y193610D01*
X367264Y198525D01*
X566067Y200753D02*
X567296Y199525D01*
X566067Y200753D02*
X563610Y200753D01*
X562381Y199525D01*
X562381Y194610D01*
X563610Y193381D01*
X566067Y193381D01*
X567296Y194610D01*
X569865Y199525D02*
X571094Y200753D01*
X573551Y200753D01*
X574780Y199525D01*
X574780Y198296D01*
X573551Y197067D01*
X572323Y197067D01*
X573551Y197067D02*
X574780Y195838D01*
X574780Y194610D01*
X573551Y193381D01*
X571094Y193381D01*
X569865Y194610D01*
X577349Y198296D02*
X579807Y200753D01*
X579807Y193381D01*
X582264Y193381D02*
X577349Y193381D01*
D13*
X458747Y72388D02*
X447841Y72388D01*
X471125Y82238D02*
X471125Y90763D01*
X435463Y90763D02*
X435463Y82238D01*
X447841Y100613D02*
X458747Y100613D01*
D12*
X465000Y104500D03*
D10*
X464303Y46029D02*
X469218Y46029D01*
X464303Y46029D02*
X463075Y47257D01*
X463075Y49715D01*
X464303Y50943D01*
X469218Y50943D01*
X470447Y49715D01*
X470447Y47257D01*
X469218Y46029D01*
X467990Y48486D02*
X470447Y50943D01*
X463075Y53513D02*
X463075Y58428D01*
X464303Y58428D01*
X469218Y53513D01*
X470447Y53513D01*
X470447Y58428D01*
X465532Y60997D02*
X463075Y63454D01*
X470447Y63454D01*
X470447Y60997D02*
X470447Y65912D01*
X443296Y53425D02*
X442067Y54653D01*
X439610Y54653D01*
X438381Y53425D01*
X438381Y48510D01*
X439610Y47281D01*
X442067Y47281D01*
X443296Y48510D01*
X445865Y53425D02*
X447094Y54653D01*
X449551Y54653D01*
X450780Y53425D01*
X450780Y52196D01*
X449551Y50967D01*
X448323Y50967D01*
X449551Y50967D02*
X450780Y49738D01*
X450780Y48510D01*
X449551Y47281D01*
X447094Y47281D01*
X445865Y48510D01*
X453349Y47281D02*
X458264Y47281D01*
X453349Y47281D02*
X458264Y52196D01*
X458264Y53425D01*
X457035Y54653D01*
X454578Y54653D01*
X453349Y53425D01*
X477375Y56615D02*
X478603Y57843D01*
X477375Y56615D02*
X477375Y54157D01*
X478603Y52929D01*
X483518Y52929D01*
X484747Y54157D01*
X484747Y56615D01*
X483518Y57843D01*
X478603Y60413D02*
X477375Y61641D01*
X477375Y64099D01*
X478603Y65328D01*
X479832Y65328D01*
X481061Y64099D01*
X481061Y62870D01*
X481061Y64099D02*
X482290Y65328D01*
X483518Y65328D01*
X484747Y64099D01*
X484747Y61641D01*
X483518Y60413D01*
X478603Y67897D02*
X477375Y69126D01*
X477375Y71583D01*
X478603Y72812D01*
X479832Y72812D01*
X481061Y71583D01*
X481061Y70354D01*
X481061Y71583D02*
X482290Y72812D01*
X483518Y72812D01*
X484747Y71583D01*
X484747Y69126D01*
X483518Y67897D01*
X491375Y52929D02*
X498747Y52929D01*
X491375Y52929D02*
X491375Y56615D01*
X492603Y57843D01*
X495061Y57843D01*
X496290Y56615D01*
X496290Y52929D01*
X496290Y55386D02*
X498747Y57843D01*
X498747Y60413D02*
X498747Y65328D01*
X498747Y60413D02*
X493832Y65328D01*
X492603Y65328D01*
X491375Y64099D01*
X491375Y61641D01*
X492603Y60413D01*
X492603Y70354D02*
X491375Y72812D01*
X492603Y70354D02*
X495061Y67897D01*
X497518Y67897D01*
X498747Y69126D01*
X498747Y71583D01*
X497518Y72812D01*
X496290Y72812D01*
X495061Y71583D01*
X495061Y67897D01*
X324929Y164253D02*
X324929Y171625D01*
X328615Y171625D01*
X329843Y170397D01*
X329843Y167939D01*
X328615Y166710D01*
X324929Y166710D01*
X327386Y166710D02*
X329843Y164253D01*
X332413Y164253D02*
X337328Y164253D01*
X332413Y164253D02*
X337328Y169168D01*
X337328Y170397D01*
X336099Y171625D01*
X333641Y171625D01*
X332413Y170397D01*
X339897Y171625D02*
X344812Y171625D01*
X344812Y170397D01*
X339897Y165482D01*
X339897Y164253D01*
X324929Y159625D02*
X324929Y152253D01*
X324929Y159625D02*
X328615Y159625D01*
X329843Y158397D01*
X329843Y155939D01*
X328615Y154710D01*
X324929Y154710D01*
X327386Y154710D02*
X329843Y152253D01*
X332413Y152253D02*
X337328Y152253D01*
X332413Y152253D02*
X337328Y157168D01*
X337328Y158397D01*
X336099Y159625D01*
X333641Y159625D01*
X332413Y158397D01*
X339897Y158397D02*
X341126Y159625D01*
X343583Y159625D01*
X344812Y158397D01*
X344812Y157168D01*
X343583Y155939D01*
X344812Y154710D01*
X344812Y153482D01*
X343583Y152253D01*
X341126Y152253D01*
X339897Y153482D01*
X339897Y154710D01*
X341126Y155939D01*
X339897Y157168D01*
X339897Y158397D01*
X341126Y155939D02*
X343583Y155939D01*
D13*
X409250Y86000D02*
X409250Y74000D01*
X422500Y74000D02*
X422500Y86000D01*
D10*
X400381Y52525D02*
X400381Y47610D01*
X400381Y52525D02*
X401610Y53753D01*
X404067Y53753D01*
X405296Y52525D01*
X405296Y47610D01*
X404067Y46381D01*
X401610Y46381D01*
X400381Y47610D01*
X402838Y48838D02*
X405296Y46381D01*
X407865Y53753D02*
X412780Y53753D01*
X412780Y52525D01*
X407865Y47610D01*
X407865Y46381D01*
X412780Y46381D01*
X415349Y46381D02*
X420264Y46381D01*
X415349Y46381D02*
X420264Y51296D01*
X420264Y52525D01*
X419035Y53753D01*
X416578Y53753D01*
X415349Y52525D01*
X383247Y86067D02*
X384475Y87296D01*
X383247Y86067D02*
X383247Y83610D01*
X384475Y82381D01*
X389390Y82381D01*
X390619Y83610D01*
X390619Y86067D01*
X389390Y87296D01*
X384475Y89865D02*
X383247Y91094D01*
X383247Y93551D01*
X384475Y94780D01*
X385704Y94780D01*
X386933Y93551D01*
X386933Y92323D01*
X386933Y93551D02*
X388162Y94780D01*
X389390Y94780D01*
X390619Y93551D01*
X390619Y91094D01*
X389390Y89865D01*
X390619Y101035D02*
X383247Y101035D01*
X386933Y97349D01*
X386933Y102264D01*
X383475Y60296D02*
X382247Y59067D01*
X382247Y56610D01*
X383475Y55381D01*
X388390Y55381D01*
X389619Y56610D01*
X389619Y59067D01*
X388390Y60296D01*
X383475Y62865D02*
X382247Y64094D01*
X382247Y66551D01*
X383475Y67780D01*
X384704Y67780D01*
X385933Y66551D01*
X385933Y65323D01*
X385933Y66551D02*
X387162Y67780D01*
X388390Y67780D01*
X389619Y66551D01*
X389619Y64094D01*
X388390Y62865D01*
X382247Y70349D02*
X382247Y75264D01*
X382247Y70349D02*
X385933Y70349D01*
X384704Y72807D01*
X384704Y74035D01*
X385933Y75264D01*
X388390Y75264D01*
X389619Y74035D01*
X389619Y71578D01*
X388390Y70349D01*
X123843Y128397D02*
X122615Y129625D01*
X120157Y129625D01*
X118929Y128397D01*
X118929Y123482D01*
X120157Y122253D01*
X122615Y122253D01*
X123843Y123482D01*
X126413Y128397D02*
X127641Y129625D01*
X130099Y129625D01*
X131328Y128397D01*
X131328Y127168D01*
X130099Y125939D01*
X128870Y125939D01*
X130099Y125939D02*
X131328Y124710D01*
X131328Y123482D01*
X130099Y122253D01*
X127641Y122253D01*
X126413Y123482D01*
X136354Y128397D02*
X138812Y129625D01*
X136354Y128397D02*
X133897Y125939D01*
X133897Y123482D01*
X135126Y122253D01*
X137583Y122253D01*
X138812Y123482D01*
X138812Y124710D01*
X137583Y125939D01*
X133897Y125939D01*
X241067Y12753D02*
X242296Y11525D01*
X241067Y12753D02*
X238610Y12753D01*
X237381Y11525D01*
X237381Y6610D01*
X238610Y5381D01*
X241067Y5381D01*
X242296Y6610D01*
X244865Y11525D02*
X246094Y12753D01*
X248551Y12753D01*
X249780Y11525D01*
X249780Y10296D01*
X248551Y9067D01*
X247323Y9067D01*
X248551Y9067D02*
X249780Y7838D01*
X249780Y6610D01*
X248551Y5381D01*
X246094Y5381D01*
X244865Y6610D01*
X252349Y12753D02*
X257264Y12753D01*
X257264Y11525D01*
X252349Y6610D01*
X252349Y5381D01*
X216296Y15525D02*
X215067Y16753D01*
X212610Y16753D01*
X211381Y15525D01*
X211381Y10610D01*
X212610Y9381D01*
X215067Y9381D01*
X216296Y10610D01*
X218865Y15525D02*
X220094Y16753D01*
X222551Y16753D01*
X223780Y15525D01*
X223780Y14296D01*
X222551Y13067D01*
X221323Y13067D01*
X222551Y13067D02*
X223780Y11838D01*
X223780Y10610D01*
X222551Y9381D01*
X220094Y9381D01*
X218865Y10610D01*
X226349Y15525D02*
X227578Y16753D01*
X230035Y16753D01*
X231264Y15525D01*
X231264Y14296D01*
X230035Y13067D01*
X231264Y11838D01*
X231264Y10610D01*
X230035Y9381D01*
X227578Y9381D01*
X226349Y10610D01*
X226349Y11838D01*
X227578Y13067D01*
X226349Y14296D01*
X226349Y15525D01*
X227578Y13067D02*
X230035Y13067D01*
X1116067Y245753D02*
X1117296Y244525D01*
X1116067Y245753D02*
X1113610Y245753D01*
X1112381Y244525D01*
X1112381Y239610D01*
X1113610Y238381D01*
X1116067Y238381D01*
X1117296Y239610D01*
X1119865Y244525D02*
X1121094Y245753D01*
X1123551Y245753D01*
X1124780Y244525D01*
X1124780Y243296D01*
X1123551Y242067D01*
X1122323Y242067D01*
X1123551Y242067D02*
X1124780Y240838D01*
X1124780Y239610D01*
X1123551Y238381D01*
X1121094Y238381D01*
X1119865Y239610D01*
X1127349Y239610D02*
X1128578Y238381D01*
X1131035Y238381D01*
X1132264Y239610D01*
X1132264Y244525D01*
X1131035Y245753D01*
X1128578Y245753D01*
X1127349Y244525D01*
X1127349Y243296D01*
X1128578Y242067D01*
X1132264Y242067D01*
X1079615Y117625D02*
X1080843Y116397D01*
X1079615Y117625D02*
X1077157Y117625D01*
X1075929Y116397D01*
X1075929Y111482D01*
X1077157Y110253D01*
X1079615Y110253D01*
X1080843Y111482D01*
X1087099Y110253D02*
X1087099Y117625D01*
X1083413Y113939D01*
X1088328Y113939D01*
X1090897Y111482D02*
X1090897Y116397D01*
X1092126Y117625D01*
X1094583Y117625D01*
X1095812Y116397D01*
X1095812Y111482D01*
X1094583Y110253D01*
X1092126Y110253D01*
X1090897Y111482D01*
X1095812Y116397D01*
X1128381Y123381D02*
X1128381Y130753D01*
X1132067Y130753D01*
X1133296Y129525D01*
X1133296Y127067D01*
X1132067Y125838D01*
X1128381Y125838D01*
X1130838Y125838D02*
X1133296Y123381D01*
X1135865Y123381D02*
X1140780Y123381D01*
X1135865Y123381D02*
X1140780Y128296D01*
X1140780Y129525D01*
X1139551Y130753D01*
X1137094Y130753D01*
X1135865Y129525D01*
X1143349Y124610D02*
X1144578Y123381D01*
X1147035Y123381D01*
X1148264Y124610D01*
X1148264Y129525D01*
X1147035Y130753D01*
X1144578Y130753D01*
X1143349Y129525D01*
X1143349Y128296D01*
X1144578Y127067D01*
X1148264Y127067D01*
X1082381Y238381D02*
X1082381Y245753D01*
X1086067Y245753D01*
X1087296Y244525D01*
X1087296Y242067D01*
X1086067Y240838D01*
X1082381Y240838D01*
X1084838Y240838D02*
X1087296Y238381D01*
X1089865Y244525D02*
X1091094Y245753D01*
X1093551Y245753D01*
X1094780Y244525D01*
X1094780Y243296D01*
X1093551Y242067D01*
X1092323Y242067D01*
X1093551Y242067D02*
X1094780Y240838D01*
X1094780Y239610D01*
X1093551Y238381D01*
X1091094Y238381D01*
X1089865Y239610D01*
X1097349Y239610D02*
X1097349Y244525D01*
X1098578Y245753D01*
X1101035Y245753D01*
X1102264Y244525D01*
X1102264Y239610D01*
X1101035Y238381D01*
X1098578Y238381D01*
X1097349Y239610D01*
X1102264Y244525D01*
X198603Y7843D02*
X197375Y6615D01*
X197375Y4157D01*
X198603Y2929D01*
X203518Y2929D01*
X204747Y4157D01*
X204747Y6615D01*
X203518Y7843D01*
X204747Y14099D02*
X197375Y14099D01*
X201061Y10413D01*
X201061Y15328D01*
X199832Y17897D02*
X197375Y20354D01*
X204747Y20354D01*
X204747Y17897D02*
X204747Y22812D01*
X277296Y140525D02*
X276067Y141753D01*
X273610Y141753D01*
X272381Y140525D01*
X272381Y135610D01*
X273610Y134381D01*
X276067Y134381D01*
X277296Y135610D01*
X283551Y134381D02*
X283551Y141753D01*
X279865Y138067D01*
X284780Y138067D01*
X291035Y134381D02*
X291035Y141753D01*
X287349Y138067D01*
X292264Y138067D01*
X123843Y95397D02*
X122615Y96625D01*
X120157Y96625D01*
X118929Y95397D01*
X118929Y90482D01*
X120157Y89253D01*
X122615Y89253D01*
X123843Y90482D01*
X130099Y89253D02*
X130099Y96625D01*
X126413Y92939D01*
X131328Y92939D01*
X133897Y96625D02*
X138812Y96625D01*
X133897Y96625D02*
X133897Y92939D01*
X136354Y94168D01*
X137583Y94168D01*
X138812Y92939D01*
X138812Y90482D01*
X137583Y89253D01*
X135126Y89253D01*
X133897Y90482D01*
X123843Y112397D02*
X122615Y113625D01*
X120157Y113625D01*
X118929Y112397D01*
X118929Y107482D01*
X120157Y106253D01*
X122615Y106253D01*
X123843Y107482D01*
X130099Y106253D02*
X130099Y113625D01*
X126413Y109939D01*
X131328Y109939D01*
X136354Y112397D02*
X138812Y113625D01*
X136354Y112397D02*
X133897Y109939D01*
X133897Y107482D01*
X135126Y106253D01*
X137583Y106253D01*
X138812Y107482D01*
X138812Y108710D01*
X137583Y109939D01*
X133897Y109939D01*
X129615Y78625D02*
X130843Y77397D01*
X129615Y78625D02*
X127157Y78625D01*
X125929Y77397D01*
X125929Y72482D01*
X127157Y71253D01*
X129615Y71253D01*
X130843Y72482D01*
X137099Y71253D02*
X137099Y78625D01*
X133413Y74939D01*
X138328Y74939D01*
X140897Y78625D02*
X145812Y78625D01*
X145812Y77397D01*
X140897Y72482D01*
X140897Y71253D01*
X184603Y7843D02*
X183375Y6615D01*
X183375Y4157D01*
X184603Y2929D01*
X189518Y2929D01*
X190747Y4157D01*
X190747Y6615D01*
X189518Y7843D01*
X190747Y14099D02*
X183375Y14099D01*
X187061Y10413D01*
X187061Y15328D01*
X184603Y17897D02*
X183375Y19126D01*
X183375Y21583D01*
X184603Y22812D01*
X185832Y22812D01*
X187061Y21583D01*
X188290Y22812D01*
X189518Y22812D01*
X190747Y21583D01*
X190747Y19126D01*
X189518Y17897D01*
X188290Y17897D01*
X187061Y19126D01*
X185832Y17897D01*
X184603Y17897D01*
X187061Y19126D02*
X187061Y21583D01*
X175747Y2929D02*
X168375Y2929D01*
X168375Y6615D01*
X169603Y7843D01*
X172061Y7843D01*
X173290Y6615D01*
X173290Y2929D01*
X173290Y5386D02*
X175747Y7843D01*
X169603Y10413D02*
X168375Y11641D01*
X168375Y14099D01*
X169603Y15328D01*
X170832Y15328D01*
X172061Y14099D01*
X172061Y12870D01*
X172061Y14099D02*
X173290Y15328D01*
X174518Y15328D01*
X175747Y14099D01*
X175747Y11641D01*
X174518Y10413D01*
X175747Y17897D02*
X175747Y22812D01*
X175747Y17897D02*
X170832Y22812D01*
X169603Y22812D01*
X168375Y21583D01*
X168375Y19126D01*
X169603Y17897D01*
X125929Y57253D02*
X125929Y64625D01*
X129615Y64625D01*
X130843Y63397D01*
X130843Y60939D01*
X129615Y59710D01*
X125929Y59710D01*
X128386Y59710D02*
X130843Y57253D01*
X133413Y63397D02*
X134641Y64625D01*
X137099Y64625D01*
X138328Y63397D01*
X138328Y62168D01*
X137099Y60939D01*
X135870Y60939D01*
X137099Y60939D02*
X138328Y59710D01*
X138328Y58482D01*
X137099Y57253D01*
X134641Y57253D01*
X133413Y58482D01*
X140897Y63397D02*
X142126Y64625D01*
X144583Y64625D01*
X145812Y63397D01*
X145812Y62168D01*
X144583Y60939D01*
X143354Y60939D01*
X144583Y60939D02*
X145812Y59710D01*
X145812Y58482D01*
X144583Y57253D01*
X142126Y57253D01*
X140897Y58482D01*
X303067Y111753D02*
X304296Y110525D01*
X303067Y111753D02*
X300610Y111753D01*
X299381Y110525D01*
X299381Y105610D01*
X300610Y104381D01*
X303067Y104381D01*
X304296Y105610D01*
X310551Y104381D02*
X310551Y111753D01*
X306865Y108067D01*
X311780Y108067D01*
X314349Y105610D02*
X315578Y104381D01*
X318035Y104381D01*
X319264Y105610D01*
X319264Y110525D01*
X318035Y111753D01*
X315578Y111753D01*
X314349Y110525D01*
X314349Y109296D01*
X315578Y108067D01*
X319264Y108067D01*
X304296Y93525D02*
X303067Y94753D01*
X300610Y94753D01*
X299381Y93525D01*
X299381Y88610D01*
X300610Y87381D01*
X303067Y87381D01*
X304296Y88610D01*
X306865Y94753D02*
X311780Y94753D01*
X306865Y94753D02*
X306865Y91067D01*
X309323Y92296D01*
X310551Y92296D01*
X311780Y91067D01*
X311780Y88610D01*
X310551Y87381D01*
X308094Y87381D01*
X306865Y88610D01*
X314349Y88610D02*
X314349Y93525D01*
X315578Y94753D01*
X318035Y94753D01*
X319264Y93525D01*
X319264Y88610D01*
X318035Y87381D01*
X315578Y87381D01*
X314349Y88610D01*
X319264Y93525D01*
X304296Y77525D02*
X303067Y78753D01*
X300610Y78753D01*
X299381Y77525D01*
X299381Y72610D01*
X300610Y71381D01*
X303067Y71381D01*
X304296Y72610D01*
X306865Y78753D02*
X311780Y78753D01*
X306865Y78753D02*
X306865Y75067D01*
X309323Y76296D01*
X310551Y76296D01*
X311780Y75067D01*
X311780Y72610D01*
X310551Y71381D01*
X308094Y71381D01*
X306865Y72610D01*
X314349Y76296D02*
X316807Y78753D01*
X316807Y71381D01*
X319264Y71381D02*
X314349Y71381D01*
X304196Y62725D02*
X302967Y63953D01*
X300510Y63953D01*
X299281Y62725D01*
X299281Y57810D01*
X300510Y56581D01*
X302967Y56581D01*
X304196Y57810D01*
X306765Y63953D02*
X311680Y63953D01*
X306765Y63953D02*
X306765Y60267D01*
X309223Y61496D01*
X310451Y61496D01*
X311680Y60267D01*
X311680Y57810D01*
X310451Y56581D01*
X307994Y56581D01*
X306765Y57810D01*
X314249Y56581D02*
X319164Y56581D01*
X314249Y56581D02*
X319164Y61496D01*
X319164Y62725D01*
X317935Y63953D01*
X315478Y63953D01*
X314249Y62725D01*
X896615Y146625D02*
X897843Y145397D01*
X896615Y146625D02*
X894157Y146625D01*
X892929Y145397D01*
X892929Y140482D01*
X894157Y139253D01*
X896615Y139253D01*
X897843Y140482D01*
X900413Y146625D02*
X905328Y146625D01*
X900413Y146625D02*
X900413Y142939D01*
X902870Y144168D01*
X904099Y144168D01*
X905328Y142939D01*
X905328Y140482D01*
X904099Y139253D01*
X901641Y139253D01*
X900413Y140482D01*
X910354Y145397D02*
X912812Y146625D01*
X910354Y145397D02*
X907897Y142939D01*
X907897Y140482D01*
X909126Y139253D01*
X911583Y139253D01*
X912812Y140482D01*
X912812Y141710D01*
X911583Y142939D01*
X907897Y142939D01*
X951247Y531067D02*
X952475Y532296D01*
X951247Y531067D02*
X951247Y528610D01*
X952475Y527381D01*
X957390Y527381D01*
X958619Y528610D01*
X958619Y531067D01*
X957390Y532296D01*
X951247Y534865D02*
X951247Y539780D01*
X951247Y534865D02*
X954933Y534865D01*
X953704Y537323D01*
X953704Y538551D01*
X954933Y539780D01*
X957390Y539780D01*
X958619Y538551D01*
X958619Y536094D01*
X957390Y534865D01*
X951247Y542349D02*
X951247Y547264D01*
X952475Y547264D01*
X957390Y542349D01*
X958619Y542349D01*
X962067Y391253D02*
X963296Y390025D01*
X962067Y391253D02*
X959610Y391253D01*
X958381Y390025D01*
X958381Y385110D01*
X959610Y383881D01*
X962067Y383881D01*
X963296Y385110D01*
X965865Y391253D02*
X970780Y391253D01*
X965865Y391253D02*
X965865Y387567D01*
X968323Y388796D01*
X969551Y388796D01*
X970780Y387567D01*
X970780Y385110D01*
X969551Y383881D01*
X967094Y383881D01*
X965865Y385110D01*
X973349Y390025D02*
X974578Y391253D01*
X977035Y391253D01*
X978264Y390025D01*
X978264Y388796D01*
X977035Y387567D01*
X978264Y386338D01*
X978264Y385110D01*
X977035Y383881D01*
X974578Y383881D01*
X973349Y385110D01*
X973349Y386338D01*
X974578Y387567D01*
X973349Y388796D01*
X973349Y390025D01*
X974578Y387567D02*
X977035Y387567D01*
X700475Y280296D02*
X699247Y279067D01*
X699247Y276610D01*
X700475Y275381D01*
X705390Y275381D01*
X706619Y276610D01*
X706619Y279067D01*
X705390Y280296D01*
X699247Y282865D02*
X699247Y287780D01*
X699247Y282865D02*
X702933Y282865D01*
X701704Y285323D01*
X701704Y286551D01*
X702933Y287780D01*
X705390Y287780D01*
X706619Y286551D01*
X706619Y284094D01*
X705390Y282865D01*
X705390Y290349D02*
X706619Y291578D01*
X706619Y294035D01*
X705390Y295264D01*
X700475Y295264D01*
X699247Y294035D01*
X699247Y291578D01*
X700475Y290349D01*
X701704Y290349D01*
X702933Y291578D01*
X702933Y295264D01*
X580975Y255296D02*
X579747Y254067D01*
X579747Y251610D01*
X580975Y250381D01*
X585890Y250381D01*
X587119Y251610D01*
X587119Y254067D01*
X585890Y255296D01*
X580975Y260323D02*
X579747Y262780D01*
X580975Y260323D02*
X583433Y257865D01*
X585890Y257865D01*
X587119Y259094D01*
X587119Y261551D01*
X585890Y262780D01*
X584662Y262780D01*
X583433Y261551D01*
X583433Y257865D01*
X585890Y265349D02*
X580975Y265349D01*
X579747Y266578D01*
X579747Y269035D01*
X580975Y270264D01*
X585890Y270264D01*
X587119Y269035D01*
X587119Y266578D01*
X585890Y265349D01*
X580975Y270264D01*
X572603Y105843D02*
X571375Y104615D01*
X571375Y102157D01*
X572603Y100929D01*
X577518Y100929D01*
X578747Y102157D01*
X578747Y104615D01*
X577518Y105843D01*
X572603Y110870D02*
X571375Y113328D01*
X572603Y110870D02*
X575061Y108413D01*
X577518Y108413D01*
X578747Y109641D01*
X578747Y112099D01*
X577518Y113328D01*
X576290Y113328D01*
X575061Y112099D01*
X575061Y108413D01*
X578747Y115897D02*
X578747Y120812D01*
X578747Y115897D02*
X573832Y120812D01*
X572603Y120812D01*
X571375Y119583D01*
X571375Y117126D01*
X572603Y115897D01*
X908847Y336067D02*
X910075Y337296D01*
X908847Y336067D02*
X908847Y333610D01*
X910075Y332381D01*
X914990Y332381D01*
X916219Y333610D01*
X916219Y336067D01*
X914990Y337296D01*
X910075Y342323D02*
X908847Y344780D01*
X910075Y342323D02*
X912533Y339865D01*
X914990Y339865D01*
X916219Y341094D01*
X916219Y343551D01*
X914990Y344780D01*
X913762Y344780D01*
X912533Y343551D01*
X912533Y339865D01*
X910075Y347349D02*
X908847Y348578D01*
X908847Y351035D01*
X910075Y352264D01*
X911304Y352264D01*
X912533Y351035D01*
X912533Y349807D01*
X912533Y351035D02*
X913762Y352264D01*
X914990Y352264D01*
X916219Y351035D01*
X916219Y348578D01*
X914990Y347349D01*
X293381Y49753D02*
X293381Y42381D01*
X293381Y49753D02*
X297067Y49753D01*
X298296Y48525D01*
X298296Y46067D01*
X297067Y44838D01*
X293381Y44838D01*
X295838Y44838D02*
X298296Y42381D01*
X304551Y42381D02*
X304551Y49753D01*
X300865Y46067D01*
X305780Y46067D01*
X308349Y43610D02*
X308349Y48525D01*
X309578Y49753D01*
X312035Y49753D01*
X313264Y48525D01*
X313264Y43610D01*
X312035Y42381D01*
X309578Y42381D01*
X308349Y43610D01*
X313264Y48525D01*
X260381Y25753D02*
X260381Y18381D01*
X260381Y25753D02*
X264067Y25753D01*
X265296Y24525D01*
X265296Y22067D01*
X264067Y20838D01*
X260381Y20838D01*
X262838Y20838D02*
X265296Y18381D01*
X271551Y18381D02*
X271551Y25753D01*
X267865Y22067D01*
X272780Y22067D01*
X275349Y23296D02*
X277807Y25753D01*
X277807Y18381D01*
X280264Y18381D02*
X275349Y18381D01*
D13*
X509000Y562000D02*
X543000Y562000D01*
X543000Y542000D02*
X509000Y542000D01*
D10*
X512881Y571025D02*
X512881Y572253D01*
X512881Y571025D02*
X515338Y568567D01*
X517796Y571025D01*
X517796Y572253D01*
X515338Y568567D02*
X515338Y564881D01*
X520365Y571025D02*
X521594Y572253D01*
X524051Y572253D01*
X525280Y571025D01*
X525280Y569796D01*
X524051Y568567D01*
X522823Y568567D01*
X524051Y568567D02*
X525280Y567338D01*
X525280Y566110D01*
X524051Y564881D01*
X521594Y564881D01*
X520365Y566110D01*
D13*
X993500Y597000D02*
X1067500Y597000D01*
X1067500Y617000D02*
X993500Y617000D01*
D10*
X993913Y593625D02*
X993913Y592397D01*
X996370Y589939D01*
X998828Y592397D01*
X998828Y593625D01*
X996370Y589939D02*
X996370Y586253D01*
X1001397Y591168D02*
X1003854Y593625D01*
X1003854Y586253D01*
X1001397Y586253D02*
X1006312Y586253D01*
D13*
X1196400Y202800D02*
X1196400Y139800D01*
X1187400Y139800D01*
X1077400Y149800D02*
X1077400Y195800D01*
X1115400Y139800D02*
X1163400Y139800D01*
X1091400Y139800D02*
X1090400Y139800D01*
X1187400Y202800D02*
X1196400Y202800D01*
X1163400Y202800D02*
X1153400Y202800D01*
X1119400Y202800D02*
X1103400Y202800D01*
D10*
X1071619Y167296D02*
X1064247Y162381D01*
X1064247Y167296D02*
X1071619Y162381D01*
X1066704Y169865D02*
X1064247Y172323D01*
X1071619Y172323D01*
X1071619Y174780D02*
X1071619Y169865D01*
X1070390Y177349D02*
X1065475Y177349D01*
X1064247Y178578D01*
X1064247Y181035D01*
X1065475Y182264D01*
X1070390Y182264D01*
X1071619Y181035D01*
X1071619Y178578D01*
X1070390Y177349D01*
X1065475Y182264D01*
X1055413Y574753D02*
X1055413Y582125D01*
X1055413Y574753D02*
X1060328Y574753D01*
X1065354Y580897D02*
X1067812Y582125D01*
X1065354Y580897D02*
X1062897Y578439D01*
X1062897Y575982D01*
X1064126Y574753D01*
X1066583Y574753D01*
X1067812Y575982D01*
X1067812Y577210D01*
X1066583Y578439D01*
X1062897Y578439D01*
X1006567Y483753D02*
X1007796Y482525D01*
X1006567Y483753D02*
X1004110Y483753D01*
X1002881Y482525D01*
X1002881Y477610D01*
X1004110Y476381D01*
X1006567Y476381D01*
X1007796Y477610D01*
X1012823Y482525D02*
X1015280Y483753D01*
X1012823Y482525D02*
X1010365Y480067D01*
X1010365Y477610D01*
X1011594Y476381D01*
X1014051Y476381D01*
X1015280Y477610D01*
X1015280Y478838D01*
X1014051Y480067D01*
X1010365Y480067D01*
X1017849Y483753D02*
X1022764Y483753D01*
X1022764Y482525D01*
X1017849Y477610D01*
X1017849Y476381D01*
D16*
X545250Y68650D02*
X544710Y67802D01*
X544190Y66941D01*
X543690Y66069D01*
X543210Y65185D01*
X542751Y64290D01*
X542313Y63385D01*
X541897Y62470D01*
X541501Y61545D01*
X541128Y60611D01*
X540776Y59669D01*
X540446Y58719D01*
X540138Y57762D01*
X539853Y56798D01*
X539590Y55827D01*
X539350Y54850D01*
X539350Y54849D02*
X539067Y53616D01*
X538812Y52376D01*
X538583Y51132D01*
X538382Y49882D01*
X538208Y48629D01*
X538061Y47372D01*
X537942Y46112D01*
X537850Y44850D01*
X537851Y44850D02*
X537797Y43988D01*
X537763Y43125D01*
X537747Y42262D01*
X537750Y41398D01*
X537772Y40535D01*
X537813Y39672D01*
X537872Y38811D01*
X537951Y37951D01*
X591149Y53550D02*
X591475Y54526D01*
X591777Y55509D01*
X592056Y56500D01*
X592310Y57497D01*
X592541Y58500D01*
X592748Y59507D01*
X592930Y60520D01*
X593089Y61537D01*
X593223Y62557D01*
X593332Y63580D01*
X593417Y64605D01*
X593478Y65633D01*
X593514Y66661D01*
X593525Y67690D01*
X593512Y68719D01*
X593474Y69747D01*
X593411Y70774D01*
X593324Y71799D01*
X593213Y72822D01*
X593077Y73842D01*
X592916Y74858D01*
X592732Y75870D01*
X592523Y76878D01*
X592290Y77880D01*
X592034Y78877D01*
X591753Y79867D01*
X591449Y80850D01*
X558150Y27751D02*
X557134Y27975D01*
X556124Y28224D01*
X555119Y28497D01*
X554122Y28793D01*
X553132Y29114D01*
X552150Y29457D01*
X551177Y29824D01*
X550212Y30215D01*
X549257Y30627D01*
X548312Y31063D01*
X547378Y31521D01*
X546455Y32001D01*
X545544Y32503D01*
X544645Y33026D01*
X543758Y33571D01*
X542885Y34136D01*
X542025Y34722D01*
X541180Y35329D01*
X540349Y35955D01*
X539534Y36601D01*
X538734Y37266D01*
X537950Y37950D01*
X558251Y27750D02*
X558943Y27609D01*
X559638Y27484D01*
X560335Y27373D01*
X561035Y27278D01*
X561737Y27198D01*
X562440Y27133D01*
X563145Y27084D01*
X563850Y27050D01*
X563950Y27050D02*
X564586Y27002D01*
X565224Y26967D01*
X565862Y26946D01*
X566500Y26939D01*
X567138Y26946D01*
X567776Y26967D01*
X568414Y27002D01*
X569050Y27050D01*
X570706Y27165D01*
X572358Y27318D01*
X574006Y27510D01*
X575649Y27740D01*
X577287Y28009D01*
X578918Y28315D01*
X580541Y28659D01*
X582156Y29041D01*
X583761Y29461D01*
X585357Y29917D01*
X586941Y30411D01*
X588513Y30941D01*
X590073Y31508D01*
X591619Y32111D01*
X593150Y32750D01*
X593208Y34425D01*
X593227Y36100D01*
X593207Y37775D01*
X593148Y39450D01*
X593050Y41122D01*
X592913Y42792D01*
X592737Y44459D01*
X592523Y46120D01*
X592270Y47777D01*
X591978Y49427D01*
X591649Y51069D01*
X591281Y52704D01*
X590875Y54329D01*
X590431Y55945D01*
X589950Y57550D01*
X574150Y69350D02*
X574638Y69962D01*
X575141Y70562D01*
X575658Y71150D01*
X576189Y71726D01*
X576733Y72288D01*
X577291Y72838D01*
X577861Y73374D01*
X578445Y73896D01*
X579040Y74404D01*
X579648Y74898D01*
X580267Y75377D01*
X580898Y75841D01*
X581539Y76290D01*
X582191Y76723D01*
X582853Y77141D01*
X583525Y77543D01*
X584207Y77928D01*
X584897Y78297D01*
X585596Y78650D01*
X586303Y78986D01*
X587018Y79304D01*
X587741Y79606D01*
X588470Y79890D01*
X589207Y80157D01*
X589949Y80406D01*
X590697Y80637D01*
X591450Y80850D01*
X574150Y69350D02*
X574008Y69451D01*
X573864Y69549D01*
X573718Y69643D01*
X573569Y69733D01*
X573419Y69820D01*
X573266Y69904D01*
X573111Y69983D01*
X572954Y70059D01*
X572796Y70131D01*
X572636Y70200D01*
X572474Y70264D01*
X572311Y70325D01*
X572147Y70382D01*
X571981Y70434D01*
X571814Y70483D01*
X571646Y70528D01*
X571477Y70569D01*
X571307Y70605D01*
X571136Y70638D01*
X570964Y70666D01*
X570792Y70691D01*
X570619Y70711D01*
X570446Y70727D01*
X570272Y70739D01*
X570098Y70747D01*
X569924Y70751D01*
X569750Y70750D01*
D14*
X578650Y74050D02*
X578960Y74248D01*
X579275Y74438D01*
X579594Y74621D01*
X579918Y74796D01*
X580245Y74963D01*
X580576Y75123D01*
X580912Y75274D01*
X581250Y75418D01*
X581592Y75554D01*
X581937Y75681D01*
X582285Y75800D01*
X582636Y75911D01*
X582989Y76013D01*
X583345Y76107D01*
X583703Y76193D01*
X584063Y76270D01*
X584424Y76338D01*
X584787Y76398D01*
X585151Y76449D01*
X585517Y76491D01*
X585883Y76525D01*
X586250Y76550D01*
D16*
X569749Y70750D02*
X569173Y71305D01*
X568584Y71847D01*
X567982Y72374D01*
X567367Y72887D01*
X566741Y73386D01*
X566103Y73869D01*
X565453Y74337D01*
X564793Y74789D01*
X564122Y75225D01*
X563441Y75646D01*
X562750Y76050D01*
X562169Y76331D01*
X561581Y76598D01*
X560986Y76850D01*
X560386Y77089D01*
X559780Y77313D01*
X559170Y77523D01*
X558554Y77718D01*
X557934Y77898D01*
X557310Y78064D01*
X556682Y78215D01*
X556050Y78350D01*
X556173Y77939D01*
X556306Y77531D01*
X556448Y77127D01*
X556600Y76725D01*
X556761Y76328D01*
X556932Y75935D01*
X557112Y75545D01*
X557301Y75160D01*
X557500Y74780D01*
X557707Y74405D01*
X557923Y74034D01*
X558148Y73669D01*
X558382Y73309D01*
X558624Y72955D01*
X558875Y72607D01*
X559134Y72265D01*
X559400Y71929D01*
X559675Y71600D01*
X559958Y71277D01*
X560248Y70961D01*
X560545Y70652D01*
X560850Y70350D01*
D14*
X583650Y73650D02*
X583759Y73839D01*
X583873Y74025D01*
X583992Y74208D01*
X584114Y74388D01*
X584241Y74566D01*
X584373Y74740D01*
X584508Y74911D01*
X584648Y75078D01*
X584791Y75243D01*
X584939Y75403D01*
X585090Y75560D01*
X585245Y75713D01*
X585404Y75863D01*
X585567Y76009D01*
X585733Y76150D01*
X585902Y76288D01*
X586074Y76421D01*
X586250Y76550D01*
X560850Y70350D02*
X560543Y70430D01*
X560235Y70502D01*
X559924Y70567D01*
X559612Y70625D01*
X559299Y70674D01*
X558985Y70716D01*
X558669Y70750D01*
X558353Y70777D01*
X558037Y70796D01*
X557720Y70807D01*
X557403Y70810D01*
X557086Y70806D01*
X556769Y70793D01*
X556452Y70773D01*
X556136Y70746D01*
X555821Y70710D01*
X555507Y70667D01*
X555194Y70617D01*
X554882Y70558D01*
X554572Y70492D01*
X554264Y70419D01*
X553957Y70338D01*
X553652Y70249D01*
X553350Y70153D01*
X553050Y70050D01*
X583650Y73650D02*
X583901Y73875D01*
X584157Y74095D01*
X584418Y74308D01*
X584684Y74515D01*
X584956Y74715D01*
X585231Y74909D01*
X585512Y75097D01*
X585797Y75277D01*
X586086Y75451D01*
X586379Y75618D01*
X586676Y75778D01*
X586976Y75931D01*
X587281Y76076D01*
X587588Y76214D01*
X587899Y76345D01*
X588213Y76469D01*
X588530Y76585D01*
X588849Y76693D01*
X589171Y76794D01*
X589495Y76887D01*
X589821Y76972D01*
X590150Y77050D01*
X590151Y77050D02*
X590319Y76684D01*
X590478Y76315D01*
X590628Y75942D01*
X590768Y75565D01*
X590900Y75185D01*
X591023Y74802D01*
X591136Y74417D01*
X591240Y74028D01*
X591334Y73637D01*
X591419Y73244D01*
X591494Y72849D01*
X591560Y72452D01*
X591616Y72054D01*
X591662Y71655D01*
X591699Y71255D01*
X591726Y70853D01*
X591743Y70452D01*
X591751Y70050D01*
X585350Y66750D02*
X585282Y66853D01*
X585211Y66954D01*
X585137Y67053D01*
X585061Y67150D01*
X584981Y67245D01*
X584899Y67337D01*
X584814Y67427D01*
X584727Y67514D01*
X584637Y67599D01*
X584545Y67681D01*
X584450Y67761D01*
X584353Y67837D01*
X584254Y67911D01*
X584153Y67982D01*
X584050Y68050D01*
X584051Y68050D02*
X584149Y68420D01*
X584255Y68787D01*
X584371Y69152D01*
X584495Y69514D01*
X584628Y69872D01*
X584770Y70228D01*
X584920Y70580D01*
X585078Y70928D01*
X585245Y71272D01*
X585420Y71613D01*
X585603Y71948D01*
X585795Y72280D01*
X585994Y72607D01*
X586201Y72928D01*
X586416Y73245D01*
X586638Y73557D01*
X586867Y73863D01*
X587104Y74163D01*
X587349Y74458D01*
X587600Y74746D01*
X587858Y75029D01*
X588122Y75305D01*
X588394Y75575D01*
X588671Y75838D01*
X588955Y76094D01*
X589246Y76344D01*
X589542Y76586D01*
X589843Y76822D01*
X590151Y77049D01*
X558350Y67350D02*
X558083Y67410D01*
X557818Y67476D01*
X557554Y67549D01*
X557292Y67628D01*
X557032Y67713D01*
X556774Y67804D01*
X556519Y67902D01*
X556266Y68005D01*
X556015Y68114D01*
X555767Y68230D01*
X555522Y68351D01*
X555280Y68478D01*
X555041Y68611D01*
X554805Y68749D01*
X554572Y68893D01*
X554343Y69043D01*
X554118Y69198D01*
X553896Y69358D01*
X553678Y69523D01*
X553465Y69694D01*
X553255Y69869D01*
X553050Y70050D01*
X558349Y67350D02*
X558257Y67221D01*
X558167Y67090D01*
X558080Y66957D01*
X557997Y66822D01*
X557917Y66685D01*
X557841Y66546D01*
X557768Y66405D01*
X557698Y66262D01*
X557632Y66118D01*
X557570Y65972D01*
X557511Y65825D01*
X557456Y65676D01*
X557404Y65526D01*
X557357Y65375D01*
X557312Y65222D01*
X557272Y65069D01*
X557235Y64915D01*
X557203Y64759D01*
X557174Y64603D01*
X557149Y64447D01*
X557127Y64289D01*
X557110Y64132D01*
X557096Y63974D01*
X557087Y63815D01*
X557081Y63657D01*
X557079Y63498D01*
X557081Y63339D01*
X557087Y63181D01*
X557097Y63022D01*
X557110Y62864D01*
X557128Y62707D01*
X557149Y62549D01*
X557150Y62550D02*
X557653Y62865D01*
X558163Y63168D01*
X558679Y63461D01*
X559202Y63742D01*
X559731Y64011D01*
X560265Y64269D01*
X560805Y64515D01*
X561350Y64750D01*
D16*
X558950Y72451D02*
X558100Y72479D01*
X557250Y72488D01*
X556400Y72479D01*
X555550Y72451D01*
D14*
X564750Y57050D02*
X564202Y56453D01*
X563669Y55843D01*
X563149Y55221D01*
X562645Y54587D01*
X562155Y53941D01*
X561680Y53284D01*
X561221Y52616D01*
X560778Y51938D01*
X560350Y51250D01*
D16*
X555550Y72450D02*
X555280Y73060D01*
X554996Y73664D01*
X554697Y74260D01*
X554385Y74850D01*
X554059Y75432D01*
X553719Y76006D01*
X553366Y76572D01*
X552999Y77129D01*
X552620Y77678D01*
X552227Y78217D01*
X551822Y78748D01*
X551405Y79268D01*
X550976Y79779D01*
X550534Y80279D01*
X550081Y80769D01*
X549617Y81248D01*
X549141Y81715D01*
X548655Y82172D01*
X548157Y82617D01*
X547650Y83050D01*
X547259Y82319D01*
X546886Y81579D01*
X546531Y80831D01*
X546193Y80074D01*
X545874Y79310D01*
X545573Y78538D01*
X545290Y77759D01*
X545026Y76974D01*
X544781Y76182D01*
X544555Y75385D01*
X544348Y74583D01*
X544160Y73776D01*
X543991Y72965D01*
X543841Y72150D01*
X543711Y71332D01*
X543601Y70511D01*
X543510Y69687D01*
X543438Y68862D01*
X543386Y68035D01*
X543354Y67207D01*
X543342Y66378D01*
X543350Y65550D01*
D14*
X555550Y72450D02*
X554990Y73215D01*
X554411Y73966D01*
X553815Y74704D01*
X553201Y75426D01*
X552571Y76135D01*
X551924Y76827D01*
X551260Y77505D01*
X550580Y78166D01*
X549885Y78811D01*
X549175Y79439D01*
X548450Y80050D01*
X548543Y79852D01*
X548631Y79652D01*
X548714Y79449D01*
X548792Y79245D01*
X548866Y79039D01*
X548934Y78831D01*
X548997Y78622D01*
X549055Y78411D01*
X549108Y78199D01*
X549156Y77986D01*
X549199Y77771D01*
X549236Y77556D01*
X549268Y77339D01*
X549295Y77122D01*
X549317Y76905D01*
X549333Y76687D01*
X549344Y76468D01*
X549350Y76250D01*
X549351Y76250D02*
X549176Y76556D01*
X548994Y76857D01*
X548805Y77154D01*
X548609Y77446D01*
X548406Y77734D01*
X548197Y78016D01*
X547980Y78294D01*
X547757Y78566D01*
X547528Y78833D01*
X547293Y79095D01*
X547051Y79350D01*
X547050Y79350D02*
X547291Y78832D01*
X547520Y78307D01*
X547736Y77778D01*
X547940Y77243D01*
X548130Y76704D01*
X548308Y76160D01*
X548472Y75612D01*
X548623Y75061D01*
X548761Y74506D01*
X548886Y73948D01*
X548997Y73387D01*
X549095Y72823D01*
X549179Y72257D01*
X549250Y71690D01*
X549306Y71121D01*
X549350Y70550D01*
X545350Y73149D02*
X545503Y73939D01*
X545673Y74726D01*
X545861Y75508D01*
X546065Y76287D01*
X546286Y77060D01*
X546524Y77829D01*
X546779Y78592D01*
X547050Y79349D01*
X554550Y54050D02*
X554684Y53806D01*
X554813Y53558D01*
X554936Y53308D01*
X555054Y53054D01*
X555165Y52798D01*
X555270Y52540D01*
X555370Y52279D01*
X555463Y52016D01*
X555550Y51750D01*
D16*
X549950Y54949D02*
X549567Y55423D01*
X549195Y55905D01*
X548834Y56396D01*
X548484Y56895D01*
X548146Y57402D01*
X547821Y57917D01*
X547507Y58439D01*
X547205Y58968D01*
X546916Y59504D01*
X546640Y60047D01*
X546376Y60596D01*
X546125Y61151D01*
X545887Y61712D01*
X545662Y62278D01*
X545450Y62850D01*
X549950Y54950D02*
X550455Y54377D01*
X550974Y53816D01*
X551506Y53268D01*
X552050Y52732D01*
X552607Y52209D01*
X553175Y51699D01*
X553756Y51202D01*
X554347Y50719D01*
X554950Y50250D01*
X544150Y57250D02*
X544258Y57961D01*
X544383Y58670D01*
X544522Y59375D01*
X544677Y60078D01*
X544848Y60777D01*
X545033Y61472D01*
X545234Y62163D01*
X545450Y62850D01*
X544150Y57250D02*
X544130Y54950D01*
X544150Y52650D01*
X544181Y52400D01*
X544218Y52151D01*
X544261Y51903D01*
X544310Y51656D01*
X544365Y51410D01*
X544425Y51165D01*
X544492Y50922D01*
X544564Y50681D01*
X544642Y50441D01*
X544725Y50204D01*
X544815Y49968D01*
X544909Y49735D01*
X545010Y49504D01*
X545115Y49275D01*
X545226Y49049D01*
X545343Y48826D01*
X545465Y48605D01*
X545592Y48388D01*
X545724Y48174D01*
X545861Y47962D01*
X546003Y47754D01*
X546150Y47550D01*
X546151Y47550D02*
X546295Y47397D01*
X546443Y47248D01*
X546595Y47102D01*
X546750Y46960D01*
X546908Y46821D01*
X547070Y46686D01*
X547234Y46555D01*
X547402Y46428D01*
X547572Y46304D01*
X547745Y46185D01*
X547921Y46070D01*
X548100Y45959D01*
X548281Y45852D01*
X548465Y45749D01*
X548650Y45650D01*
X548650Y45651D02*
X548794Y45598D01*
X548939Y45549D01*
X549086Y45503D01*
X549234Y45462D01*
X549382Y45424D01*
X549532Y45389D01*
X549682Y45359D01*
X549833Y45332D01*
X549985Y45309D01*
X550137Y45290D01*
X550290Y45274D01*
X550443Y45262D01*
X550596Y45255D01*
X550750Y45251D01*
X550750Y45249D02*
X550896Y45297D01*
X551040Y45349D01*
X551183Y45404D01*
X551325Y45462D01*
X551465Y45525D01*
X551603Y45590D01*
X551740Y45660D01*
X551875Y45732D01*
X552008Y45808D01*
X552139Y45888D01*
X552268Y45970D01*
X552394Y46056D01*
X552519Y46145D01*
X552642Y46237D01*
X552762Y46332D01*
X552879Y46431D01*
X552994Y46532D01*
X553107Y46636D01*
X553217Y46742D01*
X553324Y46852D01*
X553428Y46964D01*
X553530Y47079D01*
X553628Y47196D01*
X553724Y47316D01*
X553816Y47438D01*
X553906Y47563D01*
X553992Y47689D01*
X554075Y47818D01*
X554154Y47949D01*
X554231Y48082D01*
X554304Y48216D01*
X554374Y48353D01*
X554440Y48491D01*
X554502Y48631D01*
X554562Y48772D01*
X554617Y48915D01*
X554669Y49059D01*
X554717Y49204D01*
X554762Y49351D01*
X554803Y49499D01*
X554840Y49647D01*
X554873Y49797D01*
X554903Y49947D01*
X554929Y50098D01*
X554951Y50250D01*
D14*
X548249Y53050D02*
X548293Y54351D01*
X548360Y55651D01*
X548449Y56950D01*
X548250Y53050D02*
X548279Y52723D01*
X548316Y52398D01*
X548360Y52073D01*
X548413Y51750D01*
X548474Y51428D01*
X548542Y51107D01*
X548618Y50788D01*
X548702Y50471D01*
X548793Y50157D01*
X548892Y49844D01*
X548999Y49534D01*
X549113Y49227D01*
X549234Y48923D01*
X549363Y48621D01*
X549499Y48323D01*
X549642Y48028D01*
X549792Y47737D01*
X549950Y47450D01*
X549950Y47451D02*
X550071Y47571D01*
X550190Y47694D01*
X550305Y47821D01*
X550417Y47950D01*
X550526Y48081D01*
X550631Y48216D01*
X550734Y48352D01*
X550833Y48492D01*
X550928Y48633D01*
X551020Y48777D01*
X551109Y48924D01*
X551194Y49072D01*
X551275Y49222D01*
X551353Y49374D01*
X551426Y49528D01*
X551496Y49684D01*
X551563Y49842D01*
X551625Y50001D01*
X551683Y50162D01*
X551738Y50323D01*
X551788Y50487D01*
X551835Y50651D01*
X551877Y50817D01*
X551916Y50983D01*
X551950Y51150D01*
X551957Y51350D01*
X551960Y51551D01*
X551958Y51752D01*
X551952Y51952D01*
X551941Y52152D01*
X551925Y52353D01*
X551904Y52552D01*
X551879Y52751D01*
X551850Y52950D01*
X553150Y37150D02*
X553224Y37072D01*
X553300Y36996D01*
X553379Y36923D01*
X553460Y36854D01*
X553544Y36787D01*
X553631Y36723D01*
X553719Y36662D01*
X553809Y36604D01*
X553902Y36549D01*
X553996Y36498D01*
X554092Y36449D01*
X554190Y36405D01*
X554289Y36363D01*
X554389Y36326D01*
X554491Y36291D01*
X554594Y36261D01*
X554698Y36233D01*
X554802Y36210D01*
X554908Y36190D01*
X555014Y36174D01*
X555121Y36162D01*
X555228Y36153D01*
X555335Y36148D01*
X555442Y36147D01*
X555550Y36150D01*
X555659Y36170D01*
X555766Y36193D01*
X555873Y36220D01*
X555978Y36251D01*
X556082Y36286D01*
X556186Y36324D01*
X556287Y36366D01*
X556388Y36411D01*
X556486Y36460D01*
X556583Y36512D01*
X556678Y36567D01*
X556771Y36626D01*
X556862Y36688D01*
X556950Y36753D01*
X557037Y36821D01*
X557120Y36892D01*
X557202Y36966D01*
X557281Y37043D01*
X557356Y37122D01*
X557430Y37204D01*
X557500Y37289D01*
X557567Y37376D01*
X557631Y37465D01*
X557692Y37557D01*
X557750Y37650D01*
X557823Y37570D01*
X557899Y37494D01*
X557977Y37420D01*
X558058Y37349D01*
X558142Y37281D01*
X558228Y37216D01*
X558317Y37154D01*
X558407Y37095D01*
X558500Y37040D01*
X558594Y36988D01*
X558691Y36940D01*
X558789Y36895D01*
X558889Y36854D01*
X558990Y36816D01*
X559092Y36782D01*
X559196Y36752D01*
X559300Y36726D01*
X559406Y36703D01*
X559512Y36685D01*
X559619Y36670D01*
X559726Y36659D01*
X559834Y36652D01*
X559942Y36649D01*
X560050Y36650D01*
X560050Y36651D02*
X560149Y36664D01*
X560247Y36682D01*
X560345Y36703D01*
X560442Y36728D01*
X560538Y36756D01*
X560633Y36788D01*
X560726Y36824D01*
X560818Y36863D01*
X560908Y36906D01*
X560997Y36952D01*
X561084Y37001D01*
X561169Y37053D01*
X561252Y37109D01*
X561333Y37168D01*
X561412Y37230D01*
X561488Y37295D01*
X561562Y37362D01*
X561633Y37433D01*
X561701Y37506D01*
X561767Y37581D01*
X561829Y37659D01*
X561889Y37739D01*
X561946Y37822D01*
X561999Y37906D01*
X562049Y37993D01*
X562096Y38081D01*
X562140Y38171D01*
X562180Y38263D01*
X562216Y38356D01*
X562250Y38450D01*
X555350Y33850D02*
X555257Y33921D01*
X555167Y33996D01*
X555079Y34074D01*
X554994Y34154D01*
X554911Y34238D01*
X554832Y34324D01*
X554755Y34413D01*
X554682Y34504D01*
X554611Y34598D01*
X554544Y34694D01*
X554480Y34792D01*
X554419Y34892D01*
X554362Y34994D01*
X554308Y35099D01*
X554257Y35205D01*
X554211Y35312D01*
X554168Y35421D01*
X554128Y35532D01*
X554092Y35643D01*
X554061Y35756D01*
X554032Y35870D01*
X554008Y35985D01*
X553988Y36100D01*
X553971Y36216D01*
X553959Y36333D01*
X553950Y36450D01*
X555550Y36150D02*
X555500Y36060D01*
X555454Y35967D01*
X555411Y35873D01*
X555371Y35777D01*
X555335Y35680D01*
X555303Y35581D01*
X555275Y35481D01*
X555251Y35381D01*
X555230Y35279D01*
X555213Y35177D01*
X555200Y35074D01*
X555191Y34971D01*
X555186Y34867D01*
X555185Y34764D01*
X555188Y34660D01*
X555195Y34557D01*
X555205Y34454D01*
X555220Y34351D01*
X555238Y34249D01*
X555261Y34148D01*
X555287Y34048D01*
X555317Y33949D01*
X555350Y33851D01*
D16*
X559950Y48549D02*
X561239Y49362D01*
X562547Y50144D01*
X563874Y50893D01*
X565219Y51610D01*
X566580Y52294D01*
X567958Y52946D01*
X569351Y53563D01*
X570759Y54147D01*
X572180Y54696D01*
X573614Y55210D01*
X575061Y55690D01*
X576518Y56135D01*
X577986Y56544D01*
X579463Y56917D01*
X580949Y57255D01*
X582443Y57556D01*
X583944Y57821D01*
X585450Y58049D01*
X564550Y42151D02*
X564225Y42449D01*
X563906Y42755D01*
X563596Y43068D01*
X563293Y43389D01*
X562998Y43717D01*
X562711Y44053D01*
X562432Y44395D01*
X562162Y44744D01*
X561900Y45099D01*
X561646Y45460D01*
X561402Y45828D01*
X561167Y46201D01*
X560940Y46580D01*
X560723Y46964D01*
X560516Y47354D01*
X560317Y47748D01*
X560129Y48147D01*
X559950Y48551D01*
X564550Y42150D02*
X564806Y41933D01*
X565067Y41723D01*
X565334Y41519D01*
X565605Y41322D01*
X565880Y41131D01*
X566160Y40947D01*
X566445Y40769D01*
X566734Y40599D01*
X567026Y40435D01*
X567323Y40279D01*
X567623Y40130D01*
X567927Y39988D01*
X568234Y39853D01*
X568544Y39726D01*
X568858Y39606D01*
X569174Y39494D01*
X569492Y39390D01*
X569813Y39293D01*
X570136Y39204D01*
X570462Y39123D01*
X570789Y39049D01*
X571118Y38984D01*
X571448Y38927D01*
X571780Y38877D01*
X572112Y38835D01*
X572446Y38802D01*
X572780Y38777D01*
X573115Y38759D01*
X573450Y38750D01*
X573721Y38771D01*
X573993Y38797D01*
X574263Y38831D01*
X574533Y38871D01*
X574802Y38917D01*
X575069Y38970D01*
X575335Y39029D01*
X575600Y39095D01*
X575863Y39167D01*
X576124Y39245D01*
X576383Y39330D01*
X576640Y39420D01*
X576895Y39517D01*
X577148Y39620D01*
X577398Y39730D01*
X577645Y39845D01*
X577889Y39966D01*
X578130Y40092D01*
X578369Y40225D01*
X578604Y40363D01*
X578835Y40507D01*
X579063Y40657D01*
X579288Y40812D01*
X579508Y40972D01*
X579725Y41137D01*
X579937Y41308D01*
X580146Y41484D01*
X580350Y41665D01*
X580550Y41850D01*
X580844Y42154D01*
X581131Y42465D01*
X581409Y42783D01*
X581680Y43107D01*
X581943Y43438D01*
X582198Y43776D01*
X582445Y44119D01*
X582682Y44469D01*
X582912Y44824D01*
X583132Y45185D01*
X583344Y45551D01*
X583546Y45922D01*
X583739Y46298D01*
X583923Y46679D01*
X584098Y47064D01*
X584263Y47453D01*
X584419Y47846D01*
X584565Y48243D01*
X584701Y48643D01*
X584827Y49047D01*
X584943Y49454D01*
X585049Y49863D01*
X585145Y50274D01*
X585231Y50688D01*
X585307Y51104D01*
X585373Y51522D01*
X585428Y51941D01*
X585473Y52362D01*
X585508Y52783D01*
X585532Y53205D01*
X585546Y53628D01*
X585550Y54050D01*
X585551Y54049D02*
X585576Y54550D01*
X585591Y55050D01*
X585595Y55551D01*
X585588Y56052D01*
X585570Y56552D01*
X585541Y57052D01*
X585501Y57551D01*
X585451Y58050D01*
D14*
X568349Y51950D02*
X568414Y51592D01*
X568488Y51235D01*
X568570Y50880D01*
X568661Y50528D01*
X568760Y50177D01*
X568867Y49829D01*
X568982Y49484D01*
X569106Y49141D01*
X569238Y48802D01*
X569378Y48466D01*
X569525Y48133D01*
X569681Y47804D01*
X569844Y47478D01*
X570016Y47157D01*
X570194Y46839D01*
X570381Y46527D01*
X570574Y46218D01*
X570775Y45914D01*
X570983Y45616D01*
X571198Y45322D01*
X571421Y45033D01*
X571649Y44750D01*
X571650Y44750D02*
X571685Y44916D01*
X571724Y45080D01*
X571768Y45243D01*
X571815Y45406D01*
X571866Y45567D01*
X571921Y45727D01*
X571980Y45885D01*
X572042Y46042D01*
X572108Y46197D01*
X572178Y46351D01*
X572252Y46503D01*
X572329Y46654D01*
X572410Y46802D01*
X572495Y46948D01*
X572583Y47093D01*
X572674Y47235D01*
X572769Y47375D01*
X572867Y47512D01*
X572969Y47647D01*
X573073Y47780D01*
X573181Y47910D01*
X573292Y48038D01*
X573406Y48162D01*
X573523Y48284D01*
X573643Y48403D01*
X573765Y48520D01*
X573891Y48633D01*
X574019Y48743D01*
X574150Y48850D01*
X574149Y48850D02*
X574218Y48580D01*
X574280Y48308D01*
X574336Y48034D01*
X574385Y47759D01*
X574427Y47484D01*
X574463Y47207D01*
X574492Y46929D01*
X574514Y46651D01*
X574530Y46372D01*
X574539Y46093D01*
X574541Y45814D01*
X574536Y45535D01*
X574525Y45256D01*
X574507Y44978D01*
X574483Y44700D01*
X574451Y44422D01*
X574413Y44146D01*
X574369Y43870D01*
X574317Y43596D01*
X574260Y43323D01*
X574195Y43051D01*
X574124Y42781D01*
X574047Y42513D01*
X573963Y42247D01*
X573873Y41983D01*
X573776Y41721D01*
X573673Y41462D01*
X573564Y41205D01*
X573449Y40950D01*
X573450Y40950D02*
X573660Y41189D01*
X573864Y41434D01*
X574062Y41683D01*
X574254Y41938D01*
X574440Y42197D01*
X574619Y42460D01*
X574792Y42728D01*
X574958Y43000D01*
X575117Y43275D01*
X575270Y43555D01*
X575416Y43838D01*
X575555Y44125D01*
X575687Y44415D01*
X575812Y44708D01*
X575930Y45004D01*
X576040Y45303D01*
X576143Y45604D01*
X576239Y45908D01*
X576327Y46214D01*
X576408Y46522D01*
X576482Y46832D01*
X576547Y47144D01*
X576605Y47457D01*
X576656Y47772D01*
X576699Y48087D01*
X576734Y48404D01*
X576761Y48722D01*
X576781Y49039D01*
X576793Y49358D01*
X576797Y49676D01*
X576793Y49995D01*
X576782Y50313D01*
X576763Y50631D01*
X576736Y50949D01*
X576702Y51266D01*
X576659Y51581D01*
X576609Y51896D01*
X576552Y52209D01*
X576487Y52521D01*
X576414Y52831D01*
X576333Y53140D01*
X576246Y53446D01*
X576150Y53750D01*
X575811Y53524D01*
X575477Y53290D01*
X575149Y53048D01*
X574827Y52799D01*
X574511Y52542D01*
X574201Y52278D01*
X573898Y52006D01*
X573601Y51727D01*
X573310Y51442D01*
X573027Y51149D01*
X572750Y50850D01*
X572751Y50850D02*
X572699Y51202D01*
X572657Y51555D01*
X572622Y51909D01*
X572596Y52264D01*
X572579Y52619D01*
X572569Y52975D01*
X572569Y53330D01*
X572577Y53686D01*
X572593Y54041D01*
X572618Y54396D01*
X572651Y54750D01*
D16*
X554750Y28650D02*
X554670Y28086D01*
X554604Y27520D01*
X554552Y26953D01*
X554512Y26384D01*
X554486Y25815D01*
X554473Y25246D01*
X554473Y24676D01*
X554486Y24106D01*
X554513Y23537D01*
X554553Y22969D01*
X554606Y22402D01*
X554672Y21836D01*
X554751Y21272D01*
X554844Y20710D01*
X554950Y20150D01*
X554977Y20296D01*
X555008Y20441D01*
X555043Y20586D01*
X555081Y20730D01*
X555123Y20872D01*
X555168Y21014D01*
X555217Y21154D01*
X555270Y21294D01*
X555325Y21431D01*
X555385Y21568D01*
X555447Y21703D01*
X555513Y21836D01*
X555583Y21968D01*
X555655Y22097D01*
X555731Y22225D01*
X555810Y22351D01*
X555892Y22475D01*
X555977Y22597D01*
X556065Y22717D01*
X556156Y22835D01*
X556250Y22950D01*
X556451Y23750D02*
X556413Y23614D01*
X556379Y23476D01*
X556349Y23337D01*
X556322Y23198D01*
X556300Y23058D01*
X556281Y22917D01*
X556266Y22776D01*
X556255Y22635D01*
X556248Y22493D01*
X556244Y22351D01*
X556245Y22210D01*
X556249Y22068D01*
X556257Y21926D01*
X556269Y21785D01*
X556285Y21644D01*
X556305Y21504D01*
X556329Y21364D01*
X556356Y21225D01*
X556387Y21086D01*
X556422Y20949D01*
X556461Y20812D01*
X556503Y20677D01*
X556549Y20543D01*
X556599Y20410D01*
X556652Y20279D01*
X556709Y20149D01*
X556770Y20020D01*
X556834Y19894D01*
X556901Y19769D01*
X556972Y19646D01*
X557046Y19525D01*
X557123Y19406D01*
X557203Y19289D01*
X557287Y19175D01*
X557374Y19062D01*
X557464Y18953D01*
X557556Y18845D01*
X557652Y18741D01*
X557750Y18638D01*
X557852Y18539D01*
X557955Y18442D01*
X558062Y18349D01*
X558171Y18258D01*
X558282Y18170D01*
X558396Y18085D01*
X558512Y18004D01*
X558630Y17926D01*
X558751Y17850D01*
X558350Y18150D02*
X558330Y18291D01*
X558314Y18432D01*
X558301Y18574D01*
X558292Y18716D01*
X558287Y18859D01*
X558285Y19001D01*
X558287Y19143D01*
X558293Y19286D01*
X558303Y19428D01*
X558316Y19570D01*
X558333Y19711D01*
X558354Y19852D01*
X558378Y19992D01*
X558406Y20132D01*
X558438Y20271D01*
X558473Y20409D01*
X558512Y20546D01*
X558555Y20681D01*
X558601Y20816D01*
X558650Y20950D01*
X558672Y20865D01*
X558697Y20781D01*
X558726Y20698D01*
X558758Y20617D01*
X558793Y20537D01*
X558832Y20458D01*
X558874Y20382D01*
X558919Y20307D01*
X558967Y20234D01*
X559018Y20163D01*
X559072Y20094D01*
X559129Y20027D01*
X559189Y19963D01*
X559251Y19902D01*
X559316Y19843D01*
X559383Y19787D01*
X559452Y19733D01*
X559524Y19683D01*
X559597Y19635D01*
X559673Y19591D01*
X559750Y19550D01*
X556850Y19850D02*
X556833Y19004D01*
X556836Y18158D01*
X556859Y17312D01*
X556901Y16467D01*
X556963Y15623D01*
X557044Y14780D01*
X557145Y13940D01*
X557266Y13103D01*
X557406Y12268D01*
X557566Y11437D01*
X557744Y10610D01*
X557942Y9787D01*
X558159Y8969D01*
X558395Y8157D01*
X558650Y7350D01*
X558649Y7350D02*
X558719Y7233D01*
X558791Y7120D01*
X558867Y7008D01*
X558946Y6898D01*
X559028Y6791D01*
X559114Y6686D01*
X559202Y6584D01*
X559293Y6484D01*
X559387Y6387D01*
X559484Y6293D01*
X559584Y6202D01*
X559686Y6114D01*
X559791Y6028D01*
X559898Y5946D01*
X560008Y5867D01*
X560120Y5791D01*
X560233Y5719D01*
X560350Y5649D01*
X560350Y5650D02*
X561225Y5622D01*
X562100Y5612D01*
X562975Y5622D01*
X563850Y5650D01*
X563851Y5650D02*
X563903Y5716D01*
X563953Y5784D01*
X563999Y5855D01*
X564042Y5927D01*
X564082Y6001D01*
X564118Y6078D01*
X564151Y6155D01*
X564180Y6235D01*
X564206Y6315D01*
X564227Y6397D01*
X564245Y6479D01*
X564260Y6562D01*
X564270Y6646D01*
X564276Y6730D01*
X564279Y6814D01*
X564278Y6899D01*
X564273Y6983D01*
X564264Y7067D01*
X564251Y7150D01*
X564250Y7150D02*
X563998Y8029D01*
X563767Y8914D01*
X563557Y9804D01*
X563368Y10698D01*
X563201Y11597D01*
X563055Y12500D01*
X562930Y13405D01*
X562828Y14314D01*
X562747Y15225D01*
X562687Y16137D01*
X562650Y17050D01*
X562702Y16478D01*
X562768Y15908D01*
X562848Y15340D01*
X562941Y14774D01*
X563048Y14210D01*
X563169Y13649D01*
X563304Y13091D01*
X563452Y12536D01*
X563613Y11986D01*
X563788Y11439D01*
X563975Y10897D01*
X564176Y10359D01*
X564390Y9827D01*
X564617Y9299D01*
X564856Y8778D01*
X565108Y8262D01*
X565373Y7753D01*
X565650Y7250D01*
X565735Y7135D01*
X565823Y7023D01*
X565914Y6913D01*
X566008Y6805D01*
X566104Y6700D01*
X566203Y6597D01*
X566305Y6497D01*
X566409Y6399D01*
X566516Y6304D01*
X566625Y6212D01*
X566737Y6123D01*
X566850Y6037D01*
X566966Y5953D01*
X567084Y5873D01*
X567204Y5795D01*
X567326Y5721D01*
X567450Y5650D01*
X567529Y5615D01*
X567610Y5582D01*
X567692Y5553D01*
X567775Y5527D01*
X567859Y5505D01*
X567944Y5486D01*
X568029Y5470D01*
X568116Y5458D01*
X568202Y5450D01*
X568289Y5445D01*
X568376Y5443D01*
X568463Y5445D01*
X568550Y5450D01*
X568660Y5466D01*
X568770Y5486D01*
X568879Y5510D01*
X568987Y5538D01*
X569094Y5570D01*
X569200Y5606D01*
X569304Y5645D01*
X569407Y5688D01*
X569509Y5735D01*
X569608Y5785D01*
X569706Y5839D01*
X569802Y5896D01*
X569895Y5957D01*
X569987Y6021D01*
X570076Y6088D01*
X570163Y6158D01*
X570247Y6232D01*
X570328Y6308D01*
X570407Y6387D01*
X570483Y6469D01*
X570555Y6554D01*
X570625Y6641D01*
X570692Y6730D01*
X570755Y6822D01*
X570815Y6916D01*
X570872Y7012D01*
X570925Y7110D01*
X570974Y7210D01*
X571020Y7312D01*
X571063Y7415D01*
X571101Y7520D01*
X571136Y7626D01*
X571167Y7733D01*
X571195Y7841D01*
X571218Y7950D01*
X571237Y8060D01*
X571253Y8171D01*
X571264Y8282D01*
X571272Y8393D01*
X571276Y8505D01*
X571275Y8616D01*
X571271Y8728D01*
X571263Y8839D01*
X571250Y8950D01*
X571524Y8731D01*
X571802Y8519D01*
X572087Y8313D01*
X572375Y8114D01*
X572669Y7923D01*
X572967Y7738D01*
X573270Y7561D01*
X573576Y7391D01*
X573887Y7228D01*
X574201Y7073D01*
X574519Y6926D01*
X574841Y6786D01*
X575166Y6654D01*
X575494Y6530D01*
X575825Y6414D01*
X576158Y6306D01*
X576494Y6206D01*
X576832Y6114D01*
X577173Y6030D01*
X577515Y5955D01*
X577859Y5887D01*
X578205Y5828D01*
X578552Y5778D01*
X578900Y5735D01*
X579249Y5701D01*
X579598Y5676D01*
X579949Y5659D01*
X580299Y5650D01*
X580650Y5650D01*
X580966Y5645D01*
X581283Y5648D01*
X581600Y5658D01*
X581916Y5676D01*
X582231Y5701D01*
X582546Y5734D01*
X582861Y5774D01*
X583174Y5821D01*
X583486Y5877D01*
X583796Y5939D01*
X584105Y6009D01*
X584412Y6086D01*
X584717Y6171D01*
X585020Y6262D01*
X585321Y6361D01*
X585620Y6467D01*
X585915Y6581D01*
X586208Y6701D01*
X586499Y6828D01*
X586785Y6962D01*
X587069Y7102D01*
X587349Y7250D01*
X587350Y7250D02*
X587226Y8207D01*
X587079Y9161D01*
X586909Y10111D01*
X586717Y11057D01*
X586502Y11998D01*
X586264Y12933D01*
X586004Y13863D01*
X585721Y14786D01*
X585417Y15702D01*
X585090Y16610D01*
X584742Y17511D01*
X584373Y18402D01*
X583982Y19285D01*
X583570Y20158D01*
X583137Y21021D01*
X582684Y21873D01*
X582210Y22714D01*
X581717Y23543D01*
X581203Y24361D01*
X580670Y25165D01*
X580118Y25957D01*
X579547Y26735D01*
X578958Y27500D01*
X578350Y28250D01*
X590650Y17350D02*
X590416Y17026D01*
X590188Y16696D01*
X589969Y16361D01*
X589758Y16020D01*
X589556Y15675D01*
X589361Y15325D01*
X589175Y14971D01*
X588998Y14612D01*
X588829Y14248D01*
X588668Y13881D01*
X588517Y13511D01*
X588375Y13136D01*
X588241Y12759D01*
X588117Y12378D01*
X588002Y11995D01*
X587896Y11609D01*
X587799Y11220D01*
X587711Y10829D01*
X587633Y10437D01*
X587565Y10042D01*
X587506Y9646D01*
X587456Y9249D01*
X587416Y8850D01*
X587385Y8451D01*
X587364Y8051D01*
X587352Y7651D01*
X587350Y7250D01*
D14*
X590650Y17350D02*
X590555Y17402D01*
X590462Y17458D01*
X590371Y17517D01*
X590282Y17579D01*
X590196Y17644D01*
X590111Y17712D01*
X590029Y17783D01*
X589950Y17857D01*
X589873Y17934D01*
X589799Y18013D01*
X589728Y18095D01*
X589660Y18179D01*
X589594Y18265D01*
X589532Y18354D01*
X589473Y18445D01*
X589417Y18538D01*
X589364Y18633D01*
X589315Y18729D01*
X589269Y18827D01*
X589227Y18927D01*
X589188Y19028D01*
X589152Y19131D01*
X589120Y19234D01*
X589092Y19339D01*
X589068Y19445D01*
X589047Y19551D01*
X589030Y19658D01*
X589016Y19766D01*
X589007Y19874D01*
X589001Y19982D01*
X588999Y20090D01*
X589001Y20199D01*
X589006Y20307D01*
X589016Y20415D01*
X589029Y20523D01*
X589046Y20630D01*
X589066Y20736D01*
X589090Y20842D01*
X589118Y20947D01*
X589150Y21050D01*
X590650Y17350D02*
X590746Y17297D01*
X590845Y17246D01*
X590944Y17200D01*
X591046Y17157D01*
X591149Y17117D01*
X591253Y17081D01*
X591358Y17048D01*
X591465Y17020D01*
X591572Y16995D01*
X591680Y16974D01*
X591789Y16956D01*
X591899Y16943D01*
X592009Y16933D01*
X592119Y16927D01*
X592229Y16925D01*
X592339Y16927D01*
X592449Y16932D01*
X592559Y16942D01*
X592669Y16955D01*
X592778Y16972D01*
X592886Y16993D01*
X592993Y17018D01*
X593100Y17046D01*
X593205Y17078D01*
X593310Y17114D01*
X593413Y17154D01*
X593514Y17196D01*
X593614Y17243D01*
X593712Y17293D01*
X593809Y17346D01*
X593904Y17403D01*
X593996Y17463D01*
X594087Y17526D01*
X594175Y17592D01*
X594260Y17661D01*
X594344Y17734D01*
X594424Y17809D01*
X594503Y17887D01*
X594578Y17967D01*
X594650Y18050D01*
X589150Y21050D02*
X589193Y21247D01*
X589239Y21443D01*
X589291Y21638D01*
X589347Y21832D01*
X589407Y22024D01*
X589472Y22215D01*
X589542Y22404D01*
X589615Y22592D01*
X589693Y22778D01*
X589776Y22962D01*
X589862Y23144D01*
X589953Y23324D01*
X590048Y23501D01*
X590147Y23677D01*
X590250Y23850D01*
X596450Y21450D02*
X596368Y21206D01*
X596280Y20963D01*
X596187Y20723D01*
X596088Y20485D01*
X595984Y20249D01*
X595874Y20016D01*
X595758Y19785D01*
X595638Y19558D01*
X595512Y19333D01*
X595381Y19111D01*
X595245Y18892D01*
X595103Y18676D01*
X594957Y18464D01*
X594806Y18255D01*
X594650Y18050D01*
X596451Y21450D02*
X594881Y22000D01*
X593324Y22583D01*
X591781Y23200D01*
X590251Y23850D01*
X589850Y22951D02*
X590862Y22517D01*
X591883Y22106D01*
X592912Y21717D01*
X593950Y21351D01*
X597350Y22750D02*
X595553Y23366D01*
X593770Y24022D01*
X592002Y24717D01*
X590250Y25450D01*
X589650Y24950D02*
X589627Y24900D01*
X589608Y24849D01*
X589593Y24797D01*
X589582Y24744D01*
X589574Y24690D01*
X589570Y24636D01*
X589571Y24582D01*
X589574Y24527D01*
X589582Y24474D01*
X589594Y24420D01*
X589609Y24368D01*
X589628Y24317D01*
X589651Y24268D01*
X589677Y24220D01*
X589706Y24174D01*
X589739Y24131D01*
X589774Y24090D01*
X589813Y24051D01*
X589854Y24015D01*
X589897Y23983D01*
X589943Y23953D01*
X589991Y23927D01*
X590040Y23904D01*
X590091Y23885D01*
X590143Y23869D01*
X590196Y23858D01*
X590250Y23850D01*
X589650Y24950D02*
X589664Y24997D01*
X589682Y25043D01*
X589703Y25087D01*
X589727Y25129D01*
X589755Y25170D01*
X589785Y25209D01*
X589817Y25245D01*
X589853Y25279D01*
X589890Y25310D01*
X589930Y25339D01*
X589972Y25365D01*
X590015Y25387D01*
X590060Y25407D01*
X590106Y25423D01*
X590153Y25435D01*
X590201Y25445D01*
X590250Y25451D01*
X597350Y22750D02*
X597380Y22699D01*
X597407Y22646D01*
X597430Y22591D01*
X597450Y22535D01*
X597467Y22478D01*
X597479Y22420D01*
X597489Y22361D01*
X597494Y22302D01*
X597496Y22243D01*
X597494Y22183D01*
X597489Y22124D01*
X597479Y22065D01*
X597466Y22007D01*
X597450Y21950D01*
X597420Y21898D01*
X597387Y21849D01*
X597351Y21801D01*
X597313Y21756D01*
X597271Y21713D01*
X597227Y21673D01*
X597181Y21636D01*
X597132Y21602D01*
X597081Y21570D01*
X597029Y21542D01*
X596975Y21517D01*
X596920Y21495D01*
X596863Y21477D01*
X596805Y21462D01*
X596747Y21451D01*
X596688Y21444D01*
X596628Y21440D01*
X596569Y21439D01*
X596509Y21443D01*
X596450Y21450D01*
X593850Y27650D02*
X593796Y27664D01*
X593740Y27675D01*
X593685Y27682D01*
X593629Y27686D01*
X593573Y27685D01*
X593517Y27681D01*
X593461Y27673D01*
X593406Y27661D01*
X593352Y27646D01*
X593299Y27627D01*
X593247Y27605D01*
X593198Y27579D01*
X593150Y27550D01*
X593850Y27650D02*
X593886Y27609D01*
X593919Y27566D01*
X593949Y27521D01*
X593975Y27473D01*
X593998Y27423D01*
X594017Y27373D01*
X594032Y27320D01*
X594043Y27267D01*
X594051Y27213D01*
X594055Y27159D01*
X594054Y27105D01*
X594050Y27050D01*
X593150Y27550D02*
X592974Y27212D01*
X592805Y26870D01*
X592643Y26525D01*
X592489Y26176D01*
X592343Y25824D01*
X592204Y25469D01*
X592073Y25111D01*
X591950Y24750D01*
X592950Y24350D02*
X593062Y24697D01*
X593181Y25042D01*
X593307Y25384D01*
X593441Y25724D01*
X593583Y26060D01*
X593731Y26393D01*
X593887Y26723D01*
X594050Y27050D01*
X595750Y26350D02*
X595600Y26035D01*
X595458Y25717D01*
X595322Y25396D01*
X595193Y25072D01*
X595072Y24745D01*
X594957Y24416D01*
X594850Y24084D01*
X594750Y23750D01*
X595650Y23350D02*
X595751Y23672D01*
X595859Y23991D01*
X595974Y24308D01*
X596096Y24622D01*
X596224Y24933D01*
X596360Y25242D01*
X596502Y25548D01*
X596650Y25850D01*
X596450Y26650D02*
X596408Y26665D01*
X596365Y26677D01*
X596321Y26684D01*
X596277Y26688D01*
X596232Y26689D01*
X596188Y26685D01*
X596144Y26678D01*
X596101Y26668D01*
X596058Y26654D01*
X596017Y26636D01*
X595978Y26615D01*
X595941Y26591D01*
X595905Y26564D01*
X595872Y26534D01*
X595842Y26502D01*
X595814Y26467D01*
X595789Y26430D01*
X595768Y26391D01*
X595750Y26350D01*
X596450Y26650D02*
X596488Y26615D01*
X596523Y26577D01*
X596556Y26537D01*
X596585Y26494D01*
X596611Y26450D01*
X596634Y26403D01*
X596654Y26355D01*
X596670Y26306D01*
X596682Y26256D01*
X596691Y26205D01*
X596696Y26154D01*
X596698Y26102D01*
X596696Y26051D01*
X596690Y25999D01*
X596680Y25949D01*
X596667Y25899D01*
X596650Y25850D01*
D10*
X977929Y517253D02*
X977929Y524625D01*
X981615Y524625D01*
X982843Y523397D01*
X982843Y520939D01*
X981615Y519710D01*
X977929Y519710D01*
X980386Y519710D02*
X982843Y517253D01*
X989099Y517253D02*
X989099Y524625D01*
X985413Y520939D01*
X990328Y520939D01*
X992897Y517253D02*
X997812Y517253D01*
X992897Y517253D02*
X997812Y522168D01*
X997812Y523397D01*
X996583Y524625D01*
X994126Y524625D01*
X992897Y523397D01*
X466619Y255381D02*
X459247Y255381D01*
X459247Y259067D01*
X460475Y260296D01*
X462933Y260296D01*
X464162Y259067D01*
X464162Y255381D01*
X464162Y257838D02*
X466619Y260296D01*
X466619Y266551D02*
X459247Y266551D01*
X462933Y262865D01*
X462933Y267780D01*
X466619Y274035D02*
X459247Y274035D01*
X462933Y270349D01*
X462933Y275264D01*
D13*
X474730Y292730D02*
X476000Y295270D01*
X474730Y292730D02*
X477270Y292730D01*
X476000Y295270D01*
X470920Y295270D02*
X470920Y292730D01*
X481080Y292730D02*
X481080Y295270D01*
D10*
X477162Y311381D02*
X472247Y311381D01*
X477162Y311381D02*
X479619Y313838D01*
X477162Y316296D01*
X472247Y316296D01*
X472247Y318865D02*
X479619Y318865D01*
X479619Y322551D01*
X478390Y323780D01*
X473475Y323780D01*
X472247Y322551D01*
X472247Y318865D01*
X473475Y326349D02*
X472247Y327578D01*
X472247Y330035D01*
X473475Y331264D01*
X474704Y331264D01*
X475933Y330035D01*
X475933Y328807D01*
X475933Y330035D02*
X477162Y331264D01*
X478390Y331264D01*
X479619Y330035D01*
X479619Y327578D01*
X478390Y326349D01*
X821067Y118753D02*
X822296Y117525D01*
X821067Y118753D02*
X818610Y118753D01*
X817381Y117525D01*
X817381Y112610D01*
X818610Y111381D01*
X821067Y111381D01*
X822296Y112610D01*
X824865Y118753D02*
X829780Y118753D01*
X829780Y117525D01*
X824865Y112610D01*
X824865Y111381D01*
X832349Y116296D02*
X834807Y118753D01*
X834807Y111381D01*
X837264Y111381D02*
X832349Y111381D01*
D12*
X1087000Y560000D03*
D13*
X1085500Y554500D02*
X1088500Y554500D01*
X1088500Y551500D01*
X1088500Y506500D02*
X1088500Y503500D01*
X1085500Y503500D01*
X1040500Y503500D02*
X1037500Y503500D01*
X1037500Y506500D01*
X1037500Y551500D02*
X1037500Y554500D01*
X1040500Y554500D01*
D10*
X1031838Y561381D02*
X1029381Y561381D01*
X1030610Y561381D02*
X1030610Y568753D01*
X1031838Y568753D02*
X1029381Y568753D01*
X1038057Y568753D02*
X1039285Y567525D01*
X1038057Y568753D02*
X1035599Y568753D01*
X1034370Y567525D01*
X1034370Y562610D01*
X1035599Y561381D01*
X1038057Y561381D01*
X1039285Y562610D01*
X1041855Y567525D02*
X1043083Y568753D01*
X1045541Y568753D01*
X1046769Y567525D01*
X1046769Y566296D01*
X1045541Y565067D01*
X1046769Y563838D01*
X1046769Y562610D01*
X1045541Y561381D01*
X1043083Y561381D01*
X1041855Y562610D01*
X1041855Y563838D01*
X1043083Y565067D01*
X1041855Y566296D01*
X1041855Y567525D01*
X1043083Y565067D02*
X1045541Y565067D01*
X926381Y118753D02*
X926381Y111381D01*
X926381Y118753D02*
X930067Y118753D01*
X931296Y117525D01*
X931296Y115067D01*
X930067Y113838D01*
X926381Y113838D01*
X928838Y113838D02*
X931296Y111381D01*
X937551Y111381D02*
X937551Y118753D01*
X933865Y115067D01*
X938780Y115067D01*
X941349Y117525D02*
X942578Y118753D01*
X945035Y118753D01*
X946264Y117525D01*
X946264Y116296D01*
X945035Y115067D01*
X946264Y113838D01*
X946264Y112610D01*
X945035Y111381D01*
X942578Y111381D01*
X941349Y112610D01*
X941349Y113838D01*
X942578Y115067D01*
X941349Y116296D01*
X941349Y117525D01*
X942578Y115067D02*
X945035Y115067D01*
X976375Y397929D02*
X983747Y397929D01*
X976375Y397929D02*
X976375Y401615D01*
X977603Y402843D01*
X980061Y402843D01*
X981290Y401615D01*
X981290Y397929D01*
X981290Y400386D02*
X983747Y402843D01*
X983747Y409099D02*
X976375Y409099D01*
X980061Y405413D01*
X980061Y410328D01*
X982518Y412897D02*
X983747Y414126D01*
X983747Y416583D01*
X982518Y417812D01*
X977603Y417812D01*
X976375Y416583D01*
X976375Y414126D01*
X977603Y412897D01*
X978832Y412897D01*
X980061Y414126D01*
X980061Y417812D01*
D13*
X85250Y361250D02*
X82250Y361250D01*
X85250Y361250D02*
X85250Y358250D01*
X85250Y271250D02*
X85250Y268250D01*
X82250Y268250D01*
X-15250Y358250D02*
X-15250Y361250D01*
X-12250Y361250D01*
X-15250Y271250D02*
X-15250Y268250D01*
X-12250Y268250D01*
D10*
X28381Y257753D02*
X33296Y250381D01*
X28381Y250381D02*
X33296Y257753D01*
X35865Y255296D02*
X38323Y257753D01*
X38323Y250381D01*
X40780Y250381D02*
X35865Y250381D01*
X928381Y233753D02*
X928381Y226381D01*
X928381Y233753D02*
X932067Y233753D01*
X933296Y232525D01*
X933296Y230067D01*
X932067Y228838D01*
X928381Y228838D01*
X930838Y228838D02*
X933296Y226381D01*
X935865Y233753D02*
X940780Y233753D01*
X935865Y233753D02*
X935865Y230067D01*
X938323Y231296D01*
X939551Y231296D01*
X940780Y230067D01*
X940780Y227610D01*
X939551Y226381D01*
X937094Y226381D01*
X935865Y227610D01*
X943349Y232525D02*
X944578Y233753D01*
X947035Y233753D01*
X948264Y232525D01*
X948264Y231296D01*
X947035Y230067D01*
X945807Y230067D01*
X947035Y230067D02*
X948264Y228838D01*
X948264Y227610D01*
X947035Y226381D01*
X944578Y226381D01*
X943349Y227610D01*
X964381Y226381D02*
X964381Y233753D01*
X968067Y233753D01*
X969296Y232525D01*
X969296Y230067D01*
X968067Y228838D01*
X964381Y228838D01*
X966838Y228838D02*
X969296Y226381D01*
X971865Y233753D02*
X976780Y233753D01*
X971865Y233753D02*
X971865Y230067D01*
X974323Y231296D01*
X975551Y231296D01*
X976780Y230067D01*
X976780Y227610D01*
X975551Y226381D01*
X973094Y226381D01*
X971865Y227610D01*
X983035Y226381D02*
X983035Y233753D01*
X979349Y230067D01*
X984264Y230067D01*
X998381Y226381D02*
X998381Y233753D01*
X1002067Y233753D01*
X1003296Y232525D01*
X1003296Y230067D01*
X1002067Y228838D01*
X998381Y228838D01*
X1000838Y228838D02*
X1003296Y226381D01*
X1005865Y233753D02*
X1010780Y233753D01*
X1005865Y233753D02*
X1005865Y230067D01*
X1008323Y231296D01*
X1009551Y231296D01*
X1010780Y230067D01*
X1010780Y227610D01*
X1009551Y226381D01*
X1007094Y226381D01*
X1005865Y227610D01*
X1013349Y233753D02*
X1018264Y233753D01*
X1013349Y233753D02*
X1013349Y230067D01*
X1015807Y231296D01*
X1017035Y231296D01*
X1018264Y230067D01*
X1018264Y227610D01*
X1017035Y226381D01*
X1014578Y226381D01*
X1013349Y227610D01*
X732296Y323525D02*
X731067Y324753D01*
X728610Y324753D01*
X727381Y323525D01*
X727381Y318610D01*
X728610Y317381D01*
X731067Y317381D01*
X732296Y318610D01*
X734865Y324753D02*
X739780Y324753D01*
X739780Y323525D01*
X734865Y318610D01*
X734865Y317381D01*
X742349Y323525D02*
X743578Y324753D01*
X746035Y324753D01*
X747264Y323525D01*
X747264Y322296D01*
X746035Y321067D01*
X744807Y321067D01*
X746035Y321067D02*
X747264Y319838D01*
X747264Y318610D01*
X746035Y317381D01*
X743578Y317381D01*
X742349Y318610D01*
D12*
X1180500Y116000D03*
D13*
X1176000Y112500D02*
X1164000Y112500D01*
X1164000Y85500D02*
X1176000Y85500D01*
D10*
X1194347Y85139D02*
X1194347Y87597D01*
X1194347Y86368D02*
X1186975Y86368D01*
X1186975Y85139D02*
X1186975Y87597D01*
X1186975Y93815D02*
X1188203Y95043D01*
X1186975Y93815D02*
X1186975Y91357D01*
X1188203Y90129D01*
X1193118Y90129D01*
X1194347Y91357D01*
X1194347Y93815D01*
X1193118Y95043D01*
X1189432Y97613D02*
X1186975Y100070D01*
X1194347Y100070D01*
X1194347Y97613D02*
X1194347Y102528D01*
X1194347Y105097D02*
X1194347Y110012D01*
X1194347Y105097D02*
X1189432Y110012D01*
X1188203Y110012D01*
X1186975Y108783D01*
X1186975Y106326D01*
X1188203Y105097D01*
X1134796Y86025D02*
X1133567Y87253D01*
X1131110Y87253D01*
X1129881Y86025D01*
X1129881Y81110D01*
X1131110Y79881D01*
X1133567Y79881D01*
X1134796Y81110D01*
X1137365Y87253D02*
X1142280Y87253D01*
X1142280Y86025D01*
X1137365Y81110D01*
X1137365Y79881D01*
X1148535Y79881D02*
X1148535Y87253D01*
X1144849Y83567D01*
X1149764Y83567D01*
X732296Y258525D02*
X731067Y259753D01*
X728610Y259753D01*
X727381Y258525D01*
X727381Y253610D01*
X728610Y252381D01*
X731067Y252381D01*
X732296Y253610D01*
X734865Y259753D02*
X739780Y259753D01*
X739780Y258525D01*
X734865Y253610D01*
X734865Y252381D01*
X744807Y258525D02*
X747264Y259753D01*
X744807Y258525D02*
X742349Y256067D01*
X742349Y253610D01*
X743578Y252381D01*
X746035Y252381D01*
X747264Y253610D01*
X747264Y254838D01*
X746035Y256067D01*
X742349Y256067D01*
X945247Y364067D02*
X946475Y365296D01*
X945247Y364067D02*
X945247Y361610D01*
X946475Y360381D01*
X951390Y360381D01*
X952619Y361610D01*
X952619Y364067D01*
X951390Y365296D01*
X945247Y367865D02*
X945247Y372780D01*
X946475Y372780D01*
X951390Y367865D01*
X952619Y367865D01*
X945247Y375349D02*
X945247Y380264D01*
X946475Y380264D01*
X951390Y375349D01*
X952619Y375349D01*
X324929Y134625D02*
X324929Y129710D01*
X327386Y127253D01*
X329843Y129710D01*
X329843Y134625D01*
X332413Y134625D02*
X332413Y127253D01*
X336099Y127253D01*
X337328Y128482D01*
X337328Y133397D01*
X336099Y134625D01*
X332413Y134625D01*
X339897Y127253D02*
X344812Y127253D01*
X339897Y127253D02*
X344812Y132168D01*
X344812Y133397D01*
X343583Y134625D01*
X341126Y134625D01*
X339897Y133397D01*
X329099Y120625D02*
X330328Y119397D01*
X329099Y120625D02*
X326641Y120625D01*
X325413Y119397D01*
X325413Y114482D01*
X326641Y113253D01*
X329099Y113253D01*
X330328Y114482D01*
X332897Y119397D02*
X334126Y120625D01*
X336583Y120625D01*
X337812Y119397D01*
X337812Y118168D01*
X336583Y116939D01*
X337812Y115710D01*
X337812Y114482D01*
X336583Y113253D01*
X334126Y113253D01*
X332897Y114482D01*
X332897Y115710D01*
X334126Y116939D01*
X332897Y118168D01*
X332897Y119397D01*
X334126Y116939D02*
X336583Y116939D01*
D13*
X1068500Y91500D02*
X1068500Y87500D01*
X1068500Y91500D02*
X1072500Y91500D01*
X1068500Y62500D02*
X1068500Y58500D01*
X1072500Y58500D01*
X1101500Y58500D02*
X1101500Y62500D01*
X1101500Y58500D02*
X1097500Y58500D01*
D12*
X1099500Y96000D03*
D13*
X1101500Y91500D02*
X1101500Y88000D01*
X1101500Y91500D02*
X1097500Y91500D01*
D10*
X1044397Y95253D02*
X1041939Y95253D01*
X1043168Y95253D02*
X1043168Y102625D01*
X1041939Y102625D02*
X1044397Y102625D01*
X1050615Y102625D02*
X1051843Y101397D01*
X1050615Y102625D02*
X1048157Y102625D01*
X1046929Y101397D01*
X1046929Y96482D01*
X1048157Y95253D01*
X1050615Y95253D01*
X1051843Y96482D01*
X1054413Y100168D02*
X1056870Y102625D01*
X1056870Y95253D01*
X1054413Y95253D02*
X1059328Y95253D01*
X1061897Y96482D02*
X1061897Y101397D01*
X1063126Y102625D01*
X1065583Y102625D01*
X1066812Y101397D01*
X1066812Y96482D01*
X1065583Y95253D01*
X1063126Y95253D01*
X1061897Y96482D01*
X1066812Y101397D01*
X1013843Y70397D02*
X1012615Y71625D01*
X1010157Y71625D01*
X1008929Y70397D01*
X1008929Y65482D01*
X1010157Y64253D01*
X1012615Y64253D01*
X1013843Y65482D01*
X1016413Y64253D02*
X1021328Y64253D01*
X1016413Y64253D02*
X1021328Y69168D01*
X1021328Y70397D01*
X1020099Y71625D01*
X1017641Y71625D01*
X1016413Y70397D01*
X1026354Y70397D02*
X1028812Y71625D01*
X1026354Y70397D02*
X1023897Y67939D01*
X1023897Y65482D01*
X1025126Y64253D01*
X1027583Y64253D01*
X1028812Y65482D01*
X1028812Y66710D01*
X1027583Y67939D01*
X1023897Y67939D01*
D13*
X943500Y502500D02*
X943500Y506500D01*
X947500Y506500D01*
X987500Y506500D02*
X991500Y506500D01*
X991500Y502500D01*
X947500Y469500D02*
X943500Y469500D01*
X943500Y473500D01*
X991500Y473500D02*
X991500Y469500D01*
X987500Y469500D01*
D12*
X945500Y465000D03*
D10*
X931375Y492413D02*
X938747Y497328D01*
X938747Y492413D02*
X931375Y497328D01*
X931375Y499897D02*
X931375Y504812D01*
X931375Y499897D02*
X935061Y499897D01*
X933832Y502354D01*
X933832Y503583D01*
X935061Y504812D01*
X937518Y504812D01*
X938747Y503583D01*
X938747Y501126D01*
X937518Y499897D01*
X977929Y529253D02*
X977929Y536625D01*
X981615Y536625D01*
X982843Y535397D01*
X982843Y532939D01*
X981615Y531710D01*
X977929Y531710D01*
X980386Y531710D02*
X982843Y529253D01*
X985413Y534168D02*
X987870Y536625D01*
X987870Y529253D01*
X985413Y529253D02*
X990328Y529253D01*
X992897Y536625D02*
X997812Y536625D01*
X997812Y535397D01*
X992897Y530482D01*
X992897Y529253D01*
D12*
X697000Y330000D03*
D13*
X692000Y332000D02*
X688000Y332000D01*
X692000Y332000D02*
X692000Y328000D01*
X692000Y252000D02*
X692000Y248000D01*
X688000Y248000D01*
X608000Y248000D02*
X608000Y252000D01*
X608000Y248000D02*
X612000Y248000D01*
X608000Y328000D02*
X608000Y332000D01*
X612000Y332000D01*
D10*
X611838Y336381D02*
X609381Y336381D01*
X610610Y336381D02*
X610610Y343753D01*
X611838Y343753D02*
X609381Y343753D01*
X618057Y343753D02*
X619285Y342525D01*
X618057Y343753D02*
X615599Y343753D01*
X614370Y342525D01*
X614370Y337610D01*
X615599Y336381D01*
X618057Y336381D01*
X619285Y337610D01*
X625541Y336381D02*
X625541Y343753D01*
X621855Y340067D01*
X626769Y340067D01*
D12*
X910000Y173000D03*
D13*
X912000Y178000D02*
X912000Y182000D01*
X912000Y178000D02*
X908000Y178000D01*
X772000Y178000D02*
X768000Y178000D01*
X768000Y182000D01*
X768000Y322000D02*
X772000Y322000D01*
X768000Y322000D02*
X768000Y318000D01*
X908000Y322000D02*
X912000Y322000D01*
X912000Y318000D01*
D10*
X876881Y163253D02*
X874423Y163253D01*
X875652Y163253D02*
X875652Y170625D01*
X874423Y170625D02*
X876881Y170625D01*
X883099Y170625D02*
X884328Y169397D01*
X883099Y170625D02*
X880641Y170625D01*
X879413Y169397D01*
X879413Y164482D01*
X880641Y163253D01*
X883099Y163253D01*
X884328Y164482D01*
X886897Y168168D02*
X889354Y170625D01*
X889354Y163253D01*
X886897Y163253D02*
X891812Y163253D01*
D12*
X379000Y116000D03*
D13*
X384000Y114000D02*
X388000Y114000D01*
X384000Y114000D02*
X384000Y118000D01*
X384000Y242000D02*
X384000Y246000D01*
X388000Y246000D01*
X516000Y246000D02*
X516000Y242000D01*
X516000Y246000D02*
X512000Y246000D01*
X516000Y118000D02*
X516000Y114000D01*
X512000Y114000D01*
D10*
X510838Y101381D02*
X508381Y101381D01*
X509610Y101381D02*
X509610Y108753D01*
X510838Y108753D02*
X508381Y108753D01*
X517057Y108753D02*
X518285Y107525D01*
X517057Y108753D02*
X514599Y108753D01*
X513370Y107525D01*
X513370Y102610D01*
X514599Y101381D01*
X517057Y101381D01*
X518285Y102610D01*
X520855Y101381D02*
X525769Y101381D01*
X520855Y101381D02*
X525769Y106296D01*
X525769Y107525D01*
X524541Y108753D01*
X522083Y108753D01*
X520855Y107525D01*
D13*
X1036000Y478000D02*
X1040000Y478000D01*
X1036000Y478000D02*
X1036000Y474000D01*
X1086000Y478000D02*
X1090000Y478000D01*
X1090000Y474000D01*
X1040000Y414000D02*
X1036000Y414000D01*
X1036000Y418000D01*
X1086000Y414000D02*
X1090000Y414000D01*
X1090000Y418000D01*
D12*
X1038000Y409000D03*
D10*
X1035838Y483381D02*
X1033381Y483381D01*
X1034610Y483381D02*
X1034610Y490753D01*
X1035838Y490753D02*
X1033381Y490753D01*
X1042057Y490753D02*
X1043285Y489525D01*
X1042057Y490753D02*
X1039599Y490753D01*
X1038370Y489525D01*
X1038370Y484610D01*
X1039599Y483381D01*
X1042057Y483381D01*
X1043285Y484610D01*
X1045855Y488296D02*
X1048312Y490753D01*
X1048312Y483381D01*
X1045855Y483381D02*
X1050769Y483381D01*
X1053339Y489525D02*
X1054567Y490753D01*
X1057025Y490753D01*
X1058254Y489525D01*
X1058254Y488296D01*
X1057025Y487067D01*
X1055796Y487067D01*
X1057025Y487067D02*
X1058254Y485838D01*
X1058254Y484610D01*
X1057025Y483381D01*
X1054567Y483381D01*
X1053339Y484610D01*
X690475Y132296D02*
X689247Y131067D01*
X689247Y128610D01*
X690475Y127381D01*
X695390Y127381D01*
X696619Y128610D01*
X696619Y131067D01*
X695390Y132296D01*
X691704Y134865D02*
X689247Y137323D01*
X696619Y137323D01*
X696619Y139780D02*
X696619Y134865D01*
D13*
X1034000Y205000D02*
X1034000Y209000D01*
X1030000Y209000D01*
X1034000Y159000D02*
X1034000Y155000D01*
X1030000Y155000D01*
X970000Y205000D02*
X970000Y209000D01*
X974000Y209000D01*
X970000Y159000D02*
X970000Y155000D01*
X974000Y155000D01*
D12*
X965000Y207000D03*
D10*
X969381Y141381D02*
X971838Y141381D01*
X970610Y141381D02*
X970610Y148753D01*
X971838Y148753D02*
X969381Y148753D01*
X978057Y148753D02*
X979285Y147525D01*
X978057Y148753D02*
X975599Y148753D01*
X974370Y147525D01*
X974370Y142610D01*
X975599Y141381D01*
X978057Y141381D01*
X979285Y142610D01*
X981855Y148753D02*
X986769Y148753D01*
X981855Y148753D02*
X981855Y145067D01*
X984312Y146296D01*
X985541Y146296D01*
X986769Y145067D01*
X986769Y142610D01*
X985541Y141381D01*
X983083Y141381D01*
X981855Y142610D01*
D13*
X403000Y524000D02*
X403000Y534000D01*
X413000Y534000D01*
X575000Y534000D02*
X585000Y534000D01*
X585000Y524000D01*
X585000Y380000D02*
X585000Y370000D01*
X575000Y370000D01*
X413000Y370000D02*
X403000Y370000D01*
X403000Y380000D01*
D12*
X397000Y531500D03*
D10*
X399381Y547381D02*
X401838Y547381D01*
X400610Y547381D02*
X400610Y554753D01*
X401838Y554753D02*
X399381Y554753D01*
X408057Y554753D02*
X409285Y553525D01*
X408057Y554753D02*
X405599Y554753D01*
X404370Y553525D01*
X404370Y548610D01*
X405599Y547381D01*
X408057Y547381D01*
X409285Y548610D01*
X414312Y553525D02*
X416769Y554753D01*
X414312Y553525D02*
X411855Y551067D01*
X411855Y548610D01*
X413083Y547381D01*
X415541Y547381D01*
X416769Y548610D01*
X416769Y549838D01*
X415541Y551067D01*
X411855Y551067D01*
D13*
X139500Y382500D02*
X77000Y382500D01*
X168500Y382500D02*
X314000Y382500D01*
X88000Y557500D02*
X50500Y557500D01*
X117000Y557500D02*
X140000Y557500D01*
X169000Y557500D02*
X314500Y557500D01*
X341500Y470000D02*
X341500Y425000D01*
X50500Y389500D02*
X50500Y557500D01*
X341500Y550500D02*
X341500Y480000D01*
X341500Y415000D02*
X341500Y410000D01*
X341500Y400000D02*
X341500Y389500D01*
D10*
X300296Y565381D02*
X295381Y572753D01*
X300296Y572753D02*
X295381Y565381D01*
X302865Y570296D02*
X305323Y572753D01*
X305323Y565381D01*
X307780Y565381D02*
X302865Y565381D01*
X312807Y571525D02*
X315264Y572753D01*
X312807Y571525D02*
X310349Y569067D01*
X310349Y566610D01*
X311578Y565381D01*
X314035Y565381D01*
X315264Y566610D01*
X315264Y567838D01*
X314035Y569067D01*
X310349Y569067D01*
D13*
X250500Y239250D02*
X250500Y235500D01*
X246750Y235500D01*
X193250Y235500D02*
X189500Y235500D01*
X189500Y239250D01*
X246750Y296500D02*
X250500Y296500D01*
X250500Y292750D01*
X189500Y292750D02*
X189500Y296500D01*
X193250Y296500D01*
D12*
X248500Y301500D03*
D10*
X267747Y283881D02*
X267747Y281423D01*
X267747Y282652D02*
X260375Y282652D01*
X260375Y281423D02*
X260375Y283881D01*
X260375Y290099D02*
X261603Y291328D01*
X260375Y290099D02*
X260375Y287641D01*
X261603Y286413D01*
X266518Y286413D01*
X267747Y287641D01*
X267747Y290099D01*
X266518Y291328D01*
X260375Y293897D02*
X260375Y298812D01*
X261603Y298812D01*
X266518Y293897D01*
X267747Y293897D01*
X298067Y161253D02*
X299296Y160025D01*
X298067Y161253D02*
X295610Y161253D01*
X294381Y160025D01*
X294381Y155110D01*
X295610Y153881D01*
X298067Y153881D01*
X299296Y155110D01*
X301865Y153881D02*
X306780Y153881D01*
X301865Y153881D02*
X306780Y158796D01*
X306780Y160025D01*
X305551Y161253D01*
X303094Y161253D01*
X301865Y160025D01*
X117619Y269381D02*
X110247Y269381D01*
X117619Y269381D02*
X117619Y274296D01*
X112704Y276865D02*
X110247Y279323D01*
X117619Y279323D01*
X117619Y281780D02*
X117619Y276865D01*
X117519Y213281D02*
X110147Y213281D01*
X117519Y213281D02*
X117519Y218196D01*
X117519Y220765D02*
X117519Y225680D01*
X117519Y220765D02*
X112604Y225680D01*
X111375Y225680D01*
X110147Y224451D01*
X110147Y221994D01*
X111375Y220765D01*
X208281Y159553D02*
X208281Y152181D01*
X213196Y152181D01*
X215765Y158325D02*
X216994Y159553D01*
X219451Y159553D01*
X220680Y158325D01*
X220680Y157096D01*
X219451Y155867D01*
X218223Y155867D01*
X219451Y155867D02*
X220680Y154638D01*
X220680Y153410D01*
X219451Y152181D01*
X216994Y152181D01*
X215765Y153410D01*
X321047Y208481D02*
X328419Y208481D01*
X328419Y213396D01*
X328419Y219651D02*
X321047Y219651D01*
X324733Y215965D01*
X324733Y220880D01*
X320296Y318525D02*
X319067Y319753D01*
X316610Y319753D01*
X315381Y318525D01*
X315381Y313610D01*
X316610Y312381D01*
X319067Y312381D01*
X320296Y313610D01*
X322865Y318525D02*
X324094Y319753D01*
X326551Y319753D01*
X327780Y318525D01*
X327780Y317296D01*
X326551Y316067D01*
X325323Y316067D01*
X326551Y316067D02*
X327780Y314838D01*
X327780Y313610D01*
X326551Y312381D01*
X324094Y312381D01*
X322865Y313610D01*
X335067Y295753D02*
X336296Y294525D01*
X335067Y295753D02*
X332610Y295753D01*
X331381Y294525D01*
X331381Y289610D01*
X332610Y288381D01*
X335067Y288381D01*
X336296Y289610D01*
X342551Y288381D02*
X342551Y295753D01*
X338865Y292067D01*
X343780Y292067D01*
D13*
X178745Y346920D02*
X178745Y357080D01*
X195255Y357080D02*
X195255Y346920D01*
D15*
X187000Y348250D03*
D10*
X169247Y365067D02*
X170475Y366296D01*
X169247Y365067D02*
X169247Y362610D01*
X170475Y361381D01*
X175390Y361381D01*
X176619Y362610D01*
X176619Y365067D01*
X175390Y366296D01*
X169247Y368865D02*
X169247Y373780D01*
X169247Y368865D02*
X172933Y368865D01*
X171704Y371323D01*
X171704Y372551D01*
X172933Y373780D01*
X175390Y373780D01*
X176619Y372551D01*
X176619Y370094D01*
X175390Y368865D01*
X163381Y339553D02*
X163381Y332181D01*
X163381Y339553D02*
X167067Y339553D01*
X168296Y338325D01*
X168296Y335867D01*
X167067Y334638D01*
X163381Y334638D01*
X165838Y334638D02*
X168296Y332181D01*
X174551Y332181D02*
X174551Y339553D01*
X170865Y335867D01*
X175780Y335867D01*
X163381Y342781D02*
X163381Y350153D01*
X167067Y350153D01*
X168296Y348925D01*
X168296Y346467D01*
X167067Y345238D01*
X163381Y345238D01*
X165838Y345238D02*
X168296Y342781D01*
X170865Y350153D02*
X175780Y350153D01*
X170865Y350153D02*
X170865Y346467D01*
X173323Y347696D01*
X174551Y347696D01*
X175780Y346467D01*
X175780Y344010D01*
X174551Y342781D01*
X172094Y342781D01*
X170865Y344010D01*
D17*
X282015Y191296D03*
D13*
X279518Y198666D02*
X296282Y198666D01*
X296282Y183934D02*
X279518Y183934D01*
D10*
X299381Y180753D02*
X299381Y175838D01*
X301838Y173381D01*
X304296Y175838D01*
X304296Y180753D01*
X306865Y180753D02*
X306865Y173381D01*
X310551Y173381D01*
X311780Y174610D01*
X311780Y179525D01*
X310551Y180753D01*
X306865Y180753D01*
X314349Y178296D02*
X316807Y180753D01*
X316807Y173381D01*
X319264Y173381D02*
X314349Y173381D01*
D13*
X309080Y256255D02*
X298920Y256255D01*
X298920Y239745D02*
X309080Y239745D01*
D18*
X300250Y248000D03*
D10*
X335067Y251753D02*
X336296Y250525D01*
X335067Y251753D02*
X332610Y251753D01*
X331381Y250525D01*
X331381Y245610D01*
X332610Y244381D01*
X335067Y244381D01*
X336296Y245610D01*
X341323Y250525D02*
X343780Y251753D01*
X341323Y250525D02*
X338865Y248067D01*
X338865Y245610D01*
X340094Y244381D01*
X342551Y244381D01*
X343780Y245610D01*
X343780Y246838D01*
X342551Y248067D01*
X338865Y248067D01*
D13*
X309080Y278255D02*
X298920Y278255D01*
X298920Y261745D02*
X309080Y261745D01*
D18*
X300250Y270000D03*
D10*
X335067Y273753D02*
X336296Y272525D01*
X335067Y273753D02*
X332610Y273753D01*
X331381Y272525D01*
X331381Y267610D01*
X332610Y266381D01*
X335067Y266381D01*
X336296Y267610D01*
X338865Y273753D02*
X343780Y273753D01*
X343780Y272525D01*
X338865Y267610D01*
X338865Y266381D01*
D13*
X217745Y346920D02*
X217745Y357080D01*
X234255Y357080D02*
X234255Y346920D01*
D15*
X226000Y348250D03*
D10*
X237247Y349067D02*
X238475Y350296D01*
X237247Y349067D02*
X237247Y346610D01*
X238475Y345381D01*
X243390Y345381D01*
X244619Y346610D01*
X244619Y349067D01*
X243390Y350296D01*
X243390Y352865D02*
X244619Y354094D01*
X244619Y356551D01*
X243390Y357780D01*
X238475Y357780D01*
X237247Y356551D01*
X237247Y354094D01*
X238475Y352865D01*
X239704Y352865D01*
X240933Y354094D01*
X240933Y357780D01*
D19*
X374000Y494720D03*
D13*
X395000Y518000D02*
X395000Y465930D01*
X395000Y465780D01*
X353000Y448000D02*
X353000Y518000D01*
X395000Y465780D02*
X395000Y448000D01*
D10*
X386603Y416843D02*
X385375Y415615D01*
X385375Y413157D01*
X386603Y411929D01*
X391518Y411929D01*
X392747Y413157D01*
X392747Y415615D01*
X391518Y416843D01*
X387832Y419413D02*
X385375Y421870D01*
X392747Y421870D01*
X392747Y419413D02*
X392747Y424328D01*
X391518Y426897D02*
X386603Y426897D01*
X385375Y428126D01*
X385375Y430583D01*
X386603Y431812D01*
X391518Y431812D01*
X392747Y430583D01*
X392747Y428126D01*
X391518Y426897D01*
X386603Y431812D01*
D13*
X258555Y181880D02*
X258555Y171720D01*
X242045Y171720D02*
X242045Y181880D01*
D15*
X250300Y180550D03*
D10*
X266067Y156753D02*
X267296Y155525D01*
X266067Y156753D02*
X263610Y156753D01*
X262381Y155525D01*
X262381Y150610D01*
X263610Y149381D01*
X266067Y149381D01*
X267296Y150610D01*
X269865Y154296D02*
X272323Y156753D01*
X272323Y149381D01*
X274780Y149381D02*
X269865Y149381D01*
X277349Y154296D02*
X279807Y156753D01*
X279807Y149381D01*
X282264Y149381D02*
X277349Y149381D01*
D13*
X140080Y292745D02*
X129920Y292745D01*
X129920Y309255D02*
X140080Y309255D01*
D18*
X138750Y301000D03*
D10*
X101775Y295896D02*
X100547Y294667D01*
X100547Y292210D01*
X101775Y290981D01*
X106690Y290981D01*
X107919Y292210D01*
X107919Y294667D01*
X106690Y295896D01*
X103004Y298465D02*
X100547Y300923D01*
X107919Y300923D01*
X107919Y303380D02*
X107919Y298465D01*
X107919Y305949D02*
X107919Y310864D01*
X107919Y305949D02*
X103004Y310864D01*
X101775Y310864D01*
X100547Y309635D01*
X100547Y307178D01*
X101775Y305949D01*
D13*
X953000Y340000D02*
X953000Y344000D01*
X957000Y344000D01*
X993000Y344000D02*
X997000Y344000D01*
X997000Y340000D01*
X997000Y288000D02*
X997000Y284000D01*
X993000Y284000D01*
X957000Y284000D02*
X953000Y284000D01*
X953000Y288000D01*
X1034000Y360000D02*
X1037000Y360000D01*
X1034000Y360000D02*
X1034000Y357000D01*
X1034000Y271000D02*
X1034000Y268000D01*
X1037000Y268000D01*
X1121000Y268000D02*
X1121000Y271000D01*
X1121000Y268000D02*
X1118000Y268000D01*
X1118000Y360000D02*
X1121000Y360000D01*
X1121000Y357000D01*
D12*
X949000Y342000D03*
D10*
X938619Y346296D02*
X931247Y341381D01*
X931247Y346296D02*
X938619Y341381D01*
X938619Y348865D02*
X938619Y353780D01*
X938619Y348865D02*
X933704Y353780D01*
X932475Y353780D01*
X931247Y352551D01*
X931247Y350094D01*
X932475Y348865D01*
D13*
X248745Y346920D02*
X248745Y357080D01*
X265255Y357080D02*
X265255Y346920D01*
D15*
X257000Y348250D03*
D10*
X293747Y355067D02*
X294975Y356296D01*
X293747Y355067D02*
X293747Y352610D01*
X294975Y351381D01*
X299890Y351381D01*
X301119Y352610D01*
X301119Y355067D01*
X299890Y356296D01*
X296204Y358865D02*
X293747Y361323D01*
X301119Y361323D01*
X301119Y363780D02*
X301119Y358865D01*
X294975Y366349D02*
X293747Y367578D01*
X293747Y370035D01*
X294975Y371264D01*
X296204Y371264D01*
X297433Y370035D01*
X297433Y368807D01*
X297433Y370035D02*
X298662Y371264D01*
X299890Y371264D01*
X301119Y370035D01*
X301119Y367578D01*
X299890Y366349D01*
X360381Y254382D02*
X362838Y254382D01*
X361610Y254382D02*
X361610Y261754D01*
X362838Y261754D02*
X360381Y261754D01*
X366599Y261754D02*
X369057Y261754D01*
X366599Y261754D02*
X365370Y260526D01*
X365370Y255611D01*
X366599Y254382D01*
X369057Y254382D01*
X370285Y255611D01*
X370285Y260526D01*
X369057Y261754D01*
X349474Y229296D02*
X348246Y228067D01*
X348246Y225610D01*
X349474Y224381D01*
X354389Y224381D01*
X355618Y225610D01*
X355618Y228067D01*
X354389Y229296D01*
X355618Y231865D02*
X348246Y231865D01*
X355618Y231865D02*
X355618Y236780D01*
X355618Y239349D02*
X348246Y239349D01*
X353161Y239349D02*
X348246Y244264D01*
X351932Y240578D02*
X355618Y244264D01*
D13*
X174255Y181580D02*
X174255Y171420D01*
X157745Y171420D02*
X157745Y181580D01*
D15*
X166000Y180250D03*
D10*
X157615Y149625D02*
X158843Y148397D01*
X157615Y149625D02*
X155157Y149625D01*
X153929Y148397D01*
X153929Y143482D01*
X155157Y142253D01*
X157615Y142253D01*
X158843Y143482D01*
X161413Y147168D02*
X163870Y149625D01*
X163870Y142253D01*
X161413Y142253D02*
X166328Y142253D01*
X171354Y148397D02*
X173812Y149625D01*
X171354Y148397D02*
X168897Y145939D01*
X168897Y143482D01*
X170126Y142253D01*
X172583Y142253D01*
X173812Y143482D01*
X173812Y144710D01*
X172583Y145939D01*
X168897Y145939D01*
D13*
X131276Y343976D02*
X131276Y352104D01*
X136864Y352104D01*
X159724Y352104D02*
X159724Y343976D01*
X159724Y352104D02*
X154136Y352104D01*
D10*
X120413Y358482D02*
X120413Y363397D01*
X121641Y364625D01*
X124099Y364625D01*
X125328Y363397D01*
X125328Y358482D01*
X124099Y357253D01*
X121641Y357253D01*
X120413Y358482D01*
X122870Y359710D02*
X125328Y357253D01*
X127897Y362168D02*
X130354Y364625D01*
X130354Y357253D01*
X127897Y357253D02*
X132812Y357253D01*
X110413Y322625D02*
X110413Y315253D01*
X110413Y322625D02*
X114099Y322625D01*
X115328Y321397D01*
X115328Y318939D01*
X114099Y317710D01*
X110413Y317710D01*
X112870Y317710D02*
X115328Y315253D01*
X117897Y321397D02*
X119126Y322625D01*
X121583Y322625D01*
X122812Y321397D01*
X122812Y320168D01*
X121583Y318939D01*
X122812Y317710D01*
X122812Y316482D01*
X121583Y315253D01*
X119126Y315253D01*
X117897Y316482D01*
X117897Y317710D01*
X119126Y318939D01*
X117897Y320168D01*
X117897Y321397D01*
X119126Y318939D02*
X121583Y318939D01*
X181375Y151929D02*
X188747Y151929D01*
X181375Y151929D02*
X181375Y155615D01*
X182603Y156843D01*
X185061Y156843D01*
X186290Y155615D01*
X186290Y151929D01*
X186290Y154386D02*
X188747Y156843D01*
X183832Y159413D02*
X181375Y161870D01*
X188747Y161870D01*
X188747Y159413D02*
X188747Y164328D01*
X187518Y166897D02*
X182603Y166897D01*
X181375Y168126D01*
X181375Y170583D01*
X182603Y171812D01*
X187518Y171812D01*
X188747Y170583D01*
X188747Y168126D01*
X187518Y166897D01*
X182603Y171812D01*
X193375Y151929D02*
X200747Y151929D01*
X193375Y151929D02*
X193375Y155615D01*
X194603Y156843D01*
X197061Y156843D01*
X198290Y155615D01*
X198290Y151929D01*
X198290Y154386D02*
X200747Y156843D01*
X195832Y159413D02*
X193375Y161870D01*
X200747Y161870D01*
X200747Y159413D02*
X200747Y164328D01*
X195832Y166897D02*
X193375Y169354D01*
X200747Y169354D01*
X200747Y166897D02*
X200747Y171812D01*
X328615Y146625D02*
X329843Y145397D01*
X328615Y146625D02*
X326157Y146625D01*
X324929Y145397D01*
X324929Y140482D01*
X326157Y139253D01*
X328615Y139253D01*
X329843Y140482D01*
X332413Y144168D02*
X334870Y146625D01*
X334870Y139253D01*
X332413Y139253D02*
X337328Y139253D01*
X339897Y146625D02*
X344812Y146625D01*
X344812Y145397D01*
X339897Y140482D01*
X339897Y139253D01*
X963375Y397929D02*
X970747Y397929D01*
X963375Y397929D02*
X963375Y401615D01*
X964603Y402843D01*
X967061Y402843D01*
X968290Y401615D01*
X968290Y397929D01*
X968290Y400386D02*
X970747Y402843D01*
X965832Y405413D02*
X963375Y407870D01*
X970747Y407870D01*
X970747Y405413D02*
X970747Y410328D01*
X970747Y412897D02*
X970747Y417812D01*
X970747Y412897D02*
X965832Y417812D01*
X964603Y417812D01*
X963375Y416583D01*
X963375Y414126D01*
X964603Y412897D01*
X957747Y397929D02*
X950375Y397929D01*
X950375Y401615D01*
X951603Y402843D01*
X954061Y402843D01*
X955290Y401615D01*
X955290Y397929D01*
X955290Y400386D02*
X957747Y402843D01*
X952832Y405413D02*
X950375Y407870D01*
X957747Y407870D01*
X957747Y405413D02*
X957747Y410328D01*
X951603Y412897D02*
X950375Y414126D01*
X950375Y416583D01*
X951603Y417812D01*
X952832Y417812D01*
X954061Y416583D01*
X954061Y415354D01*
X954061Y416583D02*
X955290Y417812D01*
X956518Y417812D01*
X957747Y416583D01*
X957747Y414126D01*
X956518Y412897D01*
X1012615Y86625D02*
X1013843Y85397D01*
X1012615Y86625D02*
X1010157Y86625D01*
X1008929Y85397D01*
X1008929Y80482D01*
X1010157Y79253D01*
X1012615Y79253D01*
X1013843Y80482D01*
X1016413Y84168D02*
X1018870Y86625D01*
X1018870Y79253D01*
X1016413Y79253D02*
X1021328Y79253D01*
X1023897Y85397D02*
X1025126Y86625D01*
X1027583Y86625D01*
X1028812Y85397D01*
X1028812Y84168D01*
X1027583Y82939D01*
X1028812Y81710D01*
X1028812Y80482D01*
X1027583Y79253D01*
X1025126Y79253D01*
X1023897Y80482D01*
X1023897Y81710D01*
X1025126Y82939D01*
X1023897Y84168D01*
X1023897Y85397D01*
X1025126Y82939D02*
X1027583Y82939D01*
D13*
X1079920Y42255D02*
X1090080Y42255D01*
X1090080Y25745D02*
X1079920Y25745D01*
D18*
X1081250Y34000D03*
D10*
X1067067Y20753D02*
X1068296Y19525D01*
X1067067Y20753D02*
X1064610Y20753D01*
X1063381Y19525D01*
X1063381Y14610D01*
X1064610Y13381D01*
X1067067Y13381D01*
X1068296Y14610D01*
X1070865Y13381D02*
X1075780Y13381D01*
X1070865Y13381D02*
X1075780Y18296D01*
X1075780Y19525D01*
X1074551Y20753D01*
X1072094Y20753D01*
X1070865Y19525D01*
X1078349Y18296D02*
X1080807Y20753D01*
X1080807Y13381D01*
X1083264Y13381D02*
X1078349Y13381D01*
X507619Y279381D02*
X500247Y279381D01*
X500247Y283067D01*
X501475Y284296D01*
X503933Y284296D01*
X505162Y283067D01*
X505162Y279381D01*
X505162Y281838D02*
X507619Y284296D01*
X502704Y286865D02*
X500247Y289323D01*
X507619Y289323D01*
X507619Y291780D02*
X507619Y286865D01*
X507619Y298035D02*
X500247Y298035D01*
X503933Y294349D01*
X503933Y299264D01*
D13*
X490000Y295270D02*
X488730Y292730D01*
X491270Y292730D01*
X490000Y295270D01*
X484920Y295270D02*
X484920Y292730D01*
X495080Y292730D02*
X495080Y295270D01*
D10*
X491162Y311381D02*
X486247Y311381D01*
X491162Y311381D02*
X493619Y313838D01*
X491162Y316296D01*
X486247Y316296D01*
X486247Y318865D02*
X493619Y318865D01*
X493619Y322551D01*
X492390Y323780D01*
X487475Y323780D01*
X486247Y322551D01*
X486247Y318865D01*
X486247Y330035D02*
X493619Y330035D01*
X489933Y326349D02*
X486247Y330035D01*
X489933Y331264D02*
X489933Y326349D01*
X616747Y448381D02*
X624119Y448381D01*
X616747Y448381D02*
X616747Y452067D01*
X617975Y453296D01*
X620433Y453296D01*
X621662Y452067D01*
X621662Y448381D01*
X621662Y450838D02*
X624119Y453296D01*
X619204Y455865D02*
X616747Y458323D01*
X624119Y458323D01*
X624119Y460780D02*
X624119Y455865D01*
X616747Y463349D02*
X616747Y468264D01*
X616747Y463349D02*
X620433Y463349D01*
X619204Y465807D01*
X619204Y467035D01*
X620433Y468264D01*
X622890Y468264D01*
X624119Y467035D01*
X624119Y464578D01*
X622890Y463349D01*
D13*
X606730Y497230D02*
X608000Y499770D01*
X606730Y497230D02*
X609270Y497230D01*
X608000Y499770D01*
X602920Y499770D02*
X602920Y497230D01*
X613080Y497230D02*
X613080Y499770D01*
D10*
X616747Y488881D02*
X621662Y488881D01*
X624119Y491338D01*
X621662Y493796D01*
X616747Y493796D01*
X616747Y496365D02*
X624119Y496365D01*
X624119Y500051D01*
X622890Y501280D01*
X617975Y501280D01*
X616747Y500051D01*
X616747Y496365D01*
X616747Y503849D02*
X616747Y508764D01*
X616747Y503849D02*
X620433Y503849D01*
X619204Y506307D01*
X619204Y507535D01*
X620433Y508764D01*
X622890Y508764D01*
X624119Y507535D01*
X624119Y505078D01*
X622890Y503849D01*
D16*
X-77400Y172400D02*
X-77940Y171552D01*
X-78460Y170691D01*
X-78960Y169819D01*
X-79440Y168935D01*
X-79899Y168040D01*
X-80337Y167135D01*
X-80753Y166220D01*
X-81149Y165295D01*
X-81522Y164361D01*
X-81874Y163419D01*
X-82204Y162469D01*
X-82512Y161512D01*
X-82797Y160548D01*
X-83060Y159577D01*
X-83300Y158600D01*
X-83300Y158599D02*
X-83583Y157366D01*
X-83838Y156126D01*
X-84067Y154882D01*
X-84268Y153632D01*
X-84442Y152379D01*
X-84589Y151122D01*
X-84708Y149862D01*
X-84800Y148600D01*
X-84799Y148600D02*
X-84853Y147738D01*
X-84887Y146875D01*
X-84903Y146012D01*
X-84900Y145148D01*
X-84878Y144285D01*
X-84837Y143422D01*
X-84778Y142561D01*
X-84699Y141701D01*
X-31501Y157300D02*
X-31175Y158276D01*
X-30873Y159259D01*
X-30594Y160250D01*
X-30340Y161247D01*
X-30109Y162250D01*
X-29902Y163257D01*
X-29720Y164270D01*
X-29561Y165287D01*
X-29427Y166307D01*
X-29318Y167330D01*
X-29233Y168355D01*
X-29172Y169383D01*
X-29136Y170411D01*
X-29125Y171440D01*
X-29138Y172469D01*
X-29176Y173497D01*
X-29239Y174524D01*
X-29326Y175549D01*
X-29437Y176572D01*
X-29573Y177592D01*
X-29734Y178608D01*
X-29918Y179620D01*
X-30127Y180628D01*
X-30360Y181630D01*
X-30616Y182627D01*
X-30897Y183617D01*
X-31201Y184600D01*
X-64500Y131501D02*
X-65516Y131725D01*
X-66526Y131974D01*
X-67531Y132247D01*
X-68528Y132543D01*
X-69518Y132864D01*
X-70500Y133207D01*
X-71473Y133574D01*
X-72438Y133965D01*
X-73393Y134377D01*
X-74338Y134813D01*
X-75272Y135271D01*
X-76195Y135751D01*
X-77106Y136253D01*
X-78005Y136776D01*
X-78892Y137321D01*
X-79765Y137886D01*
X-80625Y138472D01*
X-81470Y139079D01*
X-82301Y139705D01*
X-83116Y140351D01*
X-83916Y141016D01*
X-84700Y141700D01*
X-64399Y131500D02*
X-63707Y131359D01*
X-63012Y131234D01*
X-62315Y131123D01*
X-61615Y131028D01*
X-60913Y130948D01*
X-60210Y130883D01*
X-59505Y130834D01*
X-58800Y130800D01*
X-58700Y130800D02*
X-58064Y130752D01*
X-57426Y130717D01*
X-56788Y130696D01*
X-56150Y130689D01*
X-55512Y130696D01*
X-54874Y130717D01*
X-54236Y130752D01*
X-53600Y130800D01*
X-51944Y130915D01*
X-50292Y131068D01*
X-48644Y131260D01*
X-47001Y131490D01*
X-45363Y131759D01*
X-43732Y132065D01*
X-42109Y132409D01*
X-40494Y132791D01*
X-38889Y133211D01*
X-37293Y133667D01*
X-35709Y134161D01*
X-34137Y134691D01*
X-32577Y135258D01*
X-31031Y135861D01*
X-29500Y136500D01*
X-29442Y138175D01*
X-29423Y139850D01*
X-29443Y141525D01*
X-29502Y143200D01*
X-29600Y144872D01*
X-29737Y146542D01*
X-29913Y148209D01*
X-30127Y149870D01*
X-30380Y151527D01*
X-30672Y153177D01*
X-31001Y154819D01*
X-31369Y156454D01*
X-31775Y158079D01*
X-32219Y159695D01*
X-32700Y161300D01*
X-48500Y173100D02*
X-48012Y173712D01*
X-47509Y174312D01*
X-46992Y174900D01*
X-46461Y175476D01*
X-45917Y176038D01*
X-45359Y176588D01*
X-44789Y177124D01*
X-44205Y177646D01*
X-43610Y178154D01*
X-43002Y178648D01*
X-42383Y179127D01*
X-41752Y179591D01*
X-41111Y180040D01*
X-40459Y180473D01*
X-39797Y180891D01*
X-39125Y181293D01*
X-38443Y181678D01*
X-37753Y182047D01*
X-37054Y182400D01*
X-36347Y182736D01*
X-35632Y183054D01*
X-34909Y183356D01*
X-34180Y183640D01*
X-33443Y183907D01*
X-32701Y184156D01*
X-31953Y184387D01*
X-31200Y184600D01*
X-48500Y173100D02*
X-48642Y173201D01*
X-48786Y173299D01*
X-48932Y173393D01*
X-49081Y173483D01*
X-49231Y173570D01*
X-49384Y173654D01*
X-49539Y173733D01*
X-49696Y173809D01*
X-49854Y173881D01*
X-50014Y173950D01*
X-50176Y174014D01*
X-50339Y174075D01*
X-50503Y174132D01*
X-50669Y174184D01*
X-50836Y174233D01*
X-51004Y174278D01*
X-51173Y174319D01*
X-51343Y174355D01*
X-51514Y174388D01*
X-51686Y174416D01*
X-51858Y174441D01*
X-52031Y174461D01*
X-52204Y174477D01*
X-52378Y174489D01*
X-52552Y174497D01*
X-52726Y174501D01*
X-52900Y174500D01*
D14*
X-44000Y177800D02*
X-43690Y177998D01*
X-43375Y178188D01*
X-43056Y178371D01*
X-42732Y178546D01*
X-42405Y178713D01*
X-42074Y178873D01*
X-41738Y179024D01*
X-41400Y179168D01*
X-41058Y179304D01*
X-40713Y179431D01*
X-40365Y179550D01*
X-40014Y179661D01*
X-39661Y179763D01*
X-39305Y179857D01*
X-38947Y179943D01*
X-38587Y180020D01*
X-38226Y180088D01*
X-37863Y180148D01*
X-37499Y180199D01*
X-37133Y180241D01*
X-36767Y180275D01*
X-36400Y180300D01*
D16*
X-52901Y174500D02*
X-53477Y175055D01*
X-54066Y175597D01*
X-54668Y176124D01*
X-55283Y176637D01*
X-55909Y177136D01*
X-56547Y177619D01*
X-57197Y178087D01*
X-57857Y178539D01*
X-58528Y178975D01*
X-59209Y179396D01*
X-59900Y179800D01*
X-60481Y180081D01*
X-61069Y180348D01*
X-61664Y180600D01*
X-62264Y180839D01*
X-62870Y181063D01*
X-63480Y181273D01*
X-64096Y181468D01*
X-64716Y181648D01*
X-65340Y181814D01*
X-65968Y181965D01*
X-66600Y182100D01*
X-66477Y181689D01*
X-66344Y181281D01*
X-66202Y180877D01*
X-66050Y180475D01*
X-65889Y180078D01*
X-65718Y179685D01*
X-65538Y179295D01*
X-65349Y178910D01*
X-65150Y178530D01*
X-64943Y178155D01*
X-64727Y177784D01*
X-64502Y177419D01*
X-64268Y177059D01*
X-64026Y176705D01*
X-63775Y176357D01*
X-63516Y176015D01*
X-63250Y175679D01*
X-62975Y175350D01*
X-62692Y175027D01*
X-62402Y174711D01*
X-62105Y174402D01*
X-61800Y174100D01*
D14*
X-39000Y177400D02*
X-38891Y177589D01*
X-38777Y177775D01*
X-38658Y177958D01*
X-38536Y178138D01*
X-38409Y178316D01*
X-38277Y178490D01*
X-38142Y178661D01*
X-38002Y178828D01*
X-37859Y178993D01*
X-37711Y179153D01*
X-37560Y179310D01*
X-37405Y179463D01*
X-37246Y179613D01*
X-37083Y179759D01*
X-36917Y179900D01*
X-36748Y180038D01*
X-36576Y180171D01*
X-36400Y180300D01*
X-61800Y174100D02*
X-62107Y174180D01*
X-62415Y174252D01*
X-62726Y174317D01*
X-63038Y174375D01*
X-63351Y174424D01*
X-63665Y174466D01*
X-63981Y174500D01*
X-64297Y174527D01*
X-64613Y174546D01*
X-64930Y174557D01*
X-65247Y174560D01*
X-65564Y174556D01*
X-65881Y174543D01*
X-66198Y174523D01*
X-66514Y174496D01*
X-66829Y174460D01*
X-67143Y174417D01*
X-67456Y174367D01*
X-67768Y174308D01*
X-68078Y174242D01*
X-68386Y174169D01*
X-68693Y174088D01*
X-68998Y173999D01*
X-69300Y173903D01*
X-69600Y173800D01*
X-39000Y177400D02*
X-38749Y177625D01*
X-38493Y177845D01*
X-38232Y178058D01*
X-37966Y178265D01*
X-37694Y178465D01*
X-37419Y178659D01*
X-37138Y178847D01*
X-36853Y179027D01*
X-36564Y179201D01*
X-36271Y179368D01*
X-35974Y179528D01*
X-35674Y179681D01*
X-35369Y179826D01*
X-35062Y179964D01*
X-34751Y180095D01*
X-34437Y180219D01*
X-34120Y180335D01*
X-33801Y180443D01*
X-33479Y180544D01*
X-33155Y180637D01*
X-32829Y180722D01*
X-32500Y180800D01*
X-32499Y180800D02*
X-32331Y180434D01*
X-32172Y180065D01*
X-32022Y179692D01*
X-31882Y179315D01*
X-31750Y178935D01*
X-31627Y178552D01*
X-31514Y178167D01*
X-31410Y177778D01*
X-31316Y177387D01*
X-31231Y176994D01*
X-31156Y176599D01*
X-31090Y176202D01*
X-31034Y175804D01*
X-30988Y175405D01*
X-30951Y175005D01*
X-30924Y174603D01*
X-30907Y174202D01*
X-30899Y173800D01*
X-37300Y170500D02*
X-37368Y170603D01*
X-37439Y170704D01*
X-37513Y170803D01*
X-37589Y170900D01*
X-37669Y170995D01*
X-37751Y171087D01*
X-37836Y171177D01*
X-37923Y171264D01*
X-38013Y171349D01*
X-38105Y171431D01*
X-38200Y171511D01*
X-38297Y171587D01*
X-38396Y171661D01*
X-38497Y171732D01*
X-38600Y171800D01*
X-38599Y171800D02*
X-38501Y172170D01*
X-38395Y172537D01*
X-38279Y172902D01*
X-38155Y173264D01*
X-38022Y173622D01*
X-37880Y173978D01*
X-37730Y174330D01*
X-37572Y174678D01*
X-37405Y175022D01*
X-37230Y175363D01*
X-37047Y175698D01*
X-36855Y176030D01*
X-36656Y176357D01*
X-36449Y176678D01*
X-36234Y176995D01*
X-36012Y177307D01*
X-35783Y177613D01*
X-35546Y177913D01*
X-35301Y178208D01*
X-35050Y178496D01*
X-34792Y178779D01*
X-34528Y179055D01*
X-34256Y179325D01*
X-33979Y179588D01*
X-33695Y179844D01*
X-33404Y180094D01*
X-33108Y180336D01*
X-32807Y180572D01*
X-32499Y180799D01*
X-64300Y171100D02*
X-64567Y171160D01*
X-64832Y171226D01*
X-65096Y171299D01*
X-65358Y171378D01*
X-65618Y171463D01*
X-65876Y171554D01*
X-66131Y171652D01*
X-66384Y171755D01*
X-66635Y171864D01*
X-66883Y171980D01*
X-67128Y172101D01*
X-67370Y172228D01*
X-67609Y172361D01*
X-67845Y172499D01*
X-68078Y172643D01*
X-68307Y172793D01*
X-68532Y172948D01*
X-68754Y173108D01*
X-68972Y173273D01*
X-69185Y173444D01*
X-69395Y173619D01*
X-69600Y173800D01*
X-64301Y171100D02*
X-64393Y170971D01*
X-64483Y170840D01*
X-64570Y170707D01*
X-64653Y170572D01*
X-64733Y170435D01*
X-64809Y170296D01*
X-64882Y170155D01*
X-64952Y170012D01*
X-65018Y169868D01*
X-65080Y169722D01*
X-65139Y169575D01*
X-65194Y169426D01*
X-65246Y169276D01*
X-65293Y169125D01*
X-65338Y168972D01*
X-65378Y168819D01*
X-65415Y168665D01*
X-65447Y168509D01*
X-65476Y168353D01*
X-65501Y168197D01*
X-65523Y168039D01*
X-65540Y167882D01*
X-65554Y167724D01*
X-65563Y167565D01*
X-65569Y167407D01*
X-65571Y167248D01*
X-65569Y167089D01*
X-65563Y166931D01*
X-65553Y166772D01*
X-65540Y166614D01*
X-65522Y166457D01*
X-65501Y166299D01*
X-65500Y166300D02*
X-64997Y166615D01*
X-64487Y166918D01*
X-63971Y167211D01*
X-63448Y167492D01*
X-62919Y167761D01*
X-62385Y168019D01*
X-61845Y168265D01*
X-61300Y168500D01*
D16*
X-63700Y176201D02*
X-64550Y176229D01*
X-65400Y176238D01*
X-66250Y176229D01*
X-67100Y176201D01*
D14*
X-57900Y160800D02*
X-58448Y160203D01*
X-58981Y159593D01*
X-59501Y158971D01*
X-60005Y158337D01*
X-60495Y157691D01*
X-60970Y157034D01*
X-61429Y156366D01*
X-61872Y155688D01*
X-62300Y155000D01*
D16*
X-67100Y176200D02*
X-67370Y176810D01*
X-67654Y177414D01*
X-67953Y178010D01*
X-68265Y178600D01*
X-68591Y179182D01*
X-68931Y179756D01*
X-69284Y180322D01*
X-69651Y180879D01*
X-70030Y181428D01*
X-70423Y181967D01*
X-70828Y182498D01*
X-71245Y183018D01*
X-71674Y183529D01*
X-72116Y184029D01*
X-72569Y184519D01*
X-73033Y184998D01*
X-73509Y185465D01*
X-73995Y185922D01*
X-74493Y186367D01*
X-75000Y186800D01*
X-75391Y186069D01*
X-75764Y185329D01*
X-76119Y184581D01*
X-76457Y183824D01*
X-76776Y183060D01*
X-77077Y182288D01*
X-77360Y181509D01*
X-77624Y180724D01*
X-77869Y179932D01*
X-78095Y179135D01*
X-78302Y178333D01*
X-78490Y177526D01*
X-78659Y176715D01*
X-78809Y175900D01*
X-78939Y175082D01*
X-79049Y174261D01*
X-79140Y173437D01*
X-79212Y172612D01*
X-79264Y171785D01*
X-79296Y170957D01*
X-79308Y170128D01*
X-79300Y169300D01*
D14*
X-67100Y176200D02*
X-67660Y176965D01*
X-68239Y177716D01*
X-68835Y178454D01*
X-69449Y179176D01*
X-70079Y179885D01*
X-70726Y180577D01*
X-71390Y181255D01*
X-72070Y181916D01*
X-72765Y182561D01*
X-73475Y183189D01*
X-74200Y183800D01*
X-74107Y183602D01*
X-74019Y183402D01*
X-73936Y183199D01*
X-73858Y182995D01*
X-73784Y182789D01*
X-73716Y182581D01*
X-73653Y182372D01*
X-73595Y182161D01*
X-73542Y181949D01*
X-73494Y181736D01*
X-73451Y181521D01*
X-73414Y181306D01*
X-73382Y181089D01*
X-73355Y180872D01*
X-73333Y180655D01*
X-73317Y180437D01*
X-73306Y180218D01*
X-73300Y180000D01*
X-73299Y180000D02*
X-73474Y180306D01*
X-73656Y180607D01*
X-73845Y180904D01*
X-74041Y181196D01*
X-74244Y181484D01*
X-74453Y181766D01*
X-74670Y182044D01*
X-74893Y182316D01*
X-75122Y182583D01*
X-75357Y182845D01*
X-75599Y183100D01*
X-75600Y183100D02*
X-75359Y182582D01*
X-75130Y182057D01*
X-74914Y181528D01*
X-74710Y180993D01*
X-74520Y180454D01*
X-74342Y179910D01*
X-74178Y179362D01*
X-74027Y178811D01*
X-73889Y178256D01*
X-73764Y177698D01*
X-73653Y177137D01*
X-73555Y176573D01*
X-73471Y176007D01*
X-73400Y175440D01*
X-73344Y174871D01*
X-73300Y174300D01*
X-77300Y176899D02*
X-77147Y177689D01*
X-76977Y178476D01*
X-76789Y179258D01*
X-76585Y180037D01*
X-76364Y180810D01*
X-76126Y181579D01*
X-75871Y182342D01*
X-75600Y183099D01*
X-68100Y157800D02*
X-67966Y157556D01*
X-67837Y157308D01*
X-67714Y157058D01*
X-67596Y156804D01*
X-67485Y156548D01*
X-67380Y156290D01*
X-67280Y156029D01*
X-67187Y155766D01*
X-67100Y155500D01*
D16*
X-72700Y158699D02*
X-73083Y159173D01*
X-73455Y159655D01*
X-73816Y160146D01*
X-74166Y160645D01*
X-74504Y161152D01*
X-74829Y161667D01*
X-75143Y162189D01*
X-75445Y162718D01*
X-75734Y163254D01*
X-76010Y163797D01*
X-76274Y164346D01*
X-76525Y164901D01*
X-76763Y165462D01*
X-76988Y166028D01*
X-77200Y166600D01*
X-72700Y158700D02*
X-72195Y158127D01*
X-71676Y157566D01*
X-71144Y157018D01*
X-70600Y156482D01*
X-70043Y155959D01*
X-69475Y155449D01*
X-68894Y154952D01*
X-68303Y154469D01*
X-67700Y154000D01*
X-78500Y161000D02*
X-78392Y161711D01*
X-78267Y162420D01*
X-78128Y163125D01*
X-77973Y163828D01*
X-77802Y164527D01*
X-77617Y165222D01*
X-77416Y165913D01*
X-77200Y166600D01*
X-78500Y161000D02*
X-78520Y158700D01*
X-78500Y156400D01*
X-78469Y156150D01*
X-78432Y155901D01*
X-78389Y155653D01*
X-78340Y155406D01*
X-78285Y155160D01*
X-78225Y154915D01*
X-78158Y154672D01*
X-78086Y154431D01*
X-78008Y154191D01*
X-77925Y153954D01*
X-77835Y153718D01*
X-77741Y153485D01*
X-77640Y153254D01*
X-77535Y153025D01*
X-77424Y152799D01*
X-77307Y152576D01*
X-77185Y152355D01*
X-77058Y152138D01*
X-76926Y151924D01*
X-76789Y151712D01*
X-76647Y151504D01*
X-76500Y151300D01*
X-76499Y151300D02*
X-76355Y151147D01*
X-76207Y150998D01*
X-76055Y150852D01*
X-75900Y150710D01*
X-75742Y150571D01*
X-75580Y150436D01*
X-75416Y150305D01*
X-75248Y150178D01*
X-75078Y150054D01*
X-74905Y149935D01*
X-74729Y149820D01*
X-74550Y149709D01*
X-74369Y149602D01*
X-74185Y149499D01*
X-74000Y149400D01*
X-74000Y149401D02*
X-73856Y149348D01*
X-73711Y149299D01*
X-73564Y149253D01*
X-73416Y149212D01*
X-73268Y149174D01*
X-73118Y149139D01*
X-72968Y149109D01*
X-72817Y149082D01*
X-72665Y149059D01*
X-72513Y149040D01*
X-72360Y149024D01*
X-72207Y149012D01*
X-72054Y149005D01*
X-71900Y149001D01*
X-71900Y148999D02*
X-71754Y149047D01*
X-71610Y149099D01*
X-71467Y149154D01*
X-71325Y149212D01*
X-71185Y149275D01*
X-71047Y149340D01*
X-70910Y149410D01*
X-70775Y149482D01*
X-70642Y149558D01*
X-70511Y149638D01*
X-70382Y149720D01*
X-70256Y149806D01*
X-70131Y149895D01*
X-70008Y149987D01*
X-69888Y150082D01*
X-69771Y150181D01*
X-69656Y150282D01*
X-69543Y150386D01*
X-69433Y150492D01*
X-69326Y150602D01*
X-69222Y150714D01*
X-69120Y150829D01*
X-69022Y150946D01*
X-68926Y151066D01*
X-68834Y151188D01*
X-68744Y151313D01*
X-68658Y151439D01*
X-68575Y151568D01*
X-68496Y151699D01*
X-68419Y151832D01*
X-68346Y151966D01*
X-68276Y152103D01*
X-68210Y152241D01*
X-68148Y152381D01*
X-68088Y152522D01*
X-68033Y152665D01*
X-67981Y152809D01*
X-67933Y152954D01*
X-67888Y153101D01*
X-67847Y153249D01*
X-67810Y153397D01*
X-67777Y153547D01*
X-67747Y153697D01*
X-67721Y153848D01*
X-67699Y154000D01*
D14*
X-74401Y156800D02*
X-74357Y158101D01*
X-74290Y159401D01*
X-74201Y160700D01*
X-74400Y156800D02*
X-74371Y156473D01*
X-74334Y156148D01*
X-74290Y155823D01*
X-74237Y155500D01*
X-74176Y155178D01*
X-74108Y154857D01*
X-74032Y154538D01*
X-73948Y154221D01*
X-73857Y153907D01*
X-73758Y153594D01*
X-73651Y153284D01*
X-73537Y152977D01*
X-73416Y152673D01*
X-73287Y152371D01*
X-73151Y152073D01*
X-73008Y151778D01*
X-72858Y151487D01*
X-72700Y151200D01*
X-72700Y151201D02*
X-72579Y151321D01*
X-72460Y151444D01*
X-72345Y151571D01*
X-72233Y151700D01*
X-72124Y151831D01*
X-72019Y151966D01*
X-71916Y152102D01*
X-71817Y152242D01*
X-71722Y152383D01*
X-71630Y152527D01*
X-71541Y152674D01*
X-71456Y152822D01*
X-71375Y152972D01*
X-71297Y153124D01*
X-71224Y153278D01*
X-71154Y153434D01*
X-71087Y153592D01*
X-71025Y153751D01*
X-70967Y153912D01*
X-70912Y154073D01*
X-70862Y154237D01*
X-70815Y154401D01*
X-70773Y154567D01*
X-70734Y154733D01*
X-70700Y154900D01*
X-70693Y155100D01*
X-70690Y155301D01*
X-70692Y155502D01*
X-70698Y155702D01*
X-70709Y155902D01*
X-70725Y156103D01*
X-70746Y156302D01*
X-70771Y156501D01*
X-70800Y156700D01*
X-69500Y140900D02*
X-69426Y140822D01*
X-69350Y140746D01*
X-69271Y140673D01*
X-69190Y140604D01*
X-69106Y140537D01*
X-69019Y140473D01*
X-68931Y140412D01*
X-68841Y140354D01*
X-68748Y140299D01*
X-68654Y140248D01*
X-68558Y140199D01*
X-68460Y140155D01*
X-68361Y140113D01*
X-68261Y140076D01*
X-68159Y140041D01*
X-68056Y140011D01*
X-67952Y139983D01*
X-67848Y139960D01*
X-67742Y139940D01*
X-67636Y139924D01*
X-67529Y139912D01*
X-67422Y139903D01*
X-67315Y139898D01*
X-67208Y139897D01*
X-67100Y139900D01*
X-66991Y139920D01*
X-66884Y139943D01*
X-66777Y139970D01*
X-66672Y140001D01*
X-66568Y140036D01*
X-66464Y140074D01*
X-66363Y140116D01*
X-66262Y140161D01*
X-66164Y140210D01*
X-66067Y140262D01*
X-65972Y140317D01*
X-65879Y140376D01*
X-65788Y140438D01*
X-65700Y140503D01*
X-65613Y140571D01*
X-65530Y140642D01*
X-65448Y140716D01*
X-65369Y140793D01*
X-65294Y140872D01*
X-65220Y140954D01*
X-65150Y141039D01*
X-65083Y141126D01*
X-65019Y141215D01*
X-64958Y141307D01*
X-64900Y141400D01*
X-64827Y141320D01*
X-64751Y141244D01*
X-64673Y141170D01*
X-64592Y141099D01*
X-64508Y141031D01*
X-64422Y140966D01*
X-64333Y140904D01*
X-64243Y140845D01*
X-64150Y140790D01*
X-64056Y140738D01*
X-63959Y140690D01*
X-63861Y140645D01*
X-63761Y140604D01*
X-63660Y140566D01*
X-63558Y140532D01*
X-63454Y140502D01*
X-63350Y140476D01*
X-63244Y140453D01*
X-63138Y140435D01*
X-63031Y140420D01*
X-62924Y140409D01*
X-62816Y140402D01*
X-62708Y140399D01*
X-62600Y140400D01*
X-62600Y140401D02*
X-62501Y140414D01*
X-62403Y140432D01*
X-62305Y140453D01*
X-62208Y140478D01*
X-62112Y140506D01*
X-62017Y140538D01*
X-61924Y140574D01*
X-61832Y140613D01*
X-61742Y140656D01*
X-61653Y140702D01*
X-61566Y140751D01*
X-61481Y140803D01*
X-61398Y140859D01*
X-61317Y140918D01*
X-61238Y140980D01*
X-61162Y141045D01*
X-61088Y141112D01*
X-61017Y141183D01*
X-60949Y141256D01*
X-60883Y141331D01*
X-60821Y141409D01*
X-60761Y141489D01*
X-60704Y141572D01*
X-60651Y141656D01*
X-60601Y141743D01*
X-60554Y141831D01*
X-60510Y141921D01*
X-60470Y142013D01*
X-60434Y142106D01*
X-60400Y142200D01*
X-67300Y137600D02*
X-67393Y137671D01*
X-67483Y137746D01*
X-67571Y137824D01*
X-67656Y137904D01*
X-67739Y137988D01*
X-67818Y138074D01*
X-67895Y138163D01*
X-67968Y138254D01*
X-68039Y138348D01*
X-68106Y138444D01*
X-68170Y138542D01*
X-68231Y138642D01*
X-68288Y138744D01*
X-68342Y138849D01*
X-68393Y138955D01*
X-68439Y139062D01*
X-68482Y139171D01*
X-68522Y139282D01*
X-68558Y139393D01*
X-68589Y139506D01*
X-68618Y139620D01*
X-68642Y139735D01*
X-68662Y139850D01*
X-68679Y139966D01*
X-68691Y140083D01*
X-68700Y140200D01*
X-67100Y139900D02*
X-67150Y139810D01*
X-67196Y139717D01*
X-67239Y139623D01*
X-67279Y139527D01*
X-67315Y139430D01*
X-67347Y139331D01*
X-67375Y139231D01*
X-67399Y139131D01*
X-67420Y139029D01*
X-67437Y138927D01*
X-67450Y138824D01*
X-67459Y138721D01*
X-67464Y138617D01*
X-67465Y138514D01*
X-67462Y138410D01*
X-67455Y138307D01*
X-67445Y138204D01*
X-67430Y138101D01*
X-67412Y137999D01*
X-67389Y137898D01*
X-67363Y137798D01*
X-67333Y137699D01*
X-67300Y137601D01*
D16*
X-62700Y152299D02*
X-61411Y153112D01*
X-60103Y153894D01*
X-58776Y154643D01*
X-57431Y155360D01*
X-56070Y156044D01*
X-54692Y156696D01*
X-53299Y157313D01*
X-51891Y157897D01*
X-50470Y158446D01*
X-49036Y158960D01*
X-47589Y159440D01*
X-46132Y159885D01*
X-44664Y160294D01*
X-43187Y160667D01*
X-41701Y161005D01*
X-40207Y161306D01*
X-38706Y161571D01*
X-37200Y161799D01*
X-58100Y145901D02*
X-58425Y146199D01*
X-58744Y146505D01*
X-59054Y146818D01*
X-59357Y147139D01*
X-59652Y147467D01*
X-59939Y147803D01*
X-60218Y148145D01*
X-60488Y148494D01*
X-60750Y148849D01*
X-61004Y149210D01*
X-61248Y149578D01*
X-61483Y149951D01*
X-61710Y150330D01*
X-61927Y150714D01*
X-62134Y151104D01*
X-62333Y151498D01*
X-62521Y151897D01*
X-62700Y152301D01*
X-58100Y145900D02*
X-57844Y145683D01*
X-57583Y145473D01*
X-57316Y145269D01*
X-57045Y145072D01*
X-56770Y144881D01*
X-56490Y144697D01*
X-56205Y144519D01*
X-55916Y144349D01*
X-55624Y144185D01*
X-55327Y144029D01*
X-55027Y143880D01*
X-54723Y143738D01*
X-54416Y143603D01*
X-54106Y143476D01*
X-53792Y143356D01*
X-53476Y143244D01*
X-53158Y143140D01*
X-52837Y143043D01*
X-52514Y142954D01*
X-52188Y142873D01*
X-51861Y142799D01*
X-51532Y142734D01*
X-51202Y142677D01*
X-50870Y142627D01*
X-50538Y142585D01*
X-50204Y142552D01*
X-49870Y142527D01*
X-49535Y142509D01*
X-49200Y142500D01*
X-48929Y142521D01*
X-48657Y142547D01*
X-48387Y142581D01*
X-48117Y142621D01*
X-47848Y142667D01*
X-47581Y142720D01*
X-47315Y142779D01*
X-47050Y142845D01*
X-46787Y142917D01*
X-46526Y142995D01*
X-46267Y143080D01*
X-46010Y143170D01*
X-45755Y143267D01*
X-45502Y143370D01*
X-45252Y143480D01*
X-45005Y143595D01*
X-44761Y143716D01*
X-44520Y143842D01*
X-44281Y143975D01*
X-44046Y144113D01*
X-43815Y144257D01*
X-43587Y144407D01*
X-43362Y144562D01*
X-43142Y144722D01*
X-42925Y144887D01*
X-42713Y145058D01*
X-42504Y145234D01*
X-42300Y145415D01*
X-42100Y145600D01*
X-41815Y145895D01*
X-41537Y146196D01*
X-41266Y146504D01*
X-41002Y146818D01*
X-40746Y147138D01*
X-40498Y147464D01*
X-40257Y147796D01*
X-40024Y148134D01*
X-39800Y148477D01*
X-39584Y148825D01*
X-39376Y149178D01*
X-39176Y149537D01*
X-38986Y149899D01*
X-38803Y150267D01*
X-38630Y150638D01*
X-38466Y151014D01*
X-38310Y151393D01*
X-38164Y151776D01*
X-38026Y152163D01*
X-37898Y152552D01*
X-37780Y152944D01*
X-37670Y153340D01*
X-37571Y153737D01*
X-37480Y154137D01*
X-37399Y154539D01*
X-37328Y154943D01*
X-37266Y155348D01*
X-37214Y155755D01*
X-37172Y156163D01*
X-37139Y156571D01*
X-37117Y156981D01*
X-37103Y157390D01*
X-37100Y157800D01*
X-37099Y157799D02*
X-37074Y158300D01*
X-37059Y158800D01*
X-37055Y159301D01*
X-37062Y159802D01*
X-37080Y160302D01*
X-37109Y160802D01*
X-37149Y161301D01*
X-37199Y161800D01*
D14*
X-54301Y155700D02*
X-54236Y155342D01*
X-54162Y154985D01*
X-54080Y154630D01*
X-53989Y154278D01*
X-53890Y153927D01*
X-53783Y153579D01*
X-53668Y153234D01*
X-53544Y152891D01*
X-53412Y152552D01*
X-53272Y152216D01*
X-53125Y151883D01*
X-52969Y151554D01*
X-52806Y151228D01*
X-52634Y150907D01*
X-52456Y150589D01*
X-52269Y150277D01*
X-52076Y149968D01*
X-51875Y149664D01*
X-51667Y149366D01*
X-51452Y149072D01*
X-51229Y148783D01*
X-51001Y148500D01*
X-51000Y148500D02*
X-50965Y148666D01*
X-50926Y148830D01*
X-50882Y148993D01*
X-50835Y149156D01*
X-50784Y149317D01*
X-50729Y149477D01*
X-50670Y149635D01*
X-50608Y149792D01*
X-50542Y149947D01*
X-50472Y150101D01*
X-50398Y150253D01*
X-50321Y150404D01*
X-50240Y150552D01*
X-50155Y150698D01*
X-50067Y150843D01*
X-49976Y150985D01*
X-49881Y151125D01*
X-49783Y151262D01*
X-49681Y151397D01*
X-49577Y151530D01*
X-49469Y151660D01*
X-49358Y151788D01*
X-49244Y151912D01*
X-49127Y152034D01*
X-49007Y152153D01*
X-48885Y152270D01*
X-48759Y152383D01*
X-48631Y152493D01*
X-48500Y152600D01*
X-48501Y152600D02*
X-48432Y152330D01*
X-48370Y152058D01*
X-48314Y151784D01*
X-48265Y151509D01*
X-48223Y151234D01*
X-48187Y150957D01*
X-48158Y150679D01*
X-48136Y150401D01*
X-48120Y150122D01*
X-48111Y149843D01*
X-48109Y149564D01*
X-48114Y149285D01*
X-48125Y149006D01*
X-48143Y148728D01*
X-48167Y148450D01*
X-48199Y148172D01*
X-48237Y147896D01*
X-48281Y147620D01*
X-48333Y147346D01*
X-48390Y147073D01*
X-48455Y146801D01*
X-48526Y146531D01*
X-48603Y146263D01*
X-48687Y145997D01*
X-48777Y145733D01*
X-48874Y145471D01*
X-48977Y145212D01*
X-49086Y144955D01*
X-49201Y144700D01*
X-49200Y144700D02*
X-48990Y144939D01*
X-48786Y145184D01*
X-48588Y145433D01*
X-48396Y145688D01*
X-48210Y145947D01*
X-48031Y146210D01*
X-47858Y146478D01*
X-47692Y146750D01*
X-47533Y147025D01*
X-47380Y147305D01*
X-47234Y147588D01*
X-47095Y147875D01*
X-46963Y148165D01*
X-46838Y148458D01*
X-46720Y148754D01*
X-46610Y149053D01*
X-46507Y149354D01*
X-46411Y149658D01*
X-46323Y149964D01*
X-46242Y150272D01*
X-46168Y150582D01*
X-46103Y150894D01*
X-46045Y151207D01*
X-45994Y151522D01*
X-45951Y151837D01*
X-45916Y152154D01*
X-45889Y152472D01*
X-45869Y152789D01*
X-45857Y153108D01*
X-45853Y153426D01*
X-45857Y153745D01*
X-45868Y154063D01*
X-45887Y154381D01*
X-45914Y154699D01*
X-45948Y155016D01*
X-45991Y155331D01*
X-46041Y155646D01*
X-46098Y155959D01*
X-46163Y156271D01*
X-46236Y156581D01*
X-46317Y156890D01*
X-46404Y157196D01*
X-46500Y157500D01*
X-46839Y157274D01*
X-47173Y157040D01*
X-47501Y156798D01*
X-47823Y156549D01*
X-48139Y156292D01*
X-48449Y156028D01*
X-48752Y155756D01*
X-49049Y155477D01*
X-49340Y155192D01*
X-49623Y154899D01*
X-49900Y154600D01*
X-49899Y154600D02*
X-49951Y154952D01*
X-49993Y155305D01*
X-50028Y155659D01*
X-50054Y156014D01*
X-50071Y156369D01*
X-50081Y156725D01*
X-50081Y157080D01*
X-50073Y157436D01*
X-50057Y157791D01*
X-50032Y158146D01*
X-49999Y158500D01*
D16*
X-67900Y132400D02*
X-67980Y131836D01*
X-68046Y131270D01*
X-68098Y130703D01*
X-68138Y130134D01*
X-68164Y129565D01*
X-68177Y128996D01*
X-68177Y128426D01*
X-68164Y127856D01*
X-68137Y127287D01*
X-68097Y126719D01*
X-68044Y126152D01*
X-67978Y125586D01*
X-67899Y125022D01*
X-67806Y124460D01*
X-67700Y123900D01*
X-67673Y124046D01*
X-67642Y124191D01*
X-67607Y124336D01*
X-67569Y124480D01*
X-67527Y124622D01*
X-67482Y124764D01*
X-67433Y124904D01*
X-67380Y125044D01*
X-67325Y125181D01*
X-67265Y125318D01*
X-67203Y125453D01*
X-67137Y125586D01*
X-67067Y125718D01*
X-66995Y125847D01*
X-66919Y125975D01*
X-66840Y126101D01*
X-66758Y126225D01*
X-66673Y126347D01*
X-66585Y126467D01*
X-66494Y126585D01*
X-66400Y126700D01*
X-66199Y127500D02*
X-66237Y127364D01*
X-66271Y127226D01*
X-66301Y127087D01*
X-66328Y126948D01*
X-66350Y126808D01*
X-66369Y126667D01*
X-66384Y126526D01*
X-66395Y126385D01*
X-66402Y126243D01*
X-66406Y126101D01*
X-66405Y125960D01*
X-66401Y125818D01*
X-66393Y125676D01*
X-66381Y125535D01*
X-66365Y125394D01*
X-66345Y125254D01*
X-66321Y125114D01*
X-66294Y124975D01*
X-66263Y124836D01*
X-66228Y124699D01*
X-66189Y124562D01*
X-66147Y124427D01*
X-66101Y124293D01*
X-66051Y124160D01*
X-65998Y124029D01*
X-65941Y123899D01*
X-65880Y123770D01*
X-65816Y123644D01*
X-65749Y123519D01*
X-65678Y123396D01*
X-65604Y123275D01*
X-65527Y123156D01*
X-65447Y123039D01*
X-65363Y122925D01*
X-65276Y122812D01*
X-65186Y122703D01*
X-65094Y122595D01*
X-64998Y122491D01*
X-64900Y122388D01*
X-64798Y122289D01*
X-64695Y122192D01*
X-64588Y122099D01*
X-64479Y122008D01*
X-64368Y121920D01*
X-64254Y121835D01*
X-64138Y121754D01*
X-64020Y121676D01*
X-63899Y121600D01*
X-64300Y121900D02*
X-64320Y122041D01*
X-64336Y122182D01*
X-64349Y122324D01*
X-64358Y122466D01*
X-64363Y122609D01*
X-64365Y122751D01*
X-64363Y122893D01*
X-64357Y123036D01*
X-64347Y123178D01*
X-64334Y123320D01*
X-64317Y123461D01*
X-64296Y123602D01*
X-64272Y123742D01*
X-64244Y123882D01*
X-64212Y124021D01*
X-64177Y124159D01*
X-64138Y124296D01*
X-64095Y124431D01*
X-64049Y124566D01*
X-64000Y124700D01*
X-63978Y124615D01*
X-63953Y124531D01*
X-63924Y124448D01*
X-63892Y124367D01*
X-63857Y124287D01*
X-63818Y124208D01*
X-63776Y124132D01*
X-63731Y124057D01*
X-63683Y123984D01*
X-63632Y123913D01*
X-63578Y123844D01*
X-63521Y123777D01*
X-63461Y123713D01*
X-63399Y123652D01*
X-63334Y123593D01*
X-63267Y123537D01*
X-63198Y123483D01*
X-63126Y123433D01*
X-63053Y123385D01*
X-62977Y123341D01*
X-62900Y123300D01*
X-65800Y123600D02*
X-65817Y122754D01*
X-65814Y121908D01*
X-65791Y121062D01*
X-65749Y120217D01*
X-65687Y119373D01*
X-65606Y118530D01*
X-65505Y117690D01*
X-65384Y116853D01*
X-65244Y116018D01*
X-65084Y115187D01*
X-64906Y114360D01*
X-64708Y113537D01*
X-64491Y112719D01*
X-64255Y111907D01*
X-64000Y111100D01*
X-64001Y111099D02*
X-64001Y111100D02*
X-63931Y110983D01*
X-63859Y110870D01*
X-63783Y110758D01*
X-63704Y110648D01*
X-63622Y110541D01*
X-63536Y110436D01*
X-63448Y110334D01*
X-63357Y110234D01*
X-63263Y110137D01*
X-63166Y110043D01*
X-63066Y109952D01*
X-62964Y109864D01*
X-62859Y109778D01*
X-62752Y109696D01*
X-62642Y109617D01*
X-62530Y109541D01*
X-62417Y109469D01*
X-62301Y109399D01*
X-62300Y109400D02*
X-61425Y109372D01*
X-60550Y109362D01*
X-59675Y109372D01*
X-58800Y109400D01*
X-58799Y109400D02*
X-58747Y109466D01*
X-58697Y109534D01*
X-58651Y109605D01*
X-58608Y109677D01*
X-58568Y109751D01*
X-58532Y109828D01*
X-58499Y109905D01*
X-58470Y109985D01*
X-58444Y110065D01*
X-58423Y110147D01*
X-58405Y110229D01*
X-58390Y110312D01*
X-58380Y110396D01*
X-58374Y110480D01*
X-58371Y110564D01*
X-58372Y110649D01*
X-58377Y110733D01*
X-58386Y110817D01*
X-58399Y110900D01*
X-58400Y110900D02*
X-58652Y111779D01*
X-58883Y112664D01*
X-59093Y113554D01*
X-59282Y114448D01*
X-59449Y115347D01*
X-59595Y116250D01*
X-59720Y117155D01*
X-59822Y118064D01*
X-59903Y118975D01*
X-59963Y119887D01*
X-60000Y120800D01*
X-59948Y120228D01*
X-59882Y119658D01*
X-59802Y119090D01*
X-59709Y118524D01*
X-59602Y117960D01*
X-59481Y117399D01*
X-59346Y116841D01*
X-59198Y116286D01*
X-59037Y115736D01*
X-58862Y115189D01*
X-58675Y114647D01*
X-58474Y114109D01*
X-58260Y113577D01*
X-58033Y113049D01*
X-57794Y112528D01*
X-57542Y112012D01*
X-57277Y111503D01*
X-57000Y111000D01*
X-56915Y110885D01*
X-56827Y110773D01*
X-56736Y110663D01*
X-56642Y110555D01*
X-56546Y110450D01*
X-56447Y110347D01*
X-56345Y110247D01*
X-56241Y110149D01*
X-56134Y110054D01*
X-56025Y109962D01*
X-55913Y109873D01*
X-55800Y109787D01*
X-55684Y109703D01*
X-55566Y109623D01*
X-55446Y109545D01*
X-55324Y109471D01*
X-55200Y109400D01*
X-55121Y109365D01*
X-55040Y109332D01*
X-54958Y109303D01*
X-54875Y109277D01*
X-54791Y109255D01*
X-54706Y109236D01*
X-54621Y109220D01*
X-54534Y109208D01*
X-54448Y109200D01*
X-54361Y109195D01*
X-54274Y109193D01*
X-54187Y109195D01*
X-54100Y109200D01*
X-53990Y109216D01*
X-53880Y109236D01*
X-53771Y109260D01*
X-53663Y109288D01*
X-53556Y109320D01*
X-53450Y109356D01*
X-53346Y109395D01*
X-53243Y109438D01*
X-53141Y109485D01*
X-53042Y109535D01*
X-52944Y109589D01*
X-52848Y109646D01*
X-52755Y109707D01*
X-52663Y109771D01*
X-52574Y109838D01*
X-52487Y109908D01*
X-52403Y109982D01*
X-52322Y110058D01*
X-52243Y110137D01*
X-52167Y110219D01*
X-52095Y110304D01*
X-52025Y110391D01*
X-51958Y110480D01*
X-51895Y110572D01*
X-51835Y110666D01*
X-51778Y110762D01*
X-51725Y110860D01*
X-51676Y110960D01*
X-51630Y111062D01*
X-51587Y111165D01*
X-51549Y111270D01*
X-51514Y111376D01*
X-51483Y111483D01*
X-51455Y111591D01*
X-51432Y111700D01*
X-51413Y111810D01*
X-51397Y111921D01*
X-51386Y112032D01*
X-51378Y112143D01*
X-51374Y112255D01*
X-51375Y112366D01*
X-51379Y112478D01*
X-51387Y112589D01*
X-51400Y112700D01*
X-51126Y112481D01*
X-50848Y112269D01*
X-50563Y112063D01*
X-50275Y111864D01*
X-49981Y111673D01*
X-49683Y111488D01*
X-49380Y111311D01*
X-49074Y111141D01*
X-48763Y110978D01*
X-48449Y110823D01*
X-48131Y110676D01*
X-47809Y110536D01*
X-47484Y110404D01*
X-47156Y110280D01*
X-46825Y110164D01*
X-46492Y110056D01*
X-46156Y109956D01*
X-45818Y109864D01*
X-45477Y109780D01*
X-45135Y109705D01*
X-44791Y109637D01*
X-44445Y109578D01*
X-44098Y109528D01*
X-43750Y109485D01*
X-43401Y109451D01*
X-43052Y109426D01*
X-42701Y109409D01*
X-42351Y109400D01*
X-42000Y109400D01*
X-41684Y109395D01*
X-41367Y109398D01*
X-41050Y109408D01*
X-40734Y109426D01*
X-40419Y109451D01*
X-40104Y109484D01*
X-39789Y109524D01*
X-39476Y109571D01*
X-39164Y109627D01*
X-38854Y109689D01*
X-38545Y109759D01*
X-38238Y109836D01*
X-37933Y109921D01*
X-37630Y110012D01*
X-37329Y110111D01*
X-37030Y110217D01*
X-36735Y110331D01*
X-36442Y110451D01*
X-36151Y110578D01*
X-35865Y110712D01*
X-35581Y110852D01*
X-35301Y111000D01*
X-35300Y111000D02*
X-35424Y111957D01*
X-35571Y112911D01*
X-35741Y113861D01*
X-35933Y114807D01*
X-36148Y115748D01*
X-36386Y116683D01*
X-36646Y117613D01*
X-36929Y118536D01*
X-37233Y119452D01*
X-37560Y120360D01*
X-37908Y121261D01*
X-38277Y122152D01*
X-38668Y123035D01*
X-39080Y123908D01*
X-39513Y124771D01*
X-39966Y125623D01*
X-40440Y126464D01*
X-40933Y127293D01*
X-41447Y128111D01*
X-41980Y128915D01*
X-42532Y129707D01*
X-43103Y130485D01*
X-43692Y131250D01*
X-44300Y132000D01*
X-32000Y121100D02*
X-32234Y120776D01*
X-32462Y120446D01*
X-32681Y120111D01*
X-32892Y119770D01*
X-33094Y119425D01*
X-33289Y119075D01*
X-33475Y118721D01*
X-33652Y118362D01*
X-33821Y117998D01*
X-33982Y117631D01*
X-34133Y117261D01*
X-34275Y116886D01*
X-34409Y116509D01*
X-34533Y116128D01*
X-34648Y115745D01*
X-34754Y115359D01*
X-34851Y114970D01*
X-34939Y114579D01*
X-35017Y114187D01*
X-35085Y113792D01*
X-35144Y113396D01*
X-35194Y112999D01*
X-35234Y112600D01*
X-35265Y112201D01*
X-35286Y111801D01*
X-35298Y111401D01*
X-35300Y111000D01*
D14*
X-32000Y121100D02*
X-32095Y121152D01*
X-32188Y121208D01*
X-32279Y121267D01*
X-32368Y121329D01*
X-32454Y121394D01*
X-32539Y121462D01*
X-32621Y121533D01*
X-32700Y121607D01*
X-32777Y121684D01*
X-32851Y121763D01*
X-32922Y121845D01*
X-32990Y121929D01*
X-33056Y122015D01*
X-33118Y122104D01*
X-33177Y122195D01*
X-33233Y122288D01*
X-33286Y122383D01*
X-33335Y122479D01*
X-33381Y122577D01*
X-33423Y122677D01*
X-33462Y122778D01*
X-33498Y122881D01*
X-33530Y122984D01*
X-33558Y123089D01*
X-33582Y123195D01*
X-33603Y123301D01*
X-33620Y123408D01*
X-33634Y123516D01*
X-33643Y123624D01*
X-33649Y123732D01*
X-33651Y123840D01*
X-33649Y123949D01*
X-33644Y124057D01*
X-33634Y124165D01*
X-33621Y124273D01*
X-33604Y124380D01*
X-33584Y124486D01*
X-33560Y124592D01*
X-33532Y124697D01*
X-33500Y124800D01*
X-32000Y121100D02*
X-31904Y121047D01*
X-31805Y120996D01*
X-31706Y120950D01*
X-31604Y120907D01*
X-31501Y120867D01*
X-31397Y120831D01*
X-31292Y120798D01*
X-31185Y120770D01*
X-31078Y120745D01*
X-30970Y120724D01*
X-30861Y120706D01*
X-30751Y120693D01*
X-30641Y120683D01*
X-30531Y120677D01*
X-30421Y120675D01*
X-30311Y120677D01*
X-30201Y120682D01*
X-30091Y120692D01*
X-29981Y120705D01*
X-29872Y120722D01*
X-29764Y120743D01*
X-29657Y120768D01*
X-29550Y120796D01*
X-29445Y120828D01*
X-29340Y120864D01*
X-29237Y120904D01*
X-29136Y120946D01*
X-29036Y120993D01*
X-28938Y121043D01*
X-28841Y121096D01*
X-28746Y121153D01*
X-28654Y121213D01*
X-28563Y121276D01*
X-28475Y121342D01*
X-28390Y121411D01*
X-28306Y121484D01*
X-28226Y121559D01*
X-28147Y121637D01*
X-28072Y121717D01*
X-28000Y121800D01*
X-33500Y124800D02*
X-33457Y124997D01*
X-33411Y125193D01*
X-33359Y125388D01*
X-33303Y125582D01*
X-33243Y125774D01*
X-33178Y125965D01*
X-33108Y126154D01*
X-33035Y126342D01*
X-32957Y126528D01*
X-32874Y126712D01*
X-32788Y126894D01*
X-32697Y127074D01*
X-32602Y127251D01*
X-32503Y127427D01*
X-32400Y127600D01*
X-26200Y125200D02*
X-26282Y124956D01*
X-26370Y124713D01*
X-26463Y124473D01*
X-26562Y124235D01*
X-26666Y123999D01*
X-26776Y123766D01*
X-26892Y123535D01*
X-27012Y123308D01*
X-27138Y123083D01*
X-27269Y122861D01*
X-27405Y122642D01*
X-27547Y122426D01*
X-27693Y122214D01*
X-27844Y122005D01*
X-28000Y121800D01*
X-26199Y125200D02*
X-27769Y125750D01*
X-29326Y126333D01*
X-30869Y126950D01*
X-32399Y127600D01*
X-32800Y126701D02*
X-31788Y126267D01*
X-30767Y125856D01*
X-29738Y125467D01*
X-28700Y125101D01*
X-25300Y126500D02*
X-27097Y127116D01*
X-28880Y127772D01*
X-30648Y128467D01*
X-32400Y129200D01*
X-33000Y128700D02*
X-33023Y128650D01*
X-33042Y128599D01*
X-33057Y128547D01*
X-33068Y128494D01*
X-33076Y128440D01*
X-33080Y128386D01*
X-33079Y128332D01*
X-33076Y128277D01*
X-33068Y128224D01*
X-33056Y128170D01*
X-33041Y128118D01*
X-33022Y128067D01*
X-32999Y128018D01*
X-32973Y127970D01*
X-32944Y127924D01*
X-32911Y127881D01*
X-32876Y127840D01*
X-32837Y127801D01*
X-32796Y127765D01*
X-32753Y127733D01*
X-32707Y127703D01*
X-32659Y127677D01*
X-32610Y127654D01*
X-32559Y127635D01*
X-32507Y127619D01*
X-32454Y127608D01*
X-32400Y127600D01*
X-33000Y128700D02*
X-32986Y128747D01*
X-32968Y128793D01*
X-32947Y128837D01*
X-32923Y128879D01*
X-32895Y128920D01*
X-32865Y128959D01*
X-32833Y128995D01*
X-32797Y129029D01*
X-32760Y129060D01*
X-32720Y129089D01*
X-32678Y129115D01*
X-32635Y129137D01*
X-32590Y129157D01*
X-32544Y129173D01*
X-32497Y129185D01*
X-32449Y129195D01*
X-32400Y129201D01*
X-25300Y126500D02*
X-25270Y126449D01*
X-25243Y126396D01*
X-25220Y126341D01*
X-25200Y126285D01*
X-25183Y126228D01*
X-25171Y126170D01*
X-25161Y126111D01*
X-25156Y126052D01*
X-25154Y125993D01*
X-25156Y125933D01*
X-25161Y125874D01*
X-25171Y125815D01*
X-25184Y125757D01*
X-25200Y125700D01*
X-25230Y125648D01*
X-25263Y125599D01*
X-25299Y125551D01*
X-25337Y125506D01*
X-25379Y125463D01*
X-25423Y125423D01*
X-25469Y125386D01*
X-25518Y125352D01*
X-25569Y125320D01*
X-25621Y125292D01*
X-25675Y125267D01*
X-25730Y125245D01*
X-25787Y125227D01*
X-25845Y125212D01*
X-25903Y125201D01*
X-25962Y125194D01*
X-26022Y125190D01*
X-26081Y125189D01*
X-26141Y125193D01*
X-26200Y125200D01*
X-28800Y131400D02*
X-28854Y131414D01*
X-28910Y131425D01*
X-28965Y131432D01*
X-29021Y131436D01*
X-29077Y131435D01*
X-29133Y131431D01*
X-29189Y131423D01*
X-29244Y131411D01*
X-29298Y131396D01*
X-29351Y131377D01*
X-29403Y131355D01*
X-29452Y131329D01*
X-29500Y131300D01*
X-28800Y131400D02*
X-28764Y131359D01*
X-28731Y131316D01*
X-28701Y131271D01*
X-28675Y131223D01*
X-28652Y131173D01*
X-28633Y131123D01*
X-28618Y131070D01*
X-28607Y131017D01*
X-28599Y130963D01*
X-28595Y130909D01*
X-28596Y130855D01*
X-28600Y130800D01*
X-29500Y131300D02*
X-29676Y130962D01*
X-29845Y130620D01*
X-30007Y130275D01*
X-30161Y129926D01*
X-30307Y129574D01*
X-30446Y129219D01*
X-30577Y128861D01*
X-30700Y128500D01*
X-29700Y128100D02*
X-29588Y128447D01*
X-29469Y128792D01*
X-29343Y129134D01*
X-29209Y129474D01*
X-29067Y129810D01*
X-28919Y130143D01*
X-28763Y130473D01*
X-28600Y130800D01*
X-26900Y130100D02*
X-27050Y129785D01*
X-27192Y129467D01*
X-27328Y129146D01*
X-27457Y128822D01*
X-27578Y128495D01*
X-27693Y128166D01*
X-27800Y127834D01*
X-27900Y127500D01*
X-27000Y127100D02*
X-26899Y127422D01*
X-26791Y127741D01*
X-26676Y128058D01*
X-26554Y128372D01*
X-26426Y128683D01*
X-26290Y128992D01*
X-26148Y129298D01*
X-26000Y129600D01*
X-26200Y130400D02*
X-26242Y130415D01*
X-26285Y130427D01*
X-26329Y130434D01*
X-26373Y130438D01*
X-26418Y130439D01*
X-26462Y130435D01*
X-26506Y130428D01*
X-26549Y130418D01*
X-26592Y130404D01*
X-26633Y130386D01*
X-26672Y130365D01*
X-26709Y130341D01*
X-26745Y130314D01*
X-26778Y130284D01*
X-26808Y130252D01*
X-26836Y130217D01*
X-26861Y130180D01*
X-26882Y130141D01*
X-26900Y130100D01*
X-26200Y130400D02*
X-26162Y130365D01*
X-26127Y130327D01*
X-26094Y130287D01*
X-26065Y130244D01*
X-26039Y130200D01*
X-26016Y130153D01*
X-25996Y130105D01*
X-25980Y130056D01*
X-25968Y130006D01*
X-25959Y129955D01*
X-25954Y129904D01*
X-25952Y129852D01*
X-25954Y129801D01*
X-25960Y129749D01*
X-25970Y129699D01*
X-25983Y129649D01*
X-26000Y129600D01*
D10*
X988247Y387067D02*
X989475Y388296D01*
X988247Y387067D02*
X988247Y384610D01*
X989475Y383381D01*
X994390Y383381D01*
X995619Y384610D01*
X995619Y387067D01*
X994390Y388296D01*
X995619Y390865D02*
X995619Y395780D01*
X995619Y390865D02*
X990704Y395780D01*
X989475Y395780D01*
X988247Y394551D01*
X988247Y392094D01*
X989475Y390865D01*
X995619Y398349D02*
X995619Y403264D01*
X995619Y398349D02*
X990704Y403264D01*
X989475Y403264D01*
X988247Y402035D01*
X988247Y399578D01*
X989475Y398349D01*
X732296Y222525D02*
X731067Y223753D01*
X728610Y223753D01*
X727381Y222525D01*
X727381Y217610D01*
X728610Y216381D01*
X731067Y216381D01*
X732296Y217610D01*
X734865Y216381D02*
X739780Y216381D01*
X734865Y216381D02*
X739780Y221296D01*
X739780Y222525D01*
X738551Y223753D01*
X736094Y223753D01*
X734865Y222525D01*
X742349Y222525D02*
X743578Y223753D01*
X746035Y223753D01*
X747264Y222525D01*
X747264Y221296D01*
X746035Y220067D01*
X744807Y220067D01*
X746035Y220067D02*
X747264Y218838D01*
X747264Y217610D01*
X746035Y216381D01*
X743578Y216381D01*
X742349Y217610D01*
X399475Y284296D02*
X398247Y283067D01*
X398247Y280610D01*
X399475Y279381D01*
X404390Y279381D01*
X405619Y280610D01*
X405619Y283067D01*
X404390Y284296D01*
X405619Y286865D02*
X405619Y291780D01*
X405619Y286865D02*
X400704Y291780D01*
X399475Y291780D01*
X398247Y290551D01*
X398247Y288094D01*
X399475Y286865D01*
X398247Y294349D02*
X398247Y299264D01*
X398247Y294349D02*
X401933Y294349D01*
X400704Y296807D01*
X400704Y298035D01*
X401933Y299264D01*
X404390Y299264D01*
X405619Y298035D01*
X405619Y295578D01*
X404390Y294349D01*
X328615Y183625D02*
X329843Y182397D01*
X328615Y183625D02*
X326157Y183625D01*
X324929Y182397D01*
X324929Y177482D01*
X326157Y176253D01*
X328615Y176253D01*
X329843Y177482D01*
X332413Y176253D02*
X337328Y176253D01*
X332413Y176253D02*
X337328Y181168D01*
X337328Y182397D01*
X336099Y183625D01*
X333641Y183625D01*
X332413Y182397D01*
X339897Y183625D02*
X344812Y183625D01*
X344812Y182397D01*
X339897Y177482D01*
X339897Y176253D01*
X539067Y113753D02*
X540296Y112525D01*
X539067Y113753D02*
X536610Y113753D01*
X535381Y112525D01*
X535381Y107610D01*
X536610Y106381D01*
X539067Y106381D01*
X540296Y107610D01*
X542865Y106381D02*
X547780Y106381D01*
X542865Y106381D02*
X547780Y111296D01*
X547780Y112525D01*
X546551Y113753D01*
X544094Y113753D01*
X542865Y112525D01*
X550349Y112525D02*
X551578Y113753D01*
X554035Y113753D01*
X555264Y112525D01*
X555264Y111296D01*
X554035Y110067D01*
X555264Y108838D01*
X555264Y107610D01*
X554035Y106381D01*
X551578Y106381D01*
X550349Y107610D01*
X550349Y108838D01*
X551578Y110067D01*
X550349Y111296D01*
X550349Y112525D01*
X551578Y110067D02*
X554035Y110067D01*
X512247Y259067D02*
X513475Y260296D01*
X512247Y259067D02*
X512247Y256610D01*
X513475Y255381D01*
X518390Y255381D01*
X519619Y256610D01*
X519619Y259067D01*
X518390Y260296D01*
X519619Y262865D02*
X519619Y267780D01*
X519619Y262865D02*
X514704Y267780D01*
X513475Y267780D01*
X512247Y266551D01*
X512247Y264094D01*
X513475Y262865D01*
X512247Y274035D02*
X519619Y274035D01*
X515933Y270349D02*
X512247Y274035D01*
X515933Y275264D02*
X515933Y270349D01*
X558567Y184253D02*
X559796Y183025D01*
X558567Y184253D02*
X556110Y184253D01*
X554881Y183025D01*
X554881Y178110D01*
X556110Y176881D01*
X558567Y176881D01*
X559796Y178110D01*
X562365Y176881D02*
X567280Y176881D01*
X562365Y176881D02*
X567280Y181796D01*
X567280Y183025D01*
X566051Y184253D01*
X563594Y184253D01*
X562365Y183025D01*
X569849Y178110D02*
X571078Y176881D01*
X573535Y176881D01*
X574764Y178110D01*
X574764Y183025D01*
X573535Y184253D01*
X571078Y184253D01*
X569849Y183025D01*
X569849Y181796D01*
X571078Y180567D01*
X574764Y180567D01*
X760375Y153615D02*
X761603Y154843D01*
X760375Y153615D02*
X760375Y151157D01*
X761603Y149929D01*
X766518Y149929D01*
X767747Y151157D01*
X767747Y153615D01*
X766518Y154843D01*
X760375Y157413D02*
X760375Y162328D01*
X760375Y157413D02*
X764061Y157413D01*
X762832Y159870D01*
X762832Y161099D01*
X764061Y162328D01*
X766518Y162328D01*
X767747Y161099D01*
X767747Y158641D01*
X766518Y157413D01*
X760375Y164897D02*
X760375Y169812D01*
X760375Y164897D02*
X764061Y164897D01*
X762832Y167354D01*
X762832Y168583D01*
X764061Y169812D01*
X766518Y169812D01*
X767747Y168583D01*
X767747Y166126D01*
X766518Y164897D01*
X932067Y137753D02*
X933296Y136525D01*
X932067Y137753D02*
X929610Y137753D01*
X928381Y136525D01*
X928381Y131610D01*
X929610Y130381D01*
X932067Y130381D01*
X933296Y131610D01*
X939551Y130381D02*
X939551Y137753D01*
X935865Y134067D01*
X940780Y134067D01*
X943349Y130381D02*
X948264Y130381D01*
X943349Y130381D02*
X948264Y135296D01*
X948264Y136525D01*
X947035Y137753D01*
X944578Y137753D01*
X943349Y136525D01*
D13*
X1326500Y162500D02*
X1328500Y162500D01*
X1328500Y98500D01*
X1326500Y98500D01*
X1298500Y162500D02*
X1296500Y162500D01*
X1296500Y98500D02*
X1298500Y98500D01*
X1296500Y98500D02*
X1296500Y162500D01*
X1308500Y132500D02*
X1316500Y132500D01*
X1312500Y128500D02*
X1308500Y132500D01*
X1312500Y128500D02*
X1316500Y132500D01*
D10*
X1303662Y121381D02*
X1298747Y121381D01*
X1303662Y121381D02*
X1306119Y123838D01*
X1303662Y126296D01*
X1298747Y126296D01*
X1298747Y128865D02*
X1306119Y128865D01*
X1306119Y132551D01*
X1304890Y133780D01*
X1299975Y133780D01*
X1298747Y132551D01*
X1298747Y128865D01*
X1299975Y136349D02*
X1298747Y137578D01*
X1298747Y140035D01*
X1299975Y141264D01*
X1301204Y141264D01*
X1302433Y140035D01*
X1303662Y141264D01*
X1304890Y141264D01*
X1306119Y140035D01*
X1306119Y137578D01*
X1304890Y136349D01*
X1303662Y136349D01*
X1302433Y137578D01*
X1301204Y136349D01*
X1299975Y136349D01*
X1302433Y137578D02*
X1302433Y140035D01*
X732296Y281525D02*
X731067Y282753D01*
X728610Y282753D01*
X727381Y281525D01*
X727381Y276610D01*
X728610Y275381D01*
X731067Y275381D01*
X732296Y276610D01*
X738551Y275381D02*
X738551Y282753D01*
X734865Y279067D01*
X739780Y279067D01*
X742349Y281525D02*
X743578Y282753D01*
X746035Y282753D01*
X747264Y281525D01*
X747264Y280296D01*
X746035Y279067D01*
X744807Y279067D01*
X746035Y279067D02*
X747264Y277838D01*
X747264Y276610D01*
X746035Y275381D01*
X743578Y275381D01*
X742349Y276610D01*
X436619Y279381D02*
X429247Y279381D01*
X429247Y283067D01*
X430475Y284296D01*
X432933Y284296D01*
X434162Y283067D01*
X434162Y279381D01*
X434162Y281838D02*
X436619Y284296D01*
X436619Y286865D02*
X436619Y291780D01*
X436619Y286865D02*
X431704Y291780D01*
X430475Y291780D01*
X429247Y290551D01*
X429247Y288094D01*
X430475Y286865D01*
X436619Y294349D02*
X436619Y299264D01*
X436619Y294349D02*
X431704Y299264D01*
X430475Y299264D01*
X429247Y298035D01*
X429247Y295578D01*
X430475Y294349D01*
X928381Y167753D02*
X928381Y160381D01*
X928381Y167753D02*
X932067Y167753D01*
X933296Y166525D01*
X933296Y164067D01*
X932067Y162838D01*
X928381Y162838D01*
X930838Y162838D02*
X933296Y160381D01*
X935865Y160381D02*
X940780Y160381D01*
X935865Y160381D02*
X940780Y165296D01*
X940780Y166525D01*
X939551Y167753D01*
X937094Y167753D01*
X935865Y166525D01*
X947035Y167753D02*
X947035Y160381D01*
X943349Y164067D02*
X947035Y167753D01*
X948264Y164067D02*
X943349Y164067D01*
D13*
X1327000Y179500D02*
X1329500Y179500D01*
X1318000Y179500D02*
X1315500Y179500D01*
X1315500Y183500D01*
X1329500Y183500D02*
X1329500Y179500D01*
D10*
X1327603Y164413D02*
X1332518Y164413D01*
X1327603Y164413D02*
X1326375Y165641D01*
X1326375Y168099D01*
X1327603Y169328D01*
X1332518Y169328D01*
X1333747Y168099D01*
X1333747Y165641D01*
X1332518Y164413D01*
X1331290Y166870D02*
X1333747Y169328D01*
X1333747Y171897D02*
X1333747Y176812D01*
X1333747Y171897D02*
X1328832Y176812D01*
X1327603Y176812D01*
X1326375Y175583D01*
X1326375Y173126D01*
X1327603Y171897D01*
D13*
X140080Y240745D02*
X129920Y240745D01*
X129920Y257255D02*
X140080Y257255D01*
D18*
X138750Y249000D03*
D10*
X99603Y243843D02*
X98375Y242615D01*
X98375Y240157D01*
X99603Y238929D01*
X104518Y238929D01*
X105747Y240157D01*
X105747Y242615D01*
X104518Y243843D01*
X98375Y246413D02*
X98375Y251328D01*
X98375Y246413D02*
X102061Y246413D01*
X100832Y248870D01*
X100832Y250099D01*
X102061Y251328D01*
X104518Y251328D01*
X105747Y250099D01*
X105747Y247641D01*
X104518Y246413D01*
X99603Y253897D02*
X98375Y255126D01*
X98375Y257583D01*
X99603Y258812D01*
X100832Y258812D01*
X102061Y257583D01*
X102061Y256354D01*
X102061Y257583D02*
X103290Y258812D01*
X104518Y258812D01*
X105747Y257583D01*
X105747Y255126D01*
X104518Y253897D01*
X534067Y240253D02*
X535296Y239025D01*
X534067Y240253D02*
X531610Y240253D01*
X530381Y239025D01*
X530381Y234110D01*
X531610Y232881D01*
X534067Y232881D01*
X535296Y234110D01*
X537865Y240253D02*
X542780Y240253D01*
X537865Y240253D02*
X537865Y236567D01*
X540323Y237796D01*
X541551Y237796D01*
X542780Y236567D01*
X542780Y234110D01*
X541551Y232881D01*
X539094Y232881D01*
X537865Y234110D01*
X549035Y232881D02*
X549035Y240253D01*
X545349Y236567D01*
X550264Y236567D01*
D12*
X900000Y430500D03*
D13*
X800000Y538500D02*
X796000Y538500D01*
X796000Y534500D01*
X796000Y428500D02*
X800000Y428500D01*
X796000Y428500D02*
X796000Y432500D01*
X895000Y432500D02*
X895000Y428500D01*
X891000Y428500D01*
X895000Y534500D02*
X895000Y538500D01*
X891000Y538500D01*
D10*
X869397Y414753D02*
X866939Y414753D01*
X868168Y414753D02*
X868168Y422125D01*
X866939Y422125D02*
X869397Y422125D01*
X875615Y422125D02*
X876843Y420897D01*
X875615Y422125D02*
X873157Y422125D01*
X871929Y420897D01*
X871929Y415982D01*
X873157Y414753D01*
X875615Y414753D01*
X876843Y415982D01*
X879413Y419668D02*
X881870Y422125D01*
X881870Y414753D01*
X879413Y414753D02*
X884328Y414753D01*
X890583Y414753D02*
X890583Y422125D01*
X886897Y418439D01*
X891812Y418439D01*
D13*
X747000Y542000D02*
X673000Y542000D01*
X673000Y562000D02*
X747000Y562000D01*
D10*
X732881Y571025D02*
X732881Y572253D01*
X732881Y571025D02*
X735338Y568567D01*
X737796Y571025D01*
X737796Y572253D01*
X735338Y568567D02*
X735338Y564881D01*
X740365Y564881D02*
X745280Y564881D01*
X740365Y564881D02*
X745280Y569796D01*
X745280Y571025D01*
X744051Y572253D01*
X741594Y572253D01*
X740365Y571025D01*
D12*
X774000Y527500D03*
D13*
X769000Y514500D02*
X769000Y512000D01*
X766000Y512000D01*
X751000Y512000D02*
X751000Y514500D01*
X751000Y512000D02*
X754000Y512000D01*
X751000Y526500D02*
X751000Y529000D01*
X769000Y529000D02*
X769000Y526500D01*
X769000Y529000D02*
X766000Y529000D01*
X754000Y529000D02*
X751000Y529000D01*
D10*
X745119Y509838D02*
X745119Y507381D01*
X745119Y508610D02*
X737747Y508610D01*
X737747Y509838D02*
X737747Y507381D01*
X737747Y516057D02*
X738975Y517285D01*
X737747Y516057D02*
X737747Y513599D01*
X738975Y512370D01*
X743890Y512370D01*
X745119Y513599D01*
X745119Y516057D01*
X743890Y517285D01*
X740204Y519855D02*
X737747Y522312D01*
X745119Y522312D01*
X745119Y519855D02*
X745119Y524769D01*
X737747Y527339D02*
X737747Y532254D01*
X737747Y527339D02*
X741433Y527339D01*
X740204Y529796D01*
X740204Y531025D01*
X741433Y532254D01*
X743890Y532254D01*
X745119Y531025D01*
X745119Y528567D01*
X743890Y527339D01*
D13*
X1307000Y179500D02*
X1309500Y179500D01*
X1298000Y179500D02*
X1295500Y179500D01*
X1295500Y183500D01*
X1309500Y183500D02*
X1309500Y179500D01*
D10*
X1297390Y164413D02*
X1292475Y164413D01*
X1291247Y165641D01*
X1291247Y168099D01*
X1292475Y169328D01*
X1297390Y169328D01*
X1298619Y168099D01*
X1298619Y165641D01*
X1297390Y164413D01*
X1296162Y166870D02*
X1298619Y169328D01*
X1292475Y171897D02*
X1291247Y173126D01*
X1291247Y175583D01*
X1292475Y176812D01*
X1293704Y176812D01*
X1294933Y175583D01*
X1294933Y174354D01*
X1294933Y175583D02*
X1296162Y176812D01*
X1297390Y176812D01*
X1298619Y175583D01*
X1298619Y173126D01*
X1297390Y171897D01*
X324381Y349381D02*
X324381Y356753D01*
X328067Y356753D01*
X329296Y355525D01*
X329296Y353067D01*
X328067Y351838D01*
X324381Y351838D01*
X326838Y351838D02*
X329296Y349381D01*
X331865Y354296D02*
X334323Y356753D01*
X334323Y349381D01*
X336780Y349381D02*
X331865Y349381D01*
X341807Y355525D02*
X344264Y356753D01*
X341807Y355525D02*
X339349Y353067D01*
X339349Y350610D01*
X340578Y349381D01*
X343035Y349381D01*
X344264Y350610D01*
X344264Y351838D01*
X343035Y353067D01*
X339349Y353067D01*
D13*
X272745Y357080D02*
X272745Y346920D01*
X289255Y346920D02*
X289255Y357080D01*
D15*
X281000Y348250D03*
D10*
X305247Y355067D02*
X306475Y356296D01*
X305247Y355067D02*
X305247Y352610D01*
X306475Y351381D01*
X311390Y351381D01*
X312619Y352610D01*
X312619Y355067D01*
X311390Y356296D01*
X306475Y361323D02*
X305247Y363780D01*
X306475Y361323D02*
X308933Y358865D01*
X311390Y358865D01*
X312619Y360094D01*
X312619Y362551D01*
X311390Y363780D01*
X310162Y363780D01*
X308933Y362551D01*
X308933Y358865D01*
X305247Y366349D02*
X305247Y371264D01*
X305247Y366349D02*
X308933Y366349D01*
X307704Y368807D01*
X307704Y370035D01*
X308933Y371264D01*
X311390Y371264D01*
X312619Y370035D01*
X312619Y367578D01*
X311390Y366349D01*
X754341Y487189D02*
X755570Y485961D01*
X754341Y487189D02*
X751883Y487189D01*
X750655Y485961D01*
X750655Y481046D01*
X751883Y479817D01*
X754341Y479817D01*
X755570Y481046D01*
X760596Y485961D02*
X763054Y487189D01*
X760596Y485961D02*
X758139Y483503D01*
X758139Y481046D01*
X759368Y479817D01*
X761825Y479817D01*
X763054Y481046D01*
X763054Y482274D01*
X761825Y483503D01*
X758139Y483503D01*
X768080Y485961D02*
X770538Y487189D01*
X768080Y485961D02*
X765623Y483503D01*
X765623Y481046D01*
X766852Y479817D01*
X769309Y479817D01*
X770538Y481046D01*
X770538Y482274D01*
X769309Y483503D01*
X765623Y483503D01*
D13*
X148255Y181580D02*
X148255Y171420D01*
X131745Y171420D02*
X131745Y181580D01*
D15*
X140000Y180250D03*
D10*
X119975Y170796D02*
X118747Y169567D01*
X118747Y167110D01*
X119975Y165881D01*
X124890Y165881D01*
X126119Y167110D01*
X126119Y169567D01*
X124890Y170796D01*
X119975Y175823D02*
X118747Y178280D01*
X119975Y175823D02*
X122433Y173365D01*
X124890Y173365D01*
X126119Y174594D01*
X126119Y177051D01*
X124890Y178280D01*
X123662Y178280D01*
X122433Y177051D01*
X122433Y173365D01*
X119975Y180849D02*
X118747Y182078D01*
X118747Y184535D01*
X119975Y185764D01*
X121204Y185764D01*
X122433Y184535D01*
X123662Y185764D01*
X124890Y185764D01*
X126119Y184535D01*
X126119Y182078D01*
X124890Y180849D01*
X123662Y180849D01*
X122433Y182078D01*
X121204Y180849D01*
X119975Y180849D01*
X122433Y182078D02*
X122433Y184535D01*
D11*
X1017440Y262254D02*
X1017440Y265813D01*
X1016254Y265813D02*
X1018627Y265813D01*
X1019996Y265813D02*
X1019996Y262254D01*
X1021776Y262254D01*
X1022369Y262847D01*
X1022369Y265220D01*
X1021776Y265813D01*
X1019996Y265813D01*
X1024331Y265813D02*
X1025518Y265813D01*
X1024331Y265813D02*
X1023738Y265220D01*
X1023738Y262847D01*
X1024331Y262254D01*
X1025518Y262254D01*
X1026111Y262847D01*
X1026111Y265220D01*
X1025518Y265813D01*
D10*
X521381Y89753D02*
X521381Y82381D01*
X521381Y89753D02*
X525067Y89753D01*
X526296Y88525D01*
X526296Y86067D01*
X525067Y84838D01*
X521381Y84838D01*
X523838Y84838D02*
X526296Y82381D01*
X532551Y89753D02*
X533780Y88525D01*
X532551Y89753D02*
X530094Y89753D01*
X528865Y88525D01*
X528865Y87296D01*
X530094Y86067D01*
X532551Y86067D01*
X533780Y84838D01*
X533780Y83610D01*
X532551Y82381D01*
X530094Y82381D01*
X528865Y83610D01*
X538807Y82381D02*
X538807Y89753D01*
X541264Y89753D02*
X536349Y89753D01*
X525381Y346381D02*
X525381Y353753D01*
X530296Y353753D01*
X527838Y350067D02*
X525381Y350067D01*
X532865Y346381D02*
X532865Y353753D01*
X535323Y351296D01*
X537780Y353753D01*
X537780Y346381D01*
X610067Y414753D02*
X611296Y413525D01*
X610067Y414753D02*
X607610Y414753D01*
X606381Y413525D01*
X606381Y408610D01*
X607610Y407381D01*
X610067Y407381D01*
X611296Y408610D01*
X616323Y413525D02*
X618780Y414753D01*
X616323Y413525D02*
X613865Y411067D01*
X613865Y408610D01*
X615094Y407381D01*
X617551Y407381D01*
X618780Y408610D01*
X618780Y409838D01*
X617551Y411067D01*
X613865Y411067D01*
X621349Y408610D02*
X622578Y407381D01*
X625035Y407381D01*
X626264Y408610D01*
X626264Y413525D01*
X625035Y414753D01*
X622578Y414753D01*
X621349Y413525D01*
X621349Y412296D01*
X622578Y411067D01*
X626264Y411067D01*
X910381Y479881D02*
X910381Y487253D01*
X914067Y487253D01*
X915296Y486025D01*
X915296Y483567D01*
X914067Y482338D01*
X910381Y482338D01*
X917865Y479881D02*
X917865Y487253D01*
X921551Y487253D01*
X922780Y486025D01*
X922780Y483567D01*
X921551Y482338D01*
X917865Y482338D01*
X929035Y487253D02*
X930264Y486025D01*
X929035Y487253D02*
X926578Y487253D01*
X925349Y486025D01*
X925349Y484796D01*
X926578Y483567D01*
X929035Y483567D01*
X930264Y482338D01*
X930264Y481110D01*
X929035Y479881D01*
X926578Y479881D01*
X925349Y481110D01*
X569381Y158753D02*
X569381Y151381D01*
X569381Y158753D02*
X573067Y158753D01*
X574296Y157525D01*
X574296Y155067D01*
X573067Y153838D01*
X569381Y153838D01*
X576865Y152610D02*
X578094Y151381D01*
X579323Y151381D01*
X580551Y152610D01*
X580551Y158753D01*
X579323Y158753D02*
X581780Y158753D01*
X584349Y157525D02*
X584349Y152610D01*
X584349Y157525D02*
X585578Y158753D01*
X588035Y158753D01*
X589264Y157525D01*
X589264Y152610D01*
X588035Y151381D01*
X585578Y151381D01*
X584349Y152610D01*
X589264Y157525D01*
X799375Y153615D02*
X800603Y154843D01*
X799375Y153615D02*
X799375Y151157D01*
X800603Y149929D01*
X805518Y149929D01*
X806747Y151157D01*
X806747Y153615D01*
X805518Y154843D01*
X799375Y157413D02*
X799375Y162328D01*
X800603Y162328D01*
X805518Y157413D01*
X806747Y157413D01*
X805518Y164897D02*
X800603Y164897D01*
X799375Y166126D01*
X799375Y168583D01*
X800603Y169812D01*
X805518Y169812D01*
X806747Y168583D01*
X806747Y166126D01*
X805518Y164897D01*
X800603Y169812D01*
X868247Y336067D02*
X869475Y337296D01*
X868247Y336067D02*
X868247Y333610D01*
X869475Y332381D01*
X874390Y332381D01*
X875619Y333610D01*
X875619Y336067D01*
X874390Y337296D01*
X868247Y339865D02*
X868247Y344780D01*
X869475Y344780D01*
X874390Y339865D01*
X875619Y339865D01*
X875619Y347349D02*
X875619Y352264D01*
X875619Y347349D02*
X870704Y352264D01*
X869475Y352264D01*
X868247Y351035D01*
X868247Y348578D01*
X869475Y347349D01*
X996247Y435067D02*
X997475Y436296D01*
X996247Y435067D02*
X996247Y432610D01*
X997475Y431381D01*
X1002390Y431381D01*
X1003619Y432610D01*
X1003619Y435067D01*
X1002390Y436296D01*
X996247Y438865D02*
X996247Y443780D01*
X997475Y443780D01*
X1002390Y438865D01*
X1003619Y438865D01*
X996247Y446349D02*
X996247Y451264D01*
X996247Y446349D02*
X999933Y446349D01*
X998704Y448807D01*
X998704Y450035D01*
X999933Y451264D01*
X1002390Y451264D01*
X1003619Y450035D01*
X1003619Y447578D01*
X1002390Y446349D01*
D13*
X1010745Y451080D02*
X1010745Y440920D01*
X1027255Y440920D02*
X1027255Y451080D01*
D15*
X1019000Y442250D03*
D10*
X529929Y166625D02*
X529929Y159253D01*
X529929Y166625D02*
X533615Y166625D01*
X534843Y165397D01*
X534843Y162939D01*
X533615Y161710D01*
X529929Y161710D01*
X532386Y161710D02*
X534843Y159253D01*
X537413Y164168D02*
X539870Y166625D01*
X539870Y159253D01*
X537413Y159253D02*
X542328Y159253D01*
X544897Y160482D02*
X546126Y159253D01*
X548583Y159253D01*
X549812Y160482D01*
X549812Y165397D01*
X548583Y166625D01*
X546126Y166625D01*
X544897Y165397D01*
X544897Y164168D01*
X546126Y162939D01*
X549812Y162939D01*
X364747Y389929D02*
X357375Y389929D01*
X357375Y393615D01*
X358603Y394843D01*
X361061Y394843D01*
X362290Y393615D01*
X362290Y389929D01*
X362290Y392386D02*
X364747Y394843D01*
X364747Y397413D02*
X364747Y402328D01*
X364747Y397413D02*
X359832Y402328D01*
X358603Y402328D01*
X357375Y401099D01*
X357375Y398641D01*
X358603Y397413D01*
X357375Y404897D02*
X357375Y409812D01*
X357375Y404897D02*
X361061Y404897D01*
X359832Y407354D01*
X359832Y408583D01*
X361061Y409812D01*
X363518Y409812D01*
X364747Y408583D01*
X364747Y406126D01*
X363518Y404897D01*
M02*
