G04 EAGLE Gerber RS-274X export*
G75*
%MOMM*%
%FSLAX34Y34*%
%LPD*%
%AMOC8*
5,1,8,0,0,1.08239X$1,22.5*%
G01*
%ADD10C,1.601600*%
%ADD11C,1.101600*%
%ADD12C,0.751600*%
%ADD13C,2.101600*%
%ADD14C,0.501600*%
%ADD15R,0.660400X0.863600*%
%ADD16R,0.401600X0.771600*%
%ADD17R,0.451600X1.101600*%
%ADD18R,0.401600X0.601600*%
%ADD19R,1.501600X1.701600*%
%ADD20R,0.863600X0.660400*%
%ADD21R,0.901600X0.901600*%
%ADD22R,0.863600X0.609600*%
%ADD23R,3.601600X3.601600*%
%ADD24R,0.301600X0.751600*%
%ADD25R,0.751600X0.301600*%
%ADD26R,1.778000X0.914400*%
%ADD27R,1.501600X1.501600*%
%ADD28C,1.001600*%
%ADD29R,0.990600X1.117600*%
%ADD30R,1.117600X0.863600*%
%ADD31R,1.244600X1.371600*%
%ADD32R,1.117600X0.990600*%
%ADD33R,1.101600X2.101600*%
%ADD34R,2.101600X2.101600*%
%ADD35R,3.101600X2.101600*%
%ADD36R,1.601600X2.601600*%
%ADD37C,1.301600*%
%ADD38R,0.401600X0.701600*%
%ADD39R,0.701600X0.401600*%
%ADD40R,3.101600X3.101600*%
%ADD41C,0.711200*%
%ADD42R,1.001600X0.401600*%
%ADD43C,1.641600*%
%ADD44R,0.601600X0.451600*%
%ADD45R,0.701600X0.601600*%
%ADD46R,0.901600X1.601600*%
%ADD47R,0.351600X0.501600*%
%ADD48R,0.351600X0.601600*%
%ADD49R,0.501600X0.351600*%
%ADD50R,0.601600X0.351600*%
%ADD51R,0.331600X1.101600*%
%ADD52C,1.201600*%
%ADD53R,0.601600X1.101600*%
%ADD54R,4.401600X3.501600*%
%ADD55R,1.101600X0.601600*%
%ADD56R,3.501600X4.401600*%
%ADD57R,1.001600X1.201600*%
%ADD58R,1.201600X1.001600*%
%ADD59R,1.101600X0.751600*%
%ADD60R,0.751600X1.101600*%
%ADD61R,2.501600X1.501600*%
%ADD62R,0.301600X0.951600*%
%ADD63R,0.951600X0.301600*%
%ADD64R,4.151600X4.151600*%
%ADD65R,1.301600X2.601600*%
%ADD66R,2.601600X1.301600*%
%ADD67R,1.701600X1.904600*%
%ADD68R,1.117600X1.117600*%
%ADD69R,1.701600X1.501600*%
%ADD70R,2.901600X2.501600*%
%ADD71R,1.001600X0.331600*%
%ADD72R,0.863600X1.168400*%
%ADD73R,2.401600X1.001600*%
%ADD74R,1.101600X1.701600*%
%ADD75R,0.501600X0.751600*%
%ADD76R,1.601600X0.801600*%
%ADD77C,0.701600*%
%ADD78C,3.101600*%


D10*
X1250000Y315000D03*
D11*
X1250000Y295000D03*
X1250000Y275000D03*
X1250000Y335000D03*
X1250000Y355000D03*
D12*
X-5000Y545000D03*
X-5000Y535000D03*
X-5000Y405000D03*
X-5000Y395000D03*
X-5000Y215000D03*
X-5000Y205000D03*
X-5000Y95000D03*
X-5000Y85000D03*
X1205000Y535000D03*
X1205000Y525000D03*
X1285000Y375000D03*
X1285000Y365000D03*
X1285000Y265000D03*
X1285000Y255000D03*
X1205000Y105000D03*
X1205000Y95000D03*
X1215000Y105000D03*
X1215000Y95000D03*
D13*
X45000Y150000D03*
D10*
X45000Y180000D03*
X45000Y120000D03*
D11*
X25000Y150000D03*
X65000Y150000D03*
D12*
X-75000Y395000D03*
X-75000Y405000D03*
X-75000Y535000D03*
X-75000Y545000D03*
X1285000Y185000D03*
X1285000Y175000D03*
X1285000Y95000D03*
X1285000Y105000D03*
D14*
X672000Y172000D03*
X672000Y164000D03*
X672000Y156000D03*
X672000Y124000D03*
X672000Y116000D03*
X672000Y108000D03*
X664000Y172000D03*
X664000Y164000D03*
X664000Y156000D03*
X664000Y124000D03*
X664000Y116000D03*
X664000Y108000D03*
X656000Y172000D03*
X656000Y164000D03*
X656000Y156000D03*
X656000Y124000D03*
X656000Y116000D03*
X656000Y108000D03*
X648000Y172000D03*
X648000Y164000D03*
X648000Y156000D03*
X648000Y124000D03*
X648000Y116000D03*
X648000Y108000D03*
X640000Y172000D03*
X640000Y164000D03*
X640000Y156000D03*
X640000Y124000D03*
X640000Y116000D03*
X640000Y108000D03*
X632000Y172000D03*
X632000Y164000D03*
X632000Y156000D03*
X632000Y124000D03*
X632000Y116000D03*
X632000Y108000D03*
X624000Y172000D03*
X624000Y164000D03*
X624000Y156000D03*
X624000Y124000D03*
X624000Y116000D03*
X624000Y108000D03*
X616000Y172000D03*
X616000Y164000D03*
X616000Y156000D03*
X616000Y124000D03*
X616000Y116000D03*
X616000Y108000D03*
X608000Y172000D03*
X608000Y164000D03*
X608000Y156000D03*
X608000Y124000D03*
X608000Y116000D03*
X608000Y108000D03*
D15*
X944500Y190000D03*
X931500Y190000D03*
X944500Y203000D03*
X931500Y203000D03*
X546500Y136000D03*
X533500Y136000D03*
D16*
X835000Y53000D03*
D17*
X828750Y55650D03*
D18*
X838000Y83650D03*
D16*
X841000Y53000D03*
D18*
X844000Y83650D03*
D16*
X847000Y53000D03*
D18*
X850000Y83650D03*
D16*
X853000Y53000D03*
D18*
X856000Y83650D03*
D16*
X859000Y53000D03*
D18*
X862000Y83650D03*
D16*
X865000Y53000D03*
D18*
X868000Y83650D03*
D16*
X871000Y53000D03*
D18*
X874000Y83650D03*
D16*
X877000Y53000D03*
D18*
X880000Y83650D03*
D16*
X883000Y53000D03*
D18*
X886000Y83650D03*
D16*
X889000Y53000D03*
D18*
X892000Y83650D03*
D16*
X895000Y53000D03*
D18*
X898000Y83650D03*
D16*
X901000Y53000D03*
D18*
X904000Y83650D03*
D16*
X907000Y53000D03*
D18*
X910000Y83650D03*
D16*
X913000Y53000D03*
D18*
X916000Y83650D03*
D16*
X919000Y53000D03*
D18*
X922000Y83650D03*
D16*
X925000Y53000D03*
D18*
X928000Y83650D03*
D16*
X931000Y53000D03*
D18*
X934000Y83650D03*
D16*
X937000Y53000D03*
D18*
X940000Y83650D03*
D16*
X943000Y53000D03*
D18*
X946000Y83650D03*
D16*
X949000Y53000D03*
D18*
X952000Y83650D03*
D16*
X955000Y53000D03*
D18*
X958000Y83650D03*
D16*
X961000Y53000D03*
D18*
X964000Y83650D03*
D16*
X967000Y53000D03*
D17*
X973250Y55650D03*
D19*
X1107000Y461000D03*
X1107000Y431000D03*
D15*
X1019500Y551000D03*
X1006500Y551000D03*
X1112500Y562000D03*
X1125500Y562000D03*
X1125500Y547000D03*
X1112500Y547000D03*
D20*
X1127500Y467000D03*
X1127500Y454000D03*
D15*
X1006500Y536500D03*
X1019500Y536500D03*
D21*
X1127500Y425500D03*
X1127500Y440500D03*
D22*
X1130625Y516300D03*
X1112963Y516300D03*
X1112963Y503700D03*
X1130625Y503700D03*
D15*
X1126000Y490000D03*
X1113000Y490000D03*
X1112500Y531500D03*
X1125500Y531500D03*
D23*
X220000Y99000D03*
D24*
X238000Y123800D03*
X234000Y123800D03*
X230000Y123800D03*
X226000Y123800D03*
X222000Y123800D03*
X218000Y123800D03*
X214000Y123800D03*
X210000Y123800D03*
X206000Y123800D03*
X202000Y123800D03*
D25*
X195200Y117000D03*
X195200Y113000D03*
X195200Y109000D03*
X195200Y105000D03*
X195200Y101000D03*
X195200Y97000D03*
X195200Y93000D03*
X195200Y89000D03*
X195200Y85000D03*
X195200Y81000D03*
D24*
X202000Y74200D03*
X206000Y74200D03*
X210000Y74200D03*
X214000Y74200D03*
X218000Y74200D03*
X222000Y74200D03*
X226000Y74200D03*
X230000Y74200D03*
X234000Y74200D03*
X238000Y74200D03*
D25*
X244800Y81000D03*
X244800Y85000D03*
X244800Y89000D03*
X244800Y93000D03*
X244800Y97000D03*
X244800Y101000D03*
X244800Y105000D03*
X244800Y109000D03*
X244800Y113000D03*
X244800Y117000D03*
D26*
X883750Y598000D03*
X926250Y598000D03*
D27*
X870000Y619250D03*
X940000Y619250D03*
D28*
X892500Y615500D03*
X917500Y615500D03*
D26*
X796250Y32000D03*
X753750Y32000D03*
D27*
X810000Y10750D03*
X740000Y10750D03*
D28*
X787500Y14500D03*
X762500Y14500D03*
D26*
X696250Y32000D03*
X653750Y32000D03*
D27*
X710000Y10750D03*
X640000Y10750D03*
D28*
X687500Y14500D03*
X662500Y14500D03*
D29*
X365500Y208000D03*
X348500Y208000D03*
X535500Y197000D03*
X552500Y197000D03*
D30*
X465300Y95975D03*
X441288Y95975D03*
X441288Y77025D03*
X465300Y77025D03*
D15*
X454500Y62500D03*
X441500Y62500D03*
D20*
X481000Y83500D03*
X481000Y96500D03*
X494000Y83500D03*
X494000Y96500D03*
D15*
X353500Y168000D03*
X366500Y168000D03*
X353500Y156000D03*
X366500Y156000D03*
D31*
X415950Y65613D03*
X415950Y94388D03*
D20*
X399000Y84500D03*
X399000Y97500D03*
X399000Y74500D03*
X399000Y61500D03*
D29*
X150500Y125000D03*
X167500Y125000D03*
D32*
X236500Y25150D03*
X236500Y42150D03*
X218700Y25000D03*
X218700Y42000D03*
D15*
X1114900Y230000D03*
X1127900Y230000D03*
X1116400Y114800D03*
X1103400Y114800D03*
X1132500Y114800D03*
X1145500Y114800D03*
X1098500Y230000D03*
X1085500Y230000D03*
D20*
X201000Y43500D03*
X201000Y30500D03*
D29*
X289500Y125000D03*
X272500Y125000D03*
X150500Y92000D03*
X167500Y92000D03*
X150500Y109000D03*
X167500Y109000D03*
D15*
X156200Y75000D03*
X169200Y75000D03*
D20*
X187000Y30500D03*
X187000Y43500D03*
X172000Y30500D03*
X172000Y43500D03*
D15*
X156200Y61250D03*
X169200Y61250D03*
D29*
X272500Y109000D03*
X289500Y109000D03*
X272500Y92000D03*
X289500Y92000D03*
X289500Y76000D03*
X272500Y76000D03*
X289500Y60000D03*
X272500Y60000D03*
D20*
X903000Y166500D03*
X903000Y153500D03*
X967500Y530000D03*
X967500Y543000D03*
X975000Y363500D03*
X975000Y376500D03*
X703000Y254000D03*
X703000Y267000D03*
X595500Y254000D03*
X595500Y267000D03*
X587000Y104000D03*
X587000Y117000D03*
X900000Y335500D03*
X900000Y348500D03*
D15*
X271150Y46000D03*
X284150Y46000D03*
D20*
X254000Y43500D03*
X254000Y30500D03*
D33*
X501000Y552000D03*
X551000Y552000D03*
X1075500Y607000D03*
X985500Y607000D03*
D34*
X1175400Y207800D03*
D35*
X1136400Y207800D03*
X1086400Y207800D03*
D34*
X1175400Y135800D03*
X1103400Y135800D03*
D36*
X1081400Y135800D03*
D37*
X1103000Y170500D03*
X1173000Y170500D03*
D20*
X1075600Y570700D03*
X1075600Y583700D03*
D15*
X1019500Y492000D03*
X1006500Y492000D03*
X1006500Y506500D03*
X1019500Y506500D03*
D20*
X476000Y270500D03*
X476000Y257500D03*
D21*
X476000Y301500D03*
X476000Y286500D03*
D15*
X833500Y103500D03*
X820500Y103500D03*
D38*
X1080500Y552000D03*
X1075500Y552000D03*
X1070500Y552000D03*
X1065500Y552000D03*
X1060500Y552000D03*
X1055500Y552000D03*
X1050500Y552000D03*
X1045500Y552000D03*
D39*
X1040000Y546500D03*
X1040000Y541500D03*
X1040000Y536500D03*
X1040000Y531500D03*
X1040000Y526500D03*
X1040000Y521500D03*
X1040000Y516500D03*
X1040000Y511500D03*
D38*
X1045500Y506000D03*
X1050500Y506000D03*
X1055500Y506000D03*
X1060500Y506000D03*
X1065500Y506000D03*
X1070500Y506000D03*
X1075500Y506000D03*
X1080500Y506000D03*
D39*
X1086000Y511500D03*
X1086000Y516500D03*
X1086000Y521500D03*
X1086000Y526500D03*
X1086000Y531500D03*
X1086000Y536500D03*
X1086000Y541500D03*
X1086000Y546500D03*
D40*
X1063000Y529000D03*
D15*
X919500Y103500D03*
X932500Y103500D03*
D20*
X980500Y443500D03*
X980500Y430500D03*
D12*
X68250Y350750D03*
D41*
X61750Y342750D03*
X54750Y338750D03*
X54750Y330750D03*
X61750Y326750D03*
X54750Y322750D03*
X61750Y318750D03*
X61750Y310750D03*
X54750Y306750D03*
X61750Y302750D03*
X54750Y298750D03*
X54750Y290750D03*
X61750Y286750D03*
D12*
X68250Y278750D03*
D42*
X73850Y342250D03*
X73850Y337250D03*
X73850Y332250D03*
X73850Y327250D03*
X73850Y322250D03*
X73850Y317250D03*
X73850Y312250D03*
X73850Y307250D03*
X73850Y302250D03*
X73850Y297250D03*
X73850Y292250D03*
X73850Y287250D03*
D18*
X83750Y348450D03*
X83750Y327250D03*
X83750Y302250D03*
X83750Y280950D03*
D43*
X55750Y356050D03*
X55750Y273450D03*
X11850Y359650D03*
X11850Y269850D03*
D15*
X944500Y243000D03*
X931500Y243000D03*
X979500Y243000D03*
X966500Y243000D03*
X1014500Y243000D03*
X1001500Y243000D03*
X743500Y310000D03*
X730500Y310000D03*
D44*
X1180250Y108750D03*
X1180250Y102250D03*
X1180250Y95750D03*
X1180250Y89250D03*
X1159750Y89250D03*
X1159750Y95750D03*
X1159750Y102250D03*
X1159750Y108750D03*
D15*
X1145500Y96000D03*
X1132500Y96000D03*
X743500Y245000D03*
X730500Y245000D03*
D20*
X962000Y363500D03*
X962000Y376500D03*
D45*
X353000Y131000D03*
X366000Y131000D03*
D46*
X365500Y117000D03*
X348500Y117000D03*
D47*
X1095000Y90025D03*
D48*
X1091000Y89500D03*
X1087000Y89500D03*
X1083000Y89500D03*
X1079000Y89500D03*
D47*
X1075000Y90025D03*
D49*
X1069975Y85000D03*
D50*
X1070500Y81000D03*
X1070500Y77000D03*
X1070500Y73000D03*
X1070500Y69000D03*
D49*
X1069975Y65000D03*
D47*
X1075000Y59975D03*
D48*
X1079000Y60500D03*
X1083000Y60500D03*
X1087000Y60500D03*
X1091000Y60500D03*
D47*
X1095000Y59975D03*
D49*
X1100025Y65000D03*
D50*
X1099500Y69000D03*
X1099500Y73000D03*
X1099500Y77000D03*
X1099500Y81000D03*
D49*
X1100025Y85000D03*
D15*
X1050500Y67500D03*
X1037500Y67500D03*
D51*
X959500Y471000D03*
X963500Y471000D03*
X967500Y471000D03*
X971500Y471000D03*
X975500Y471000D03*
X975500Y505000D03*
X971500Y505000D03*
X967500Y505000D03*
X963500Y505000D03*
X959500Y505000D03*
D28*
X-35000Y507500D03*
X-35000Y457500D03*
D15*
X1006500Y521500D03*
X1019500Y521500D03*
D52*
X15000Y240000D03*
X75000Y240000D03*
X42500Y380000D03*
X62500Y570000D03*
X22500Y380000D03*
X22500Y570000D03*
X1190000Y400000D03*
X1150000Y230000D03*
X1190000Y230000D03*
X1150000Y70000D03*
X1190000Y70000D03*
X1190000Y560000D03*
X-40000Y380000D03*
X-60000Y380000D03*
X-20000Y570000D03*
X-60000Y570000D03*
X1270000Y400000D03*
X1230000Y230000D03*
X1270000Y230000D03*
X1230000Y70000D03*
X1270000Y70000D03*
X1270000Y560000D03*
X1340000Y230000D03*
X1300000Y230000D03*
X1340000Y400000D03*
D14*
X682000Y322000D03*
X682000Y314000D03*
X682000Y306000D03*
X682000Y274000D03*
X682000Y266000D03*
X682000Y258000D03*
X674000Y322000D03*
X674000Y314000D03*
X674000Y306000D03*
X674000Y274000D03*
X674000Y266000D03*
X674000Y258000D03*
X666000Y322000D03*
X666000Y314000D03*
X666000Y306000D03*
X666000Y274000D03*
X666000Y266000D03*
X666000Y258000D03*
X658000Y322000D03*
X658000Y314000D03*
X658000Y306000D03*
X658000Y274000D03*
X658000Y266000D03*
X658000Y258000D03*
X650000Y322000D03*
X650000Y314000D03*
X650000Y306000D03*
X650000Y274000D03*
X650000Y266000D03*
X650000Y258000D03*
X642000Y322000D03*
X642000Y314000D03*
X642000Y306000D03*
X642000Y274000D03*
X642000Y266000D03*
X642000Y258000D03*
X634000Y322000D03*
X634000Y314000D03*
X634000Y306000D03*
X634000Y274000D03*
X634000Y266000D03*
X634000Y258000D03*
X626000Y322000D03*
X626000Y314000D03*
X626000Y306000D03*
X626000Y274000D03*
X626000Y266000D03*
X626000Y258000D03*
X618000Y322000D03*
X618000Y314000D03*
X618000Y306000D03*
X618000Y274000D03*
X618000Y266000D03*
X618000Y258000D03*
X900000Y190000D03*
X900000Y198000D03*
X900000Y206000D03*
X900000Y214000D03*
X900000Y222000D03*
X900000Y230000D03*
X900000Y238000D03*
X900000Y246000D03*
X900000Y254000D03*
X900000Y262000D03*
X900000Y270000D03*
X900000Y278000D03*
X900000Y286000D03*
X900000Y294000D03*
X900000Y302000D03*
X900000Y310000D03*
X892000Y190000D03*
X892000Y198000D03*
X892000Y206000D03*
X892000Y214000D03*
X892000Y222000D03*
X892000Y230000D03*
X892000Y238000D03*
X892000Y246000D03*
X892000Y254000D03*
X892000Y262000D03*
X892000Y270000D03*
X892000Y278000D03*
X892000Y286000D03*
X892000Y294000D03*
X892000Y302000D03*
X892000Y310000D03*
X884000Y190000D03*
X884000Y198000D03*
X884000Y206000D03*
X884000Y214000D03*
X884000Y222000D03*
X884000Y230000D03*
X884000Y238000D03*
X884000Y246000D03*
X884000Y254000D03*
X884000Y262000D03*
X884000Y270000D03*
X884000Y278000D03*
X884000Y286000D03*
X884000Y294000D03*
X884000Y302000D03*
X884000Y310000D03*
X876000Y190000D03*
X876000Y198000D03*
X876000Y206000D03*
X876000Y214000D03*
X876000Y222000D03*
X876000Y230000D03*
X876000Y238000D03*
X876000Y246000D03*
X876000Y254000D03*
X876000Y262000D03*
X876000Y270000D03*
X876000Y278000D03*
X876000Y286000D03*
X876000Y294000D03*
X876000Y302000D03*
X876000Y310000D03*
X868000Y190000D03*
X868000Y198000D03*
X868000Y206000D03*
X868000Y214000D03*
X868000Y222000D03*
X868000Y230000D03*
X868000Y238000D03*
X868000Y246000D03*
X868000Y254000D03*
X868000Y262000D03*
X868000Y270000D03*
X868000Y278000D03*
X868000Y286000D03*
X868000Y294000D03*
X868000Y302000D03*
X868000Y310000D03*
X860000Y190000D03*
X860000Y198000D03*
X860000Y206000D03*
X860000Y214000D03*
X860000Y222000D03*
X860000Y230000D03*
X860000Y238000D03*
X860000Y246000D03*
X860000Y254000D03*
X860000Y262000D03*
X860000Y270000D03*
X860000Y278000D03*
X860000Y286000D03*
X860000Y294000D03*
X860000Y302000D03*
X860000Y310000D03*
X852000Y190000D03*
X852000Y198000D03*
X852000Y206000D03*
X852000Y214000D03*
X852000Y222000D03*
X852000Y230000D03*
X852000Y238000D03*
X852000Y246000D03*
X852000Y254000D03*
X852000Y262000D03*
X852000Y270000D03*
X852000Y278000D03*
X852000Y286000D03*
X852000Y294000D03*
X852000Y302000D03*
X852000Y310000D03*
X844000Y190000D03*
X844000Y198000D03*
X844000Y206000D03*
X844000Y214000D03*
X844000Y222000D03*
X844000Y230000D03*
X844000Y238000D03*
X844000Y246000D03*
X844000Y254000D03*
X844000Y262000D03*
X844000Y270000D03*
X844000Y278000D03*
X844000Y286000D03*
X844000Y294000D03*
X844000Y302000D03*
X844000Y310000D03*
X836000Y190000D03*
X836000Y198000D03*
X836000Y206000D03*
X836000Y214000D03*
X836000Y222000D03*
X836000Y230000D03*
X836000Y238000D03*
X836000Y246000D03*
X836000Y254000D03*
X836000Y262000D03*
X836000Y270000D03*
X836000Y278000D03*
X836000Y286000D03*
X836000Y294000D03*
X836000Y302000D03*
X836000Y310000D03*
X828000Y190000D03*
X828000Y198000D03*
X828000Y206000D03*
X828000Y214000D03*
X828000Y222000D03*
X828000Y230000D03*
X828000Y238000D03*
X828000Y246000D03*
X828000Y254000D03*
X828000Y262000D03*
X828000Y270000D03*
X828000Y278000D03*
X828000Y286000D03*
X828000Y294000D03*
X828000Y302000D03*
X828000Y310000D03*
X820000Y190000D03*
X820000Y198000D03*
X820000Y206000D03*
X820000Y214000D03*
X820000Y222000D03*
X820000Y230000D03*
X820000Y238000D03*
X820000Y246000D03*
X820000Y254000D03*
X820000Y262000D03*
X820000Y270000D03*
X820000Y278000D03*
X820000Y286000D03*
X820000Y294000D03*
X820000Y302000D03*
X820000Y310000D03*
X812000Y190000D03*
X812000Y198000D03*
X812000Y206000D03*
X812000Y214000D03*
X812000Y222000D03*
X812000Y230000D03*
X812000Y238000D03*
X812000Y246000D03*
X812000Y254000D03*
X812000Y262000D03*
X812000Y270000D03*
X812000Y278000D03*
X812000Y286000D03*
X812000Y294000D03*
X812000Y302000D03*
X812000Y310000D03*
X804000Y190000D03*
X804000Y198000D03*
X804000Y206000D03*
X804000Y214000D03*
X804000Y222000D03*
X804000Y230000D03*
X804000Y238000D03*
X804000Y246000D03*
X804000Y254000D03*
X804000Y262000D03*
X804000Y270000D03*
X804000Y278000D03*
X804000Y286000D03*
X804000Y294000D03*
X804000Y302000D03*
X804000Y310000D03*
X796000Y190000D03*
X796000Y198000D03*
X796000Y206000D03*
X796000Y214000D03*
X796000Y222000D03*
X796000Y230000D03*
X796000Y238000D03*
X796000Y246000D03*
X796000Y254000D03*
X796000Y262000D03*
X796000Y270000D03*
X796000Y278000D03*
X796000Y286000D03*
X796000Y294000D03*
X796000Y302000D03*
X796000Y310000D03*
X788000Y190000D03*
X788000Y198000D03*
X788000Y206000D03*
X788000Y214000D03*
X788000Y222000D03*
X788000Y230000D03*
X788000Y238000D03*
X788000Y246000D03*
X788000Y254000D03*
X788000Y262000D03*
X788000Y270000D03*
X788000Y278000D03*
X788000Y286000D03*
X788000Y294000D03*
X788000Y302000D03*
X788000Y310000D03*
X780000Y190000D03*
X780000Y198000D03*
X780000Y206000D03*
X780000Y214000D03*
X780000Y222000D03*
X780000Y230000D03*
X780000Y238000D03*
X780000Y246000D03*
X780000Y254000D03*
X780000Y262000D03*
X780000Y270000D03*
X780000Y278000D03*
X780000Y286000D03*
X780000Y294000D03*
X780000Y302000D03*
X780000Y310000D03*
X394000Y124000D03*
X402000Y124000D03*
X410000Y124000D03*
X418000Y124000D03*
X426000Y124000D03*
X434000Y124000D03*
X442000Y124000D03*
X450000Y124000D03*
X458000Y124000D03*
X466000Y124000D03*
X474000Y124000D03*
X482000Y124000D03*
X490000Y124000D03*
X498000Y124000D03*
X506000Y124000D03*
X394000Y132000D03*
X402000Y132000D03*
X410000Y132000D03*
X418000Y132000D03*
X426000Y132000D03*
X434000Y132000D03*
X442000Y132000D03*
X450000Y132000D03*
X458000Y132000D03*
X466000Y132000D03*
X474000Y132000D03*
X482000Y132000D03*
X490000Y132000D03*
X498000Y132000D03*
X506000Y132000D03*
X394000Y140000D03*
X402000Y140000D03*
X410000Y140000D03*
X418000Y140000D03*
X426000Y140000D03*
X434000Y140000D03*
X442000Y140000D03*
X450000Y140000D03*
X458000Y140000D03*
X466000Y140000D03*
X474000Y140000D03*
X482000Y140000D03*
X490000Y140000D03*
X498000Y140000D03*
X506000Y140000D03*
X394000Y148000D03*
X402000Y148000D03*
X410000Y148000D03*
X418000Y148000D03*
X426000Y148000D03*
X434000Y148000D03*
X442000Y148000D03*
X450000Y148000D03*
X458000Y148000D03*
X466000Y148000D03*
X474000Y148000D03*
X482000Y148000D03*
X490000Y148000D03*
X498000Y148000D03*
X506000Y148000D03*
X394000Y156000D03*
X402000Y156000D03*
X410000Y156000D03*
X418000Y156000D03*
X426000Y156000D03*
X434000Y156000D03*
X442000Y156000D03*
X450000Y156000D03*
X458000Y156000D03*
X466000Y156000D03*
X474000Y156000D03*
X482000Y156000D03*
X490000Y156000D03*
X498000Y156000D03*
X506000Y156000D03*
X394000Y164000D03*
X402000Y164000D03*
X410000Y164000D03*
X418000Y164000D03*
X426000Y164000D03*
X434000Y164000D03*
X442000Y164000D03*
X450000Y164000D03*
X458000Y164000D03*
X466000Y164000D03*
X474000Y164000D03*
X482000Y164000D03*
X490000Y164000D03*
X498000Y164000D03*
X506000Y164000D03*
X394000Y172000D03*
X402000Y172000D03*
X410000Y172000D03*
X418000Y172000D03*
X426000Y172000D03*
X434000Y172000D03*
X466000Y172000D03*
X474000Y172000D03*
X482000Y172000D03*
X490000Y172000D03*
X498000Y172000D03*
X506000Y172000D03*
X394000Y180000D03*
X402000Y180000D03*
X410000Y180000D03*
X418000Y180000D03*
X426000Y180000D03*
X434000Y180000D03*
X466000Y180000D03*
X474000Y180000D03*
X482000Y180000D03*
X490000Y180000D03*
X498000Y180000D03*
X506000Y180000D03*
X394000Y188000D03*
X402000Y188000D03*
X410000Y188000D03*
X418000Y188000D03*
X426000Y188000D03*
X434000Y188000D03*
X466000Y188000D03*
X474000Y188000D03*
X482000Y188000D03*
X490000Y188000D03*
X498000Y188000D03*
X506000Y188000D03*
X394000Y196000D03*
X402000Y196000D03*
X410000Y196000D03*
X418000Y196000D03*
X426000Y196000D03*
X434000Y196000D03*
X442000Y196000D03*
X450000Y196000D03*
X458000Y196000D03*
X466000Y196000D03*
X474000Y196000D03*
X482000Y196000D03*
X490000Y196000D03*
X498000Y196000D03*
X506000Y196000D03*
X394000Y204000D03*
X402000Y204000D03*
X410000Y204000D03*
X418000Y204000D03*
X426000Y204000D03*
X434000Y204000D03*
X442000Y204000D03*
X450000Y204000D03*
X458000Y204000D03*
X466000Y204000D03*
X474000Y204000D03*
X482000Y204000D03*
X490000Y204000D03*
X498000Y204000D03*
X506000Y204000D03*
X394000Y212000D03*
X402000Y212000D03*
X410000Y212000D03*
X418000Y212000D03*
X426000Y212000D03*
X434000Y212000D03*
X442000Y212000D03*
X450000Y212000D03*
X458000Y212000D03*
X466000Y212000D03*
X474000Y212000D03*
X482000Y212000D03*
X490000Y212000D03*
X498000Y212000D03*
X506000Y212000D03*
X394000Y220000D03*
X402000Y220000D03*
X410000Y220000D03*
X418000Y220000D03*
X426000Y220000D03*
X434000Y220000D03*
X442000Y220000D03*
X450000Y220000D03*
X458000Y220000D03*
X466000Y220000D03*
X474000Y220000D03*
X482000Y220000D03*
X490000Y220000D03*
X498000Y220000D03*
X506000Y220000D03*
X394000Y228000D03*
X402000Y228000D03*
X410000Y228000D03*
X418000Y228000D03*
X426000Y228000D03*
X434000Y228000D03*
X442000Y228000D03*
X450000Y228000D03*
X458000Y228000D03*
X466000Y228000D03*
X474000Y228000D03*
X482000Y228000D03*
X490000Y228000D03*
X498000Y228000D03*
X506000Y228000D03*
X394000Y236000D03*
X402000Y236000D03*
X410000Y236000D03*
X418000Y236000D03*
X426000Y236000D03*
X434000Y236000D03*
X442000Y236000D03*
X450000Y236000D03*
X458000Y236000D03*
X466000Y236000D03*
X474000Y236000D03*
X482000Y236000D03*
X490000Y236000D03*
X498000Y236000D03*
X506000Y236000D03*
D53*
X1043950Y418000D03*
X1056650Y418000D03*
X1069350Y418000D03*
X1082050Y418000D03*
X1082050Y474000D03*
X1069350Y474000D03*
X1056650Y474000D03*
X1043950Y474000D03*
D54*
X1063000Y446000D03*
D20*
X693000Y104000D03*
X693000Y117000D03*
D55*
X974000Y201050D03*
X974000Y188350D03*
X974000Y175650D03*
X974000Y162950D03*
X1030000Y162950D03*
X1030000Y175650D03*
X1030000Y188350D03*
X1030000Y201050D03*
D56*
X1002000Y182000D03*
D57*
X417000Y381000D03*
X431000Y381000D03*
X445000Y381000D03*
X459000Y381000D03*
X473000Y381000D03*
X487000Y381000D03*
X501000Y381000D03*
X515000Y381000D03*
X529000Y381000D03*
X543000Y381000D03*
X557000Y381000D03*
X571000Y381000D03*
X445000Y397000D03*
D58*
X430000Y396000D03*
X414000Y396000D03*
X430000Y410000D03*
X414000Y410000D03*
X414000Y508000D03*
X414000Y494000D03*
X414000Y480000D03*
X414000Y466000D03*
X414000Y452000D03*
X414000Y438000D03*
X414000Y424000D03*
D57*
X543000Y397000D03*
D58*
X558000Y396000D03*
X574000Y396000D03*
X574000Y410000D03*
X574000Y424000D03*
X574000Y438000D03*
X574000Y452000D03*
X574000Y466000D03*
X574000Y480000D03*
X574000Y494000D03*
X574000Y508000D03*
X558000Y508000D03*
X430000Y508000D03*
D57*
X571000Y523000D03*
X557000Y523000D03*
X543000Y523000D03*
X529000Y523000D03*
X515000Y523000D03*
X501000Y523000D03*
X487000Y523000D03*
X473000Y523000D03*
X459000Y523000D03*
X445000Y523000D03*
X431000Y523000D03*
X417000Y523000D03*
D58*
X430000Y494000D03*
X430000Y480000D03*
X430000Y466000D03*
X430000Y452000D03*
X430000Y438000D03*
X430000Y424000D03*
D57*
X459000Y397000D03*
X473000Y397000D03*
X487000Y397000D03*
X501000Y397000D03*
X515000Y397000D03*
X529000Y397000D03*
D58*
X558000Y410000D03*
X558000Y424000D03*
X558000Y438000D03*
X558000Y452000D03*
X558000Y466000D03*
X558000Y480000D03*
X558000Y494000D03*
D57*
X543000Y507000D03*
X529000Y507000D03*
X515000Y507000D03*
X501000Y507000D03*
X487000Y507000D03*
X473000Y507000D03*
X459000Y507000D03*
X445000Y507000D03*
D59*
X150000Y428000D03*
X150000Y439000D03*
X150000Y450000D03*
X150000Y461000D03*
X150000Y472000D03*
X150000Y483000D03*
X150000Y494000D03*
X150000Y505000D03*
D60*
X225500Y466500D03*
X251000Y466500D03*
X276500Y466500D03*
X237000Y468500D03*
X262500Y468500D03*
X288000Y468500D03*
D55*
X342500Y405000D03*
X342500Y420000D03*
D61*
X62500Y380000D03*
X154000Y380000D03*
X328500Y380000D03*
X329000Y560000D03*
X154500Y560000D03*
X102500Y560000D03*
D55*
X342500Y475000D03*
D60*
X62500Y466500D03*
X88000Y466500D03*
X113500Y466500D03*
X74000Y468500D03*
X99500Y468500D03*
X125000Y468500D03*
D62*
X242000Y295500D03*
X238000Y295500D03*
X234000Y295500D03*
X230000Y295500D03*
X226000Y295500D03*
X222000Y295500D03*
X218000Y295500D03*
X214000Y295500D03*
X210000Y295500D03*
X206000Y295500D03*
X202000Y295500D03*
X198000Y295500D03*
D63*
X190500Y288000D03*
X190500Y284000D03*
X190500Y280000D03*
X190500Y276000D03*
X190500Y272000D03*
X190500Y268000D03*
X190500Y264000D03*
X190500Y260000D03*
X190500Y256000D03*
X190500Y252000D03*
X190500Y248000D03*
X190500Y244000D03*
D62*
X198000Y236500D03*
X202000Y236500D03*
X206000Y236500D03*
X210000Y236500D03*
X214000Y236500D03*
X218000Y236500D03*
X222000Y236500D03*
X226000Y236500D03*
X230000Y236500D03*
X234000Y236500D03*
X238000Y236500D03*
X242000Y236500D03*
D63*
X249500Y244000D03*
X249500Y248000D03*
X249500Y252000D03*
X249500Y256000D03*
X249500Y260000D03*
X249500Y264000D03*
X249500Y268000D03*
X249500Y272000D03*
X249500Y276000D03*
X249500Y280000D03*
X249500Y284000D03*
X249500Y288000D03*
D64*
X222000Y268000D03*
D29*
X288000Y169000D03*
X271000Y169000D03*
D65*
X152000Y275100D03*
X128000Y275100D03*
X128000Y219500D03*
X152000Y219500D03*
D66*
X220000Y193500D03*
X220000Y169500D03*
D65*
X311000Y220500D03*
X287000Y220500D03*
D29*
X302500Y316000D03*
X285500Y316000D03*
D67*
X288780Y293000D03*
X317220Y293000D03*
D19*
X187000Y337000D03*
X187000Y367000D03*
D20*
X207000Y344500D03*
X207000Y331500D03*
X207000Y372500D03*
X207000Y359500D03*
D68*
X271440Y191050D03*
X304360Y191050D03*
D69*
X289000Y248000D03*
X319000Y248000D03*
X289000Y270000D03*
X319000Y270000D03*
D19*
X226000Y337000D03*
X226000Y367000D03*
D70*
X374000Y514500D03*
X374000Y451500D03*
D19*
X250300Y191800D03*
X250300Y161800D03*
D69*
X150000Y301000D03*
X120000Y301000D03*
D71*
X953206Y336000D03*
X953206Y332000D03*
X953206Y328000D03*
X953206Y324000D03*
X953206Y320000D03*
X953206Y316000D03*
X953206Y312000D03*
X953206Y308000D03*
X953206Y304000D03*
X953206Y300000D03*
X953206Y296000D03*
X953206Y292000D03*
X996394Y336000D03*
X996394Y332000D03*
X996394Y328000D03*
X996394Y324000D03*
X996394Y320000D03*
X996394Y316000D03*
X996394Y312000D03*
X996394Y308000D03*
X996394Y304000D03*
X996394Y300000D03*
X996394Y296000D03*
X996394Y292000D03*
D19*
X257000Y337000D03*
X257000Y367000D03*
D11*
X365000Y245000D03*
X365000Y228000D03*
D19*
X166000Y191500D03*
X166000Y161500D03*
D72*
X145500Y356500D03*
X155000Y334500D03*
X136000Y334500D03*
D15*
X149000Y319000D03*
X136000Y319000D03*
D20*
X185000Y183500D03*
X185000Y196500D03*
X197000Y196500D03*
X197000Y183500D03*
D15*
X366500Y143000D03*
X353500Y143000D03*
D20*
X967500Y430500D03*
X967500Y443500D03*
X954500Y430500D03*
X954500Y443500D03*
D15*
X1050500Y82500D03*
X1037500Y82500D03*
D69*
X1070000Y34000D03*
X1100000Y34000D03*
D20*
X490000Y270500D03*
X490000Y257500D03*
D21*
X490000Y301500D03*
X490000Y286500D03*
D20*
X608000Y465000D03*
X608000Y452000D03*
D21*
X608000Y506000D03*
X608000Y491000D03*
D20*
X988000Y363500D03*
X988000Y376500D03*
D15*
X743500Y232000D03*
X730500Y232000D03*
D20*
X402000Y257500D03*
X402000Y270500D03*
D15*
X366500Y180000D03*
X353500Y180000D03*
X533500Y121000D03*
X546500Y121000D03*
D20*
X504000Y257500D03*
X504000Y270500D03*
D15*
X533500Y180000D03*
X546500Y180000D03*
D20*
X776000Y166500D03*
X776000Y153500D03*
D15*
X944500Y177000D03*
X931500Y177000D03*
D52*
X-90000Y570000D03*
X-130000Y570000D03*
X-110000Y380000D03*
X-130000Y380000D03*
D73*
X1312500Y162500D03*
X1312500Y98500D03*
D74*
X1312500Y143500D03*
X1312500Y117500D03*
D52*
X1325000Y80000D03*
X1325000Y200000D03*
D15*
X743500Y267000D03*
X730500Y267000D03*
D52*
X1300000Y200000D03*
D20*
X434000Y270500D03*
X434000Y257500D03*
D15*
X931500Y216000D03*
X944500Y216000D03*
D52*
X1130000Y395000D03*
X1010000Y395000D03*
X1010000Y370000D03*
D75*
X1327500Y188250D03*
X1322500Y176750D03*
X1317500Y188250D03*
D52*
X15000Y60000D03*
X75000Y60000D03*
X-85000Y240000D03*
X-25000Y240000D03*
X-85000Y60000D03*
X-25000Y60000D03*
D69*
X150000Y249000D03*
X120000Y249000D03*
D15*
X533500Y225000D03*
X546500Y225000D03*
D76*
X894000Y439500D03*
X894000Y450500D03*
X894000Y461500D03*
X894000Y472500D03*
X894000Y483500D03*
X894000Y494500D03*
X894000Y505500D03*
X894000Y516500D03*
X894000Y527500D03*
X797000Y527500D03*
X797000Y516500D03*
X797000Y505500D03*
X797000Y494500D03*
X797000Y483500D03*
X797000Y472500D03*
X797000Y461500D03*
X797000Y450500D03*
X797000Y439500D03*
D33*
X755000Y552000D03*
X665000Y552000D03*
D18*
X765000Y524500D03*
X760000Y524500D03*
X755000Y524500D03*
X755000Y516500D03*
X760000Y516500D03*
X765000Y516500D03*
D52*
X1300000Y80000D03*
X1130000Y370000D03*
D75*
X1307500Y188250D03*
X1302500Y176750D03*
X1297500Y188250D03*
D46*
X320500Y337000D03*
X303500Y337000D03*
D19*
X281000Y337000D03*
X281000Y367000D03*
D15*
X768000Y495000D03*
X755000Y495000D03*
D19*
X140000Y191500D03*
X140000Y161500D03*
D77*
X1021500Y255500D03*
D11*
X512000Y86000D03*
X515000Y350000D03*
D29*
X608500Y424000D03*
X625500Y424000D03*
D11*
X920000Y472500D03*
X563000Y164000D03*
D20*
X791000Y166500D03*
X791000Y153500D03*
X885000Y335500D03*
X885000Y348500D03*
D19*
X1019000Y431000D03*
X1019000Y461000D03*
D15*
X546500Y151000D03*
X533500Y151000D03*
D20*
X374000Y407000D03*
X374000Y420000D03*
D78*
X1165000Y35000D03*
X1165000Y595000D03*
X35000Y595000D03*
X35000Y35000D03*
M02*
