G04 EAGLE Gerber RS-274X export*
G75*
%MOMM*%
%FSLAX34Y34*%
%LPD*%
%AMOC8*
5,1,8,0,0,1.08239X$1,22.5*%
G01*
%ADD10C,1.601600*%
%ADD11C,1.101600*%
%ADD12C,0.751600*%
%ADD13C,2.101600*%
%ADD14C,1.001600*%
%ADD15R,0.660400X0.863600*%
%ADD16C,1.301600*%
%ADD17R,0.501600X1.051600*%
%ADD18R,0.451600X2.401600*%
%ADD19R,1.401600X0.451600*%
%ADD20R,2.901600X1.601600*%
%ADD21C,0.711200*%
%ADD22C,1.641600*%
%ADD23R,0.701600X0.821600*%
%ADD24R,0.451600X0.601600*%
%ADD25R,0.863600X0.660400*%
%ADD26R,0.401600X0.701600*%
%ADD27R,2.201600X1.601600*%
%ADD28R,1.601600X1.601600*%
%ADD29R,2.601600X2.101600*%
%ADD30C,1.201600*%
%ADD31R,2.601600X2.901600*%
%ADD32R,1.101600X2.101600*%
%ADD33R,4.101600X4.101600*%
%ADD34C,3.101600*%


D10*
X1250000Y315000D03*
D11*
X1250000Y295000D03*
X1250000Y275000D03*
X1250000Y335000D03*
X1250000Y355000D03*
D12*
X-5000Y545000D03*
X-5000Y535000D03*
X-5000Y405000D03*
X-5000Y395000D03*
X-5000Y215000D03*
X-5000Y205000D03*
X-5000Y95000D03*
X-5000Y85000D03*
X1205000Y535000D03*
X1205000Y525000D03*
X1285000Y375000D03*
X1285000Y365000D03*
X1285000Y265000D03*
X1285000Y255000D03*
X1205000Y105000D03*
X1205000Y95000D03*
X1215000Y105000D03*
X1215000Y95000D03*
D13*
X45000Y150000D03*
D10*
X45000Y180000D03*
X45000Y120000D03*
D11*
X25000Y150000D03*
X65000Y150000D03*
D12*
X-75000Y395000D03*
X-75000Y405000D03*
X-75000Y535000D03*
X-75000Y545000D03*
X1285000Y185000D03*
X1285000Y175000D03*
X1285000Y95000D03*
X1285000Y105000D03*
D14*
X892500Y615500D03*
X917500Y615500D03*
X787500Y14500D03*
X762500Y14500D03*
X687500Y14500D03*
X662500Y14500D03*
D15*
X32500Y448000D03*
X45500Y448000D03*
D16*
X1103000Y170500D03*
X1173000Y170500D03*
D17*
X42000Y476250D03*
X42000Y489750D03*
X34000Y489750D03*
X34000Y476250D03*
D18*
X25500Y483000D03*
X50500Y483000D03*
D19*
X38000Y500500D03*
X38000Y465500D03*
D20*
X1307000Y383000D03*
X1307000Y248000D03*
D12*
X68250Y350750D03*
D21*
X61750Y342750D03*
X54750Y338750D03*
X54750Y330750D03*
X61750Y326750D03*
X54750Y322750D03*
X61750Y318750D03*
X61750Y310750D03*
X54750Y306750D03*
X61750Y302750D03*
X54750Y298750D03*
X54750Y290750D03*
X61750Y286750D03*
D12*
X68250Y278750D03*
D22*
X55750Y356050D03*
X55750Y273450D03*
X11850Y359650D03*
X11850Y269850D03*
D23*
X1223000Y554550D03*
X1223000Y544850D03*
X1223000Y535150D03*
X1223000Y525450D03*
X1237000Y525450D03*
X1237000Y535150D03*
X1237000Y544850D03*
X1237000Y554550D03*
D24*
X1226750Y161500D03*
X1233250Y161500D03*
X1233250Y188500D03*
X1226750Y188500D03*
D25*
X1258500Y201500D03*
X1258500Y188500D03*
X1250000Y174500D03*
X1250000Y161500D03*
D15*
X1246500Y202500D03*
X1233500Y202500D03*
D26*
X1242500Y123500D03*
X1247500Y123500D03*
X1252500Y123500D03*
X1257500Y123500D03*
X1257500Y98500D03*
X1252500Y98500D03*
X1247500Y98500D03*
X1242500Y98500D03*
D27*
X1250000Y111000D03*
D28*
X-50000Y520000D03*
X-50000Y495000D03*
X-50000Y470000D03*
X-50000Y445000D03*
D29*
X-30000Y417500D03*
X-30000Y547500D03*
D14*
X-35000Y507500D03*
X-35000Y457500D03*
D30*
X15000Y240000D03*
X75000Y240000D03*
X42500Y380000D03*
X62500Y570000D03*
X22500Y380000D03*
X22500Y570000D03*
X1190000Y400000D03*
X1150000Y230000D03*
X1190000Y230000D03*
X1150000Y70000D03*
X1190000Y70000D03*
X1190000Y560000D03*
X-40000Y380000D03*
X-60000Y380000D03*
X-20000Y570000D03*
X-60000Y570000D03*
X1270000Y400000D03*
X1230000Y230000D03*
X1270000Y230000D03*
X1230000Y70000D03*
X1270000Y70000D03*
X1270000Y560000D03*
X1340000Y230000D03*
X1300000Y230000D03*
X1340000Y400000D03*
D31*
X-84000Y214000D03*
X-84000Y86000D03*
D30*
X-90000Y570000D03*
X-130000Y570000D03*
X-110000Y380000D03*
X-130000Y380000D03*
X1325000Y80000D03*
X1325000Y200000D03*
X1300000Y200000D03*
X1130000Y395000D03*
X1010000Y395000D03*
X1010000Y370000D03*
X15000Y60000D03*
X75000Y60000D03*
X-85000Y240000D03*
X-25000Y240000D03*
X-85000Y60000D03*
X-25000Y60000D03*
D25*
X1259000Y546500D03*
X1259000Y533500D03*
D32*
X1297500Y180000D03*
X1327500Y180000D03*
D33*
X1312500Y140000D03*
D30*
X1300000Y80000D03*
X1130000Y370000D03*
D34*
X1165000Y35000D03*
X1165000Y595000D03*
X35000Y595000D03*
X35000Y35000D03*
M02*
