G75*
%MOIN*%
%OFA0B0*%
%FSLAX25Y25*%
%IPPOS*%
%LPD*%
%AMOC8*
5,1,8,0,0,1.08239X$1,22.5*
%
%ADD10C,0.00300*%
%ADD11C,0.01000*%
%ADD12C,0.00500*%
%ADD13C,0.00197*%
%ADD14C,0.00551*%
%ADD15R,0.01000X0.10000*%
%ADD16R,0.06063X0.00984*%
%ADD17R,0.01634X0.05315*%
%ADD18R,0.05315X0.01634*%
%ADD19C,0.00400*%
%ADD20R,0.12000X0.02000*%
%ADD21C,0.00800*%
%ADD22C,0.00787*%
%ADD23R,0.00984X0.06063*%
%ADD24R,0.00400X0.00100*%
%ADD25R,0.01500X0.00100*%
%ADD26R,0.01000X0.00100*%
%ADD27R,0.01300X0.00100*%
%ADD28R,0.01900X0.00100*%
%ADD29R,0.00500X0.00100*%
%ADD30R,0.02600X0.00100*%
%ADD31R,0.00200X0.00100*%
%ADD32R,0.00300X0.00100*%
%ADD33R,0.00900X0.00100*%
%ADD34R,0.00100X0.00100*%
%ADD35R,0.00700X0.00100*%
%ADD36R,0.00600X0.00100*%
%ADD37R,0.00800X0.00100*%
%ADD38R,0.02200X0.00100*%
%ADD39R,0.04500X0.00100*%
%ADD40R,0.01400X0.00100*%
%ADD41R,0.01600X0.00100*%
%ADD42R,0.01100X0.00100*%
%ADD43R,0.01200X0.00100*%
%ADD44R,0.02000X0.00100*%
%ADD45R,0.02300X0.00100*%
D10*
X0058689Y0030978D02*
X0058689Y0033881D01*
X0060141Y0033881D01*
X0060624Y0033397D01*
X0060624Y0032430D01*
X0060141Y0031946D01*
X0058689Y0031946D01*
X0059657Y0031946D02*
X0060624Y0030978D01*
X0061636Y0031462D02*
X0062120Y0030978D01*
X0063087Y0030978D01*
X0063571Y0031462D01*
X0063571Y0032430D01*
X0063087Y0032913D01*
X0062603Y0032913D01*
X0061636Y0032430D01*
X0061636Y0033881D01*
X0063571Y0033881D01*
X0064582Y0033397D02*
X0065066Y0033881D01*
X0066034Y0033881D01*
X0066517Y0033397D01*
X0064582Y0031462D01*
X0065066Y0030978D01*
X0066034Y0030978D01*
X0066517Y0031462D01*
X0066517Y0033397D01*
X0064582Y0033397D02*
X0064582Y0031462D01*
X0065350Y0029405D02*
X0063899Y0027954D01*
X0065834Y0027954D01*
X0066845Y0027954D02*
X0068296Y0029405D01*
X0068296Y0026503D01*
X0068780Y0027954D02*
X0066845Y0027954D01*
X0065350Y0026503D02*
X0065350Y0029405D01*
X0062887Y0028922D02*
X0062403Y0029405D01*
X0060952Y0029405D01*
X0060952Y0026503D01*
X0060952Y0027470D02*
X0062403Y0027470D01*
X0062887Y0027954D01*
X0062887Y0028922D01*
X0061920Y0027470D02*
X0062887Y0026503D01*
X0078412Y0025872D02*
X0078412Y0027323D01*
X0078896Y0027807D01*
X0079863Y0027807D01*
X0080347Y0027323D01*
X0080347Y0025872D01*
X0081315Y0025872D02*
X0078412Y0025872D01*
X0080347Y0026840D02*
X0081315Y0027807D01*
X0081315Y0028819D02*
X0079380Y0030754D01*
X0078896Y0030754D01*
X0078412Y0030270D01*
X0078412Y0029302D01*
X0078896Y0028819D01*
X0081315Y0028819D02*
X0081315Y0030754D01*
X0080831Y0031765D02*
X0080347Y0031765D01*
X0079863Y0032249D01*
X0079863Y0033216D01*
X0080347Y0033700D01*
X0080831Y0033700D01*
X0081315Y0033216D01*
X0081315Y0032249D01*
X0080831Y0031765D01*
X0079863Y0032249D02*
X0079380Y0031765D01*
X0078896Y0031765D01*
X0078412Y0032249D01*
X0078412Y0033216D01*
X0078896Y0033700D01*
X0079380Y0033700D01*
X0079863Y0033216D01*
X0082940Y0033216D02*
X0082940Y0032249D01*
X0083423Y0031765D01*
X0083907Y0031765D01*
X0084391Y0032249D01*
X0084391Y0033700D01*
X0085358Y0033700D02*
X0083423Y0033700D01*
X0082940Y0033216D01*
X0082940Y0030754D02*
X0082940Y0028819D01*
X0084391Y0028819D01*
X0083907Y0029786D01*
X0083907Y0030270D01*
X0084391Y0030754D01*
X0085358Y0030754D01*
X0085842Y0030270D01*
X0085842Y0029302D01*
X0085358Y0028819D01*
X0085358Y0027807D02*
X0085842Y0027323D01*
X0085842Y0026356D01*
X0085358Y0025872D01*
X0083423Y0025872D01*
X0082940Y0026356D01*
X0082940Y0027323D01*
X0083423Y0027807D01*
X0085358Y0031765D02*
X0085842Y0032249D01*
X0085842Y0033216D01*
X0085358Y0033700D01*
X0095894Y0028476D02*
X0095894Y0026541D01*
X0096378Y0026057D01*
X0097345Y0026057D01*
X0097829Y0026541D01*
X0098841Y0026541D02*
X0099324Y0026057D01*
X0100292Y0026057D01*
X0100776Y0026541D01*
X0100776Y0027025D01*
X0100292Y0027508D01*
X0099808Y0027508D01*
X0100292Y0027508D02*
X0100776Y0027992D01*
X0100776Y0028476D01*
X0100292Y0028960D01*
X0099324Y0028960D01*
X0098841Y0028476D01*
X0097829Y0028476D02*
X0097345Y0028960D01*
X0096378Y0028960D01*
X0095894Y0028476D01*
X0099390Y0025005D02*
X0098906Y0024521D01*
X0098906Y0022586D01*
X0099390Y0022102D01*
X0100357Y0022102D01*
X0100841Y0022586D01*
X0100841Y0024521D01*
X0100357Y0025005D01*
X0099390Y0025005D01*
X0101852Y0024521D02*
X0101852Y0024037D01*
X0102336Y0023554D01*
X0103304Y0023554D01*
X0103787Y0023070D01*
X0103787Y0022586D01*
X0103304Y0022102D01*
X0102336Y0022102D01*
X0101852Y0022586D01*
X0101852Y0024521D02*
X0102336Y0025005D01*
X0103304Y0025005D01*
X0103787Y0024521D01*
X0104799Y0024521D02*
X0104799Y0022586D01*
X0105283Y0022102D01*
X0106250Y0022102D01*
X0106734Y0022586D01*
X0107745Y0022586D02*
X0108229Y0022102D01*
X0109197Y0022102D01*
X0109680Y0022586D01*
X0109680Y0023070D01*
X0109197Y0023554D01*
X0108713Y0023554D01*
X0109197Y0023554D02*
X0109680Y0024037D01*
X0109680Y0024521D01*
X0109197Y0025005D01*
X0108229Y0025005D01*
X0107745Y0024521D01*
X0106734Y0024521D02*
X0106250Y0025005D01*
X0105283Y0025005D01*
X0104799Y0024521D01*
X0103238Y0026057D02*
X0103722Y0026541D01*
X0103722Y0027508D01*
X0103238Y0027992D01*
X0102755Y0027992D01*
X0101787Y0027508D01*
X0101787Y0028960D01*
X0103722Y0028960D01*
X0103238Y0026057D02*
X0102271Y0026057D01*
X0101787Y0026541D01*
X0094216Y0021399D02*
X0091314Y0021399D01*
X0092765Y0019948D01*
X0092765Y0021883D01*
X0090673Y0021399D02*
X0090189Y0021883D01*
X0089705Y0021883D01*
X0089222Y0021399D01*
X0089222Y0019948D01*
X0090189Y0019948D01*
X0090673Y0020432D01*
X0090673Y0021399D01*
X0089222Y0019948D02*
X0088254Y0020915D01*
X0087770Y0021883D01*
X0088254Y0018936D02*
X0087770Y0018453D01*
X0087770Y0017001D01*
X0090673Y0017001D01*
X0090673Y0018453D01*
X0090189Y0018936D01*
X0088254Y0018936D01*
X0087770Y0015990D02*
X0087770Y0014055D01*
X0090673Y0014055D01*
X0090673Y0015990D01*
X0091314Y0015990D02*
X0091314Y0014055D01*
X0094216Y0014055D01*
X0094216Y0015990D01*
X0094216Y0017001D02*
X0094216Y0018453D01*
X0093732Y0018936D01*
X0091797Y0018936D01*
X0091314Y0018453D01*
X0091314Y0017001D01*
X0094216Y0017001D01*
X0092765Y0015022D02*
X0092765Y0014055D01*
X0094216Y0013043D02*
X0094216Y0011108D01*
X0091314Y0011108D01*
X0090673Y0011108D02*
X0090673Y0013043D01*
X0089222Y0014055D02*
X0089222Y0015022D01*
X0087770Y0011108D02*
X0090673Y0011108D01*
X0115185Y0010596D02*
X0115669Y0010112D01*
X0116637Y0010112D01*
X0117120Y0010596D01*
X0118132Y0010596D02*
X0118616Y0010112D01*
X0119583Y0010112D01*
X0120067Y0010596D01*
X0120067Y0011080D01*
X0119583Y0011564D01*
X0119099Y0011564D01*
X0119583Y0011564D02*
X0120067Y0012047D01*
X0120067Y0012531D01*
X0119583Y0013015D01*
X0118616Y0013015D01*
X0118132Y0012531D01*
X0117120Y0012531D02*
X0116637Y0013015D01*
X0115669Y0013015D01*
X0115185Y0012531D01*
X0115185Y0010596D01*
X0121078Y0011564D02*
X0123013Y0011564D01*
X0122530Y0013015D02*
X0121078Y0011564D01*
X0122530Y0013015D02*
X0122530Y0010112D01*
X0117642Y0016030D02*
X0118126Y0016513D01*
X0118126Y0017481D01*
X0117642Y0017965D01*
X0117642Y0018976D02*
X0118126Y0019460D01*
X0118126Y0020427D01*
X0117642Y0020911D01*
X0117158Y0020911D01*
X0116674Y0020427D01*
X0116674Y0019944D01*
X0116674Y0020427D02*
X0116191Y0020911D01*
X0115707Y0020911D01*
X0115223Y0020427D01*
X0115223Y0019460D01*
X0115707Y0018976D01*
X0115707Y0017965D02*
X0115223Y0017481D01*
X0115223Y0016513D01*
X0115707Y0016030D01*
X0117642Y0016030D01*
X0118126Y0021923D02*
X0116191Y0023858D01*
X0115707Y0023858D01*
X0115223Y0023374D01*
X0115223Y0022406D01*
X0115707Y0021923D01*
X0118126Y0021923D02*
X0118126Y0023858D01*
X0125402Y0025145D02*
X0125402Y0027080D01*
X0125886Y0027564D01*
X0126853Y0027564D01*
X0127337Y0027080D01*
X0127337Y0025145D01*
X0126853Y0024662D01*
X0125886Y0024662D01*
X0125402Y0025145D01*
X0128348Y0025145D02*
X0128832Y0024662D01*
X0129800Y0024662D01*
X0130283Y0025145D01*
X0130283Y0025629D01*
X0129800Y0026113D01*
X0128832Y0026113D01*
X0128348Y0026596D01*
X0128348Y0027080D01*
X0128832Y0027564D01*
X0129800Y0027564D01*
X0130283Y0027080D01*
X0131295Y0027080D02*
X0131295Y0025145D01*
X0131779Y0024662D01*
X0132746Y0024662D01*
X0133230Y0025145D01*
X0134242Y0024662D02*
X0136177Y0026596D01*
X0136177Y0027080D01*
X0135693Y0027564D01*
X0134725Y0027564D01*
X0134242Y0027080D01*
X0133230Y0027080D02*
X0132746Y0027564D01*
X0131779Y0027564D01*
X0131295Y0027080D01*
X0134242Y0024662D02*
X0136177Y0024662D01*
X0140382Y0027829D02*
X0140382Y0030731D01*
X0141834Y0030731D01*
X0142317Y0030248D01*
X0142317Y0029280D01*
X0141834Y0028796D01*
X0140382Y0028796D01*
X0141350Y0028796D02*
X0142317Y0027829D01*
X0143329Y0027829D02*
X0145264Y0029764D01*
X0145264Y0030248D01*
X0144780Y0030731D01*
X0143813Y0030731D01*
X0143329Y0030248D01*
X0143329Y0027829D02*
X0145264Y0027829D01*
X0146275Y0028313D02*
X0146759Y0027829D01*
X0147727Y0027829D01*
X0148210Y0028313D01*
X0148210Y0028796D01*
X0147727Y0029280D01*
X0146275Y0029280D01*
X0146275Y0028313D01*
X0146275Y0029280D02*
X0147243Y0030248D01*
X0148210Y0030731D01*
X0147936Y0022464D02*
X0146968Y0022464D01*
X0146485Y0021980D01*
X0146485Y0020045D01*
X0146968Y0019561D01*
X0147936Y0019561D01*
X0148420Y0020045D01*
X0149431Y0020045D02*
X0149915Y0019561D01*
X0150882Y0019561D01*
X0151366Y0020045D01*
X0151366Y0020529D01*
X0150882Y0021012D01*
X0149431Y0021012D01*
X0149431Y0020045D01*
X0149431Y0021012D02*
X0150399Y0021980D01*
X0151366Y0022464D01*
X0152378Y0021980D02*
X0152861Y0022464D01*
X0153829Y0022464D01*
X0154313Y0021980D01*
X0154313Y0021496D01*
X0152378Y0019561D01*
X0154313Y0019561D01*
X0148420Y0021980D02*
X0147936Y0022464D01*
X0147940Y0012818D02*
X0148908Y0012818D01*
X0149391Y0012334D01*
X0149391Y0011850D01*
X0148908Y0011367D01*
X0149391Y0010883D01*
X0149391Y0010399D01*
X0148908Y0009915D01*
X0147940Y0009915D01*
X0147456Y0010399D01*
X0146445Y0010399D02*
X0145961Y0009915D01*
X0144994Y0009915D01*
X0144510Y0010399D01*
X0143498Y0010399D02*
X0143015Y0009915D01*
X0142047Y0009915D01*
X0141563Y0010399D01*
X0141563Y0012334D01*
X0142047Y0012818D01*
X0143015Y0012818D01*
X0143498Y0012334D01*
X0144510Y0012334D02*
X0144994Y0012818D01*
X0145961Y0012818D01*
X0146445Y0012334D01*
X0146445Y0011850D01*
X0145961Y0011367D01*
X0146445Y0010883D01*
X0146445Y0010399D01*
X0145961Y0011367D02*
X0145477Y0011367D01*
X0147456Y0012334D02*
X0147940Y0012818D01*
X0148424Y0011367D02*
X0148908Y0011367D01*
X0189930Y0026494D02*
X0190413Y0026010D01*
X0191381Y0026010D01*
X0191865Y0026494D01*
X0191865Y0026978D01*
X0191381Y0027462D01*
X0190413Y0027462D01*
X0189930Y0027945D01*
X0189930Y0028429D01*
X0190413Y0028913D01*
X0191381Y0028913D01*
X0191865Y0028429D01*
X0192876Y0028429D02*
X0192876Y0026494D01*
X0193360Y0026010D01*
X0194327Y0026010D01*
X0194811Y0026494D01*
X0195823Y0026010D02*
X0195823Y0028913D01*
X0196306Y0029750D02*
X0195823Y0030234D01*
X0196306Y0029750D02*
X0197274Y0029750D01*
X0197758Y0030234D01*
X0197758Y0030718D01*
X0197274Y0031202D01*
X0196306Y0031202D01*
X0195823Y0031685D01*
X0195823Y0032169D01*
X0196306Y0032653D01*
X0197274Y0032653D01*
X0197758Y0032169D01*
X0198769Y0032653D02*
X0199737Y0032653D01*
X0199253Y0032653D02*
X0199253Y0029750D01*
X0198769Y0029750D02*
X0199737Y0029750D01*
X0194811Y0030234D02*
X0194811Y0032169D01*
X0194327Y0032653D01*
X0193360Y0032653D01*
X0192876Y0032169D01*
X0192876Y0030234D01*
X0193360Y0029750D01*
X0194327Y0029750D01*
X0194811Y0030234D01*
X0194327Y0028913D02*
X0193360Y0028913D01*
X0192876Y0028429D01*
X0194327Y0028913D02*
X0194811Y0028429D01*
X0195823Y0026010D02*
X0197758Y0026010D01*
X0198578Y0023794D02*
X0198578Y0022343D01*
X0199546Y0022827D01*
X0200030Y0022827D01*
X0200513Y0022343D01*
X0200513Y0021376D01*
X0200030Y0020892D01*
X0199062Y0020892D01*
X0198578Y0021376D01*
X0197567Y0020892D02*
X0195632Y0020892D01*
X0196599Y0020892D02*
X0196599Y0023794D01*
X0195632Y0022827D01*
X0194620Y0023794D02*
X0192685Y0020892D01*
X0194620Y0020892D02*
X0192685Y0023794D01*
X0198578Y0023794D02*
X0200513Y0023794D01*
X0206358Y0016921D02*
X0205874Y0016438D01*
X0205874Y0015470D01*
X0206358Y0014986D01*
X0207809Y0014986D01*
X0207809Y0014503D02*
X0207809Y0016921D01*
X0206358Y0016921D01*
X0208821Y0016438D02*
X0208821Y0015470D01*
X0209305Y0014986D01*
X0210272Y0014986D01*
X0210756Y0015954D02*
X0208821Y0015954D01*
X0208821Y0016438D02*
X0209305Y0016921D01*
X0210272Y0016921D01*
X0210756Y0016438D01*
X0210756Y0015954D01*
X0211767Y0015954D02*
X0213702Y0015954D01*
X0213702Y0016438D01*
X0213219Y0016921D01*
X0212251Y0016921D01*
X0211767Y0016438D01*
X0211767Y0015470D01*
X0212251Y0014986D01*
X0213219Y0014986D01*
X0212750Y0013755D02*
X0212750Y0010852D01*
X0211753Y0010852D02*
X0211269Y0011336D01*
X0211269Y0013271D01*
X0210785Y0012787D02*
X0211753Y0012787D01*
X0212750Y0012304D02*
X0213233Y0012787D01*
X0214201Y0012787D01*
X0214685Y0012304D01*
X0214685Y0010852D01*
X0215696Y0011336D02*
X0216180Y0010852D01*
X0217631Y0010852D01*
X0217631Y0012787D01*
X0218643Y0012787D02*
X0220094Y0012787D01*
X0220578Y0012304D01*
X0220578Y0011336D01*
X0220094Y0010852D01*
X0218643Y0010852D01*
X0218643Y0013755D01*
X0218621Y0014986D02*
X0219104Y0015470D01*
X0218621Y0015954D01*
X0217653Y0015954D01*
X0217169Y0016438D01*
X0217653Y0016921D01*
X0219104Y0016921D01*
X0220116Y0016921D02*
X0220116Y0014019D01*
X0220116Y0014986D02*
X0221567Y0014986D01*
X0222051Y0015470D01*
X0222051Y0016438D01*
X0221567Y0016921D01*
X0220116Y0016921D01*
X0218621Y0014986D02*
X0217169Y0014986D01*
X0216165Y0014986D02*
X0214714Y0015954D01*
X0216165Y0016921D01*
X0214714Y0017889D02*
X0214714Y0014986D01*
X0215696Y0012787D02*
X0215696Y0011336D01*
X0221589Y0011336D02*
X0222073Y0011336D01*
X0222073Y0010852D01*
X0221589Y0010852D01*
X0221589Y0011336D01*
X0223062Y0011336D02*
X0223546Y0010852D01*
X0224997Y0010852D01*
X0226009Y0011336D02*
X0226493Y0010852D01*
X0227460Y0010852D01*
X0227944Y0011336D01*
X0227944Y0012304D01*
X0227460Y0012787D01*
X0226493Y0012787D01*
X0226009Y0012304D01*
X0226009Y0011336D01*
X0224997Y0012787D02*
X0223546Y0012787D01*
X0223062Y0012304D01*
X0223062Y0011336D01*
X0223062Y0014986D02*
X0223062Y0017889D01*
X0223546Y0016921D02*
X0224514Y0016921D01*
X0224997Y0016438D01*
X0224997Y0014986D01*
X0226009Y0015470D02*
X0226009Y0016438D01*
X0226493Y0016921D01*
X0227460Y0016921D01*
X0227944Y0016438D01*
X0227944Y0015470D01*
X0227460Y0014986D01*
X0226493Y0014986D01*
X0226009Y0015470D01*
X0223546Y0016921D02*
X0223062Y0016438D01*
X0228955Y0016921D02*
X0228955Y0014986D01*
X0228955Y0016921D02*
X0230407Y0016921D01*
X0230890Y0016438D01*
X0230890Y0014986D01*
X0231902Y0015470D02*
X0231902Y0016438D01*
X0232386Y0016921D01*
X0233353Y0016921D01*
X0233837Y0016438D01*
X0233837Y0015954D01*
X0231902Y0015954D01*
X0231902Y0015470D02*
X0232386Y0014986D01*
X0233353Y0014986D01*
X0233837Y0013755D02*
X0231902Y0010852D01*
X0230890Y0010852D02*
X0230890Y0012304D01*
X0230407Y0012787D01*
X0229923Y0012304D01*
X0229923Y0010852D01*
X0228955Y0010852D02*
X0228955Y0012787D01*
X0229439Y0012787D01*
X0229923Y0012304D01*
X0234848Y0012787D02*
X0236300Y0012787D01*
X0236783Y0012304D01*
X0236783Y0010852D01*
X0237795Y0011336D02*
X0237795Y0012304D01*
X0238279Y0012787D01*
X0239246Y0012787D01*
X0239730Y0012304D01*
X0239730Y0011820D01*
X0237795Y0011820D01*
X0237795Y0011336D02*
X0238279Y0010852D01*
X0239246Y0010852D01*
X0241225Y0011336D02*
X0241709Y0010852D01*
X0241225Y0011336D02*
X0241225Y0013271D01*
X0240742Y0012787D02*
X0241709Y0012787D01*
X0242706Y0012304D02*
X0242706Y0011336D01*
X0243190Y0010852D01*
X0244641Y0010852D01*
X0245652Y0011336D02*
X0246136Y0011820D01*
X0247587Y0011820D01*
X0247587Y0012304D02*
X0247587Y0010852D01*
X0246136Y0010852D01*
X0245652Y0011336D01*
X0246136Y0012787D02*
X0247104Y0012787D01*
X0247587Y0012304D01*
X0248599Y0012787D02*
X0249566Y0012787D01*
X0249083Y0013271D02*
X0249083Y0011336D01*
X0249566Y0010852D01*
X0250563Y0011336D02*
X0251047Y0010852D01*
X0252498Y0010852D01*
X0252498Y0012787D01*
X0250563Y0012787D02*
X0250563Y0011336D01*
X0246613Y0014986D02*
X0245645Y0014986D01*
X0245161Y0015470D01*
X0247096Y0017405D01*
X0247096Y0015470D01*
X0246613Y0014986D01*
X0245161Y0015470D02*
X0245161Y0017405D01*
X0245645Y0017889D01*
X0246613Y0017889D01*
X0247096Y0017405D01*
X0244172Y0015470D02*
X0244172Y0014986D01*
X0243688Y0014986D01*
X0243688Y0015470D01*
X0244172Y0015470D01*
X0242677Y0014986D02*
X0240742Y0014986D01*
X0241709Y0014986D02*
X0241709Y0017889D01*
X0240742Y0016921D01*
X0239730Y0016921D02*
X0238762Y0014986D01*
X0237795Y0016921D01*
X0234848Y0012787D02*
X0234848Y0010852D01*
X0242706Y0012304D02*
X0243190Y0012787D01*
X0244641Y0012787D01*
X0209788Y0010852D02*
X0208821Y0010852D01*
X0209305Y0010852D02*
X0209305Y0012787D01*
X0208821Y0012787D01*
X0207809Y0012787D02*
X0207809Y0010369D01*
X0207326Y0009885D01*
X0206842Y0009885D01*
X0206358Y0010852D02*
X0207809Y0010852D01*
X0206358Y0010852D02*
X0205874Y0011336D01*
X0205874Y0012304D01*
X0206358Y0012787D01*
X0207809Y0012787D01*
X0207326Y0014019D02*
X0207809Y0014503D01*
X0207326Y0014019D02*
X0206842Y0014019D01*
X0209305Y0014239D02*
X0209305Y0013755D01*
X0191865Y0029750D02*
X0191865Y0032653D01*
X0190897Y0031685D01*
X0189930Y0032653D01*
X0189930Y0029750D01*
X0188448Y0036246D02*
X0185546Y0036246D01*
X0186513Y0037214D01*
X0185546Y0038181D01*
X0188448Y0038181D01*
X0188448Y0039193D02*
X0188448Y0040160D01*
X0188448Y0039676D02*
X0185546Y0039676D01*
X0185546Y0039193D02*
X0185546Y0040160D01*
X0186029Y0041157D02*
X0186513Y0041157D01*
X0186997Y0041641D01*
X0186997Y0042608D01*
X0187481Y0043092D01*
X0187964Y0043092D01*
X0188448Y0042608D01*
X0188448Y0041641D01*
X0187964Y0041157D01*
X0186029Y0041157D02*
X0185546Y0041641D01*
X0185546Y0042608D01*
X0186029Y0043092D01*
X0186029Y0044104D02*
X0187964Y0044104D01*
X0188448Y0044587D01*
X0188448Y0045555D01*
X0187964Y0046039D01*
X0186029Y0046039D01*
X0185546Y0045555D01*
X0185546Y0044587D01*
X0186029Y0044104D01*
X0182707Y0039149D02*
X0181256Y0037698D01*
X0183191Y0037698D01*
X0182707Y0036247D02*
X0182707Y0039149D01*
X0180244Y0038182D02*
X0180244Y0036247D01*
X0180244Y0037698D02*
X0178309Y0037698D01*
X0178309Y0038182D02*
X0179277Y0039149D01*
X0180244Y0038182D01*
X0178309Y0038182D02*
X0178309Y0036247D01*
X0177298Y0037698D02*
X0176814Y0037214D01*
X0175363Y0037214D01*
X0175363Y0036247D02*
X0175363Y0039149D01*
X0176814Y0039149D01*
X0177298Y0038665D01*
X0177298Y0037698D01*
X0192388Y0047222D02*
X0192872Y0046738D01*
X0194807Y0046738D01*
X0195291Y0047222D01*
X0195291Y0048190D01*
X0194807Y0048673D01*
X0194807Y0049685D02*
X0195291Y0050169D01*
X0195291Y0051136D01*
X0194807Y0051620D01*
X0193840Y0051620D01*
X0193356Y0051136D01*
X0193356Y0050652D01*
X0193840Y0049685D01*
X0192388Y0049685D01*
X0192388Y0051620D01*
X0192872Y0052631D02*
X0193356Y0052631D01*
X0193840Y0053115D01*
X0193840Y0054083D01*
X0194323Y0054566D01*
X0194807Y0054566D01*
X0195291Y0054083D01*
X0195291Y0053115D01*
X0194807Y0052631D01*
X0194323Y0052631D01*
X0193840Y0053115D01*
X0193840Y0054083D02*
X0193356Y0054566D01*
X0192872Y0054566D01*
X0192388Y0054083D01*
X0192388Y0053115D01*
X0192872Y0052631D01*
X0192872Y0048673D02*
X0192388Y0048190D01*
X0192388Y0047222D01*
X0192172Y0059278D02*
X0191689Y0059762D01*
X0193624Y0061697D01*
X0193624Y0059762D01*
X0193140Y0059278D01*
X0192172Y0059278D01*
X0191689Y0059762D02*
X0191689Y0061697D01*
X0192172Y0062181D01*
X0193140Y0062181D01*
X0193624Y0061697D01*
X0190677Y0061697D02*
X0190677Y0061213D01*
X0190193Y0060729D01*
X0188742Y0060729D01*
X0187731Y0060729D02*
X0187247Y0060246D01*
X0185796Y0060246D01*
X0185796Y0059278D02*
X0185796Y0062181D01*
X0187247Y0062181D01*
X0187731Y0061697D01*
X0187731Y0060729D01*
X0188742Y0059278D02*
X0190193Y0059278D01*
X0190677Y0059762D01*
X0190677Y0060246D01*
X0190193Y0060729D01*
X0190677Y0061697D02*
X0190193Y0062181D01*
X0188742Y0062181D01*
X0188742Y0059278D01*
X0188738Y0070754D02*
X0190673Y0070754D01*
X0191157Y0071238D01*
X0191157Y0072205D01*
X0190673Y0072689D01*
X0190673Y0073701D02*
X0191157Y0074184D01*
X0191157Y0075152D01*
X0190673Y0075636D01*
X0189706Y0075636D01*
X0189222Y0075152D01*
X0189222Y0074668D01*
X0189706Y0073701D01*
X0188255Y0073701D01*
X0188255Y0075636D01*
X0188255Y0076647D02*
X0189706Y0076647D01*
X0189222Y0077615D01*
X0189222Y0078098D01*
X0189706Y0078582D01*
X0190673Y0078582D01*
X0191157Y0078098D01*
X0191157Y0077131D01*
X0190673Y0076647D01*
X0188255Y0076647D02*
X0188255Y0078582D01*
X0188738Y0072689D02*
X0188255Y0072205D01*
X0188255Y0071238D01*
X0188738Y0070754D01*
X0188191Y0091267D02*
X0188675Y0091750D01*
X0188191Y0091267D02*
X0187223Y0091267D01*
X0186740Y0091750D01*
X0186740Y0093685D01*
X0187223Y0094169D01*
X0188191Y0094169D01*
X0188675Y0093685D01*
X0189686Y0094169D02*
X0189686Y0092718D01*
X0190654Y0093202D01*
X0191137Y0093202D01*
X0191621Y0092718D01*
X0191621Y0091750D01*
X0191137Y0091267D01*
X0190170Y0091267D01*
X0189686Y0091750D01*
X0189686Y0094169D02*
X0191621Y0094169D01*
X0192633Y0092718D02*
X0192633Y0091750D01*
X0193116Y0091267D01*
X0194084Y0091267D01*
X0194568Y0091750D01*
X0194568Y0092234D01*
X0194084Y0092718D01*
X0192633Y0092718D01*
X0193600Y0093685D01*
X0194568Y0094169D01*
X0184472Y0109887D02*
X0184956Y0110371D01*
X0184956Y0111338D01*
X0184472Y0111822D01*
X0183988Y0111822D01*
X0183505Y0111338D01*
X0183505Y0110371D01*
X0183021Y0109887D01*
X0182537Y0109887D01*
X0182053Y0110371D01*
X0182053Y0111338D01*
X0182537Y0111822D01*
X0182053Y0112833D02*
X0182053Y0114285D01*
X0182537Y0114768D01*
X0184472Y0114768D01*
X0184956Y0114285D01*
X0184956Y0112833D01*
X0182053Y0112833D01*
X0183021Y0115780D02*
X0182053Y0116747D01*
X0183021Y0117715D01*
X0184956Y0117715D01*
X0183505Y0117715D02*
X0183505Y0115780D01*
X0183021Y0115780D02*
X0184956Y0115780D01*
X0190703Y0116369D02*
X0190703Y0117337D01*
X0191187Y0117821D01*
X0190703Y0118832D02*
X0193606Y0118832D01*
X0193606Y0120767D01*
X0193122Y0117821D02*
X0193606Y0117337D01*
X0193606Y0116369D01*
X0193122Y0115886D01*
X0191187Y0115886D01*
X0190703Y0116369D01*
X0191187Y0114874D02*
X0190703Y0114390D01*
X0190703Y0113423D01*
X0191187Y0112939D01*
X0191671Y0112939D01*
X0192154Y0113423D01*
X0192154Y0114390D01*
X0192638Y0114874D01*
X0193122Y0114874D01*
X0193606Y0114390D01*
X0193606Y0113423D01*
X0193122Y0112939D01*
X0189748Y0124489D02*
X0187813Y0124489D01*
X0188781Y0124489D02*
X0188781Y0127392D01*
X0187813Y0126424D01*
X0186802Y0126424D02*
X0186318Y0125940D01*
X0186802Y0125457D01*
X0186802Y0124973D01*
X0186318Y0124489D01*
X0185350Y0124489D01*
X0184867Y0124973D01*
X0183855Y0124973D02*
X0183371Y0124489D01*
X0182404Y0124489D01*
X0181920Y0124973D01*
X0181920Y0126908D01*
X0182404Y0127392D01*
X0183371Y0127392D01*
X0183855Y0126908D01*
X0184867Y0126908D02*
X0185350Y0127392D01*
X0186318Y0127392D01*
X0186802Y0126908D01*
X0186802Y0126424D01*
X0186318Y0125940D02*
X0185834Y0125940D01*
X0179641Y0132506D02*
X0177706Y0132506D01*
X0179641Y0134441D01*
X0179641Y0134925D01*
X0179157Y0135409D01*
X0178190Y0135409D01*
X0177706Y0134925D01*
X0175727Y0135409D02*
X0175727Y0132506D01*
X0174760Y0132506D02*
X0176695Y0132506D01*
X0174760Y0134441D02*
X0175727Y0135409D01*
X0173748Y0134925D02*
X0173264Y0135409D01*
X0171813Y0135409D01*
X0171813Y0132506D01*
X0173264Y0132506D01*
X0173748Y0132990D01*
X0173748Y0133474D01*
X0173264Y0133958D01*
X0171813Y0133958D01*
X0170802Y0133958D02*
X0170318Y0133474D01*
X0168867Y0133474D01*
X0168867Y0132506D02*
X0168867Y0135409D01*
X0170318Y0135409D01*
X0170802Y0134925D01*
X0170802Y0133958D01*
X0173264Y0133958D02*
X0173748Y0134441D01*
X0173748Y0134925D01*
X0204083Y0134978D02*
X0204567Y0134494D01*
X0205534Y0134494D01*
X0206018Y0134978D01*
X0207030Y0134978D02*
X0207030Y0134494D01*
X0207030Y0134978D02*
X0208965Y0136913D01*
X0208965Y0137397D01*
X0207030Y0137397D01*
X0206018Y0136913D02*
X0205534Y0137397D01*
X0204567Y0137397D01*
X0204083Y0136913D01*
X0204083Y0134978D01*
X0204183Y0125384D02*
X0205151Y0125384D01*
X0204667Y0125384D02*
X0204667Y0122482D01*
X0204183Y0122482D02*
X0205151Y0122482D01*
X0206147Y0122965D02*
X0206631Y0122482D01*
X0207599Y0122482D01*
X0208082Y0122965D01*
X0209094Y0122965D02*
X0209578Y0122482D01*
X0210545Y0122482D01*
X0211029Y0122965D01*
X0211029Y0123449D01*
X0210545Y0123933D01*
X0210061Y0123933D01*
X0210545Y0123933D02*
X0211029Y0124417D01*
X0211029Y0124900D01*
X0210545Y0125384D01*
X0209578Y0125384D01*
X0209094Y0124900D01*
X0208082Y0124900D02*
X0207599Y0125384D01*
X0206631Y0125384D01*
X0206147Y0124900D01*
X0206147Y0122965D01*
X0234477Y0134719D02*
X0234477Y0137621D01*
X0235928Y0137621D01*
X0236412Y0137137D01*
X0236412Y0136170D01*
X0235928Y0135686D01*
X0234477Y0135686D01*
X0235444Y0135686D02*
X0236412Y0134719D01*
X0237423Y0134719D02*
X0239358Y0134719D01*
X0238391Y0134719D02*
X0238391Y0137621D01*
X0237423Y0136654D01*
X0240370Y0136170D02*
X0241821Y0136170D01*
X0242305Y0135686D01*
X0242305Y0135202D01*
X0241821Y0134719D01*
X0240854Y0134719D01*
X0240370Y0135202D01*
X0240370Y0136170D01*
X0241337Y0137137D01*
X0242305Y0137621D01*
X0247469Y0137137D02*
X0247469Y0135202D01*
X0247953Y0134719D01*
X0248920Y0134719D01*
X0249404Y0135202D01*
X0250415Y0135202D02*
X0250415Y0135686D01*
X0250899Y0136170D01*
X0251867Y0136170D01*
X0252350Y0135686D01*
X0252350Y0135202D01*
X0251867Y0134719D01*
X0250899Y0134719D01*
X0250415Y0135202D01*
X0250899Y0136170D02*
X0250415Y0136654D01*
X0250415Y0137137D01*
X0250899Y0137621D01*
X0251867Y0137621D01*
X0252350Y0137137D01*
X0252350Y0136654D01*
X0251867Y0136170D01*
X0249404Y0137137D02*
X0248920Y0137621D01*
X0247953Y0137621D01*
X0247469Y0137137D01*
X0256327Y0143470D02*
X0256811Y0142986D01*
X0257778Y0142986D01*
X0258262Y0143470D01*
X0259274Y0143470D02*
X0259757Y0142986D01*
X0260725Y0142986D01*
X0261209Y0143470D01*
X0261209Y0145405D01*
X0260725Y0145889D01*
X0259757Y0145889D01*
X0259274Y0145405D01*
X0259274Y0144921D01*
X0259757Y0144438D01*
X0261209Y0144438D01*
X0258262Y0145405D02*
X0257778Y0145889D01*
X0256811Y0145889D01*
X0256327Y0145405D01*
X0256327Y0143470D01*
X0269319Y0139893D02*
X0269319Y0137958D01*
X0269803Y0137475D01*
X0270771Y0137475D01*
X0271254Y0137958D01*
X0272266Y0137958D02*
X0272266Y0137475D01*
X0272266Y0137958D02*
X0274201Y0139893D01*
X0274201Y0140377D01*
X0272266Y0140377D01*
X0271254Y0139893D02*
X0270771Y0140377D01*
X0269803Y0140377D01*
X0269319Y0139893D01*
X0275212Y0140377D02*
X0277147Y0140377D01*
X0277147Y0139893D01*
X0275212Y0137958D01*
X0275212Y0137475D01*
X0275268Y0142101D02*
X0274785Y0142585D01*
X0274785Y0144520D01*
X0275268Y0145004D01*
X0276236Y0145004D01*
X0276720Y0144520D01*
X0276720Y0142585D01*
X0276236Y0142101D01*
X0275268Y0142101D01*
X0275752Y0143069D02*
X0276720Y0142101D01*
X0277731Y0142101D02*
X0279666Y0144036D01*
X0279666Y0144520D01*
X0279182Y0145004D01*
X0278215Y0145004D01*
X0277731Y0144520D01*
X0277731Y0142101D02*
X0279666Y0142101D01*
X0287154Y0142031D02*
X0287154Y0140096D01*
X0287638Y0139612D01*
X0288605Y0139612D01*
X0289089Y0140096D01*
X0289089Y0142031D01*
X0288605Y0142515D01*
X0287638Y0142515D01*
X0287154Y0142031D01*
X0288121Y0140580D02*
X0289089Y0139612D01*
X0290100Y0141064D02*
X0292035Y0141064D01*
X0291552Y0142515D02*
X0290100Y0141064D01*
X0291552Y0142515D02*
X0291552Y0139612D01*
X0291157Y0137350D02*
X0288255Y0137350D01*
X0289706Y0135899D01*
X0289706Y0137834D01*
X0289706Y0134888D02*
X0290673Y0134888D01*
X0291157Y0134404D01*
X0291157Y0133436D01*
X0290673Y0132953D01*
X0289706Y0132953D02*
X0289222Y0133920D01*
X0289222Y0134404D01*
X0289706Y0134888D01*
X0288255Y0134888D02*
X0288255Y0132953D01*
X0289706Y0132953D01*
X0290673Y0131941D02*
X0291157Y0131457D01*
X0291157Y0130490D01*
X0290673Y0130006D01*
X0288738Y0130006D01*
X0288255Y0130490D01*
X0288255Y0131457D01*
X0288738Y0131941D01*
X0284981Y0130650D02*
X0284013Y0128715D01*
X0283046Y0130650D01*
X0282034Y0130650D02*
X0282034Y0131134D01*
X0281551Y0131618D01*
X0280583Y0131618D01*
X0280099Y0131134D01*
X0282034Y0130650D02*
X0280099Y0128715D01*
X0282034Y0128715D01*
X0279110Y0128715D02*
X0278626Y0128715D01*
X0278626Y0129199D01*
X0279110Y0129199D01*
X0279110Y0128715D01*
X0277615Y0128715D02*
X0275680Y0128715D01*
X0276647Y0128715D02*
X0276647Y0131618D01*
X0275680Y0130650D01*
X0269233Y0127500D02*
X0268265Y0125565D01*
X0267298Y0127500D01*
X0266286Y0127017D02*
X0265803Y0127500D01*
X0265319Y0127500D01*
X0264351Y0127017D01*
X0264351Y0128468D01*
X0266286Y0128468D01*
X0266286Y0127017D02*
X0266286Y0126049D01*
X0265803Y0125565D01*
X0264835Y0125565D01*
X0264351Y0126049D01*
X0263362Y0126049D02*
X0263362Y0125565D01*
X0262878Y0125565D01*
X0262878Y0126049D01*
X0263362Y0126049D01*
X0261867Y0125565D02*
X0259932Y0125565D01*
X0261867Y0127500D01*
X0261867Y0127984D01*
X0261383Y0128468D01*
X0260415Y0128468D01*
X0259932Y0127984D01*
X0235165Y0141061D02*
X0234682Y0140577D01*
X0233714Y0140577D01*
X0233230Y0141061D01*
X0232219Y0140577D02*
X0230284Y0140577D01*
X0230284Y0143479D01*
X0233230Y0142996D02*
X0233714Y0143479D01*
X0234682Y0143479D01*
X0235165Y0142996D01*
X0235165Y0142512D01*
X0234682Y0142028D01*
X0235165Y0141544D01*
X0235165Y0141061D01*
X0234682Y0142028D02*
X0234198Y0142028D01*
X0214673Y0144230D02*
X0214673Y0144714D01*
X0214189Y0145197D01*
X0212738Y0145197D01*
X0212738Y0144230D01*
X0213222Y0143746D01*
X0214189Y0143746D01*
X0214673Y0144230D01*
X0213706Y0146165D02*
X0212738Y0145197D01*
X0213706Y0146165D02*
X0214673Y0146649D01*
X0211727Y0146165D02*
X0211243Y0146649D01*
X0210275Y0146649D01*
X0209792Y0146165D01*
X0209792Y0144230D01*
X0210275Y0143746D01*
X0211243Y0143746D01*
X0211727Y0144230D01*
X0228844Y0163759D02*
X0230779Y0163759D01*
X0231263Y0164242D01*
X0231263Y0165210D01*
X0230779Y0165694D01*
X0230779Y0166705D02*
X0231263Y0167189D01*
X0231263Y0168156D01*
X0230779Y0168640D01*
X0229811Y0168640D01*
X0229328Y0168156D01*
X0229328Y0167673D01*
X0229811Y0166705D01*
X0228360Y0166705D01*
X0228360Y0168640D01*
X0228844Y0165694D02*
X0228360Y0165210D01*
X0228360Y0164242D01*
X0228844Y0163759D01*
X0256137Y0162731D02*
X0259039Y0162731D01*
X0259039Y0163698D02*
X0259039Y0161763D01*
X0258555Y0160752D02*
X0259039Y0160268D01*
X0259039Y0159301D01*
X0258555Y0158817D01*
X0256620Y0158817D01*
X0256137Y0159301D01*
X0256137Y0160268D01*
X0256620Y0160752D01*
X0257104Y0161763D02*
X0256137Y0162731D01*
X0256620Y0164710D02*
X0256137Y0165194D01*
X0256137Y0166161D01*
X0256620Y0166645D01*
X0257104Y0166645D01*
X0257588Y0166161D01*
X0258071Y0166645D01*
X0258555Y0166645D01*
X0259039Y0166161D01*
X0259039Y0165194D01*
X0258555Y0164710D01*
X0257588Y0165677D02*
X0257588Y0166161D01*
X0256918Y0170742D02*
X0256918Y0173645D01*
X0258369Y0173645D01*
X0258853Y0173161D01*
X0258853Y0172193D01*
X0258369Y0171710D01*
X0256918Y0171710D01*
X0257885Y0171710D02*
X0258853Y0170742D01*
X0259864Y0171226D02*
X0260348Y0170742D01*
X0261315Y0170742D01*
X0261799Y0171226D01*
X0261799Y0172193D01*
X0261315Y0172677D01*
X0260832Y0172677D01*
X0259864Y0172193D01*
X0259864Y0173645D01*
X0261799Y0173645D01*
X0261315Y0174679D02*
X0260348Y0174679D01*
X0259864Y0175163D01*
X0259864Y0176130D02*
X0260832Y0176614D01*
X0261315Y0176614D01*
X0261799Y0176130D01*
X0261799Y0175163D01*
X0261315Y0174679D01*
X0262811Y0174679D02*
X0264746Y0176614D01*
X0264746Y0177098D01*
X0264262Y0177582D01*
X0263294Y0177582D01*
X0262811Y0177098D01*
X0261799Y0177582D02*
X0259864Y0177582D01*
X0259864Y0176130D01*
X0258853Y0176130D02*
X0258369Y0175647D01*
X0256918Y0175647D01*
X0257885Y0175647D02*
X0258853Y0174679D01*
X0258853Y0176130D02*
X0258853Y0177098D01*
X0258369Y0177582D01*
X0256918Y0177582D01*
X0256918Y0174679D01*
X0262811Y0174679D02*
X0264746Y0174679D01*
X0263778Y0173645D02*
X0263778Y0170742D01*
X0262811Y0170742D02*
X0264746Y0170742D01*
X0262811Y0172677D02*
X0263778Y0173645D01*
X0277922Y0174526D02*
X0278405Y0174042D01*
X0279373Y0174042D01*
X0279857Y0174526D01*
X0279857Y0175009D01*
X0279373Y0175493D01*
X0278405Y0175493D01*
X0277922Y0175977D01*
X0277922Y0176461D01*
X0278405Y0176944D01*
X0279373Y0176944D01*
X0279857Y0176461D01*
X0280868Y0176944D02*
X0282803Y0176944D01*
X0281836Y0176944D02*
X0281836Y0174042D01*
X0281690Y0168246D02*
X0281207Y0167763D01*
X0281207Y0166795D01*
X0281690Y0166311D01*
X0281690Y0165300D02*
X0281207Y0164816D01*
X0281207Y0163365D01*
X0284109Y0163365D01*
X0284109Y0164816D01*
X0283625Y0165300D01*
X0281690Y0165300D01*
X0284109Y0166311D02*
X0282174Y0168246D01*
X0281690Y0168246D01*
X0284109Y0168246D02*
X0284109Y0166311D01*
X0284109Y0162353D02*
X0284109Y0160418D01*
X0281207Y0160418D01*
X0281207Y0162353D01*
X0282658Y0161386D02*
X0282658Y0160418D01*
X0284109Y0159407D02*
X0284109Y0157472D01*
X0281207Y0157472D01*
X0275015Y0158036D02*
X0275015Y0159004D01*
X0274532Y0159488D01*
X0274048Y0159488D01*
X0273564Y0159004D01*
X0273564Y0157553D01*
X0274532Y0157553D01*
X0275015Y0158036D01*
X0273564Y0157553D02*
X0272597Y0158520D01*
X0272113Y0159488D01*
X0272597Y0156541D02*
X0273080Y0156541D01*
X0273564Y0156057D01*
X0274048Y0156541D01*
X0274532Y0156541D01*
X0275015Y0156057D01*
X0275015Y0155090D01*
X0274532Y0154606D01*
X0275015Y0153595D02*
X0274048Y0152627D01*
X0274048Y0153111D02*
X0274048Y0151660D01*
X0275015Y0151660D02*
X0272113Y0151660D01*
X0272113Y0153111D01*
X0272597Y0153595D01*
X0273564Y0153595D01*
X0274048Y0153111D01*
X0272597Y0154606D02*
X0272113Y0155090D01*
X0272113Y0156057D01*
X0272597Y0156541D01*
X0273564Y0156057D02*
X0273564Y0155574D01*
X0259039Y0156852D02*
X0259039Y0157820D01*
X0259039Y0157336D02*
X0256137Y0157336D01*
X0256137Y0156852D02*
X0256137Y0157820D01*
X0219823Y0178912D02*
X0217889Y0178912D01*
X0219823Y0180847D01*
X0219823Y0181331D01*
X0219340Y0181815D01*
X0218372Y0181815D01*
X0217889Y0181331D01*
X0216877Y0181331D02*
X0216393Y0181815D01*
X0214942Y0181815D01*
X0214942Y0178912D01*
X0216393Y0178912D01*
X0216877Y0179396D01*
X0216877Y0181331D01*
X0213930Y0181815D02*
X0213930Y0179880D01*
X0212963Y0178912D01*
X0211995Y0179880D01*
X0211995Y0181815D01*
X0203485Y0185164D02*
X0203485Y0187099D01*
X0203001Y0187582D01*
X0202034Y0187582D01*
X0201550Y0187099D01*
X0201550Y0186615D01*
X0202034Y0186131D01*
X0203485Y0186131D01*
X0203485Y0185164D02*
X0203001Y0184680D01*
X0202034Y0184680D01*
X0201550Y0185164D01*
X0200538Y0184680D02*
X0198603Y0184680D01*
X0200538Y0186615D01*
X0200538Y0187099D01*
X0200055Y0187582D01*
X0199087Y0187582D01*
X0198603Y0187099D01*
X0197592Y0187099D02*
X0197108Y0187582D01*
X0196141Y0187582D01*
X0195657Y0187099D01*
X0195657Y0185164D01*
X0196141Y0184680D01*
X0197108Y0184680D01*
X0197592Y0185164D01*
X0186497Y0182071D02*
X0186497Y0181587D01*
X0186013Y0181104D01*
X0186497Y0180620D01*
X0186497Y0180136D01*
X0186013Y0179652D01*
X0185045Y0179652D01*
X0184562Y0180136D01*
X0183550Y0180136D02*
X0183066Y0179652D01*
X0182099Y0179652D01*
X0181615Y0180136D01*
X0181615Y0182071D01*
X0182099Y0182555D01*
X0183066Y0182555D01*
X0183550Y0182071D01*
X0184562Y0182071D02*
X0185045Y0182555D01*
X0186013Y0182555D01*
X0186497Y0182071D01*
X0186013Y0181104D02*
X0185529Y0181104D01*
X0177343Y0180774D02*
X0176859Y0180290D01*
X0175892Y0180290D01*
X0175408Y0180774D01*
X0175408Y0181741D02*
X0176376Y0182225D01*
X0176859Y0182225D01*
X0177343Y0181741D01*
X0177343Y0180774D01*
X0175408Y0181741D02*
X0175408Y0183193D01*
X0177343Y0183193D01*
X0174397Y0182709D02*
X0173913Y0183193D01*
X0172945Y0183193D01*
X0172462Y0182709D01*
X0172462Y0180774D01*
X0172945Y0180290D01*
X0173913Y0180290D01*
X0174397Y0180774D01*
X0171465Y0180290D02*
X0170497Y0180290D01*
X0170981Y0180290D02*
X0170981Y0183193D01*
X0170497Y0183193D02*
X0171465Y0183193D01*
X0166972Y0182331D02*
X0166972Y0181363D01*
X0166488Y0180879D01*
X0166005Y0180879D01*
X0165521Y0181363D01*
X0165521Y0182331D01*
X0166005Y0182814D01*
X0166488Y0182814D01*
X0166972Y0182331D01*
X0165521Y0182331D02*
X0165037Y0182814D01*
X0164553Y0182814D01*
X0164070Y0182331D01*
X0164070Y0181363D01*
X0164553Y0180879D01*
X0165037Y0180879D01*
X0165521Y0181363D01*
X0165037Y0179868D02*
X0164553Y0179868D01*
X0164070Y0179384D01*
X0164070Y0178417D01*
X0164553Y0177933D01*
X0164553Y0176921D02*
X0164070Y0176438D01*
X0164070Y0175470D01*
X0164553Y0174986D01*
X0166488Y0174986D01*
X0166972Y0175470D01*
X0166972Y0176438D01*
X0166488Y0176921D01*
X0166972Y0177933D02*
X0165037Y0179868D01*
X0166972Y0179868D02*
X0166972Y0177933D01*
X0154543Y0177514D02*
X0154543Y0176546D01*
X0154059Y0176063D01*
X0153092Y0176546D02*
X0153092Y0177998D01*
X0154059Y0177998D02*
X0152124Y0177998D01*
X0151640Y0177514D01*
X0151640Y0176546D01*
X0152124Y0176063D01*
X0152608Y0176063D01*
X0153092Y0176546D01*
X0153092Y0175051D02*
X0153575Y0174567D01*
X0153575Y0173116D01*
X0153575Y0174084D02*
X0154543Y0175051D01*
X0153092Y0175051D02*
X0152124Y0175051D01*
X0151640Y0174567D01*
X0151640Y0173116D01*
X0154543Y0173116D01*
X0154543Y0177514D02*
X0154059Y0177998D01*
X0150882Y0183341D02*
X0150882Y0186243D01*
X0149431Y0184792D01*
X0151366Y0184792D01*
X0148420Y0185759D02*
X0147936Y0186243D01*
X0146968Y0186243D01*
X0146485Y0185759D01*
X0146485Y0183824D01*
X0146968Y0183341D01*
X0147936Y0183341D01*
X0148420Y0183824D01*
X0140516Y0187084D02*
X0140516Y0187568D01*
X0140032Y0188052D01*
X0138581Y0188052D01*
X0138581Y0187084D01*
X0139064Y0186600D01*
X0140032Y0186600D01*
X0140516Y0187084D01*
X0139548Y0189019D02*
X0138581Y0188052D01*
X0139548Y0189019D02*
X0140516Y0189503D01*
X0137569Y0189019D02*
X0137085Y0189503D01*
X0136118Y0189503D01*
X0135634Y0189019D01*
X0135634Y0187084D01*
X0136118Y0186600D01*
X0137085Y0186600D01*
X0137569Y0187084D01*
X0134637Y0186600D02*
X0133670Y0186600D01*
X0134153Y0186600D02*
X0134153Y0189503D01*
X0133670Y0189503D02*
X0134637Y0189503D01*
X0124546Y0185015D02*
X0124546Y0182112D01*
X0125513Y0182112D02*
X0123578Y0182112D01*
X0122567Y0182596D02*
X0122567Y0184531D01*
X0122083Y0185015D01*
X0120632Y0185015D01*
X0120632Y0182112D01*
X0122083Y0182112D01*
X0122567Y0182596D01*
X0123578Y0184047D02*
X0124546Y0185015D01*
X0119620Y0185015D02*
X0119620Y0183080D01*
X0118653Y0182112D01*
X0117685Y0183080D01*
X0117685Y0185015D01*
X0104196Y0184655D02*
X0104196Y0183687D01*
X0104196Y0184171D02*
X0101294Y0184171D01*
X0101294Y0183687D02*
X0101294Y0184655D01*
X0101778Y0185651D02*
X0103713Y0185651D01*
X0104196Y0186135D01*
X0104196Y0187103D01*
X0103713Y0187586D01*
X0104196Y0188598D02*
X0102261Y0190533D01*
X0101778Y0190533D01*
X0101294Y0190049D01*
X0101294Y0189082D01*
X0101778Y0188598D01*
X0101778Y0187586D02*
X0101294Y0187103D01*
X0101294Y0186135D01*
X0101778Y0185651D01*
X0104196Y0188598D02*
X0104196Y0190533D01*
X0104196Y0191544D02*
X0102261Y0193479D01*
X0101778Y0193479D01*
X0101294Y0192996D01*
X0101294Y0192028D01*
X0101778Y0191544D01*
X0104196Y0191544D02*
X0104196Y0193479D01*
X0106455Y0197329D02*
X0108390Y0197329D01*
X0108874Y0197813D01*
X0108874Y0198780D01*
X0108390Y0199264D01*
X0108390Y0200275D02*
X0108874Y0200759D01*
X0108874Y0201727D01*
X0108390Y0202210D01*
X0107906Y0202210D01*
X0107422Y0201727D01*
X0107422Y0200275D01*
X0108390Y0200275D01*
X0107422Y0200275D02*
X0106455Y0201243D01*
X0105971Y0202210D01*
X0107422Y0203222D02*
X0107422Y0205157D01*
X0105971Y0204673D02*
X0107422Y0203222D01*
X0108874Y0204673D02*
X0105971Y0204673D01*
X0105804Y0209522D02*
X0106287Y0210005D01*
X0106287Y0210489D01*
X0105804Y0210973D01*
X0104352Y0210973D01*
X0104352Y0210005D01*
X0104836Y0209522D01*
X0105804Y0209522D01*
X0107299Y0209522D02*
X0109234Y0209522D01*
X0108266Y0209522D02*
X0108266Y0212424D01*
X0107299Y0211457D01*
X0106287Y0212424D02*
X0105320Y0211940D01*
X0104352Y0210973D01*
X0103341Y0211940D02*
X0102857Y0212424D01*
X0101890Y0212424D01*
X0101406Y0211940D01*
X0101406Y0210005D01*
X0101890Y0209522D01*
X0102857Y0209522D01*
X0103341Y0210005D01*
X0105971Y0216226D02*
X0105971Y0217678D01*
X0106455Y0218161D01*
X0107422Y0218161D01*
X0107906Y0217678D01*
X0107906Y0216226D01*
X0108874Y0216226D02*
X0105971Y0216226D01*
X0107906Y0217194D02*
X0108874Y0218161D01*
X0108874Y0219173D02*
X0108390Y0219173D01*
X0106455Y0221108D01*
X0105971Y0221108D01*
X0105971Y0219173D01*
X0116150Y0218608D02*
X0117117Y0218608D01*
X0116634Y0218608D02*
X0116634Y0221511D01*
X0117117Y0221511D02*
X0116150Y0221511D01*
X0118114Y0221027D02*
X0118114Y0219092D01*
X0118598Y0218608D01*
X0119566Y0218608D01*
X0120049Y0219092D01*
X0121061Y0218608D02*
X0122996Y0218608D01*
X0122028Y0218608D02*
X0122028Y0221511D01*
X0121061Y0220543D01*
X0120049Y0221027D02*
X0119566Y0221511D01*
X0118598Y0221511D01*
X0118114Y0221027D01*
X0124007Y0220543D02*
X0124975Y0221511D01*
X0124975Y0218608D01*
X0125942Y0218608D02*
X0124007Y0218608D01*
X0125123Y0209050D02*
X0125123Y0206148D01*
X0124156Y0206148D02*
X0126091Y0206148D01*
X0124156Y0208083D02*
X0125123Y0209050D01*
X0123144Y0208566D02*
X0123144Y0206631D01*
X0122660Y0206148D01*
X0121693Y0206148D01*
X0121209Y0206631D01*
X0121209Y0208566D01*
X0121693Y0209050D01*
X0122660Y0209050D01*
X0123144Y0208566D01*
X0122177Y0207115D02*
X0123144Y0206148D01*
X0122871Y0200664D02*
X0121903Y0200664D01*
X0121419Y0200181D01*
X0120408Y0200181D02*
X0119924Y0200664D01*
X0118957Y0200664D01*
X0118473Y0200181D01*
X0118473Y0198246D01*
X0118957Y0197762D01*
X0119924Y0197762D01*
X0120408Y0198246D01*
X0121419Y0197762D02*
X0123354Y0199697D01*
X0123354Y0200181D01*
X0122871Y0200664D01*
X0123354Y0197762D02*
X0121419Y0197762D01*
X0106455Y0197329D02*
X0105971Y0197813D01*
X0105971Y0198780D01*
X0106455Y0199264D01*
X0095552Y0203758D02*
X0095552Y0204726D01*
X0095068Y0205209D01*
X0094584Y0205209D01*
X0093617Y0204726D01*
X0093617Y0206177D01*
X0095552Y0206177D01*
X0095552Y0203758D02*
X0095068Y0203275D01*
X0094101Y0203275D01*
X0093617Y0203758D01*
X0092605Y0203758D02*
X0092605Y0204242D01*
X0092122Y0204726D01*
X0090670Y0204726D01*
X0090670Y0203758D01*
X0091154Y0203275D01*
X0092122Y0203275D01*
X0092605Y0203758D01*
X0091638Y0205693D02*
X0090670Y0204726D01*
X0091638Y0205693D02*
X0092605Y0206177D01*
X0089659Y0205693D02*
X0089175Y0206177D01*
X0088208Y0206177D01*
X0087724Y0205693D01*
X0087724Y0203758D01*
X0088208Y0203275D01*
X0089175Y0203275D01*
X0089659Y0203758D01*
X0082102Y0207368D02*
X0079199Y0207368D01*
X0079199Y0208819D01*
X0079683Y0209303D01*
X0080651Y0209303D01*
X0081134Y0208819D01*
X0081134Y0207368D01*
X0081134Y0208336D02*
X0082102Y0209303D01*
X0082102Y0210315D02*
X0080167Y0212250D01*
X0079683Y0212250D01*
X0079199Y0211766D01*
X0079199Y0210798D01*
X0079683Y0210315D01*
X0082102Y0210315D02*
X0082102Y0212250D01*
X0082102Y0213261D02*
X0080167Y0215196D01*
X0079683Y0215196D01*
X0079199Y0214712D01*
X0079199Y0213745D01*
X0079683Y0213261D01*
X0082102Y0213261D02*
X0082102Y0215196D01*
X0081979Y0217789D02*
X0082462Y0218273D01*
X0082462Y0218757D01*
X0081979Y0219241D01*
X0080527Y0219241D01*
X0080527Y0218273D01*
X0081011Y0217789D01*
X0081979Y0217789D01*
X0080527Y0219241D02*
X0081495Y0220208D01*
X0082462Y0220692D01*
X0083302Y0221128D02*
X0083302Y0222096D01*
X0083302Y0221612D02*
X0086204Y0221612D01*
X0086204Y0221128D02*
X0086204Y0222096D01*
X0085721Y0223092D02*
X0086204Y0223576D01*
X0086204Y0224544D01*
X0085721Y0225027D01*
X0086204Y0226039D02*
X0086204Y0227974D01*
X0086204Y0227006D02*
X0083302Y0227006D01*
X0084269Y0226039D01*
X0083786Y0225027D02*
X0083302Y0224544D01*
X0083302Y0223576D01*
X0083786Y0223092D01*
X0085721Y0223092D01*
X0079032Y0220692D02*
X0077581Y0219241D01*
X0079516Y0219241D01*
X0079032Y0220692D02*
X0079032Y0217789D01*
X0076569Y0217789D02*
X0075602Y0218757D01*
X0076085Y0218757D02*
X0074634Y0218757D01*
X0074634Y0217789D02*
X0074634Y0220692D01*
X0076085Y0220692D01*
X0076569Y0220208D01*
X0076569Y0219241D01*
X0076085Y0218757D01*
X0070061Y0220939D02*
X0068126Y0220939D01*
X0070061Y0222874D01*
X0070061Y0223358D01*
X0069577Y0223842D01*
X0068609Y0223842D01*
X0068126Y0223358D01*
X0067114Y0223358D02*
X0065179Y0221423D01*
X0065179Y0220939D01*
X0064168Y0221423D02*
X0063684Y0220939D01*
X0062716Y0220939D01*
X0062233Y0221423D01*
X0062233Y0223358D01*
X0062716Y0223842D01*
X0063684Y0223842D01*
X0064168Y0223358D01*
X0065179Y0223842D02*
X0067114Y0223842D01*
X0067114Y0223358D01*
X0083302Y0229469D02*
X0083786Y0228985D01*
X0083302Y0229469D02*
X0083302Y0230437D01*
X0083786Y0230920D01*
X0084269Y0230920D01*
X0086204Y0228985D01*
X0086204Y0230920D01*
X0090363Y0231404D02*
X0091330Y0231404D01*
X0090846Y0231404D02*
X0090846Y0234306D01*
X0090363Y0234306D02*
X0091330Y0234306D01*
X0092327Y0233822D02*
X0092327Y0231887D01*
X0092811Y0231404D01*
X0093778Y0231404D01*
X0094262Y0231887D01*
X0095273Y0231404D02*
X0097208Y0231404D01*
X0096241Y0231404D02*
X0096241Y0234306D01*
X0095273Y0233339D01*
X0094262Y0233822D02*
X0093778Y0234306D01*
X0092811Y0234306D01*
X0092327Y0233822D01*
X0098220Y0233822D02*
X0098220Y0231887D01*
X0100155Y0233822D01*
X0100155Y0231887D01*
X0099671Y0231404D01*
X0098704Y0231404D01*
X0098220Y0231887D01*
X0098220Y0233822D02*
X0098704Y0234306D01*
X0099671Y0234306D01*
X0100155Y0233822D01*
X0113414Y0236097D02*
X0113414Y0238999D01*
X0114865Y0238999D01*
X0115349Y0238515D01*
X0115349Y0237548D01*
X0114865Y0237064D01*
X0113414Y0237064D01*
X0114381Y0237064D02*
X0115349Y0236097D01*
X0116360Y0237548D02*
X0118295Y0237548D01*
X0117812Y0238999D02*
X0116360Y0237548D01*
X0117812Y0236097D02*
X0117812Y0238999D01*
X0082186Y0243007D02*
X0080251Y0243007D01*
X0082186Y0244942D01*
X0082186Y0245426D01*
X0081702Y0245909D01*
X0080734Y0245909D01*
X0080251Y0245426D01*
X0079239Y0245909D02*
X0079239Y0243007D01*
X0078272Y0243974D01*
X0077304Y0243007D01*
X0077304Y0245909D01*
X0076293Y0245426D02*
X0075809Y0245909D01*
X0074841Y0245909D01*
X0074358Y0245426D01*
X0074358Y0244942D01*
X0074841Y0244458D01*
X0075809Y0244458D01*
X0076293Y0243974D01*
X0076293Y0243491D01*
X0075809Y0243007D01*
X0074841Y0243007D01*
X0074358Y0243491D01*
X0075815Y0239590D02*
X0077267Y0239590D01*
X0077750Y0239106D01*
X0077750Y0238138D01*
X0077267Y0237655D01*
X0075815Y0237655D01*
X0076783Y0237655D02*
X0077750Y0236687D01*
X0078762Y0237171D02*
X0079246Y0236687D01*
X0080213Y0236687D01*
X0080697Y0237171D01*
X0080697Y0237655D01*
X0080213Y0238138D01*
X0078762Y0238138D01*
X0078762Y0237171D01*
X0078762Y0238138D02*
X0079729Y0239106D01*
X0080697Y0239590D01*
X0075815Y0239590D02*
X0075815Y0236687D01*
X0085264Y0218920D02*
X0086715Y0218920D01*
X0087199Y0218437D01*
X0087199Y0217469D01*
X0086715Y0216985D01*
X0085264Y0216985D01*
X0085264Y0216018D02*
X0085264Y0218920D01*
X0086232Y0216985D02*
X0087199Y0216018D01*
X0088211Y0216502D02*
X0088694Y0216018D01*
X0089662Y0216018D01*
X0090146Y0216502D01*
X0090146Y0216985D01*
X0089662Y0217469D01*
X0089178Y0217469D01*
X0089662Y0217469D02*
X0090146Y0217953D01*
X0090146Y0218437D01*
X0089662Y0218920D01*
X0088694Y0218920D01*
X0088211Y0218437D01*
X0091157Y0217469D02*
X0093092Y0217469D01*
X0092608Y0216018D02*
X0092608Y0218920D01*
X0091157Y0217469D01*
X0069058Y0205755D02*
X0069058Y0204787D01*
X0068574Y0204304D01*
X0067607Y0204304D02*
X0067123Y0205271D01*
X0067123Y0205755D01*
X0067607Y0206239D01*
X0068574Y0206239D01*
X0069058Y0205755D01*
X0067607Y0204304D02*
X0066155Y0204304D01*
X0066155Y0206239D01*
X0066155Y0202325D02*
X0069058Y0202325D01*
X0069058Y0203292D02*
X0069058Y0201357D01*
X0069058Y0200346D02*
X0068090Y0199378D01*
X0068090Y0199862D02*
X0068090Y0198411D01*
X0069058Y0198411D02*
X0066155Y0198411D01*
X0066155Y0199862D01*
X0066639Y0200346D01*
X0067607Y0200346D01*
X0068090Y0199862D01*
X0067123Y0201357D02*
X0066155Y0202325D01*
X0062739Y0208210D02*
X0060804Y0208210D01*
X0062739Y0210145D01*
X0062739Y0210629D01*
X0062256Y0211112D01*
X0061288Y0211112D01*
X0060804Y0210629D01*
X0059793Y0211112D02*
X0057858Y0208210D01*
X0059793Y0208210D02*
X0057858Y0211112D01*
X0049522Y0210438D02*
X0049522Y0208503D01*
X0047587Y0210438D01*
X0047104Y0210438D01*
X0046620Y0209954D01*
X0046620Y0208986D01*
X0047104Y0208503D01*
X0047104Y0207491D02*
X0046620Y0207007D01*
X0046620Y0206040D01*
X0047104Y0205556D01*
X0049039Y0205556D01*
X0049522Y0206040D01*
X0049522Y0207007D01*
X0049039Y0207491D01*
X0049522Y0204559D02*
X0049522Y0203592D01*
X0049522Y0204076D02*
X0046620Y0204076D01*
X0046620Y0204559D02*
X0046620Y0203592D01*
X0046485Y0198448D02*
X0047936Y0198448D01*
X0048420Y0197964D01*
X0048420Y0196997D01*
X0047936Y0196513D01*
X0046485Y0196513D01*
X0047452Y0196513D02*
X0048420Y0195545D01*
X0049431Y0196029D02*
X0049915Y0195545D01*
X0050882Y0195545D01*
X0051366Y0196029D01*
X0051366Y0196997D01*
X0050882Y0197480D01*
X0050399Y0197480D01*
X0049431Y0196997D01*
X0049431Y0198448D01*
X0051366Y0198448D01*
X0052378Y0196997D02*
X0053829Y0196997D01*
X0054313Y0196513D01*
X0054313Y0196029D01*
X0053829Y0195545D01*
X0052861Y0195545D01*
X0052378Y0196029D01*
X0052378Y0196997D01*
X0053345Y0197964D01*
X0054313Y0198448D01*
X0046485Y0198448D02*
X0046485Y0195545D01*
X0066352Y0194731D02*
X0067803Y0193280D01*
X0067803Y0195215D01*
X0066352Y0194731D02*
X0069255Y0194731D01*
X0069255Y0192268D02*
X0069255Y0190333D01*
X0069255Y0191301D02*
X0066352Y0191301D01*
X0067320Y0190333D01*
X0067803Y0189322D02*
X0068287Y0188838D01*
X0068287Y0187387D01*
X0068287Y0188354D02*
X0069255Y0189322D01*
X0067803Y0189322D02*
X0066836Y0189322D01*
X0066352Y0188838D01*
X0066352Y0187387D01*
X0069255Y0187387D01*
X0068626Y0184488D02*
X0069110Y0184004D01*
X0069110Y0183036D01*
X0068626Y0182553D01*
X0067659Y0182553D02*
X0067175Y0183520D01*
X0067175Y0184004D01*
X0067659Y0184488D01*
X0068626Y0184488D01*
X0067659Y0182553D02*
X0066207Y0182553D01*
X0066207Y0184488D01*
X0066691Y0181541D02*
X0067175Y0181541D01*
X0067659Y0181057D01*
X0068142Y0181541D01*
X0068626Y0181541D01*
X0069110Y0181057D01*
X0069110Y0180090D01*
X0068626Y0179606D01*
X0069110Y0178595D02*
X0068142Y0177627D01*
X0068142Y0178111D02*
X0068142Y0176660D01*
X0069110Y0176660D02*
X0066207Y0176660D01*
X0066207Y0178111D01*
X0066691Y0178595D01*
X0067659Y0178595D01*
X0068142Y0178111D01*
X0066691Y0179606D02*
X0066207Y0180090D01*
X0066207Y0181057D01*
X0066691Y0181541D01*
X0067659Y0181057D02*
X0067659Y0180574D01*
X0056969Y0174303D02*
X0056969Y0173820D01*
X0056485Y0173336D01*
X0056969Y0172852D01*
X0056969Y0172368D01*
X0056485Y0171885D01*
X0055518Y0171885D01*
X0055034Y0172368D01*
X0054023Y0172368D02*
X0053539Y0171885D01*
X0052088Y0171885D01*
X0052088Y0174787D01*
X0053539Y0174787D01*
X0054023Y0174303D01*
X0054023Y0172368D01*
X0055034Y0174303D02*
X0055518Y0174787D01*
X0056485Y0174787D01*
X0056969Y0174303D01*
X0056485Y0173336D02*
X0056002Y0173336D01*
X0051076Y0174787D02*
X0049141Y0174787D01*
X0049141Y0171885D01*
X0051076Y0171885D01*
X0050109Y0173336D02*
X0049141Y0173336D01*
X0048130Y0171885D02*
X0046195Y0171885D01*
X0046195Y0174787D01*
X0057902Y0166361D02*
X0059353Y0166361D01*
X0059837Y0165877D01*
X0059837Y0164910D01*
X0059353Y0164426D01*
X0057902Y0164426D01*
X0057902Y0163459D02*
X0057902Y0166361D01*
X0058869Y0164426D02*
X0059837Y0163459D01*
X0060848Y0163942D02*
X0061332Y0163459D01*
X0062300Y0163459D01*
X0062783Y0163942D01*
X0062783Y0164426D01*
X0062300Y0164910D01*
X0061816Y0164910D01*
X0062300Y0164910D02*
X0062783Y0165394D01*
X0062783Y0165877D01*
X0062300Y0166361D01*
X0061332Y0166361D01*
X0060848Y0165877D01*
X0063795Y0166361D02*
X0065730Y0166361D01*
X0065730Y0165877D01*
X0063795Y0163942D01*
X0063795Y0163459D01*
X0068288Y0162771D02*
X0068288Y0165673D01*
X0068288Y0162771D02*
X0070223Y0162771D01*
X0071235Y0162771D02*
X0071235Y0163254D01*
X0073170Y0165189D01*
X0073170Y0165673D01*
X0071235Y0165673D01*
X0081707Y0162144D02*
X0081707Y0160209D01*
X0083158Y0160209D01*
X0082674Y0161177D01*
X0082674Y0161660D01*
X0083158Y0162144D01*
X0084125Y0162144D01*
X0084609Y0161660D01*
X0084609Y0160693D01*
X0084125Y0160209D01*
X0084609Y0159198D02*
X0083642Y0158230D01*
X0083642Y0158714D02*
X0083642Y0157263D01*
X0084609Y0157263D02*
X0081707Y0157263D01*
X0081707Y0158714D01*
X0082190Y0159198D01*
X0083158Y0159198D01*
X0083642Y0158714D01*
X0089070Y0158938D02*
X0089553Y0159421D01*
X0091488Y0159421D01*
X0091972Y0158938D01*
X0091972Y0157970D01*
X0091488Y0157486D01*
X0089553Y0157486D01*
X0089070Y0157970D01*
X0089070Y0158938D01*
X0089553Y0160433D02*
X0090037Y0160433D01*
X0090521Y0160917D01*
X0090521Y0161884D01*
X0091005Y0162368D01*
X0091488Y0162368D01*
X0091972Y0161884D01*
X0091972Y0160917D01*
X0091488Y0160433D01*
X0091005Y0160433D01*
X0090521Y0160917D01*
X0090521Y0161884D02*
X0090037Y0162368D01*
X0089553Y0162368D01*
X0089070Y0161884D01*
X0089070Y0160917D01*
X0089553Y0160433D01*
X0091005Y0158454D02*
X0091972Y0159421D01*
X0094910Y0164246D02*
X0094910Y0167149D01*
X0096361Y0167149D01*
X0096845Y0166665D01*
X0096845Y0165697D01*
X0096361Y0165214D01*
X0094910Y0165214D01*
X0095877Y0165214D02*
X0096845Y0164246D01*
X0097856Y0164246D02*
X0099791Y0164246D01*
X0098824Y0164246D02*
X0098824Y0167149D01*
X0097856Y0166181D01*
X0100803Y0166665D02*
X0101287Y0167149D01*
X0102254Y0167149D01*
X0102738Y0166665D01*
X0102738Y0166181D01*
X0100803Y0164246D01*
X0102738Y0164246D01*
X0119063Y0169908D02*
X0119063Y0172810D01*
X0119063Y0169908D02*
X0120998Y0169908D01*
X0122010Y0169908D02*
X0123945Y0169908D01*
X0122977Y0169908D02*
X0122977Y0172810D01*
X0122010Y0171843D01*
X0125801Y0171109D02*
X0126285Y0171593D01*
X0128220Y0169658D01*
X0128704Y0170142D01*
X0128704Y0171109D01*
X0128220Y0171593D01*
X0126285Y0171593D01*
X0125801Y0171109D02*
X0125801Y0170142D01*
X0126285Y0169658D01*
X0128220Y0169658D01*
X0128704Y0168646D02*
X0128704Y0166711D01*
X0128704Y0167679D02*
X0125801Y0167679D01*
X0126769Y0166711D01*
X0127252Y0165700D02*
X0127736Y0165216D01*
X0127736Y0163765D01*
X0127736Y0164732D02*
X0128704Y0165700D01*
X0127252Y0165700D02*
X0126285Y0165700D01*
X0125801Y0165216D01*
X0125801Y0163765D01*
X0128704Y0163765D01*
X0125653Y0160722D02*
X0123718Y0161689D01*
X0123718Y0159754D02*
X0125653Y0160722D01*
X0125169Y0158743D02*
X0125653Y0158259D01*
X0125653Y0157291D01*
X0125169Y0156808D01*
X0125169Y0155818D02*
X0125653Y0155818D01*
X0125653Y0155334D01*
X0125169Y0155334D01*
X0125169Y0155818D01*
X0125169Y0154323D02*
X0125653Y0153839D01*
X0125653Y0152872D01*
X0125169Y0152388D01*
X0124202Y0153355D02*
X0124202Y0153839D01*
X0124685Y0154323D01*
X0125169Y0154323D01*
X0124202Y0153839D02*
X0123718Y0154323D01*
X0123234Y0154323D01*
X0122750Y0153839D01*
X0122750Y0152872D01*
X0123234Y0152388D01*
X0127291Y0152150D02*
X0127291Y0150215D01*
X0127774Y0149731D01*
X0128742Y0149731D01*
X0129226Y0150215D01*
X0130237Y0150215D02*
X0130721Y0149731D01*
X0131689Y0149731D01*
X0132172Y0150215D01*
X0132172Y0150699D01*
X0131689Y0151182D01*
X0130237Y0151182D01*
X0130237Y0150215D01*
X0130237Y0151182D02*
X0131205Y0152150D01*
X0132172Y0152634D01*
X0133184Y0152150D02*
X0133668Y0152634D01*
X0134635Y0152634D01*
X0135119Y0152150D01*
X0135119Y0151666D01*
X0134635Y0151182D01*
X0135119Y0150699D01*
X0135119Y0150215D01*
X0134635Y0149731D01*
X0133668Y0149731D01*
X0133184Y0150215D01*
X0134151Y0151182D02*
X0134635Y0151182D01*
X0134462Y0154710D02*
X0134462Y0156161D01*
X0134946Y0156645D01*
X0135914Y0156645D01*
X0136397Y0156161D01*
X0136397Y0154710D01*
X0136397Y0155677D02*
X0137365Y0156645D01*
X0137365Y0157656D02*
X0137365Y0159591D01*
X0137365Y0158624D02*
X0134462Y0158624D01*
X0135430Y0157656D01*
X0135430Y0160603D02*
X0134462Y0161570D01*
X0137365Y0161570D01*
X0137365Y0160603D02*
X0137365Y0162538D01*
X0137365Y0154710D02*
X0134462Y0154710D01*
X0129226Y0152150D02*
X0128742Y0152634D01*
X0127774Y0152634D01*
X0127291Y0152150D01*
X0123234Y0156808D02*
X0122750Y0157291D01*
X0122750Y0158259D01*
X0123234Y0158743D01*
X0123718Y0158743D01*
X0124202Y0158259D01*
X0124685Y0158743D01*
X0125169Y0158743D01*
X0124202Y0158259D02*
X0124202Y0157775D01*
X0152508Y0155310D02*
X0153476Y0155310D01*
X0152992Y0155310D02*
X0152992Y0152408D01*
X0152508Y0152408D02*
X0153476Y0152408D01*
X0154473Y0152891D02*
X0154473Y0154826D01*
X0154956Y0155310D01*
X0155924Y0155310D01*
X0156408Y0154826D01*
X0157419Y0155310D02*
X0159354Y0155310D01*
X0159354Y0154826D01*
X0157419Y0152891D01*
X0157419Y0152408D01*
X0156408Y0152891D02*
X0155924Y0152408D01*
X0154956Y0152408D01*
X0154473Y0152891D01*
X0178118Y0163601D02*
X0178601Y0163117D01*
X0179569Y0163117D01*
X0180053Y0163601D01*
X0181064Y0163117D02*
X0182999Y0163117D01*
X0182032Y0163117D02*
X0182032Y0166020D01*
X0181064Y0165052D01*
X0180053Y0165536D02*
X0179569Y0166020D01*
X0178601Y0166020D01*
X0178118Y0165536D01*
X0178118Y0163601D01*
X0184011Y0163601D02*
X0185946Y0165536D01*
X0185946Y0163601D01*
X0185462Y0163117D01*
X0184494Y0163117D01*
X0184011Y0163601D01*
X0184011Y0165536D01*
X0184494Y0166020D01*
X0185462Y0166020D01*
X0185946Y0165536D01*
X0142068Y0138418D02*
X0141584Y0138901D01*
X0140616Y0138901D01*
X0140133Y0138418D01*
X0142068Y0138418D02*
X0142068Y0137934D01*
X0140133Y0135999D01*
X0142068Y0135999D01*
X0139121Y0135999D02*
X0137186Y0135999D01*
X0137186Y0138901D01*
X0123155Y0135231D02*
X0122187Y0134264D01*
X0121176Y0134748D02*
X0120692Y0135231D01*
X0119724Y0135231D01*
X0119241Y0134748D01*
X0119241Y0132813D01*
X0119724Y0132329D01*
X0120692Y0132329D01*
X0121176Y0132813D01*
X0122187Y0132329D02*
X0124122Y0132329D01*
X0123155Y0132329D02*
X0123155Y0135231D01*
X0114630Y0138426D02*
X0112695Y0138426D01*
X0114146Y0139877D01*
X0114146Y0136975D01*
X0111683Y0137458D02*
X0111199Y0136975D01*
X0110232Y0136975D01*
X0109748Y0137458D01*
X0109748Y0139393D01*
X0110232Y0139877D01*
X0111199Y0139877D01*
X0111683Y0139393D01*
X0108751Y0139877D02*
X0107784Y0139877D01*
X0108268Y0139877D02*
X0108268Y0136975D01*
X0108751Y0136975D02*
X0107784Y0136975D01*
X0102816Y0140498D02*
X0102332Y0140015D01*
X0101364Y0140015D01*
X0100881Y0140498D01*
X0100881Y0141466D01*
X0102332Y0141466D01*
X0102816Y0140982D01*
X0102816Y0140498D01*
X0101848Y0142433D02*
X0100881Y0141466D01*
X0101848Y0142433D02*
X0102816Y0142917D01*
X0099869Y0142433D02*
X0099869Y0140498D01*
X0099385Y0140015D01*
X0098418Y0140015D01*
X0097934Y0140498D01*
X0097934Y0142433D01*
X0098418Y0142917D01*
X0099385Y0142917D01*
X0099869Y0142433D01*
X0098902Y0140982D02*
X0099869Y0140015D01*
X0090908Y0140909D02*
X0090425Y0140426D01*
X0090908Y0140909D02*
X0090908Y0141877D01*
X0090425Y0142361D01*
X0089457Y0142361D01*
X0088973Y0141877D01*
X0088973Y0141393D01*
X0089457Y0140426D01*
X0088006Y0140426D01*
X0088006Y0142361D01*
X0089457Y0139414D02*
X0089457Y0137479D01*
X0088006Y0138930D01*
X0090908Y0138930D01*
X0090908Y0136468D02*
X0089941Y0135500D01*
X0089941Y0135984D02*
X0089941Y0134533D01*
X0090908Y0134533D02*
X0088006Y0134533D01*
X0088006Y0135984D01*
X0088490Y0136468D01*
X0089457Y0136468D01*
X0089941Y0135984D01*
X0098670Y0128263D02*
X0099637Y0128263D01*
X0099153Y0128263D02*
X0099153Y0125360D01*
X0098670Y0125360D02*
X0099637Y0125360D01*
X0100634Y0125844D02*
X0101118Y0125360D01*
X0102085Y0125360D01*
X0102569Y0125844D01*
X0103581Y0125360D02*
X0105516Y0127295D01*
X0105516Y0127779D01*
X0105032Y0128263D01*
X0104064Y0128263D01*
X0103581Y0127779D01*
X0102569Y0127779D02*
X0102085Y0128263D01*
X0101118Y0128263D01*
X0100634Y0127779D01*
X0100634Y0125844D01*
X0103581Y0125360D02*
X0105516Y0125360D01*
X0082417Y0122531D02*
X0082417Y0121564D01*
X0081934Y0121080D01*
X0079999Y0123015D01*
X0081934Y0123015D01*
X0082417Y0122531D01*
X0081934Y0121080D02*
X0079999Y0121080D01*
X0079515Y0121564D01*
X0079515Y0122531D01*
X0079999Y0123015D01*
X0079999Y0120068D02*
X0080482Y0120068D01*
X0080966Y0119585D01*
X0081450Y0120068D01*
X0081934Y0120068D01*
X0082417Y0119585D01*
X0082417Y0118617D01*
X0081934Y0118133D01*
X0081934Y0117122D02*
X0082417Y0116638D01*
X0082417Y0115671D01*
X0081934Y0115187D01*
X0079999Y0115187D01*
X0079515Y0115671D01*
X0079515Y0116638D01*
X0079999Y0117122D01*
X0079999Y0118133D02*
X0079515Y0118617D01*
X0079515Y0119585D01*
X0079999Y0120068D01*
X0080966Y0119585D02*
X0080966Y0119101D01*
X0075612Y0114444D02*
X0074644Y0113960D01*
X0073677Y0112993D01*
X0075128Y0112993D01*
X0075612Y0112509D01*
X0075612Y0112025D01*
X0075128Y0111541D01*
X0074161Y0111541D01*
X0073677Y0112025D01*
X0073677Y0112993D01*
X0072665Y0111541D02*
X0070730Y0111541D01*
X0071698Y0111541D02*
X0071698Y0114444D01*
X0070730Y0113476D01*
X0069719Y0114444D02*
X0067784Y0111541D01*
X0069719Y0111541D02*
X0067784Y0114444D01*
X0059037Y0115681D02*
X0057102Y0113746D01*
X0057102Y0113262D01*
X0056091Y0113262D02*
X0054156Y0113262D01*
X0056091Y0115197D01*
X0056091Y0115681D01*
X0055607Y0116164D01*
X0054639Y0116164D01*
X0054156Y0115681D01*
X0053144Y0115681D02*
X0053144Y0114713D01*
X0052660Y0114229D01*
X0051209Y0114229D01*
X0051209Y0113262D02*
X0051209Y0116164D01*
X0052660Y0116164D01*
X0053144Y0115681D01*
X0052177Y0114229D02*
X0053144Y0113262D01*
X0057102Y0116164D02*
X0059037Y0116164D01*
X0059037Y0115681D01*
X0082242Y0085275D02*
X0084177Y0083340D01*
X0084661Y0083824D01*
X0084661Y0084791D01*
X0084177Y0085275D01*
X0082242Y0085275D01*
X0081759Y0084791D01*
X0081759Y0083824D01*
X0082242Y0083340D01*
X0084177Y0083340D01*
X0084177Y0082328D02*
X0083694Y0082328D01*
X0083210Y0081845D01*
X0083210Y0080393D01*
X0084177Y0080393D01*
X0084661Y0080877D01*
X0084661Y0081845D01*
X0084177Y0082328D01*
X0082242Y0081361D02*
X0083210Y0080393D01*
X0082242Y0081361D02*
X0081759Y0082328D01*
X0082242Y0079382D02*
X0081759Y0078898D01*
X0081759Y0077931D01*
X0082242Y0077447D01*
X0084177Y0077447D01*
X0084661Y0077931D01*
X0084661Y0078898D01*
X0084177Y0079382D01*
X0256701Y0084665D02*
X0257185Y0084182D01*
X0258152Y0084182D01*
X0258636Y0084665D01*
X0259648Y0084665D02*
X0260131Y0084182D01*
X0261099Y0084182D01*
X0261583Y0084665D01*
X0261583Y0085633D01*
X0261099Y0086117D01*
X0260615Y0086117D01*
X0259648Y0085633D01*
X0259648Y0087084D01*
X0261583Y0087084D01*
X0262594Y0087084D02*
X0264529Y0087084D01*
X0264529Y0086600D01*
X0262594Y0084665D01*
X0262594Y0084182D01*
X0258636Y0086600D02*
X0258152Y0087084D01*
X0257185Y0087084D01*
X0256701Y0086600D01*
X0256701Y0084665D01*
X0298237Y0125342D02*
X0298720Y0124858D01*
X0299688Y0124858D01*
X0300172Y0125342D01*
X0300172Y0127277D01*
X0299688Y0127761D01*
X0298720Y0127761D01*
X0298237Y0127277D01*
X0298237Y0125342D01*
X0301183Y0125342D02*
X0301667Y0124858D01*
X0302634Y0124858D01*
X0303118Y0125342D01*
X0303118Y0125826D01*
X0302634Y0126310D01*
X0301667Y0126310D01*
X0301183Y0126793D01*
X0301183Y0127277D01*
X0301667Y0127761D01*
X0302634Y0127761D01*
X0303118Y0127277D01*
X0304130Y0127277D02*
X0304130Y0125342D01*
X0304613Y0124858D01*
X0305581Y0124858D01*
X0306065Y0125342D01*
X0307076Y0126310D02*
X0309011Y0126310D01*
X0308527Y0127761D02*
X0308527Y0124858D01*
X0307076Y0126310D02*
X0308527Y0127761D01*
X0306065Y0127277D02*
X0305581Y0127761D01*
X0304613Y0127761D01*
X0304130Y0127277D01*
X0314595Y0133341D02*
X0314595Y0136243D01*
X0316046Y0136243D01*
X0316530Y0135759D01*
X0316530Y0134792D01*
X0316046Y0134308D01*
X0314595Y0134308D01*
X0315562Y0134308D02*
X0316530Y0133341D01*
X0317541Y0133824D02*
X0318025Y0133341D01*
X0318993Y0133341D01*
X0319476Y0133824D01*
X0319476Y0134792D01*
X0318993Y0135276D01*
X0318509Y0135276D01*
X0317541Y0134792D01*
X0317541Y0136243D01*
X0319476Y0136243D01*
X0320488Y0134792D02*
X0321939Y0136243D01*
X0321939Y0133341D01*
X0322423Y0134792D02*
X0320488Y0134792D01*
X0320180Y0129157D02*
X0320664Y0128673D01*
X0320664Y0127705D01*
X0320180Y0127222D01*
X0318729Y0127222D01*
X0319696Y0127222D02*
X0320664Y0126254D01*
X0321675Y0126738D02*
X0322159Y0126254D01*
X0323126Y0126254D01*
X0323610Y0126738D01*
X0323610Y0127705D01*
X0323126Y0128189D01*
X0322643Y0128189D01*
X0321675Y0127705D01*
X0321675Y0129157D01*
X0323610Y0129157D01*
X0324622Y0128673D02*
X0325106Y0129157D01*
X0326073Y0129157D01*
X0326557Y0128673D01*
X0326557Y0128189D01*
X0326073Y0127705D01*
X0326557Y0127222D01*
X0326557Y0126738D01*
X0326073Y0126254D01*
X0325106Y0126254D01*
X0324622Y0126738D01*
X0325589Y0127705D02*
X0326073Y0127705D01*
X0320180Y0129157D02*
X0318729Y0129157D01*
X0318729Y0126254D01*
X0347507Y0131474D02*
X0347990Y0130990D01*
X0349925Y0130990D01*
X0350409Y0131474D01*
X0350409Y0132441D01*
X0349925Y0132925D01*
X0349925Y0133937D02*
X0350409Y0133937D01*
X0349925Y0133937D02*
X0347990Y0135872D01*
X0347507Y0135872D01*
X0347507Y0133937D01*
X0347990Y0132925D02*
X0347507Y0132441D01*
X0347507Y0131474D01*
X0350087Y0127672D02*
X0351054Y0127672D01*
X0350571Y0127672D02*
X0350571Y0124770D01*
X0351054Y0124770D02*
X0350087Y0124770D01*
X0352051Y0125254D02*
X0352051Y0127189D01*
X0352535Y0127672D01*
X0353503Y0127672D01*
X0353986Y0127189D01*
X0354998Y0126705D02*
X0355965Y0127672D01*
X0355965Y0124770D01*
X0354998Y0124770D02*
X0356933Y0124770D01*
X0353986Y0125254D02*
X0353503Y0124770D01*
X0352535Y0124770D01*
X0352051Y0125254D01*
X0349925Y0136883D02*
X0350409Y0137367D01*
X0350409Y0138335D01*
X0349925Y0138818D01*
X0348958Y0138818D01*
X0348474Y0138335D01*
X0348474Y0137851D01*
X0348958Y0136883D01*
X0347507Y0136883D01*
X0347507Y0138818D01*
X0338138Y0141530D02*
X0336203Y0141530D01*
X0337170Y0141530D02*
X0337170Y0144432D01*
X0336203Y0143465D01*
X0335191Y0143948D02*
X0335191Y0142981D01*
X0334708Y0142497D01*
X0333256Y0142497D01*
X0333256Y0141530D02*
X0333256Y0144432D01*
X0334708Y0144432D01*
X0335191Y0143948D01*
X0334224Y0142497D02*
X0335191Y0141530D01*
X0329083Y0145959D02*
X0327148Y0145959D01*
X0329083Y0147894D01*
X0329083Y0148377D01*
X0328599Y0148861D01*
X0327631Y0148861D01*
X0327148Y0148377D01*
X0326136Y0148377D02*
X0326136Y0147410D01*
X0325652Y0146926D01*
X0324201Y0146926D01*
X0324201Y0145959D02*
X0324201Y0148861D01*
X0325652Y0148861D01*
X0326136Y0148377D01*
X0325169Y0146926D02*
X0326136Y0145959D01*
X0319667Y0146423D02*
X0319183Y0145939D01*
X0318216Y0145939D01*
X0317732Y0146423D01*
X0317732Y0147390D02*
X0318699Y0147874D01*
X0319183Y0147874D01*
X0319667Y0147390D01*
X0319667Y0146423D01*
X0317732Y0147390D02*
X0317732Y0148842D01*
X0319667Y0148842D01*
X0316720Y0148842D02*
X0314785Y0148842D01*
X0314785Y0147390D01*
X0315753Y0147874D01*
X0316237Y0147874D01*
X0316720Y0147390D01*
X0316720Y0146423D01*
X0316237Y0145939D01*
X0315269Y0145939D01*
X0314785Y0146423D01*
X0313774Y0145939D02*
X0312806Y0146907D01*
X0313290Y0146907D02*
X0311839Y0146907D01*
X0311839Y0145939D02*
X0311839Y0148842D01*
X0313290Y0148842D01*
X0313774Y0148358D01*
X0313774Y0147390D01*
X0313290Y0146907D01*
X0308840Y0146907D02*
X0308840Y0146423D01*
X0308356Y0145939D01*
X0307389Y0145939D01*
X0306905Y0146423D01*
X0305894Y0146423D02*
X0305410Y0145939D01*
X0304442Y0145939D01*
X0303959Y0146423D01*
X0303959Y0147390D02*
X0304926Y0147874D01*
X0305410Y0147874D01*
X0305894Y0147390D01*
X0305894Y0146423D01*
X0303959Y0147390D02*
X0303959Y0148842D01*
X0305894Y0148842D01*
X0306905Y0148358D02*
X0307389Y0148842D01*
X0308356Y0148842D01*
X0308840Y0148358D01*
X0308840Y0147874D01*
X0308356Y0147390D01*
X0308840Y0146907D01*
X0308356Y0147390D02*
X0307873Y0147390D01*
X0302947Y0146423D02*
X0302463Y0145939D01*
X0301496Y0145939D01*
X0301012Y0146423D01*
X0301012Y0148358D01*
X0301496Y0148842D01*
X0302463Y0148842D01*
X0302947Y0148358D01*
X0350678Y0149337D02*
X0351645Y0149337D01*
X0351161Y0149337D02*
X0351161Y0152239D01*
X0350678Y0152239D02*
X0351645Y0152239D01*
X0352642Y0151755D02*
X0352642Y0149820D01*
X0353126Y0149337D01*
X0354093Y0149337D01*
X0354577Y0149820D01*
X0355588Y0149820D02*
X0356072Y0149337D01*
X0357040Y0149337D01*
X0357523Y0149820D01*
X0357523Y0151755D01*
X0357040Y0152239D01*
X0356072Y0152239D01*
X0355588Y0151755D01*
X0355588Y0151272D01*
X0356072Y0150788D01*
X0357523Y0150788D01*
X0354577Y0151755D02*
X0354093Y0152239D01*
X0353126Y0152239D01*
X0352642Y0151755D01*
X0363432Y0154465D02*
X0363432Y0155432D01*
X0363432Y0154948D02*
X0366334Y0154948D01*
X0366334Y0154465D02*
X0366334Y0155432D01*
X0365851Y0156429D02*
X0366334Y0156913D01*
X0366334Y0157880D01*
X0365851Y0158364D01*
X0366334Y0159376D02*
X0366334Y0161311D01*
X0366334Y0160343D02*
X0363432Y0160343D01*
X0364399Y0159376D01*
X0363916Y0158364D02*
X0363432Y0157880D01*
X0363432Y0156913D01*
X0363916Y0156429D01*
X0365851Y0156429D01*
X0365851Y0162322D02*
X0366334Y0162806D01*
X0366334Y0163773D01*
X0365851Y0164257D01*
X0365367Y0164257D01*
X0364883Y0163773D01*
X0364883Y0162322D01*
X0365851Y0162322D01*
X0364883Y0162322D02*
X0363916Y0163290D01*
X0363432Y0164257D01*
X0394896Y0166217D02*
X0395379Y0165733D01*
X0397314Y0165733D01*
X0397798Y0166217D01*
X0397798Y0167185D01*
X0397314Y0167668D01*
X0397314Y0168680D02*
X0397798Y0169164D01*
X0397798Y0170131D01*
X0397314Y0170615D01*
X0396831Y0170615D01*
X0396347Y0170131D01*
X0396347Y0168680D01*
X0397314Y0168680D01*
X0396347Y0168680D02*
X0395379Y0169647D01*
X0394896Y0170615D01*
X0395379Y0171626D02*
X0395863Y0171626D01*
X0396347Y0172110D01*
X0396347Y0173078D01*
X0396831Y0173561D01*
X0397314Y0173561D01*
X0397798Y0173078D01*
X0397798Y0172110D01*
X0397314Y0171626D01*
X0396831Y0171626D01*
X0396347Y0172110D01*
X0396347Y0173078D02*
X0395863Y0173561D01*
X0395379Y0173561D01*
X0394896Y0173078D01*
X0394896Y0172110D01*
X0395379Y0171626D01*
X0395379Y0167668D02*
X0394896Y0167185D01*
X0394896Y0166217D01*
X0413512Y0174514D02*
X0415447Y0177416D01*
X0416459Y0176449D02*
X0417426Y0177416D01*
X0417426Y0174514D01*
X0416459Y0174514D02*
X0418394Y0174514D01*
X0419405Y0174998D02*
X0419889Y0174514D01*
X0420856Y0174514D01*
X0421340Y0174998D01*
X0421340Y0175481D01*
X0420856Y0175965D01*
X0420373Y0175965D01*
X0420856Y0175965D02*
X0421340Y0176449D01*
X0421340Y0176933D01*
X0420856Y0177416D01*
X0419889Y0177416D01*
X0419405Y0176933D01*
X0415447Y0174514D02*
X0413512Y0177416D01*
X0428024Y0185735D02*
X0429959Y0188637D01*
X0430971Y0188637D02*
X0432906Y0188637D01*
X0432906Y0188153D01*
X0430971Y0186218D01*
X0430971Y0185735D01*
X0429959Y0185735D02*
X0428024Y0188637D01*
X0432999Y0191365D02*
X0432999Y0194268D01*
X0434451Y0194268D01*
X0434934Y0193784D01*
X0434934Y0192816D01*
X0434451Y0192333D01*
X0432999Y0192333D01*
X0433967Y0192333D02*
X0434934Y0191365D01*
X0435946Y0192816D02*
X0437881Y0192816D01*
X0438892Y0193784D02*
X0439376Y0194268D01*
X0440344Y0194268D01*
X0440827Y0193784D01*
X0440827Y0193300D01*
X0438892Y0191365D01*
X0440827Y0191365D01*
X0437397Y0191365D02*
X0437397Y0194268D01*
X0435946Y0192816D01*
X0435946Y0195204D02*
X0437881Y0197139D01*
X0437881Y0197622D01*
X0437397Y0198106D01*
X0436430Y0198106D01*
X0435946Y0197622D01*
X0434934Y0197622D02*
X0434934Y0196655D01*
X0434451Y0196171D01*
X0432999Y0196171D01*
X0432999Y0195204D02*
X0432999Y0198106D01*
X0434451Y0198106D01*
X0434934Y0197622D01*
X0433967Y0196171D02*
X0434934Y0195204D01*
X0435946Y0195204D02*
X0437881Y0195204D01*
X0438892Y0195687D02*
X0439376Y0195204D01*
X0440344Y0195204D01*
X0440827Y0195687D01*
X0440827Y0196171D01*
X0440344Y0196655D01*
X0439860Y0196655D01*
X0440344Y0196655D02*
X0440827Y0197139D01*
X0440827Y0197622D01*
X0440344Y0198106D01*
X0439376Y0198106D01*
X0438892Y0197622D01*
X0450166Y0194660D02*
X0451133Y0194660D01*
X0450649Y0194660D02*
X0450649Y0191758D01*
X0450166Y0191758D02*
X0451133Y0191758D01*
X0452130Y0192242D02*
X0452614Y0191758D01*
X0453581Y0191758D01*
X0454065Y0192242D01*
X0455077Y0192242D02*
X0455077Y0192725D01*
X0455560Y0193209D01*
X0456528Y0193209D01*
X0457012Y0192725D01*
X0457012Y0192242D01*
X0456528Y0191758D01*
X0455560Y0191758D01*
X0455077Y0192242D01*
X0455560Y0193209D02*
X0455077Y0193693D01*
X0455077Y0194177D01*
X0455560Y0194660D01*
X0456528Y0194660D01*
X0457012Y0194177D01*
X0457012Y0193693D01*
X0456528Y0193209D01*
X0454065Y0194177D02*
X0453581Y0194660D01*
X0452614Y0194660D01*
X0452130Y0194177D01*
X0452130Y0192242D01*
X0462632Y0191767D02*
X0464567Y0191767D01*
X0465578Y0191767D02*
X0467513Y0191767D01*
X0468525Y0191767D02*
X0469976Y0191767D01*
X0470460Y0192250D01*
X0470460Y0194185D01*
X0469976Y0194669D01*
X0468525Y0194669D01*
X0468525Y0191767D01*
X0466546Y0193218D02*
X0465578Y0193218D01*
X0465578Y0194669D02*
X0465578Y0191767D01*
X0465578Y0194669D02*
X0467513Y0194669D01*
X0471471Y0194669D02*
X0471471Y0193218D01*
X0472439Y0193702D01*
X0472922Y0193702D01*
X0473406Y0193218D01*
X0473406Y0192250D01*
X0472922Y0191767D01*
X0471955Y0191767D01*
X0471471Y0192250D01*
X0471471Y0194669D02*
X0473406Y0194669D01*
X0473370Y0197797D02*
X0471435Y0197797D01*
X0470951Y0198281D01*
X0470951Y0199249D01*
X0471435Y0199732D01*
X0473370Y0199732D01*
X0473854Y0199249D01*
X0473854Y0198281D01*
X0473370Y0197797D01*
X0473370Y0200744D02*
X0473854Y0201228D01*
X0473854Y0202195D01*
X0473370Y0202679D01*
X0472886Y0202679D01*
X0472403Y0202195D01*
X0472403Y0201228D01*
X0471919Y0200744D01*
X0471435Y0200744D01*
X0470951Y0201228D01*
X0470951Y0202195D01*
X0471435Y0202679D01*
X0471435Y0203690D02*
X0473370Y0203690D01*
X0473854Y0204174D01*
X0473854Y0205142D01*
X0473370Y0205625D01*
X0473854Y0206637D02*
X0473854Y0208572D01*
X0473854Y0207604D02*
X0470951Y0207604D01*
X0471919Y0206637D01*
X0471435Y0205625D02*
X0470951Y0205142D01*
X0470951Y0204174D01*
X0471435Y0203690D01*
X0462632Y0194669D02*
X0462632Y0191767D01*
X0478164Y0181386D02*
X0479615Y0179934D01*
X0479615Y0181869D01*
X0478164Y0181386D02*
X0481067Y0181386D01*
X0481067Y0178923D02*
X0481067Y0176988D01*
X0481067Y0177955D02*
X0478164Y0177955D01*
X0479132Y0176988D01*
X0478648Y0175976D02*
X0478164Y0175493D01*
X0478164Y0174525D01*
X0478648Y0174041D01*
X0480583Y0174041D01*
X0481067Y0174525D01*
X0481067Y0175493D01*
X0480583Y0175976D01*
X0489876Y0179907D02*
X0489876Y0181358D01*
X0490360Y0181842D01*
X0491327Y0181842D01*
X0491811Y0181358D01*
X0491811Y0179907D01*
X0491811Y0180874D02*
X0492778Y0181842D01*
X0492778Y0182853D02*
X0490843Y0184788D01*
X0490360Y0184788D01*
X0489876Y0184304D01*
X0489876Y0183337D01*
X0490360Y0182853D01*
X0492778Y0182853D02*
X0492778Y0184788D01*
X0492778Y0185800D02*
X0492778Y0187735D01*
X0492778Y0186767D02*
X0489876Y0186767D01*
X0490843Y0185800D01*
X0489876Y0179907D02*
X0492778Y0179907D01*
X0482817Y0166952D02*
X0480882Y0166952D01*
X0480882Y0165501D01*
X0481849Y0165984D01*
X0482333Y0165984D01*
X0482817Y0165501D01*
X0482817Y0164533D01*
X0482333Y0164049D01*
X0481365Y0164049D01*
X0480882Y0164533D01*
X0479870Y0164049D02*
X0477935Y0164049D01*
X0479870Y0165984D01*
X0479870Y0166468D01*
X0479386Y0166952D01*
X0478419Y0166952D01*
X0477935Y0166468D01*
X0476924Y0166468D02*
X0476440Y0166952D01*
X0474989Y0166952D01*
X0474989Y0164049D01*
X0474989Y0165017D02*
X0476440Y0165017D01*
X0476924Y0165501D01*
X0476924Y0166468D01*
X0475956Y0165017D02*
X0476924Y0164049D01*
X0487430Y0162925D02*
X0487430Y0160990D01*
X0487913Y0160506D01*
X0488881Y0160506D01*
X0489365Y0160990D01*
X0490376Y0160506D02*
X0492311Y0160506D01*
X0491344Y0160506D02*
X0491344Y0163408D01*
X0490376Y0162441D01*
X0489365Y0162925D02*
X0488881Y0163408D01*
X0487913Y0163408D01*
X0487430Y0162925D01*
X0493323Y0162925D02*
X0493323Y0162441D01*
X0493806Y0161957D01*
X0494774Y0161957D01*
X0495258Y0161473D01*
X0495258Y0160990D01*
X0494774Y0160506D01*
X0493806Y0160506D01*
X0493323Y0160990D01*
X0493323Y0161473D01*
X0493806Y0161957D01*
X0494774Y0161957D02*
X0495258Y0162441D01*
X0495258Y0162925D01*
X0494774Y0163408D01*
X0493806Y0163408D01*
X0493323Y0162925D01*
X0493952Y0158468D02*
X0495887Y0158468D01*
X0495887Y0157984D01*
X0493952Y0156049D01*
X0493952Y0155565D01*
X0492941Y0155565D02*
X0491006Y0155565D01*
X0492941Y0157500D01*
X0492941Y0157984D01*
X0492457Y0158468D01*
X0491490Y0158468D01*
X0491006Y0157984D01*
X0489994Y0157984D02*
X0489511Y0158468D01*
X0488543Y0158468D01*
X0488059Y0157984D01*
X0488059Y0156049D01*
X0488543Y0155565D01*
X0489511Y0155565D01*
X0489994Y0156049D01*
X0485700Y0150308D02*
X0486184Y0149825D01*
X0486184Y0148857D01*
X0485700Y0148373D01*
X0485216Y0148373D01*
X0484733Y0148857D01*
X0484733Y0149825D01*
X0485216Y0150308D01*
X0485700Y0150308D01*
X0484733Y0149825D02*
X0484249Y0150308D01*
X0483765Y0150308D01*
X0483281Y0149825D01*
X0483281Y0148857D01*
X0483765Y0148373D01*
X0484249Y0148373D01*
X0484733Y0148857D01*
X0486184Y0147362D02*
X0486184Y0145427D01*
X0483281Y0145427D01*
X0489556Y0145169D02*
X0489556Y0143234D01*
X0490039Y0142750D01*
X0491007Y0142750D01*
X0491490Y0143234D01*
X0492502Y0142750D02*
X0494437Y0144685D01*
X0494437Y0145169D01*
X0493953Y0145653D01*
X0492986Y0145653D01*
X0492502Y0145169D01*
X0491490Y0145169D02*
X0491007Y0145653D01*
X0490039Y0145653D01*
X0489556Y0145169D01*
X0492502Y0142750D02*
X0494437Y0142750D01*
X0495449Y0143234D02*
X0495932Y0142750D01*
X0496900Y0142750D01*
X0497384Y0143234D01*
X0497384Y0143718D01*
X0496900Y0144201D01*
X0495449Y0144201D01*
X0495449Y0143234D01*
X0495449Y0144201D02*
X0496416Y0145169D01*
X0497384Y0145653D01*
X0502329Y0145594D02*
X0502329Y0146562D01*
X0502812Y0147046D01*
X0503296Y0147046D01*
X0503780Y0146562D01*
X0504264Y0147046D01*
X0504747Y0147046D01*
X0505231Y0146562D01*
X0505231Y0145594D01*
X0504747Y0145111D01*
X0503780Y0146078D02*
X0503780Y0146562D01*
X0502812Y0145111D02*
X0502329Y0145594D01*
X0502329Y0144099D02*
X0502812Y0144099D01*
X0503780Y0143132D01*
X0505231Y0143132D01*
X0503780Y0143132D02*
X0502812Y0142164D01*
X0502329Y0142164D01*
X0491420Y0138274D02*
X0491420Y0137307D01*
X0490936Y0136823D01*
X0489969Y0136823D02*
X0489485Y0137791D01*
X0489485Y0138274D01*
X0489969Y0138758D01*
X0490936Y0138758D01*
X0491420Y0138274D01*
X0489969Y0136823D02*
X0488518Y0136823D01*
X0488518Y0138758D01*
X0489001Y0135812D02*
X0488518Y0135328D01*
X0488518Y0134360D01*
X0489001Y0133877D01*
X0489001Y0132865D02*
X0488518Y0132381D01*
X0488518Y0131414D01*
X0489001Y0130930D01*
X0490936Y0130930D01*
X0491420Y0131414D01*
X0491420Y0132381D01*
X0490936Y0132865D01*
X0491420Y0133877D02*
X0489485Y0135812D01*
X0489001Y0135812D01*
X0491420Y0135812D02*
X0491420Y0133877D01*
X0484982Y0134123D02*
X0483047Y0134123D01*
X0484498Y0135574D01*
X0484498Y0132671D01*
X0482035Y0132671D02*
X0480100Y0132671D01*
X0482035Y0134606D01*
X0482035Y0135090D01*
X0481552Y0135574D01*
X0480584Y0135574D01*
X0480100Y0135090D01*
X0479089Y0135090D02*
X0478605Y0135574D01*
X0477638Y0135574D01*
X0477154Y0135090D01*
X0477154Y0133155D01*
X0477638Y0132671D01*
X0478605Y0132671D01*
X0479089Y0133155D01*
X0471643Y0135952D02*
X0471643Y0138854D01*
X0470192Y0137403D01*
X0472127Y0137403D01*
X0469180Y0135952D02*
X0467245Y0135952D01*
X0467245Y0138854D01*
X0450960Y0132362D02*
X0450960Y0130427D01*
X0450960Y0131394D02*
X0448058Y0131394D01*
X0449025Y0130427D01*
X0449025Y0129415D02*
X0448542Y0129415D01*
X0448058Y0128931D01*
X0448058Y0127964D01*
X0448542Y0127480D01*
X0448542Y0126469D02*
X0448058Y0125985D01*
X0448058Y0125017D01*
X0448542Y0124534D01*
X0450477Y0124534D01*
X0450960Y0125017D01*
X0450960Y0125985D01*
X0450477Y0126469D01*
X0450960Y0127480D02*
X0449025Y0129415D01*
X0450960Y0129415D02*
X0450960Y0127480D01*
X0444404Y0135558D02*
X0444404Y0136042D01*
X0446339Y0137977D01*
X0446339Y0138460D01*
X0444404Y0138460D01*
X0443393Y0138460D02*
X0442425Y0137977D01*
X0441458Y0137009D01*
X0442909Y0137009D01*
X0443393Y0136525D01*
X0443393Y0136042D01*
X0442909Y0135558D01*
X0441941Y0135558D01*
X0441458Y0136042D01*
X0441458Y0137009D01*
X0440446Y0136042D02*
X0439962Y0135558D01*
X0438995Y0135558D01*
X0438511Y0136042D01*
X0438511Y0137977D01*
X0438995Y0138460D01*
X0439962Y0138460D01*
X0440446Y0137977D01*
X0424128Y0148057D02*
X0424128Y0149992D01*
X0424128Y0149025D02*
X0427031Y0149025D01*
X0426547Y0151004D02*
X0427031Y0151487D01*
X0427031Y0152455D01*
X0426547Y0152939D01*
X0426063Y0152939D01*
X0425579Y0152455D01*
X0425579Y0151487D01*
X0425096Y0151004D01*
X0424612Y0151004D01*
X0424128Y0151487D01*
X0424128Y0152455D01*
X0424612Y0152939D01*
X0424612Y0153950D02*
X0426547Y0153950D01*
X0427031Y0154434D01*
X0427031Y0155401D01*
X0426547Y0155885D01*
X0427031Y0156897D02*
X0427031Y0158832D01*
X0427031Y0156897D02*
X0424128Y0156897D01*
X0424612Y0155885D02*
X0424128Y0155401D01*
X0424128Y0154434D01*
X0424612Y0153950D01*
X0431412Y0155734D02*
X0431412Y0157669D01*
X0431412Y0156702D02*
X0434314Y0156702D01*
X0433830Y0158681D02*
X0434314Y0159165D01*
X0434314Y0160132D01*
X0433830Y0160616D01*
X0433347Y0160616D01*
X0432863Y0160132D01*
X0432863Y0159165D01*
X0432379Y0158681D01*
X0431895Y0158681D01*
X0431412Y0159165D01*
X0431412Y0160132D01*
X0431895Y0160616D01*
X0431412Y0161627D02*
X0431412Y0163079D01*
X0431895Y0163562D01*
X0433830Y0163562D01*
X0434314Y0163079D01*
X0434314Y0161627D01*
X0431412Y0161627D01*
X0432379Y0164574D02*
X0431412Y0165541D01*
X0432379Y0166509D01*
X0434314Y0166509D01*
X0432863Y0166509D02*
X0432863Y0164574D01*
X0432379Y0164574D02*
X0434314Y0164574D01*
X0440184Y0163567D02*
X0440184Y0161632D01*
X0440668Y0161149D01*
X0441636Y0161149D01*
X0442119Y0161632D01*
X0443131Y0161149D02*
X0445066Y0163084D01*
X0445066Y0163567D01*
X0444582Y0164051D01*
X0443615Y0164051D01*
X0443131Y0163567D01*
X0442119Y0163567D02*
X0441636Y0164051D01*
X0440668Y0164051D01*
X0440184Y0163567D01*
X0443131Y0161149D02*
X0445066Y0161149D01*
X0446077Y0161632D02*
X0446561Y0161149D01*
X0447529Y0161149D01*
X0448012Y0161632D01*
X0448012Y0162116D01*
X0447529Y0162600D01*
X0447045Y0162600D01*
X0447529Y0162600D02*
X0448012Y0163084D01*
X0448012Y0163567D01*
X0447529Y0164051D01*
X0446561Y0164051D01*
X0446077Y0163567D01*
X0446410Y0155913D02*
X0445926Y0155429D01*
X0446410Y0155913D02*
X0447377Y0155913D01*
X0447861Y0155429D01*
X0447861Y0154946D01*
X0445926Y0153011D01*
X0447861Y0153011D01*
X0448873Y0153494D02*
X0449357Y0153011D01*
X0450324Y0153011D01*
X0450808Y0153494D01*
X0450808Y0153978D01*
X0450324Y0154462D01*
X0449840Y0154462D01*
X0450324Y0154462D02*
X0450808Y0154946D01*
X0450808Y0155429D01*
X0450324Y0155913D01*
X0449357Y0155913D01*
X0448873Y0155429D01*
X0444915Y0155429D02*
X0444431Y0155913D01*
X0443463Y0155913D01*
X0442980Y0155429D01*
X0442980Y0153494D01*
X0443463Y0153011D01*
X0444431Y0153011D01*
X0444915Y0153494D01*
X0441983Y0153011D02*
X0441015Y0153011D01*
X0441499Y0153011D02*
X0441499Y0155913D01*
X0441015Y0155913D02*
X0441983Y0155913D01*
X0473885Y0155950D02*
X0473885Y0154016D01*
X0475336Y0154016D01*
X0474852Y0154983D01*
X0474852Y0155467D01*
X0475336Y0155950D01*
X0476303Y0155950D01*
X0476787Y0155467D01*
X0476787Y0154499D01*
X0476303Y0154016D01*
X0476787Y0153004D02*
X0476787Y0151069D01*
X0473885Y0151069D01*
X0445652Y0172381D02*
X0445652Y0173349D01*
X0445652Y0172865D02*
X0442750Y0172865D01*
X0442750Y0172381D02*
X0442750Y0173349D01*
X0443234Y0174346D02*
X0445169Y0174346D01*
X0445652Y0174829D01*
X0445652Y0175797D01*
X0445169Y0176281D01*
X0445652Y0177292D02*
X0445652Y0179227D01*
X0445652Y0178260D02*
X0442750Y0178260D01*
X0443717Y0177292D01*
X0443234Y0176281D02*
X0442750Y0175797D01*
X0442750Y0174829D01*
X0443234Y0174346D01*
X0443234Y0180239D02*
X0443717Y0180239D01*
X0444201Y0180722D01*
X0444201Y0182174D01*
X0443234Y0182174D02*
X0442750Y0181690D01*
X0442750Y0180722D01*
X0443234Y0180239D01*
X0443234Y0182174D02*
X0445169Y0182174D01*
X0445652Y0181690D01*
X0445652Y0180722D01*
X0445169Y0180239D01*
X0397207Y0198501D02*
X0397207Y0199468D01*
X0396724Y0199952D01*
X0395756Y0200963D02*
X0395756Y0202898D01*
X0394789Y0203910D02*
X0394305Y0204394D01*
X0394305Y0205361D01*
X0394789Y0205845D01*
X0395273Y0205845D01*
X0395756Y0205361D01*
X0396240Y0205845D01*
X0396724Y0205845D01*
X0397207Y0205361D01*
X0397207Y0204394D01*
X0396724Y0203910D01*
X0395756Y0204877D02*
X0395756Y0205361D01*
X0394305Y0202415D02*
X0395756Y0200963D01*
X0394789Y0199952D02*
X0394305Y0199468D01*
X0394305Y0198501D01*
X0394789Y0198017D01*
X0396724Y0198017D01*
X0397207Y0198501D01*
X0397207Y0202415D02*
X0394305Y0202415D01*
X0365862Y0198655D02*
X0362959Y0198655D01*
X0364411Y0197204D01*
X0364411Y0199139D01*
X0365862Y0196192D02*
X0365862Y0194257D01*
X0365862Y0195225D02*
X0362959Y0195225D01*
X0363927Y0194257D01*
X0363443Y0193246D02*
X0362959Y0192762D01*
X0362959Y0191795D01*
X0363443Y0191311D01*
X0365378Y0191311D01*
X0365862Y0191795D01*
X0365862Y0192762D01*
X0365378Y0193246D01*
X0365862Y0190314D02*
X0365862Y0189347D01*
X0365862Y0189830D02*
X0362959Y0189830D01*
X0362959Y0189347D02*
X0362959Y0190314D01*
X0362515Y0211652D02*
X0359612Y0213587D01*
X0360096Y0214599D02*
X0360580Y0214599D01*
X0361063Y0215083D01*
X0361063Y0216050D01*
X0361547Y0216534D01*
X0362031Y0216534D01*
X0362515Y0216050D01*
X0362515Y0215083D01*
X0362031Y0214599D01*
X0361547Y0214599D01*
X0361063Y0215083D01*
X0361063Y0216050D02*
X0360580Y0216534D01*
X0360096Y0216534D01*
X0359612Y0216050D01*
X0359612Y0215083D01*
X0360096Y0214599D01*
X0362515Y0213587D02*
X0359612Y0211652D01*
X0364728Y0218086D02*
X0364728Y0219537D01*
X0365696Y0220504D01*
X0365696Y0220988D01*
X0366707Y0220988D02*
X0366707Y0219537D01*
X0367675Y0220021D01*
X0368159Y0220021D01*
X0368642Y0219537D01*
X0368642Y0218569D01*
X0368159Y0218086D01*
X0367191Y0218086D01*
X0366707Y0218569D01*
X0364728Y0219537D02*
X0363761Y0220504D01*
X0363761Y0220988D01*
X0366707Y0220988D02*
X0368642Y0220988D01*
X0349923Y0223451D02*
X0347988Y0223451D01*
X0349923Y0225386D01*
X0349923Y0225870D01*
X0349439Y0226354D01*
X0348472Y0226354D01*
X0347988Y0225870D01*
X0346976Y0226354D02*
X0345041Y0223451D01*
X0346976Y0223451D02*
X0345041Y0226354D01*
X0344030Y0226354D02*
X0342095Y0226354D01*
X0343062Y0226354D02*
X0343062Y0223451D01*
X0338524Y0222669D02*
X0338524Y0222185D01*
X0336589Y0220250D01*
X0338524Y0220250D01*
X0338524Y0222669D02*
X0338041Y0223153D01*
X0337073Y0223153D01*
X0336589Y0222669D01*
X0335578Y0223153D02*
X0333643Y0220250D01*
X0332631Y0220250D02*
X0331664Y0221218D01*
X0332148Y0221218D02*
X0330696Y0221218D01*
X0330696Y0220250D02*
X0330696Y0223153D01*
X0332148Y0223153D01*
X0332631Y0222669D01*
X0332631Y0221702D01*
X0332148Y0221218D01*
X0333643Y0223153D02*
X0335578Y0220250D01*
X0297285Y0220971D02*
X0295350Y0220971D01*
X0296318Y0220971D02*
X0296318Y0223873D01*
X0295350Y0222906D01*
X0294339Y0223873D02*
X0293371Y0223873D01*
X0293855Y0223873D02*
X0293855Y0221454D01*
X0293371Y0220971D01*
X0292887Y0220971D01*
X0292404Y0221454D01*
X0291392Y0221454D02*
X0290908Y0220971D01*
X0289941Y0220971D01*
X0289457Y0221454D01*
X0289941Y0222422D02*
X0290908Y0222422D01*
X0291392Y0221938D01*
X0291392Y0221454D01*
X0289941Y0222422D02*
X0289457Y0222906D01*
X0289457Y0223389D01*
X0289941Y0223873D01*
X0290908Y0223873D01*
X0291392Y0223389D01*
X0279164Y0209621D02*
X0277712Y0208170D01*
X0279647Y0208170D01*
X0279164Y0206719D02*
X0279164Y0209621D01*
X0275733Y0209621D02*
X0275733Y0206719D01*
X0274766Y0206719D02*
X0276701Y0206719D01*
X0274766Y0208654D02*
X0275733Y0209621D01*
X0273754Y0209621D02*
X0271819Y0206719D01*
X0273754Y0206719D02*
X0271819Y0209621D01*
X0269237Y0189149D02*
X0268270Y0188181D01*
X0269237Y0189149D02*
X0269237Y0186246D01*
X0268270Y0186246D02*
X0270205Y0186246D01*
X0267258Y0186246D02*
X0265323Y0189149D01*
X0267258Y0189149D02*
X0265323Y0186246D01*
X0193617Y0203946D02*
X0190714Y0205881D01*
X0190714Y0206892D02*
X0192166Y0206892D01*
X0191682Y0207860D01*
X0191682Y0208343D01*
X0192166Y0208827D01*
X0193133Y0208827D01*
X0193617Y0208343D01*
X0193617Y0207376D01*
X0193133Y0206892D01*
X0193617Y0205881D02*
X0190714Y0203946D01*
X0190714Y0206892D02*
X0190714Y0208827D01*
X0049522Y0211933D02*
X0049039Y0211449D01*
X0047104Y0213384D01*
X0049039Y0213384D01*
X0049522Y0212900D01*
X0049522Y0211933D01*
X0049039Y0211449D02*
X0047104Y0211449D01*
X0046620Y0211933D01*
X0046620Y0212900D01*
X0047104Y0213384D01*
X0357449Y0140527D02*
X0359384Y0137624D01*
X0360396Y0137624D02*
X0362331Y0137624D01*
X0361363Y0137624D02*
X0361363Y0140527D01*
X0360396Y0139559D01*
X0359384Y0140527D02*
X0357449Y0137624D01*
X0363342Y0137624D02*
X0365277Y0139559D01*
X0365277Y0140043D01*
X0364793Y0140527D01*
X0363826Y0140527D01*
X0363342Y0140043D01*
X0363342Y0137624D02*
X0365277Y0137624D01*
X0374535Y0137780D02*
X0374535Y0135845D01*
X0375019Y0135361D01*
X0375986Y0135361D01*
X0376470Y0135845D01*
X0377481Y0135845D02*
X0377481Y0135361D01*
X0377481Y0135845D02*
X0379416Y0137780D01*
X0379416Y0138264D01*
X0377481Y0138264D01*
X0376470Y0137780D02*
X0375986Y0138264D01*
X0375019Y0138264D01*
X0374535Y0137780D01*
X0380428Y0136812D02*
X0381879Y0136812D01*
X0382363Y0136329D01*
X0382363Y0135845D01*
X0381879Y0135361D01*
X0380912Y0135361D01*
X0380428Y0135845D01*
X0380428Y0136812D01*
X0381395Y0137780D01*
X0382363Y0138264D01*
X0388399Y0139355D02*
X0388399Y0140807D01*
X0388883Y0141290D01*
X0389851Y0141290D01*
X0390334Y0140807D01*
X0390334Y0139355D01*
X0390334Y0140323D02*
X0391302Y0141290D01*
X0391302Y0142302D02*
X0391302Y0144237D01*
X0391302Y0143269D02*
X0388399Y0143269D01*
X0389367Y0142302D01*
X0389367Y0145248D02*
X0389851Y0145732D01*
X0389851Y0147183D01*
X0390818Y0147183D02*
X0388883Y0147183D01*
X0388399Y0146700D01*
X0388399Y0145732D01*
X0388883Y0145248D01*
X0389367Y0145248D01*
X0390818Y0145248D02*
X0391302Y0145732D01*
X0391302Y0146700D01*
X0390818Y0147183D01*
X0391302Y0139355D02*
X0388399Y0139355D01*
X0387555Y0126157D02*
X0387555Y0123254D01*
X0387555Y0124222D02*
X0389490Y0126157D01*
X0388039Y0124706D02*
X0389490Y0123254D01*
X0386543Y0123254D02*
X0384608Y0123254D01*
X0384608Y0126157D01*
X0383597Y0125673D02*
X0383113Y0126157D01*
X0382146Y0126157D01*
X0381662Y0125673D01*
X0381662Y0123738D01*
X0382146Y0123254D01*
X0383113Y0123254D01*
X0383597Y0123738D01*
X0390177Y0106223D02*
X0389693Y0105740D01*
X0389693Y0103805D01*
X0390177Y0103321D01*
X0391145Y0103321D01*
X0391628Y0103805D01*
X0392640Y0104772D02*
X0394575Y0104772D01*
X0395586Y0105256D02*
X0396554Y0106223D01*
X0396554Y0103321D01*
X0397521Y0103321D02*
X0395586Y0103321D01*
X0394091Y0103321D02*
X0394091Y0106223D01*
X0392640Y0104772D01*
X0391628Y0105740D02*
X0391145Y0106223D01*
X0390177Y0106223D01*
X0407621Y0097319D02*
X0407621Y0095384D01*
X0408105Y0094900D01*
X0409073Y0094900D01*
X0409556Y0095384D01*
X0410568Y0095384D02*
X0411052Y0094900D01*
X0412019Y0094900D01*
X0412503Y0095384D01*
X0412503Y0096352D01*
X0412019Y0096835D01*
X0411535Y0096835D01*
X0410568Y0096352D01*
X0410568Y0097803D01*
X0412503Y0097803D01*
X0413515Y0097319D02*
X0413998Y0097803D01*
X0414966Y0097803D01*
X0415449Y0097319D01*
X0413515Y0095384D01*
X0413998Y0094900D01*
X0414966Y0094900D01*
X0415449Y0095384D01*
X0415449Y0097319D01*
X0413515Y0097319D02*
X0413515Y0095384D01*
X0409556Y0097319D02*
X0409073Y0097803D01*
X0408105Y0097803D01*
X0407621Y0097319D01*
X0428767Y0085606D02*
X0430218Y0085606D01*
X0430702Y0085122D01*
X0430702Y0084155D01*
X0430218Y0083671D01*
X0428767Y0083671D01*
X0428767Y0082704D02*
X0428767Y0085606D01*
X0429735Y0083671D02*
X0430702Y0082704D01*
X0431714Y0084155D02*
X0433649Y0084155D01*
X0434660Y0085122D02*
X0435144Y0085606D01*
X0436111Y0085606D01*
X0436595Y0085122D01*
X0434660Y0083187D01*
X0435144Y0082704D01*
X0436111Y0082704D01*
X0436595Y0083187D01*
X0436595Y0085122D01*
X0434660Y0085122D02*
X0434660Y0083187D01*
X0433165Y0082704D02*
X0433165Y0085606D01*
X0431714Y0084155D01*
X0426738Y0084094D02*
X0426254Y0084578D01*
X0425287Y0084578D01*
X0424803Y0084094D01*
X0423791Y0084578D02*
X0421856Y0084578D01*
X0421856Y0083127D01*
X0422824Y0083610D01*
X0423308Y0083610D01*
X0423791Y0083127D01*
X0423791Y0082159D01*
X0423308Y0081675D01*
X0422340Y0081675D01*
X0421856Y0082159D01*
X0420845Y0082159D02*
X0420361Y0081675D01*
X0419394Y0081675D01*
X0418910Y0082159D01*
X0418910Y0084094D01*
X0419394Y0084578D01*
X0420361Y0084578D01*
X0420845Y0084094D01*
X0420164Y0080247D02*
X0419197Y0080247D01*
X0418713Y0079763D01*
X0418713Y0077828D01*
X0419197Y0077345D01*
X0420164Y0077345D01*
X0420648Y0077828D01*
X0421660Y0077828D02*
X0422143Y0077345D01*
X0423111Y0077345D01*
X0423594Y0077828D01*
X0423594Y0078312D01*
X0423111Y0078796D01*
X0422627Y0078796D01*
X0423111Y0078796D02*
X0423594Y0079280D01*
X0423594Y0079763D01*
X0423111Y0080247D01*
X0422143Y0080247D01*
X0421660Y0079763D01*
X0420648Y0079763D02*
X0420164Y0080247D01*
X0424606Y0079763D02*
X0424606Y0079280D01*
X0425090Y0078796D01*
X0426057Y0078796D01*
X0426541Y0078312D01*
X0426541Y0077828D01*
X0426057Y0077345D01*
X0425090Y0077345D01*
X0424606Y0077828D01*
X0424606Y0078312D01*
X0425090Y0078796D01*
X0426057Y0078796D02*
X0426541Y0079280D01*
X0426541Y0079763D01*
X0426057Y0080247D01*
X0425090Y0080247D01*
X0424606Y0079763D01*
X0424803Y0081675D02*
X0426738Y0083610D01*
X0426738Y0084094D01*
X0426738Y0081675D02*
X0424803Y0081675D01*
X0440170Y0079763D02*
X0440170Y0077828D01*
X0440653Y0077345D01*
X0441621Y0077345D01*
X0442105Y0077828D01*
X0443116Y0078796D02*
X0445051Y0078796D01*
X0446063Y0078796D02*
X0447998Y0078796D01*
X0447514Y0080247D02*
X0446063Y0078796D01*
X0447514Y0077345D02*
X0447514Y0080247D01*
X0444567Y0080247D02*
X0443116Y0078796D01*
X0442105Y0079763D02*
X0441621Y0080247D01*
X0440653Y0080247D01*
X0440170Y0079763D01*
X0444567Y0080247D02*
X0444567Y0077345D01*
X0450756Y0072416D02*
X0452691Y0069514D01*
X0453703Y0069514D02*
X0455638Y0069514D01*
X0454670Y0069514D02*
X0454670Y0072416D01*
X0453703Y0071449D01*
X0452691Y0072416D02*
X0450756Y0069514D01*
X0456649Y0069514D02*
X0456649Y0069998D01*
X0458584Y0071933D01*
X0458584Y0072416D01*
X0456649Y0072416D01*
X0463302Y0074632D02*
X0466204Y0076567D01*
X0466204Y0077579D02*
X0466204Y0079513D01*
X0466204Y0078546D02*
X0463302Y0078546D01*
X0464269Y0077579D01*
X0463302Y0076567D02*
X0466204Y0074632D01*
X0465721Y0080525D02*
X0463786Y0082460D01*
X0465721Y0082460D01*
X0466204Y0081976D01*
X0466204Y0081009D01*
X0465721Y0080525D01*
X0463786Y0080525D01*
X0463302Y0081009D01*
X0463302Y0081976D01*
X0463786Y0082460D01*
X0458332Y0085767D02*
X0456397Y0083832D01*
X0456397Y0083349D01*
X0455386Y0083832D02*
X0454902Y0083349D01*
X0453935Y0083349D01*
X0453451Y0083832D01*
X0452439Y0083832D02*
X0451956Y0083349D01*
X0450988Y0083349D01*
X0450504Y0083832D01*
X0450504Y0085767D01*
X0450988Y0086251D01*
X0451956Y0086251D01*
X0452439Y0085767D01*
X0453451Y0085767D02*
X0453935Y0086251D01*
X0454902Y0086251D01*
X0455386Y0085767D01*
X0455386Y0085284D01*
X0454902Y0084800D01*
X0455386Y0084316D01*
X0455386Y0083832D01*
X0454902Y0084800D02*
X0454418Y0084800D01*
X0456397Y0086251D02*
X0458332Y0086251D01*
X0458332Y0085767D01*
X0456872Y0088459D02*
X0454937Y0088459D01*
X0455904Y0088459D02*
X0455904Y0091361D01*
X0454937Y0090394D01*
X0453925Y0089910D02*
X0451990Y0089910D01*
X0453441Y0091361D01*
X0453441Y0088459D01*
X0450979Y0088459D02*
X0450011Y0089426D01*
X0450495Y0089426D02*
X0449044Y0089426D01*
X0449044Y0088459D02*
X0449044Y0091361D01*
X0450495Y0091361D01*
X0450979Y0090877D01*
X0450979Y0089910D01*
X0450495Y0089426D01*
X0450293Y0095061D02*
X0449809Y0095545D01*
X0450293Y0095061D02*
X0451260Y0095061D01*
X0451744Y0095545D01*
X0451744Y0096512D01*
X0451260Y0096996D01*
X0450777Y0096996D01*
X0449809Y0096512D01*
X0449809Y0097964D01*
X0451744Y0097964D01*
X0452756Y0096996D02*
X0453723Y0097964D01*
X0453723Y0095061D01*
X0452756Y0095061D02*
X0454691Y0095061D01*
X0448798Y0095545D02*
X0448314Y0095061D01*
X0447346Y0095061D01*
X0446863Y0095545D01*
X0446863Y0097480D01*
X0447346Y0097964D01*
X0448314Y0097964D01*
X0448798Y0097480D01*
X0449696Y0102345D02*
X0450664Y0102345D01*
X0451147Y0102828D01*
X0451147Y0104763D01*
X0450664Y0105247D01*
X0449696Y0105247D01*
X0449212Y0104763D01*
X0449212Y0104280D01*
X0449696Y0103796D01*
X0451147Y0103796D01*
X0449696Y0102345D02*
X0449212Y0102828D01*
X0448201Y0103796D02*
X0446266Y0103796D01*
X0447717Y0105247D01*
X0447717Y0102345D01*
X0445254Y0102828D02*
X0444771Y0102345D01*
X0443803Y0102345D01*
X0443319Y0102828D01*
X0443319Y0104763D01*
X0443803Y0105247D01*
X0444771Y0105247D01*
X0445254Y0104763D01*
X0445364Y0110900D02*
X0444397Y0110900D01*
X0443913Y0111383D01*
X0442902Y0111383D02*
X0442418Y0110900D01*
X0441450Y0110900D01*
X0440967Y0111383D01*
X0439955Y0110900D02*
X0438988Y0111867D01*
X0439471Y0111867D02*
X0438020Y0111867D01*
X0438020Y0110900D02*
X0438020Y0113802D01*
X0439471Y0113802D01*
X0439955Y0113318D01*
X0439955Y0112351D01*
X0439471Y0111867D01*
X0440967Y0113318D02*
X0441450Y0113802D01*
X0442418Y0113802D01*
X0442902Y0113318D01*
X0442902Y0112835D01*
X0442418Y0112351D01*
X0442902Y0111867D01*
X0442902Y0111383D01*
X0442418Y0112351D02*
X0441934Y0112351D01*
X0443913Y0112835D02*
X0444397Y0112351D01*
X0445848Y0112351D01*
X0445848Y0113318D02*
X0445364Y0113802D01*
X0444397Y0113802D01*
X0443913Y0113318D01*
X0443913Y0112835D01*
X0445848Y0113318D02*
X0445848Y0111383D01*
X0445364Y0110900D01*
X0435021Y0115911D02*
X0434538Y0115427D01*
X0433570Y0115427D01*
X0433086Y0115911D01*
X0433086Y0116395D01*
X0433570Y0116878D01*
X0434538Y0116878D01*
X0435021Y0116395D01*
X0435021Y0115911D01*
X0434538Y0116878D02*
X0435021Y0117362D01*
X0435021Y0117846D01*
X0434538Y0118330D01*
X0433570Y0118330D01*
X0433086Y0117846D01*
X0433086Y0117362D01*
X0433570Y0116878D01*
X0432075Y0116395D02*
X0431591Y0116878D01*
X0431107Y0116878D01*
X0431591Y0116878D02*
X0432075Y0117362D01*
X0432075Y0117846D01*
X0431591Y0118330D01*
X0430624Y0118330D01*
X0430140Y0117846D01*
X0429128Y0117846D02*
X0429128Y0116878D01*
X0428645Y0116395D01*
X0427193Y0116395D01*
X0427193Y0115427D02*
X0427193Y0118330D01*
X0428645Y0118330D01*
X0429128Y0117846D01*
X0428161Y0116395D02*
X0429128Y0115427D01*
X0430140Y0115911D02*
X0430624Y0115427D01*
X0431591Y0115427D01*
X0432075Y0115911D01*
X0432075Y0116395D01*
X0461304Y0118680D02*
X0461788Y0118196D01*
X0462755Y0118196D01*
X0463239Y0118680D01*
X0463239Y0120614D01*
X0462755Y0121098D01*
X0461788Y0121098D01*
X0461304Y0120614D01*
X0461304Y0118680D01*
X0462272Y0119163D02*
X0463239Y0118196D01*
X0464251Y0118196D02*
X0464251Y0118680D01*
X0466186Y0120614D01*
X0466186Y0121098D01*
X0464251Y0121098D01*
X0472272Y0115968D02*
X0473723Y0115968D01*
X0474207Y0115484D01*
X0474207Y0114516D01*
X0473723Y0114033D01*
X0472272Y0114033D01*
X0473240Y0114033D02*
X0474207Y0113065D01*
X0475219Y0113549D02*
X0475702Y0113065D01*
X0476670Y0113065D01*
X0477154Y0113549D01*
X0477154Y0114033D01*
X0476670Y0114516D01*
X0476186Y0114516D01*
X0476670Y0114516D02*
X0477154Y0115000D01*
X0477154Y0115484D01*
X0476670Y0115968D01*
X0475702Y0115968D01*
X0475219Y0115484D01*
X0478165Y0115484D02*
X0478165Y0113549D01*
X0480100Y0115484D01*
X0480100Y0113549D01*
X0479616Y0113065D01*
X0478649Y0113065D01*
X0478165Y0113549D01*
X0478165Y0115484D02*
X0478649Y0115968D01*
X0479616Y0115968D01*
X0480100Y0115484D01*
X0480073Y0120309D02*
X0479106Y0121277D01*
X0479589Y0121277D02*
X0478138Y0121277D01*
X0478138Y0120309D02*
X0478138Y0123212D01*
X0479589Y0123212D01*
X0480073Y0122728D01*
X0480073Y0121760D01*
X0479589Y0121277D01*
X0481085Y0120309D02*
X0483020Y0122244D01*
X0483020Y0122728D01*
X0482536Y0123212D01*
X0481568Y0123212D01*
X0481085Y0122728D01*
X0481085Y0120309D02*
X0483020Y0120309D01*
X0484031Y0121760D02*
X0485482Y0123212D01*
X0485482Y0120309D01*
X0485966Y0121760D02*
X0484031Y0121760D01*
X0484823Y0124246D02*
X0485790Y0124246D01*
X0486274Y0124730D01*
X0487285Y0124246D02*
X0489220Y0126181D01*
X0489220Y0126665D01*
X0488737Y0127149D01*
X0487769Y0127149D01*
X0487285Y0126665D01*
X0486274Y0126665D02*
X0485790Y0127149D01*
X0484823Y0127149D01*
X0484339Y0126665D01*
X0484339Y0124730D01*
X0484823Y0124246D01*
X0487285Y0124246D02*
X0489220Y0124246D01*
X0490232Y0124246D02*
X0492167Y0126181D01*
X0492167Y0126665D01*
X0491683Y0127149D01*
X0490716Y0127149D01*
X0490232Y0126665D01*
X0490232Y0124246D02*
X0492167Y0124246D01*
X0491944Y0121209D02*
X0489042Y0121209D01*
X0490493Y0119757D01*
X0490493Y0121692D01*
X0489526Y0118746D02*
X0491461Y0116811D01*
X0491944Y0116811D01*
X0491461Y0115799D02*
X0491944Y0115316D01*
X0491944Y0114348D01*
X0491461Y0113864D01*
X0489526Y0113864D01*
X0489042Y0114348D01*
X0489042Y0115316D01*
X0489526Y0115799D01*
X0489042Y0116811D02*
X0489042Y0118746D01*
X0489526Y0118746D01*
X0497998Y0119003D02*
X0499449Y0117552D01*
X0499449Y0119487D01*
X0500900Y0119003D02*
X0497998Y0119003D01*
X0498482Y0116540D02*
X0497998Y0116056D01*
X0497998Y0115089D01*
X0498482Y0114605D01*
X0498482Y0113594D02*
X0497998Y0113110D01*
X0497998Y0112142D01*
X0498482Y0111659D01*
X0500417Y0111659D01*
X0500900Y0112142D01*
X0500900Y0113110D01*
X0500417Y0113594D01*
X0500900Y0114605D02*
X0498965Y0116540D01*
X0498482Y0116540D01*
X0500900Y0116540D02*
X0500900Y0114605D01*
X0500900Y0110662D02*
X0500900Y0109694D01*
X0500900Y0110178D02*
X0497998Y0110178D01*
X0497998Y0109694D02*
X0497998Y0110662D01*
X0491714Y0109185D02*
X0491714Y0107250D01*
X0491230Y0106766D01*
X0490263Y0106766D01*
X0489779Y0107250D01*
X0488768Y0107250D02*
X0488284Y0106766D01*
X0487316Y0106766D01*
X0486833Y0107250D01*
X0485821Y0107250D02*
X0485337Y0106766D01*
X0484370Y0106766D01*
X0483886Y0107250D01*
X0483886Y0109185D01*
X0484370Y0109668D01*
X0485337Y0109668D01*
X0485821Y0109185D01*
X0486833Y0109185D02*
X0487316Y0109668D01*
X0488284Y0109668D01*
X0488768Y0109185D01*
X0488768Y0108701D01*
X0488284Y0108217D01*
X0488768Y0107733D01*
X0488768Y0107250D01*
X0488284Y0108217D02*
X0487800Y0108217D01*
X0489779Y0108701D02*
X0490263Y0108217D01*
X0491714Y0108217D01*
X0491714Y0109185D02*
X0491230Y0109668D01*
X0490263Y0109668D01*
X0489779Y0109185D01*
X0489779Y0108701D01*
X0490944Y0102975D02*
X0490944Y0100073D01*
X0491911Y0100073D02*
X0489976Y0100073D01*
X0488965Y0100557D02*
X0488481Y0100073D01*
X0487513Y0100073D01*
X0487030Y0100557D01*
X0486018Y0100073D02*
X0485051Y0101040D01*
X0485534Y0101040D02*
X0484083Y0101040D01*
X0484083Y0100073D02*
X0484083Y0102975D01*
X0485534Y0102975D01*
X0486018Y0102492D01*
X0486018Y0101524D01*
X0485534Y0101040D01*
X0487030Y0102492D02*
X0487513Y0102975D01*
X0488481Y0102975D01*
X0488965Y0102492D01*
X0488965Y0102008D01*
X0488481Y0101524D01*
X0488965Y0101040D01*
X0488965Y0100557D01*
X0488481Y0101524D02*
X0487997Y0101524D01*
X0489976Y0102008D02*
X0490944Y0102975D01*
X0472272Y0113065D02*
X0472272Y0115968D01*
X0465487Y0109475D02*
X0465487Y0108508D01*
X0465003Y0108024D01*
X0463068Y0109959D01*
X0465003Y0109959D01*
X0465487Y0109475D01*
X0465003Y0108024D02*
X0463068Y0108024D01*
X0462585Y0108508D01*
X0462585Y0109475D01*
X0463068Y0109959D01*
X0465487Y0107013D02*
X0465487Y0105078D01*
X0465487Y0106045D02*
X0462585Y0106045D01*
X0463552Y0105078D01*
X0463068Y0104066D02*
X0465003Y0104066D01*
X0465487Y0103582D01*
X0465487Y0102615D01*
X0465003Y0102131D01*
X0463068Y0102131D01*
X0462585Y0102615D01*
X0462585Y0103582D01*
X0463068Y0104066D01*
X0464520Y0103098D02*
X0465487Y0104066D01*
X0460358Y0066968D02*
X0460842Y0066484D01*
X0460842Y0065517D01*
X0460358Y0065033D01*
X0460842Y0064021D02*
X0460842Y0062086D01*
X0460842Y0063054D02*
X0457940Y0063054D01*
X0458907Y0062086D01*
X0458423Y0061075D02*
X0459391Y0061075D01*
X0459875Y0060591D01*
X0459875Y0059140D01*
X0460842Y0059140D02*
X0457940Y0059140D01*
X0457940Y0060591D01*
X0458423Y0061075D01*
X0459875Y0060107D02*
X0460842Y0061075D01*
X0462074Y0060591D02*
X0462557Y0061075D01*
X0463525Y0061075D01*
X0464009Y0060591D01*
X0464009Y0059140D01*
X0464976Y0059140D02*
X0462074Y0059140D01*
X0462074Y0060591D01*
X0462557Y0062086D02*
X0463041Y0062086D01*
X0463525Y0062570D01*
X0463525Y0063538D01*
X0464009Y0064021D01*
X0464492Y0064021D01*
X0464976Y0063538D01*
X0464976Y0062570D01*
X0464492Y0062086D01*
X0464009Y0062086D01*
X0463525Y0062570D01*
X0463525Y0063538D02*
X0463041Y0064021D01*
X0462557Y0064021D01*
X0462074Y0063538D01*
X0462074Y0062570D01*
X0462557Y0062086D01*
X0464009Y0060107D02*
X0464976Y0061075D01*
X0459391Y0066000D02*
X0459391Y0066484D01*
X0459875Y0066968D01*
X0460358Y0066968D01*
X0459391Y0066484D02*
X0458907Y0066968D01*
X0458423Y0066968D01*
X0457940Y0066484D01*
X0457940Y0065517D01*
X0458423Y0065033D01*
X0454238Y0061554D02*
X0456173Y0059619D01*
X0456656Y0059619D01*
X0456656Y0058607D02*
X0456656Y0056672D01*
X0456656Y0057640D02*
X0453754Y0057640D01*
X0454721Y0056672D01*
X0454238Y0055660D02*
X0455205Y0055660D01*
X0455689Y0055177D01*
X0455689Y0053726D01*
X0455689Y0054693D02*
X0456656Y0055660D01*
X0456656Y0053726D02*
X0453754Y0053726D01*
X0453754Y0055177D01*
X0454238Y0055660D01*
X0452574Y0054369D02*
X0452574Y0052434D01*
X0450639Y0054369D01*
X0450156Y0054369D01*
X0449672Y0053886D01*
X0449672Y0052918D01*
X0450156Y0052434D01*
X0449672Y0050455D02*
X0452574Y0050455D01*
X0452574Y0049488D02*
X0452574Y0051423D01*
X0450639Y0049488D02*
X0449672Y0050455D01*
X0450156Y0048476D02*
X0449672Y0047993D01*
X0449672Y0047025D01*
X0450156Y0046541D01*
X0452091Y0046541D01*
X0452574Y0047025D01*
X0452574Y0047993D01*
X0452091Y0048476D01*
X0449892Y0055388D02*
X0448924Y0055388D01*
X0448441Y0055872D01*
X0447429Y0055872D02*
X0446945Y0055388D01*
X0445978Y0055388D01*
X0445494Y0055872D01*
X0444483Y0055388D02*
X0443515Y0056355D01*
X0443999Y0056355D02*
X0442548Y0056355D01*
X0442548Y0055388D02*
X0442548Y0058290D01*
X0443999Y0058290D01*
X0444483Y0057807D01*
X0444483Y0056839D01*
X0443999Y0056355D01*
X0445494Y0057807D02*
X0445978Y0058290D01*
X0446945Y0058290D01*
X0447429Y0057807D01*
X0447429Y0057323D01*
X0446945Y0056839D01*
X0447429Y0056355D01*
X0447429Y0055872D01*
X0446945Y0056839D02*
X0446462Y0056839D01*
X0448441Y0057807D02*
X0448924Y0058290D01*
X0449892Y0058290D01*
X0450376Y0057807D01*
X0450376Y0057323D01*
X0449892Y0056839D01*
X0450376Y0056355D01*
X0450376Y0055872D01*
X0449892Y0055388D01*
X0449892Y0056839D02*
X0449408Y0056839D01*
X0448441Y0059325D02*
X0450376Y0061260D01*
X0450376Y0061744D01*
X0449892Y0062227D01*
X0448924Y0062227D01*
X0448441Y0061744D01*
X0447429Y0061744D02*
X0447429Y0061260D01*
X0446945Y0060776D01*
X0447429Y0060292D01*
X0447429Y0059809D01*
X0446945Y0059325D01*
X0445978Y0059325D01*
X0445494Y0059809D01*
X0444483Y0059325D02*
X0443515Y0060292D01*
X0443999Y0060292D02*
X0442548Y0060292D01*
X0442548Y0059325D02*
X0442548Y0062227D01*
X0443999Y0062227D01*
X0444483Y0061744D01*
X0444483Y0060776D01*
X0443999Y0060292D01*
X0445494Y0061744D02*
X0445978Y0062227D01*
X0446945Y0062227D01*
X0447429Y0061744D01*
X0446945Y0060776D02*
X0446462Y0060776D01*
X0448441Y0059325D02*
X0450376Y0059325D01*
X0453754Y0059619D02*
X0453754Y0061554D01*
X0454238Y0061554D01*
X0464339Y0052732D02*
X0466274Y0049829D01*
X0466274Y0052732D01*
X0467285Y0052248D02*
X0467285Y0051764D01*
X0467769Y0051280D01*
X0468737Y0051280D01*
X0469220Y0050797D01*
X0469220Y0050313D01*
X0468737Y0049829D01*
X0467769Y0049829D01*
X0467285Y0050313D01*
X0467285Y0052248D02*
X0467769Y0052732D01*
X0468737Y0052732D01*
X0469220Y0052248D01*
X0470232Y0052732D02*
X0471683Y0052732D01*
X0472167Y0052248D01*
X0472167Y0050313D01*
X0471683Y0049829D01*
X0470232Y0049829D01*
X0470232Y0052732D01*
X0473179Y0051764D02*
X0473179Y0049829D01*
X0473179Y0051280D02*
X0475114Y0051280D01*
X0475114Y0051764D02*
X0475114Y0049829D01*
X0475114Y0051764D02*
X0474146Y0052732D01*
X0473179Y0051764D01*
X0477908Y0051999D02*
X0477908Y0053934D01*
X0478392Y0053934D01*
X0480327Y0051999D01*
X0480811Y0051999D01*
X0480811Y0050987D02*
X0480811Y0049052D01*
X0480811Y0050020D02*
X0477908Y0050020D01*
X0478876Y0049052D01*
X0478392Y0048041D02*
X0477908Y0047557D01*
X0477908Y0046590D01*
X0478392Y0046106D01*
X0480327Y0046106D01*
X0480811Y0046590D01*
X0480811Y0047557D01*
X0480327Y0048041D01*
X0480811Y0045109D02*
X0480811Y0044141D01*
X0480811Y0044625D02*
X0477908Y0044625D01*
X0477908Y0044141D02*
X0477908Y0045109D01*
X0480374Y0042298D02*
X0479890Y0041814D01*
X0479890Y0039880D01*
X0480374Y0039396D01*
X0481341Y0039396D01*
X0481825Y0039880D01*
X0482837Y0039396D02*
X0484772Y0039396D01*
X0483804Y0039396D02*
X0483804Y0042298D01*
X0482837Y0041331D01*
X0481825Y0041814D02*
X0481341Y0042298D01*
X0480374Y0042298D01*
X0485783Y0041814D02*
X0486267Y0042298D01*
X0487234Y0042298D01*
X0487718Y0041814D01*
X0487718Y0041331D01*
X0487234Y0040847D01*
X0487718Y0040363D01*
X0487718Y0039880D01*
X0487234Y0039396D01*
X0486267Y0039396D01*
X0485783Y0039880D01*
X0486751Y0040847D02*
X0487234Y0040847D01*
X0488248Y0037180D02*
X0487764Y0036696D01*
X0487764Y0034761D01*
X0488248Y0034278D01*
X0489215Y0034278D01*
X0489699Y0034761D01*
X0490711Y0034278D02*
X0492646Y0034278D01*
X0491678Y0034278D02*
X0491678Y0037180D01*
X0490711Y0036213D01*
X0489699Y0036696D02*
X0489215Y0037180D01*
X0488248Y0037180D01*
X0493657Y0036213D02*
X0494625Y0037180D01*
X0494625Y0034278D01*
X0495592Y0034278D02*
X0493657Y0034278D01*
X0494141Y0032456D02*
X0495108Y0032456D01*
X0495592Y0031972D01*
X0493657Y0030037D01*
X0494141Y0029553D01*
X0495108Y0029553D01*
X0495592Y0030037D01*
X0495592Y0031972D01*
X0494141Y0032456D02*
X0493657Y0031972D01*
X0493657Y0030037D01*
X0492646Y0029553D02*
X0490711Y0029553D01*
X0491678Y0029553D02*
X0491678Y0032456D01*
X0490711Y0031488D01*
X0489699Y0029553D02*
X0487764Y0029553D01*
X0487764Y0032456D01*
X0492034Y0027563D02*
X0494937Y0027563D01*
X0494937Y0026596D02*
X0494937Y0028531D01*
X0493002Y0026596D02*
X0492034Y0027563D01*
X0492518Y0025584D02*
X0492034Y0025100D01*
X0492034Y0024133D01*
X0492518Y0023649D01*
X0492518Y0022638D02*
X0492034Y0022154D01*
X0492034Y0021186D01*
X0492518Y0020703D01*
X0494453Y0020703D01*
X0494937Y0021186D01*
X0494937Y0022154D01*
X0494453Y0022638D01*
X0494937Y0023649D02*
X0493002Y0025584D01*
X0492518Y0025584D01*
X0494937Y0025584D02*
X0494937Y0023649D01*
X0494937Y0019706D02*
X0494937Y0018738D01*
X0494937Y0019222D02*
X0492034Y0019222D01*
X0492034Y0018738D02*
X0492034Y0019706D01*
X0492093Y0017066D02*
X0492577Y0017066D01*
X0494512Y0015131D01*
X0494996Y0015131D01*
X0494996Y0013636D02*
X0492093Y0013636D01*
X0493544Y0012185D01*
X0493544Y0014120D01*
X0492093Y0015131D02*
X0492093Y0017066D01*
X0492577Y0011173D02*
X0493544Y0011173D01*
X0494028Y0010690D01*
X0494028Y0009238D01*
X0494996Y0009238D02*
X0492093Y0009238D01*
X0492093Y0010690D01*
X0492577Y0011173D01*
X0494028Y0010206D02*
X0494996Y0011173D01*
X0465515Y0019300D02*
X0464548Y0018333D01*
X0462613Y0018333D01*
X0462613Y0020268D02*
X0464548Y0020268D01*
X0465515Y0019300D01*
X0465515Y0021279D02*
X0465515Y0022731D01*
X0465032Y0023214D01*
X0463097Y0023214D01*
X0462613Y0022731D01*
X0462613Y0021279D01*
X0465515Y0021279D01*
X0465032Y0024226D02*
X0465515Y0024710D01*
X0465515Y0025677D01*
X0465032Y0026161D01*
X0464548Y0026161D01*
X0464064Y0025677D01*
X0464064Y0025193D01*
X0464064Y0025677D02*
X0463580Y0026161D01*
X0463097Y0026161D01*
X0462613Y0025677D01*
X0462613Y0024710D01*
X0463097Y0024226D01*
X0451851Y0023410D02*
X0449916Y0021475D01*
X0450400Y0020991D01*
X0451367Y0020991D01*
X0451851Y0021475D01*
X0451851Y0023410D01*
X0451367Y0023894D01*
X0450400Y0023894D01*
X0449916Y0023410D01*
X0449916Y0021475D01*
X0448905Y0023410D02*
X0446970Y0021475D01*
X0446970Y0020991D01*
X0445958Y0021475D02*
X0445474Y0020991D01*
X0444507Y0020991D01*
X0444023Y0021475D01*
X0444023Y0023410D01*
X0444507Y0023894D01*
X0445474Y0023894D01*
X0445958Y0023410D01*
X0446970Y0023894D02*
X0448905Y0023894D01*
X0448905Y0023410D01*
X0440099Y0025754D02*
X0440099Y0027689D01*
X0439615Y0028173D01*
X0438648Y0028173D01*
X0438164Y0027689D01*
X0438164Y0027206D01*
X0438648Y0026722D01*
X0440099Y0026722D01*
X0440099Y0025754D02*
X0439615Y0025271D01*
X0438648Y0025271D01*
X0438164Y0025754D01*
X0437153Y0025754D02*
X0437153Y0026238D01*
X0436669Y0026722D01*
X0435218Y0026722D01*
X0435218Y0025754D01*
X0435701Y0025271D01*
X0436669Y0025271D01*
X0437153Y0025754D01*
X0436185Y0027689D02*
X0435218Y0026722D01*
X0436185Y0027689D02*
X0437153Y0028173D01*
X0434206Y0027689D02*
X0433722Y0028173D01*
X0432755Y0028173D01*
X0432271Y0027689D01*
X0432271Y0025754D01*
X0432755Y0025271D01*
X0433722Y0025271D01*
X0434206Y0025754D01*
X0434635Y0023894D02*
X0435119Y0023410D01*
X0435119Y0022926D01*
X0434635Y0022442D01*
X0433668Y0022442D01*
X0433184Y0022926D01*
X0433184Y0023410D01*
X0433668Y0023894D01*
X0434635Y0023894D01*
X0434635Y0022442D02*
X0435119Y0021959D01*
X0435119Y0021475D01*
X0434635Y0020991D01*
X0433668Y0020991D01*
X0433184Y0021475D01*
X0433184Y0021959D01*
X0433668Y0022442D01*
X0432172Y0022442D02*
X0430237Y0022442D01*
X0431689Y0023894D01*
X0431689Y0020991D01*
X0429226Y0020991D02*
X0428258Y0021959D01*
X0428742Y0021959D02*
X0427291Y0021959D01*
X0427291Y0020991D02*
X0427291Y0023894D01*
X0428742Y0023894D01*
X0429226Y0023410D01*
X0429226Y0022442D01*
X0428742Y0021959D01*
X0425373Y0022298D02*
X0425373Y0019396D01*
X0426340Y0019396D02*
X0424405Y0019396D01*
X0423394Y0019396D02*
X0423394Y0022298D01*
X0424405Y0021331D02*
X0425373Y0022298D01*
X0423394Y0019396D02*
X0422426Y0020363D01*
X0421459Y0019396D01*
X0421459Y0022298D01*
X0420447Y0021814D02*
X0419963Y0022298D01*
X0418996Y0022298D01*
X0418512Y0021814D01*
X0418512Y0021331D01*
X0418996Y0020847D01*
X0419963Y0020847D01*
X0420447Y0020363D01*
X0420447Y0019880D01*
X0419963Y0019396D01*
X0418996Y0019396D01*
X0418512Y0019880D01*
X0379850Y0022754D02*
X0379367Y0022270D01*
X0378399Y0022270D01*
X0377915Y0022754D01*
X0376904Y0022270D02*
X0374969Y0025172D01*
X0376904Y0025172D02*
X0374969Y0022270D01*
X0377915Y0024689D02*
X0378399Y0025172D01*
X0379367Y0025172D01*
X0379850Y0024689D01*
X0379850Y0024205D01*
X0379367Y0023721D01*
X0379850Y0023237D01*
X0379850Y0022754D01*
X0379367Y0023721D02*
X0378883Y0023721D01*
X0341992Y0027388D02*
X0339089Y0029323D01*
X0340541Y0030334D02*
X0339089Y0031786D01*
X0341992Y0031786D01*
X0340541Y0032269D02*
X0340541Y0030334D01*
X0341992Y0029323D02*
X0339089Y0027388D01*
X0335002Y0023980D02*
X0335002Y0023496D01*
X0334518Y0023012D01*
X0335002Y0022529D01*
X0335002Y0022045D01*
X0334518Y0021561D01*
X0333550Y0021561D01*
X0333067Y0022045D01*
X0332055Y0021561D02*
X0332055Y0024464D01*
X0333067Y0023980D02*
X0333550Y0024464D01*
X0334518Y0024464D01*
X0335002Y0023980D01*
X0334518Y0023012D02*
X0334034Y0023012D01*
X0332055Y0021561D02*
X0331088Y0022529D01*
X0330120Y0021561D01*
X0330120Y0024464D01*
X0329109Y0023980D02*
X0328625Y0024464D01*
X0327657Y0024464D01*
X0327174Y0023980D01*
X0327174Y0023496D01*
X0327657Y0023012D01*
X0328625Y0023012D01*
X0329109Y0022529D01*
X0329109Y0022045D01*
X0328625Y0021561D01*
X0327657Y0021561D01*
X0327174Y0022045D01*
X0324201Y0025360D02*
X0323717Y0024876D01*
X0322750Y0024876D01*
X0322266Y0025360D01*
X0321254Y0024876D02*
X0320287Y0025844D01*
X0320771Y0025844D02*
X0319319Y0025844D01*
X0319319Y0024876D02*
X0319319Y0027779D01*
X0320771Y0027779D01*
X0321254Y0027295D01*
X0321254Y0026327D01*
X0320771Y0025844D01*
X0322266Y0027295D02*
X0322750Y0027779D01*
X0323717Y0027779D01*
X0324201Y0027295D01*
X0324201Y0026811D01*
X0323717Y0026327D01*
X0324201Y0025844D01*
X0324201Y0025360D01*
X0323717Y0026327D02*
X0323233Y0026327D01*
X0309784Y0026943D02*
X0307849Y0026943D01*
X0307849Y0029846D01*
X0309784Y0029846D01*
X0308817Y0028395D02*
X0307849Y0028395D01*
X0306838Y0029846D02*
X0306838Y0026943D01*
X0304903Y0029846D01*
X0304903Y0026943D01*
X0303891Y0027427D02*
X0303891Y0029362D01*
X0303407Y0029846D01*
X0302440Y0029846D01*
X0301956Y0029362D01*
X0301956Y0027427D01*
X0302440Y0026943D01*
X0303407Y0026943D01*
X0303891Y0027427D01*
X0300945Y0027427D02*
X0300945Y0029362D01*
X0300461Y0029846D01*
X0299010Y0029846D01*
X0299010Y0026943D01*
X0300461Y0026943D01*
X0300945Y0027427D01*
X0297904Y0026038D02*
X0296452Y0024587D01*
X0298387Y0024587D01*
X0297904Y0023136D02*
X0297904Y0026038D01*
X0295441Y0026038D02*
X0295441Y0023136D01*
X0294473Y0024103D01*
X0293506Y0023136D01*
X0293506Y0026038D01*
X0292494Y0025555D02*
X0292011Y0026038D01*
X0291043Y0026038D01*
X0290559Y0025555D01*
X0290559Y0025071D01*
X0291043Y0024587D01*
X0292011Y0024587D01*
X0292494Y0024103D01*
X0292494Y0023620D01*
X0292011Y0023136D01*
X0291043Y0023136D01*
X0290559Y0023620D01*
X0359514Y0042801D02*
X0359514Y0044253D01*
X0359998Y0044736D01*
X0360966Y0044736D01*
X0361449Y0044253D01*
X0361449Y0042801D01*
X0361449Y0043769D02*
X0362417Y0044736D01*
X0360966Y0045748D02*
X0360966Y0047683D01*
X0361933Y0048694D02*
X0362417Y0049178D01*
X0362417Y0050146D01*
X0361933Y0050629D01*
X0361449Y0050629D01*
X0360966Y0050146D01*
X0360966Y0049662D01*
X0360966Y0050146D02*
X0360482Y0050629D01*
X0359998Y0050629D01*
X0359514Y0050146D01*
X0359514Y0049178D01*
X0359998Y0048694D01*
X0359514Y0047199D02*
X0360966Y0045748D01*
X0362417Y0047199D02*
X0359514Y0047199D01*
X0359514Y0042801D02*
X0362417Y0042801D01*
X0365078Y0048944D02*
X0366045Y0048944D01*
X0366529Y0049428D01*
X0367540Y0049428D02*
X0367540Y0048944D01*
X0367540Y0049428D02*
X0369475Y0051363D01*
X0369475Y0051846D01*
X0367540Y0051846D01*
X0366529Y0051363D02*
X0366045Y0051846D01*
X0365078Y0051846D01*
X0364594Y0051363D01*
X0364594Y0049428D01*
X0365078Y0048944D01*
X0370487Y0048944D02*
X0372422Y0048944D01*
X0371454Y0048944D02*
X0371454Y0051846D01*
X0370487Y0050879D01*
X0376337Y0057171D02*
X0378272Y0057171D01*
X0378756Y0057655D01*
X0378756Y0058623D01*
X0378272Y0059106D01*
X0377304Y0060118D02*
X0377304Y0062053D01*
X0376337Y0063064D02*
X0375853Y0063548D01*
X0375853Y0064516D01*
X0376337Y0064999D01*
X0376821Y0064999D01*
X0378756Y0063064D01*
X0378756Y0064999D01*
X0378756Y0061569D02*
X0375853Y0061569D01*
X0377304Y0060118D01*
X0376337Y0059106D02*
X0375853Y0058623D01*
X0375853Y0057655D01*
X0376337Y0057171D01*
X0391941Y0056568D02*
X0392425Y0056085D01*
X0393393Y0056085D01*
X0393876Y0056568D01*
X0394888Y0056568D02*
X0395372Y0056085D01*
X0396339Y0056085D01*
X0396823Y0056568D01*
X0396823Y0057052D01*
X0396339Y0057536D01*
X0395855Y0057536D01*
X0396339Y0057536D02*
X0396823Y0058020D01*
X0396823Y0058503D01*
X0396339Y0058987D01*
X0395372Y0058987D01*
X0394888Y0058503D01*
X0393876Y0058503D02*
X0393393Y0058987D01*
X0392425Y0058987D01*
X0391941Y0058503D01*
X0391941Y0056568D01*
X0397834Y0056568D02*
X0398318Y0056085D01*
X0399286Y0056085D01*
X0399769Y0056568D01*
X0399769Y0057052D01*
X0399286Y0057536D01*
X0397834Y0057536D01*
X0397834Y0056568D01*
X0397834Y0057536D02*
X0398802Y0058503D01*
X0399769Y0058987D01*
X0414692Y0057465D02*
X0414692Y0055530D01*
X0415176Y0055046D01*
X0416144Y0055046D01*
X0416627Y0055530D01*
X0417639Y0056497D02*
X0419574Y0056497D01*
X0420585Y0055530D02*
X0422520Y0057465D01*
X0422520Y0057949D01*
X0420585Y0057949D01*
X0419090Y0057949D02*
X0417639Y0056497D01*
X0416627Y0057465D02*
X0416144Y0057949D01*
X0415176Y0057949D01*
X0414692Y0057465D01*
X0419090Y0057949D02*
X0419090Y0055046D01*
X0420585Y0055046D02*
X0420585Y0055530D01*
X0424551Y0051650D02*
X0424551Y0049715D01*
X0425034Y0049231D01*
X0426002Y0049231D01*
X0426486Y0049715D01*
X0427497Y0050682D02*
X0429432Y0050682D01*
X0430444Y0050682D02*
X0431411Y0051166D01*
X0431895Y0051166D01*
X0432379Y0050682D01*
X0432379Y0049715D01*
X0431895Y0049231D01*
X0430927Y0049231D01*
X0430444Y0049715D01*
X0430444Y0050682D02*
X0430444Y0052134D01*
X0432379Y0052134D01*
X0428948Y0052134D02*
X0427497Y0050682D01*
X0426486Y0051650D02*
X0426002Y0052134D01*
X0425034Y0052134D01*
X0424551Y0051650D01*
X0425034Y0048197D02*
X0424551Y0047713D01*
X0424551Y0045778D01*
X0425034Y0045294D01*
X0426002Y0045294D01*
X0426486Y0045778D01*
X0427497Y0046745D02*
X0429432Y0046745D01*
X0430444Y0046745D02*
X0431895Y0046745D01*
X0432379Y0046262D01*
X0432379Y0045778D01*
X0431895Y0045294D01*
X0430927Y0045294D01*
X0430444Y0045778D01*
X0430444Y0046745D01*
X0431411Y0047713D01*
X0432379Y0048197D01*
X0428948Y0048197D02*
X0427497Y0046745D01*
X0426486Y0047713D02*
X0426002Y0048197D01*
X0425034Y0048197D01*
X0428948Y0048197D02*
X0428948Y0045294D01*
X0428948Y0049231D02*
X0428948Y0052134D01*
X0428441Y0065427D02*
X0428441Y0068330D01*
X0426990Y0066878D01*
X0428925Y0066878D01*
X0429937Y0066395D02*
X0430420Y0066878D01*
X0431388Y0066878D01*
X0431872Y0066395D01*
X0431872Y0065911D01*
X0431388Y0065427D01*
X0430420Y0065427D01*
X0429937Y0065911D01*
X0429937Y0066395D01*
X0430420Y0066878D02*
X0429937Y0067362D01*
X0429937Y0067846D01*
X0430420Y0068330D01*
X0431388Y0068330D01*
X0431872Y0067846D01*
X0431872Y0067362D01*
X0431388Y0066878D01*
X0425979Y0065911D02*
X0425495Y0065427D01*
X0424527Y0065427D01*
X0424044Y0065911D01*
X0424044Y0067846D01*
X0424527Y0068330D01*
X0425495Y0068330D01*
X0425979Y0067846D01*
X0464339Y0052732D02*
X0464339Y0049829D01*
X0487784Y0053706D02*
X0488268Y0053223D01*
X0489235Y0053223D01*
X0489719Y0053706D01*
X0490730Y0053223D02*
X0492665Y0053223D01*
X0491698Y0053223D02*
X0491698Y0056125D01*
X0490730Y0055158D01*
X0489719Y0055641D02*
X0489235Y0056125D01*
X0488268Y0056125D01*
X0487784Y0055641D01*
X0487784Y0053706D01*
X0493677Y0053706D02*
X0494161Y0053223D01*
X0495128Y0053223D01*
X0495612Y0053706D01*
X0495612Y0054190D01*
X0495128Y0054674D01*
X0493677Y0054674D01*
X0493677Y0053706D01*
X0493677Y0054674D02*
X0494644Y0055641D01*
X0495612Y0056125D01*
X0503315Y0057506D02*
X0504283Y0057506D01*
X0503799Y0057506D02*
X0503799Y0060408D01*
X0503315Y0060408D02*
X0504283Y0060408D01*
X0505280Y0060408D02*
X0507215Y0057506D01*
X0507215Y0060408D01*
X0508226Y0060408D02*
X0510161Y0060408D01*
X0509194Y0060408D02*
X0509194Y0057506D01*
X0509487Y0056865D02*
X0508519Y0056865D01*
X0508036Y0056381D01*
X0508036Y0054446D01*
X0508519Y0053963D01*
X0509487Y0053963D01*
X0509971Y0054446D01*
X0510982Y0053963D02*
X0512917Y0053963D01*
X0511950Y0053963D02*
X0511950Y0056865D01*
X0510982Y0055898D01*
X0509971Y0056381D02*
X0509487Y0056865D01*
X0511173Y0057990D02*
X0513108Y0059925D01*
X0513108Y0057990D01*
X0512624Y0057506D01*
X0511656Y0057506D01*
X0511173Y0057990D01*
X0511173Y0059925D01*
X0511656Y0060408D01*
X0512624Y0060408D01*
X0513108Y0059925D01*
X0513929Y0056865D02*
X0513929Y0055414D01*
X0514896Y0055898D01*
X0515380Y0055898D01*
X0515864Y0055414D01*
X0515864Y0054446D01*
X0515380Y0053963D01*
X0514412Y0053963D01*
X0513929Y0054446D01*
X0513929Y0056865D02*
X0515864Y0056865D01*
X0507039Y0056865D02*
X0506071Y0056865D01*
X0506555Y0056865D02*
X0506555Y0053963D01*
X0506071Y0053963D02*
X0507039Y0053963D01*
X0505280Y0057506D02*
X0505280Y0060408D01*
X0501754Y0062761D02*
X0501754Y0064696D01*
X0501270Y0065180D01*
X0500302Y0065180D01*
X0499819Y0064696D01*
X0499819Y0064213D01*
X0500302Y0063729D01*
X0501754Y0063729D01*
X0501754Y0062761D02*
X0501270Y0062278D01*
X0500302Y0062278D01*
X0499819Y0062761D01*
X0498807Y0062278D02*
X0496872Y0062278D01*
X0498807Y0064213D01*
X0498807Y0064696D01*
X0498323Y0065180D01*
X0497356Y0065180D01*
X0496872Y0064696D01*
X0495861Y0064696D02*
X0495861Y0063729D01*
X0495377Y0063245D01*
X0493926Y0063245D01*
X0494893Y0063245D02*
X0495861Y0062278D01*
X0493926Y0062278D02*
X0493926Y0065180D01*
X0495377Y0065180D01*
X0495861Y0064696D01*
X0491812Y0064552D02*
X0489877Y0062617D01*
X0490360Y0062133D01*
X0491328Y0062133D01*
X0491812Y0062617D01*
X0491812Y0064552D01*
X0491328Y0065035D01*
X0490360Y0065035D01*
X0489877Y0064552D01*
X0489877Y0062617D01*
X0488865Y0063584D02*
X0486930Y0063584D01*
X0488381Y0065035D01*
X0488381Y0062133D01*
X0485919Y0062617D02*
X0485435Y0062133D01*
X0484467Y0062133D01*
X0483984Y0062617D01*
X0483984Y0064552D01*
X0484467Y0065035D01*
X0485435Y0065035D01*
X0485919Y0064552D01*
X0512325Y0037750D02*
X0512808Y0037750D01*
X0514743Y0035815D01*
X0515227Y0035815D01*
X0515227Y0034804D02*
X0515227Y0032869D01*
X0515227Y0033836D02*
X0512325Y0033836D01*
X0513292Y0032869D01*
X0512808Y0031857D02*
X0512325Y0031374D01*
X0512325Y0030406D01*
X0512808Y0029922D01*
X0514743Y0029922D01*
X0515227Y0030406D01*
X0515227Y0031374D01*
X0514743Y0031857D01*
X0511137Y0029160D02*
X0509202Y0029160D01*
X0509202Y0032062D01*
X0508191Y0031579D02*
X0507707Y0032062D01*
X0506739Y0032062D01*
X0506256Y0031579D01*
X0506256Y0029644D01*
X0506739Y0029160D01*
X0507707Y0029160D01*
X0508191Y0029644D01*
X0505244Y0029644D02*
X0504760Y0029160D01*
X0503793Y0029160D01*
X0503309Y0029644D01*
X0503793Y0030611D02*
X0504760Y0030611D01*
X0505244Y0030127D01*
X0505244Y0029644D01*
X0503793Y0030611D02*
X0503309Y0031095D01*
X0503309Y0031579D01*
X0503793Y0032062D01*
X0504760Y0032062D01*
X0505244Y0031579D01*
X0502298Y0032062D02*
X0502298Y0029160D01*
X0500363Y0032062D01*
X0500363Y0029160D01*
X0512325Y0035815D02*
X0512325Y0037750D01*
X0383367Y0088057D02*
X0382883Y0087574D01*
X0381916Y0087574D01*
X0381432Y0088057D01*
X0381432Y0088541D01*
X0381916Y0089025D01*
X0382883Y0089025D01*
X0383367Y0088541D01*
X0383367Y0088057D01*
X0382883Y0089025D02*
X0383367Y0089509D01*
X0383367Y0089992D01*
X0382883Y0090476D01*
X0381916Y0090476D01*
X0381432Y0089992D01*
X0381432Y0089509D01*
X0381916Y0089025D01*
X0380420Y0087574D02*
X0378485Y0087574D01*
X0379453Y0087574D02*
X0379453Y0090476D01*
X0378485Y0089509D01*
X0377474Y0089992D02*
X0376990Y0090476D01*
X0376023Y0090476D01*
X0375539Y0089992D01*
X0375539Y0088057D01*
X0376023Y0087574D01*
X0376990Y0087574D01*
X0377474Y0088057D01*
X0374542Y0087574D02*
X0373574Y0087574D01*
X0374058Y0087574D02*
X0374058Y0090476D01*
X0373574Y0090476D02*
X0374542Y0090476D01*
X0366230Y0075220D02*
X0366714Y0074736D01*
X0366714Y0074252D01*
X0366230Y0073768D01*
X0366714Y0073285D01*
X0366714Y0072801D01*
X0366230Y0072317D01*
X0365263Y0072317D01*
X0364779Y0072801D01*
X0365747Y0073768D02*
X0366230Y0073768D01*
X0366230Y0075220D02*
X0365263Y0075220D01*
X0364779Y0074736D01*
X0363768Y0074736D02*
X0361833Y0072801D01*
X0361833Y0072317D01*
X0360821Y0072801D02*
X0360337Y0072317D01*
X0359370Y0072317D01*
X0358886Y0072801D01*
X0358886Y0074736D01*
X0359370Y0075220D01*
X0360337Y0075220D01*
X0360821Y0074736D01*
X0361833Y0075220D02*
X0363768Y0075220D01*
X0363768Y0074736D01*
X0432439Y0209041D02*
X0434374Y0209041D01*
X0434858Y0209525D01*
X0434858Y0210493D01*
X0434374Y0210976D01*
X0434374Y0211988D02*
X0433407Y0211988D01*
X0433407Y0213439D01*
X0433890Y0213923D01*
X0434374Y0213923D01*
X0434858Y0213439D01*
X0434858Y0212472D01*
X0434374Y0211988D01*
X0433407Y0211988D02*
X0432439Y0212955D01*
X0431955Y0213923D01*
X0433407Y0214934D02*
X0433407Y0216386D01*
X0433890Y0216869D01*
X0434374Y0216869D01*
X0434858Y0216386D01*
X0434858Y0215418D01*
X0434374Y0214934D01*
X0433407Y0214934D01*
X0432439Y0215902D01*
X0431955Y0216869D01*
X0432439Y0210976D02*
X0431955Y0210493D01*
X0431955Y0209525D01*
X0432439Y0209041D01*
X0436839Y0221530D02*
X0436839Y0224432D01*
X0438290Y0224432D01*
X0438774Y0223948D01*
X0438774Y0222981D01*
X0438290Y0222497D01*
X0436839Y0222497D01*
X0437806Y0222497D02*
X0438774Y0221530D01*
X0439785Y0222981D02*
X0441720Y0222981D01*
X0442732Y0223465D02*
X0443216Y0222981D01*
X0444667Y0222981D01*
X0444667Y0223948D02*
X0444183Y0224432D01*
X0443216Y0224432D01*
X0442732Y0223948D01*
X0442732Y0223465D01*
X0442732Y0222013D02*
X0443216Y0221530D01*
X0444183Y0221530D01*
X0444667Y0222013D01*
X0444667Y0223948D01*
X0441237Y0224432D02*
X0439785Y0222981D01*
X0441237Y0221530D02*
X0441237Y0224432D01*
X0456562Y0222919D02*
X0459464Y0222919D01*
X0459464Y0224854D01*
X0458980Y0225866D02*
X0459464Y0226350D01*
X0459464Y0227317D01*
X0458980Y0227801D01*
X0458497Y0227801D01*
X0458013Y0227317D01*
X0458013Y0225866D01*
X0458980Y0225866D01*
X0458013Y0225866D02*
X0457045Y0226833D01*
X0456562Y0227801D01*
X0470735Y0227711D02*
X0470735Y0226743D01*
X0471219Y0226260D01*
X0471219Y0225248D02*
X0472186Y0225248D01*
X0472670Y0224764D01*
X0472670Y0223313D01*
X0473637Y0223313D02*
X0470735Y0223313D01*
X0470735Y0224764D01*
X0471219Y0225248D01*
X0472670Y0224281D02*
X0473637Y0225248D01*
X0473637Y0226260D02*
X0471702Y0228195D01*
X0471219Y0228195D01*
X0470735Y0227711D01*
X0471219Y0229206D02*
X0470735Y0229690D01*
X0470735Y0230657D01*
X0471219Y0231141D01*
X0473154Y0229206D01*
X0473637Y0229690D01*
X0473637Y0230657D01*
X0473154Y0231141D01*
X0471219Y0231141D01*
X0471219Y0229206D02*
X0473154Y0229206D01*
X0473637Y0228195D02*
X0473637Y0226260D01*
X0474869Y0227227D02*
X0477771Y0227227D01*
X0477771Y0226260D02*
X0477771Y0228195D01*
X0477288Y0229206D02*
X0476804Y0229206D01*
X0476320Y0229690D01*
X0476320Y0230657D01*
X0476804Y0231141D01*
X0477288Y0231141D01*
X0477771Y0230657D01*
X0477771Y0229690D01*
X0477288Y0229206D01*
X0476320Y0229690D02*
X0475836Y0229206D01*
X0475353Y0229206D01*
X0474869Y0229690D01*
X0474869Y0230657D01*
X0475353Y0231141D01*
X0475836Y0231141D01*
X0476320Y0230657D01*
X0479199Y0231141D02*
X0479199Y0229206D01*
X0480651Y0229206D01*
X0480167Y0230174D01*
X0480167Y0230657D01*
X0480651Y0231141D01*
X0481618Y0231141D01*
X0482102Y0230657D01*
X0482102Y0229690D01*
X0481618Y0229206D01*
X0482102Y0228195D02*
X0482102Y0226260D01*
X0482102Y0227227D02*
X0479199Y0227227D01*
X0480167Y0226260D01*
X0479683Y0225248D02*
X0479199Y0224764D01*
X0479199Y0223797D01*
X0479683Y0223313D01*
X0481618Y0223313D01*
X0482102Y0223797D01*
X0482102Y0224764D01*
X0481618Y0225248D01*
X0483333Y0224764D02*
X0483333Y0223797D01*
X0483817Y0223313D01*
X0485752Y0223313D01*
X0486236Y0223797D01*
X0486236Y0224764D01*
X0485752Y0225248D01*
X0486236Y0226260D02*
X0484301Y0228195D01*
X0483817Y0228195D01*
X0483333Y0227711D01*
X0483333Y0226743D01*
X0483817Y0226260D01*
X0483817Y0225248D02*
X0483333Y0224764D01*
X0486236Y0226260D02*
X0486236Y0228195D01*
X0485752Y0229206D02*
X0483817Y0231141D01*
X0485752Y0231141D01*
X0486236Y0230657D01*
X0486236Y0229690D01*
X0485752Y0229206D01*
X0483817Y0229206D01*
X0483333Y0229690D01*
X0483333Y0230657D01*
X0483817Y0231141D01*
X0487467Y0230657D02*
X0487467Y0229690D01*
X0487951Y0229206D01*
X0488435Y0229206D01*
X0488918Y0229690D01*
X0488918Y0231141D01*
X0487951Y0231141D02*
X0489886Y0231141D01*
X0490370Y0230657D01*
X0490370Y0229690D01*
X0489886Y0229206D01*
X0490370Y0228195D02*
X0490370Y0226260D01*
X0490370Y0227227D02*
X0487467Y0227227D01*
X0488435Y0226260D01*
X0487951Y0225248D02*
X0487467Y0224764D01*
X0487467Y0223797D01*
X0487951Y0223313D01*
X0489886Y0223313D01*
X0490370Y0223797D01*
X0490370Y0224764D01*
X0489886Y0225248D01*
X0487467Y0230657D02*
X0487951Y0231141D01*
X0477771Y0225248D02*
X0476804Y0224281D01*
X0476804Y0224764D02*
X0476804Y0223313D01*
X0477771Y0223313D02*
X0474869Y0223313D01*
X0474869Y0224764D01*
X0475353Y0225248D01*
X0476320Y0225248D01*
X0476804Y0224764D01*
X0475836Y0226260D02*
X0474869Y0227227D01*
X0464890Y0239002D02*
X0462955Y0239002D01*
X0463922Y0239002D02*
X0463922Y0241905D01*
X0462955Y0240937D01*
X0461943Y0241421D02*
X0461943Y0241905D01*
X0461943Y0241421D02*
X0460976Y0240453D01*
X0460976Y0239002D01*
X0460976Y0240453D02*
X0460008Y0241421D01*
X0460008Y0241905D01*
D11*
X0404051Y0159817D03*
X0348448Y0115085D03*
X0298079Y0149273D03*
X0236504Y0157080D03*
X0206460Y0118077D03*
X0137759Y0153426D03*
X0118020Y0152506D03*
X0061039Y0229403D03*
X0097248Y0042265D03*
X0474425Y0044758D03*
X0495488Y0045387D03*
D12*
X0485740Y0049641D02*
X0485740Y0051370D01*
X0483976Y0051370D02*
X0483976Y0049641D01*
X0476000Y0046332D02*
X0476000Y0043970D01*
X0476000Y0046332D02*
X0473638Y0046332D01*
X0462614Y0046332D02*
X0460252Y0046332D01*
X0460252Y0043970D01*
X0452079Y0042866D02*
X0452079Y0041137D01*
X0450315Y0041137D02*
X0450315Y0042866D01*
X0440530Y0042714D02*
X0439030Y0042714D01*
X0439030Y0045620D02*
X0440530Y0045620D01*
X0440530Y0048620D02*
X0439030Y0048620D01*
X0438085Y0055884D02*
X0436356Y0055884D01*
X0436356Y0057647D02*
X0438085Y0057647D01*
X0429030Y0057647D02*
X0427301Y0057647D01*
X0427301Y0055884D02*
X0429030Y0055884D01*
X0429030Y0061986D02*
X0427301Y0061986D01*
X0427301Y0063750D02*
X0429030Y0063750D01*
X0436356Y0063750D02*
X0438085Y0063750D01*
X0438085Y0061986D02*
X0436356Y0061986D01*
X0441945Y0065230D02*
X0443913Y0063262D01*
X0447850Y0063262D01*
X0449819Y0065230D01*
X0449819Y0069167D01*
X0447850Y0071136D01*
X0443913Y0071136D01*
X0441945Y0069167D01*
X0441945Y0065230D01*
X0442967Y0072588D02*
X0444467Y0072588D01*
X0444467Y0075588D02*
X0442967Y0075588D01*
X0442967Y0083612D02*
X0444467Y0083612D01*
X0444467Y0086612D02*
X0442967Y0086612D01*
X0442655Y0088954D02*
X0444384Y0088954D01*
X0444384Y0090718D02*
X0442655Y0090718D01*
X0436986Y0095029D02*
X0435486Y0095029D01*
X0435526Y0090718D02*
X0433797Y0090718D01*
X0433797Y0088954D02*
X0435526Y0088954D01*
X0423600Y0089368D02*
X0422100Y0089368D01*
X0422100Y0086368D02*
X0423600Y0086368D01*
X0423600Y0095029D02*
X0422100Y0095029D01*
X0422100Y0098029D02*
X0423600Y0098029D01*
X0420291Y0102435D02*
X0415764Y0102435D01*
X0420291Y0102435D02*
X0420291Y0171726D01*
X0415567Y0171726D01*
X0408087Y0171726D02*
X0402181Y0171726D01*
X0402181Y0102435D01*
X0408087Y0102435D01*
X0395189Y0099165D02*
X0395189Y0097436D01*
X0393425Y0097436D02*
X0393425Y0099165D01*
X0390606Y0086628D02*
X0389524Y0086628D01*
X0389524Y0085545D01*
X0407634Y0086628D02*
X0408717Y0086628D01*
X0408717Y0085545D01*
X0422297Y0075588D02*
X0423797Y0075588D01*
X0423797Y0072588D02*
X0422297Y0072588D01*
X0408717Y0068517D02*
X0408717Y0067435D01*
X0407634Y0067435D01*
X0390606Y0067435D02*
X0389524Y0067435D01*
X0389524Y0068517D01*
X0389311Y0060271D02*
X0389311Y0058771D01*
X0386311Y0058771D02*
X0386311Y0060271D01*
X0382394Y0059402D02*
X0382394Y0057673D01*
X0380630Y0057673D02*
X0380630Y0059402D01*
X0362101Y0068285D02*
X0360372Y0068285D01*
X0360372Y0070049D02*
X0362101Y0070049D01*
X0367261Y0047017D02*
X0368991Y0047017D01*
X0368991Y0045254D02*
X0367261Y0045254D01*
X0364087Y0038142D02*
X0364087Y0036413D01*
X0362323Y0036413D02*
X0362323Y0038142D01*
X0359268Y0037671D02*
X0357299Y0039639D01*
X0353362Y0039639D01*
X0351394Y0037671D01*
X0351394Y0033734D01*
X0353362Y0031765D01*
X0357299Y0031765D01*
X0359268Y0033734D01*
X0359268Y0037671D01*
X0350994Y0042002D02*
X0349031Y0040039D01*
X0349425Y0031765D02*
X0345488Y0031765D01*
X0343520Y0029797D01*
X0343520Y0025860D01*
X0345488Y0023891D01*
X0349425Y0023891D01*
X0351394Y0025860D01*
X0351394Y0029797D01*
X0349425Y0031765D01*
X0351394Y0029797D02*
X0351394Y0025860D01*
X0353362Y0023891D01*
X0357299Y0023891D01*
X0359268Y0025860D01*
X0359268Y0029797D01*
X0361236Y0031765D01*
X0365173Y0031765D01*
X0367142Y0029797D01*
X0367142Y0025860D01*
X0365173Y0023891D01*
X0361236Y0023891D01*
X0359268Y0025860D01*
X0359268Y0029797D01*
X0357299Y0031765D01*
X0353362Y0031765D01*
X0351394Y0029797D01*
X0353394Y0019521D02*
X0345394Y0019521D01*
X0336394Y0019521D02*
X0335394Y0019521D01*
X0335394Y0016021D01*
X0339394Y0009021D02*
X0359394Y0009021D01*
X0363394Y0016021D02*
X0363394Y0019521D01*
X0362394Y0019521D01*
X0324024Y0019521D02*
X0324024Y0016021D01*
X0324024Y0019521D02*
X0323024Y0019521D01*
X0314024Y0019521D02*
X0306024Y0019521D01*
X0297024Y0019521D02*
X0296024Y0019521D01*
X0296024Y0016021D01*
X0300024Y0009021D02*
X0320024Y0009021D01*
X0318400Y0029309D02*
X0316671Y0029309D01*
X0316671Y0031073D02*
X0318400Y0031073D01*
X0275016Y0040039D02*
X0273054Y0042002D01*
X0243126Y0034758D02*
X0243126Y0033183D01*
X0204150Y0033183D01*
X0204150Y0034561D01*
X0195976Y0040940D02*
X0195976Y0042669D01*
X0194213Y0042669D02*
X0194213Y0040940D01*
X0172299Y0039364D02*
X0172299Y0042513D01*
X0172299Y0039364D02*
X0169150Y0039364D01*
X0157376Y0026151D02*
X0155647Y0026151D01*
X0155647Y0024387D02*
X0157376Y0024387D01*
X0148518Y0024387D02*
X0146789Y0024387D01*
X0146789Y0026151D02*
X0148518Y0026151D01*
X0156217Y0020742D02*
X0156217Y0019561D01*
X0156217Y0020742D02*
X0161630Y0020742D01*
X0141646Y0019047D02*
X0141646Y0017318D01*
X0139882Y0017318D02*
X0139882Y0019047D01*
X0136974Y0019861D02*
X0136974Y0016111D01*
X0133381Y0013611D02*
X0128693Y0013611D01*
X0125099Y0016111D02*
X0125099Y0019861D01*
X0121961Y0018850D02*
X0121961Y0017121D01*
X0120197Y0017121D02*
X0120197Y0018850D01*
X0128693Y0022361D02*
X0133381Y0022361D01*
X0110526Y0013356D02*
X0108797Y0013356D01*
X0108797Y0011592D02*
X0110526Y0011592D01*
X0106709Y0016411D02*
X0101984Y0016411D01*
X0099896Y0013356D02*
X0098167Y0013356D01*
X0098167Y0011592D02*
X0099896Y0011592D01*
X0101984Y0020348D02*
X0106709Y0020348D01*
X0084756Y0020271D02*
X0084756Y0022000D01*
X0082992Y0022000D02*
X0082992Y0020271D01*
X0080228Y0020271D02*
X0080228Y0022000D01*
X0078465Y0022000D02*
X0078465Y0020271D01*
X0074323Y0020271D02*
X0074323Y0022000D01*
X0072559Y0022000D02*
X0072559Y0020271D01*
X0069795Y0020271D02*
X0069795Y0022000D01*
X0068031Y0022000D02*
X0068031Y0020271D01*
X0070382Y0014671D02*
X0071382Y0014671D01*
X0070382Y0013171D02*
X0070382Y0012171D01*
X0071382Y0012671D01*
X0070382Y0013171D01*
X0070382Y0010671D02*
X0071382Y0010671D01*
X0081406Y0010671D02*
X0082406Y0010671D01*
X0081406Y0012171D02*
X0082406Y0012671D01*
X0081406Y0013171D01*
X0081406Y0012171D01*
X0081406Y0014671D02*
X0082406Y0014671D01*
X0066945Y0035702D02*
X0044504Y0035702D01*
X0044504Y0098695D01*
X0066945Y0098695D01*
X0053636Y0109821D02*
X0051907Y0109821D01*
X0051907Y0111584D02*
X0053636Y0111584D01*
X0052673Y0119856D02*
X0062909Y0119856D01*
X0069602Y0119856D02*
X0077280Y0119856D01*
X0077280Y0122415D01*
X0077280Y0126155D02*
X0077280Y0130880D01*
X0077280Y0134423D02*
X0077280Y0140722D01*
X0077280Y0144265D02*
X0077280Y0148990D01*
X0077280Y0152730D02*
X0077280Y0155289D01*
X0069602Y0155289D01*
X0062909Y0155289D02*
X0052673Y0155289D01*
X0072063Y0169167D02*
X0075016Y0166214D01*
X0080921Y0166214D01*
X0083874Y0169167D01*
X0096276Y0162474D02*
X0098047Y0162474D01*
X0098047Y0161490D01*
X0098047Y0157947D02*
X0098047Y0156962D01*
X0096276Y0156962D01*
X0087906Y0157082D02*
X0087906Y0158811D01*
X0086142Y0158811D02*
X0086142Y0157082D01*
X0089593Y0147621D02*
X0089593Y0144421D01*
X0091793Y0144421D01*
X0085937Y0145032D02*
X0085937Y0143302D01*
X0084173Y0143302D02*
X0084173Y0145032D01*
X0098593Y0144421D02*
X0100793Y0144421D01*
X0100793Y0147621D01*
X0105370Y0142277D02*
X0105370Y0153301D01*
X0110449Y0158537D02*
X0107496Y0161490D01*
X0110449Y0158537D02*
X0116354Y0158537D01*
X0119307Y0161490D01*
X0130630Y0158811D02*
X0130630Y0157082D01*
X0132394Y0157082D02*
X0132394Y0158811D01*
X0139386Y0163655D02*
X0139386Y0152632D01*
X0142535Y0146726D02*
X0145488Y0149679D01*
X0151394Y0149679D01*
X0154346Y0146726D01*
X0154346Y0140821D02*
X0151394Y0137868D01*
X0145488Y0137868D01*
X0142535Y0140821D01*
X0130756Y0136358D02*
X0126756Y0136358D01*
X0116394Y0142277D02*
X0116394Y0153301D01*
X0126756Y0146858D02*
X0130756Y0146858D01*
X0150409Y0152632D02*
X0150409Y0163655D01*
X0150683Y0169663D02*
X0148954Y0169663D01*
X0148954Y0171427D02*
X0150683Y0171427D01*
X0156333Y0172718D02*
X0156333Y0176718D01*
X0162833Y0176718D02*
X0162833Y0172718D01*
X0149323Y0177161D02*
X0149323Y0178890D01*
X0147559Y0178890D02*
X0147559Y0177161D01*
X0139827Y0177706D02*
X0139827Y0180706D01*
X0138976Y0184797D02*
X0134677Y0184797D01*
X0116111Y0181122D02*
X0109511Y0181122D01*
X0109511Y0175322D02*
X0116111Y0175322D01*
X0116354Y0170348D02*
X0110449Y0170348D01*
X0107496Y0167395D01*
X0099699Y0168876D02*
X0097970Y0168876D01*
X0097970Y0170639D02*
X0099699Y0170639D01*
X0083874Y0175073D02*
X0080921Y0178025D01*
X0075016Y0178025D01*
X0072063Y0175073D01*
X0072748Y0180901D02*
X0072748Y0182630D01*
X0070984Y0182630D02*
X0070984Y0180901D01*
X0065055Y0179541D02*
X0062555Y0177041D01*
X0057555Y0177041D01*
X0055055Y0179541D01*
X0055055Y0184541D01*
X0057555Y0187041D01*
X0055055Y0189541D01*
X0055055Y0194541D01*
X0057555Y0197041D01*
X0055055Y0199541D01*
X0055055Y0204541D01*
X0057555Y0207041D01*
X0062555Y0207041D01*
X0065055Y0204541D01*
X0065055Y0199541D01*
X0062555Y0197041D01*
X0065055Y0194541D01*
X0065055Y0189541D01*
X0062555Y0187041D01*
X0065055Y0184541D01*
X0065055Y0179541D01*
X0062691Y0170049D02*
X0060962Y0170049D01*
X0060962Y0168285D02*
X0062691Y0168285D01*
X0052091Y0168667D02*
X0052091Y0169667D01*
X0051091Y0169167D01*
X0052091Y0168667D01*
X0052091Y0167167D02*
X0051091Y0167167D01*
X0051091Y0171167D02*
X0052091Y0171167D01*
X0079346Y0184915D02*
X0079346Y0186884D01*
X0079346Y0184915D02*
X0081315Y0184915D01*
X0072748Y0189759D02*
X0072748Y0191488D01*
X0070984Y0191488D02*
X0070984Y0189759D01*
X0051094Y0190307D02*
X0051094Y0188578D01*
X0049331Y0188578D02*
X0049331Y0190307D01*
X0070984Y0201176D02*
X0070984Y0202906D01*
X0072748Y0202906D02*
X0072748Y0201176D01*
X0079346Y0200663D02*
X0081315Y0200663D01*
X0079346Y0200663D02*
X0079346Y0198695D01*
X0093126Y0200663D02*
X0095094Y0200663D01*
X0095094Y0198695D01*
X0102677Y0200389D02*
X0102677Y0202118D01*
X0104441Y0202118D02*
X0104441Y0200389D01*
X0110742Y0197348D02*
X0110742Y0193348D01*
X0117242Y0193348D02*
X0117242Y0197348D01*
X0128165Y0201663D02*
X0128165Y0228844D01*
X0116628Y0232655D02*
X0114899Y0232655D01*
X0114899Y0234419D02*
X0116628Y0234419D01*
X0115370Y0229994D02*
X0111039Y0229994D01*
X0111039Y0222120D02*
X0115370Y0222120D01*
X0116935Y0217287D02*
X0120135Y0217287D01*
X0120135Y0215087D01*
X0120135Y0208287D02*
X0120135Y0206087D01*
X0116935Y0206087D01*
X0099126Y0210035D02*
X0099126Y0211764D01*
X0097362Y0211764D02*
X0097362Y0210035D01*
X0094598Y0210035D02*
X0094598Y0211764D01*
X0092835Y0211764D02*
X0092835Y0210035D01*
X0090071Y0210035D02*
X0090071Y0211764D01*
X0088307Y0211764D02*
X0088307Y0210035D01*
X0085543Y0210035D02*
X0085543Y0211764D01*
X0083780Y0211764D02*
X0083780Y0210035D01*
X0076882Y0212397D02*
X0076882Y0214126D01*
X0075118Y0214126D02*
X0075118Y0212397D01*
X0071961Y0215153D02*
X0071961Y0216882D01*
X0070197Y0216882D02*
X0070197Y0215153D01*
X0074622Y0222120D02*
X0078953Y0222120D01*
X0092929Y0222317D02*
X0097260Y0222317D01*
X0099939Y0219852D02*
X0101668Y0219852D01*
X0101668Y0218088D02*
X0099939Y0218088D01*
X0097260Y0230191D02*
X0092929Y0230191D01*
X0078953Y0229994D02*
X0074622Y0229994D01*
X0077301Y0232655D02*
X0079030Y0232655D01*
X0079030Y0234419D02*
X0077301Y0234419D01*
X0085063Y0243419D02*
X0086063Y0243419D01*
X0085063Y0243419D02*
X0085063Y0246919D01*
X0089063Y0253919D02*
X0109063Y0253919D01*
X0113063Y0246919D02*
X0113063Y0243419D01*
X0112063Y0243419D01*
X0103063Y0243419D02*
X0095063Y0243419D01*
X0128165Y0241663D02*
X0128165Y0251844D01*
X0142929Y0251844D01*
X0144898Y0249876D01*
X0188205Y0249876D01*
X0188205Y0241726D01*
X0204937Y0238065D02*
X0204937Y0203813D01*
X0188205Y0201726D02*
X0188205Y0228876D01*
X0204937Y0251450D02*
X0204937Y0254206D01*
X0265567Y0254206D01*
X0265567Y0251450D01*
X0265567Y0238065D02*
X0265567Y0203813D01*
X0261630Y0194364D02*
X0258480Y0194364D01*
X0258480Y0192002D01*
X0221472Y0192002D01*
X0221472Y0184128D01*
X0205724Y0184128D01*
X0205724Y0190427D01*
X0191055Y0180662D02*
X0191055Y0178932D01*
X0189291Y0178932D02*
X0189291Y0180662D01*
X0196215Y0175498D02*
X0196215Y0171498D01*
X0191094Y0168063D02*
X0191094Y0166334D01*
X0189331Y0166334D02*
X0189331Y0168063D01*
X0181283Y0172037D02*
X0181283Y0175037D01*
X0180433Y0179128D02*
X0176134Y0179128D01*
X0176134Y0167947D02*
X0180433Y0167947D01*
X0202715Y0171498D02*
X0202715Y0175498D01*
X0220147Y0174042D02*
X0220147Y0167442D01*
X0225947Y0167442D02*
X0225947Y0174042D01*
X0228858Y0173617D02*
X0228858Y0175347D01*
X0230622Y0175347D02*
X0230622Y0173617D01*
X0234504Y0169080D02*
X0254504Y0169080D01*
X0254504Y0155080D01*
X0234504Y0155080D01*
X0234504Y0169080D01*
X0237537Y0179309D02*
X0239266Y0179309D01*
X0239266Y0181073D02*
X0237537Y0181073D01*
X0247183Y0181073D02*
X0248912Y0181073D01*
X0248912Y0179309D02*
X0247183Y0179309D01*
X0276165Y0164549D02*
X0276165Y0163549D01*
X0277665Y0164549D02*
X0278165Y0163549D01*
X0278665Y0164549D01*
X0277665Y0164549D01*
X0280165Y0164549D02*
X0280165Y0163549D01*
X0287220Y0164836D02*
X0287220Y0154600D01*
X0295094Y0154600D01*
X0293520Y0147907D02*
X0293520Y0146136D01*
X0292535Y0146136D01*
X0288992Y0146136D02*
X0288008Y0146136D01*
X0288008Y0147907D01*
X0286630Y0145742D02*
X0286630Y0143970D01*
X0285646Y0143970D01*
X0282102Y0143970D02*
X0281118Y0143970D01*
X0281118Y0145742D01*
X0279047Y0153145D02*
X0279047Y0154874D01*
X0277283Y0154874D02*
X0277283Y0153145D01*
X0254244Y0143654D02*
X0254244Y0141925D01*
X0252480Y0141925D02*
X0252480Y0143654D01*
X0249913Y0143654D02*
X0249913Y0141925D01*
X0248150Y0141925D02*
X0248150Y0143654D01*
X0239087Y0143457D02*
X0239087Y0141728D01*
X0237323Y0141728D02*
X0237323Y0143457D01*
X0231709Y0146923D02*
X0231709Y0152828D01*
X0228756Y0155781D01*
X0222850Y0155781D02*
X0219898Y0152828D01*
X0219898Y0146923D01*
X0222850Y0143970D01*
X0228756Y0143970D02*
X0231709Y0146923D01*
X0276907Y0135994D02*
X0278636Y0135994D01*
X0278636Y0134230D02*
X0276907Y0134230D01*
X0293031Y0134599D02*
X0293031Y0132869D01*
X0294795Y0132869D02*
X0294795Y0134599D01*
X0297506Y0136003D02*
X0297506Y0132253D01*
X0301100Y0129753D02*
X0305787Y0129753D01*
X0309381Y0132253D02*
X0309381Y0136003D01*
X0305787Y0138503D02*
X0301100Y0138503D01*
X0305254Y0141710D02*
X0306983Y0141710D01*
X0306983Y0143474D02*
X0305254Y0143474D01*
X0312323Y0141685D02*
X0312323Y0139956D01*
X0314087Y0139956D02*
X0314087Y0141685D01*
X0316457Y0141685D02*
X0316457Y0139956D01*
X0318220Y0139956D02*
X0318220Y0141685D01*
X0320512Y0141725D02*
X0320512Y0139995D01*
X0322276Y0139995D02*
X0322276Y0141725D01*
X0329567Y0141725D02*
X0329567Y0139995D01*
X0331331Y0139995D02*
X0331331Y0141725D01*
X0343622Y0135780D02*
X0343622Y0134050D01*
X0345386Y0134050D02*
X0345386Y0135780D01*
X0359268Y0143970D02*
X0361236Y0142002D01*
X0365173Y0142002D01*
X0367142Y0143970D01*
X0367142Y0147907D01*
X0365173Y0149876D01*
X0361236Y0149876D01*
X0359268Y0147907D01*
X0359268Y0143970D01*
X0367878Y0153134D02*
X0367878Y0166303D01*
X0356512Y0164836D02*
X0356512Y0154600D01*
X0348638Y0154600D01*
X0386878Y0153134D02*
X0386878Y0166303D01*
X0390669Y0169287D02*
X0390669Y0171016D01*
X0392433Y0171016D02*
X0392433Y0169287D01*
X0392433Y0153299D02*
X0392433Y0151570D01*
X0390669Y0151570D02*
X0390669Y0153299D01*
X0379227Y0133632D02*
X0377498Y0133632D01*
X0377498Y0131868D02*
X0379227Y0131868D01*
X0350994Y0116017D02*
X0349031Y0117980D01*
X0316843Y0127751D02*
X0316843Y0129480D01*
X0315079Y0129480D02*
X0315079Y0127751D01*
X0275016Y0117980D02*
X0273054Y0116017D01*
X0243126Y0120092D02*
X0243126Y0121372D01*
X0204150Y0121372D01*
X0204150Y0119797D01*
X0179339Y0123807D02*
X0178278Y0124868D01*
X0176157Y0122747D02*
X0177217Y0121686D01*
X0172299Y0117317D02*
X0172299Y0114167D01*
X0172299Y0117317D02*
X0169150Y0117317D01*
X0193031Y0087551D02*
X0193031Y0085822D01*
X0194795Y0085822D02*
X0194795Y0087551D01*
X0194992Y0075543D02*
X0194992Y0073814D01*
X0193228Y0073814D02*
X0193228Y0075543D01*
X0253505Y0082378D02*
X0254728Y0081155D01*
X0255975Y0082402D02*
X0254752Y0083625D01*
X0188303Y0020742D02*
X0182890Y0020742D01*
X0188303Y0020742D02*
X0188303Y0019561D01*
X0097496Y0039364D02*
X0094346Y0039364D01*
X0094346Y0042513D01*
X0079543Y0048301D02*
X0079543Y0086096D01*
X0082402Y0073181D02*
X0082402Y0071452D01*
X0084165Y0071452D02*
X0084165Y0073181D01*
X0094346Y0114167D02*
X0094346Y0117317D01*
X0097496Y0117317D01*
X0091001Y0121925D02*
X0089940Y0120865D01*
X0087819Y0122986D02*
X0088879Y0124047D01*
X0130630Y0166531D02*
X0130630Y0168260D01*
X0132394Y0168260D02*
X0132394Y0166531D01*
X0135157Y0166531D02*
X0135157Y0168260D01*
X0136921Y0168260D02*
X0136921Y0166531D01*
X0138976Y0173616D02*
X0134677Y0173616D01*
X0119307Y0167395D02*
X0116354Y0170348D01*
X0095094Y0184915D02*
X0093126Y0184915D01*
X0095094Y0184915D02*
X0095094Y0186884D01*
X0136236Y0196726D02*
X0186236Y0196726D01*
X0269110Y0213852D02*
X0270291Y0213852D01*
X0269110Y0213852D02*
X0269110Y0225269D01*
X0270291Y0225269D01*
X0280528Y0225269D02*
X0281709Y0225269D01*
X0281709Y0222317D01*
X0281709Y0216805D02*
X0281709Y0213852D01*
X0280528Y0213852D01*
X0287220Y0216017D02*
X0295094Y0216017D01*
X0287220Y0216017D02*
X0287220Y0205781D01*
X0348638Y0216017D02*
X0356512Y0216017D01*
X0356512Y0205781D01*
X0367760Y0200515D02*
X0367760Y0187346D01*
X0386760Y0187346D02*
X0386760Y0200515D01*
X0390276Y0203342D02*
X0390276Y0205071D01*
X0392039Y0205071D02*
X0392039Y0203342D01*
X0389583Y0218970D02*
X0376197Y0218970D01*
X0376197Y0226844D02*
X0389583Y0226844D01*
X0359268Y0222710D02*
X0359268Y0218773D01*
X0357299Y0216805D01*
X0353362Y0216805D01*
X0351394Y0218773D01*
X0351394Y0222710D01*
X0353362Y0224679D01*
X0357299Y0224679D01*
X0359268Y0222710D01*
X0438718Y0220049D02*
X0440447Y0220049D01*
X0440447Y0218285D02*
X0438718Y0218285D01*
X0438718Y0215325D02*
X0440447Y0215325D01*
X0440447Y0213561D02*
X0438718Y0213561D01*
X0438718Y0207450D02*
X0440447Y0207450D01*
X0440447Y0205687D02*
X0438718Y0205687D01*
X0438718Y0202726D02*
X0440447Y0202726D01*
X0440447Y0200962D02*
X0438718Y0200962D01*
X0448047Y0199482D02*
X0448047Y0197907D01*
X0449622Y0197907D01*
X0465764Y0197907D02*
X0467339Y0197907D01*
X0475956Y0202766D02*
X0475956Y0207453D01*
X0478456Y0211047D02*
X0482206Y0211047D01*
X0485175Y0213758D02*
X0486904Y0213758D01*
X0486904Y0215521D02*
X0485175Y0215521D01*
X0485175Y0219663D02*
X0486904Y0219663D01*
X0486904Y0221427D02*
X0485175Y0221427D01*
X0477061Y0221427D02*
X0475332Y0221427D01*
X0475332Y0219663D02*
X0477061Y0219663D01*
X0477061Y0215521D02*
X0475332Y0215521D01*
X0475332Y0213758D02*
X0477061Y0213758D01*
X0467339Y0215624D02*
X0467339Y0217199D01*
X0465764Y0217199D01*
X0463496Y0224405D02*
X0463496Y0226134D01*
X0461732Y0226134D02*
X0461732Y0224405D01*
X0449622Y0217199D02*
X0448047Y0217199D01*
X0448047Y0215624D01*
X0478456Y0199172D02*
X0482206Y0199172D01*
X0484706Y0202766D02*
X0484706Y0207453D01*
X0487520Y0203693D02*
X0487520Y0201964D01*
X0489283Y0201964D02*
X0489283Y0203693D01*
X0489283Y0194047D02*
X0489283Y0192318D01*
X0487520Y0192318D02*
X0487520Y0194047D01*
X0480831Y0193380D02*
X0479831Y0192880D01*
X0479831Y0193880D01*
X0480831Y0193380D01*
X0480831Y0195380D02*
X0479831Y0195380D01*
X0479831Y0191380D02*
X0480831Y0191380D01*
X0468608Y0187132D02*
X0455439Y0187132D01*
X0482593Y0179632D02*
X0482593Y0175632D01*
X0489093Y0175632D02*
X0489093Y0179632D01*
X0468608Y0168132D02*
X0455439Y0168132D01*
X0454424Y0164734D02*
X0452694Y0164734D01*
X0452694Y0162970D02*
X0454424Y0162970D01*
X0454346Y0158734D02*
X0454346Y0156765D01*
X0454346Y0158734D02*
X0456315Y0158734D01*
X0468126Y0158734D02*
X0470094Y0158734D01*
X0470094Y0156765D01*
X0470329Y0162970D02*
X0468600Y0162970D01*
X0468600Y0164734D02*
X0470329Y0164734D01*
X0482419Y0159419D02*
X0484148Y0159419D01*
X0484148Y0157655D02*
X0482419Y0157655D01*
X0482419Y0153686D02*
X0484148Y0153686D01*
X0484148Y0151922D02*
X0482419Y0151922D01*
X0479030Y0149183D02*
X0477301Y0149183D01*
X0477301Y0147419D02*
X0479030Y0147419D01*
X0480118Y0141449D02*
X0480118Y0139720D01*
X0481882Y0139720D02*
X0481882Y0141449D01*
X0485236Y0141449D02*
X0485236Y0139720D01*
X0487000Y0139720D02*
X0487000Y0141449D01*
X0490844Y0147380D02*
X0492573Y0147380D01*
X0492573Y0149143D02*
X0490844Y0149143D01*
X0490923Y0151927D02*
X0492652Y0151927D01*
X0492652Y0153691D02*
X0490923Y0153691D01*
X0506118Y0148695D02*
X0506118Y0135309D01*
X0513992Y0135309D02*
X0513992Y0148695D01*
X0476488Y0141488D02*
X0476488Y0139759D01*
X0474724Y0139759D02*
X0474724Y0141488D01*
X0470094Y0142986D02*
X0470094Y0144954D01*
X0470094Y0142986D02*
X0468126Y0142986D01*
X0456315Y0142986D02*
X0454346Y0142986D01*
X0454346Y0144954D01*
X0452455Y0137765D02*
X0450726Y0137765D01*
X0450726Y0136002D02*
X0452455Y0136002D01*
X0458603Y0130137D02*
X0458603Y0126387D01*
X0454992Y0127200D02*
X0454992Y0128929D01*
X0453228Y0128929D02*
X0453228Y0127200D01*
X0462197Y0123887D02*
X0466885Y0123887D01*
X0470478Y0126387D02*
X0470478Y0130137D01*
X0466885Y0132637D02*
X0462197Y0132637D01*
X0474764Y0129047D02*
X0474764Y0127318D01*
X0476528Y0127318D02*
X0476528Y0129047D01*
X0480197Y0129028D02*
X0480197Y0127299D01*
X0481961Y0127299D02*
X0481961Y0129028D01*
X0493819Y0115307D02*
X0493819Y0113578D01*
X0495583Y0113578D02*
X0495583Y0115307D01*
X0505331Y0119758D02*
X0510055Y0119758D01*
X0510055Y0109915D02*
X0505331Y0109915D01*
X0479424Y0109624D02*
X0477694Y0109624D01*
X0477694Y0111387D02*
X0479424Y0111387D01*
X0479424Y0106860D02*
X0477694Y0106860D01*
X0477694Y0105096D02*
X0479424Y0105096D01*
X0479424Y0102529D02*
X0477694Y0102529D01*
X0477694Y0100765D02*
X0479424Y0100765D01*
X0472654Y0106372D02*
X0472654Y0108143D01*
X0471669Y0108143D01*
X0468126Y0108143D02*
X0467142Y0108143D01*
X0467142Y0106372D01*
X0478717Y0091923D02*
X0485016Y0091923D01*
X0498402Y0091923D02*
X0502339Y0091923D01*
X0511787Y0091923D02*
X0515331Y0091923D01*
X0515331Y0067120D01*
X0511787Y0067120D01*
X0502339Y0067120D02*
X0483441Y0067120D01*
X0473992Y0067120D02*
X0473598Y0067120D01*
X0468480Y0071057D02*
X0468480Y0089167D01*
X0436986Y0098029D02*
X0435486Y0098029D01*
X0435486Y0102116D02*
X0436986Y0102116D01*
X0436986Y0105116D02*
X0435486Y0105116D01*
X0431786Y0107655D02*
X0430057Y0107655D01*
X0430057Y0109419D02*
X0431786Y0109419D01*
X0431786Y0111789D02*
X0430057Y0111789D01*
X0430057Y0113553D02*
X0431786Y0113553D01*
X0487537Y0060010D02*
X0489266Y0060010D01*
X0489266Y0058246D02*
X0487537Y0058246D01*
X0496592Y0058246D02*
X0498321Y0058246D01*
X0498321Y0060010D02*
X0496592Y0060010D01*
X0473912Y0056663D02*
X0472183Y0056663D01*
X0472183Y0054899D02*
X0473912Y0054899D01*
X0464069Y0054899D02*
X0462340Y0054899D01*
X0462340Y0056663D02*
X0464069Y0056663D01*
X0457394Y0049756D02*
X0457394Y0048027D01*
X0455630Y0048027D02*
X0455630Y0049756D01*
X0440530Y0039714D02*
X0439030Y0039714D01*
X0440142Y0036000D02*
X0444142Y0036000D01*
X0444142Y0029500D02*
X0440142Y0029500D01*
X0444820Y0027332D02*
X0446550Y0027332D01*
X0446550Y0025569D02*
X0444820Y0025569D01*
X0443819Y0019521D02*
X0451819Y0019521D01*
X0460819Y0019521D02*
X0461819Y0019521D01*
X0461819Y0016021D01*
X0466407Y0014489D02*
X0466407Y0021089D01*
X0472207Y0021089D02*
X0472207Y0014489D01*
X0473543Y0013929D02*
X0473543Y0012200D01*
X0475307Y0012200D02*
X0475307Y0013929D01*
X0480799Y0008647D02*
X0486949Y0008647D01*
X0486949Y0019848D02*
X0480799Y0019848D01*
X0479150Y0021136D02*
X0484661Y0021136D01*
X0484661Y0028222D02*
X0479150Y0028222D01*
X0476000Y0030584D02*
X0476000Y0032947D01*
X0476000Y0030584D02*
X0473638Y0030584D01*
X0480236Y0033696D02*
X0480236Y0035425D01*
X0482000Y0035425D02*
X0482000Y0033696D01*
X0484370Y0033657D02*
X0484370Y0035386D01*
X0486134Y0035386D02*
X0486134Y0033657D01*
X0462614Y0030584D02*
X0460252Y0030584D01*
X0460252Y0032947D01*
X0455998Y0027332D02*
X0454269Y0027332D01*
X0454269Y0025569D02*
X0455998Y0025569D01*
X0434819Y0019521D02*
X0433819Y0019521D01*
X0433819Y0016021D01*
X0437819Y0009021D02*
X0457819Y0009021D01*
X0511902Y0044598D02*
X0511902Y0046098D01*
X0514902Y0046098D02*
X0514902Y0044598D01*
X0488205Y0242789D02*
X0459071Y0242789D01*
X0459071Y0250663D02*
X0488205Y0250663D01*
X0059268Y0230387D02*
X0059268Y0227730D01*
X0059268Y0230387D02*
X0056610Y0230387D01*
X0050508Y0230387D02*
X0047850Y0230387D01*
X0047850Y0227730D01*
X0047850Y0217691D02*
X0047850Y0215033D01*
X0050508Y0215033D01*
X0056610Y0215033D02*
X0059268Y0215033D01*
X0059268Y0217691D01*
D13*
X0369701Y0041411D02*
X0373047Y0041411D01*
X0369701Y0041411D02*
X0369701Y0032356D01*
X0425016Y0041411D02*
X0428559Y0041411D01*
X0428559Y0032553D01*
D14*
X0373047Y0026254D03*
D15*
X0130256Y0141608D03*
D16*
X0159583Y0176195D03*
X0199465Y0174974D03*
X0113992Y0193872D03*
X0485843Y0179108D03*
D17*
X0110494Y0178221D03*
D18*
X0223046Y0173059D03*
X0469309Y0015472D03*
D19*
X0202772Y0140821D02*
X0202772Y0150269D01*
X0190567Y0150466D02*
X0190567Y0140624D01*
X0205724Y0157947D02*
X0205724Y0167789D01*
X0217929Y0167592D02*
X0217929Y0158143D01*
X0467339Y0197907D02*
X0467339Y0199482D01*
D20*
X0211827Y0166262D03*
X0196669Y0148939D03*
D21*
X0298736Y0133242D03*
X0384799Y0165092D03*
X0384681Y0199305D03*
X0456650Y0185053D03*
X0479445Y0209817D03*
X0466256Y0216116D03*
X0469248Y0129147D03*
X0390476Y0085675D03*
X0135744Y0018872D03*
D22*
X0455486Y0157598D03*
X0503559Y0108537D03*
X0482496Y0018773D03*
X0096669Y0188065D03*
D23*
X0443618Y0032750D03*
D24*
X0271596Y0017313D03*
X0271396Y0016713D03*
X0270096Y0016813D03*
X0268696Y0017813D03*
X0268696Y0015413D03*
X0268996Y0015213D03*
X0268096Y0013413D03*
X0267996Y0013113D03*
X0267896Y0012813D03*
X0267896Y0012713D03*
X0267696Y0012113D03*
X0267696Y0012013D03*
X0267696Y0011913D03*
X0267696Y0011813D03*
X0267596Y0011113D03*
X0262396Y0011213D03*
X0262196Y0011313D03*
X0261996Y0011413D03*
X0261496Y0011713D03*
X0260196Y0010413D03*
X0259796Y0010613D03*
X0258396Y0012513D03*
X0258296Y0012813D03*
X0258296Y0012913D03*
X0258296Y0013013D03*
X0258296Y0013113D03*
X0258196Y0013213D03*
X0258196Y0013313D03*
X0258196Y0013413D03*
X0258196Y0013513D03*
X0258096Y0013913D03*
X0256196Y0015613D03*
X0255796Y0015913D03*
X0256396Y0016313D03*
X0255296Y0017013D03*
X0254996Y0016813D03*
X0254996Y0016713D03*
X0252496Y0020513D03*
X0252296Y0020613D03*
X0251896Y0020813D03*
X0251696Y0020913D03*
X0251496Y0021013D03*
X0251296Y0021113D03*
X0250996Y0021313D03*
X0250796Y0021413D03*
X0250596Y0021513D03*
X0254596Y0022713D03*
X0255096Y0022513D03*
X0256396Y0022913D03*
X0259596Y0024313D03*
X0259796Y0024213D03*
X0261496Y0026213D03*
X0262396Y0027413D03*
X0262096Y0028613D03*
X0260596Y0029413D03*
X0259496Y0028913D03*
X0259296Y0028813D03*
X0259096Y0028713D03*
X0258896Y0028613D03*
X0258796Y0028513D03*
X0258596Y0028413D03*
X0258396Y0028313D03*
X0258196Y0028213D03*
X0257996Y0028113D03*
X0257696Y0027913D03*
X0257196Y0027613D03*
X0253896Y0028913D03*
X0252996Y0027113D03*
X0252296Y0026413D03*
X0252496Y0030513D03*
X0250496Y0034513D03*
X0250496Y0034613D03*
X0254596Y0035613D03*
X0254896Y0035413D03*
X0255096Y0035313D03*
X0255996Y0036313D03*
X0254796Y0037513D03*
X0254696Y0037613D03*
X0252696Y0039513D03*
X0252596Y0039613D03*
X0252196Y0039113D03*
X0251896Y0039413D03*
X0257696Y0038413D03*
X0257896Y0038313D03*
X0258096Y0038213D03*
X0258296Y0038113D03*
X0258496Y0038013D03*
X0258796Y0037813D03*
X0259096Y0037613D03*
X0264196Y0037413D03*
X0264496Y0037613D03*
X0265496Y0038413D03*
X0265996Y0038713D03*
X0266296Y0038913D03*
X0266496Y0039013D03*
X0266696Y0039113D03*
X0266896Y0039213D03*
X0267796Y0038313D03*
X0267996Y0038413D03*
X0266596Y0037713D03*
X0269196Y0029813D03*
X0264696Y0024613D03*
X0264296Y0024313D03*
X0263996Y0024113D03*
X0263796Y0024013D03*
X0262496Y0024913D03*
X0262596Y0025113D03*
X0269596Y0021113D03*
X0271196Y0018913D03*
X0256796Y0010713D03*
D25*
X0257846Y0010513D03*
X0269546Y0015013D03*
D26*
X0260196Y0010513D03*
X0265796Y0031013D03*
D27*
X0266446Y0031113D03*
X0265146Y0010513D03*
D28*
X0257746Y0010613D03*
D29*
X0260646Y0010613D03*
X0262546Y0011113D03*
X0262846Y0011013D03*
X0267346Y0011013D03*
X0267746Y0012213D03*
X0267746Y0012313D03*
X0270146Y0015113D03*
X0269646Y0017013D03*
X0269346Y0017113D03*
X0269646Y0017413D03*
X0269946Y0017313D03*
X0270446Y0017113D03*
X0270746Y0017013D03*
X0271146Y0017513D03*
X0270046Y0017913D03*
X0268846Y0017713D03*
X0270146Y0019213D03*
X0269346Y0021013D03*
X0269146Y0020913D03*
X0268846Y0020813D03*
X0268646Y0020713D03*
X0268346Y0020613D03*
X0268046Y0020513D03*
X0269846Y0021213D03*
X0263546Y0023913D03*
X0262646Y0025213D03*
X0261446Y0026313D03*
X0262346Y0027313D03*
X0261346Y0029713D03*
X0261046Y0029613D03*
X0260846Y0029513D03*
X0260346Y0029313D03*
X0260146Y0029213D03*
X0259946Y0029113D03*
X0259746Y0029013D03*
X0261846Y0029913D03*
X0255946Y0033113D03*
X0255546Y0035113D03*
X0255346Y0035213D03*
X0254246Y0035913D03*
X0257246Y0038613D03*
X0257446Y0038513D03*
X0260846Y0036313D03*
X0261646Y0036013D03*
X0261946Y0035913D03*
X0262446Y0035713D03*
X0264646Y0037713D03*
X0265846Y0038213D03*
X0267146Y0039313D03*
X0267346Y0039413D03*
X0267546Y0039513D03*
X0267746Y0039613D03*
X0268046Y0039713D03*
X0269146Y0040113D03*
X0252146Y0040913D03*
X0251946Y0039313D03*
X0252546Y0030413D03*
X0253046Y0027213D03*
X0252546Y0026313D03*
X0253146Y0026113D03*
X0253646Y0026313D03*
X0255546Y0022713D03*
X0256846Y0022713D03*
X0259946Y0024113D03*
X0260146Y0024013D03*
X0253146Y0020213D03*
X0252946Y0020313D03*
X0252746Y0020413D03*
X0252046Y0020713D03*
X0255846Y0015813D03*
X0256146Y0015713D03*
D30*
X0265096Y0010613D03*
D31*
X0267696Y0011213D03*
X0267496Y0012613D03*
X0267496Y0012713D03*
X0267396Y0012813D03*
X0267396Y0012913D03*
X0267396Y0013013D03*
X0267396Y0013113D03*
X0267296Y0013313D03*
X0267296Y0013413D03*
X0267296Y0013513D03*
X0267196Y0013613D03*
X0267196Y0013713D03*
X0267196Y0013813D03*
X0267096Y0014013D03*
X0267096Y0014113D03*
X0267096Y0014213D03*
X0266996Y0014313D03*
X0266996Y0014413D03*
X0266996Y0014513D03*
X0266896Y0014613D03*
X0266896Y0014713D03*
X0266896Y0014813D03*
X0266796Y0014913D03*
X0266796Y0015013D03*
X0266696Y0015113D03*
X0266696Y0015213D03*
X0266696Y0015313D03*
X0266596Y0015413D03*
X0266596Y0015513D03*
X0266496Y0015613D03*
X0266496Y0015713D03*
X0266396Y0015913D03*
X0266396Y0016013D03*
X0266296Y0016113D03*
X0266296Y0016213D03*
X0266196Y0016313D03*
X0266196Y0016413D03*
X0266096Y0016513D03*
X0266096Y0016613D03*
X0265996Y0016713D03*
X0265996Y0016813D03*
X0265896Y0016913D03*
X0265796Y0017113D03*
X0265696Y0017213D03*
X0265696Y0017313D03*
X0265596Y0017413D03*
X0265596Y0017513D03*
X0265496Y0017613D03*
X0265396Y0017713D03*
X0265396Y0017813D03*
X0265296Y0017913D03*
X0265196Y0018113D03*
X0265096Y0018213D03*
X0264996Y0018313D03*
X0264996Y0018413D03*
X0264896Y0018513D03*
X0264796Y0018613D03*
X0264696Y0018813D03*
X0264596Y0018913D03*
X0264496Y0019013D03*
X0264296Y0019313D03*
X0268596Y0018113D03*
X0268596Y0018013D03*
X0268596Y0017913D03*
X0268696Y0017513D03*
X0268696Y0017413D03*
X0268596Y0017213D03*
X0268596Y0017113D03*
X0268496Y0017013D03*
X0268496Y0016913D03*
X0268496Y0016813D03*
X0268496Y0016713D03*
X0268396Y0016613D03*
X0268396Y0016513D03*
X0268396Y0016413D03*
X0268396Y0016313D03*
X0268396Y0016213D03*
X0268396Y0015913D03*
X0268396Y0015813D03*
X0268596Y0015513D03*
X0268796Y0014813D03*
X0268596Y0014513D03*
X0268496Y0014313D03*
X0268396Y0014113D03*
X0270496Y0015313D03*
X0270596Y0015413D03*
X0270696Y0015613D03*
X0270796Y0015713D03*
X0270796Y0015813D03*
X0270896Y0015913D03*
X0270996Y0016013D03*
X0270996Y0016113D03*
X0271096Y0016213D03*
X0271096Y0016313D03*
X0271196Y0016413D03*
X0271196Y0016513D03*
X0271696Y0017013D03*
X0271696Y0017113D03*
X0271096Y0017813D03*
X0271096Y0017913D03*
X0271196Y0018013D03*
X0271196Y0018113D03*
X0271296Y0018213D03*
X0271296Y0018313D03*
X0271296Y0018413D03*
X0271396Y0018513D03*
X0271396Y0018613D03*
X0271396Y0018713D03*
X0271396Y0018813D03*
X0270996Y0018713D03*
X0270996Y0018613D03*
X0270896Y0018513D03*
X0270896Y0018413D03*
X0270796Y0018213D03*
X0270796Y0018113D03*
X0270696Y0018013D03*
X0270696Y0017913D03*
X0270096Y0018313D03*
X0270096Y0018413D03*
X0270096Y0018513D03*
X0270196Y0018613D03*
X0270196Y0018713D03*
X0270296Y0018813D03*
X0270296Y0018913D03*
X0270296Y0019013D03*
X0270296Y0019113D03*
X0270096Y0019313D03*
X0269896Y0019013D03*
X0269796Y0018913D03*
X0269796Y0018813D03*
X0269796Y0018713D03*
X0269696Y0018613D03*
X0269696Y0018513D03*
X0269696Y0018413D03*
X0269596Y0018313D03*
X0269996Y0018213D03*
X0269996Y0021313D03*
X0269996Y0021413D03*
X0269996Y0021513D03*
X0269996Y0021613D03*
X0269996Y0021713D03*
X0269996Y0021813D03*
X0269996Y0021913D03*
X0269996Y0022013D03*
X0269996Y0022113D03*
X0269996Y0022213D03*
X0269996Y0022313D03*
X0269996Y0022413D03*
X0269996Y0022513D03*
X0269996Y0022613D03*
X0269996Y0022713D03*
X0269996Y0022813D03*
X0269996Y0022913D03*
X0269996Y0023013D03*
X0269996Y0023113D03*
X0269996Y0023213D03*
X0269996Y0023313D03*
X0269996Y0023413D03*
X0269996Y0023513D03*
X0269996Y0023613D03*
X0269996Y0023713D03*
X0269896Y0024113D03*
X0269896Y0024213D03*
X0269896Y0024313D03*
X0269896Y0024413D03*
X0269896Y0024513D03*
X0269896Y0024613D03*
X0269896Y0024713D03*
X0269896Y0024813D03*
X0269896Y0024913D03*
X0269896Y0025013D03*
X0269896Y0025113D03*
X0269896Y0025213D03*
X0269796Y0025513D03*
X0269796Y0025613D03*
X0269796Y0025713D03*
X0269796Y0025813D03*
X0269796Y0025913D03*
X0269796Y0026013D03*
X0269796Y0026113D03*
X0269696Y0026413D03*
X0269696Y0026513D03*
X0269696Y0026613D03*
X0269696Y0026713D03*
X0269696Y0026813D03*
X0269696Y0026913D03*
X0269596Y0027113D03*
X0269596Y0027213D03*
X0269596Y0027313D03*
X0269596Y0027413D03*
X0269596Y0027513D03*
X0269596Y0027613D03*
X0269496Y0027813D03*
X0269496Y0027913D03*
X0269496Y0028013D03*
X0269496Y0028113D03*
X0269496Y0028213D03*
X0269396Y0028313D03*
X0269396Y0028413D03*
X0269396Y0028513D03*
X0269396Y0028613D03*
X0269396Y0028713D03*
X0269296Y0028913D03*
X0269296Y0029013D03*
X0269296Y0029113D03*
X0269196Y0029413D03*
X0269196Y0029513D03*
X0269096Y0029913D03*
X0269096Y0030013D03*
X0268996Y0030113D03*
X0268996Y0030213D03*
X0268996Y0030313D03*
X0268896Y0030513D03*
X0268896Y0030613D03*
X0269496Y0030513D03*
X0269496Y0030413D03*
X0269496Y0030313D03*
X0269396Y0030113D03*
X0269396Y0030013D03*
X0269396Y0029913D03*
X0269596Y0030613D03*
X0269596Y0030713D03*
X0269596Y0030813D03*
X0269596Y0030913D03*
X0269696Y0031113D03*
X0269696Y0031213D03*
X0269696Y0031313D03*
X0269796Y0031513D03*
X0269796Y0031613D03*
X0269796Y0031713D03*
X0269796Y0031813D03*
X0269796Y0031913D03*
X0269896Y0032113D03*
X0269896Y0032213D03*
X0269896Y0032313D03*
X0269896Y0032413D03*
X0269896Y0032513D03*
X0269996Y0032813D03*
X0269996Y0032913D03*
X0269996Y0033013D03*
X0269996Y0033113D03*
X0269996Y0033213D03*
X0269996Y0033313D03*
X0269996Y0033413D03*
X0270096Y0033813D03*
X0270096Y0033913D03*
X0270096Y0034013D03*
X0270096Y0034113D03*
X0270096Y0034213D03*
X0270096Y0034313D03*
X0270096Y0034413D03*
X0270096Y0034513D03*
X0270096Y0034613D03*
X0270096Y0034713D03*
X0270096Y0034813D03*
X0270096Y0034913D03*
X0270096Y0035013D03*
X0270096Y0035113D03*
X0270096Y0035213D03*
X0270096Y0035313D03*
X0270096Y0035413D03*
X0270096Y0035513D03*
X0270096Y0035613D03*
X0270096Y0035713D03*
X0270096Y0035813D03*
X0270096Y0035913D03*
X0270096Y0036013D03*
X0270096Y0036113D03*
X0269996Y0036513D03*
X0269996Y0036613D03*
X0269996Y0036713D03*
X0269996Y0036813D03*
X0269996Y0036913D03*
X0269996Y0037013D03*
X0269996Y0037113D03*
X0269896Y0037313D03*
X0269896Y0037413D03*
X0269896Y0037513D03*
X0269896Y0037613D03*
X0269896Y0037713D03*
X0269796Y0038013D03*
X0269796Y0038113D03*
X0269796Y0038213D03*
X0269796Y0038313D03*
X0269796Y0038413D03*
X0269696Y0038513D03*
X0269696Y0038613D03*
X0269696Y0038713D03*
X0269696Y0038813D03*
X0269596Y0039013D03*
X0269596Y0039113D03*
X0269596Y0039213D03*
X0269496Y0039413D03*
X0269496Y0039513D03*
X0269496Y0039613D03*
X0269396Y0039813D03*
X0269396Y0039913D03*
X0269396Y0040013D03*
X0269296Y0040213D03*
X0268796Y0038713D03*
X0268896Y0038513D03*
X0268996Y0038313D03*
X0268996Y0038213D03*
X0269096Y0038013D03*
X0269096Y0037913D03*
X0269196Y0037713D03*
X0269196Y0037613D03*
X0269196Y0037513D03*
X0269296Y0037313D03*
X0269296Y0037213D03*
X0269296Y0037113D03*
X0269396Y0036713D03*
X0269396Y0036613D03*
X0267996Y0037913D03*
X0267896Y0037813D03*
X0267796Y0037713D03*
X0267696Y0037613D03*
X0267596Y0037513D03*
X0267496Y0037313D03*
X0267396Y0037213D03*
X0267296Y0037113D03*
X0267296Y0037013D03*
X0267196Y0036913D03*
X0267096Y0036813D03*
X0267096Y0036713D03*
X0266996Y0036613D03*
X0266896Y0036413D03*
X0266796Y0036213D03*
X0266696Y0036013D03*
X0266696Y0035913D03*
X0266596Y0035813D03*
X0266596Y0035713D03*
X0266496Y0035513D03*
X0266496Y0035413D03*
X0266396Y0035213D03*
X0266596Y0034913D03*
X0266396Y0037513D03*
X0266496Y0037613D03*
X0266596Y0037813D03*
X0266696Y0037913D03*
X0266796Y0038113D03*
X0266996Y0037913D03*
X0268096Y0038013D03*
X0268196Y0038113D03*
X0268296Y0038213D03*
X0268396Y0038313D03*
X0268496Y0038413D03*
X0262796Y0036013D03*
X0262696Y0035913D03*
X0260596Y0036413D03*
X0260196Y0036713D03*
X0260096Y0036813D03*
X0259996Y0036913D03*
X0259896Y0037013D03*
X0256996Y0036313D03*
X0256896Y0036413D03*
X0256796Y0036513D03*
X0256396Y0037013D03*
X0256396Y0037113D03*
X0256296Y0037213D03*
X0256196Y0037313D03*
X0256196Y0037413D03*
X0256096Y0037513D03*
X0256096Y0037613D03*
X0255996Y0037713D03*
X0255996Y0037813D03*
X0255896Y0037913D03*
X0255796Y0038013D03*
X0255796Y0038113D03*
X0255796Y0038213D03*
X0255696Y0038313D03*
X0255696Y0038413D03*
X0255596Y0038513D03*
X0255596Y0038613D03*
X0255596Y0038713D03*
X0255496Y0038813D03*
X0255496Y0038913D03*
X0255496Y0039013D03*
X0254396Y0038413D03*
X0254396Y0038313D03*
X0254496Y0038213D03*
X0254596Y0038013D03*
X0254696Y0037913D03*
X0254696Y0037813D03*
X0254796Y0037713D03*
X0254496Y0037713D03*
X0254296Y0038013D03*
X0254196Y0038113D03*
X0254096Y0038213D03*
X0253996Y0038313D03*
X0254296Y0038513D03*
X0254196Y0038713D03*
X0254096Y0038813D03*
X0253896Y0039113D03*
X0253796Y0039213D03*
X0253496Y0039613D03*
X0253396Y0039713D03*
X0252596Y0039313D03*
X0252296Y0039013D03*
X0252396Y0038913D03*
X0252496Y0038813D03*
X0252696Y0038613D03*
X0252696Y0038513D03*
X0252296Y0038413D03*
X0252396Y0038213D03*
X0252396Y0038113D03*
X0252396Y0038013D03*
X0252496Y0037813D03*
X0252496Y0037713D03*
X0252496Y0037613D03*
X0252596Y0037413D03*
X0252596Y0037313D03*
X0252596Y0037213D03*
X0252596Y0037113D03*
X0252696Y0036513D03*
X0251296Y0037813D03*
X0251396Y0038213D03*
X0251396Y0038313D03*
X0251496Y0038513D03*
X0251496Y0038613D03*
X0251596Y0038813D03*
X0251596Y0038913D03*
X0251696Y0039013D03*
X0251696Y0039113D03*
X0251696Y0039213D03*
X0251896Y0039513D03*
X0251496Y0039713D03*
X0251496Y0039813D03*
X0251396Y0039613D03*
X0251396Y0039513D03*
X0251296Y0039313D03*
X0251296Y0039213D03*
X0251196Y0039113D03*
X0251196Y0039013D03*
X0251196Y0038913D03*
X0251096Y0038813D03*
X0251096Y0038713D03*
X0250996Y0038513D03*
X0250996Y0038413D03*
X0250996Y0038313D03*
X0250896Y0038213D03*
X0250896Y0038113D03*
X0250896Y0038013D03*
X0250796Y0037813D03*
X0250796Y0037713D03*
X0250796Y0037613D03*
X0250696Y0037413D03*
X0250696Y0037313D03*
X0250696Y0037213D03*
X0250596Y0037013D03*
X0250596Y0036913D03*
X0250596Y0036813D03*
X0250596Y0036713D03*
X0250596Y0036613D03*
X0250496Y0036413D03*
X0250496Y0036313D03*
X0250496Y0036213D03*
X0250496Y0036113D03*
X0250496Y0036013D03*
X0250496Y0035913D03*
X0250396Y0035513D03*
X0250396Y0035413D03*
X0250396Y0035313D03*
X0250396Y0035213D03*
X0250396Y0035113D03*
X0250396Y0035013D03*
X0250396Y0034913D03*
X0250396Y0034813D03*
X0250396Y0034713D03*
X0250696Y0034713D03*
X0250796Y0034813D03*
X0250796Y0034913D03*
X0250896Y0035013D03*
X0250996Y0035213D03*
X0251096Y0035313D03*
X0250396Y0034213D03*
X0250296Y0034013D03*
X0250196Y0033813D03*
X0250096Y0033613D03*
X0250096Y0033513D03*
X0249996Y0033313D03*
X0249896Y0033113D03*
X0249796Y0032913D03*
X0249796Y0032813D03*
X0249696Y0032713D03*
X0249696Y0032613D03*
X0249596Y0032413D03*
X0249596Y0032313D03*
X0249496Y0032213D03*
X0249496Y0032113D03*
X0249496Y0032013D03*
X0249396Y0031913D03*
X0249396Y0031813D03*
X0249396Y0031713D03*
X0249296Y0031613D03*
X0249296Y0031513D03*
X0249296Y0031413D03*
X0249196Y0031313D03*
X0249196Y0031213D03*
X0249196Y0031113D03*
X0249096Y0031013D03*
X0249096Y0030913D03*
X0249096Y0030813D03*
X0248996Y0030713D03*
X0248996Y0030613D03*
X0248996Y0030513D03*
X0248996Y0030413D03*
X0248896Y0030313D03*
X0248896Y0030213D03*
X0248896Y0030113D03*
X0248796Y0029913D03*
X0248796Y0029813D03*
X0248796Y0029713D03*
X0248796Y0029613D03*
X0248696Y0029513D03*
X0248696Y0029413D03*
X0248696Y0029313D03*
X0248696Y0029213D03*
X0248596Y0029113D03*
X0248596Y0029013D03*
X0248596Y0028913D03*
X0248596Y0028813D03*
X0248596Y0028713D03*
X0248496Y0028513D03*
X0248496Y0028413D03*
X0248496Y0028313D03*
X0248496Y0028213D03*
X0248496Y0028113D03*
X0248396Y0027913D03*
X0248396Y0027813D03*
X0248396Y0027713D03*
X0248396Y0027613D03*
X0248396Y0027513D03*
X0248396Y0027413D03*
X0248296Y0027213D03*
X0248296Y0027113D03*
X0248296Y0027013D03*
X0248296Y0026913D03*
X0248296Y0026813D03*
X0248296Y0026713D03*
X0248296Y0026613D03*
X0248296Y0026513D03*
X0248296Y0026413D03*
X0248296Y0026313D03*
X0248296Y0026213D03*
X0248196Y0026013D03*
X0248196Y0025913D03*
X0248196Y0025813D03*
X0248196Y0025713D03*
X0248196Y0025613D03*
X0248196Y0025513D03*
X0248196Y0025413D03*
X0248196Y0025313D03*
X0248196Y0025213D03*
X0248196Y0025113D03*
X0248196Y0025013D03*
X0248196Y0024913D03*
X0248196Y0024813D03*
X0248196Y0024713D03*
X0248196Y0024613D03*
X0248196Y0024513D03*
X0248196Y0024413D03*
X0248196Y0024313D03*
X0248196Y0024213D03*
X0248196Y0024113D03*
X0248196Y0024013D03*
X0248196Y0023913D03*
X0248196Y0023813D03*
X0248196Y0023713D03*
X0248196Y0023613D03*
X0248196Y0023513D03*
X0248296Y0023313D03*
X0254296Y0022913D03*
X0254596Y0022413D03*
X0254796Y0022013D03*
X0254996Y0021813D03*
X0255096Y0021713D03*
X0255096Y0022013D03*
X0255096Y0022113D03*
X0255096Y0022213D03*
X0255096Y0022313D03*
X0257596Y0023113D03*
X0257696Y0023213D03*
X0257996Y0025713D03*
X0257896Y0025813D03*
X0257796Y0025913D03*
X0257696Y0026113D03*
X0257596Y0026213D03*
X0257496Y0026313D03*
X0257496Y0026413D03*
X0257396Y0026513D03*
X0257296Y0026613D03*
X0257296Y0026713D03*
X0257196Y0026813D03*
X0257196Y0026913D03*
X0257096Y0027013D03*
X0257096Y0027113D03*
X0256996Y0027213D03*
X0256996Y0027313D03*
X0257296Y0028913D03*
X0257396Y0029013D03*
X0257496Y0029213D03*
X0257596Y0029313D03*
X0257696Y0029413D03*
X0257696Y0029513D03*
X0257796Y0029613D03*
X0257896Y0029713D03*
X0257996Y0029813D03*
X0258196Y0030113D03*
X0258296Y0030213D03*
X0258396Y0030313D03*
X0260296Y0028413D03*
X0260396Y0028113D03*
X0260396Y0028013D03*
X0260496Y0027813D03*
X0260496Y0027713D03*
X0260596Y0027613D03*
X0260596Y0027513D03*
X0260696Y0027413D03*
X0260696Y0027313D03*
X0260796Y0027113D03*
X0260896Y0027013D03*
X0260896Y0026913D03*
X0260996Y0026813D03*
X0261096Y0026613D03*
X0261196Y0026513D03*
X0261696Y0026513D03*
X0261696Y0026413D03*
X0261796Y0026713D03*
X0261896Y0026813D03*
X0261896Y0026913D03*
X0261996Y0027013D03*
X0262096Y0027113D03*
X0262596Y0027113D03*
X0262596Y0027013D03*
X0262596Y0026913D03*
X0262596Y0026813D03*
X0262596Y0026713D03*
X0262596Y0027213D03*
X0262496Y0027513D03*
X0263496Y0027413D03*
X0263496Y0027313D03*
X0263496Y0027213D03*
X0263496Y0027113D03*
X0263496Y0027013D03*
X0263396Y0026813D03*
X0263396Y0026713D03*
X0263396Y0026613D03*
X0263396Y0026513D03*
X0263296Y0026413D03*
X0263296Y0026313D03*
X0263296Y0026213D03*
X0263196Y0026113D03*
X0263196Y0026013D03*
X0263096Y0025913D03*
X0263096Y0025813D03*
X0262996Y0025713D03*
X0262996Y0025613D03*
X0262896Y0025513D03*
X0262896Y0025413D03*
X0262796Y0025313D03*
X0262596Y0025413D03*
X0262596Y0025513D03*
X0262596Y0025613D03*
X0262596Y0025713D03*
X0262596Y0025813D03*
X0262596Y0025913D03*
X0262396Y0024713D03*
X0265496Y0025413D03*
X0265596Y0025513D03*
X0265696Y0025613D03*
X0265796Y0025813D03*
X0265896Y0025913D03*
X0265996Y0026013D03*
X0265996Y0026113D03*
X0266096Y0026213D03*
X0266196Y0026413D03*
X0266296Y0026613D03*
X0266396Y0026813D03*
X0266396Y0026913D03*
X0266496Y0027013D03*
X0266496Y0027113D03*
X0266596Y0027313D03*
X0266596Y0027413D03*
X0266696Y0027613D03*
X0266696Y0027713D03*
X0266696Y0027813D03*
X0266796Y0028013D03*
X0266796Y0028113D03*
X0266796Y0028213D03*
X0266796Y0028313D03*
X0266896Y0028513D03*
X0266896Y0028613D03*
X0266896Y0028713D03*
X0266896Y0028813D03*
X0266896Y0028913D03*
X0266996Y0029313D03*
X0266996Y0029413D03*
X0266996Y0029513D03*
X0266996Y0029613D03*
X0266996Y0029713D03*
X0266996Y0029813D03*
X0266996Y0029913D03*
X0266996Y0030013D03*
X0266996Y0030113D03*
X0266996Y0030213D03*
X0266996Y0030313D03*
X0266996Y0030413D03*
X0266996Y0030513D03*
X0266996Y0030613D03*
X0266996Y0030713D03*
X0266996Y0030813D03*
X0266996Y0030913D03*
X0266996Y0031013D03*
X0263296Y0029513D03*
X0263396Y0029213D03*
X0263396Y0029113D03*
X0263396Y0029013D03*
X0263496Y0028913D03*
X0263496Y0028813D03*
X0263496Y0028713D03*
X0263496Y0028613D03*
X0263496Y0028513D03*
X0263496Y0028413D03*
X0262396Y0028813D03*
X0262296Y0028713D03*
X0261996Y0028713D03*
X0261896Y0028913D03*
X0261896Y0029013D03*
X0261896Y0029113D03*
X0261896Y0029213D03*
X0261896Y0029313D03*
X0261896Y0029413D03*
X0261896Y0029513D03*
X0261896Y0029613D03*
X0261896Y0029713D03*
X0261996Y0028413D03*
X0255196Y0028713D03*
X0255096Y0028913D03*
X0255096Y0029013D03*
X0254996Y0029213D03*
X0254896Y0028013D03*
X0254896Y0027913D03*
X0254896Y0027813D03*
X0254796Y0027713D03*
X0254796Y0027613D03*
X0254796Y0027513D03*
X0254696Y0027413D03*
X0254696Y0027313D03*
X0254596Y0027213D03*
X0254596Y0027113D03*
X0254496Y0027013D03*
X0254396Y0026913D03*
X0253396Y0027513D03*
X0253396Y0027613D03*
X0253496Y0027713D03*
X0253496Y0027813D03*
X0253596Y0027913D03*
X0253596Y0028013D03*
X0253696Y0028113D03*
X0253696Y0028213D03*
X0253696Y0028313D03*
X0253796Y0028513D03*
X0253796Y0028613D03*
X0253796Y0028713D03*
X0253796Y0028813D03*
X0253796Y0029113D03*
X0253696Y0029213D03*
X0253596Y0029313D03*
X0253496Y0029413D03*
X0253396Y0029513D03*
X0253296Y0029613D03*
X0252996Y0030013D03*
X0252896Y0030113D03*
X0252796Y0030213D03*
X0252396Y0030213D03*
X0252396Y0030113D03*
X0252396Y0030013D03*
X0252396Y0029913D03*
X0252396Y0030313D03*
X0252496Y0030613D03*
X0252396Y0030813D03*
X0252296Y0030913D03*
X0252296Y0031013D03*
X0252196Y0031113D03*
X0252096Y0031213D03*
X0252096Y0031313D03*
X0251996Y0031413D03*
X0251896Y0031613D03*
X0251796Y0031713D03*
X0251796Y0031813D03*
X0251696Y0031913D03*
X0251696Y0032013D03*
X0251596Y0032113D03*
X0251596Y0032213D03*
X0251496Y0032313D03*
X0251496Y0032413D03*
X0251396Y0032513D03*
X0251396Y0032613D03*
X0251096Y0032613D03*
X0251096Y0032513D03*
X0250996Y0032313D03*
X0250996Y0032213D03*
X0250896Y0032013D03*
X0250896Y0031913D03*
X0250896Y0031813D03*
X0250796Y0031513D03*
X0250796Y0031413D03*
X0250796Y0031313D03*
X0250796Y0031213D03*
X0250696Y0030913D03*
X0250696Y0030813D03*
X0250696Y0030713D03*
X0250696Y0030613D03*
X0250696Y0030513D03*
X0250696Y0030413D03*
X0250696Y0030313D03*
X0250696Y0030213D03*
X0250696Y0030113D03*
X0250696Y0030013D03*
X0250696Y0029913D03*
X0250696Y0029813D03*
X0250696Y0029713D03*
X0250696Y0029613D03*
X0250696Y0029513D03*
X0250696Y0029413D03*
X0250696Y0029313D03*
X0250696Y0029213D03*
X0250696Y0029113D03*
X0250696Y0029013D03*
X0250796Y0028713D03*
X0250796Y0028613D03*
X0250796Y0028513D03*
X0250796Y0028413D03*
X0250896Y0028313D03*
X0250896Y0028213D03*
X0250896Y0028113D03*
X0250996Y0028013D03*
X0250996Y0027913D03*
X0250996Y0027813D03*
X0251096Y0027713D03*
X0251096Y0027613D03*
X0251196Y0027513D03*
X0251296Y0027313D03*
X0251396Y0027213D03*
X0252596Y0027813D03*
X0252596Y0027913D03*
X0252596Y0028013D03*
X0252496Y0028213D03*
X0252496Y0028313D03*
X0252496Y0028413D03*
X0252396Y0028613D03*
X0252396Y0028713D03*
X0252396Y0028813D03*
X0252396Y0028913D03*
X0252396Y0029013D03*
X0252396Y0029113D03*
X0252396Y0029213D03*
X0252696Y0027713D03*
X0252696Y0027613D03*
X0252796Y0027413D03*
X0252796Y0027313D03*
X0252996Y0027013D03*
X0253196Y0027313D03*
X0253296Y0027413D03*
X0251196Y0032913D03*
X0251196Y0033013D03*
X0255796Y0033213D03*
X0255796Y0033313D03*
X0255796Y0033413D03*
X0255796Y0033513D03*
X0255796Y0033613D03*
X0255796Y0033713D03*
X0255896Y0033913D03*
X0255896Y0034013D03*
X0255896Y0034113D03*
X0255996Y0034313D03*
X0255996Y0034413D03*
X0256096Y0034513D03*
X0256096Y0034613D03*
X0256196Y0034713D03*
X0256796Y0033513D03*
X0256996Y0033613D03*
X0257196Y0033713D03*
X0256596Y0033413D03*
X0256396Y0033313D03*
X0255896Y0033013D03*
X0255096Y0037013D03*
X0252196Y0038713D03*
X0251596Y0040013D03*
X0251596Y0040113D03*
X0251696Y0040213D03*
X0251696Y0040313D03*
X0251796Y0040413D03*
X0251796Y0040513D03*
X0251896Y0040613D03*
X0251896Y0040713D03*
X0251996Y0040813D03*
X0252096Y0041013D03*
X0254896Y0019413D03*
X0254896Y0019313D03*
X0254796Y0019113D03*
X0254796Y0019013D03*
X0254796Y0018913D03*
X0254796Y0018813D03*
X0254796Y0018713D03*
X0254796Y0018613D03*
X0254796Y0017513D03*
X0254796Y0017413D03*
X0254796Y0017313D03*
X0254796Y0017213D03*
X0254796Y0017113D03*
X0254796Y0017013D03*
X0254896Y0016913D03*
X0255196Y0016913D03*
X0255496Y0016813D03*
X0255496Y0016713D03*
X0255496Y0016613D03*
X0255496Y0016513D03*
X0255596Y0016413D03*
X0255596Y0016313D03*
X0255696Y0016113D03*
X0255696Y0015713D03*
X0255696Y0015613D03*
X0255696Y0015513D03*
X0255696Y0015413D03*
X0255696Y0015313D03*
X0255696Y0015213D03*
X0255696Y0015113D03*
X0255696Y0015013D03*
X0255696Y0014913D03*
X0255696Y0014813D03*
X0255796Y0014513D03*
X0255796Y0014413D03*
X0255796Y0014313D03*
X0255796Y0014213D03*
X0255796Y0014113D03*
X0255796Y0014013D03*
X0255796Y0013913D03*
X0255796Y0013813D03*
X0255896Y0013613D03*
X0255896Y0013513D03*
X0255896Y0013413D03*
X0255896Y0013313D03*
X0255896Y0013213D03*
X0255896Y0013113D03*
X0255996Y0012913D03*
X0255996Y0012813D03*
X0255996Y0012713D03*
X0255996Y0012613D03*
X0256096Y0012413D03*
X0256096Y0012313D03*
X0256096Y0012213D03*
X0256096Y0012113D03*
X0256196Y0012013D03*
X0256196Y0011913D03*
X0256196Y0011813D03*
X0256296Y0011613D03*
X0256296Y0011513D03*
X0256396Y0011413D03*
X0256396Y0011313D03*
X0256496Y0011113D03*
X0256596Y0010913D03*
X0256696Y0010813D03*
X0258596Y0010713D03*
X0258596Y0011113D03*
X0258596Y0011213D03*
X0258596Y0011313D03*
X0258496Y0011513D03*
X0258496Y0011613D03*
X0258496Y0011713D03*
X0258396Y0011913D03*
X0258396Y0012013D03*
X0258296Y0012213D03*
X0258296Y0012313D03*
X0258296Y0012413D03*
X0258496Y0012613D03*
X0258496Y0012713D03*
X0258196Y0012713D03*
X0258596Y0012413D03*
X0258596Y0012313D03*
X0258696Y0012213D03*
X0258696Y0012113D03*
X0258696Y0012013D03*
X0258796Y0011913D03*
X0258796Y0011813D03*
X0258896Y0011713D03*
X0258996Y0011513D03*
X0259096Y0011313D03*
X0259196Y0011213D03*
X0261096Y0010913D03*
X0261196Y0011013D03*
X0261196Y0011113D03*
X0261296Y0011213D03*
X0261296Y0011313D03*
X0257996Y0014813D03*
X0257996Y0014913D03*
X0257996Y0015013D03*
X0257996Y0015113D03*
X0256296Y0015813D03*
X0256296Y0015913D03*
X0256296Y0016013D03*
X0256296Y0016113D03*
X0256296Y0016213D03*
X0256396Y0016413D03*
X0256396Y0016513D03*
X0255396Y0017313D03*
X0255496Y0017513D03*
X0254996Y0016513D03*
X0254996Y0016413D03*
X0254996Y0016313D03*
D32*
X0254946Y0016613D03*
X0255346Y0017113D03*
X0255346Y0017213D03*
X0255646Y0016213D03*
X0255746Y0016013D03*
X0256246Y0015513D03*
X0256346Y0015413D03*
X0258046Y0014713D03*
X0258046Y0014613D03*
X0258046Y0014513D03*
X0258046Y0014413D03*
X0258046Y0014313D03*
X0258046Y0014213D03*
X0258046Y0014113D03*
X0258046Y0014013D03*
X0258146Y0013813D03*
X0258146Y0013713D03*
X0258146Y0013613D03*
X0258946Y0011613D03*
X0259046Y0011413D03*
X0259246Y0011113D03*
X0259346Y0011013D03*
X0259446Y0010913D03*
X0259546Y0010813D03*
X0259646Y0010713D03*
X0260846Y0010713D03*
X0260946Y0010813D03*
X0261446Y0011813D03*
X0261846Y0011513D03*
X0256546Y0011013D03*
X0256446Y0011213D03*
X0266446Y0015813D03*
X0265846Y0017013D03*
X0265246Y0018013D03*
X0264746Y0018713D03*
X0264446Y0019113D03*
X0264346Y0019213D03*
X0268646Y0018213D03*
X0268846Y0018413D03*
X0269946Y0019113D03*
X0271046Y0018813D03*
X0271646Y0017213D03*
X0271646Y0016913D03*
X0270246Y0016713D03*
X0270646Y0015513D03*
X0270346Y0015213D03*
X0269746Y0014913D03*
X0268846Y0014913D03*
X0268746Y0014713D03*
X0268646Y0014613D03*
X0268546Y0014413D03*
X0268446Y0014213D03*
X0268346Y0014013D03*
X0268346Y0013913D03*
X0268246Y0013813D03*
X0268246Y0013713D03*
X0268146Y0013613D03*
X0268146Y0013513D03*
X0268046Y0013313D03*
X0268046Y0013213D03*
X0267946Y0013013D03*
X0267946Y0012913D03*
X0267846Y0012613D03*
X0267746Y0011713D03*
X0267746Y0011613D03*
X0267746Y0011513D03*
X0267746Y0011413D03*
X0267746Y0011313D03*
X0268846Y0015313D03*
X0268546Y0015613D03*
X0268446Y0015713D03*
X0257546Y0023013D03*
X0257346Y0022913D03*
X0256046Y0023113D03*
X0255846Y0022913D03*
X0255746Y0022813D03*
X0254946Y0021913D03*
X0254446Y0022813D03*
X0253846Y0026413D03*
X0254046Y0026513D03*
X0254146Y0026613D03*
X0254246Y0026713D03*
X0254346Y0026813D03*
X0254946Y0028113D03*
X0254846Y0028213D03*
X0254646Y0028313D03*
X0254546Y0028413D03*
X0254446Y0028513D03*
X0254346Y0028613D03*
X0254246Y0028713D03*
X0254146Y0028813D03*
X0253846Y0029013D03*
X0253246Y0029713D03*
X0253146Y0029813D03*
X0253046Y0029913D03*
X0252746Y0030313D03*
X0252446Y0030713D03*
X0251946Y0031513D03*
X0251246Y0032713D03*
X0251246Y0032813D03*
X0250446Y0034313D03*
X0250446Y0034413D03*
X0254346Y0035813D03*
X0254446Y0035713D03*
X0254746Y0035513D03*
X0255046Y0037113D03*
X0254946Y0037213D03*
X0254946Y0037313D03*
X0254846Y0037413D03*
X0254546Y0038113D03*
X0254246Y0038613D03*
X0253946Y0038413D03*
X0253846Y0038513D03*
X0253746Y0038613D03*
X0253646Y0038713D03*
X0253546Y0038813D03*
X0253446Y0038913D03*
X0253346Y0039013D03*
X0253246Y0039113D03*
X0253146Y0039213D03*
X0253046Y0039313D03*
X0252946Y0039413D03*
X0252546Y0039713D03*
X0252446Y0039813D03*
X0252946Y0040213D03*
X0253046Y0040113D03*
X0253146Y0040013D03*
X0253246Y0039913D03*
X0253346Y0039813D03*
X0253546Y0039513D03*
X0253646Y0039413D03*
X0253746Y0039313D03*
X0253946Y0039013D03*
X0254046Y0038913D03*
X0255446Y0039213D03*
X0256546Y0036813D03*
X0256646Y0036713D03*
X0256746Y0036613D03*
X0257246Y0036013D03*
X0256246Y0034813D03*
X0256246Y0033213D03*
X0262846Y0036113D03*
X0262946Y0036213D03*
X0263046Y0036313D03*
X0263146Y0036413D03*
X0263246Y0036513D03*
X0263346Y0036613D03*
X0263446Y0036713D03*
X0263546Y0036813D03*
X0263646Y0036913D03*
X0263746Y0037013D03*
X0263846Y0037113D03*
X0263946Y0037213D03*
X0264046Y0037313D03*
X0264346Y0037513D03*
X0265246Y0038213D03*
X0265346Y0038313D03*
X0265646Y0038513D03*
X0265846Y0038613D03*
X0266146Y0038813D03*
X0266946Y0038213D03*
X0267046Y0038313D03*
X0267146Y0038013D03*
X0267346Y0038113D03*
X0267546Y0038213D03*
X0267546Y0037413D03*
X0266946Y0036513D03*
X0266846Y0036313D03*
X0266446Y0035113D03*
X0266546Y0035013D03*
X0259746Y0037113D03*
X0259646Y0037213D03*
X0259546Y0037313D03*
X0259346Y0037413D03*
X0259246Y0037513D03*
X0258946Y0037713D03*
X0258646Y0037913D03*
X0252846Y0040313D03*
X0252746Y0040413D03*
X0252646Y0040513D03*
X0252546Y0040613D03*
X0252446Y0040713D03*
X0252346Y0040813D03*
X0251546Y0039913D03*
X0252146Y0039213D03*
X0262946Y0029213D03*
X0262746Y0029113D03*
X0262646Y0029013D03*
X0262546Y0028913D03*
X0262046Y0028513D03*
X0262146Y0027213D03*
X0261746Y0026613D03*
X0261546Y0026113D03*
X0261246Y0026413D03*
X0261046Y0026713D03*
X0260746Y0027213D03*
X0262546Y0025013D03*
X0262446Y0024813D03*
X0264146Y0024213D03*
X0264446Y0024413D03*
X0264546Y0024513D03*
X0264846Y0024713D03*
X0264946Y0024813D03*
X0265046Y0024913D03*
X0265146Y0025013D03*
X0265246Y0025113D03*
X0265346Y0025213D03*
X0265446Y0025313D03*
X0265746Y0025713D03*
X0266146Y0026313D03*
X0266246Y0026513D03*
X0266346Y0026713D03*
X0269246Y0029613D03*
X0269246Y0029713D03*
X0263246Y0029413D03*
X0257846Y0028013D03*
X0257546Y0027813D03*
X0257346Y0027713D03*
X0257046Y0027513D03*
X0256946Y0027413D03*
X0257746Y0026013D03*
X0258046Y0025613D03*
X0258146Y0025513D03*
X0258246Y0025413D03*
X0258346Y0025313D03*
X0258446Y0025213D03*
X0258546Y0025113D03*
X0258646Y0025013D03*
X0258746Y0024913D03*
X0258846Y0024813D03*
X0259046Y0024713D03*
X0259146Y0024613D03*
X0259246Y0024513D03*
X0259446Y0024413D03*
X0257446Y0029113D03*
X0252746Y0027513D03*
X0252146Y0026513D03*
X0251946Y0026613D03*
X0251846Y0026713D03*
X0251746Y0026813D03*
X0251646Y0026913D03*
X0251546Y0027013D03*
X0251446Y0027113D03*
X0251246Y0027413D03*
X0248346Y0023213D03*
X0248446Y0023113D03*
X0248546Y0023013D03*
X0248646Y0022913D03*
X0248846Y0022813D03*
X0248946Y0022713D03*
X0249046Y0022613D03*
X0249146Y0022513D03*
X0249346Y0022413D03*
X0249446Y0022313D03*
X0249546Y0022213D03*
X0249746Y0022113D03*
X0249846Y0022013D03*
X0250046Y0021913D03*
X0250146Y0021813D03*
X0250346Y0021713D03*
X0250446Y0021613D03*
X0251146Y0021213D03*
D33*
X0264346Y0019513D03*
X0270746Y0017713D03*
X0266346Y0010713D03*
X0263846Y0010713D03*
X0255046Y0036113D03*
X0265346Y0038113D03*
D34*
X0266246Y0037313D03*
X0266346Y0037413D03*
X0266846Y0037813D03*
X0266746Y0038013D03*
X0266746Y0036113D03*
X0266546Y0035613D03*
X0266446Y0035313D03*
X0266746Y0034813D03*
X0266846Y0034713D03*
X0266946Y0034613D03*
X0269446Y0035913D03*
X0269446Y0036013D03*
X0269446Y0036113D03*
X0269446Y0036213D03*
X0269446Y0036313D03*
X0269446Y0036413D03*
X0269446Y0036513D03*
X0269346Y0036813D03*
X0269346Y0036913D03*
X0269346Y0037013D03*
X0269246Y0037413D03*
X0269146Y0037813D03*
X0269046Y0038113D03*
X0268946Y0038413D03*
X0269646Y0038913D03*
X0269546Y0039313D03*
X0269446Y0039713D03*
X0269846Y0037913D03*
X0269846Y0037813D03*
X0269946Y0037213D03*
X0270046Y0036413D03*
X0270046Y0036313D03*
X0270046Y0036213D03*
X0270046Y0033713D03*
X0270046Y0033613D03*
X0270046Y0033513D03*
X0269946Y0032713D03*
X0269946Y0032613D03*
X0269846Y0032013D03*
X0269746Y0031413D03*
X0269646Y0031013D03*
X0269446Y0030213D03*
X0268946Y0030413D03*
X0268846Y0030713D03*
X0268846Y0030813D03*
X0268746Y0030913D03*
X0268746Y0031013D03*
X0269246Y0029313D03*
X0269246Y0029213D03*
X0269346Y0028813D03*
X0269546Y0027713D03*
X0269646Y0027013D03*
X0269746Y0026313D03*
X0269746Y0026213D03*
X0269846Y0025413D03*
X0269846Y0025313D03*
X0269946Y0024013D03*
X0269946Y0023913D03*
X0269946Y0023813D03*
X0266546Y0027213D03*
X0266646Y0027513D03*
X0266746Y0027913D03*
X0266846Y0028413D03*
X0266946Y0029013D03*
X0266946Y0029113D03*
X0266946Y0029213D03*
X0263546Y0028313D03*
X0263546Y0028213D03*
X0263546Y0028113D03*
X0263546Y0028013D03*
X0263546Y0027913D03*
X0263546Y0027813D03*
X0263546Y0027713D03*
X0263546Y0027613D03*
X0263546Y0027513D03*
X0263446Y0026913D03*
X0262646Y0026613D03*
X0262646Y0026513D03*
X0262646Y0026413D03*
X0262646Y0026313D03*
X0262646Y0026213D03*
X0262646Y0026113D03*
X0262646Y0026013D03*
X0262546Y0025313D03*
X0262346Y0024613D03*
X0262246Y0024513D03*
X0262246Y0024413D03*
X0261546Y0025913D03*
X0261546Y0026013D03*
X0262546Y0027613D03*
X0261946Y0028313D03*
X0261946Y0028813D03*
X0260346Y0028313D03*
X0260346Y0028213D03*
X0260446Y0027913D03*
X0260246Y0028513D03*
X0260246Y0028613D03*
X0260246Y0028713D03*
X0260246Y0028813D03*
X0258546Y0030513D03*
X0258446Y0030413D03*
X0258646Y0030613D03*
X0258746Y0030713D03*
X0258846Y0030813D03*
X0258146Y0030013D03*
X0258046Y0029913D03*
X0257246Y0028813D03*
X0257146Y0028713D03*
X0257146Y0028613D03*
X0257046Y0028513D03*
X0255146Y0028813D03*
X0255046Y0029113D03*
X0254946Y0029313D03*
X0254946Y0029413D03*
X0254846Y0029513D03*
X0254846Y0029613D03*
X0253746Y0028413D03*
X0252546Y0028113D03*
X0252446Y0028513D03*
X0252346Y0029313D03*
X0252346Y0029413D03*
X0252346Y0029513D03*
X0252346Y0029613D03*
X0252346Y0029713D03*
X0252346Y0029813D03*
X0250746Y0028913D03*
X0250746Y0028813D03*
X0250746Y0031013D03*
X0250746Y0031113D03*
X0250846Y0031613D03*
X0250846Y0031713D03*
X0250946Y0032113D03*
X0251046Y0032413D03*
X0251246Y0033113D03*
X0250046Y0033413D03*
X0249946Y0033213D03*
X0249846Y0033013D03*
X0249646Y0032513D03*
X0250146Y0033713D03*
X0250246Y0033913D03*
X0250346Y0034113D03*
X0250946Y0035113D03*
X0251146Y0035413D03*
X0250446Y0035613D03*
X0250446Y0035713D03*
X0250446Y0035813D03*
X0250546Y0036513D03*
X0250646Y0037113D03*
X0250746Y0037513D03*
X0250846Y0037913D03*
X0251246Y0037713D03*
X0251246Y0037613D03*
X0251246Y0037513D03*
X0251246Y0037413D03*
X0251146Y0037113D03*
X0251346Y0037913D03*
X0251346Y0038013D03*
X0251346Y0038113D03*
X0251446Y0038413D03*
X0251546Y0038713D03*
X0251046Y0038613D03*
X0251346Y0039413D03*
X0251846Y0039613D03*
X0252346Y0039913D03*
X0252546Y0039413D03*
X0252646Y0039213D03*
X0252646Y0039113D03*
X0252646Y0039013D03*
X0252746Y0038913D03*
X0252746Y0038813D03*
X0252746Y0038713D03*
X0252546Y0038713D03*
X0252246Y0038613D03*
X0252246Y0038513D03*
X0252346Y0038313D03*
X0252746Y0038313D03*
X0252746Y0038413D03*
X0252446Y0037913D03*
X0252546Y0037513D03*
X0252646Y0037013D03*
X0252646Y0036913D03*
X0252646Y0036813D03*
X0252646Y0036713D03*
X0252646Y0036613D03*
X0252746Y0036413D03*
X0252746Y0036313D03*
X0252746Y0036213D03*
X0252746Y0036113D03*
X0254446Y0037813D03*
X0254346Y0037913D03*
X0252146Y0038813D03*
X0252146Y0038913D03*
X0252046Y0039013D03*
X0252046Y0041113D03*
X0260346Y0036613D03*
X0260446Y0036513D03*
X0260846Y0036113D03*
X0262546Y0035613D03*
X0257446Y0033813D03*
X0255946Y0034213D03*
X0255846Y0033813D03*
X0255846Y0032913D03*
X0248846Y0030013D03*
X0248546Y0028613D03*
X0248446Y0028013D03*
X0248346Y0027313D03*
X0248246Y0026113D03*
X0248246Y0023413D03*
X0254246Y0023013D03*
X0254546Y0022513D03*
X0254646Y0022313D03*
X0254646Y0022213D03*
X0254746Y0022113D03*
X0255146Y0022413D03*
X0255146Y0021613D03*
X0256046Y0023213D03*
X0257746Y0023313D03*
X0257846Y0023413D03*
X0257846Y0023513D03*
X0254846Y0019213D03*
X0254746Y0018513D03*
X0254746Y0018413D03*
X0254746Y0018313D03*
X0254746Y0018213D03*
X0254746Y0018113D03*
X0254746Y0018013D03*
X0254746Y0017913D03*
X0254746Y0017813D03*
X0254746Y0017713D03*
X0254746Y0017613D03*
X0255446Y0017413D03*
X0255546Y0017613D03*
X0255546Y0017713D03*
X0255446Y0016913D03*
X0254946Y0016213D03*
X0256446Y0016613D03*
X0256546Y0016213D03*
X0256646Y0016113D03*
X0256846Y0016013D03*
X0256446Y0015313D03*
X0255746Y0014713D03*
X0255746Y0014613D03*
X0255846Y0013713D03*
X0255946Y0013013D03*
X0256046Y0012513D03*
X0256246Y0011713D03*
X0258346Y0012113D03*
X0258446Y0011813D03*
X0258546Y0011413D03*
X0258646Y0011013D03*
X0258646Y0010913D03*
X0258646Y0010813D03*
X0258246Y0012613D03*
X0261346Y0011913D03*
X0261346Y0011513D03*
X0261346Y0011413D03*
X0267346Y0013213D03*
X0267146Y0013913D03*
X0268346Y0016013D03*
X0268346Y0016113D03*
X0271246Y0016613D03*
X0270846Y0018313D03*
X0252946Y0026913D03*
D35*
X0261646Y0029813D03*
X0263646Y0030513D03*
X0264046Y0030613D03*
X0264446Y0030713D03*
X0262346Y0035813D03*
X0261046Y0036213D03*
X0256946Y0036113D03*
X0254546Y0036013D03*
X0256046Y0039013D03*
X0264946Y0037913D03*
X0265146Y0038013D03*
X0266146Y0038313D03*
X0267046Y0038513D03*
X0262046Y0023513D03*
X0265746Y0019813D03*
X0266146Y0019913D03*
X0266846Y0020113D03*
X0268946Y0018313D03*
X0269346Y0018213D03*
X0269046Y0017613D03*
X0270446Y0017813D03*
X0271346Y0016813D03*
X0266746Y0010813D03*
X0263446Y0010813D03*
X0255646Y0019413D03*
X0254246Y0019813D03*
D36*
X0253996Y0019913D03*
X0253696Y0020013D03*
X0253396Y0020113D03*
X0254596Y0019713D03*
X0254896Y0019613D03*
X0256096Y0023013D03*
X0260396Y0023913D03*
X0260696Y0023813D03*
X0263296Y0023813D03*
X0266496Y0020013D03*
X0267196Y0020213D03*
X0267496Y0020313D03*
X0267796Y0020413D03*
X0269796Y0018013D03*
X0269396Y0017513D03*
X0269096Y0017213D03*
X0268796Y0017313D03*
X0269896Y0016913D03*
X0270196Y0017213D03*
X0270896Y0017613D03*
X0271396Y0017413D03*
X0270996Y0016913D03*
X0267696Y0012513D03*
X0267696Y0012413D03*
X0267096Y0010913D03*
X0263096Y0010913D03*
X0261596Y0011613D03*
X0263196Y0029313D03*
X0262996Y0030313D03*
X0263296Y0030413D03*
X0262696Y0030213D03*
X0262396Y0030113D03*
X0262096Y0030013D03*
X0266696Y0031213D03*
X0261396Y0036113D03*
X0264796Y0037813D03*
X0268396Y0038513D03*
X0268696Y0038613D03*
X0268296Y0039813D03*
X0268596Y0039913D03*
X0268896Y0040013D03*
X0256996Y0038713D03*
X0256696Y0038813D03*
X0256396Y0038913D03*
X0255796Y0035013D03*
X0256096Y0034913D03*
D37*
X0255696Y0039113D03*
X0264796Y0030813D03*
X0265296Y0030913D03*
X0262896Y0023713D03*
X0261096Y0023713D03*
X0264896Y0019613D03*
X0265296Y0019713D03*
X0269696Y0018113D03*
X0269196Y0015113D03*
X0256096Y0019313D03*
X0255196Y0019513D03*
D38*
X0259496Y0018913D03*
D39*
X0259546Y0019013D03*
D40*
X0257396Y0019113D03*
D41*
X0261796Y0019113D03*
X0255796Y0036913D03*
D42*
X0266746Y0038413D03*
X0256846Y0022813D03*
X0255046Y0022613D03*
X0256646Y0019213D03*
X0263246Y0019313D03*
X0263846Y0019413D03*
D43*
X0262596Y0019213D03*
X0253096Y0026213D03*
X0255696Y0036813D03*
D44*
X0261996Y0023613D03*
D45*
X0256046Y0036213D03*
M02*
