G75*
%MOIN*%
%OFA0B0*%
%FSLAX25Y25*%
%IPPOS*%
%LPD*%
%AMOC8*
5,1,8,0,0,1.08239X$1,22.5*
%
%ADD10C,0.08274*%
%ADD11C,0.06306*%
%ADD12C,0.04337*%
%ADD13R,0.01581X0.06699*%
%ADD14R,0.06699X0.01581*%
%ADD15R,0.05124X0.02369*%
%ADD16R,0.09770X0.06896*%
%ADD17R,0.01384X0.02172*%
%ADD18R,0.16148X0.16148*%
%ADD19R,0.01575X0.04429*%
%ADD20R,0.04429X0.01575*%
%ADD21R,0.04298X0.03117*%
%ADD22R,0.03400X0.02600*%
%ADD23R,0.02600X0.03400*%
%ADD24R,0.03156X0.07093*%
%ADD25R,0.07093X0.03156*%
%ADD26R,0.03550X0.01581*%
%ADD27R,0.05906X0.07874*%
%ADD28R,0.03937X0.05906*%
%ADD29R,0.03156X0.01975*%
%ADD30R,0.01581X0.03038*%
%ADD31R,0.01778X0.04337*%
%ADD32R,0.01581X0.02369*%
%ADD33R,0.03400X0.04600*%
%ADD34R,0.06699X0.09849*%
%ADD35R,0.05912X0.06699*%
%ADD36R,0.02959X0.01975*%
%ADD37R,0.04400X0.04400*%
%ADD38R,0.05518X0.05518*%
%ADD39R,0.02172X0.06306*%
%ADD40R,0.09849X0.09849*%
%ADD41R,0.06306X0.08274*%
%ADD42R,0.08274X0.08274*%
%ADD43R,0.08274X0.10243*%
%ADD44C,0.02762*%
%ADD45R,0.02369X0.05124*%
%ADD46R,0.01975X0.04337*%
%ADD47R,0.04337X0.01975*%
%ADD48R,0.02762X0.06306*%
%ADD49R,0.08274X0.12211*%
%ADD50R,0.03943X0.06306*%
%ADD51R,0.03550X0.03550*%
%ADD52R,0.03400X0.04400*%
%ADD53R,0.04400X0.03400*%
%ADD54R,0.14180X0.14180*%
%ADD55R,0.02959X0.01187*%
%ADD56R,0.01187X0.02959*%
%ADD57R,0.07000X0.03600*%
%ADD58R,0.05912X0.05912*%
%ADD59C,0.03943*%
%ADD60R,0.12211X0.11030*%
%ADD61R,0.05124X0.01581*%
%ADD62R,0.03900X0.04400*%
%ADD63R,0.05400X0.04900*%
%ADD64R,0.04400X0.03900*%
%ADD65R,0.01975X0.02959*%
%ADD66R,0.02369X0.01187*%
%ADD67R,0.01187X0.02369*%
%ADD68R,0.10636X0.10636*%
%ADD69R,0.04600X0.03400*%
%ADD70R,0.04337X0.08274*%
%ADD71R,0.08274X0.04337*%
%ADD72R,0.12211X0.08274*%
%ADD73R,0.06306X0.10243*%
%ADD74C,0.05124*%
%ADD75R,0.06306X0.02762*%
%ADD76R,0.06699X0.05912*%
%ADD77R,0.01975X0.04140*%
%ADD78R,0.01778X0.09455*%
%ADD79R,0.05518X0.01778*%
%ADD80R,0.12211X0.12211*%
%ADD81R,0.04400X0.02400*%
%ADD82OC8,0.07400*%
%ADD83OC8,0.04731*%
%ADD84R,0.09061X0.04337*%
%ADD85R,0.04337X0.04337*%
%ADD86R,0.02369X0.02369*%
%ADD87R,0.05124X0.06699*%
%ADD88R,0.01581X0.02762*%
%ADD89R,0.02762X0.01581*%
%ADD90R,0.08668X0.08668*%
%ADD91R,0.02959X0.01581*%
%ADD92R,0.01581X0.02959*%
%ADD93R,0.03156X0.07487*%
%ADD94R,0.06699X0.09061*%
%ADD95C,0.02959*%
%ADD96OC8,0.02800*%
%ADD97R,0.03943X0.01581*%
%ADD98C,0.06463*%
%ADD99R,0.02369X0.01778*%
%ADD100OC8,0.06502*%
%ADD101C,0.18117*%
D10*
X0018717Y0067199D03*
D11*
X0028559Y0067199D03*
X0018717Y0079010D03*
X0008874Y0067199D03*
X0018717Y0055387D03*
X0536433Y0138065D03*
D12*
X0536433Y0145939D03*
X0536433Y0153813D03*
X0536433Y0130191D03*
X0536433Y0122317D03*
X0178362Y0237080D03*
X0145882Y0237080D03*
X0018717Y0086884D03*
X0018717Y0047513D03*
D13*
X0098874Y0036608D03*
X0100843Y0036608D03*
X0102811Y0036608D03*
X0104780Y0036608D03*
X0106748Y0036608D03*
X0108717Y0036608D03*
X0110685Y0036608D03*
X0112654Y0036608D03*
X0114622Y0036608D03*
X0116591Y0036608D03*
X0118559Y0036608D03*
X0120528Y0036608D03*
X0122496Y0036608D03*
X0124465Y0036608D03*
X0126433Y0036608D03*
X0128402Y0036608D03*
X0130370Y0036608D03*
X0132339Y0036608D03*
X0134307Y0036608D03*
X0136276Y0036608D03*
X0138244Y0036608D03*
X0140213Y0036608D03*
X0142181Y0036608D03*
X0144150Y0036608D03*
X0146118Y0036608D03*
X0148087Y0036608D03*
X0150055Y0036608D03*
X0152024Y0036608D03*
X0153992Y0036608D03*
X0155961Y0036608D03*
X0157929Y0036608D03*
X0159898Y0036608D03*
X0161866Y0036608D03*
X0163835Y0036608D03*
X0165803Y0036608D03*
X0167772Y0036608D03*
X0167772Y0120073D03*
X0165803Y0120073D03*
X0163835Y0120073D03*
X0161866Y0120073D03*
X0159898Y0120073D03*
X0157929Y0120073D03*
X0155961Y0120073D03*
X0153992Y0120073D03*
X0152024Y0120073D03*
X0150055Y0120073D03*
X0148087Y0120073D03*
X0146118Y0120073D03*
X0144150Y0120073D03*
X0142181Y0120073D03*
X0140213Y0120073D03*
X0138244Y0120073D03*
X0136276Y0120073D03*
X0134307Y0120073D03*
X0132339Y0120073D03*
X0130370Y0120073D03*
X0128402Y0120073D03*
X0126433Y0120073D03*
X0124465Y0120073D03*
X0122496Y0120073D03*
X0120528Y0120073D03*
X0118559Y0120073D03*
X0116591Y0120073D03*
X0114622Y0120073D03*
X0112654Y0120073D03*
X0110685Y0120073D03*
X0108717Y0120073D03*
X0106748Y0120073D03*
X0104780Y0120073D03*
X0102811Y0120073D03*
X0100843Y0120073D03*
X0098874Y0120073D03*
D14*
X0091591Y0112789D03*
X0091591Y0110821D03*
X0091591Y0108852D03*
X0091591Y0106884D03*
X0091591Y0104915D03*
X0091591Y0102947D03*
X0091591Y0100978D03*
X0091591Y0099010D03*
X0091591Y0097041D03*
X0091591Y0095073D03*
X0091591Y0093104D03*
X0091591Y0091136D03*
X0091591Y0089167D03*
X0091591Y0087199D03*
X0091591Y0085230D03*
X0091591Y0083262D03*
X0091591Y0081293D03*
X0091591Y0079325D03*
X0091591Y0077356D03*
X0091591Y0075388D03*
X0091591Y0073419D03*
X0091591Y0071450D03*
X0091591Y0069482D03*
X0091591Y0067513D03*
X0091591Y0065545D03*
X0091591Y0063576D03*
X0091591Y0061608D03*
X0091591Y0059639D03*
X0091591Y0057671D03*
X0091591Y0055702D03*
X0091591Y0053734D03*
X0091591Y0051765D03*
X0091591Y0049797D03*
X0091591Y0047828D03*
X0091591Y0045860D03*
X0091591Y0043891D03*
X0175055Y0043891D03*
X0175055Y0045860D03*
X0175055Y0047828D03*
X0175055Y0049797D03*
X0175055Y0051765D03*
X0175055Y0053734D03*
X0175055Y0055702D03*
X0175055Y0057671D03*
X0175055Y0059639D03*
X0175055Y0061608D03*
X0175055Y0063576D03*
X0175055Y0065545D03*
X0175055Y0067513D03*
X0175055Y0069482D03*
X0175055Y0071450D03*
X0175055Y0073419D03*
X0175055Y0075388D03*
X0175055Y0077356D03*
X0175055Y0079325D03*
X0175055Y0081293D03*
X0175055Y0083262D03*
X0175055Y0085230D03*
X0175055Y0087199D03*
X0175055Y0089167D03*
X0175055Y0091136D03*
X0175055Y0093104D03*
X0175055Y0095073D03*
X0175055Y0097041D03*
X0175055Y0099010D03*
X0175055Y0100978D03*
X0175055Y0102947D03*
X0175055Y0104915D03*
X0175055Y0106884D03*
X0175055Y0108852D03*
X0175055Y0110821D03*
X0175055Y0112789D03*
D15*
X0201976Y0111923D03*
X0201976Y0115073D03*
X0201976Y0118222D03*
X0201976Y0108773D03*
X0201976Y0105624D03*
X0201976Y0102474D03*
X0201976Y0099325D03*
X0201976Y0096175D03*
X0201976Y0093025D03*
X0201976Y0089876D03*
X0201976Y0086726D03*
X0201976Y0083576D03*
X0201976Y0080427D03*
X0201976Y0077277D03*
X0201976Y0074128D03*
X0201976Y0070978D03*
X0201976Y0067828D03*
X0201976Y0064679D03*
X0201976Y0061529D03*
X0201976Y0058380D03*
X0201976Y0055230D03*
X0201976Y0052080D03*
X0201976Y0048931D03*
X0201976Y0045781D03*
X0201976Y0042632D03*
X0201976Y0039482D03*
X0201976Y0036332D03*
X0245300Y0036332D03*
X0245300Y0039482D03*
X0245300Y0042632D03*
X0245300Y0045781D03*
X0245300Y0048931D03*
X0245300Y0052080D03*
X0245300Y0055230D03*
X0245300Y0058380D03*
X0245300Y0061529D03*
X0245300Y0064679D03*
X0245300Y0067828D03*
X0245300Y0070978D03*
X0245300Y0074128D03*
X0245300Y0077277D03*
X0245300Y0080427D03*
X0245300Y0083576D03*
X0245300Y0086726D03*
X0245300Y0089876D03*
X0245300Y0093025D03*
X0245300Y0096175D03*
X0245300Y0099325D03*
X0245300Y0102474D03*
X0245300Y0105624D03*
X0245300Y0108773D03*
X0245300Y0111923D03*
X0245300Y0115073D03*
X0245300Y0118222D03*
X0491157Y0045387D03*
X0507693Y0045387D03*
D16*
X0144898Y0158143D03*
X0110882Y0147789D03*
D17*
X0110882Y0142474D03*
X0112850Y0142474D03*
X0114819Y0142474D03*
X0108913Y0142474D03*
X0106945Y0142474D03*
X0106945Y0153104D03*
X0108913Y0153104D03*
X0110882Y0153104D03*
X0112850Y0153104D03*
X0114819Y0153104D03*
X0140961Y0152828D03*
X0142929Y0152828D03*
X0144898Y0152828D03*
X0146866Y0152828D03*
X0148835Y0152828D03*
X0148835Y0163458D03*
X0146866Y0163458D03*
X0144898Y0163458D03*
X0142929Y0163458D03*
X0140961Y0163458D03*
D18*
X0312024Y0079010D03*
D19*
X0313008Y0121382D03*
X0314976Y0121382D03*
X0316945Y0121382D03*
X0318913Y0121382D03*
X0320882Y0121382D03*
X0322850Y0121382D03*
X0324819Y0121382D03*
X0326787Y0121382D03*
X0328756Y0121382D03*
X0330724Y0121382D03*
X0332693Y0121382D03*
X0334661Y0121382D03*
X0336630Y0121382D03*
X0338598Y0121382D03*
X0340567Y0121382D03*
X0342535Y0121382D03*
X0344504Y0121382D03*
X0346472Y0121382D03*
X0311039Y0121382D03*
X0309071Y0121382D03*
X0307102Y0121382D03*
X0305134Y0121382D03*
X0303165Y0121382D03*
X0301197Y0121382D03*
X0299228Y0121382D03*
X0297260Y0121382D03*
X0295291Y0121382D03*
X0293323Y0121382D03*
X0291354Y0121382D03*
X0289386Y0121382D03*
X0287417Y0121382D03*
X0285449Y0121382D03*
X0283480Y0121382D03*
X0281512Y0121382D03*
X0279543Y0121382D03*
X0277575Y0121382D03*
X0277575Y0036638D03*
X0279543Y0036638D03*
X0281512Y0036638D03*
X0283480Y0036638D03*
X0285449Y0036638D03*
X0287417Y0036638D03*
X0289386Y0036638D03*
X0291354Y0036638D03*
X0293323Y0036638D03*
X0295291Y0036638D03*
X0297260Y0036638D03*
X0299228Y0036638D03*
X0301197Y0036638D03*
X0303165Y0036638D03*
X0305134Y0036638D03*
X0307102Y0036638D03*
X0309071Y0036638D03*
X0311039Y0036638D03*
X0313008Y0036638D03*
X0314976Y0036638D03*
X0316945Y0036638D03*
X0318913Y0036638D03*
X0320882Y0036638D03*
X0322850Y0036638D03*
X0324819Y0036638D03*
X0326787Y0036638D03*
X0328756Y0036638D03*
X0330724Y0036638D03*
X0332693Y0036638D03*
X0334661Y0036638D03*
X0336630Y0036638D03*
X0338598Y0036638D03*
X0340567Y0036638D03*
X0342535Y0036638D03*
X0344504Y0036638D03*
X0346472Y0036638D03*
D20*
X0354396Y0044561D03*
X0354396Y0046529D03*
X0354396Y0048498D03*
X0354396Y0050466D03*
X0354396Y0052435D03*
X0354396Y0054403D03*
X0354396Y0056372D03*
X0354396Y0058340D03*
X0354396Y0060309D03*
X0354396Y0062277D03*
X0354396Y0064246D03*
X0354396Y0066214D03*
X0354396Y0068183D03*
X0354396Y0070151D03*
X0354396Y0072120D03*
X0354396Y0074088D03*
X0354396Y0076057D03*
X0354396Y0078025D03*
X0354396Y0079994D03*
X0354396Y0081962D03*
X0354396Y0083931D03*
X0354396Y0085899D03*
X0354396Y0087868D03*
X0354396Y0089836D03*
X0354396Y0091805D03*
X0354396Y0093773D03*
X0354396Y0095742D03*
X0354396Y0097710D03*
X0354396Y0099679D03*
X0354396Y0101647D03*
X0354396Y0103616D03*
X0354396Y0105584D03*
X0354396Y0107553D03*
X0354396Y0109521D03*
X0354396Y0111490D03*
X0354396Y0113458D03*
X0269652Y0113458D03*
X0269652Y0111490D03*
X0269652Y0109521D03*
X0269652Y0107553D03*
X0269652Y0105584D03*
X0269652Y0103616D03*
X0269652Y0101647D03*
X0269652Y0099679D03*
X0269652Y0097710D03*
X0269652Y0095742D03*
X0269652Y0093773D03*
X0269652Y0091805D03*
X0269652Y0089836D03*
X0269652Y0087868D03*
X0269652Y0085899D03*
X0269652Y0083931D03*
X0269652Y0081962D03*
X0269652Y0079994D03*
X0269652Y0078025D03*
X0269652Y0076057D03*
X0269652Y0074088D03*
X0269652Y0072120D03*
X0269652Y0070151D03*
X0269652Y0068183D03*
X0269652Y0066214D03*
X0269652Y0064246D03*
X0269652Y0062277D03*
X0269652Y0060309D03*
X0269652Y0058340D03*
X0269652Y0056372D03*
X0269652Y0054403D03*
X0269652Y0052435D03*
X0269652Y0050466D03*
X0269652Y0048498D03*
X0269652Y0046529D03*
X0269652Y0044561D03*
D21*
X0183402Y0169797D03*
X0183402Y0177277D03*
X0173205Y0177277D03*
X0173205Y0173537D03*
X0173205Y0169797D03*
X0141945Y0175466D03*
X0131748Y0175466D03*
X0131748Y0179206D03*
X0131748Y0182947D03*
X0141945Y0182947D03*
D22*
X0148441Y0180584D03*
X0148441Y0175466D03*
X0136039Y0169954D03*
X0131512Y0169954D03*
X0131512Y0164836D03*
X0136039Y0164836D03*
X0131512Y0160506D03*
X0131512Y0155388D03*
X0087024Y0155388D03*
X0087024Y0160506D03*
X0085055Y0146726D03*
X0085055Y0141608D03*
X0071866Y0179206D03*
X0071866Y0184325D03*
X0071866Y0188065D03*
X0071866Y0193183D03*
X0071866Y0199482D03*
X0071866Y0204600D03*
X0076000Y0210702D03*
X0071079Y0213458D03*
X0076000Y0215821D03*
X0071079Y0218576D03*
X0084661Y0213458D03*
X0089189Y0213458D03*
X0093717Y0213458D03*
X0098244Y0213458D03*
X0098244Y0208340D03*
X0093717Y0208340D03*
X0089189Y0208340D03*
X0084661Y0208340D03*
X0103559Y0203813D03*
X0103559Y0198695D03*
X0050213Y0192002D03*
X0050213Y0186884D03*
X0190173Y0182356D03*
X0190173Y0177238D03*
X0190213Y0169758D03*
X0190213Y0164639D03*
X0229740Y0171923D03*
X0229740Y0177041D03*
X0278165Y0156569D03*
X0278165Y0151450D03*
X0253362Y0145348D03*
X0249031Y0145348D03*
X0249031Y0140230D03*
X0253362Y0140230D03*
X0238205Y0140033D03*
X0238205Y0145151D03*
X0293913Y0136293D03*
X0293913Y0131175D03*
X0313205Y0138262D03*
X0317339Y0138262D03*
X0321394Y0138301D03*
X0321394Y0143419D03*
X0317339Y0143380D03*
X0313205Y0143380D03*
X0330449Y0143419D03*
X0330449Y0138301D03*
X0344504Y0137474D03*
X0344504Y0132356D03*
X0315961Y0131175D03*
X0315961Y0126057D03*
X0391551Y0149876D03*
X0391551Y0154994D03*
X0391551Y0167592D03*
X0391551Y0172710D03*
X0391157Y0201647D03*
X0391157Y0206765D03*
X0462614Y0222710D03*
X0462614Y0227828D03*
X0488402Y0205387D03*
X0488402Y0200269D03*
X0488402Y0195742D03*
X0488402Y0190624D03*
X0486118Y0143143D03*
X0481000Y0143143D03*
X0475606Y0143183D03*
X0475606Y0138065D03*
X0481000Y0138025D03*
X0486118Y0138025D03*
X0481079Y0130722D03*
X0475646Y0130742D03*
X0475646Y0125624D03*
X0481079Y0125604D03*
X0494701Y0117002D03*
X0494701Y0111884D03*
X0454110Y0125506D03*
X0454110Y0130624D03*
X0394307Y0100860D03*
X0394307Y0095742D03*
X0381512Y0061096D03*
X0381512Y0055978D03*
X0363205Y0039836D03*
X0363205Y0034718D03*
X0451197Y0039443D03*
X0451197Y0044561D03*
X0456512Y0046332D03*
X0456512Y0051450D03*
X0484858Y0053065D03*
X0484858Y0047947D03*
X0481118Y0037120D03*
X0485252Y0037080D03*
X0485252Y0031962D03*
X0481118Y0032002D03*
X0474425Y0015624D03*
X0474425Y0010506D03*
X0195094Y0039246D03*
X0195094Y0044364D03*
X0140764Y0020742D03*
X0140764Y0015624D03*
X0121079Y0015427D03*
X0121079Y0020545D03*
X0083874Y0018576D03*
X0079346Y0018576D03*
X0079346Y0023695D03*
X0083874Y0023695D03*
X0073441Y0023695D03*
X0068913Y0023695D03*
X0068913Y0018576D03*
X0073441Y0018576D03*
X0083283Y0069758D03*
X0083283Y0074876D03*
X0194110Y0077238D03*
X0194110Y0072120D03*
X0193913Y0084128D03*
X0193913Y0089246D03*
D23*
G36*
X0252649Y0082078D02*
X0250810Y0083917D01*
X0253213Y0086320D01*
X0255052Y0084481D01*
X0252649Y0082078D01*
G37*
G36*
X0256268Y0078459D02*
X0254429Y0080298D01*
X0256832Y0082701D01*
X0258671Y0080862D01*
X0256268Y0078459D01*
G37*
X0314976Y0030191D03*
X0320094Y0030191D03*
X0365567Y0046136D03*
X0370685Y0046136D03*
X0363795Y0069167D03*
X0358677Y0069167D03*
X0425606Y0062868D03*
X0430724Y0062868D03*
X0434661Y0062868D03*
X0439780Y0062868D03*
X0439780Y0056765D03*
X0434661Y0056765D03*
X0430724Y0056765D03*
X0425606Y0056765D03*
X0460646Y0055781D03*
X0465764Y0055781D03*
X0470488Y0055781D03*
X0475606Y0055781D03*
X0485843Y0059128D03*
X0490961Y0059128D03*
X0494898Y0059128D03*
X0500016Y0059128D03*
X0446079Y0089836D03*
X0440961Y0089836D03*
X0437220Y0089836D03*
X0432102Y0089836D03*
X0433480Y0108537D03*
X0428362Y0108537D03*
X0428362Y0112671D03*
X0433480Y0112671D03*
X0476000Y0110506D03*
X0476000Y0105978D03*
X0481118Y0105978D03*
X0481118Y0110506D03*
X0481118Y0101647D03*
X0476000Y0101647D03*
X0454150Y0136884D03*
X0449031Y0136884D03*
X0475606Y0148301D03*
X0480724Y0148301D03*
X0480724Y0152804D03*
X0485843Y0152804D03*
X0489228Y0152809D03*
X0494346Y0152809D03*
X0494268Y0148262D03*
X0489150Y0148262D03*
X0485843Y0158537D03*
X0480724Y0158537D03*
X0472024Y0163852D03*
X0466906Y0163852D03*
X0456118Y0163852D03*
X0451000Y0163852D03*
X0380921Y0132750D03*
X0375803Y0132750D03*
X0308677Y0142592D03*
X0303559Y0142592D03*
X0280331Y0135112D03*
X0275213Y0135112D03*
X0250606Y0180191D03*
X0245488Y0180191D03*
X0240961Y0180191D03*
X0235843Y0180191D03*
X0152378Y0170545D03*
X0147260Y0170545D03*
X0101394Y0169758D03*
X0096276Y0169758D03*
X0064386Y0169167D03*
X0059268Y0169167D03*
X0098244Y0218970D03*
X0103362Y0218970D03*
X0113205Y0233537D03*
X0118323Y0233537D03*
X0080724Y0233537D03*
X0075606Y0233537D03*
X0055331Y0110702D03*
X0050213Y0110702D03*
X0145094Y0025269D03*
X0150213Y0025269D03*
X0153953Y0025269D03*
X0159071Y0025269D03*
X0112220Y0012474D03*
X0107102Y0012474D03*
X0101591Y0012474D03*
X0096472Y0012474D03*
X0443126Y0026450D03*
X0448244Y0026450D03*
X0452575Y0026450D03*
X0457693Y0026450D03*
X0442142Y0201844D03*
X0442142Y0206569D03*
X0437024Y0206569D03*
X0437024Y0201844D03*
X0437024Y0214443D03*
X0442142Y0214443D03*
X0442142Y0219167D03*
X0437024Y0219167D03*
X0473638Y0220545D03*
X0478756Y0220545D03*
X0483480Y0220545D03*
X0488598Y0220545D03*
X0488598Y0214639D03*
X0483480Y0214639D03*
X0478756Y0214639D03*
X0473638Y0214639D03*
D24*
X0345646Y0214797D03*
X0341315Y0214797D03*
X0336984Y0214797D03*
X0332654Y0214797D03*
X0328323Y0214797D03*
X0323992Y0214797D03*
X0319661Y0214797D03*
X0315331Y0214797D03*
X0311000Y0214797D03*
X0306669Y0214797D03*
X0302339Y0214797D03*
X0298008Y0214797D03*
X0184583Y0192789D03*
X0180252Y0192789D03*
X0175921Y0192789D03*
X0171591Y0192789D03*
X0167260Y0192789D03*
X0162929Y0192789D03*
X0158598Y0192789D03*
X0154268Y0192789D03*
X0149937Y0192789D03*
X0298008Y0155427D03*
X0302339Y0155427D03*
X0306669Y0155427D03*
X0311000Y0155427D03*
X0315331Y0155427D03*
X0319661Y0155427D03*
X0323992Y0155427D03*
X0328323Y0155427D03*
X0332654Y0155427D03*
X0336984Y0155427D03*
X0341315Y0155427D03*
X0345646Y0155427D03*
D25*
X0354780Y0168025D03*
X0354780Y0172356D03*
X0354780Y0176687D03*
X0354780Y0181017D03*
X0354780Y0185348D03*
X0354780Y0189679D03*
X0354780Y0194010D03*
X0354780Y0198340D03*
X0354780Y0202671D03*
X0288953Y0202671D03*
X0288953Y0198340D03*
X0288953Y0194010D03*
X0288953Y0189679D03*
X0288953Y0185348D03*
X0288953Y0181017D03*
X0288953Y0176687D03*
X0288953Y0172356D03*
X0288953Y0168025D03*
D26*
X0399031Y0159797D03*
X0399031Y0157828D03*
X0399031Y0155860D03*
X0399031Y0153891D03*
X0399031Y0151923D03*
X0399031Y0149954D03*
X0399031Y0147986D03*
X0399031Y0146017D03*
X0399031Y0144049D03*
X0399031Y0142080D03*
X0399031Y0140112D03*
X0399031Y0138143D03*
X0399031Y0136175D03*
X0399031Y0134206D03*
X0399031Y0132238D03*
X0399031Y0130269D03*
X0399031Y0128301D03*
X0399031Y0126332D03*
X0399031Y0124364D03*
X0399031Y0122395D03*
X0399031Y0120427D03*
X0399031Y0118458D03*
X0399031Y0116490D03*
X0399031Y0114521D03*
D27*
X0411827Y0105584D03*
X0411827Y0168576D03*
D28*
X0407102Y0167592D03*
X0407102Y0106569D03*
D29*
X0116551Y0223498D03*
X0116551Y0226057D03*
X0116551Y0228616D03*
X0109858Y0228616D03*
X0109858Y0223498D03*
X0098441Y0223695D03*
X0091748Y0223695D03*
X0091748Y0226254D03*
X0091748Y0228813D03*
X0098441Y0228813D03*
X0080134Y0228616D03*
X0073441Y0228616D03*
X0073441Y0226057D03*
X0073441Y0223498D03*
X0080134Y0223498D03*
D30*
X0373047Y0029010D03*
X0375409Y0029010D03*
X0377772Y0029010D03*
X0380134Y0029010D03*
X0382496Y0029010D03*
X0384858Y0029010D03*
X0387220Y0029010D03*
X0389583Y0029010D03*
X0391945Y0029010D03*
X0394307Y0029010D03*
X0396669Y0029010D03*
X0399031Y0029010D03*
X0401394Y0029010D03*
X0403756Y0029010D03*
X0406118Y0029010D03*
X0408480Y0029010D03*
X0410843Y0029010D03*
X0413205Y0029010D03*
X0415567Y0029010D03*
X0417929Y0029010D03*
X0420291Y0029010D03*
X0422654Y0029010D03*
X0425016Y0029010D03*
D31*
X0427476Y0030053D03*
X0370587Y0030053D03*
D32*
X0374228Y0041076D03*
X0376591Y0041076D03*
X0378953Y0041076D03*
X0381315Y0041076D03*
X0383677Y0041076D03*
X0386039Y0041076D03*
X0388402Y0041076D03*
X0390764Y0041076D03*
X0393126Y0041076D03*
X0395488Y0041076D03*
X0397850Y0041076D03*
X0400213Y0041076D03*
X0402575Y0041076D03*
X0404937Y0041076D03*
X0407299Y0041076D03*
X0409661Y0041076D03*
X0412024Y0041076D03*
X0414386Y0041076D03*
X0416748Y0041076D03*
X0419110Y0041076D03*
X0421472Y0041076D03*
X0423835Y0041076D03*
X0077280Y0124265D03*
X0077280Y0132651D03*
X0077280Y0142494D03*
X0077280Y0150840D03*
D33*
X0091453Y0151352D03*
X0098933Y0151352D03*
X0095193Y0142691D03*
D34*
X0122850Y0141608D03*
X0134661Y0141608D03*
D35*
X0159583Y0168813D03*
X0159583Y0180624D03*
X0199465Y0179403D03*
X0199465Y0167592D03*
X0113992Y0189443D03*
X0113992Y0201254D03*
X0485843Y0183537D03*
X0485843Y0171726D03*
D36*
X0099130Y0159718D03*
X0094602Y0157750D03*
X0094602Y0161687D03*
D37*
X0106331Y0178124D03*
X0119291Y0178124D03*
X0222949Y0177222D03*
X0222949Y0164262D03*
X0469406Y0024269D03*
X0469406Y0011309D03*
D38*
X0225803Y0143970D03*
X0225803Y0155781D03*
X0154346Y0143773D03*
X0142535Y0143773D03*
X0119307Y0164443D03*
X0107496Y0164443D03*
X0083874Y0172120D03*
X0072063Y0172120D03*
D39*
X0235754Y0172671D03*
X0238254Y0172671D03*
X0240754Y0172671D03*
X0243254Y0172671D03*
X0245754Y0172671D03*
X0248254Y0172671D03*
X0250754Y0172671D03*
X0253254Y0172671D03*
X0253254Y0151490D03*
X0250754Y0151490D03*
X0248254Y0151490D03*
X0245754Y0151490D03*
X0243254Y0151490D03*
X0240754Y0151490D03*
X0238254Y0151490D03*
X0235754Y0151490D03*
D40*
X0211827Y0153025D03*
X0196669Y0155388D03*
X0196669Y0135702D03*
X0211827Y0172710D03*
D41*
X0190370Y0196726D03*
D42*
X0130882Y0196726D03*
X0478717Y0065545D03*
X0507063Y0065545D03*
X0507063Y0093891D03*
D43*
X0190173Y0235112D03*
X0126945Y0235112D03*
D44*
X0282693Y0172317D03*
X0285843Y0132947D03*
X0269307Y0123695D03*
X0189110Y0111254D03*
X0187417Y0116805D03*
X0172654Y0130387D03*
X0123047Y0149876D03*
X0183087Y0060702D03*
X0179346Y0033931D03*
X0187220Y0033931D03*
X0187220Y0030781D03*
X0187220Y0027632D03*
X0311433Y0028616D03*
X0455724Y0036490D03*
X0461827Y0051647D03*
X0504150Y0054600D03*
X0504150Y0034521D03*
X0497850Y0030191D03*
X0379346Y0126450D03*
X0432890Y0150073D03*
X0429346Y0152435D03*
X0345685Y0220939D03*
X0341354Y0221923D03*
D45*
X0491551Y0049718D03*
X0494701Y0049718D03*
X0497850Y0049718D03*
X0501000Y0049718D03*
X0504150Y0049718D03*
X0507299Y0049718D03*
X0507299Y0041057D03*
X0504150Y0041057D03*
X0501000Y0041057D03*
X0497850Y0041057D03*
X0494701Y0041057D03*
X0491551Y0041057D03*
D46*
X0471965Y0045742D03*
X0469406Y0045742D03*
X0466846Y0045742D03*
X0464287Y0045742D03*
X0464287Y0031175D03*
X0466846Y0031175D03*
X0469406Y0031175D03*
X0471965Y0031175D03*
D47*
X0475409Y0034620D03*
X0475409Y0037179D03*
X0475409Y0039738D03*
X0475409Y0042297D03*
X0460843Y0042297D03*
X0460843Y0039738D03*
X0460843Y0037179D03*
X0460843Y0034620D03*
D48*
X0384878Y0148857D03*
X0379878Y0148857D03*
X0374878Y0148857D03*
X0369878Y0148857D03*
X0369878Y0170579D03*
X0374878Y0170579D03*
X0379878Y0170580D03*
X0384878Y0170579D03*
X0384760Y0183070D03*
X0379760Y0183070D03*
X0374760Y0183070D03*
X0369760Y0183070D03*
X0369760Y0204792D03*
X0374760Y0204792D03*
X0379760Y0204792D03*
X0384760Y0204792D03*
D49*
X0266354Y0197120D03*
X0204150Y0197120D03*
X0204150Y0244679D03*
X0266354Y0244679D03*
D50*
X0260213Y0186805D03*
X0255213Y0186805D03*
X0250213Y0186805D03*
X0245213Y0186805D03*
X0240213Y0186805D03*
X0235213Y0186805D03*
X0230213Y0186805D03*
D51*
X0278165Y0167002D03*
X0278165Y0161096D03*
X0477378Y0193380D03*
X0483283Y0193380D03*
X0084858Y0012671D03*
X0078953Y0012671D03*
X0073835Y0012671D03*
X0067929Y0012671D03*
X0054543Y0169167D03*
X0048638Y0169167D03*
D52*
X0476600Y0200383D03*
X0484061Y0200383D03*
X0484061Y0209836D03*
X0476600Y0209836D03*
D53*
X0469268Y0131992D03*
X0469268Y0124531D03*
X0459814Y0124531D03*
X0459814Y0131992D03*
X0308170Y0130397D03*
X0298717Y0130397D03*
X0298717Y0137858D03*
X0308170Y0137858D03*
X0135764Y0021716D03*
X0126310Y0021716D03*
X0126310Y0014256D03*
X0135764Y0014256D03*
D54*
X0399071Y0077080D03*
D55*
X0408835Y0076293D03*
X0408835Y0074718D03*
X0408835Y0073143D03*
X0408835Y0071569D03*
X0408835Y0069994D03*
X0408835Y0077868D03*
X0408835Y0079443D03*
X0408835Y0081017D03*
X0408835Y0082592D03*
X0408835Y0084167D03*
X0389307Y0084167D03*
X0389307Y0082592D03*
X0389307Y0081017D03*
X0389307Y0079443D03*
X0389307Y0077868D03*
X0389307Y0076293D03*
X0389307Y0074718D03*
X0389307Y0073143D03*
X0389307Y0071569D03*
X0389307Y0069994D03*
D56*
X0391984Y0067317D03*
X0393559Y0067317D03*
X0395134Y0067317D03*
X0396709Y0067317D03*
X0398283Y0067317D03*
X0399858Y0067317D03*
X0401433Y0067317D03*
X0403008Y0067317D03*
X0404583Y0067317D03*
X0406157Y0067317D03*
X0406157Y0086844D03*
X0404583Y0086844D03*
X0403008Y0086844D03*
X0401433Y0086844D03*
X0399858Y0086844D03*
X0398283Y0086844D03*
X0396709Y0086844D03*
X0395134Y0086844D03*
X0393559Y0086844D03*
X0391984Y0086844D03*
D57*
X0357791Y0020348D03*
X0341059Y0020348D03*
X0318421Y0020348D03*
X0301689Y0020348D03*
X0439484Y0020348D03*
X0456217Y0020348D03*
X0107398Y0242592D03*
X0090665Y0242592D03*
D58*
X0085252Y0250958D03*
X0112811Y0250958D03*
X0296276Y0011982D03*
X0323835Y0011982D03*
X0335646Y0011982D03*
X0363205Y0011982D03*
X0434071Y0011982D03*
X0461630Y0011982D03*
D59*
X0452772Y0013458D03*
X0442929Y0013458D03*
X0354346Y0013458D03*
X0344504Y0013458D03*
X0314976Y0013458D03*
X0305134Y0013458D03*
X0103953Y0249482D03*
X0094110Y0249482D03*
D60*
X0421433Y0221844D03*
X0421433Y0196805D03*
D61*
X0413638Y0204403D03*
X0413638Y0206372D03*
X0413638Y0208340D03*
X0413638Y0210309D03*
X0413638Y0212277D03*
X0413638Y0214246D03*
D62*
X0432890Y0103616D03*
X0439583Y0103616D03*
X0439583Y0096529D03*
X0432890Y0096529D03*
X0426197Y0096529D03*
X0419504Y0096529D03*
X0419504Y0087868D03*
X0426197Y0087868D03*
X0440370Y0085112D03*
X0447063Y0085112D03*
X0447063Y0074088D03*
X0440370Y0074088D03*
X0426394Y0074088D03*
X0419701Y0074088D03*
X0436433Y0047120D03*
X0443126Y0047120D03*
X0443126Y0041214D03*
X0436433Y0041214D03*
G36*
X0180290Y0123845D02*
X0183048Y0121087D01*
X0179938Y0117977D01*
X0177180Y0120735D01*
X0180290Y0123845D01*
G37*
G36*
X0175557Y0128577D02*
X0178315Y0125819D01*
X0175205Y0122709D01*
X0172447Y0125467D01*
X0175557Y0128577D01*
G37*
G36*
X0088842Y0124998D02*
X0091600Y0127756D01*
X0094710Y0124646D01*
X0091952Y0121888D01*
X0088842Y0124998D01*
G37*
G36*
X0084109Y0120266D02*
X0086867Y0123024D01*
X0089977Y0119914D01*
X0087219Y0117156D01*
X0084109Y0120266D01*
G37*
D63*
X0098682Y0018399D03*
X0110011Y0018399D03*
D64*
X0387811Y0056175D03*
X0387811Y0062868D03*
X0513402Y0048695D03*
X0513402Y0042002D03*
D65*
X0471866Y0104699D03*
X0467929Y0104699D03*
X0469898Y0109226D03*
X0292732Y0149580D03*
X0288795Y0149580D03*
X0285843Y0147415D03*
X0281906Y0147415D03*
X0290764Y0145053D03*
X0283874Y0142888D03*
D66*
X0094504Y0188065D03*
X0094504Y0189639D03*
X0094504Y0191214D03*
X0094504Y0192789D03*
X0094504Y0194364D03*
X0094504Y0195939D03*
X0094504Y0197513D03*
X0079937Y0197513D03*
X0079937Y0195939D03*
X0079937Y0194364D03*
X0079937Y0192789D03*
X0079937Y0191214D03*
X0079937Y0189639D03*
X0079937Y0188065D03*
D67*
X0082398Y0185506D03*
X0083972Y0185506D03*
X0085547Y0185506D03*
X0087122Y0185506D03*
X0088697Y0185506D03*
X0090272Y0185506D03*
X0091945Y0185506D03*
X0091945Y0200073D03*
X0090370Y0200073D03*
X0088795Y0200073D03*
X0087220Y0200073D03*
X0085646Y0200073D03*
X0084071Y0200073D03*
X0082496Y0200073D03*
D68*
X0087220Y0192789D03*
D69*
X0113205Y0207947D03*
X0121866Y0211687D03*
X0113205Y0215427D03*
D70*
X0373047Y0222907D03*
X0392732Y0222907D03*
X0455921Y0246726D03*
X0491354Y0246726D03*
D71*
X0510055Y0151844D03*
X0510055Y0132159D03*
D72*
X0491709Y0093891D03*
X0472024Y0093891D03*
D73*
X0470055Y0065545D03*
D74*
X0478559Y0079206D03*
X0506118Y0079206D03*
D75*
X0472885Y0170132D03*
X0472885Y0175132D03*
X0472885Y0180132D03*
X0472885Y0185132D03*
X0451163Y0185132D03*
X0451162Y0180132D03*
X0451163Y0175132D03*
X0451163Y0170132D03*
D76*
X0448047Y0032750D03*
X0436236Y0032750D03*
D77*
X0055134Y0220053D03*
X0051984Y0220053D03*
X0051984Y0225368D03*
X0055134Y0225368D03*
D78*
X0058480Y0222710D03*
X0048638Y0222710D03*
D79*
X0053559Y0229600D03*
X0053559Y0215821D03*
D80*
X0073638Y0092789D03*
X0073638Y0041608D03*
X0457693Y0207553D03*
D81*
X0479312Y0017986D03*
X0479312Y0014246D03*
X0488436Y0014246D03*
X0488435Y0017986D03*
X0488436Y0010506D03*
X0479312Y0010506D03*
D82*
X0060055Y0182041D03*
X0060055Y0192041D03*
X0060055Y0202041D03*
D83*
X0355331Y0220742D03*
X0363205Y0145939D03*
X0445882Y0067199D03*
X0363205Y0027828D03*
X0355331Y0027828D03*
X0347457Y0027828D03*
X0355331Y0035702D03*
D84*
X0275409Y0213852D03*
X0275409Y0225269D03*
D85*
X0281709Y0219561D03*
D86*
X0286630Y0219561D03*
X0286630Y0222317D03*
X0286630Y0225073D03*
D87*
X0476000Y0024679D03*
X0487811Y0024679D03*
D88*
X0464583Y0198498D03*
X0462614Y0198498D03*
X0460646Y0198498D03*
X0458677Y0198498D03*
X0456709Y0198498D03*
X0454740Y0198498D03*
X0452772Y0198498D03*
X0450803Y0198498D03*
X0450803Y0216608D03*
X0452772Y0216608D03*
X0454740Y0216608D03*
X0456709Y0216608D03*
X0458677Y0216608D03*
X0460646Y0216608D03*
X0462614Y0216608D03*
X0464583Y0216608D03*
D89*
X0466748Y0214443D03*
X0466748Y0212474D03*
X0466748Y0210506D03*
X0466748Y0208537D03*
X0466748Y0206569D03*
X0466748Y0204600D03*
X0466748Y0202632D03*
X0466748Y0200663D03*
X0448638Y0200663D03*
X0448638Y0202632D03*
X0448638Y0204600D03*
X0448638Y0206569D03*
X0448638Y0208537D03*
X0448638Y0210506D03*
X0448638Y0212474D03*
X0448638Y0214443D03*
D90*
X0462220Y0150860D03*
D91*
X0469801Y0150860D03*
X0469801Y0152801D03*
X0469801Y0154743D03*
X0469801Y0148919D03*
X0469801Y0146977D03*
X0454640Y0146977D03*
X0454640Y0148919D03*
X0454640Y0150860D03*
X0454640Y0152801D03*
X0454640Y0154743D03*
D92*
X0458337Y0158440D03*
X0460279Y0158440D03*
X0462220Y0158440D03*
X0464162Y0158440D03*
X0466104Y0158440D03*
X0466104Y0143280D03*
X0464162Y0143280D03*
X0462220Y0143280D03*
X0460279Y0143280D03*
X0458337Y0143280D03*
D93*
X0179642Y0024285D03*
X0174720Y0024285D03*
X0169799Y0024285D03*
X0164878Y0024285D03*
D94*
X0155232Y0013655D03*
X0189287Y0013655D03*
D95*
X0071177Y0123399D03*
X0071177Y0151746D03*
D96*
X0068618Y0148596D03*
X0065862Y0147021D03*
X0065862Y0143872D03*
X0065862Y0140722D03*
X0068618Y0139147D03*
X0068618Y0135998D03*
X0068618Y0132848D03*
X0065862Y0131273D03*
X0065862Y0128124D03*
X0068618Y0126549D03*
X0065862Y0134423D03*
X0068618Y0142297D03*
D97*
X0073382Y0142494D03*
X0073382Y0144462D03*
X0073382Y0146431D03*
X0073382Y0148399D03*
X0073382Y0140525D03*
X0073382Y0138557D03*
X0073382Y0136588D03*
X0073382Y0134620D03*
X0073382Y0132651D03*
X0073382Y0130683D03*
X0073382Y0128714D03*
X0073382Y0126746D03*
D98*
X0066256Y0121313D03*
X0048972Y0119895D03*
X0048972Y0155250D03*
X0066256Y0153832D03*
D99*
X0503657Y0118675D03*
X0503657Y0116116D03*
X0503657Y0113557D03*
X0503657Y0110998D03*
X0511728Y0110998D03*
X0511728Y0113557D03*
X0511728Y0116116D03*
X0511728Y0118675D03*
D100*
X0511827Y0104600D03*
X0498047Y0104600D03*
X0529543Y0104600D03*
X0543323Y0104600D03*
X0543323Y0171529D03*
X0529543Y0171529D03*
X0511827Y0171529D03*
X0073835Y0102632D03*
X0050213Y0102632D03*
X0030528Y0102632D03*
X0006906Y0102632D03*
X0006906Y0031765D03*
X0030528Y0031765D03*
X0050213Y0031765D03*
X0073835Y0031765D03*
D101*
X0054150Y0017986D03*
X0506906Y0017986D03*
X0506906Y0246332D03*
X0054150Y0246332D03*
M02*
