G75*
%MOIN*%
%OFA0B0*%
%FSLAX25Y25*%
%IPPOS*%
%LPD*%
%AMOC8*
5,1,8,0,0,1.08239X$1,22.5*
%
%ADD10C,0.06306*%
%ADD11C,0.04337*%
%ADD12C,0.08274*%
%ADD13C,0.02762*%
%ADD14R,0.01581X0.06699*%
%ADD15R,0.06699X0.01581*%
%ADD16R,0.05124X0.02369*%
%ADD17R,0.09770X0.06896*%
%ADD18R,0.01384X0.02172*%
%ADD19R,0.16148X0.16148*%
%ADD20R,0.01575X0.04429*%
%ADD21R,0.04429X0.01575*%
%ADD22R,0.03400X0.02600*%
%ADD23R,0.02600X0.03400*%
%ADD24R,0.03156X0.07093*%
%ADD25R,0.07093X0.03156*%
%ADD26R,0.03550X0.01581*%
%ADD27R,0.06299X0.05512*%
%ADD28R,0.04134X0.03543*%
%ADD29R,0.01581X0.03038*%
%ADD30R,0.01778X0.04337*%
%ADD31R,0.01581X0.02369*%
%ADD32R,0.03400X0.04600*%
%ADD33R,0.05912X0.06699*%
%ADD34R,0.06699X0.05912*%
%ADD35R,0.01975X0.02959*%
%ADD36R,0.04400X0.04400*%
%ADD37R,0.05518X0.05518*%
%ADD38R,0.02762X0.06306*%
%ADD39R,0.01975X0.01581*%
%ADD40R,0.03550X0.03550*%
%ADD41R,0.02400X0.03400*%
%ADD42R,0.04400X0.03400*%
%ADD43R,0.14180X0.14180*%
%ADD44R,0.02959X0.01187*%
%ADD45R,0.01187X0.02959*%
%ADD46R,0.07000X0.03600*%
%ADD47R,0.05912X0.05912*%
%ADD48C,0.03943*%
%ADD49R,0.03900X0.04400*%
%ADD50R,0.05400X0.04900*%
%ADD51R,0.04400X0.03900*%
%ADD52R,0.01187X0.02369*%
%ADD53R,0.02369X0.01187*%
%ADD54R,0.10636X0.10636*%
%ADD55R,0.04600X0.03400*%
%ADD56R,0.04337X0.08274*%
%ADD57R,0.08274X0.04337*%
%ADD58R,0.08274X0.08274*%
%ADD59R,0.12211X0.08274*%
%ADD60R,0.06306X0.10243*%
%ADD61C,0.05124*%
%ADD62R,0.06306X0.02762*%
%ADD63R,0.01975X0.04140*%
%ADD64R,0.01778X0.09455*%
%ADD65R,0.05518X0.01778*%
%ADD66R,0.12211X0.12211*%
%ADD67R,0.04400X0.02400*%
%ADD68OC8,0.04731*%
%ADD69R,0.09061X0.04337*%
%ADD70R,0.04337X0.04337*%
%ADD71R,0.02369X0.02369*%
%ADD72R,0.05124X0.06699*%
%ADD73R,0.01581X0.02762*%
%ADD74R,0.02762X0.01581*%
%ADD75R,0.08668X0.08668*%
%ADD76R,0.02959X0.01581*%
%ADD77R,0.01581X0.02959*%
%ADD78C,0.02959*%
%ADD79OC8,0.02800*%
%ADD80R,0.03943X0.01581*%
%ADD81C,0.06463*%
%ADD82R,0.01778X0.02369*%
%ADD83R,0.06896X0.09770*%
%ADD84R,0.02172X0.01384*%
%ADD85C,0.01483*%
%ADD86R,0.03156X0.02369*%
%ADD87R,0.05124X0.01778*%
%ADD88C,0.02369*%
%ADD89R,0.02362X0.02953*%
%ADD90R,0.02369X0.05321*%
%ADD91R,0.03156X0.05321*%
%ADD92R,0.10243X0.06306*%
%ADD93R,0.05124X0.04258*%
%ADD94R,0.07290X0.06306*%
%ADD95R,0.04337X0.06306*%
%ADD96R,0.07487X0.03550*%
%ADD97R,0.01378X0.02559*%
%ADD98R,0.02762X0.02565*%
%ADD99R,0.02369X0.03156*%
%ADD100R,0.02959X0.01975*%
%ADD101R,0.01384X0.03550*%
%ADD102R,0.03550X0.01384*%
%ADD103R,0.10700X0.10700*%
%ADD104R,0.01306X0.04337*%
%ADD105R,0.02953X0.02362*%
%ADD106C,0.10400*%
D10*
X0049997Y0075862D03*
X0049997Y0099484D03*
X0559839Y0152634D03*
D11*
X0559839Y0160508D03*
X0559839Y0168382D03*
X0559839Y0144760D03*
X0559839Y0136886D03*
X0049997Y0107358D03*
X0049997Y0067988D03*
D12*
X0049997Y0087673D03*
D13*
X0069682Y0066020D03*
X0069682Y0062083D03*
X0069682Y0109327D03*
X0069682Y0113264D03*
X0090154Y0128618D03*
X0108068Y0133146D03*
X0109446Y0129799D03*
X0108855Y0143972D03*
X0112989Y0158736D03*
X0128737Y0159720D03*
X0161611Y0156374D03*
X0161611Y0152437D03*
X0214367Y0148894D03*
X0214760Y0137280D03*
X0216453Y0131728D03*
X0296650Y0144169D03*
X0313186Y0153421D03*
X0248028Y0183146D03*
X0274406Y0187870D03*
X0293501Y0200272D03*
X0287595Y0201650D03*
X0296257Y0205587D03*
X0299406Y0204209D03*
X0310627Y0201453D03*
X0310627Y0192791D03*
X0310627Y0188461D03*
X0392516Y0154012D03*
X0391926Y0148303D03*
X0406690Y0146925D03*
X0388776Y0105587D03*
X0487398Y0125469D03*
X0487398Y0129406D03*
X0573619Y0129012D03*
X0573619Y0132949D03*
X0573619Y0172319D03*
X0573619Y0176256D03*
X0459839Y0191020D03*
X0546060Y0235311D03*
X0546060Y0239248D03*
X0373028Y0241413D03*
X0368698Y0242398D03*
X0213186Y0227043D03*
X0213186Y0222713D03*
X0180312Y0196925D03*
X0168304Y0188461D03*
X0158855Y0205193D03*
X0111020Y0182358D03*
X0086217Y0176059D03*
X0082477Y0176059D03*
X0069682Y0192004D03*
X0069682Y0195941D03*
X0053934Y0203815D03*
X0053934Y0213657D03*
X0053934Y0223500D03*
X0053934Y0233343D03*
X0069682Y0239248D03*
X0069682Y0243185D03*
X0208658Y0085114D03*
X0210430Y0081177D03*
X0206690Y0054406D03*
X0214564Y0054406D03*
X0214564Y0051256D03*
X0214564Y0048106D03*
X0208068Y0041020D03*
X0203146Y0043382D03*
X0200390Y0040823D03*
X0180115Y0051846D03*
X0335823Y0049484D03*
X0342910Y0046531D03*
X0546060Y0066020D03*
X0546060Y0069957D03*
D14*
X0195115Y0057083D03*
X0193146Y0057083D03*
X0191178Y0057083D03*
X0189209Y0057083D03*
X0187241Y0057083D03*
X0185272Y0057083D03*
X0183304Y0057083D03*
X0181335Y0057083D03*
X0179367Y0057083D03*
X0177398Y0057083D03*
X0175430Y0057083D03*
X0173461Y0057083D03*
X0171493Y0057083D03*
X0169524Y0057083D03*
X0167556Y0057083D03*
X0165587Y0057083D03*
X0163619Y0057083D03*
X0161650Y0057083D03*
X0159682Y0057083D03*
X0157713Y0057083D03*
X0155745Y0057083D03*
X0153776Y0057083D03*
X0151808Y0057083D03*
X0149839Y0057083D03*
X0147871Y0057083D03*
X0145902Y0057083D03*
X0143934Y0057083D03*
X0141965Y0057083D03*
X0139997Y0057083D03*
X0138028Y0057083D03*
X0136060Y0057083D03*
X0134091Y0057083D03*
X0132123Y0057083D03*
X0130154Y0057083D03*
X0128186Y0057083D03*
X0126217Y0057083D03*
X0126217Y0140547D03*
X0128186Y0140547D03*
X0130154Y0140547D03*
X0132123Y0140547D03*
X0134091Y0140547D03*
X0136060Y0140547D03*
X0138028Y0140547D03*
X0139997Y0140547D03*
X0141965Y0140547D03*
X0143934Y0140547D03*
X0145902Y0140547D03*
X0147871Y0140547D03*
X0149839Y0140547D03*
X0151808Y0140547D03*
X0153776Y0140547D03*
X0155745Y0140547D03*
X0157713Y0140547D03*
X0159682Y0140547D03*
X0161650Y0140547D03*
X0163619Y0140547D03*
X0165587Y0140547D03*
X0167556Y0140547D03*
X0169524Y0140547D03*
X0171493Y0140547D03*
X0173461Y0140547D03*
X0175430Y0140547D03*
X0177398Y0140547D03*
X0179367Y0140547D03*
X0181335Y0140547D03*
X0183304Y0140547D03*
X0185272Y0140547D03*
X0187241Y0140547D03*
X0189209Y0140547D03*
X0191178Y0140547D03*
X0193146Y0140547D03*
X0195115Y0140547D03*
D15*
X0202398Y0133264D03*
X0202398Y0131295D03*
X0202398Y0129327D03*
X0202398Y0127358D03*
X0202398Y0125390D03*
X0202398Y0123421D03*
X0202398Y0121453D03*
X0202398Y0119484D03*
X0202398Y0117516D03*
X0202398Y0115547D03*
X0202398Y0113579D03*
X0202398Y0111610D03*
X0202398Y0109642D03*
X0202398Y0107673D03*
X0202398Y0105705D03*
X0202398Y0103736D03*
X0202398Y0101768D03*
X0202398Y0099799D03*
X0202398Y0097831D03*
X0202398Y0095862D03*
X0202398Y0093894D03*
X0202398Y0091925D03*
X0202398Y0089957D03*
X0202398Y0087988D03*
X0202398Y0086020D03*
X0202398Y0084051D03*
X0202398Y0082083D03*
X0202398Y0080114D03*
X0202398Y0078146D03*
X0202398Y0076177D03*
X0202398Y0074209D03*
X0202398Y0072240D03*
X0202398Y0070272D03*
X0202398Y0068303D03*
X0202398Y0066335D03*
X0202398Y0064366D03*
X0118934Y0064366D03*
X0118934Y0066335D03*
X0118934Y0068303D03*
X0118934Y0070272D03*
X0118934Y0072240D03*
X0118934Y0074209D03*
X0118934Y0076177D03*
X0118934Y0078146D03*
X0118934Y0080114D03*
X0118934Y0082083D03*
X0118934Y0084051D03*
X0118934Y0086020D03*
X0118934Y0087988D03*
X0118934Y0089957D03*
X0118934Y0091925D03*
X0118934Y0093894D03*
X0118934Y0095862D03*
X0118934Y0097831D03*
X0118934Y0099799D03*
X0118934Y0101768D03*
X0118934Y0103736D03*
X0118934Y0105705D03*
X0118934Y0107673D03*
X0118934Y0109642D03*
X0118934Y0111610D03*
X0118934Y0113579D03*
X0118934Y0115547D03*
X0118934Y0117516D03*
X0118934Y0119484D03*
X0118934Y0121453D03*
X0118934Y0123421D03*
X0118934Y0125390D03*
X0118934Y0127358D03*
X0118934Y0129327D03*
X0118934Y0131295D03*
X0118934Y0133264D03*
D16*
X0229319Y0132398D03*
X0229319Y0135547D03*
X0229319Y0138697D03*
X0229319Y0129248D03*
X0229319Y0126098D03*
X0229319Y0122949D03*
X0229319Y0119799D03*
X0229319Y0116650D03*
X0229319Y0113500D03*
X0229319Y0110350D03*
X0229319Y0107201D03*
X0229319Y0104051D03*
X0229319Y0100902D03*
X0229319Y0097752D03*
X0229319Y0094602D03*
X0229319Y0091453D03*
X0229319Y0088303D03*
X0229319Y0085154D03*
X0229319Y0082004D03*
X0229319Y0078854D03*
X0229319Y0075705D03*
X0229319Y0072555D03*
X0229319Y0069406D03*
X0229319Y0066256D03*
X0229319Y0063106D03*
X0229319Y0059957D03*
X0229319Y0056807D03*
X0272643Y0056807D03*
X0272643Y0059957D03*
X0272643Y0063106D03*
X0272643Y0066256D03*
X0272643Y0069406D03*
X0272643Y0072555D03*
X0272643Y0075705D03*
X0272643Y0078854D03*
X0272643Y0082004D03*
X0272643Y0085154D03*
X0272643Y0088303D03*
X0272643Y0091453D03*
X0272643Y0094602D03*
X0272643Y0097752D03*
X0272643Y0100902D03*
X0272643Y0104051D03*
X0272643Y0107201D03*
X0272643Y0110350D03*
X0272643Y0113500D03*
X0272643Y0116650D03*
X0272643Y0119799D03*
X0272643Y0122949D03*
X0272643Y0126098D03*
X0272643Y0129248D03*
X0272643Y0132398D03*
X0272643Y0135547D03*
X0272643Y0138697D03*
D17*
X0172241Y0178618D03*
X0138186Y0168185D03*
D18*
X0138186Y0162870D03*
X0140154Y0162870D03*
X0142123Y0162870D03*
X0136217Y0162870D03*
X0134249Y0162870D03*
X0134249Y0173500D03*
X0136217Y0173500D03*
X0138186Y0173500D03*
X0140154Y0173500D03*
X0142123Y0173500D03*
X0168304Y0173303D03*
X0170272Y0173303D03*
X0172241Y0173303D03*
X0174209Y0173303D03*
X0176178Y0173303D03*
X0176178Y0183933D03*
X0174209Y0183933D03*
X0172241Y0183933D03*
X0170272Y0183933D03*
X0168304Y0183933D03*
D19*
X0339367Y0099484D03*
D20*
X0340351Y0141856D03*
X0338383Y0141856D03*
X0336414Y0141856D03*
X0334446Y0141856D03*
X0332477Y0141856D03*
X0330509Y0141856D03*
X0328540Y0141856D03*
X0326572Y0141856D03*
X0324603Y0141856D03*
X0322635Y0141856D03*
X0320666Y0141856D03*
X0318698Y0141856D03*
X0316729Y0141856D03*
X0314760Y0141856D03*
X0312792Y0141856D03*
X0310823Y0141856D03*
X0308855Y0141856D03*
X0306886Y0141856D03*
X0304918Y0141856D03*
X0342320Y0141856D03*
X0344288Y0141856D03*
X0346257Y0141856D03*
X0348225Y0141856D03*
X0350194Y0141856D03*
X0352162Y0141856D03*
X0354131Y0141856D03*
X0356099Y0141856D03*
X0358068Y0141856D03*
X0360036Y0141856D03*
X0362005Y0141856D03*
X0363973Y0141856D03*
X0365942Y0141856D03*
X0367910Y0141856D03*
X0369879Y0141856D03*
X0371847Y0141856D03*
X0373816Y0141856D03*
X0373816Y0057112D03*
X0371847Y0057112D03*
X0369879Y0057112D03*
X0367910Y0057112D03*
X0365942Y0057112D03*
X0363973Y0057112D03*
X0362005Y0057112D03*
X0360036Y0057112D03*
X0358068Y0057112D03*
X0356099Y0057112D03*
X0354131Y0057112D03*
X0352162Y0057112D03*
X0350194Y0057112D03*
X0348225Y0057112D03*
X0346257Y0057112D03*
X0344288Y0057112D03*
X0342320Y0057112D03*
X0340351Y0057112D03*
X0338383Y0057112D03*
X0336414Y0057112D03*
X0334446Y0057112D03*
X0332477Y0057112D03*
X0330509Y0057112D03*
X0328540Y0057112D03*
X0326572Y0057112D03*
X0324603Y0057112D03*
X0322635Y0057112D03*
X0320666Y0057112D03*
X0318698Y0057112D03*
X0316729Y0057112D03*
X0314760Y0057112D03*
X0312792Y0057112D03*
X0310823Y0057112D03*
X0308855Y0057112D03*
X0306886Y0057112D03*
X0304918Y0057112D03*
D21*
X0296995Y0065035D03*
X0296995Y0067004D03*
X0296995Y0068972D03*
X0296995Y0070941D03*
X0296995Y0072909D03*
X0296995Y0074878D03*
X0296995Y0076846D03*
X0296995Y0078815D03*
X0296995Y0080783D03*
X0296995Y0082752D03*
X0296995Y0084720D03*
X0296995Y0086689D03*
X0296995Y0088657D03*
X0296995Y0090626D03*
X0296995Y0092594D03*
X0296995Y0094563D03*
X0296995Y0096531D03*
X0296995Y0098500D03*
X0296995Y0100469D03*
X0296995Y0102437D03*
X0296995Y0104406D03*
X0296995Y0106374D03*
X0296995Y0108343D03*
X0296995Y0110311D03*
X0296995Y0112280D03*
X0296995Y0114248D03*
X0296995Y0116217D03*
X0296995Y0118185D03*
X0296995Y0120154D03*
X0296995Y0122122D03*
X0296995Y0124091D03*
X0296995Y0126059D03*
X0296995Y0128028D03*
X0296995Y0129996D03*
X0296995Y0131965D03*
X0296995Y0133933D03*
X0381739Y0133933D03*
X0381739Y0131965D03*
X0381739Y0129996D03*
X0381739Y0128028D03*
X0381739Y0126059D03*
X0381739Y0124091D03*
X0381739Y0122122D03*
X0381739Y0120154D03*
X0381739Y0118185D03*
X0381739Y0116217D03*
X0381739Y0114248D03*
X0381739Y0112280D03*
X0381739Y0110311D03*
X0381739Y0108343D03*
X0381739Y0106374D03*
X0381739Y0104406D03*
X0381739Y0102437D03*
X0381739Y0100469D03*
X0381739Y0098500D03*
X0381739Y0096531D03*
X0381739Y0094563D03*
X0381739Y0092594D03*
X0381739Y0090626D03*
X0381739Y0088657D03*
X0381739Y0086689D03*
X0381739Y0084720D03*
X0381739Y0082752D03*
X0381739Y0080783D03*
X0381739Y0078815D03*
X0381739Y0076846D03*
X0381739Y0074878D03*
X0381739Y0072909D03*
X0381739Y0070941D03*
X0381739Y0068972D03*
X0381739Y0067004D03*
X0381739Y0065035D03*
D22*
X0390548Y0060311D03*
X0390548Y0055193D03*
X0397044Y0066020D03*
X0397044Y0071138D03*
X0408855Y0076453D03*
X0408855Y0081571D03*
X0480902Y0090626D03*
X0485823Y0090626D03*
X0485823Y0095744D03*
X0480902Y0095744D03*
X0517320Y0069563D03*
X0517320Y0064445D03*
X0519288Y0057949D03*
X0519288Y0052831D03*
X0501768Y0036098D03*
X0501768Y0030980D03*
X0502989Y0146098D03*
X0502989Y0151217D03*
X0508422Y0151197D03*
X0508422Y0146079D03*
X0508343Y0158500D03*
X0508343Y0163618D03*
X0513461Y0163618D03*
X0513461Y0158500D03*
X0502949Y0158539D03*
X0502949Y0163657D03*
X0481453Y0151098D03*
X0481453Y0145980D03*
X0417910Y0164445D03*
X0417910Y0169563D03*
X0419682Y0188067D03*
X0424997Y0188067D03*
X0424997Y0193185D03*
X0419682Y0193185D03*
X0412201Y0201256D03*
X0412201Y0206374D03*
X0438973Y0236689D03*
X0443894Y0236689D03*
X0448816Y0236689D03*
X0453934Y0236689D03*
X0453934Y0241807D03*
X0448816Y0241807D03*
X0443894Y0241807D03*
X0438973Y0241807D03*
X0489957Y0243185D03*
X0489957Y0248303D03*
X0515745Y0225862D03*
X0515745Y0220744D03*
X0513205Y0184366D03*
X0513205Y0179248D03*
X0506493Y0179209D03*
X0506493Y0184327D03*
X0371847Y0157949D03*
X0371847Y0152831D03*
X0357792Y0158776D03*
X0357792Y0163894D03*
X0348737Y0163894D03*
X0344682Y0163854D03*
X0340548Y0163854D03*
X0340548Y0158736D03*
X0344682Y0158736D03*
X0348737Y0158776D03*
X0343304Y0151650D03*
X0343304Y0146531D03*
X0305509Y0173500D03*
X0305509Y0178618D03*
X0220666Y0190232D03*
X0220666Y0195350D03*
X0208068Y0195547D03*
X0208068Y0190429D03*
X0186020Y0181374D03*
X0181690Y0181374D03*
X0181690Y0176256D03*
X0186020Y0176256D03*
X0162201Y0183343D03*
X0162201Y0188461D03*
X0118698Y0182358D03*
X0118698Y0177240D03*
X0160233Y0235705D03*
X0160233Y0240823D03*
X0152949Y0259524D03*
X0152949Y0264642D03*
X0221257Y0109720D03*
X0221257Y0104602D03*
X0221453Y0097713D03*
X0221453Y0092594D03*
X0222438Y0064839D03*
X0222438Y0059720D03*
X0186808Y0044760D03*
X0181886Y0044760D03*
X0176965Y0044760D03*
X0176965Y0039642D03*
X0181886Y0039642D03*
X0186808Y0039642D03*
X0156690Y0037280D03*
X0156690Y0042398D03*
X0150194Y0037476D03*
X0150194Y0032358D03*
X0138776Y0032358D03*
X0138776Y0037476D03*
X0111217Y0039051D03*
X0106690Y0039051D03*
X0101965Y0039051D03*
X0097044Y0039051D03*
X0097044Y0044169D03*
X0101965Y0044169D03*
X0106690Y0044169D03*
X0111217Y0044169D03*
X0110627Y0090232D03*
X0110627Y0095350D03*
D23*
X0080705Y0128618D03*
X0075587Y0128618D03*
X0123619Y0190232D03*
X0128737Y0190232D03*
X0099406Y0192004D03*
X0094288Y0192004D03*
X0096257Y0208539D03*
X0101375Y0208539D03*
X0101375Y0213854D03*
X0096257Y0213854D03*
X0096257Y0219169D03*
X0101375Y0219169D03*
X0101375Y0224484D03*
X0096257Y0224484D03*
X0096257Y0229996D03*
X0101375Y0229996D03*
X0137595Y0229406D03*
X0142713Y0229406D03*
X0142910Y0208933D03*
X0137792Y0208933D03*
X0152949Y0270744D03*
X0158068Y0270744D03*
X0254327Y0183146D03*
X0259446Y0183146D03*
X0269485Y0180587D03*
X0274603Y0180587D03*
X0274603Y0175272D03*
X0274603Y0170350D03*
X0269485Y0170350D03*
X0269485Y0175272D03*
X0269485Y0165232D03*
X0274603Y0165232D03*
X0302556Y0155587D03*
X0307674Y0155587D03*
X0326375Y0163067D03*
X0331493Y0163067D03*
X0403146Y0153224D03*
X0408264Y0153224D03*
X0476375Y0157358D03*
X0481493Y0157358D03*
X0502949Y0168382D03*
X0508068Y0168382D03*
X0508068Y0173279D03*
X0513186Y0173279D03*
X0499367Y0184327D03*
X0494249Y0184327D03*
X0483461Y0184327D03*
X0478343Y0184327D03*
X0498225Y0213657D03*
X0503343Y0213657D03*
X0471060Y0219957D03*
X0471060Y0224287D03*
X0471060Y0228421D03*
X0465942Y0228421D03*
X0465942Y0224287D03*
X0465942Y0219957D03*
X0500981Y0235114D03*
X0506099Y0235114D03*
X0510823Y0235114D03*
X0515942Y0235114D03*
X0515942Y0241020D03*
X0510823Y0241020D03*
X0505902Y0241020D03*
X0500784Y0241020D03*
X0473422Y0110311D03*
X0468304Y0110311D03*
X0464564Y0110311D03*
X0459446Y0110311D03*
X0480705Y0101256D03*
X0485823Y0101256D03*
X0464957Y0084327D03*
X0459839Y0084327D03*
X0455705Y0084327D03*
X0450587Y0084327D03*
X0450587Y0078028D03*
X0455705Y0078028D03*
X0459839Y0078028D03*
X0464957Y0078028D03*
X0481886Y0068382D03*
X0487005Y0068382D03*
X0486808Y0060311D03*
X0486808Y0055783D03*
X0481690Y0055783D03*
X0481690Y0060311D03*
X0479918Y0046925D03*
X0475587Y0046925D03*
X0470469Y0046925D03*
X0485036Y0046925D03*
X0513186Y0079602D03*
X0518304Y0079602D03*
X0522241Y0079602D03*
X0527359Y0079602D03*
X0391138Y0089642D03*
X0386020Y0089642D03*
X0348028Y0050665D03*
X0342910Y0050665D03*
G36*
X0283611Y0098934D02*
X0281772Y0100773D01*
X0284175Y0103176D01*
X0286014Y0101337D01*
X0283611Y0098934D01*
G37*
G36*
X0279992Y0102553D02*
X0278153Y0104392D01*
X0280556Y0106795D01*
X0282395Y0104956D01*
X0279992Y0102553D01*
G37*
X0111020Y0032949D03*
X0105902Y0032949D03*
D24*
X0325351Y0175902D03*
X0329682Y0175902D03*
X0334012Y0175902D03*
X0338343Y0175902D03*
X0342674Y0175902D03*
X0347005Y0175902D03*
X0351335Y0175902D03*
X0355666Y0175902D03*
X0359997Y0175902D03*
X0364327Y0175902D03*
X0368658Y0175902D03*
X0372989Y0175902D03*
X0372989Y0235272D03*
X0368658Y0235272D03*
X0364327Y0235272D03*
X0359997Y0235272D03*
X0355666Y0235272D03*
X0351335Y0235272D03*
X0347005Y0235272D03*
X0342674Y0235272D03*
X0338343Y0235272D03*
X0334012Y0235272D03*
X0329682Y0235272D03*
X0325351Y0235272D03*
D25*
X0316296Y0223146D03*
X0316296Y0218815D03*
X0316296Y0214484D03*
X0316296Y0210154D03*
X0316296Y0205823D03*
X0316296Y0201492D03*
X0316296Y0197161D03*
X0316296Y0192831D03*
X0316296Y0188500D03*
X0382123Y0188500D03*
X0382123Y0192831D03*
X0382123Y0197161D03*
X0382123Y0201492D03*
X0382123Y0205823D03*
X0382123Y0210154D03*
X0382123Y0214484D03*
X0382123Y0218815D03*
X0382123Y0223146D03*
D26*
X0426375Y0174366D03*
X0426375Y0172398D03*
X0426375Y0170429D03*
X0426375Y0168461D03*
X0426375Y0166492D03*
X0426375Y0164524D03*
X0426375Y0162555D03*
X0426375Y0160587D03*
X0426375Y0158618D03*
X0426375Y0156650D03*
X0426375Y0154681D03*
X0426375Y0152713D03*
X0426375Y0150744D03*
X0426375Y0148776D03*
X0426375Y0146807D03*
X0426375Y0144839D03*
X0426375Y0142870D03*
X0426375Y0140902D03*
X0426375Y0138933D03*
X0426375Y0136965D03*
X0426375Y0134996D03*
X0426375Y0133028D03*
X0426375Y0131059D03*
X0426375Y0129091D03*
D27*
X0439170Y0118776D03*
X0439170Y0184524D03*
D28*
X0434347Y0183539D03*
X0434347Y0119760D03*
D29*
X0433461Y0049484D03*
X0431099Y0049484D03*
X0428737Y0049484D03*
X0426375Y0049484D03*
X0424012Y0049484D03*
X0421650Y0049484D03*
X0419288Y0049484D03*
X0416926Y0049484D03*
X0414564Y0049484D03*
X0412201Y0049484D03*
X0409839Y0049484D03*
X0407477Y0049484D03*
X0405115Y0049484D03*
X0402753Y0049484D03*
X0400390Y0049484D03*
X0435823Y0049484D03*
X0438186Y0049484D03*
X0440548Y0049484D03*
X0442910Y0049484D03*
X0445272Y0049484D03*
X0447635Y0049484D03*
X0449997Y0049484D03*
X0452359Y0049484D03*
D30*
X0454820Y0050528D03*
X0397930Y0050528D03*
D31*
X0401572Y0061551D03*
X0403934Y0061551D03*
X0406296Y0061551D03*
X0408658Y0061551D03*
X0411020Y0061551D03*
X0413383Y0061551D03*
X0415745Y0061551D03*
X0418107Y0061551D03*
X0420469Y0061551D03*
X0422831Y0061551D03*
X0425194Y0061551D03*
X0427556Y0061551D03*
X0429918Y0061551D03*
X0432280Y0061551D03*
X0434642Y0061551D03*
X0437005Y0061551D03*
X0439367Y0061551D03*
X0441729Y0061551D03*
X0444091Y0061551D03*
X0446453Y0061551D03*
X0448816Y0061551D03*
X0451178Y0061551D03*
X0104623Y0139228D03*
X0104623Y0147614D03*
X0104623Y0157457D03*
X0104623Y0165803D03*
D32*
X0118796Y0171827D03*
X0126276Y0171827D03*
X0122536Y0163165D03*
D33*
X0153343Y0162673D03*
X0153343Y0174484D03*
X0225587Y0176059D03*
X0225587Y0164248D03*
X0238816Y0186295D03*
X0238816Y0198106D03*
X0513186Y0192201D03*
X0513186Y0204012D03*
D34*
X0261020Y0190823D03*
X0249209Y0190823D03*
X0201611Y0199957D03*
X0189800Y0199957D03*
X0122831Y0198697D03*
X0111020Y0198697D03*
X0463579Y0053224D03*
X0475390Y0053224D03*
D35*
X0320863Y0166118D03*
X0316926Y0166118D03*
X0311217Y0166118D03*
X0309249Y0170646D03*
X0313186Y0170646D03*
X0318894Y0170646D03*
X0128146Y0181669D03*
X0124209Y0181669D03*
X0126178Y0177142D03*
D36*
X0133674Y0198598D03*
X0146635Y0198598D03*
X0496749Y0044744D03*
X0496749Y0031783D03*
D37*
X0238776Y0164445D03*
X0238776Y0176256D03*
X0181690Y0164445D03*
X0169879Y0164445D03*
X0146650Y0184917D03*
X0134839Y0184917D03*
D38*
X0397221Y0191054D03*
X0402221Y0191054D03*
X0407221Y0191054D03*
X0412221Y0191054D03*
X0412221Y0169332D03*
X0407221Y0169332D03*
X0402221Y0169332D03*
X0397221Y0169332D03*
D39*
X0396453Y0204406D03*
X0396453Y0206374D03*
X0396453Y0208343D03*
X0396453Y0210311D03*
X0406690Y0210311D03*
X0406690Y0208343D03*
X0406690Y0206374D03*
X0406690Y0204406D03*
D40*
X0305509Y0189051D03*
X0305509Y0183146D03*
X0508855Y0213657D03*
X0514760Y0213657D03*
X0100784Y0032949D03*
X0094879Y0032949D03*
X0077162Y0192004D03*
X0077162Y0197909D03*
D41*
X0505390Y0221517D03*
X0510351Y0221517D03*
X0510351Y0228470D03*
X0505390Y0228470D03*
D42*
X0496611Y0152467D03*
X0487157Y0152467D03*
X0487157Y0145006D03*
X0496611Y0145006D03*
X0330789Y0150872D03*
X0321335Y0150872D03*
X0321335Y0158333D03*
X0330789Y0158333D03*
X0171768Y0044750D03*
X0171768Y0037289D03*
X0162315Y0037289D03*
X0162315Y0044750D03*
D43*
X0426611Y0097555D03*
D44*
X0436375Y0096768D03*
X0436375Y0098343D03*
X0436375Y0099917D03*
X0436375Y0101492D03*
X0436375Y0103067D03*
X0436375Y0104642D03*
X0436375Y0095193D03*
X0436375Y0093618D03*
X0436375Y0092043D03*
X0436375Y0090469D03*
X0416847Y0090469D03*
X0416847Y0092043D03*
X0416847Y0093618D03*
X0416847Y0095193D03*
X0416847Y0096768D03*
X0416847Y0098343D03*
X0416847Y0099917D03*
X0416847Y0101492D03*
X0416847Y0103067D03*
X0416847Y0104642D03*
D45*
X0419524Y0107319D03*
X0421099Y0107319D03*
X0422674Y0107319D03*
X0424249Y0107319D03*
X0425823Y0107319D03*
X0427398Y0107319D03*
X0428973Y0107319D03*
X0430548Y0107319D03*
X0432123Y0107319D03*
X0433698Y0107319D03*
X0433698Y0087791D03*
X0432123Y0087791D03*
X0430548Y0087791D03*
X0428973Y0087791D03*
X0427398Y0087791D03*
X0425823Y0087791D03*
X0424249Y0087791D03*
X0422674Y0087791D03*
X0421099Y0087791D03*
X0419524Y0087791D03*
D46*
X0385135Y0041217D03*
X0368402Y0041217D03*
X0345764Y0041217D03*
X0329032Y0041217D03*
X0466827Y0040823D03*
X0483560Y0040823D03*
X0134741Y0264051D03*
X0118009Y0264051D03*
D47*
X0112595Y0272417D03*
X0140154Y0272417D03*
X0323619Y0032850D03*
X0351178Y0032850D03*
X0362989Y0032850D03*
X0390548Y0032850D03*
X0461414Y0032457D03*
X0488973Y0032457D03*
D48*
X0480115Y0033933D03*
X0470272Y0033933D03*
X0381690Y0034327D03*
X0371847Y0034327D03*
X0342320Y0034327D03*
X0332477Y0034327D03*
X0057871Y0208736D03*
X0057871Y0228421D03*
X0121453Y0270941D03*
X0131296Y0270941D03*
D49*
X0340351Y0242398D03*
X0347044Y0242398D03*
G36*
X0202901Y0149052D02*
X0205659Y0146294D01*
X0202549Y0143184D01*
X0199791Y0145942D01*
X0202901Y0149052D01*
G37*
G36*
X0207633Y0144319D02*
X0210391Y0141561D01*
X0207281Y0138451D01*
X0204523Y0141209D01*
X0207633Y0144319D01*
G37*
G36*
X0116185Y0145473D02*
X0118943Y0148231D01*
X0122053Y0145121D01*
X0119295Y0142363D01*
X0116185Y0145473D01*
G37*
G36*
X0111453Y0140740D02*
X0114211Y0143498D01*
X0117321Y0140388D01*
X0114563Y0137630D01*
X0111453Y0140740D01*
G37*
X0121453Y0039051D03*
X0128146Y0039051D03*
X0436414Y0067988D03*
X0443107Y0067988D03*
X0455509Y0067988D03*
X0462201Y0067988D03*
X0454131Y0094366D03*
X0447438Y0094366D03*
X0466138Y0103224D03*
X0472831Y0103224D03*
X0453540Y0108343D03*
X0446847Y0108343D03*
X0452753Y0117004D03*
X0459446Y0117004D03*
X0459249Y0123106D03*
X0465942Y0123106D03*
X0466138Y0117004D03*
X0472831Y0117004D03*
D50*
X0150149Y0042811D03*
X0138821Y0042811D03*
D51*
X0415154Y0076650D03*
X0415154Y0083343D03*
X0421257Y0117201D03*
X0421257Y0123894D03*
D52*
X0122831Y0211098D03*
X0121257Y0211098D03*
X0119682Y0211098D03*
X0118107Y0211098D03*
X0116532Y0211098D03*
X0114957Y0211098D03*
X0113383Y0211098D03*
X0113383Y0225665D03*
X0114957Y0225665D03*
X0116532Y0225665D03*
X0118107Y0225665D03*
X0119682Y0225665D03*
X0121257Y0225665D03*
X0122831Y0225665D03*
D53*
X0125390Y0223106D03*
X0125390Y0221433D03*
X0125390Y0219858D03*
X0125390Y0218283D03*
X0125390Y0216709D03*
X0125390Y0215134D03*
X0125390Y0213559D03*
X0110823Y0213657D03*
X0110823Y0215232D03*
X0110823Y0216807D03*
X0110823Y0218382D03*
X0110823Y0219957D03*
X0110823Y0221531D03*
X0110823Y0223106D03*
D54*
X0118107Y0218382D03*
D55*
X0136020Y0215823D03*
X0144682Y0219563D03*
X0136020Y0223303D03*
D56*
X0170075Y0270744D03*
X0205509Y0270744D03*
X0400390Y0243382D03*
X0420075Y0243382D03*
X0483264Y0267201D03*
X0518698Y0267201D03*
D57*
X0538186Y0215232D03*
X0538186Y0195547D03*
D58*
X0534406Y0110429D03*
X0534406Y0082083D03*
X0506060Y0082083D03*
D59*
X0499367Y0110429D03*
X0519052Y0110429D03*
D60*
X0497398Y0082083D03*
D61*
X0505902Y0095744D03*
X0533461Y0095744D03*
D62*
X0500228Y0190606D03*
X0500228Y0195606D03*
X0500228Y0200606D03*
X0500228Y0205606D03*
X0478506Y0205606D03*
X0478505Y0200606D03*
X0478506Y0195606D03*
X0478506Y0190606D03*
D63*
X0082871Y0214937D03*
X0079721Y0214937D03*
X0079721Y0220252D03*
X0082871Y0220252D03*
D64*
X0086217Y0217594D03*
X0076375Y0217594D03*
D65*
X0081296Y0210705D03*
X0081296Y0224484D03*
D66*
X0100981Y0113264D03*
X0100981Y0062083D03*
X0485036Y0228028D03*
D67*
X0506655Y0038461D03*
X0506655Y0034720D03*
X0506655Y0030980D03*
X0515779Y0030980D03*
X0515779Y0034720D03*
X0515779Y0038461D03*
D68*
X0473225Y0079799D03*
X0473225Y0087673D03*
X0390548Y0048303D03*
X0382674Y0048303D03*
X0374800Y0048303D03*
X0382674Y0056177D03*
X0390548Y0166413D03*
X0445666Y0201846D03*
X0382674Y0241217D03*
D69*
X0302753Y0245744D03*
X0302753Y0234327D03*
X0287497Y0209031D03*
D70*
X0309052Y0240035D03*
D71*
X0313973Y0240035D03*
X0313973Y0242791D03*
X0313973Y0245547D03*
D72*
X0503343Y0045154D03*
X0515154Y0045154D03*
D73*
X0491926Y0218972D03*
X0489957Y0218972D03*
X0487989Y0218972D03*
X0486020Y0218972D03*
X0484052Y0218972D03*
X0482083Y0218972D03*
X0480115Y0218972D03*
X0478146Y0218972D03*
X0478146Y0237083D03*
X0480115Y0237083D03*
X0482083Y0237083D03*
X0484052Y0237083D03*
X0486020Y0237083D03*
X0487989Y0237083D03*
X0489957Y0237083D03*
X0491926Y0237083D03*
D74*
X0494091Y0234917D03*
X0494091Y0232949D03*
X0494091Y0230980D03*
X0494091Y0229012D03*
X0494091Y0227043D03*
X0494091Y0225075D03*
X0494091Y0223106D03*
X0494091Y0221138D03*
X0475981Y0221138D03*
X0475981Y0223106D03*
X0475981Y0225075D03*
X0475981Y0227043D03*
X0475981Y0229012D03*
X0475981Y0230980D03*
X0475981Y0232949D03*
X0475981Y0234917D03*
D75*
X0489564Y0171335D03*
D76*
X0481983Y0171335D03*
X0481983Y0173276D03*
X0481983Y0175218D03*
X0481983Y0169393D03*
X0481983Y0167452D03*
X0497144Y0167452D03*
X0497144Y0169393D03*
X0497144Y0171335D03*
X0497144Y0173276D03*
X0497144Y0175218D03*
D77*
X0493447Y0178915D03*
X0491505Y0178915D03*
X0489564Y0178915D03*
X0487622Y0178915D03*
X0485681Y0178915D03*
X0485681Y0163754D03*
X0487622Y0163754D03*
X0489564Y0163754D03*
X0491505Y0163754D03*
X0493447Y0163754D03*
D78*
X0098520Y0166709D03*
X0098520Y0138362D03*
D79*
X0095961Y0141512D03*
X0093205Y0143087D03*
X0093205Y0146236D03*
X0093205Y0149386D03*
X0095961Y0150961D03*
X0095961Y0154110D03*
X0095961Y0157260D03*
X0093205Y0158835D03*
X0093205Y0161984D03*
X0095961Y0163559D03*
X0093205Y0155685D03*
X0095961Y0147811D03*
D80*
X0100725Y0147614D03*
X0100725Y0145646D03*
X0100725Y0143677D03*
X0100725Y0141709D03*
X0100725Y0149583D03*
X0100725Y0151551D03*
X0100725Y0153520D03*
X0100725Y0155488D03*
X0100725Y0157457D03*
X0100725Y0159425D03*
X0100725Y0161394D03*
X0100725Y0163362D03*
D81*
X0093599Y0168795D03*
X0076316Y0170213D03*
X0093599Y0136276D03*
X0076316Y0134858D03*
D82*
X0523914Y0070843D03*
X0526473Y0070843D03*
X0529032Y0070843D03*
X0531591Y0070843D03*
X0531591Y0062772D03*
X0529032Y0062772D03*
X0526473Y0062772D03*
X0523914Y0062772D03*
D83*
X0256886Y0173106D03*
D84*
X0251572Y0173106D03*
X0251572Y0171138D03*
X0251572Y0169169D03*
X0251572Y0175075D03*
X0251572Y0177043D03*
X0262201Y0177043D03*
X0262201Y0175075D03*
X0262201Y0173106D03*
X0262201Y0171138D03*
X0262201Y0169169D03*
D85*
X0227556Y0193382D03*
X0227556Y0195350D03*
X0225587Y0195350D03*
X0225587Y0193382D03*
X0214760Y0193579D03*
X0212792Y0193579D03*
X0212792Y0195547D03*
X0214760Y0195547D03*
X0536217Y0069760D03*
X0536217Y0067791D03*
X0536217Y0065823D03*
X0536217Y0063854D03*
X0540154Y0063854D03*
X0540154Y0065823D03*
X0540154Y0067791D03*
X0540154Y0069760D03*
D86*
X0127162Y0032949D03*
X0122044Y0032949D03*
D87*
X0397438Y0219465D03*
X0397438Y0222024D03*
X0397438Y0224583D03*
X0397438Y0227142D03*
X0414367Y0227142D03*
X0414367Y0224583D03*
X0414367Y0222024D03*
X0414367Y0219465D03*
D88*
X0414564Y0214248D03*
X0417320Y0214248D03*
X0455115Y0173106D03*
X0455115Y0170350D03*
X0458461Y0170744D03*
X0458461Y0167988D03*
D89*
X0458461Y0169465D03*
X0455115Y0171827D03*
D90*
X0272831Y0206177D03*
X0269485Y0206177D03*
D91*
X0265745Y0206177D03*
X0261611Y0206177D03*
X0257379Y0206177D03*
X0253146Y0206177D03*
X0248914Y0206177D03*
X0244682Y0206177D03*
X0240449Y0206177D03*
X0236217Y0206177D03*
D92*
X0226768Y0209327D03*
D93*
X0219485Y0238343D03*
X0219485Y0243343D03*
X0219485Y0248343D03*
X0219485Y0253343D03*
X0219485Y0258343D03*
X0219485Y0263343D03*
D94*
X0221355Y0271827D03*
X0292221Y0271433D03*
D95*
X0292221Y0213953D03*
D96*
X0206690Y0218382D03*
X0206690Y0222713D03*
X0206690Y0227043D03*
X0206690Y0231374D03*
X0206690Y0235705D03*
X0206690Y0240035D03*
X0206690Y0244366D03*
X0206690Y0248697D03*
X0206690Y0253028D03*
X0168501Y0253028D03*
X0168501Y0248697D03*
X0168501Y0244366D03*
X0168501Y0240035D03*
X0168501Y0235705D03*
X0168501Y0231374D03*
X0168501Y0227043D03*
X0168501Y0222713D03*
X0168501Y0218382D03*
D97*
X0156886Y0248697D03*
X0154918Y0248697D03*
X0152949Y0248697D03*
X0152949Y0254602D03*
X0154918Y0254602D03*
X0156886Y0254602D03*
D98*
X0133461Y0242299D03*
X0128343Y0242299D03*
X0130902Y0235016D03*
D99*
X0122438Y0235705D03*
X0122438Y0240823D03*
D100*
X0084938Y0054012D03*
X0084938Y0050075D03*
X0089465Y0052043D03*
D101*
X0497411Y0055129D03*
X0499408Y0055129D03*
X0501385Y0055129D03*
X0503491Y0055129D03*
X0505477Y0055129D03*
X0507464Y0055129D03*
X0507464Y0070690D03*
X0505477Y0070690D03*
X0503491Y0070690D03*
X0501385Y0070690D03*
X0499408Y0070690D03*
X0497411Y0070690D03*
D102*
X0494557Y0067936D03*
X0494557Y0065939D03*
X0494557Y0063963D03*
X0494557Y0061856D03*
X0494557Y0059870D03*
X0494557Y0057883D03*
X0510318Y0057883D03*
X0510318Y0059870D03*
X0510318Y0061856D03*
X0510318Y0063963D03*
X0510318Y0065939D03*
X0510318Y0067936D03*
D103*
X0502398Y0062949D03*
D104*
X0455705Y0214051D03*
X0454131Y0214051D03*
X0452556Y0214051D03*
X0450981Y0214051D03*
X0449406Y0214051D03*
X0449406Y0227437D03*
X0450981Y0227437D03*
X0452556Y0227437D03*
X0454131Y0227437D03*
X0455705Y0227437D03*
D105*
X0416040Y0214248D03*
D106*
X0085430Y0042398D03*
X0085430Y0262870D03*
X0530312Y0262870D03*
X0530312Y0042398D03*
M02*
